<svg width="660" height="282" viewBox="0 0 660 282" fill="none" xmlns="http://www.w3.org/2000/svg">
<path d="M62.9997 57.5395L130.445 174.78L262.5 174.78L194.751 57.5395L62.9997 57.5395Z" fill="#FFD656"/>
<path d="M99.7131 223.486L33.3365 108.328L62.9995 56.9996L130 172L99.7131 223.486Z" fill="#FFD656"/>
<path d="M99.7137 223.486L33.3371 108.327L62.5969 57.6345L129.486 171.814L99.7137 223.486Z" stroke="#2B2D54" stroke-linecap="round" stroke-linejoin="round"/>
<path d="M130 173.427L262.5 175L233.887 224.12L99.7198 223.485L130 173.427Z" fill="#D4D9DB"/>
<path d="M129.393 173.547L262.194 175.078L233.886 224.121L99.7192 223.486L129.393 173.547Z" stroke="#2B2D54" stroke-linecap="round" stroke-linejoin="round"/>
<path d="M63.1459 56.6907C64.6845 58.4233 194.05 57.1213 194.05 57.1213L262.593 174.384L129.786 172.854L63.1459 56.6907Z" stroke="#2B2D54" stroke-linecap="round" stroke-linejoin="round"/>
<path d="M251.074 190.791L123.949 187.563" stroke="#2B2D54" stroke-width="0.5" stroke-linecap="round" stroke-linejoin="round"/>
<path d="M245.059 201.209L117.935 197.982" stroke="#2B2D54" stroke-width="0.5" stroke-linecap="round" stroke-linejoin="round"/>
<path d="M239.046 211.628L111.922 208.4" stroke="#2B2D54" stroke-width="0.5" stroke-linecap="round" stroke-linejoin="round"/>
<path d="M114.51 114.711L206.664 109.07L187.51 75.9929L94.2525 76.4833L114.51 114.711Z" fill="#2B2D54"/>
<path d="M420.568 79.4031C422.394 80.9187 534.184 84.6291 534.184 84.6291L620.42 216.952L502.68 223.207L420.568 79.4031Z" fill="white" stroke="#2B2D54" stroke-linecap="round" stroke-linejoin="round"/>
<path d="M456.104 100.176L527.087 101.308" stroke="#2B2D54"/>
<path d="M472.815 125.314L543.798 126.446" stroke="#2B2D54"/>
<path d="M489.525 150.452L560.508 151.584" stroke="#2B2D54"/>
<path d="M506.235 175.59L577.218 176.722" stroke="#2B2D54"/>
<path d="M466.152 112.675L537.135 113.807" stroke="#2B2D54"/>
<path d="M482.862 137.813L553.845 138.945" stroke="#2B2D54"/>
<path d="M499.573 162.951L570.556 164.083" stroke="#2B2D54"/>
<path d="M516.284 188.089L587.266 189.222" stroke="#2B2D54"/>
<path d="M427.23 72.741C429.056 74.2566 540.846 77.967 540.846 77.967L627.082 210.29L509.342 216.545L427.23 72.741Z" fill="white" stroke="#2B2D54" stroke-linecap="round" stroke-linejoin="round"/>
<path d="M457.77 85.1864L528.752 86.3187" stroke="#2B2D54"/>
<path d="M474.479 110.325L545.462 111.457" stroke="#2B2D54"/>
<path d="M491.19 135.463L562.172 136.595" stroke="#2B2D54"/>
<path d="M507.901 160.601L578.884 161.733" stroke="#2B2D54"/>
<path d="M467.817 97.6855L538.8 98.8177" stroke="#2B2D54"/>
<path d="M484.528 122.824L555.511 123.956" stroke="#2B2D54"/>
<path d="M501.237 147.962L572.22 149.094" stroke="#2B2D54"/>
<path d="M517.948 173.1L588.93 174.232" stroke="#2B2D54"/>
<path d="M435.558 66.0784C437.384 67.594 549.174 71.3044 549.174 71.3044L635.41 203.627L517.67 209.882L435.558 66.0784Z" fill="white" stroke="#2B2D54" stroke-linecap="round" stroke-linejoin="round"/>
<path d="M471.094 86.8515L542.077 87.9837" stroke="#2B2D54"/>
<path d="M487.805 111.989L558.788 113.121" stroke="#2B2D54"/>
<path d="M504.514 137.128L575.497 138.26" stroke="#2B2D54"/>
<path d="M521.225 162.266L592.208 163.398" stroke="#2B2D54"/>
<path d="M481.142 99.3505L552.125 100.483" stroke="#2B2D54"/>
<path d="M497.852 124.488L568.835 125.62" stroke="#2B2D54"/>
<path d="M514.563 149.626L585.546 150.759" stroke="#2B2D54"/>
<path d="M531.273 174.765L602.256 175.897" stroke="#2B2D54"/>
<path d="M443.886 61.0819C445.712 62.5974 557.501 66.3078 557.501 66.3078L643.738 198.631L525.998 204.886L443.886 61.0819Z" fill="white" stroke="#2B2D54" stroke-linecap="round" stroke-linejoin="round"/>
<path d="M479.422 81.8549L550.405 82.9871" stroke="#2B2D54"/>
<path d="M496.133 106.993L567.115 108.125" stroke="#2B2D54"/>
<path d="M512.843 132.131L583.826 133.263" stroke="#2B2D54"/>
<path d="M529.553 157.269L600.535 158.401" stroke="#2B2D54"/>
<path d="M489.47 94.3539L560.453 95.4862" stroke="#2B2D54"/>
<path d="M506.18 119.492L577.163 120.624" stroke="#2B2D54"/>
<path d="M522.891 144.63L593.873 145.762" stroke="#2B2D54"/>
<path d="M539.601 169.768L610.584 170.9" stroke="#2B2D54"/>
<path d="M322.006 91.7534L368.504 119.502L322.006 147.251L330.949 119.656L330.999 119.502L330.949 119.348L322.006 91.7534Z" fill="#81F4E1" stroke="#2B2D54"/>
</svg>
