<svg width="44" height="70" viewBox="0 0 44 70" fill="none" xmlns="http://www.w3.org/2000/svg">
<path opacity="0.3" fill-rule="evenodd" clip-rule="evenodd" d="M32.1907 0.167835C32.2713 0.297881 32.4764 0.404224 32.6465 0.404224C32.8165 0.404224 32.9555 0.500317 32.9555 0.617763C32.9555 0.73521 32.8648 0.831303 32.7537 0.831303C32.6426 0.831303 32.4922 0.73521 32.4193 0.617763C32.2145 0.287845 31.6687 0.365573 31.6687 0.724533C31.6687 0.900703 31.5842 1.04484 31.481 1.04484C31.3779 1.04484 30.8084 1.74162 30.2161 2.593C29.6235 3.44439 28.8505 4.50077 28.4982 4.94023C27.5955 6.06644 26.2389 8.74999 25.5556 10.7609C25.2363 11.7005 24.9204 12.6134 24.8535 12.7895C24.6559 13.3089 24.1655 15.3911 24.0269 16.2993C23.9066 17.0876 23.921 17.1175 24.2602 16.7797C24.4591 16.5818 24.749 16.4197 24.9043 16.4197C25.0613 16.4197 25.253 16.0639 25.3358 15.6189C25.4175 15.1786 25.6311 14.4818 25.8104 14.0708C25.9895 13.6597 26.2184 13.1312 26.3189 12.8963C26.4193 12.6614 26.6233 12.0368 26.7719 11.5083C27.0687 10.4525 27.4715 9.91314 27.808 10.1203C28.1497 10.3304 28.3388 9.56913 28.0004 9.34684C27.7919 9.20996 27.8777 9.17921 28.2826 9.24583C28.7851 9.32868 28.9003 9.24242 29.13 8.60991C29.2761 8.20739 29.4727 7.87811 29.5671 7.87811C29.6612 7.87811 29.7385 7.7818 29.7385 7.66393C29.7385 7.54606 30.0222 6.99576 30.369 6.44099C31.0527 5.34745 31.0669 5.16424 30.4423 5.49693C29.853 5.81105 29.3927 5.4743 29.8768 5.0833C30.2017 4.82065 30.2253 4.823 30.0602 5.1021C29.9027 5.36795 29.9265 5.37735 30.1996 5.1574C30.3806 5.01155 30.5856 4.94899 30.6551 5.01839C30.7248 5.08757 30.7276 4.93831 30.6615 4.68633C30.5822 4.38482 30.6787 4.12472 30.944 3.92464C31.2196 3.71686 31.2539 3.61885 31.0527 3.61415C30.8288 3.60903 30.8164 3.5377 31.0004 3.3169C31.1381 3.15162 31.4731 3.07027 31.7772 3.12813C32.411 3.24878 32.4391 3.35662 31.9368 3.73993C31.6327 3.97204 31.6161 4.06216 31.8499 4.21569C32.0659 4.35727 31.9983 4.43991 31.5818 4.54412C31.2758 4.62056 31.0253 4.79673 31.0253 4.93532C31.0253 5.12687 31.087 5.12601 31.2826 4.93126C31.5878 4.6274 31.8832 4.59707 31.8832 4.86934C31.8832 4.97632 31.4971 5.5501 31.0253 6.14438C30.5534 6.73866 30.1674 7.26418 30.1674 7.31202C30.1674 7.36006 29.8388 7.94281 29.4371 8.60692C28.9867 9.35153 28.6569 9.70942 28.5769 9.5403C28.5052 9.38954 28.4874 9.4835 28.5372 9.74936C28.6226 10.207 28.2402 10.6039 27.701 10.6174C27.583 10.6204 27.3831 10.9902 27.2568 11.4391C27.0185 12.2858 26.832 12.8072 26.5064 13.5369C26.3119 13.973 25.8716 15.074 25.7379 15.4588C25.6972 15.5762 25.543 16.2574 25.3957 16.9723C25.2481 17.6873 25.0308 18.2399 24.9129 18.2002C24.6574 18.1141 24.6068 19.2478 24.8582 19.4257C24.9538 19.4934 24.7883 19.6595 24.4899 19.7947C24.0029 20.0157 23.6949 19.8037 24.1217 19.541C24.2176 19.4821 24.2742 19.124 24.2478 18.7454C24.2216 18.3667 24.2911 17.8184 24.4024 17.5269C24.5699 17.0883 24.5539 17.0387 24.3102 17.2401C24.1481 17.3742 23.9435 17.4124 23.8553 17.3253C23.7672 17.2384 23.759 17.5515 23.8375 18.0212C23.9491 18.6905 23.9261 18.806 23.732 18.5551C23.5326 18.2973 23.5094 18.3499 23.6132 18.8235C23.6842 19.1472 23.6679 19.4001 23.5769 19.3855C23.1643 19.3187 23.0916 19.4404 23.3061 19.8395C23.4817 20.1665 23.4689 20.2959 23.2527 20.3785C23.0961 20.4383 22.9395 20.7492 22.9048 21.0693C22.8025 22.0095 22.7476 22.2705 22.5683 22.6683C22.475 22.8754 22.4409 23.3318 22.4926 23.6826C22.5473 24.0529 22.4898 24.3219 22.3558 24.3239C22.2288 24.3258 22.2695 24.4204 22.4465 24.5342C22.6234 24.648 22.6582 24.7426 22.5235 24.7445C22.1424 24.7497 22.0426 26.2064 22.4137 26.3482C22.7843 26.4898 22.8014 26.4755 23.0558 25.8075C23.2364 25.3337 23.2544 25.3608 23.2379 26.0824C23.2276 26.5229 23.1965 26.8831 23.1686 26.8831C23.1407 26.8831 22.8799 26.793 22.5891 26.6831C22.1509 26.5171 22.042 26.5536 21.9519 26.8964C21.8923 27.1238 21.9309 27.3636 22.0377 27.4294C22.1445 27.4951 22.232 27.392 22.232 27.2005C22.232 26.7808 22.9009 26.8517 23.0463 27.2865C23.115 27.4917 23.0543 27.5285 22.8497 27.4057C22.5985 27.2551 22.5983 27.2829 22.848 27.5895C23.1017 27.9009 23.0944 27.9508 22.7943 27.9508C22.603 27.9508 22.4465 28.0469 22.4465 28.1644C22.4465 28.2818 22.2294 28.3794 21.9639 28.3811C21.6113 28.3835 21.5599 28.4339 21.7724 28.568C22.2097 28.8441 21.8676 29.6675 21.0237 30.3702C20.6243 30.7027 20.3537 31.0647 20.4219 31.1746C20.4901 31.2844 20.6481 31.3115 20.7734 31.2344C20.9017 31.1556 20.9596 31.218 20.9059 31.3777C20.8538 31.5336 20.6831 31.7036 20.5265 31.7555C20.3702 31.8074 20.3026 31.7523 20.3768 31.6329C20.4508 31.5135 20.3661 31.2957 20.1883 31.1488C19.8278 30.8509 19.1898 29.6109 19.2447 29.3156C19.3611 28.692 19.2138 28.5289 18.8919 28.9244C18.7061 29.1522 18.6085 29.2295 18.675 29.0961C18.7415 28.9626 18.6531 28.7356 18.4788 28.5915C18.3044 28.4473 18.206 28.2583 18.26 28.1712C18.3141 28.0841 18.12 27.79 17.8287 27.5176C17.2141 26.9427 17.098 26.4221 17.7069 26.9707C18.0132 27.2468 18.1547 27.2733 18.2761 27.0777C18.3737 26.9205 18.3484 26.8722 18.2126 26.9557C18.0263 27.0704 17.6344 26.5205 17.7286 26.2765C17.8041 26.0809 16.9543 25.6623 16.6648 25.7527C16.3961 25.8364 16.3894 25.8165 16.6296 25.6459C16.8169 25.5131 16.8574 25.3296 16.7401 25.1454C16.6384 24.9854 16.5537 24.7584 16.5518 24.641C16.5501 24.5235 16.3073 24.3952 16.0124 24.3559C15.7175 24.3166 15.3898 24.2017 15.284 24.1005C15.0698 23.8955 13.8926 24.0646 13.5198 24.3542C13.3875 24.4569 13.0677 25.14 12.8093 25.8722C12.5508 26.6045 12.1401 27.6064 11.8965 28.099C11.6529 28.5917 11.5098 29.1411 11.5789 29.3201C11.6479 29.499 11.6055 29.7063 11.4845 29.7807C11.3637 29.855 11.3166 30.0504 11.3798 30.2146C11.4433 30.379 11.4015 30.5133 11.2874 30.5133C11.1731 30.5133 11.0796 30.7478 11.0796 31.0346C11.0796 31.3213 10.9994 31.6051 10.9011 31.6656C10.7193 31.7777 10.2723 34.2447 10.259 35.2112C10.2549 35.5048 10.2013 36.1774 10.1398 36.706C10.0782 37.2345 9.96733 38.2684 9.89313 39.0034C9.81892 39.7387 9.68659 40.296 9.59888 40.2422C9.51137 40.1881 9.42494 40.4997 9.40714 40.934C9.33143 42.7579 9.30377 42.9336 9.13412 42.6607C9.01659 42.4711 8.91986 42.5638 8.81906 42.9631C8.73928 43.28 8.57607 43.5392 8.45639 43.5392C8.33286 43.5392 8.35602 43.6797 8.51001 43.8645C8.73906 44.1393 8.72126 44.1668 8.39377 44.0417C8.12718 43.9398 8.05491 43.9716 8.16193 44.144C8.32106 44.4002 7.54254 44.7978 6.71447 44.8832C6.39834 44.9157 6.27652 44.7882 6.24693 44.3934C6.22505 44.0998 5.85573 43.3453 5.42615 42.7171C4.99678 42.0886 4.63862 41.4641 4.63047 41.3291C4.6221 41.1939 4.53245 41.2757 4.43101 41.5106C4.28067 41.8587 4.24399 41.8711 4.23155 41.5766C4.2234 41.378 4.32335 41.1497 4.45396 41.0694C4.60537 40.9763 4.6146 40.8751 4.47926 40.7899C4.36259 40.7164 4.08678 40.2808 3.86652 39.8215C3.39533 38.8396 2.79332 38.3769 2.53124 38.7952C2.35408 39.0777 1.6429 38.9353 1.6429 38.6174C1.6429 38.5193 1.31433 38.4576 0.912846 38.48C0.511144 38.5027 0.223111 38.5864 0.272868 38.6665C0.322411 38.7463 0.258499 38.8762 0.130461 38.955C0.00263655 39.0338 -0.038328 39.2565 0.0393101 39.4502C0.224827 39.9112 0.336137 40.5309 0.582348 42.4715C0.81612 44.3146 1.20538 46.3289 1.38489 46.6259C1.45267 46.738 1.53931 47.1137 1.57727 47.4605C1.61545 47.8072 1.72569 48.1961 1.82241 48.3242C2.0624 48.643 2.57156 50.1423 3.13411 52.1876C3.64455 54.0439 4.01601 55.1163 4.20603 55.2839C4.27273 55.3426 4.50886 55.9192 4.73062 56.5651C5.11817 57.6939 6.55641 60.5773 7.35895 61.8344C8.06692 62.9436 10.102 65.407 11.294 66.5977C12.4071 67.7096 13.2477 68.158 14.7792 68.4567C15.1035 68.52 15.369 68.6417 15.369 68.7269C15.369 68.9421 14.3198 68.8398 13.546 68.5492L12.9026 68.3075L13.4074 68.7346C13.6852 68.9695 13.9987 69.1085 14.1045 69.0435C14.2102 68.9784 14.2966 69.0111 14.2966 69.1157C14.2966 69.2206 14.4371 69.3064 14.6089 69.3064C14.7807 69.3064 14.874 69.2304 14.8165 69.1377C14.7588 69.0448 15.0241 69.0083 15.4059 69.0564C16.1872 69.1548 16.6888 68.8578 16.513 68.401C16.3868 68.0741 16.7684 67.9729 16.9603 68.2823C17.0238 68.3846 17.3738 68.5276 17.7378 68.6C18.102 68.6726 18.3437 68.8225 18.275 68.9331C18.2064 69.044 18.263 69.2039 18.4011 69.2889C18.5579 69.3854 18.5948 69.351 18.4992 69.1971C18.4151 69.0615 18.4485 68.9504 18.5734 68.9504C18.6982 68.9504 18.8005 69.0583 18.8005 69.19C18.8005 69.3463 18.9268 69.3278 19.1634 69.1367C19.363 68.9756 19.4606 68.9528 19.3802 69.0863C19.2959 69.2263 19.4145 69.3758 19.6607 69.4401C19.8954 69.5012 20.0873 69.4576 20.0873 69.3434C20.0873 69.1358 22.9934 69.2708 23.8137 69.5163C24.0621 69.5908 24.1631 69.5516 24.0777 69.414C23.9872 69.2684 24.2701 69.2165 24.8942 69.2639C25.6202 69.319 25.9365 69.24 26.2143 68.9344C26.4804 68.6417 26.8525 68.5385 27.583 68.555C28.1349 68.5671 28.8214 68.518 29.1088 68.4456C29.3962 68.373 29.5107 68.369 29.3631 68.4364C28.9308 68.6342 29.0558 68.9208 29.5216 68.7995C29.7563 68.7384 29.9038 68.6171 29.8498 68.53C29.7957 68.4429 30.0042 68.4196 30.313 68.4783C30.6999 68.552 30.8273 68.5093 30.7229 68.3408C30.5519 68.0655 30.7244 68.0508 31.3343 68.2885C31.68 68.4232 31.6073 68.4898 30.9054 68.682C30.4404 68.8093 29.7378 69.0136 29.3438 69.1362C28.7637 69.3164 28.6487 69.3036 28.7392 69.069C28.8596 68.7563 28.3639 68.7418 28.0825 69.0497C27.9907 69.1501 28.0362 69.1633 28.1835 69.0788C28.3311 68.9944 28.4516 69.0207 28.4516 69.1373C28.4516 69.2537 28.1861 69.3946 27.8618 69.4501C27.5376 69.5056 27.7696 69.5362 28.3779 69.5178C28.9861 69.4992 29.4388 69.5563 29.3839 69.6444C29.329 69.7326 29.3784 69.8046 29.4935 69.8046C29.6085 69.8046 29.7348 69.7235 29.7743 69.6242C29.8135 69.5249 30.1348 69.3728 30.4882 69.2866L31.1308 69.1294L30.6163 69.5738C30.0078 70.0993 30.1054 70.1362 30.9472 69.6991C31.285 69.5238 31.7193 69.3797 31.9121 69.3788C32.2788 69.3775 33.8453 68.7598 33.5191 68.7452C33.4162 68.7407 33.4511 68.5938 33.597 68.4189C33.7428 68.244 33.9318 68.1439 34.0171 68.1964C34.3283 68.388 35.0845 67.6634 34.9469 67.306C34.842 67.0344 34.8988 66.988 35.1974 67.1018C35.6964 67.2925 37.6427 65.7787 37.2273 65.5229C36.9206 65.3344 35.904 65.9146 36.0707 66.183C36.1305 66.2795 36.0814 66.4187 35.9615 66.4926C35.8416 66.5663 35.7436 66.4503 35.7436 66.2346C35.7436 65.7121 36.9007 64.7236 37.6101 64.6397C37.922 64.603 38.2242 64.4287 38.2821 64.2526C38.3754 63.9679 38.3426 63.9679 37.9867 64.2526C37.6172 64.5483 37.6187 64.5297 38.0056 64.0087C38.236 63.6984 38.4835 63.5385 38.5557 63.6534C38.7245 63.9216 38.8985 63.8996 39.2641 63.563C39.6459 63.2118 39.4955 62.9756 38.9562 63.079C38.7228 63.1238 38.5317 63.0698 38.5317 62.9592C38.5317 62.8483 38.6134 62.7578 38.7134 62.7578C38.8133 62.7578 38.9999 62.5415 39.1279 62.2773L39.3606 61.7969L39.375 62.2773C39.3832 62.5417 39.4964 62.7578 39.627 62.7578C39.769 62.7578 39.8022 62.6077 39.71 62.3841C39.3317 61.4695 39.345 61.2276 39.79 60.9173C40.0416 60.7418 40.2475 60.465 40.2475 60.3021C40.2475 60.1392 40.4163 59.8803 40.6228 59.727C40.8293 59.5735 41.0279 59.3106 41.0646 59.1426C41.1609 58.6999 41.9579 57.6328 42.1923 57.6328C42.3023 57.6328 42.3922 57.4464 42.3922 57.2184C42.3922 56.9903 42.4902 56.7434 42.6101 56.6698C42.73 56.5959 42.7686 56.4398 42.6959 56.3226C42.6232 56.2055 42.7272 55.9905 42.9271 55.8451C43.4924 55.4336 44.0873 50.3941 43.9893 46.8491C43.9535 45.5572 43.9175 43.942 43.9089 43.2597C43.9003 42.5774 43.8188 42.0652 43.7275 42.1215C43.6361 42.1777 43.5844 41.6789 43.6125 41.0131C43.6702 39.6451 43.5319 38.9883 43.226 39.1764C43.0995 39.2543 43.074 39.0833 43.1608 38.7395C43.2756 38.284 43.2181 38.1525 42.864 38.0602C42.5706 37.9838 42.4512 37.8091 42.5046 37.5339C42.5483 37.3071 42.4928 37.1779 42.381 37.2466C42.2691 37.3154 42.1777 37.2699 42.1777 37.1456C42.1777 37.0214 42.0394 36.9195 41.8704 36.9195C41.5538 36.9195 41.1858 36.1277 41.4024 35.912C41.4691 35.8454 41.6951 35.9248 41.9045 36.0882C42.2504 36.3587 42.2583 36.3517 41.9907 36.012C41.8288 35.8063 41.5577 35.6383 41.3882 35.6383C41.2186 35.6383 41.1397 35.5422 41.2126 35.4247C41.2855 35.3073 41.2463 35.2112 41.1255 35.2112C40.6024 35.2112 40.4755 34.3991 40.7631 32.8956C41.076 31.2605 41.0526 26.9696 40.7242 25.7768C40.6168 25.3871 40.5413 24.8037 40.5561 24.4808C40.5711 24.1577 40.5078 23.8936 40.4154 23.8936C40.323 23.8936 40.2475 23.6288 40.2475 23.3049C40.2475 22.9811 40.1471 22.3807 40.0242 21.9702C39.9013 21.56 39.7581 20.9177 39.7055 20.5431C39.5893 19.7144 38.7132 17.7003 38.0897 16.8284C37.7362 16.3343 37.5289 16.2226 37.1709 16.3336C36.9168 16.4126 36.6504 16.5672 36.5794 16.6774C36.5082 16.7874 36.1968 16.9053 35.8873 16.939C35.3503 16.9977 34.7189 17.5579 34.2172 18.4208C34.0491 18.7099 34.0502 18.7802 34.2209 18.6751C34.3506 18.5952 34.4568 18.6318 34.4568 18.756C34.4568 18.8803 34.2535 18.9822 34.0049 18.9822C33.6965 18.9822 33.5912 19.0813 33.6735 19.2946C33.7441 19.4778 33.564 19.787 33.2386 20.042C32.933 20.2811 32.7481 20.4769 32.8277 20.4769C32.9072 20.4769 32.7764 20.6862 32.5373 20.9418C32.2979 21.1976 32.0421 21.3469 31.9685 21.2737C31.739 21.0452 33.0095 16.1639 33.4404 15.6189C33.5564 15.4722 33.5948 15.352 33.5256 15.352C33.4563 15.352 33.5811 14.9307 33.8029 14.4156C34.4396 12.9364 35.7097 8.29579 35.7698 7.22874C35.7998 6.69553 35.7451 6.13136 35.6482 5.97504C35.551 5.81895 35.4562 4.71644 35.4371 3.5251C35.393 0.757845 35.2604 0.537687 33.9386 1.03801C33.544 1.18727 33.4316 1.34593 33.5333 1.60965C33.6609 1.94107 33.6888 1.9368 33.8359 1.5631C33.9249 1.33675 34.0045 1.27739 34.0128 1.43114C34.0218 1.60026 34.1338 1.64467 34.2959 1.54388C34.8439 1.20307 35.0642 1.32074 35.1969 2.02456C35.3082 2.61564 35.0644 3.60732 34.8077 3.60732C34.7731 3.60732 34.7631 3.17234 34.7854 2.64062C34.8074 2.1087 34.7427 1.62268 34.6412 1.56033C34.4637 1.45078 34.3583 2.10229 34.4504 2.74163C34.4877 3.00001 34.4392 3.0045 34.1542 2.76896C33.8638 2.52894 33.8095 2.54645 33.7881 2.88726C33.7739 3.10699 33.7728 3.35555 33.7855 3.43947C33.7979 3.5234 33.6776 3.54197 33.5181 3.48112C33.1899 3.35577 33.1597 1.15225 33.479 0.63805C33.6008 0.441807 33.586 0.386926 33.4359 0.479389C33.3098 0.556904 33.1743 0.536405 33.1346 0.433692C33.0951 0.331193 32.8335 0.176164 32.5534 0.0892531C32.2034 -0.019225 32.0899 0.00533121 32.1907 0.167835ZM33.6551 0.124914C33.8629 0.17894 33.9687 0.32671 33.8902 0.453339C33.8044 0.591499 33.8477 0.62182 33.9983 0.529144C34.3337 0.322865 34.0946 -0.0290488 33.6399 0.00191449C33.3156 0.0241226 33.3173 0.0371494 33.6551 0.124914ZM32.5266 1.899C32.5266 2.01645 32.4243 2.11254 32.2994 2.11254C32.1746 2.11254 32.1319 2.01645 32.2049 1.899C32.2778 1.78155 32.3799 1.68546 32.432 1.68546C32.4841 1.68546 32.5266 1.78155 32.5266 1.899ZM32.1615 2.61073C32.2218 2.76747 32.1356 2.89559 31.97 2.89559C31.8042 2.89559 31.6687 2.76747 31.6687 2.61073C31.6687 2.4542 31.7549 2.32608 31.8602 2.32608C31.9655 2.32608 32.1011 2.4542 32.1615 2.61073ZM33.2772 3.82086C33.3501 3.9383 33.3074 4.0344 33.1826 4.0344C33.0578 4.0344 32.9555 3.9383 32.9555 3.82086C32.9555 3.70341 32.998 3.60732 33.0501 3.60732C33.1022 3.60732 33.2043 3.70341 33.2772 3.82086ZM29.7974 6.79269C29.5025 7.33102 29.1517 7.86743 29.0174 7.98488C28.8831 8.10233 28.7733 8.33466 28.7733 8.50101C28.7733 8.66735 28.6286 8.84288 28.4516 8.89093C28.1657 8.96866 28.1657 8.95307 28.4516 8.7517C28.6905 8.58365 28.7006 8.52449 28.4909 8.52193C28.1314 8.51787 28.3515 7.72714 28.878 7.13072C29.0852 6.89583 29.2034 6.5595 29.1401 6.38333C29.038 6.09868 29.0695 6.09868 29.423 6.38333C29.6522 6.56783 29.7526 6.59047 29.6597 6.43672C29.4571 6.10103 29.6263 5.81382 30.0265 5.81382C30.2594 5.81382 30.2043 6.04978 29.7974 6.79269ZM27.9646 9.71541C27.8934 9.7863 27.7083 9.79399 27.5536 9.73227C27.3825 9.66416 27.4333 9.61355 27.6832 9.6033C27.9092 9.59411 28.0358 9.64451 27.9646 9.71541ZM30.8108 13.8572C30.8108 13.9747 30.7683 14.0708 30.7162 14.0708C30.6641 14.0708 30.562 13.9747 30.4891 13.8572C30.4162 13.7398 30.4589 13.6437 30.5837 13.6437C30.7085 13.6437 30.8108 13.7398 30.8108 13.8572ZM30.2064 15.4438C30.2536 15.8466 30.2159 16.1293 30.1226 16.0718C30.0293 16.0144 29.9529 16.0133 29.9529 16.0695C29.9529 16.1257 29.7953 16.7799 29.6027 17.5235C29.2102 19.0381 29.1077 19.7353 29.079 21.0819C29.0541 22.254 28.9441 22.1432 28.6773 20.6766C28.4795 19.5901 28.4744 19.6183 28.5955 21.1176C28.831 24.0326 28.8295 24.6393 28.5855 24.7979C28.4128 24.9102 28.4184 24.9557 28.6058 24.9581C28.7495 24.9598 28.8115 25.1054 28.7437 25.2816C28.6758 25.4578 28.727 25.6019 28.8576 25.6019C28.9882 25.6019 29.095 25.8421 29.095 26.1357C29.095 26.4294 29.2018 26.6696 29.3325 26.6696C29.4631 26.6696 29.515 26.8122 29.4476 26.9867C29.3745 27.1765 29.506 27.3999 29.7753 27.5434C30.1356 27.7354 30.1661 27.8206 29.9283 27.9705C29.6915 28.1197 29.7065 28.1584 30.0025 28.1612C30.2268 28.1631 30.432 28.3959 30.5213 28.7495C30.8027 29.8661 31.4128 30.1343 32.2861 29.525C32.6613 29.2635 32.7159 29.1351 32.507 29.0066C32.3389 28.903 32.1337 28.9664 31.9857 29.1678C31.7804 29.4473 31.6612 29.4567 31.2307 29.2274C30.736 28.9637 30.7535 28.9464 31.7841 28.6839C32.3694 28.5351 32.8785 28.4951 32.9152 28.5955C32.9521 28.6959 33.1607 28.6258 33.3789 28.4398C33.5996 28.2517 33.7199 27.9568 33.6502 27.7755C33.5594 27.5406 33.6216 27.4868 33.8724 27.5825C34.1293 27.6807 34.1857 27.6252 34.0877 27.3711C33.9993 27.1417 34.0388 27.0781 34.2059 27.181C34.3549 27.2726 34.4568 27.2054 34.4568 27.0151C34.4568 26.8389 34.5683 26.6262 34.7045 26.5425C34.8675 26.442 34.898 26.4924 34.7935 26.6899C34.7064 26.8549 34.9245 26.6551 35.2784 26.2461C35.6321 25.837 35.8869 25.4467 35.8448 25.3785C35.8026 25.3106 36.0038 24.9818 36.292 24.6478C36.5803 24.3138 36.816 23.9115 36.816 23.7535C36.816 23.5957 36.8711 23.4665 36.9384 23.4665C37.1752 23.4665 37.652 24.0578 37.5207 24.1885C37.4476 24.2611 37.4995 24.3207 37.6361 24.3207C37.8077 24.3207 37.8506 24.6988 37.7753 25.5485C37.6374 27.1063 37.3641 29.0025 37.1679 29.7659C36.3152 33.0811 36.3107 33.1102 36.6195 33.3049C36.852 33.4514 36.8573 33.4971 36.6424 33.4997C36.488 33.5014 36.4213 33.599 36.4943 33.7164C36.5672 33.8339 36.5127 33.9299 36.3735 33.9299C36.1846 33.9299 36.188 34.0115 36.387 34.2503C36.5715 34.4715 36.5796 34.5706 36.4132 34.5706C36.0394 34.5706 36.1294 35.312 36.5717 35.8764C36.8451 36.2251 36.9174 36.5202 36.8012 36.8127C36.7079 37.0476 36.6249 37.4559 36.6165 37.7203C36.6043 38.1151 36.7162 38.2007 37.2449 38.2007C37.694 38.2007 37.8883 38.3047 37.8883 38.5452C37.8883 38.8074 37.7328 38.8672 37.2391 38.795C36.8323 38.7354 36.6197 38.7863 36.6697 38.9308C36.7134 39.0581 37.1012 39.1303 37.5331 39.0916C38.0341 39.0468 38.3172 39.1128 38.3172 39.2746C38.3172 39.4139 38.1725 39.4724 37.9955 39.4047C37.6093 39.2571 37.5739 39.5106 37.9312 39.8663C38.1313 40.0656 38.1285 40.1226 37.9185 40.1226C37.7701 40.1226 37.7086 40.2193 37.7819 40.3376C37.8555 40.4559 37.7646 40.6103 37.5801 40.6808C37.3959 40.7513 37.2449 40.8918 37.2449 40.993C37.2449 41.094 37.3897 41.1215 37.5666 41.0541C37.7435 40.9864 37.8883 41.0374 37.8883 41.1674C37.8883 41.2975 37.7678 41.4115 37.6202 41.4207C37.4058 41.4342 37.4058 41.4591 37.6202 41.5452C37.7678 41.6046 37.8883 41.8852 37.8883 42.1689C37.8883 42.7645 38.5195 42.8997 38.5532 42.3114C38.5673 42.0622 38.6317 42.1156 38.7462 42.4715L38.918 43.0054L38.9392 42.4989C38.9562 42.1002 39.022 42.0427 39.2485 42.23C39.4068 42.3607 39.5916 42.4128 39.659 42.3455C39.7265 42.2785 39.9704 42.3238 40.2007 42.4465C40.919 42.8292 41.1227 44.5031 40.6848 46.422C39.3928 52.0834 38.2158 54.4639 35.237 57.4411C34.7813 57.8964 34.3206 58.2147 34.2129 58.1485C34.1053 58.0823 34.0437 58.1554 34.0761 58.311C34.1096 58.471 33.9489 58.5938 33.7061 58.5938C33.3006 58.5938 31.6687 59.4731 31.6687 59.6916C31.6687 59.8092 31.9724 59.6448 32.7741 59.0926C33.4057 58.6576 33.6948 58.5867 33.4897 58.9171C33.2748 59.2634 31.6743 60.0104 31.4469 59.8705C31.1027 59.6587 30.7182 60.0051 31.0559 60.2226C31.2723 60.3621 31.237 60.4014 30.918 60.3758C30.0145 60.3029 29.524 60.42 29.524 60.7082C29.524 61.1146 28.3969 61.4962 26.8538 61.6126C26.1521 61.6653 25.4675 61.7996 25.3328 61.9111C25.1981 62.0224 25.048 62.0738 24.9993 62.0251C24.9504 61.9767 24.0426 61.8774 22.9816 61.8046C21.9206 61.7317 20.9077 61.6318 20.7307 61.5827C20.4007 61.4911 20.257 61.4622 18.0498 61.0478C17.3421 60.9147 16.4031 60.5726 15.9633 60.2871C15.0987 59.7262 14.6179 59.6369 14.3948 59.9963C14.317 60.1219 14.106 60.1682 13.9262 60.0994C13.6498 59.9939 13.6554 60.0599 13.9614 60.525C14.1606 60.8278 14.2934 61.1588 14.2565 61.2607C14.1109 61.6619 11.9053 60.3442 11.128 59.3916C10.6886 58.8528 9.8112 57.8596 9.17851 57.1848C8.54583 56.5098 7.85395 55.6726 7.64098 55.3238C7.42823 54.9751 7.16228 54.6337 7.05054 54.5647C6.73828 54.3727 5.8656 51.4942 6.00779 51.1254C6.07685 50.9463 6.23856 50.7996 6.36724 50.7996C6.49571 50.7996 6.53582 50.9046 6.45603 51.033C6.37647 51.1615 6.72412 51.6853 7.22877 52.1974C8.00665 52.9864 8.10445 53.1786 7.87089 53.4588C7.68452 53.6826 7.67315 53.7891 7.83636 53.7891C7.96869 53.7891 8.077 53.6819 8.077 53.551C8.077 53.4043 8.2786 53.4445 8.60202 53.6555C8.98013 53.9021 9.16929 53.9296 9.27846 53.7537C9.37819 53.5931 9.33422 53.5685 9.14935 53.6824C8.96362 53.7966 8.92029 53.7716 9.02174 53.6087C9.10581 53.4731 9.35009 53.362 9.56477 53.362C10.021 53.362 10.5044 52.8615 10.2734 52.6281C10.1861 52.5397 10.3023 52.5004 10.532 52.541C10.857 52.5984 11.0909 52.3307 11.5877 51.3334C11.9387 50.6287 12.3947 49.9034 12.6008 49.7216C13.1737 49.2164 13.9856 45.6157 13.923 43.8595C13.8771 42.5753 14.6321 37.921 15.194 36.0252C15.5369 34.8678 15.6851 34.6218 15.9757 34.7279C16.6785 34.9848 17.3194 35.4918 17.234 35.7232C17.1864 35.8527 17.4028 36.5832 17.7148 37.3466C18.2137 38.5667 18.3456 38.7273 18.8054 38.675C19.2951 38.6193 19.3032 38.6338 18.9309 38.9048C18.5536 39.1794 18.5519 39.2264 18.8951 39.8185C19.2301 40.397 19.2236 40.2471 18.8736 39.3218C18.7958 39.1164 18.8061 39.0143 18.8964 39.0955C18.9867 39.1764 19.1829 39.129 19.3326 38.99C19.5496 38.788 19.5127 38.6727 19.1488 38.4173C18.8983 38.2413 18.6208 38.1207 18.5324 38.1491C18.444 38.1775 18.3715 38.1046 18.3715 37.9872C18.3715 37.6094 18.4741 37.4519 18.6759 37.5187C18.7844 37.5548 18.7398 37.4243 18.577 37.2291C18.2523 36.8394 18.0059 36.419 17.3001 35.051C17.0427 34.5518 16.7442 34.1435 16.6367 34.1435C16.5293 34.1435 16.4413 33.8975 16.4413 33.597C16.4413 33.262 16.3521 33.1055 16.211 33.1924C16.0844 33.2703 16.1076 33.1317 16.2627 32.8847C16.4177 32.6374 16.6935 32.4352 16.8756 32.4352C17.2411 32.4352 18.0125 33.5757 17.794 33.7933C17.7185 33.8684 17.7933 33.9314 17.9604 33.9332C18.2107 33.9359 18.2075 33.9731 17.9426 34.1435C17.6735 34.3167 17.688 34.351 18.032 34.3538C18.2581 34.3555 18.3833 34.4166 18.3102 34.4892C18.2373 34.562 18.3136 34.757 18.4799 34.9225C18.6463 35.088 18.728 35.3641 18.6619 35.536C18.5935 35.7132 18.6954 35.9071 18.8979 35.9844C19.0937 36.0592 19.2052 36.2473 19.1454 36.4023C19.0799 36.5723 19.149 36.6413 19.3195 36.5763C19.4834 36.5136 19.6528 36.6615 19.7229 36.9289C19.7898 37.1839 19.9462 37.3267 20.0729 37.2488C20.1988 37.1713 20.3018 37.2545 20.3018 37.4341C20.3018 37.6364 20.424 37.7134 20.6235 37.6374C20.8487 37.5514 20.9452 37.6536 20.9452 37.9787C20.9452 38.3331 21.0389 38.4134 21.3415 38.3178C21.7093 38.2016 22.9316 38.6592 22.8186 38.8708C22.7909 38.9227 22.9897 38.7211 23.2606 38.4228C23.8418 37.7824 24.4807 36.4612 24.6969 35.4523C24.7917 35.01 25.007 34.6916 25.255 34.6272C25.4769 34.5693 25.5966 34.4219 25.5207 34.2998C25.2944 33.9351 25.2573 33.0758 25.4679 33.0758C25.5756 33.0758 25.6483 33.0036 25.6294 32.9156C25.6108 32.8277 25.67 32.5859 25.7609 32.3786C25.8518 32.1712 25.8773 31.8155 25.8177 31.5881C25.7579 31.3606 25.8066 31.142 25.926 31.1025C26.0453 31.0627 26.1407 30.4095 26.1381 29.6508C26.1356 28.8919 26.2707 27.6726 26.4384 26.9408C26.6061 26.2092 26.7841 25.3444 26.8341 25.0189C27.0413 23.6672 27.1618 23.0843 27.4767 21.9079C27.659 21.2269 27.8082 20.6207 27.8082 20.5607C27.8082 20.5009 27.8891 20.5015 27.9877 20.5622C28.0864 20.623 28.1503 20.3926 28.1299 20.0503C28.1076 19.6777 28.2168 19.3808 28.4021 19.31C28.6125 19.2297 28.6687 19.0215 28.5775 18.6599C28.4967 18.3394 28.5353 18.128 28.6747 18.128C28.8019 18.128 28.8469 18.033 28.7748 17.917C28.5994 17.6341 29.4358 15.7791 29.7391 15.7791C29.8706 15.7791 29.924 15.6917 29.8577 15.5848C29.749 15.4099 29.9107 14.7114 30.0597 14.7114C30.0932 14.7114 30.159 15.0409 30.2064 15.4438ZM35.4783 17.8752C35.2085 18.5869 34.8857 18.7827 34.8857 18.2348C34.8857 17.9582 35.5465 17.074 35.6863 17.1635C35.7138 17.181 35.6201 17.5013 35.4783 17.8752ZM23.9739 20.8346C23.7871 21.1547 23.7451 21.1639 23.7397 20.8863C23.7329 20.5267 23.9585 20.2028 24.1103 20.3542C24.1605 20.4041 24.0992 20.6202 23.9739 20.8346ZM23.762 22.3249C23.5602 22.6704 23.5311 22.6414 23.5253 22.0892C23.5205 21.6298 23.583 21.5231 23.7556 21.695C23.9252 21.8639 23.927 22.0422 23.762 22.3249ZM32.4193 21.7582C32.3464 21.8756 32.1718 21.9702 32.0313 21.9685C31.8778 21.9664 31.9044 21.8825 32.0976 21.7582C32.5096 21.493 32.5838 21.493 32.4193 21.7582ZM37.3268 22.5167C37.4 22.7067 37.3639 22.7924 37.2425 22.7176C37.1259 22.6459 37.0304 22.4968 37.0304 22.3862C37.0304 22.0791 37.1842 22.1468 37.3268 22.5167ZM36.816 22.8259C36.816 22.9433 36.7735 23.0394 36.7214 23.0394C36.6693 23.0394 36.5672 22.9433 36.4943 22.8259C36.4213 22.7084 36.464 22.6123 36.5888 22.6123C36.7137 22.6123 36.816 22.7084 36.816 22.8259ZM23.5832 23.3258C23.6439 23.4832 23.6074 23.7475 23.5023 23.913C23.3629 24.1319 23.3099 24.0539 23.3076 23.6267C23.3041 22.989 23.4092 22.8741 23.5832 23.3258ZM23.382 24.8545C23.4498 25.0307 23.4118 25.1748 23.2977 25.1748C23.1834 25.1748 23.0899 25.0307 23.0899 24.8545C23.0899 24.6783 23.1278 24.5342 23.1742 24.5342C23.2205 24.5342 23.314 24.6783 23.382 24.8545ZM35.1002 24.8146C35.1002 24.8513 34.7926 25.1637 34.4169 25.5086L33.7336 26.1357L34.256 25.4535C34.6998 24.8742 35.1002 24.5709 35.1002 24.8146ZM30.0994 26.9233C30.031 27.0935 29.9802 27.0429 29.9699 26.7941C29.9606 26.569 30.0113 26.443 30.0825 26.5139C30.1537 26.5848 30.1614 26.7691 30.0994 26.9233ZM28.6061 26.954C28.3671 27.559 28.4062 27.868 28.6863 27.5891C28.8152 27.4608 28.8849 27.1772 28.8407 26.9592C28.7635 26.5769 28.7551 26.5767 28.6061 26.954ZM32.6181 27.199C32.3908 27.37 32.1083 27.5112 31.9904 27.5122C31.8724 27.5133 32.0157 27.3307 32.3089 27.1065C32.6021 26.8823 32.8845 26.7413 32.9366 26.7932C32.9887 26.8451 32.8455 27.0277 32.6181 27.199ZM40.3455 28.1496C40.4135 28.259 40.3708 28.4087 40.2509 28.4825C40.131 28.5562 40.033 28.4667 40.033 28.2837C40.033 27.9086 40.1617 27.8535 40.3455 28.1496ZM40.1885 29.4456C40.1508 29.9434 39.9163 30.0072 39.7463 29.5663C39.6813 29.3976 39.7435 29.2131 39.8842 29.1561C40.0251 29.0988 40.1585 29.0446 40.1806 29.0354C40.2027 29.0262 40.2063 29.2107 40.1885 29.4456ZM38.3172 30.0862C38.3172 30.2037 38.2207 30.2998 38.1028 30.2998C37.9848 30.2998 37.8883 30.2037 37.8883 30.0862C37.8883 29.9688 37.9848 29.8727 38.1028 29.8727C38.2207 29.8727 38.3172 29.9688 38.3172 30.0862ZM40.0454 31.1462C39.8904 31.2417 39.8245 31.4179 39.899 31.5377C39.9734 31.6577 39.8955 32.2688 39.7261 32.8962C39.4737 33.8302 39.4121 33.9208 39.3868 33.3961C39.3697 33.0438 39.3075 32.8996 39.2485 33.0758C39.1895 33.252 39.0983 33.53 39.0458 33.6936C38.9935 33.8571 38.9085 33.9494 38.8573 33.8983C38.7245 33.7659 39.253 31.5942 39.6182 30.7711C39.9088 30.1166 39.9369 30.1031 40.1267 30.5255C40.2693 30.843 40.2458 31.023 40.0454 31.1462ZM22.6609 30.7268C22.6609 30.8443 22.5586 30.9404 22.4338 30.9404C22.309 30.9404 22.2663 30.8443 22.3392 30.7268C22.4122 30.6094 22.5142 30.5133 22.5664 30.5133C22.6185 30.5133 22.6609 30.6094 22.6609 30.7268ZM39.3896 31.9013C39.3896 32.0775 39.4276 32.2216 39.4739 32.2216C39.5202 32.2216 39.6137 32.0775 39.6817 31.9013C39.7495 31.7251 39.7115 31.581 39.5974 31.581C39.4831 31.581 39.3896 31.7251 39.3896 31.9013ZM37.8883 32.1275C37.8883 32.3105 37.7903 32.3999 37.6704 32.3263C37.5505 32.2524 37.5078 32.1027 37.5758 31.9934C37.7596 31.6972 37.8883 31.7523 37.8883 32.1275ZM23.987 36.3252C23.8332 36.4783 23.7333 36.4909 23.7333 36.3573C23.7333 36.2357 23.7976 36.0724 23.8764 35.9942C23.9548 35.9159 24.0692 35.9013 24.1301 35.9622C24.191 36.0228 24.1266 36.1862 23.987 36.3252ZM40.8909 35.946C40.8909 35.9979 40.7944 36.0995 40.6764 36.1721C40.5585 36.2447 40.4619 36.2022 40.4619 36.0779C40.4619 35.9537 40.5585 35.8518 40.6764 35.8518C40.7944 35.8518 40.8909 35.8941 40.8909 35.946ZM23.5002 37.3812C23.3307 37.6964 23.1988 37.7788 23.1409 37.6058C23.0468 37.3244 23.5055 36.6216 23.6741 36.7892C23.7258 36.8407 23.6475 37.1072 23.5002 37.3812ZM40.131 38.6131C40.199 38.7224 40.1724 38.8623 40.0723 38.924C39.9721 38.9857 39.89 38.8962 39.89 38.7252C39.89 38.3652 39.9577 38.3338 40.131 38.6131ZM40.4619 39.6524C40.4619 39.7436 40.1653 39.8407 39.8031 39.8683C39.4406 39.8956 39.1916 39.8416 39.2498 39.748C39.389 39.5236 40.4619 39.4391 40.4619 39.6524ZM40.4619 40.4303C40.4619 40.6556 40.0504 40.7504 39.9279 40.5531C39.8539 40.4337 39.9438 40.3361 40.1276 40.3361C40.3114 40.3361 40.4619 40.3784 40.4619 40.4303ZM43.392 41.2437C43.3326 41.3906 43.2839 41.2704 43.2839 40.9767C43.2839 40.6831 43.3326 40.5631 43.392 40.7098C43.4517 40.8567 43.4517 41.097 43.392 41.2437ZM10.2322 44.7998C9.73206 45.7758 9.67844 45.8156 9.49636 45.3432C9.42172 45.1495 9.45861 45.0671 9.58515 45.145C9.70439 45.2183 9.95018 44.9247 10.1316 44.4925C10.3128 44.0603 10.5106 43.7558 10.5709 43.8158C10.6311 43.8758 10.4788 44.3187 10.2322 44.7998ZM8.54518 45.2939C8.39141 45.447 8.29147 45.4596 8.29147 45.3259C8.29147 45.0408 8.54518 44.7882 8.68824 44.9309C8.74914 44.9915 8.6848 45.1549 8.54518 45.2939ZM8.59108 45.9238C8.53039 46.0216 8.38991 46.1017 8.27881 46.1017C8.16772 46.1017 8.077 46.0216 8.077 45.9238C8.077 45.8258 8.21747 45.7457 8.38927 45.7457C8.56106 45.7457 8.65178 45.8258 8.59108 45.9238ZM9.36382 46.1017C9.36382 46.2192 9.26151 46.3152 9.13669 46.3152C9.01187 46.3152 8.96919 46.2192 9.04211 46.1017C9.11503 45.9843 9.21712 45.8882 9.26923 45.8882C9.32135 45.8882 9.36382 45.9843 9.36382 46.1017ZM5.9323 48.6642C5.9323 48.7816 5.88983 48.8777 5.83772 48.8777C5.7856 48.8777 5.68351 48.7816 5.61059 48.6642C5.53767 48.5467 5.58035 48.4506 5.70518 48.4506C5.83 48.4506 5.9323 48.5467 5.9323 48.6642ZM41.8159 48.832C41.4217 49.0814 41.0582 50.159 41.3681 50.159C41.5581 50.159 41.5568 50.222 41.3627 50.4152C41.2212 50.5561 41.1054 50.8925 41.1054 51.1626C41.1054 51.4327 41.0118 51.6537 40.8975 51.6537C40.7834 51.6537 40.7455 51.7979 40.8132 51.974C40.8812 52.1502 40.8319 52.2944 40.7037 52.2944C40.5756 52.2944 40.2717 52.6828 40.0285 53.1573C39.7853 53.632 39.4038 54.2021 39.1805 54.4244C38.8086 54.7947 38.8039 54.8515 39.1234 55.1095C39.3784 55.3151 39.4286 55.3189 39.3109 55.1238C39.2223 54.9771 39.2521 54.8568 39.3769 54.8568C39.7085 54.8568 39.6547 55.2779 39.3062 55.4112C39.1337 55.4769 39.054 55.6995 39.1166 55.9384C39.1775 56.1697 39.1168 56.3516 38.9789 56.3516C38.8436 56.3516 38.6737 56.5047 38.6016 56.692C38.4654 57.0452 36.576 58.8876 36.0319 59.1979C35.8472 59.3029 35.5935 59.2694 35.4067 59.115C35.1551 58.907 35.0101 58.929 34.6822 59.2246C34.2901 59.5778 34.2773 59.5746 34.3895 59.1473C34.454 58.9015 34.5904 58.7005 34.6925 58.7005C34.9458 58.7005 37.5563 55.9997 38.2216 55.0494C38.5173 54.6268 38.9392 53.791 39.159 53.1921C39.3791 52.5931 39.7503 51.834 39.9843 51.5047C40.2183 51.1756 40.5891 50.4018 40.8079 49.7853C41.1109 48.932 41.3093 48.665 41.6383 48.6674C41.9154 48.6695 41.9791 48.7285 41.8159 48.832ZM6.30312 49.2202C6.23191 49.2911 6.04683 49.2988 5.89219 49.2371C5.72105 49.169 5.77187 49.1184 6.02173 49.1081C6.24778 49.0989 6.37432 49.1493 6.30312 49.2202ZM5.89091 50.4848C5.82485 50.5506 5.70496 50.4321 5.62432 50.2215C5.50808 49.9172 5.53253 49.8927 5.74442 50.1019C5.89112 50.2469 5.95696 50.4193 5.89091 50.4848ZM40.2717 53.8506C40.0965 54.0249 40.033 54.001 40.033 53.7607C40.033 53.3362 40.3215 53.049 40.4281 53.3674C40.4733 53.5026 40.4028 53.7199 40.2717 53.8506ZM42.6843 55.3907C42.6163 55.5668 42.4627 55.711 42.3431 55.711C42.2174 55.711 42.2382 55.5754 42.3922 55.3907C42.5391 55.2145 42.6926 55.0704 42.7334 55.0704C42.7741 55.0704 42.7521 55.2145 42.6843 55.3907ZM42.1777 56.6719C42.1777 56.8481 42.0812 56.9922 41.9632 56.9922C41.8453 56.9922 41.773 57.1067 41.8024 57.2466C41.8318 57.3862 41.6803 57.5389 41.4655 57.5854C41.097 57.6653 41.0944 57.6328 41.4174 57.0108C41.7796 56.3132 42.1777 56.1357 42.1777 56.6719ZM36.289 58.0452C36.221 58.1545 36.2476 58.2944 36.3478 58.3561C36.4479 58.4178 36.5301 58.3283 36.5301 58.1573C36.5301 57.7973 36.4623 57.7659 36.289 58.0452ZM35.3983 59.3031C35.5457 59.5406 34.7021 60.2395 34.4531 60.0862C34.344 60.0191 34.1934 60.2086 34.1181 60.5069C33.9704 61.0933 33.5989 61.2523 33.5989 60.7292C33.5989 60.2664 33.6836 60.0811 33.867 60.1419C33.9554 60.1712 34.0279 60.0992 34.0279 59.9818C34.0279 59.8643 34.1756 59.7682 34.3562 59.7682C34.537 59.7682 34.7403 59.6241 34.8081 59.4479C34.9434 59.0971 35.2272 59.0275 35.3983 59.3031ZM33.3062 61.1987C33.2414 61.263 33.0346 61.257 32.8468 61.1853C32.5643 61.0772 32.5534 61.0023 32.7837 60.7537C33.0235 60.4953 33.0883 60.4973 33.2433 60.7672C33.3426 60.9401 33.3707 61.1343 33.3062 61.1987ZM30.8108 61.6901C30.8108 61.8075 30.7143 61.9036 30.5963 61.9036C30.4784 61.9036 30.3819 61.8075 30.3819 61.6901C30.3819 61.5726 30.4784 61.4766 30.5963 61.4766C30.7143 61.4766 30.8108 61.5726 30.8108 61.6901ZM31.1728 62.4465C31.5973 62.3403 31.65 62.3685 31.442 62.5895C31.2996 62.7407 30.8906 62.8757 30.5329 62.8891C30.1751 62.9026 29.7631 63.0758 29.6175 63.2741C29.4193 63.5443 29.3292 63.5648 29.2589 63.3563C29.1825 63.1304 29.0983 63.1328 28.8107 63.3692C28.6157 63.5293 28.5093 63.7456 28.5739 63.8496C28.6384 63.9538 28.5353 64.039 28.3444 64.039C28.1449 64.039 28.0598 63.9385 28.1445 63.8022C28.2477 63.6357 28.0126 63.6032 27.3529 63.6927C26.2728 63.8394 26.3106 63.8202 28.3884 63.1699C29.2383 62.9039 29.8894 62.6149 29.8354 62.5278C29.7813 62.4405 29.7976 62.2122 29.8716 62.02C29.989 61.7155 30.0471 61.7287 30.3255 62.1246C30.5622 62.4614 30.781 62.5445 31.1728 62.4465ZM31.5614 61.9036C31.6344 62.0211 31.5434 62.1172 31.3596 62.1172C31.1758 62.1172 31.0253 62.0211 31.0253 61.9036C31.0253 61.7862 31.116 61.6901 31.2271 61.6901C31.3382 61.6901 31.4885 61.7862 31.5614 61.9036ZM30.8108 63.1849C30.8108 63.3023 30.7683 63.3984 30.7162 63.3984C30.6641 63.3984 30.562 63.3023 30.4891 63.1849C30.4162 63.0674 30.4589 62.9713 30.5837 62.9713C30.7085 62.9713 30.8108 63.0674 30.8108 63.1849ZM32.6434 63.1693C32.5759 63.2782 32.1832 63.4781 31.771 63.6137C31.3586 63.749 31.0735 63.944 31.1374 64.0469C31.2014 64.1499 30.9528 64.1962 30.5854 64.1499C30.0986 64.0886 29.9467 64.1417 30.0254 64.3461C30.0848 64.5003 30.0205 64.6233 29.8824 64.6194C28.8158 64.5893 28.2282 64.7057 28.3616 64.921C28.4508 65.0647 28.3965 65.124 28.2269 65.0676C27.5131 64.8308 27.9809 64.5174 30.1172 63.8001C32.7488 62.9169 32.8097 62.9015 32.6434 63.1693ZM22.4894 64.0817C22.2893 64.281 22.1747 64.281 21.9746 64.0817C21.7745 63.8825 21.8316 63.8255 22.232 63.8255C22.6324 63.8255 22.6895 63.8825 22.4894 64.0817ZM26.3069 64.234C25.4679 64.3455 25.412 64.3824 25.878 64.518C26.1729 64.6036 26.7037 64.6848 27.0576 64.698C27.6896 64.7217 27.6916 64.7253 27.1648 64.8932C26.7028 65.0405 26.688 65.0706 27.0576 65.1108C27.2935 65.1364 27.6073 65.1418 27.7546 65.1227C27.9022 65.1035 28.0227 65.1883 28.0227 65.3109C28.0227 65.4334 28.264 65.5338 28.5589 65.5338C29.1774 65.5338 29.2222 65.6513 28.7733 66.0982C28.5964 66.2744 28.4516 66.3179 28.4516 66.1949C28.4516 66.0433 28.2749 66.0384 27.9015 66.1798C27.5989 66.2942 26.8751 66.388 26.293 66.388C25.591 66.388 25.2335 66.4779 25.2314 66.6549C25.229 66.8328 25.1587 66.815 25.0201 66.6015C24.8468 66.3344 24.8076 66.3523 24.784 66.7083C24.7602 67.0692 24.7407 67.0773 24.6579 66.7617C24.5612 66.3937 24.1622 66.2282 24.1622 66.556C24.1622 66.6485 23.8727 66.7461 23.5188 66.773C23.165 66.7999 22.8754 66.7273 22.8754 66.6115C22.8754 66.496 22.7306 66.4567 22.5537 66.5242C22.1213 66.6895 22.1413 66.2462 22.5771 66.0034C22.8132 65.8718 22.593 65.8242 21.8801 65.8528C20.7157 65.8994 19.7804 65.6421 19.9749 65.3288C20.0551 65.1994 20.3016 65.2131 20.637 65.3653C21.0393 65.5477 21.2334 65.5458 21.4228 65.3572C21.7295 65.0518 22.0941 65.0241 21.9103 65.3203C21.7634 65.5571 22.0787 65.6154 22.3024 65.3927C22.4786 65.2171 23.7333 65.168 23.7333 65.3367C23.7333 65.4044 24.0366 65.4155 24.4072 65.3613C24.7778 65.3072 25.0287 65.3478 24.9646 65.4518C24.9007 65.5556 25.5385 65.656 26.3818 65.675L27.9155 65.7093L26.8924 65.3944C26.3299 65.2212 25.9224 64.9944 25.9869 64.8904C26.0987 64.7106 25.2601 64.4828 24.2159 64.4091C23.9503 64.3905 23.7333 64.3177 23.7333 64.2472C23.7333 64.1768 24.5296 64.1161 25.5027 64.1125C26.8028 64.1076 27.0162 64.1398 26.3069 64.234ZM25.6635 65.1424C25.6635 65.2402 25.5728 65.3203 25.4617 65.3203C25.3506 65.3203 25.2101 65.2402 25.1494 65.1424C25.0887 65.0444 25.1795 64.9643 25.3513 64.9643C25.523 64.9643 25.6635 65.0444 25.6635 65.1424ZM19.6002 65.4492C19.529 65.5201 19.344 65.5278 19.1893 65.4661C19.0182 65.398 19.069 65.3474 19.3189 65.3371C19.5449 65.328 19.6715 65.3783 19.6002 65.4492ZM30.1674 65.5338C30.1674 65.6513 30.1249 65.7474 30.0728 65.7474C30.0207 65.7474 29.9186 65.6513 29.8457 65.5338C29.7728 65.4164 29.8154 65.3203 29.9403 65.3203C30.0651 65.3203 30.1674 65.4164 30.1674 65.5338ZM19.4439 66.1744C19.4439 66.2919 19.3071 66.388 19.14 66.388C18.9729 66.388 18.7876 66.5082 18.728 66.6549C18.6686 66.8018 18.6122 66.7057 18.603 66.4414C18.5907 66.0975 18.7081 65.9609 19.015 65.9609C19.2509 65.9609 19.4439 66.057 19.4439 66.1744ZM21.3741 66.4121C21.3741 66.5163 21.1571 66.6049 20.8916 66.609L20.409 66.6167L20.9179 66.8977L21.4269 67.1785L20.9598 67.3002C20.6005 67.3937 20.4459 67.2991 20.29 66.8911C19.9874 66.0984 20.029 66.0262 20.7307 66.1289C21.0846 66.1806 21.3741 66.3081 21.3741 66.4121ZM32.6495 66.2857C32.4221 66.4569 32.1836 66.5449 32.1195 66.4809C31.9848 66.347 32.5296 65.9658 32.8483 65.9709C32.9662 65.9728 32.8768 66.1146 32.6495 66.2857ZM34.5372 66.9882C34.4626 67.3041 34.3191 67.6521 34.2183 67.7617C34.1171 67.8716 34.1147 67.6807 34.2132 67.3346C34.3107 66.9902 34.3448 66.5748 34.2886 66.4117C34.2264 66.2306 34.2813 66.1734 34.4298 66.2645C34.5732 66.353 34.6172 66.6493 34.5372 66.9882ZM35.5291 66.3754C35.5291 66.6273 35.1109 66.8968 34.9571 66.7439C34.8036 66.5908 35.0742 66.1744 35.3273 66.1744C35.4384 66.1744 35.5291 66.2648 35.5291 66.3754ZM15.1545 66.815C15.1545 66.9325 15.058 67.0286 14.94 67.0286C14.8221 67.0286 14.7256 66.9325 14.7256 66.815C14.7256 66.6976 14.8221 66.6015 14.94 66.6015C15.058 66.6015 15.1545 66.6976 15.1545 66.815ZM20.0841 66.7617C20.0798 66.966 19.6661 67.6107 19.6616 67.4198C19.6599 67.3412 19.5998 67.1251 19.5282 66.9393C19.4428 66.7177 19.5164 66.6015 19.7427 66.6015C19.9322 66.6015 20.0858 66.6735 20.0841 66.7617ZM16.1196 67.2421C16.1925 67.3596 16.1556 67.4557 16.0377 67.4557C15.9197 67.4557 15.7636 67.3596 15.6907 67.2421C15.6178 67.1247 15.6546 67.0286 15.7726 67.0286C15.8906 67.0286 16.0467 67.1247 16.1196 67.2421ZM29.3095 67.4683C29.3095 67.5789 29.1647 67.6692 28.9878 67.6692C28.6562 67.6692 28.5617 67.4172 28.8032 67.1768C28.9745 67.0062 29.3095 67.199 29.3095 67.4683ZM29.9529 67.1228C29.9529 67.1747 29.8564 67.2763 29.7385 67.3489C29.6205 67.4215 29.524 67.379 29.524 67.2547C29.524 67.1304 29.6205 67.0286 29.7385 67.0286C29.8564 67.0286 29.9529 67.0709 29.9529 67.1228ZM24.3175 68.3098C24.3439 68.6034 24.3115 68.723 24.2455 68.5755C24.1796 68.4279 24.0374 68.3615 23.9295 68.4279C23.8217 68.4943 23.7333 68.4467 23.7333 68.3224C23.7333 68.1981 23.5885 68.0963 23.4116 68.0963C23.2347 68.0963 23.0899 67.9938 23.0899 67.8686C23.0899 67.7433 23.3554 67.6713 23.6797 67.7085C24.1316 67.7602 24.2806 67.9009 24.3175 68.3098ZM25.2882 68.0241C25.1409 68.0835 24.8996 68.0835 24.752 68.0241C24.6047 67.965 24.7252 67.9165 25.0201 67.9165C25.315 67.9165 25.4358 67.965 25.2882 68.0241ZM21.7449 68.2253C21.6737 68.2962 21.4887 68.3038 21.334 68.2421C21.1629 68.174 21.2137 68.1234 21.4636 68.1132C21.6896 68.104 21.8162 68.1544 21.7449 68.2253ZM25.7347 68.5383C26.1793 68.5526 26.181 68.5607 25.7742 68.7188C25.2704 68.9148 24.5912 68.7751 24.5912 68.4755C24.5912 68.3594 24.7439 68.3224 24.9305 68.3937C25.1171 68.4651 25.4789 68.5302 25.7347 68.5383ZM26.6958 69.0963C26.8504 69.158 27.0355 69.1503 27.1067 69.0794C27.1779 69.0085 27.0514 68.9581 26.8253 68.9673C26.5755 68.9776 26.5246 69.0282 26.6958 69.0963ZM23.2507 69.946C23.3983 70.0053 23.6396 70.0053 23.7869 69.946C23.9345 69.8868 23.8137 69.8383 23.5188 69.8383C23.2239 69.8383 23.1034 69.8868 23.2507 69.946ZM28.1971 69.9504C28.3517 70.0122 28.5368 70.0045 28.608 69.9336C28.6792 69.8627 28.5526 69.8123 28.3266 69.8215C28.0767 69.8317 28.0259 69.8823 28.1971 69.9504Z" fill="white"/>
</svg>
