<svg width="92" height="91" viewBox="0 0 92 91" fill="none" xmlns="http://www.w3.org/2000/svg">
<circle cx="46" cy="45.5" r="44.5521" fill="#81F4E1" stroke="#2B2D54" stroke-width="1.89583"/>
<path d="M44.7645 63.7C42.3645 63.7 39.9478 63.4 37.5145 62.8C35.0811 62.2 32.9811 61.35 31.2145 60.25L34.7645 52.8C36.1978 53.7333 37.7478 54.45 39.4145 54.95C41.1145 55.45 42.7978 55.7 44.4645 55.7C46.1311 55.7 47.4811 55.3833 48.5145 54.75C49.5478 54.0833 50.0645 53.1667 50.0645 52C50.0645 51.3 49.8645 50.6833 49.4645 50.15C49.0645 49.5833 48.3811 49.1667 47.4145 48.9C46.4478 48.6 45.0645 48.45 43.2645 48.45H33.7645L35.5145 28H57.8145V35.65H39.0145L44.0645 31.3L42.9145 45.1L37.8645 40.75H45.6145C49.0811 40.75 51.8645 41.25 53.9645 42.25C56.0645 43.2167 57.5978 44.5333 58.5645 46.2C59.5311 47.8333 60.0145 49.6833 60.0145 51.75C60.0145 53.8167 59.4645 55.7667 58.3645 57.6C57.2978 59.4 55.6478 60.8667 53.4145 62C51.1811 63.1333 48.2978 63.7 44.7645 63.7Z" fill="#FFD656"/>
<path d="M37.5145 62.8L37.0606 64.6407L37.0606 64.6407L37.5145 62.8ZM31.2145 60.25L29.503 59.4345L28.7742 60.9639L30.2124 61.8594L31.2145 60.25ZM34.7645 52.8L35.799 51.2113L33.9844 50.0297L33.053 51.9845L34.7645 52.8ZM39.4145 54.95L38.8697 56.7659L38.8795 56.7688L39.4145 54.95ZM48.5145 54.75L49.5051 56.3664L49.5238 56.3549L49.5422 56.3431L48.5145 54.75ZM49.4645 50.15L47.9156 51.2433L47.9314 51.2656L47.9478 51.2875L49.4645 50.15ZM47.4145 48.9L46.8525 50.7106L46.8813 50.7196L46.9103 50.7276L47.4145 48.9ZM33.7645 48.45L31.8755 48.2884L31.6995 50.3458H33.7645V48.45ZM35.5145 28V26.1042H33.7739L33.6255 27.8384L35.5145 28ZM57.8145 28H59.7103V26.1042H57.8145V28ZM57.8145 35.65V37.5458H59.7103V35.65H57.8145ZM39.0145 35.65L37.7772 34.2136L33.9087 37.5458H39.0145V35.65ZM44.0645 31.3L45.9537 31.4574L46.3386 26.8389L42.8272 29.8636L44.0645 31.3ZM42.9145 45.1L41.6772 46.5364L44.4949 48.9636L44.8037 45.2574L42.9145 45.1ZM37.8645 40.75V38.8542H32.7587L36.6272 42.1864L37.8645 40.75ZM53.9645 42.25L53.1494 43.9617L53.1605 43.967L53.1717 43.9721L53.9645 42.25ZM58.5645 46.2L56.9245 47.1512L56.9287 47.1584L56.9329 47.1656L58.5645 46.2ZM58.3645 57.6L56.7388 56.6246L56.7335 56.6335L58.3645 57.6ZM53.4145 62L52.5565 60.3094L52.5565 60.3094L53.4145 62ZM44.7645 61.8042C42.524 61.8042 40.2597 61.5243 37.9683 60.9593L37.0606 64.6407C39.6359 65.2757 42.2049 65.5958 44.7645 65.5958V61.8042ZM37.9683 60.9593C35.6905 60.3976 33.7833 59.6162 32.2165 58.6406L30.2124 61.8594C32.179 63.0838 34.4718 64.0024 37.0606 64.6407L37.9683 60.9593ZM32.9259 61.0655L36.4759 53.6155L33.053 51.9845L29.503 59.4345L32.9259 61.0655ZM33.7299 54.3887C35.3175 55.4225 37.0328 56.2148 38.8697 56.7659L39.9592 53.1341C38.4628 52.6852 37.0781 52.0442 35.799 51.2113L33.7299 54.3887ZM38.8795 56.7688C40.7423 57.3167 42.6056 57.5958 44.4645 57.5958V53.8042C42.99 53.8042 41.4866 53.5833 39.9494 53.1312L38.8795 56.7688ZM44.4645 57.5958C46.3547 57.5958 48.0819 57.2387 49.5051 56.3664L47.5238 53.1336C46.8804 53.5279 45.9076 53.8042 44.4645 53.8042V57.5958ZM49.5422 56.3431C51.0816 55.3499 51.9603 53.8514 51.9603 52H48.1686C48.1686 52.482 48.014 52.8167 47.4867 53.1569L49.5422 56.3431ZM51.9603 52C51.9603 50.9117 51.6401 49.8911 50.9811 49.0125L47.9478 51.2875C48.0888 51.4756 48.1686 51.6883 48.1686 52H51.9603ZM51.0133 49.0567C50.2689 48.0022 49.1243 47.405 47.9186 47.0724L46.9103 50.7276C47.638 50.9283 47.86 51.1645 47.9156 51.2433L51.0133 49.0567ZM47.9764 47.0894C46.7386 46.7052 45.1313 46.5542 43.2645 46.5542V50.3458C44.9976 50.3458 46.1569 50.4948 46.8525 50.7106L47.9764 47.0894ZM43.2645 46.5542H33.7645V50.3458H43.2645V46.5542ZM35.6534 48.6116L37.4034 28.1616L33.6255 27.8384L31.8755 48.2884L35.6534 48.6116ZM35.5145 29.8958H57.8145V26.1042H35.5145V29.8958ZM55.9186 28V35.65H59.7103V28H55.9186ZM57.8145 33.7542H39.0145V37.5458H57.8145V33.7542ZM40.2518 37.0864L45.3018 32.7364L42.8272 29.8636L37.7772 34.2136L40.2518 37.0864ZM42.1752 31.1426L41.0252 44.9426L44.8037 45.2574L45.9537 31.4574L42.1752 31.1426ZM44.1518 43.6636L39.1018 39.3136L36.6272 42.1864L41.6772 46.5364L44.1518 43.6636ZM37.8645 42.6458H45.6145V38.8542H37.8645V42.6458ZM45.6145 42.6458C48.9256 42.6458 51.3978 43.1276 53.1494 43.9617L54.7795 40.5383C52.3312 39.3724 49.2366 38.8542 45.6145 38.8542V42.6458ZM53.1717 43.9721C54.9891 44.8087 56.1905 45.8857 56.9245 47.1512L60.2044 45.2488C59.005 43.1809 57.1399 41.6246 54.7572 40.5279L53.1717 43.9721ZM56.9329 47.1656C57.7114 48.4808 58.1186 49.9919 58.1186 51.75H61.9103C61.9103 49.3748 61.3509 47.1858 60.196 45.2344L56.9329 47.1656ZM58.1186 51.75C58.1186 53.4608 57.6684 55.0752 56.7388 56.6246L59.9901 58.5754C61.2605 56.4581 61.9103 54.1725 61.9103 51.75H58.1186ZM56.7335 56.6335C55.8839 58.0672 54.5326 59.3066 52.5565 60.3094L54.2724 63.6906C56.763 62.4267 58.7117 60.7328 59.9954 58.5665L56.7335 56.6335ZM52.5565 60.3094C50.6754 61.264 48.1145 61.8042 44.7645 61.8042V65.5958C48.481 65.5958 51.6868 65.0027 54.2724 63.6906L52.5565 60.3094Z" fill="#2B2D54"/>
</svg>
