<svg width="221" height="354" viewBox="0 0 221 354" fill="none" xmlns="http://www.w3.org/2000/svg">
<g clip-path="url(#clip0_401_1612)">
<path d="M28.7402 84.8699C28.6602 82.3799 29.7202 80.0699 31.3302 78.1199C31.3302 78.0999 31.3402 78.0899 31.3502 78.0699C30.6602 75.3399 31.4402 72.4699 32.9802 70.2099C31.8202 68.9499 31.4402 67.2299 31.7802 65.4799C32.2202 63.2099 33.3702 61.3099 34.9202 59.9099C35.7002 58.3299 37.5602 57.5299 39.3402 57.5599C39.7002 57.4699 40.0702 57.3899 40.4502 57.3399C41.9602 55.0199 44.3102 53.5399 47.1302 52.8099C49.5802 48.2299 53.5901 44.9499 58.3002 42.8399C58.5002 42.7099 58.6902 42.5699 58.9202 42.4599C62.2002 40.7999 65.7701 39.4899 69.4701 40.0299C71.3801 39.8599 73.3102 39.8299 75.1901 39.9299C77.6201 40.0599 79.1301 41.5899 79.7201 43.4099C81.3101 39.9199 83.4202 36.8999 86.8102 34.5499C90.8702 31.7399 95.8401 30.4699 100.6 29.3999C102.9 28.8799 104.71 29.8499 105.78 31.3499C106.64 31.3799 107.51 31.5399 108.36 31.8599C109.49 31.2799 110.73 30.9299 112 30.8099C114.41 28.1399 117.85 26.6299 121.78 27.6699C122.62 27.8899 123.39 28.2299 124.09 28.6399C127.12 27.5499 130.84 27.8699 134.02 30.2699C135.9 31.6899 136.56 33.2599 136.36 35.4799C137.27 34.5199 138.56 33.9299 140.04 34.0099C141.21 32.6899 142.95 31.9899 144.82 32.7399C148.64 34.2699 151.76 36.3599 154.24 39.3499C154.4 39.3499 154.56 39.3599 154.73 39.3699C159.24 37.8899 164.17 40.4399 166.31 44.5699C167.21 45.3499 167.98 46.3399 168.54 47.5699C169.07 48.7699 169.31 49.9199 169.3 51.0199C169.69 51.2799 170.06 51.5699 170.42 51.8799C171.03 51.8599 171.65 51.8999 172.28 52.0099C173.61 51.2799 175.19 51.0099 176.9 51.4099C179.38 51.9999 181.37 53.8099 183.19 55.5099C185.34 57.5299 187.35 60.5399 185.88 63.4899C186.56 65.7499 186.49 68.3099 185.82 70.7199C185.72 71.0799 185.59 71.4599 185.44 71.8499C187.26 72.0499 188.89 72.7899 190.15 74.1899C192.31 76.1599 193.62 78.8999 194.06 81.7699C194.15 82.0899 194.26 82.3999 194.34 82.7199C194.73 84.3299 194.29 86.1299 193.24 87.3899C192.54 88.6699 191.48 89.7099 190.06 90.2499C190.08 90.7999 190.06 91.3399 190 91.8799C190.76 92.7499 191.23 93.8899 191.37 95.2099C191.91 100.33 188.61 104.69 184.21 106.41C184.16 106.44 184.11 106.47 184.06 106.5C181.29 108.09 178.36 109.41 175.34 110.44C175.31 110.59 175.28 110.74 175.23 110.88C174.84 112.09 174.09 113.26 172.93 113.87C171.69 114.52 170.45 114.65 169.08 114.37C168.31 114.22 167.54 114.06 166.77 113.91C166.74 113.98 166.72 114.04 166.69 114.1C163.01 121.93 152.48 118.58 147.34 114.52C147 114.25 146.73 113.93 146.51 113.57C144.5 112.48 142.74 110.94 141.32 109.01C140.34 108.5 139.42 107.91 138.57 107.23C138.54 107.23 138.51 107.25 138.49 107.26C137.96 107.41 137.42 107.49 136.88 107.51C143.69 110.07 147.44 118.24 141.93 125.73C138.23 130.75 132.16 132.93 126.44 132.24C122.75 132.4 119.42 130.78 117.13 128.19C116.94 128.2 116.74 128.21 116.55 128.22C116.19 128.62 115.81 129.01 115.38 129.38C114.36 130.27 113.19 130.92 111.95 131.4C112.36 132.57 112.26 133.93 111.34 135.32C107.97 140.42 104.95 145.71 102.39 151.27C99.9002 156.68 98.2701 162.5 94.8902 167.46C94.6702 168.41 94.4602 169.36 94.2402 170.3C94.8401 177.1 95.4402 183.89 96.0402 190.69C96.5702 196.7 88.0701 196.91 86.2201 192.02C85.2201 189.37 84.5902 186.74 84.2602 184.01C83.3402 183.11 82.7502 181.91 82.8801 180.59C82.9202 180.17 82.9602 179.74 83.0002 179.32C82.5602 178.4 82.4002 177.29 82.6802 176.04C83.1802 173.86 83.6702 171.68 84.1702 169.51C83.9102 166.59 83.6602 163.68 83.4002 160.76C83.2802 159.4 83.3801 156.76 83.2201 154.44C82.4101 153.86 81.7902 152.94 81.5302 151.63C81.3602 150.75 81.2101 149.86 81.0801 148.97C80.7701 148.93 80.4702 148.9 80.1502 148.84C77.1202 148.3 74.4302 146.75 72.2402 144.63C70.5201 142.96 70.4302 140.94 71.2102 139.29C71.0102 139.19 70.8101 139.09 70.6101 138.99C69.6501 138.51 68.6902 138 67.7602 137.45C66.5402 137.61 65.2502 137.58 63.9302 137.31C60.8302 136.68 56.9102 134.44 53.8402 131.48C52.2202 130.59 50.7202 129.28 49.3902 127.73C47.8602 127.75 46.2902 127.27 44.8502 126.45C41.2202 125.62 38.9001 121.93 37.4702 118.43C37.1802 118.22 36.9102 117.99 36.6702 117.75C31.3402 117.39 28.6902 112.46 29.5502 108.04C29.6002 104.66 31.3002 101.66 33.6202 98.6299C32.4402 98.1199 31.3602 97.2799 30.5102 96.1499C29.6102 94.9499 29.1202 93.6199 28.9502 92.2599C28.9302 92.2299 28.9102 92.2099 28.9002 92.1699C27.4702 89.4999 27.6802 86.9199 28.7702 84.8499L28.7402 84.8699ZM132 106.6C132.16 106.64 132.31 106.68 132.46 106.73C132.62 106.73 132.78 106.73 132.93 106.73C132.54 106.55 132.15 106.35 131.78 106.11C131.67 106.04 131.58 105.95 131.48 105.88C131.65 106.12 131.82 106.36 131.99 106.61L132 106.6ZM90.0702 138.21C90.1402 138.22 90.2102 138.24 90.2802 138.25C90.3302 137.86 90.4201 137.47 90.5801 137.1C90.1601 137.2 89.7301 137.28 89.3001 137.36C89.6101 137.62 89.8602 137.91 90.0702 138.21ZM53.4902 113.22C53.4902 113.22 53.5102 113.24 53.5202 113.25C53.6302 113.27 53.7402 113.3 53.8402 113.33C54.3002 113.48 54.7402 113.7 55.1402 113.95C55.3902 113.88 55.6502 113.82 55.9002 113.78C55.2702 112.92 55.0702 111.88 55.1602 110.83C54.5901 111.44 53.9302 111.87 53.2202 112.12C53.3202 112.48 53.4102 112.85 53.4902 113.22Z" fill="#FFD656"/>
<path d="M40.1002 338.02C40.2302 326.42 39.7902 314.64 41.7002 303.16C41.7302 298.49 40.1902 295.32 40.4502 290.64C40.4702 290.21 42.2202 288.31 42.3202 287.94C42.3402 287.62 42.3502 287.31 42.3702 286.99C41.8502 287.78 41.1302 288.41 40.2402 288.79V287.49H34.5102C34.2102 287.15 33.9402 286.77 33.7502 286.35V271.81C33.8102 271.73 33.8802 271.65 33.9602 271.56C34.1002 271.41 33.8802 269.21 33.7502 267.49V265.39C34.3602 264.31 36.6202 266.1 37.8002 265.44H93.2402C95.1102 265.61 96.9702 265.75 98.8502 265.79C101.21 265.84 103.56 265.68 105.91 265.44H133.18C134.52 265.53 135.87 265.55 137.21 265.44H146.63C148.2 267.02 148.76 269.84 148.19 271.9C147.45 274.58 148.11 276.47 148.74 278.61V286.17C148.21 287.07 147.38 287.77 146.15 288.05C145.42 288.22 144.64 288.26 143.9 288.14C143.11 303.4 143.56 316.72 142.11 331.94C143.09 332.77 142.2 335.9 142.17 337.47C142.09 341.03 142.01 344.6 141.93 348.16C141.86 351.28 144.34 353.44 141.16 352.42C140.55 352.22 134.38 352.6 133.77 352.42C133.08 352.8 132.22 353.01 131.21 352.96C121.6 352.5 111.98 352.04 102.37 351.58C101.47 351.68 100.57 351.77 99.6702 351.84C86.6902 352.81 73.4302 352.04 60.4302 351.91C56.1802 351.87 50.5102 352.72 46.1502 351.39C45.7602 351.54 45.3702 351.7 44.9502 351.82C42.4402 352.57 41.0602 351.82 40.4702 349.22C40.0502 347.39 38.9202 344.71 40.1402 343.48C39.9902 341.69 40.0902 339.8 40.1202 338.01L40.1002 338.02Z" fill="#F08300"/>
<path d="M30.1602 177.75C31.1402 177.19 32.3902 177.02 33.8302 177.5C35.7402 178.14 37.6202 178.85 39.4702 179.59C39.7902 179.67 40.1202 179.77 40.4502 179.91C40.7502 180.04 41.0302 180.19 41.3202 180.33C41.8002 180.53 42.2602 180.75 42.7302 180.96C43.7102 180.82 44.8002 181.06 45.8902 181.88C47.4902 183.07 49.2002 184.08 50.9402 185.02C50.9802 185.04 51.0302 185.07 51.0702 185.09C55.1802 187.29 59.5102 189.1 63.3202 191.84C67.5402 194.87 70.9602 198.69 74.1902 202.69C78.3202 206.89 82.1102 211.46 85.5202 216.38C86.8002 218.23 86.5802 220.05 85.5902 221.4C85.6702 221.52 85.7502 221.64 85.8302 221.75C88.7402 226.07 83.1402 230.89 78.9902 228.59C78.6502 228.4 78.3002 228.23 77.9602 228.05C77.3502 228.15 76.7002 228.15 75.9902 228C59.0202 224.48 37.2002 212.59 31.6302 194.75C29.4702 191.51 27.3102 188.26 25.1502 185.02C22.5302 181.09 26.4702 177.35 30.1602 177.73V177.75Z" fill="#81F4E1"/>
<path d="M92.7802 240.2C93.7302 238.39 94.6702 236.58 95.6202 234.77C96.2402 233.59 97.4302 232.78 98.7402 232.46C98.8402 231.99 99.0102 231.51 99.2802 231.03C103.67 222.96 110.35 216.37 118.48 212.12C122.34 208.56 126.18 204.79 130.43 201.76C132.82 200.06 135.41 198.81 138.3 198.25C141.05 197.72 144 198.13 146.44 196.59C151.24 193.55 155.7 199.89 153 203.8C153.01 204.73 152.76 205.7 152.16 206.6C152.72 207.85 152.75 209.36 151.88 210.91C150.71 212.99 149.48 215.11 148.19 217.23C148.88 219.02 148.32 221.05 147.07 222.63C144.74 225.56 142.07 228.07 139.13 230.21C137.25 232.48 135.26 234.61 133.14 236.52C132.14 237.43 131.08 238.19 129.98 238.86C128.29 240.32 126.5 241.63 124.53 242.69C119.41 245.42 113.59 245.88 107.95 246.8C106.84 246.98 105.84 246.83 104.98 246.45C103.72 246.76 102.46 247.07 101.2 247.38C100.43 247.57 99.6302 247.55 98.8602 247.37C97.4502 247.9 95.8102 247.86 94.5602 247.05C92.2002 245.53 91.4702 242.69 92.7702 240.21L92.7802 240.2Z" fill="#81F4E1"/>
<path d="M73.0502 143.17C73.3202 142.21 74.3902 141.2 75.4602 141.33C85.2702 142.59 94.8002 139.71 104.08 136.84C104.68 136.66 105.2 136.69 105.65 136.87C106.18 136.59 106.71 136.31 107.24 136.04C107.32 135.02 108.06 134.2 109.06 133.82C110.76 133.18 112.46 133.14 114.23 133.43C115.3 133.6 116.07 134.83 116.07 135.84C116.07 137.03 115.27 137.83 114.23 138.25C107.65 140.96 101.98 145.64 94.8702 146.97C91.4402 147.61 87.9502 147.75 84.4602 147.68C81.2002 147.62 76.9502 148.03 74.1902 145.99C73.2802 145.32 72.7202 144.32 73.0402 143.17H73.0502Z" fill="#F08300" fill-opacity="0.5"/>
<path d="M68.6202 87.6701C69.5202 83.1101 73.3302 79.3601 77.7802 78.2201C80.9102 77.4101 82.1501 82.0401 79.1101 83.0401C76.9101 83.7701 75.6101 85.8801 75.1101 88.0501C74.4901 90.7701 75.5102 93.5701 76.9301 95.8601C78.4301 98.2901 80.5101 100.48 82.9701 101.94C85.1201 103.21 87.8201 104.1 90.1801 102.84C91.4701 102.15 92.7701 102.62 93.6001 103.74C95.9101 106.84 99.0601 109.43 102.57 111.04C103.53 111.48 105.28 112.2 106.29 111.57C107.11 111.07 107.59 110.17 108.48 109.7C109.41 109.2 110.54 109.04 111.57 109.28C113.3 109.7 114.5 111.01 115.64 112.28C116.76 113.54 117.62 114.27 119.35 114.48C123.23 114.95 127.74 114.34 130.28 118.06C131.47 119.79 131.44 122.13 130.52 123.98C129.5 126.04 127.52 126.88 125.32 126.57C123.98 126.38 123.25 124.68 123.57 123.49C123.91 122.26 124.94 121.72 126.07 121.71C126.13 121.46 126.2 121.05 126.17 120.96C126.09 120.72 125.84 120.49 125.37 120.25C124.76 119.94 124.04 119.78 123.36 119.7C119.8 119.25 116.36 119.77 113.43 117.22C112.46 116.37 111.66 115.09 110.71 114.35C110.71 114.35 110.71 114.35 110.7 114.35C110.21 114.88 108.84 115.85 108.74 115.91C105.47 117.75 101.6 116.3 98.6001 114.62C95.5501 112.91 92.9101 110.64 90.6601 108C84.5101 109.84 78.1501 105.67 74.2101 100.68C74.0301 100.62 73.8601 100.54 73.7101 100.43C69.7201 97.4601 67.6401 92.6201 68.6101 87.6701H68.6202Z" fill="#F08300" fill-opacity="0.5"/>
<path d="M52.2201 88.15C55.3101 87.21 56.6201 92.04 53.5501 92.97C50.2001 93.99 48.6601 98.2 49.5702 101.4C50.7502 105.54 55.3401 107.88 59.3801 108.06C60.8502 108.13 61.7201 109.16 61.8801 110.56C62.1702 113.01 64.2501 115.21 66.6101 115.77C69.0101 116.34 71.7502 115.27 73.1502 113.24C74.7202 110.95 78.4301 112.31 77.7201 115.17C77.0601 117.85 79.8702 120.08 82.2102 120.65C85.9602 121.56 90.0602 119.44 93.3402 117.87C94.7002 117.22 96.6502 117.67 97.0102 119.36C97.7702 122.91 100.11 126.02 103.48 127.47C107.11 129.03 111.26 128.31 114.42 126.08C115.52 125.3 117.2 125.88 117.84 126.98C118.57 128.23 118.05 129.62 116.94 130.4C112.41 133.6 106.34 134.16 101.28 131.94C97.5902 130.32 94.6202 127.19 93.0602 123.48C88.8802 125.32 84.1902 126.8 79.8402 125.15C77.0602 124.1 74.6302 122.03 73.4302 119.44C70.9902 120.81 68.1002 121.31 65.2602 120.61C61.3502 119.64 58.5102 116.56 57.3502 112.86C51.6502 111.94 46.0902 108.28 44.6402 102.44C43.1902 96.62 46.2901 89.95 52.1901 88.17L52.2201 88.15Z" fill="#F08300" fill-opacity="0.5"/>
<path d="M34.3602 83.83C34.9902 82.76 36.6902 82.13 37.7802 82.93C40.8402 85.17 44.9502 82.52 48.0802 81.73C49.9402 81.26 51.7902 81.19 53.6902 81.33C55.1902 81.44 56.9402 81.71 58.3402 81.45C61.2102 80.91 60.4102 76.79 60.9802 74.48C61.4702 72.48 62.7402 70.25 65.0402 70.37C67.0702 70.48 69.0502 70.59 71.0902 70.43C75.6902 70.05 80.1602 68.57 84.1402 66.25C85.6502 65.37 87.2402 66.25 87.8102 67.74C89.8702 73.1 95.2902 77.05 100.99 77.45C102.34 77.55 103.49 78.53 103.49 79.95C103.49 81.23 102.34 82.55 100.99 82.45C93.9202 81.95 87.6802 77.88 84.2802 71.82C78.5902 74.59 72.2102 75.87 65.8902 75.42C65.6202 76.18 65.5902 77.11 65.5202 77.91C65.3702 79.55 65.1902 81.19 64.4302 82.68C62.7902 85.87 59.3102 86.65 56.0002 86.48C54.4102 86.4 52.8302 86.18 51.2402 86.24C49.4502 86.3 47.7202 87.06 46.0502 87.63C42.5902 88.82 38.4402 89.56 35.2602 87.23C34.1702 86.43 33.6302 85.06 34.3602 83.81V83.83Z" fill="#F08300" fill-opacity="0.5"/>
<path d="M35.1702 92.7701C35.9302 91.6601 37.3602 91.1601 38.5902 91.8701C39.6902 92.5101 40.2602 94.1701 39.4902 95.2901C37.9102 97.5801 37.6902 100.19 37.8902 102.9C38.1002 105.82 38.6902 108.82 39.4802 111.63C40.1602 114.04 41.3402 116.64 43.8502 117.59C46.3402 118.54 47.9902 116.58 49.3702 114.76C50.7402 112.95 53.0802 113.29 53.9402 115.36C55.4202 118.91 57.1002 123.18 60.4302 125.42C62.9202 127.09 66.5602 127.63 68.7102 125.3C69.7902 124.13 71.8802 124.44 72.6402 125.81C75.1702 130.36 80.7302 132.7 85.7502 131.27C88.8502 130.39 90.1702 135.21 87.0802 136.09C80.8702 137.85 73.9602 135.56 69.9002 130.64C66.4202 132.51 61.9002 132.06 58.4802 130.09C54.7902 127.97 52.5502 124.33 50.7902 120.54C48.9402 122.16 46.7602 123.17 43.9602 122.75C39.9502 122.14 37.0302 119.02 35.5202 115.42C34.0302 111.85 33.3902 107.75 32.9802 103.91C32.5702 100.09 32.9402 96.0301 35.1802 92.7801L35.1702 92.7701Z" fill="#F08300" fill-opacity="0.5"/>
<path d="M39.5202 69.92C39.9002 68.55 41.2702 67.9 42.6002 68.17C46.7002 69.02 51.3902 69.64 55.3602 67.87C58.2102 66.6 60.7602 63.96 60.8602 60.71C60.9202 58.49 63.5202 57.48 65.1302 58.94C67.1502 60.78 70.5002 59.9 72.4402 58.37C75.2102 56.2 76.6702 52.64 78.0802 49.53C78.8102 47.92 81.6902 47.86 82.4002 49.53C83.5102 52.15 86.1202 53.51 88.9102 53.49C91.5102 53.48 93.9802 52.34 96.1602 50.89C96.8502 50.15 97.6702 49.52 98.5902 49.09C99.7202 48.56 101.03 48.68 101.81 49.73C102.49 50.64 102.6 52.23 101.61 53.01C100.97 53.52 100.31 54.02 99.6402 54.49C97.7702 56.61 98.5402 60.15 100.61 62.18C103.95 65.46 108.89 65.74 113.39 65.75C113.07 63.01 117.43 61.98 118.3 64.89C119.18 67.83 121.92 70.05 125 70.2C125.41 70.22 125.8 70.34 126.14 70.53C125.47 69.41 125 68.21 124.72 66.96C124.53 66.38 124.39 65.79 124.32 65.16C124.28 65.14 124.24 65.12 124.2 65.1C123.34 64.48 122.52 63.8 121.78 63.07C121.47 62.95 121.18 62.77 120.92 62.55C117.67 59.82 116.66 55.02 118.19 51.14C118.25 50.66 118.35 50.19 118.49 49.73C115.84 48.94 113.65 46.9 112.65 44.34C111.53 41.48 112.05 38.32 112.61 35.4C112.86 34.07 114.46 33.32 115.69 33.65C117.08 34.03 117.69 35.39 117.44 36.73C117.06 38.74 116.44 41.45 117.67 43.29C118.99 45.26 121.66 44.88 123.11 46.66C124.05 47.82 123.92 49.03 123.55 50.31C123.69 50.86 123.65 51.48 123.3 52.13C123.21 52.29 123.15 52.45 123.08 52.61C123.08 53.19 123.14 53.78 123.29 54.36C123.69 56.01 124.53 57.48 125.5 58.87C125.5 58.87 125.5 58.85 125.5 58.84C125.51 58.81 125.52 58.77 125.54 58.74C125.63 58.54 125.69 58.34 125.79 58.14C126.33 57.02 127.85 56.67 128.91 57.12C129.97 57.57 130.8 58.9 130.36 60.07C130.07 60.84 129.78 61.61 129.57 62.4C129.53 62.53 129.5 62.66 129.47 62.79C129.45 62.94 129.42 63.09 129.43 62.99C129.42 63.1 129.41 63.21 129.4 63.33C129.37 63.73 129.37 64.13 129.39 64.53C129.39 64.74 129.42 64.96 129.44 65.17C129.44 65.2 129.45 65.25 129.46 65.29C129.5 65.5 129.56 65.71 129.61 65.91C129.64 65.98 129.68 66.04 129.69 66.06C129.75 66.17 129.82 66.29 129.89 66.4C129.97 66.53 130.08 66.66 130.15 66.79C130.17 66.81 130.18 66.81 130.2 66.84C130.6 67.27 131.01 67.67 131.47 68.04C131.48 68.04 131.49 68.05 131.51 68.07C131.65 68.17 131.79 68.27 131.94 68.37C132.2 68.55 132.47 68.71 132.75 68.87C133.33 69.21 133.93 69.52 134.54 69.81C134.82 69.94 135.1 70.07 135.38 70.2C136.85 69.2 139.37 69.83 139.35 72.15C139.28 74.5 139.6 77 141.06 78.93C142.2 80.45 144.22 81.54 146.14 81.11C147.6 80.79 149.45 81.81 149.3 83.52C149.01 86.86 148.49 91.25 151.58 93.51C154.17 95.41 157.83 94.73 159.59 92.04C161.35 89.36 165.68 91.86 163.91 94.56C160.82 99.27 154.66 101.04 149.67 98.21C146.61 96.47 145.14 93.76 144.53 90.72C144.08 90.72 143.63 90.68 143.16 90.57C140.94 90.05 139.02 88.39 137.66 86.62C135.38 83.65 134.65 80.09 134.43 76.46C131.75 75.85 129.32 74.43 127.49 72.37C127.57 72.89 127.49 73.44 127.16 73.96C124.99 77.45 124.72 81.91 126.81 85.51C127.17 86.13 127.6 86.7 128.07 87.24C128.39 87.36 128.69 87.54 128.93 87.78C129.06 87.91 129.17 88.05 129.3 88.19C129.89 88.1 130.51 88.19 131.02 88.48C132.2 89.14 133.18 90.01 133.96 91.04C134.89 91.74 135.16 92.84 135.54 94.06C136.3 94.11 137.01 94.48 137.36 95.26C139.14 99.33 141.66 103.49 145.81 105.49C149.04 107.06 153.3 106.79 155.8 104.06C156.9 102.86 158.94 103.23 159.73 104.57C161.27 107.18 164.53 108.86 167.57 108.19C170.83 107.46 173.02 104.71 173.45 101.48C173.63 100.14 175.35 99.41 176.53 99.73C177.98 100.13 178.46 101.46 178.28 102.81C177.62 107.73 173.47 112.19 168.56 113.09C164.37 113.85 160.08 112.42 157.19 109.43C153.51 111.81 148.58 112.02 144.53 110.37C139.91 108.49 136.6 104.63 134.29 100.32C129.69 103.15 123.59 104.33 118.7 101.97C115.39 100.37 114.74 96.51 114.43 93.21C114.09 89.61 114.59 85.9 115.78 82.49C116.32 80.92 118.36 80.27 119.62 81.03C119.85 80.79 120.13 80.64 120.42 80.53C120.37 78.49 120.7 76.44 121.4 74.51C119.25 73.75 117.34 72.42 115.89 70.68C115.68 70.74 115.45 70.78 115.2 70.78C108.38 70.81 100.62 70.37 96.0402 64.55C94.4602 62.54 93.6202 60.21 93.6102 57.73C92.0002 58.27 90.3302 58.57 88.5802 58.52C85.7802 58.44 82.8802 57.43 80.7302 55.6C79.1502 58.62 77.1802 61.46 74.2102 63.24C71.4602 64.88 68.1102 65.41 65.1402 64.5C63.9202 67.8 61.3102 70.55 58.1002 72.11C52.8302 74.68 46.8702 74.16 41.3002 73.01C39.9801 72.74 39.2102 71.18 39.5502 69.93L39.5202 69.92Z" fill="#F08300" fill-opacity="0.5"/>
<path d="M133.51 41.9801C137.73 39.3501 143.54 40.6501 146.48 44.5501C148.22 46.8601 148.59 49.9601 148.85 52.7501C148.91 53.4101 148.94 54.0601 148.96 54.7101C153.07 53.7601 157.7 55.0701 160.62 58.1501C163.79 61.4901 164.92 66.7601 163.17 71.0501C162.76 72.0501 161.94 72.9401 160.76 72.8901C159.74 72.8401 158.54 72.1601 158.35 71.0501C158.2 70.1601 158.02 69.2801 157.75 68.4201C157.69 68.2301 157.62 68.0401 157.55 67.8501C157.53 67.7901 157.47 67.6501 157.42 67.5501C155.47 66.7701 153.69 65.7401 152.01 64.4201C150.61 63.3201 151.34 60.5001 153.11 60.2401C153.78 60.1401 154.42 60.1301 155.04 60.1801C154.99 60.1501 154.94 60.1201 154.88 60.1001C154.81 60.0701 154.75 60.0301 154.7 60.0001C154.35 59.8101 153.88 59.7201 153.5 59.6201C153.31 59.5701 153.13 59.5301 152.94 59.4901C152.84 59.4701 152.75 59.4601 152.65 59.4401C152.27 59.4201 151.89 59.3901 151.5 59.3901C151.28 59.3901 151.05 59.4101 150.83 59.4201C150.77 59.4201 150.73 59.4201 150.7 59.4201C150.68 59.4201 150.67 59.4201 150.64 59.4301C150.2 59.5201 149.77 59.6201 149.34 59.7601C149.15 59.8201 148.95 59.8401 148.75 59.8501C148.67 60.5901 148.57 61.3301 148.45 62.0601C148.25 63.2701 146.82 64.0201 145.71 63.8501C144.48 63.6601 143.57 62.6701 143.54 61.3901C143.51 59.7001 143.47 58.0101 143.3 56.3301C143.24 55.7101 143.09 54.9201 142.92 54.2001C142.82 53.7901 142.71 53.3901 142.58 52.9901C142.52 52.7901 142.44 52.5901 142.38 52.3901C142.35 52.3101 142.32 52.2301 142.29 52.1601C142.02 51.5501 141.69 50.9601 141.32 50.4001C141.23 50.2601 141.13 50.1201 141.03 49.9801C141.03 49.9701 141.03 49.9701 141.01 49.9601C141 49.9401 140.98 49.9201 140.95 49.8901C140.73 49.6401 140.51 49.3901 140.27 49.1501C139.69 48.5801 139.71 48.5901 139.01 48.1801C138.87 48.1001 138.72 48.0201 138.58 47.9401C138.56 47.9301 138.4 47.8601 138.32 47.8201C138.23 47.7901 138.06 47.7301 138.04 47.7301C137.84 47.6701 137.64 47.6201 137.44 47.5701C136.76 47.4101 136.23 46.9301 135.92 46.3301C134.79 46.9201 133.29 46.4601 132.65 45.3601C131.95 44.1601 132.4 42.6601 133.55 41.9401L133.51 41.9801Z" fill="#F08300" fill-opacity="0.5"/>
<path d="M173.3 78.8599C173.6 78.3399 174.2 77.8499 174.79 77.7099C174.91 77.6799 175.03 77.6699 175.15 77.6599C175.35 77.5399 175.56 77.4299 175.77 77.3799C177.08 77.0799 178.48 77.7699 178.85 79.1299C178.89 79.2899 178.95 79.4499 179 79.6099C179.12 79.5599 179.23 79.4999 179.35 79.4599C180.46 79.1099 181.78 79.3199 182.77 79.8999C183.89 80.5599 184.81 81.8899 184.65 83.2399C184.57 83.9299 184.43 84.4999 183.92 85.0099C183.49 85.4399 182.78 85.7699 182.15 85.7399C181.73 85.7199 181.31 85.6199 180.94 85.4199C180.89 86.4199 180.1 87.4399 179.12 87.6599C178.68 87.7599 178.23 87.7599 177.79 87.6599C177.54 87.5999 177.27 87.4599 177.02 87.2899C176.7 87.2499 176.39 87.1599 176.12 86.9799C175.95 86.8499 175.78 86.7199 175.61 86.5899C175.3 86.2799 175.09 85.9099 174.97 85.4899L173.05 80.7999C172.82 80.2399 173.01 79.3699 173.3 78.8699V78.8599Z" fill="#F08300" fill-opacity="0.5"/>
<path d="M40.2502 288.89C40.6302 288.75 41.0602 288.69 41.4902 288.71C41.4302 288.5 41.3902 288.28 41.3902 288.04C41.3902 286.8 42.5402 285.39 43.8902 285.54C49.9602 286.22 56.0402 286.85 62.1202 287.43C62.4902 287.15 62.9702 286.97 63.5702 286.97C69.5202 286.99 75.4602 287.08 81.4102 287.19C93.6202 286.49 105.87 286.51 118.07 287.26C125.27 287.71 132.45 288.41 139.6 289.36C140.94 289.54 142.1 290.38 142.1 291.86C142.1 292.58 141.69 293.38 141.08 293.88C141.52 295.35 140.77 297.19 138.79 297.14C138.14 297.12 137.48 297.1 136.83 297.08C137.87 305.54 137.59 314.09 136.38 322.52C136.41 325.92 136.41 329.33 136.38 332.73C136.63 336.7 136.53 340.68 136.05 344.63C136.05 344.67 136.03 344.71 136.02 344.75C137.2 345.01 138.15 345.86 138.15 347.18C138.15 347.38 138.11 347.58 138.06 347.78C139.95 348.95 139.55 352.51 136.82 352.41C130.22 352.16 123.63 351.86 117.03 351.57C116.63 352.07 116.01 352.42 115.17 352.42C114.24 352.42 113.59 352 113.2 351.41C111.89 351.35 110.59 351.3 109.28 351.24C106.08 351.09 106.06 346.09 109.28 346.24C109.29 346.24 109.31 346.24 109.32 346.24C109.39 346.06 109.48 345.89 109.59 345.72L107.52 342.7C106.6 341.36 107.5 339.7 108.8 339.12C108.07 338.02 107.35 336.9 106.65 335.78C105.09 333.26 108.51 330.95 110.58 332.75C110.61 332.77 110.64 332.8 110.67 332.82C110.67 332.81 110.67 332.8 110.66 332.79C110.03 331.1 111.42 329.84 112.91 329.73C112.68 329.26 112.44 328.79 112.21 328.32C111.67 327.2 111.8 325.88 112.85 325.1C113.11 324.9 113.42 324.76 113.74 324.68C111.23 320.37 108.72 316.06 106.22 311.75C104.83 309.36 108.23 306.54 110.15 308.72C111.16 309.87 112.17 311.02 113.17 312.17C112.64 311.22 112.1 310.27 111.57 309.32C110.15 306.76 108.99 304.14 108.83 301.18C108.76 299.81 110.03 298.71 111.33 298.68C111.87 298.67 112.36 298.75 112.81 298.9C112.67 298.57 112.53 298.24 112.39 297.91C95.1402 298.27 77.8702 297.64 60.6902 295.98C57.3502 295.66 54.0202 295.3 50.6802 294.9C48.0402 294.98 45.3902 294.92 42.7502 294.62C42.0102 294.54 41.2202 294.18 40.7302 293.6C40.6602 293.6 40.6002 293.58 40.5302 293.57C40.4302 293.56 40.3402 293.52 40.2502 293.49V288.9V288.89Z" fill="#F08300"/>
<path d="M90.9302 192.82V264.8" stroke="#100D57" stroke-width="3" stroke-linejoin="round"/>
<path d="M71.9902 140.86C90.2202 142.21 114.13 132.81 114.13 132.81C114.13 132.81 115.21 133.18 117 133.56C115.61 135.69 113.44 137.21 113.44 137.21C113.44 137.21 105.69 147.95 100.32 161.67C94.9502 175.39 97.6402 185.83 96.4402 189.41C95.2502 192.99 91.6702 193.29 88.6902 192.69C85.7102 192.09 84.8102 192.39 83.6202 188.81C82.4302 185.23 81.5302 170.91 82.1302 161.97C82.7302 153.03 83.3202 150.04 83.3202 150.04C83.3202 150.04 79.4402 150.34 74.6702 147.06C73.7302 146.42 72.9402 145.77 72.2602 145.16" stroke="#100D57" stroke-width="2" stroke-linecap="round" stroke-linejoin="round"/>
<path d="M28.0102 70.9499C28.0802 67.3499 28.6302 62.4899 30.8202 59.3399C34.6602 53.8199 43.7902 54.0599 43.7902 54.0599C43.7902 54.0599 51.2302 42.0599 61.8002 39.4099C72.3602 36.7699 79.5702 40.3699 79.5702 40.3699C79.5702 40.3699 90.1302 29.0899 98.0602 28.1299C105.98 27.1699 108.14 29.0899 108.14 29.0899C108.14 29.0899 116.3 23.8099 125.19 26.6899C134.07 29.5699 134.55 32.2099 134.55 32.2099" stroke="#100D57" stroke-width="2" stroke-linecap="round" stroke-linejoin="round"/>
<path d="M24.4002 83.0699C25.3502 76.6699 28.1702 75.6699 28.1702 75.6699" stroke="#100D57" stroke-width="2" stroke-linecap="round" stroke-linejoin="round"/>
<path d="M158.79 118.65C148.23 117.45 142.46 111.93 142.46 111.93C142.46 111.93 148.46 123.93 137.9 130.66C127.34 137.38 114.13 132.82 114.13 132.82C114.13 132.82 87.2402 143.38 68.7502 140.5C50.2602 137.62 39.7002 123.21 39.7002 123.21C39.7002 123.21 28.6602 121.53 28.1802 113.61C27.7002 105.69 29.3802 100.64 29.3802 100.64C29.3802 100.64 25.0902 98.6901 24.2402 90.5801" stroke="#100D57" stroke-width="2" stroke-linecap="round" stroke-linejoin="round"/>
<path d="M145.47 29.8C146.6 29.98 147.7 30.36 148.7 31.01C154.22 34.61 154.94 38.93 154.94 38.93C154.94 38.93 170.07 34.61 170.31 50.69C170.31 50.69 177.51 48.53 183.04 52.37C188.56 56.21 189.04 62.69 188.56 66.06L188.08 69.42C188.08 69.42 197.44 71.58 196.48 80.46C195.52 89.34 191.68 92.2201 191.68 92.2201C191.68 92.2201 196.48 103.98 188.56 108.31C180.64 112.63 177.28 111.67 177.28 111.67C177.28 111.67 174.3 114.74 169.55 116.84" stroke="#100D57" stroke-width="2" stroke-linecap="round" stroke-linejoin="round"/>
<path d="M108.13 29.0901C108.13 29.0901 104.53 34.8501 107.65 41.5801C110.77 48.3001 116.29 48.0601 116.29 48.0601C116.29 48.0601 111.73 54.7801 115.81 61.5101C119.89 68.2301 125.89 67.9901 125.89 67.9901C125.89 67.9901 120.37 77.8301 126.13 83.1201C131.89 88.4001 135.01 88.1601 135.01 88.1601C135.01 88.1601 132.61 97.7601 145.33 102.81C158.06 107.85 164.3 96.0901 164.78 91.2901" stroke="#100D57" stroke-width="2" stroke-linecap="round" stroke-linejoin="round"/>
<path d="M158.07 71.1101C158.07 71.1101 157.35 65.5901 154.23 63.4301C151.11 61.2701 143.43 62.4701 143.43 62.4701C143.43 62.4701 143.19 52.8701 138.87 49.0201C134.55 45.1801 129.99 46.1401 129.99 46.1401" stroke="#100D57" stroke-width="2" stroke-linecap="round" stroke-linejoin="round"/>
<path d="M188.08 69.4299C188.08 69.4299 179.68 80.7099 166.95 72.0699" stroke="#100D57" stroke-width="2" stroke-linecap="round" stroke-linejoin="round"/>
<path d="M191.68 92.2399C191.68 92.2399 183.04 83.1199 174.15 89.8399" stroke="#100D57" stroke-width="2" stroke-linecap="round" stroke-linejoin="round"/>
<path d="M116.77 94.8801C116.77 94.8801 115.57 85.0401 106.69 83.6001C97.8102 82.1601 94.9302 86.7201 94.9302 86.7201C94.9302 86.7201 85.8102 75.2001 75.0002 80.0001C64.2002 84.8001 66.1202 92.0001 72.1202 99.4501C78.1202 106.89 87.4902 107.13 87.4902 107.13C87.4902 107.13 90.3702 111.69 95.4102 113.13C100.45 114.57 109.82 114.57 109.82 114.57C109.82 114.57 108.62 117.93 118.22 120.57C127.82 123.21 125.18 126.33 120.86 127.05" stroke="#100D57" stroke-width="2" stroke-linecap="round" stroke-linejoin="round"/>
<path d="M61.0702 93.6801C53.6302 87.2001 45.7002 87.9201 43.3002 97.5201C40.9002 107.12 56.5102 112.65 56.5102 112.65C56.5102 112.65 57.7102 118.41 63.2302 120.81C68.7502 123.21 74.9902 118.17 74.9902 118.17C74.9902 118.17 74.0302 124.41 78.3502 127.05C82.6702 129.69 91.3202 126.57 91.3202 126.57C91.3202 126.57 92.5202 131.37 101.4 133.77C110.28 136.17 114.13 132.81 114.13 132.81" stroke="#100D57" stroke-width="2" stroke-linecap="round" stroke-linejoin="round"/>
<path d="M77.4001 133.05C77.4001 133.05 72.8401 138.09 65.8801 135.93C58.9201 133.77 55.0801 126.57 55.0801 126.57" stroke="#100D57" stroke-width="2" stroke-linecap="round" stroke-linejoin="round"/>
<path d="M47.1402 73.2701C47.1402 73.2701 49.3001 76.3901 55.3001 72.7901C61.3001 69.1901 61.5401 64.1501 61.5401 64.1501C61.5401 64.1501 65.1401 69.6701 72.1001 66.0701C79.0601 62.4701 80.2601 57.6701 80.2601 57.6701C80.2601 57.6701 86.9801 61.7501 90.8201 60.3101C94.6601 58.8701 98.0201 52.8701 98.0201 52.8701" stroke="#100D57" stroke-width="2" stroke-linecap="round" stroke-linejoin="round"/>
<path d="M90.8402 60.3C90.8402 60.3 94.9202 71.34 111.97 69.42" stroke="#100D57" stroke-width="2" stroke-linecap="round" stroke-linejoin="round"/>
<path d="M107.65 54.2999C107.65 54.2999 106.93 55.4999 104.29 51.6599C101.65 47.8199 101.41 46.3799 101.41 46.3799C101.41 46.3799 95.4101 48.7799 92.0501 47.3399" stroke="#100D57" stroke-width="2" stroke-linecap="round" stroke-linejoin="round"/>
<path d="M135.98 79.27C135.98 79.27 134.54 85.99 142.22 90.55" stroke="#100D57" stroke-width="2" stroke-linecap="round" stroke-linejoin="round"/>
<path d="M172.23 84.0701C172.23 84.0701 174.87 87.6701 171.75 95.5901" stroke="#100D57" stroke-width="2" stroke-linecap="round" stroke-linejoin="round"/>
<path d="M142.46 111.92C142.46 111.92 140.78 106.88 131.66 105.92C122.54 104.96 107.65 104 100.69 98.48L93.7302 92.96" stroke="#100D57" stroke-width="2" stroke-linecap="round" stroke-linejoin="round"/>
<path d="M90.2502 227.09C90.2502 227.09 78.6002 182.53 24.1002 174.99C24.1002 174.99 31.9802 238.06 90.2502 227.09Z" stroke="#100D57" stroke-width="2" stroke-linecap="round" stroke-linejoin="round"/>
<path d="M90.2502 227.09L24.1002 174.99" stroke="#100D57" stroke-width="2" stroke-linecap="round" stroke-linejoin="round"/>
<path d="M77.9102 203.79L80.9902 219.9L62.8302 226.06" stroke="#100D57" stroke-width="2" stroke-linecap="round" stroke-linejoin="round"/>
<path d="M69.6802 195.9L71.0502 211.33L47.7502 219.21" stroke="#100D57" stroke-width="2" stroke-linecap="round" stroke-linejoin="round"/>
<path d="M59.0602 187.33L60.7702 203.44L38.8302 209.61" stroke="#100D57" stroke-width="2" stroke-linecap="round" stroke-linejoin="round"/>
<path d="M48.0902 181.85L48.7702 194.19L30.6102 196.24" stroke="#100D57" stroke-width="2" stroke-linecap="round" stroke-linejoin="round"/>
<path d="M90.5902 246.97C90.5902 246.97 102.24 202.41 156.74 194.87C156.74 194.87 148.86 257.94 90.5902 246.97Z" stroke="#100D57" stroke-width="2" stroke-linecap="round" stroke-linejoin="round"/>
<path d="M90.5902 246.97L156.75 194.87" stroke="#100D57" stroke-width="2" stroke-linecap="round" stroke-linejoin="round"/>
<path d="M102.93 223.67L99.8502 239.78L118.01 245.95" stroke="#100D57" stroke-width="2" stroke-linecap="round" stroke-linejoin="round"/>
<path d="M111.16 215.78L109.79 231.21L133.09 239.09" stroke="#100D57" stroke-width="2" stroke-linecap="round" stroke-linejoin="round"/>
<path d="M121.78 207.21L120.07 223.32L142.01 229.49" stroke="#100D57" stroke-width="2" stroke-linecap="round" stroke-linejoin="round"/>
<path d="M132.75 201.73L132.07 214.07L150.23 216.12" stroke="#100D57" stroke-width="2" stroke-linecap="round" stroke-linejoin="round"/>
<path d="M142.61 287.08H148.52V265.48H33.6901V287.08H40.4601" stroke="#100D57" stroke-width="2" stroke-linecap="round" stroke-linejoin="round"/>
<path d="M125.89 287.44H40.4602V312.21" stroke="#100D57" stroke-width="2" stroke-linecap="round" stroke-linejoin="round"/>
<path d="M40.4602 318.87V352.53H142.61V287.44H132.22" stroke="#100D57" stroke-width="2" stroke-linecap="round" stroke-linejoin="round"/>
<path d="M219.43 97.3201H203.86" stroke="#100D57" stroke-width="2" stroke-linecap="round" stroke-linejoin="round"/>
<path d="M209.7 42.3501L197.05 48.1901" stroke="#100D57" stroke-width="2" stroke-linecap="round" stroke-linejoin="round"/>
<path d="M154.73 10.24L150.35 19.97" stroke="#100D57" stroke-width="2" stroke-linecap="round" stroke-linejoin="round"/>
<path d="M87.1102 1V18.03" stroke="#100D57" stroke-width="2" stroke-linecap="round" stroke-linejoin="round"/>
<path d="M44.7902 36.0301L36.0302 24.8401" stroke="#100D57" stroke-width="2" stroke-linecap="round" stroke-linejoin="round"/>
<path d="M16.5702 75.9201L1.0002 70.5701" stroke="#100D57" stroke-width="2" stroke-linecap="round" stroke-linejoin="round"/>
<path d="M21.9202 108.51H9.76016" stroke="#100D57" stroke-width="2" stroke-linecap="round" stroke-linejoin="round"/>
<path d="M125.49 292.84L138.75 306.11" stroke="#100D57" stroke-width="2" stroke-linecap="round" stroke-linejoin="round"/>
<path d="M125.49 287.75L138.75 301.01" stroke="#100D57" stroke-width="2" stroke-linecap="round" stroke-linejoin="round"/>
<path d="M132.1 289.59L138.75 296.24" stroke="#100D57" stroke-width="2" stroke-linecap="round" stroke-linejoin="round"/>
<path d="M125.49 297.73L138.75 310.99" stroke="#100D57" stroke-width="2" stroke-linecap="round" stroke-linejoin="round"/>
<path d="M125.49 302.62L138.75 315.88" stroke="#100D57" stroke-width="2" stroke-linecap="round" stroke-linejoin="round"/>
<path d="M125.49 307.5L138.75 320.77" stroke="#100D57" stroke-width="2" stroke-linecap="round" stroke-linejoin="round"/>
<path d="M125.49 312.39L138.75 325.66" stroke="#100D57" stroke-width="2" stroke-linecap="round" stroke-linejoin="round"/>
<path d="M125.49 317.28L138.75 330.54" stroke="#100D57" stroke-width="2" stroke-linecap="round" stroke-linejoin="round"/>
<path d="M125.49 322.17L138.75 335.43" stroke="#100D57" stroke-width="2" stroke-linecap="round" stroke-linejoin="round"/>
<path d="M125.49 327.05L138.75 340.32" stroke="#100D57" stroke-width="2" stroke-linecap="round" stroke-linejoin="round"/>
<path d="M125.49 331.94L138.75 345.21" stroke="#100D57" stroke-width="2" stroke-linecap="round" stroke-linejoin="round"/>
<path d="M125.49 337.03L138.75 350.3" stroke="#100D57" stroke-width="2" stroke-linecap="round" stroke-linejoin="round"/>
<path d="M108.65 142.22C108.65 142.22 101.68 145.71 94.3601 143.27" stroke="#100D57" stroke-width="2" stroke-linecap="round" stroke-linejoin="round"/>
<path d="M106.29 146.91C106.29 146.91 99.3202 150.4 92.0002 147.96" stroke="#100D57" stroke-width="2" stroke-linecap="round" stroke-linejoin="round"/>
<path d="M103.38 153.42C103.38 153.42 96.0902 156.17 89.0602 152.99" stroke="#100D57" stroke-width="2" stroke-linecap="round" stroke-linejoin="round"/>
<path d="M101.53 157.89C101.53 157.89 94.4402 161.13 87.2102 158.44" stroke="#100D57" stroke-width="2" stroke-linecap="round" stroke-linejoin="round"/>
<path d="M99.6002 162.6C99.6002 162.6 92.6302 166.09 85.3102 163.65" stroke="#100D57" stroke-width="2" stroke-linecap="round" stroke-linejoin="round"/>
<path d="M97.9802 168.38C97.9802 168.38 91.6102 171.85 84.9202 169.42" stroke="#100D57" stroke-width="2" stroke-linecap="round" stroke-linejoin="round"/>
<path d="M96.4402 175.37C96.4402 175.37 90.5402 178.17 84.3402 176.21" stroke="#100D57" stroke-width="2" stroke-linecap="round" stroke-linejoin="round"/>
<path d="M96.7502 180.81C96.7502 180.81 90.7002 183.85 84.3402 181.72" stroke="#100D57" stroke-width="2" stroke-linecap="round" stroke-linejoin="round"/>
</g>
<defs>
<clipPath id="clip0_401_1612">
<rect width="220.43" height="353.53" fill="white" transform="matrix(-1 0 0 1 220.43 0)"/>
</clipPath>
</defs>
</svg>
