<svg width="92" height="91" viewBox="0 0 92 91" fill="none" xmlns="http://www.w3.org/2000/svg">
<circle cx="46" cy="45.5" r="44.5521" fill="#81F4E1" stroke="#2B2D54" stroke-width="1.89583"/>
<path d="M29.8451 56.3V49.85L45.5451 28H55.7951L40.5451 49.85L35.8451 48.45H63.1951V56.3H29.8451ZM48.3451 63V56.3L48.6451 48.45V42.5H57.9951V63H48.3451Z" fill="#FFD656"/>
<path d="M29.8451 56.3H27.9493V58.1958H29.8451V56.3ZM29.8451 49.85L28.3055 48.7437L27.9493 49.2395V49.85H29.8451ZM45.5451 28V26.1042H44.5729L44.0055 26.8937L45.5451 28ZM55.7951 28L57.3497 29.085L59.4302 26.1042H55.7951V28ZM40.5451 49.85L40.0039 51.6669L41.3161 52.0578L42.0997 50.935L40.5451 49.85ZM35.8451 48.45V46.5542L35.3039 50.2669L35.8451 48.45ZM63.1951 48.45H65.091V46.5542H63.1951V48.45ZM63.1951 56.3V58.1958H65.091V56.3H63.1951ZM48.3451 63H46.4493V64.8958H48.3451V63ZM48.3451 56.3L46.4507 56.2276L46.4493 56.2638V56.3H48.3451ZM48.6451 48.45L50.5396 48.5224L50.541 48.4862V48.45H48.6451ZM48.6451 42.5V40.6042H46.7493V42.5H48.6451ZM57.9951 42.5H59.891V40.6042H57.9951V42.5ZM57.9951 63V64.8958H59.891V63H57.9951ZM31.741 56.3V49.85H27.9493V56.3H31.741ZM31.3847 50.9563L47.0847 29.1063L44.0055 26.8937L28.3055 48.7437L31.3847 50.9563ZM45.5451 29.8958H55.7951V26.1042H45.5451V29.8958ZM54.2405 26.915L38.9905 48.765L42.0997 50.935L57.3497 29.085L54.2405 26.915ZM41.0863 48.0331L36.3863 46.6331L35.3039 50.2669L40.0039 51.6669L41.0863 48.0331ZM35.8451 50.3458H63.1951V46.5542H35.8451V50.3458ZM61.2993 48.45V56.3H65.091V48.45H61.2993ZM63.1951 54.4042H29.8451V58.1958H63.1951V54.4042ZM50.241 63V56.3H46.4493V63H50.241ZM50.2396 56.3724L50.5396 48.5224L46.7507 48.3776L46.4507 56.2276L50.2396 56.3724ZM50.541 48.45V42.5H46.7493V48.45H50.541ZM48.6451 44.3958H57.9951V40.6042H48.6451V44.3958ZM56.0993 42.5V63H59.891V42.5H56.0993ZM57.9951 61.1042H48.3451V64.8958H57.9951V61.1042Z" fill="#2B2D54"/>
</svg>
