<svg width="92" height="91" viewBox="0 0 92 91" fill="none" xmlns="http://www.w3.org/2000/svg">
<path d="M91.5 45.5C91.5 70.629 71.129 91 46 91C20.871 91 0.5 70.629 0.5 45.5C0.5 20.371 20.871 0 46 0C71.129 0 91.5 20.371 91.5 45.5Z" fill="#81F4E1"/>
<path fill-rule="evenodd" clip-rule="evenodd" d="M46 89.1042C70.0819 89.1042 89.6042 69.5819 89.6042 45.5C89.6042 21.4181 70.0819 1.89583 46 1.89583C21.9181 1.89583 2.39583 21.4181 2.39583 45.5C2.39583 69.5819 21.9181 89.1042 46 89.1042ZM46 91C71.129 91 91.5 70.629 91.5 45.5C91.5 20.371 71.129 0 46 0C20.871 0 0.5 20.371 0.5 45.5C0.5 70.629 20.871 91 46 91Z" fill="#2B2D54"/>
<path d="M42.6682 63V31.55L46.9182 35.65H36.1682V28H52.5682V63H42.6682Z" fill="#FFD656"/>
<path fill-rule="evenodd" clip-rule="evenodd" d="M40.7723 64.8957V37.5457H34.2723V26.104H54.464V64.8957H40.7723ZM42.6682 35.6498V62.9998H52.5682V27.9998H36.1682V35.6498H42.6682Z" fill="#2B2D54"/>
</svg>
