<svg width="92" height="91" viewBox="0 0 92 91" fill="none" xmlns="http://www.w3.org/2000/svg">
<circle cx="46" cy="45.5" r="44.5521" fill="#81F4E1" stroke="#2B2D54" stroke-width="1.89583"/>
<path d="M44.3365 63.7C41.9032 63.7 39.4699 63.4 37.0365 62.8C34.6365 62.2 32.5365 61.35 30.7365 60.25L34.3365 52.8C35.7365 53.7333 37.2865 54.45 38.9865 54.95C40.7199 55.45 42.4032 55.7 44.0365 55.7C45.7365 55.7 47.0865 55.3833 48.0865 54.75C49.0865 54.1167 49.5865 53.2167 49.5865 52.05C49.5865 51.0167 49.1699 50.2 48.3365 49.6C47.5032 48.9667 46.1365 48.65 44.2365 48.65H40.0865V42.4L49.4865 32.25L50.4365 35.65H32.5365V28H57.8365V34.2L48.4365 44.35L43.5865 41.6H46.2865C50.6532 41.6 53.9532 42.5833 56.1865 44.55C58.4532 46.4833 59.5865 48.9833 59.5865 52.05C59.5865 54.05 59.0365 55.9333 57.9365 57.7C56.8699 59.4667 55.2199 60.9167 52.9865 62.05C50.7532 63.15 47.8699 63.7 44.3365 63.7Z" fill="#FFD656"/>
<path d="M37.0365 62.8L36.5767 64.6392L36.5827 64.6407L37.0365 62.8ZM30.7365 60.25L29.0295 59.4251L28.2821 60.9719L29.7479 61.8677L30.7365 60.25ZM34.3365 52.8L35.3881 51.2226L33.5767 50.015L32.6295 51.9751L34.3365 52.8ZM38.9865 54.95L38.4516 56.7688L38.4611 56.7716L38.9865 54.95ZM48.0865 54.75L49.1009 56.3516L49.1009 56.3516L48.0865 54.75ZM48.3365 49.6L47.1894 51.1094L47.2089 51.1242L47.2288 51.1385L48.3365 49.6ZM40.0865 48.65H38.1907V50.5458H40.0865V48.65ZM40.0865 42.4L38.6956 41.1118L38.1907 41.657V42.4H40.0865ZM49.4865 32.25L51.3124 31.7398L50.3998 28.4737L48.0956 30.9618L49.4865 32.25ZM50.4365 35.65V37.5458H52.9347L52.2624 35.1398L50.4365 35.65ZM32.5365 35.65H30.6407V37.5458H32.5365V35.65ZM32.5365 28V26.1042H30.6407V28H32.5365ZM57.8365 28H59.7324V26.1042H57.8365V28ZM57.8365 34.2L59.2275 35.4882L59.7324 34.943V34.2H57.8365ZM48.4365 44.35L47.5014 45.9992L48.8074 46.7397L49.8275 45.6382L48.4365 44.35ZM43.5865 41.6V39.7042H36.3993L42.6514 43.2492L43.5865 41.6ZM56.1865 44.55L54.9336 45.9728L54.9448 45.9827L54.9562 45.9924L56.1865 44.55ZM57.9365 57.7L56.3272 56.6979L56.3203 56.709L56.3136 56.7201L57.9365 57.7ZM52.9865 62.05L53.8242 63.7507L53.8344 63.7457L53.8444 63.7406L52.9865 62.05ZM44.3365 61.8042C42.0607 61.8042 39.7797 61.5238 37.4904 60.9593L36.5827 64.6407C39.16 65.2762 41.7457 65.5958 44.3365 65.5958V61.8042ZM37.4963 60.9608C35.2514 60.3995 33.3356 59.6165 31.7251 58.6323L29.7479 61.8677C31.7374 63.0835 34.0216 64.0005 36.5767 64.6392L37.4963 60.9608ZM32.4435 61.0749L36.0435 53.6249L32.6295 51.9751L29.0295 59.4251L32.4435 61.0749ZM33.2849 54.3774C34.8522 55.4223 36.578 56.2177 38.4516 56.7688L39.5215 53.1312C37.9951 52.6823 36.6208 52.0443 35.3881 51.2226L33.2849 54.3774ZM38.4611 56.7716C40.3476 57.3157 42.208 57.5958 44.0365 57.5958V53.8042C42.5984 53.8042 41.0921 53.5843 39.512 53.1284L38.4611 56.7716ZM44.0365 57.5958C45.947 57.5958 47.6925 57.2436 49.1009 56.3516L47.0722 53.1484C46.4806 53.523 45.5261 53.8042 44.0365 53.8042V57.5958ZM49.1009 56.3516C50.64 55.3769 51.4824 53.8778 51.4824 52.05H47.6907C47.6907 52.5556 47.5331 52.8564 47.0722 53.1484L49.1009 56.3516ZM51.4824 52.05C51.4824 50.4115 50.7761 49.0204 49.4443 48.0615L47.2288 51.1385C47.5636 51.3796 47.6907 51.6218 47.6907 52.05H51.4824ZM49.4837 48.0906C48.144 47.0725 46.2545 46.7542 44.2365 46.7542V50.5458C46.0186 50.5458 46.8623 50.8608 47.1894 51.1094L49.4837 48.0906ZM44.2365 46.7542H40.0865V50.5458H44.2365V46.7542ZM41.9824 48.65V42.4H38.1907V48.65H41.9824ZM41.4775 43.6882L50.8775 33.5382L48.0956 30.9618L38.6956 41.1118L41.4775 43.6882ZM47.6606 32.7602L48.6106 36.1602L52.2624 35.1398L51.3124 31.7398L47.6606 32.7602ZM50.4365 33.7542H32.5365V37.5458H50.4365V33.7542ZM34.4324 35.65V28H30.6407V35.65H34.4324ZM32.5365 29.8958H57.8365V26.1042H32.5365V29.8958ZM55.9407 28V34.2H59.7324V28H55.9407ZM56.4456 32.9118L47.0456 43.0618L49.8275 45.6382L59.2275 35.4882L56.4456 32.9118ZM49.3716 42.7008L44.5216 39.9508L42.6514 43.2492L47.5014 45.9992L49.3716 42.7008ZM43.5865 43.4958H46.2865V39.7042H43.5865V43.4958ZM46.2865 43.4958C50.4029 43.4958 53.1774 44.4263 54.9336 45.9728L57.4394 43.1272C54.729 40.7403 50.9035 39.7042 46.2865 39.7042V43.4958ZM54.9562 45.9924C56.7866 47.5536 57.6907 49.5197 57.6907 52.05H61.4824C61.4824 48.447 60.1198 45.4131 57.4168 43.1076L54.9562 45.9924ZM57.6907 52.05C57.6907 53.681 57.2479 55.2192 56.3272 56.6979L59.5459 58.7021C60.8251 56.6475 61.4824 54.419 61.4824 52.05H57.6907ZM56.3136 56.7201C55.4661 58.1237 54.1133 59.3522 52.1286 60.3594L53.8444 63.7406C56.3264 62.4811 58.2736 60.8096 59.5595 58.6799L56.3136 56.7201ZM52.1489 60.3493C50.2619 61.2787 47.6931 61.8042 44.3365 61.8042V65.5958C48.0466 65.5958 51.2445 65.0213 53.8242 63.7507L52.1489 60.3493Z" fill="#2B2D54"/>
</svg>
