<svg width="48" height="48" viewBox="0 0 48 48" fill="none" xmlns="http://www.w3.org/2000/svg">
<circle cx="24" cy="24" r="23.5" fill="#81F4E1" stroke="#2B2D54"/>
<path d="M22.1342 34V16.388L24.5142 18.684H18.4942V14.4H27.6782V34H22.1342Z" fill="#FFD656"/>
<path d="M22.1342 34H21.1342V35H22.1342V34ZM22.1342 16.388L22.8285 15.6683L21.1342 14.0338V16.388H22.1342ZM24.5142 18.684V19.684H26.9911L25.2085 17.9643L24.5142 18.684ZM18.4942 18.684H17.4942V19.684H18.4942V18.684ZM18.4942 14.4V13.4H17.4942V14.4H18.4942ZM27.6782 14.4H28.6782V13.4H27.6782V14.4ZM27.6782 34V35H28.6782V34H27.6782ZM23.1342 34V16.388H21.1342V34H23.1342ZM21.4399 17.1077L23.8199 19.4037L25.2085 17.9643L22.8285 15.6683L21.4399 17.1077ZM24.5142 17.684H18.4942V19.684H24.5142V17.684ZM19.4942 18.684V14.4H17.4942V18.684H19.4942ZM18.4942 15.4H27.6782V13.4H18.4942V15.4ZM26.6782 14.4V34H28.6782V14.4H26.6782ZM27.6782 33H22.1342V35H27.6782V33Z" fill="#2B2D54"/>
</svg>
