<svg width="583" height="251" viewBox="0 0 583 251" fill="none" xmlns="http://www.w3.org/2000/svg">
<path opacity="0.15" d="M0.643078 245.749L86.1138 133.504L84.7408 170.576L2.70261 59.7044H76.1594L122.156 125.266L94.6952 126.639L143.438 59.7044H212.432L130.394 168.173V132.475L214.835 245.749H140.348L92.2924 175.725L119.753 179.501L71.3538 245.749H0.643078ZM266.235 245.749V29.8411L295.411 57.9881H221.611V5.46995H334.199V245.749H266.235ZM476.401 250.555C455.806 250.555 437.499 245.635 421.48 235.795C405.69 225.955 393.219 211.767 384.065 193.231C374.912 174.695 370.335 152.155 370.335 125.609C370.335 99.0644 374.912 76.5239 384.065 57.9881C393.219 39.4523 405.69 25.2644 421.48 15.4244C437.499 5.58437 455.806 0.664368 476.401 0.664368C496.768 0.664368 514.846 5.58437 530.635 15.4244C546.654 25.2644 559.24 39.4523 568.394 57.9881C577.547 76.5239 582.124 99.0644 582.124 125.609C582.124 152.155 577.547 174.695 568.394 193.231C559.24 211.767 546.654 225.955 530.635 235.795C514.846 245.635 496.768 250.555 476.401 250.555ZM476.401 194.947C483.724 194.947 490.131 192.659 495.623 188.082C501.344 183.505 505.807 176.183 509.01 166.114C512.214 155.816 513.816 142.315 513.816 125.609C513.816 108.676 512.214 95.1741 509.01 85.1053C505.807 75.0365 501.344 67.7137 495.623 63.1369C490.131 58.5602 483.724 56.2718 476.401 56.2718C469.078 56.2718 462.556 58.5602 456.835 63.1369C451.343 67.7137 446.881 75.0365 443.448 85.1053C440.245 95.1741 438.643 108.676 438.643 125.609C438.643 142.315 440.245 155.816 443.448 166.114C446.881 176.183 451.343 183.505 456.835 188.082C462.556 192.659 469.078 194.947 476.401 194.947Z" fill="white"/>
</svg>
