<svg width="53" height="54" viewBox="0 0 53 54" fill="none" xmlns="http://www.w3.org/2000/svg">
<path fill-rule="evenodd" clip-rule="evenodd" d="M52.92 27.6137C52.92 25.6991 52.7482 23.8582 52.4291 22.0909H27V32.535H41.5309C40.905 35.91 39.0027 38.7696 36.1432 40.6841V47.4587H44.8691C49.9745 42.7582 52.92 35.8364 52.92 27.6137Z" fill="#9EBCED"/>
<path fill-rule="evenodd" clip-rule="evenodd" d="M27 53.9999C34.29 53.9999 40.4018 51.5822 44.8691 47.4585L36.1432 40.684C33.7255 42.304 30.6327 43.2612 27 43.2612C19.9677 43.2612 14.0155 38.5117 11.8923 32.1299H2.87183V39.1253C7.31455 47.9494 16.4455 53.9999 27 53.9999Z" fill="#34A853"/>
<path fill-rule="evenodd" clip-rule="evenodd" d="M11.8923 32.1301C11.3523 30.5101 11.0455 28.7796 11.0455 27.0001C11.0455 25.2205 11.3523 23.4901 11.8923 21.8701V14.8746H2.87182C1.04318 18.5196 0 22.6433 0 27.0001C0 31.3569 1.04318 35.4805 2.87182 39.1255L11.8923 32.1301Z" fill="#FBBC05"/>
<path fill-rule="evenodd" clip-rule="evenodd" d="M27 10.7386C30.9641 10.7386 34.5232 12.1009 37.3214 14.7764L45.0655 7.03227C40.3896 2.67545 34.2777 0 27 0C16.4455 0 7.31455 6.05046 2.87183 14.8745L11.8923 21.87C14.0155 15.4882 19.9677 10.7386 27 10.7386Z" fill="#EA4335"/>
</svg>
