<svg width="406" height="838" viewBox="0 0 406 838" fill="none" xmlns="http://www.w3.org/2000/svg">
<path d="M83.3809 171.569L222.056 528.054C224.944 538.703 272.562 546.064 323.008 532.379C373.454 518.694 407.638 489.175 404.75 478.526L344.35 100.846L83.3809 171.569Z" fill="#4B73F3" stroke="#2B2D54" stroke-miterlimit="10"/>
<path d="M343.943 101.417L377.012 308.255L215.896 510.831L138.528 311.931L295.525 114.543L343.943 101.417Z" fill="white" stroke="#2B2D54"/>
<path d="M349.769 283.76L349.615 284.122L349.931 284.357L362.28 293.522L353.072 305.828L352.837 306.143L353.087 306.446L362.868 318.292L350.964 328.016L350.66 328.265L350.83 328.62L357.485 342.475L343.601 349.072L343.246 349.241L343.327 349.626L346.468 364.657L331.422 367.755L331.037 367.834L331.023 368.228L330.493 383.589L315.132 383.001L314.739 382.985L314.631 383.363L310.429 398.135L295.671 393.862L295.294 393.752L295.098 394.094L287.468 407.433L274.143 399.773L273.801 399.577L273.53 399.863L262.961 411.021L251.86 400.379L251.576 400.107L251.245 400.319L238.294 408.594L230.076 395.6L229.865 395.267L229.493 395.394L214.935 400.328L210.058 385.756L209.933 385.382L209.541 385.416L194.223 386.736L192.961 371.418L192.929 371.025L192.54 370.965L177.352 368.598L179.819 353.425L179.882 353.037L179.519 352.884L165.349 346.918L171.373 332.761L171.527 332.398L171.211 332.164L158.876 323.013L168.084 310.707L168.32 310.393L168.069 310.09L158.274 298.228L170.177 288.505L170.482 288.256L170.312 287.901L163.671 274.047L177.555 267.464L177.911 267.295L177.83 266.909L174.675 251.864L189.734 248.766L190.12 248.686L190.133 248.293L190.65 232.932L206.01 233.52L206.403 233.535L206.51 233.158L210.727 218.385L225.485 222.659L225.863 222.769L226.058 222.427L233.689 209.088L247.014 216.747L247.355 216.943L247.626 216.658L258.196 205.514L269.297 216.142L269.581 216.414L269.912 216.202L282.863 207.926L291.081 220.921L291.292 221.253L291.664 221.127L306.208 216.193L311.098 230.765L311.224 231.138L311.615 231.105L326.919 229.785L328.196 245.103L328.228 245.495L328.617 245.556L343.79 247.937L341.338 263.096L341.275 263.484L341.637 263.636L355.793 269.617L349.769 283.76Z" fill="#2B2D54" stroke="#2B2D54"/>
<path d="M284.885 225.919C330.346 239.351 356.311 287.094 342.88 332.555C329.448 378.017 281.705 403.982 236.244 390.551C190.782 377.119 164.817 329.376 178.249 283.915C191.68 238.453 239.423 212.488 284.885 225.919Z" fill="white" stroke="#2B2D54"/>
<path d="M279.657 378.633C265.738 382.407 251.012 381.969 237.341 377.374C223.67 372.779 211.669 364.234 202.855 352.818C194.042 341.402 188.811 327.629 187.825 313.241C186.839 298.852 190.142 284.495 197.317 271.984C204.491 259.472 215.214 249.37 228.13 242.953C241.046 236.536 255.575 234.094 269.879 235.935C284.184 237.775 297.621 243.816 308.492 253.294C319.362 262.772 327.178 275.26 330.951 289.18C335.99 307.844 333.419 327.744 323.802 344.514C314.186 361.284 298.31 373.554 279.657 378.633Z" fill="#2B2D54" stroke="#2B2D54"/>
<path d="M83.3809 171.569L222.056 528.054C224.944 538.703 272.562 546.064 323.008 532.379C373.454 518.694 407.638 489.175 404.75 478.526L344.35 100.846L83.3809 171.569Z" stroke="#2B2D54" stroke-miterlimit="10"/>
<path d="M306.208 296.918L306.214 296.926L306.22 296.933C306.473 297.222 312.94 305.433 306.766 316.727C305.247 319.441 303.184 321.812 300.706 323.691C298.228 325.571 295.388 326.919 292.364 327.651L292.364 327.65L292.356 327.653C291.562 327.858 290.82 328.033 290.11 328.163L289.907 328.201L289.789 328.371C287.512 331.673 284.771 334.631 281.651 337.153L281.032 337.653L281.752 337.994C282.13 338.172 282.468 338.425 282.746 338.736C283.021 339.043 283.232 339.401 283.368 339.79C283.567 340.556 283.365 341.45 282.711 342.451C282.053 343.459 280.965 344.523 279.507 345.575C276.594 347.675 272.291 349.66 267.291 351.011C262.29 352.362 257.575 352.822 254.005 352.484C252.218 352.315 250.746 351.949 249.673 351.416C248.607 350.886 247.988 350.221 247.78 349.466C247.697 349.062 247.696 348.645 247.776 348.239C247.857 347.829 248.02 347.44 248.255 347.094L248.7 346.439L247.917 346.319C232.852 344.006 220.082 333.676 216.036 318.794C215.676 317.436 215.39 316.059 215.179 314.67L293.93 293.337C294.438 294.635 294.871 295.961 295.227 297.309L295.227 297.309L295.229 297.319C295.27 297.462 295.305 297.607 295.342 297.764L295.343 297.768C295.38 297.921 295.419 298.086 295.466 298.252L295.602 298.727L296.078 298.597L304.414 296.332C304.414 296.332 304.415 296.332 304.415 296.332C304.739 296.246 305.08 296.256 305.397 296.36C305.716 296.464 305.997 296.658 306.208 296.918ZM292.86 322.9L292.347 323.974L293.473 323.589C297.724 322.133 301.307 319.197 303.568 315.321H303.605L303.747 315.061C307.524 308.147 305.611 302.673 304.308 300.33L304.118 299.989L303.741 300.091L296.602 302.016L296.185 302.128L296.236 302.557C297.052 309.521 295.881 316.573 292.86 322.9Z" fill="#4B73F3" stroke="#2B2D54"/>
<path d="M230.202 306.6L230.179 306.604L230.157 306.61C229.963 306.664 229.758 306.657 229.569 306.591C229.383 306.525 229.222 306.406 229.105 306.249C226.388 301.933 225.154 296.849 225.59 291.767C226.079 287.375 227.194 283.075 228.9 278.998C230.052 276.317 230.855 273.499 231.289 270.613L231.292 270.595L231.293 270.577C231.507 267.801 230.892 264.834 230.234 262.577C229.603 260.414 228.919 258.857 228.835 258.675L228.835 258.675C228.782 258.558 228.752 258.431 228.747 258.302C228.743 258.173 228.764 258.045 228.809 257.924C228.854 257.804 228.922 257.693 229.01 257.599C229.098 257.504 229.204 257.428 229.321 257.375C229.438 257.321 229.565 257.292 229.694 257.287C229.822 257.282 229.951 257.303 230.071 257.348C230.192 257.394 230.303 257.462 230.397 257.55C230.491 257.637 230.567 257.742 230.62 257.859C232.431 261.906 233.327 266.303 233.242 270.736C232.813 273.802 231.98 276.797 230.764 279.644L230.764 279.645C229.111 283.544 228.026 287.661 227.543 291.869L227.543 291.869L227.542 291.882C227.132 296.515 228.216 301.157 230.634 305.13L230.644 305.147L230.656 305.163C230.732 305.268 230.786 305.387 230.816 305.513C230.845 305.639 230.85 305.769 230.829 305.897C230.808 306.025 230.762 306.147 230.693 306.257C230.631 306.357 230.551 306.445 230.457 306.517C230.376 306.556 230.291 306.584 230.202 306.6Z" fill="#4B73F3" stroke="#2B2D54"/>
<path d="M252.615 264.834L252.618 264.816L252.62 264.798C252.834 262.014 252.219 259.047 251.56 256.792C250.927 254.623 250.24 253.066 250.161 252.894L250.161 252.894C250.107 252.776 250.076 252.65 250.071 252.52C250.066 252.391 250.086 252.262 250.131 252.141C250.176 252.02 250.244 251.908 250.331 251.813C250.419 251.718 250.525 251.642 250.642 251.587L250.433 251.133L250.642 251.587C250.759 251.533 250.886 251.503 251.015 251.498C251.145 251.492 251.274 251.513 251.395 251.558C251.516 251.602 251.627 251.67 251.722 251.758C251.816 251.844 251.892 251.948 251.946 252.063C251.95 252.074 251.957 252.09 251.966 252.11C252.277 252.826 255.026 259.141 254.571 264.927C254.14 267.998 253.306 270.998 252.091 273.85L252.09 273.85C250.429 277.752 249.344 281.876 248.869 286.091L248.868 286.098L248.868 286.105C248.487 290.709 249.586 295.314 252.006 299.25L252.014 299.263L252.023 299.275C252.172 299.487 252.231 299.75 252.186 300.005C252.142 300.261 251.999 300.489 251.787 300.639L251.766 300.654L251.746 300.671C251.664 300.744 251.567 300.799 251.463 300.833C251.274 300.882 251.074 300.873 250.89 300.807C250.707 300.742 250.547 300.624 250.431 300.469C247.709 296.155 246.47 291.071 246.902 285.988C247.392 281.595 248.512 277.295 250.226 273.22C251.379 270.538 252.182 267.72 252.615 264.834Z" fill="#4B73F3" stroke="#2B2D54"/>
<path d="M275.011 258.732L275.014 258.715L275.015 258.699C275.237 255.921 274.622 252.957 273.962 250.702C273.63 249.569 273.284 248.605 273.019 247.919C272.763 247.257 272.557 246.791 272.567 246.817L272.563 246.807L272.559 246.798C272.453 246.561 272.445 246.292 272.537 246.049C272.629 245.806 272.813 245.61 273.049 245.503L273.05 245.503C273.285 245.396 273.554 245.387 273.796 245.477C274.038 245.566 274.234 245.747 274.343 245.981C276.154 250.028 277.054 254.424 276.98 258.857C276.549 261.923 275.711 264.918 274.487 267.762L274.486 267.765C272.836 271.67 271.756 275.792 271.28 280.004L271.279 280.012L271.278 280.019C270.899 284.621 271.993 289.224 274.401 293.163L274.41 293.177L274.42 293.191C274.57 293.402 274.631 293.664 274.588 293.92C274.546 294.175 274.405 294.403 274.195 294.555L274.185 294.562L274.177 294.569C274.086 294.641 273.983 294.696 273.873 294.732C273.684 294.781 273.485 294.772 273.301 294.706C273.117 294.641 272.958 294.523 272.842 294.367C270.105 290.06 268.864 284.971 269.312 279.888C269.797 275.498 270.917 271.202 272.637 267.133C273.784 264.446 274.581 261.622 275.011 258.732Z" fill="#4B73F3" stroke="#2B2D54"/>
<path d="M65.3922 162.902L68.2972 173.586L68.2973 173.587C68.8641 175.68 70.375 177.509 72.8205 179.06C75.2691 180.614 78.6242 181.868 82.8063 182.812C91.1695 184.699 102.733 185.321 116.685 184.7C144.582 183.458 181.916 177.249 222.044 166.363C262.172 155.476 297.53 141.973 322.236 128.953C334.593 122.442 344.26 116.064 350.527 110.211C353.661 107.284 355.924 104.507 357.254 101.93C358.583 99.3557 358.964 97.014 358.398 94.921L358.397 94.9205M65.3922 162.902L358.397 94.9205M65.3922 162.902L355.492 84.2357M65.3922 162.902L355.492 84.2357M358.397 94.9205L355.492 84.2357M358.397 94.9205L355.492 84.2357" fill="#2B2D54" stroke="#2B2D54"/>
<path d="M219.148 155.68C299.526 133.887 360.728 101.628 355.848 83.628C350.967 65.6277 281.852 68.7023 201.475 90.4951C121.097 112.288 59.8951 144.547 64.7755 162.547C69.656 180.547 138.771 177.473 219.148 155.68Z" fill="#8A8A8A" stroke="#2B2D54" stroke-miterlimit="10"/>
<path d="M66.2067 155.487L63.375 145.01L348.217 67.7808L351.049 78.2578L351.532 78.1274L351.049 78.258C351.605 80.3106 351.232 82.6074 349.93 85.133C348.626 87.662 346.406 90.387 343.332 93.2594C337.184 99.0034 327.698 105.263 315.569 111.654C291.318 124.433 256.601 137.688 217.169 148.382C177.737 159.076 141.08 165.174 113.697 166.394C100.001 167.004 88.6527 166.392 80.4453 164.539C76.3411 163.613 73.0489 162.381 70.6462 160.857C68.2468 159.334 66.7644 157.54 66.2068 155.488L66.2067 155.487Z" fill="#2B2D54" stroke="#2B2D54"/>
<path d="M214.334 137.921C293.259 116.522 353.355 84.8452 348.562 67.1686C343.769 49.4921 275.903 52.5097 196.978 73.9087C118.053 95.3077 57.9575 126.985 62.7502 144.661C67.5428 162.338 135.409 159.32 214.334 137.921Z" fill="#8A8A8A" stroke="#2B2D54" stroke-miterlimit="10"/>
<path d="M77.2281 136.959L66.4729 97.2745L321.427 28.191L332.182 67.8758L332.664 67.745L332.182 67.876C332.652 69.6087 332.308 71.5687 331.128 73.7488C329.946 75.9316 327.946 78.2962 325.177 80.7991C319.641 85.8039 311.12 91.2872 300.234 96.9098C278.47 108.151 247.354 119.9 212.046 129.469C176.738 139.037 143.95 144.617 119.486 145.907C107.25 146.552 97.124 146.122 89.8153 144.595C86.1601 143.832 83.2372 142.799 81.1125 141.509C78.9906 140.22 77.7006 138.698 77.2281 136.959L77.2281 136.959Z" fill="#2B2D54" stroke="#2B2D54"/>
<path d="M201.278 89.7847C271.944 70.6247 325.887 42.7596 321.762 27.5463C317.637 12.3329 257.007 15.5323 186.34 34.6923C115.674 53.8523 61.7307 81.7174 65.8555 96.9307C69.9803 112.144 130.611 108.945 201.278 89.7847Z" fill="#8A8A8A" stroke="#2B2D54" stroke-miterlimit="10"/>
<path d="M299.938 33.4552C300.324 34.8776 300.046 36.4929 299.07 38.3008C298.093 40.1115 296.436 42.077 294.135 44.1611C289.534 48.3282 282.445 52.8946 273.382 57.5775C255.261 66.9397 229.344 76.7183 199.916 84.6802C170.488 92.6422 143.172 97.2923 122.798 98.3674C112.607 98.9052 104.18 98.5469 98.1027 97.2744C95.0633 96.638 92.6393 95.7784 90.8813 94.7078C89.1261 93.6389 88.0701 92.3829 87.6845 90.9568C87.2988 89.5304 87.5769 87.912 88.5524 86.1022C89.5295 84.2896 91.1872 82.3228 93.4883 80.238C98.0893 76.0696 105.178 71.5042 114.243 66.8231C132.365 57.4647 158.286 47.6934 187.721 39.7315C217.157 31.7695 244.469 27.1268 264.838 26.0554C275.026 25.5195 283.45 25.8787 289.524 27.1498C292.562 27.7856 294.986 28.6439 296.743 29.7125C298.497 30.7796 299.553 32.033 299.938 33.4552Z" fill="#2B2D54" stroke="#2B2D54"/>
<path d="M200.04 85.1974C258.209 69.4259 303.01 47.9558 300.105 37.2425C297.2 26.5292 247.69 30.6296 189.521 46.4012C131.352 62.1727 86.5513 83.6429 89.456 94.3561C92.3607 105.069 141.871 100.969 200.04 85.1974Z" fill="#8A8A8A" stroke="#2B2D54" stroke-miterlimit="10"/>
<path d="M256.407 38.772L256.407 38.7733C256.537 39.2507 256.47 39.8084 256.153 40.4625C255.834 41.1205 255.275 41.8481 254.471 42.631C252.863 44.1966 250.352 45.9107 247.11 47.6646C240.632 51.1683 231.332 54.777 220.768 57.6508C210.204 60.5244 200.354 62.1081 192.99 62.3527C189.304 62.4751 186.269 62.2609 184.087 61.7198C182.997 61.4492 182.145 61.103 181.535 60.6954C180.93 60.2901 180.589 59.8421 180.459 59.3645C180.329 58.8871 180.396 58.3295 180.713 57.6754C181.032 57.0174 181.591 56.2898 182.396 55.5069C184.004 53.9413 186.515 52.2271 189.758 50.4733C196.238 46.9696 205.542 43.3608 216.113 40.4871C226.684 37.6135 236.535 36.0298 243.895 35.7852C247.579 35.6627 250.611 35.877 252.789 36.418C253.878 36.6885 254.729 37.0347 255.336 37.4421C255.939 37.8471 256.279 38.2947 256.407 38.772Z" fill="#2B2D54" stroke="#2B2D54"/>
<path d="M65.8882 377.351L7.00631 755.309C4.18147 766.014 41.6081 796.2 92.1581 809.686C142.708 823.172 187.03 814.764 189.878 804.107L327.147 447.068L65.8882 377.351Z" fill="#F08300" stroke="#2B2D54" stroke-miterlimit="10"/>
<path d="M278.151 573.128C220.317 602.892 137.725 633.219 23.7831 650.878L35.5706 574.831C105.525 562.381 182.17 541.377 249.291 506.005L249.058 505.562L249.292 506.004C286.066 486.615 309.764 468.193 323.082 456.291L278.151 573.128Z" fill="#2B2D54" stroke="#2B2D54"/>
<path d="M92.2912 809.205L92.289 809.204C68.4656 802.841 47.5052 792.725 32.357 782.714C24.7822 777.708 18.6719 772.735 14.3863 768.281C12.2434 766.054 10.5645 763.964 9.38706 762.072C8.33048 760.374 7.693 758.86 7.46983 757.565C71.2835 744.762 139.18 724.609 199.418 692.878C214.054 685.213 228.235 676.709 241.891 667.411L201.257 773.117C167.911 788.131 133.514 800.695 98.3414 810.709C96.3309 810.247 94.3131 809.755 92.2912 809.205Z" fill="#2B2D54" stroke="#2B2D54"/>
<path d="M53.6829 459.288L65.6275 382.683C66.4565 382.514 67.289 382.343 68.1245 382.173C70.7199 381.642 73.3443 381.106 75.9863 380.556L213.957 417.373C169.853 433.59 116.839 448.397 53.6829 459.288Z" fill="#2B2D54" stroke="#2B2D54"/>
<path d="M54.3264 360.188L51.3415 371.363C46.5423 389.381 107.866 421.395 188.328 442.862C268.79 464.329 337.914 467.138 342.728 449.123L345.698 437.945L54.3264 360.188Z" fill="#DEDEDE" stroke="#2B2D54" stroke-miterlimit="10"/>
<path d="M345.714 438.015C350.523 419.995 289.194 387.978 208.732 366.502C128.269 345.025 59.1427 342.223 54.3332 360.242C49.5237 378.262 110.853 410.279 191.315 431.755C271.778 453.232 340.904 456.034 345.714 438.015Z" fill="white" stroke="#2B2D54" stroke-miterlimit="10"/>
<path d="M61.5458 343.73L58.6209 354.704C53.899 372.404 114.185 403.844 193.118 424.918C272.052 445.993 339.999 448.761 344.721 431.061L347.661 420.089L61.5458 343.73Z" fill="#DEDEDE" stroke="#2B2D54" stroke-miterlimit="10"/>
<path d="M347.665 420.108C352.388 402.413 292.168 370.972 213.159 349.884C134.151 328.796 66.2733 326.046 61.5503 343.741C56.8272 361.436 117.047 392.877 196.056 413.965C275.064 435.053 342.942 437.803 347.665 420.108Z" fill="white" stroke="#2B2D54" stroke-miterlimit="10"/>
<path d="M88.1678 304.003L77.4442 344.168C73.389 359.406 127.442 387.057 198.182 405.935C268.922 424.814 329.579 427.768 333.634 412.529L344.429 372.389L88.1678 304.003Z" fill="#DEDEDE" stroke="#2B2D54" stroke-miterlimit="10"/>
<path d="M344.371 372.385C348.436 357.155 294.384 329.503 223.642 310.621C152.9 291.739 92.2578 288.779 88.1929 304.008C84.128 319.238 138.18 346.89 208.922 365.772C279.663 384.653 340.306 387.614 344.371 372.385Z" fill="white" stroke="#2B2D54" stroke-miterlimit="10"/>
<path d="M323.006 366.682C326.394 353.989 281.358 330.947 222.416 315.214C163.474 299.482 112.946 297.018 109.558 309.71C106.17 322.403 151.206 345.446 210.148 361.178C269.09 376.91 319.619 379.375 323.006 366.682Z" fill="#DEDEDE" stroke="#2B2D54" stroke-miterlimit="10"/>
<path d="M320.529 370.086C323.358 359.488 278.523 338.317 220.387 322.8C162.251 307.283 112.829 303.295 110 313.894C107.172 324.492 152.007 345.662 210.143 361.179C268.279 376.696 317.701 380.684 320.529 370.086Z" fill="white" stroke="#2B2D54" stroke-miterlimit="10"/>
<path d="M246.464 330.575C257.067 333.405 266.382 336.976 272.866 340.454C276.112 342.195 278.624 343.9 280.235 345.459C281.88 347.052 282.439 348.347 282.182 349.309C281.925 350.272 280.795 351.117 278.575 351.678C276.402 352.227 273.375 352.453 269.693 352.345C262.337 352.129 252.482 350.584 241.878 347.753C231.275 344.923 221.96 341.352 215.476 337.874C212.23 336.133 209.718 334.428 208.107 332.869C206.462 331.276 205.903 329.981 206.16 329.019C206.417 328.056 207.547 327.211 209.767 326.65C211.94 326.101 214.967 325.875 218.649 325.983C226.005 326.199 235.86 327.744 246.464 330.575Z" fill="#2B2D54" stroke="#2B2D54"/>
<path d="M232.632 586.584C231.473 631.888 193.809 667.675 148.505 666.517C103.201 665.358 67.4142 627.694 68.5724 582.39C69.7305 537.086 107.395 501.299 152.699 502.457C198.003 503.616 233.79 541.28 232.632 586.584Z" fill="white" stroke="#2B2D54"/>
<path d="M192.046 595.579C187.961 610.865 180.755 623.719 171.105 631.812C161.472 639.889 149.385 643.244 135.435 639.52C121.488 635.797 112.898 626.927 108.789 615.186C104.671 603.42 105.045 588.74 109.125 573.44C113.204 558.14 120.194 545.226 129.627 537.078C139.041 528.948 150.909 525.54 164.857 529.263C178.806 532.987 187.617 541.918 191.945 553.722C196.28 565.548 196.124 580.285 192.046 595.579Z" fill="#2B2D54" stroke="#2B2D54"/>
<path d="M146.546 630.158C148.484 622.222 149.662 614.801 148.651 607.409C148.173 603.916 147.39 600.363 146.586 596.717C146.493 596.293 146.399 595.867 146.305 595.44C145.405 591.337 144.518 587.1 144.024 582.637L144.023 582.632C143.798 580.781 143.694 578.896 143.59 576.992C143.571 576.648 143.552 576.302 143.532 575.956C143.543 573.722 143.694 571.49 143.982 569.273L143.982 569.273C144.547 564.897 145.641 560.605 147.239 556.493L147.239 556.493L147.241 556.489C148.854 552.232 151.167 548.275 154.085 544.782C156.954 541.643 160.278 538.541 164.758 537.052C162.453 539.981 160.78 543.364 159.852 546.986C158.731 550.813 157.946 554.731 157.503 558.694L157.503 558.694L157.502 558.7C157.453 559.195 157.402 559.693 157.351 560.193C156.998 563.656 156.635 567.219 156.645 570.598C156.558 574.553 156.752 578.51 157.227 582.438C157.412 584.364 157.663 586.331 157.918 588.334C158.714 594.595 159.557 601.214 158.613 608.068C157.368 616.656 153.075 624.492 146.546 630.158Z" fill="white" stroke="#2B2D54"/>
</svg>
