<svg width="36" height="36" viewBox="0 0 36 36" fill="none" xmlns="http://www.w3.org/2000/svg">
<path d="M28.95 11.88V19.605C28.95 24.225 26.31 26.205 22.35 26.205H9.16499C8.48999 26.205 7.845 26.145 7.245 26.01C6.87 25.95 6.51001 25.845 6.18001 25.725C3.93001 24.885 2.565 22.935 2.565 19.605V11.88C2.565 7.25997 5.20499 5.28003 9.16499 5.28003H22.35C25.71 5.28003 28.125 6.70502 28.77 9.96002C28.875 10.56 28.95 11.175 28.95 11.88Z" stroke="#F08300" stroke-width="1.5" stroke-miterlimit="10" stroke-linecap="round" stroke-linejoin="round"/>
<path d="M33.4516 16.3802V24.1052C33.4516 28.7252 30.8117 30.7051 26.8517 30.7051H13.6666C12.5566 30.7051 11.5517 30.5552 10.6817 30.2252C8.89666 29.5652 7.68164 28.2002 7.24664 26.0102C7.84664 26.1452 8.49164 26.2051 9.16664 26.2051H22.3517C26.3117 26.2051 28.9516 24.2252 28.9516 19.6052V11.8802C28.9516 11.1752 28.8917 10.5452 28.7717 9.96021C31.6217 10.5602 33.4516 12.5702 33.4516 16.3802Z" stroke="#F08300" stroke-width="1.5" stroke-miterlimit="10" stroke-linecap="round" stroke-linejoin="round"/>
<path d="M15.7477 19.7098C17.9347 19.7098 19.7077 17.9369 19.7077 15.7498C19.7077 13.5628 17.9347 11.7898 15.7477 11.7898C13.5606 11.7898 11.7877 13.5628 11.7877 15.7498C11.7877 17.9369 13.5606 19.7098 15.7477 19.7098Z" stroke="#F08300" stroke-width="1.5" stroke-miterlimit="10" stroke-linecap="round" stroke-linejoin="round"/>
<path d="M7.17001 12.45V19.05" stroke="#F08300" stroke-width="1.5" stroke-miterlimit="10" stroke-linecap="round" stroke-linejoin="round"/>
<path d="M24.3326 12.4504V19.0505" stroke="#F08300" stroke-width="1.5" stroke-miterlimit="10" stroke-linecap="round" stroke-linejoin="round"/>
</svg>
