<svg width="44" height="44" viewBox="0 0 44 44" fill="none" xmlns="http://www.w3.org/2000/svg">
<g clip-path="url(#clip0_401_1139)">
<path d="M33.2174 5.96943C33.4727 6.61795 34.0259 7.08492 34.2937 7.72467C34.0497 8.2217 34.171 8.67491 34.4026 9.1494C35.1497 10.683 35.5214 12.3081 35.6277 14.0158C35.7717 16.3431 35.3637 18.5491 34.39 20.6549C33.8031 21.9219 33.0898 23.125 32.0836 24.1003C30.2452 25.883 28.945 27.9638 28.3142 30.4564C28.1528 31.0912 28.1115 31.1024 27.4332 31.1024C23.8127 31.1037 20.1935 31.1037 16.573 31.1024C15.8647 31.1024 15.7896 31.0549 15.6082 30.355C15.0137 28.0627 13.8273 26.1447 12.1804 24.437C9.6187 21.7804 8.2884 18.5791 8.29215 14.842C8.29591 10.9948 9.72382 7.74596 12.4057 5.05801C14.5695 2.88962 17.2326 1.64142 20.2761 1.2771C22.8378 0.970371 25.3195 1.32718 27.661 2.44017C28.2179 2.70433 28.7184 2.9422 29.2841 2.5228C29.4856 2.92092 29.9524 2.97726 30.244 3.27147C30.478 3.50683 30.7896 3.66583 31.0662 3.85738C30.9135 4.37194 31.115 4.75003 31.5104 5.06928C31.6894 5.2145 31.8709 5.37475 31.9985 5.56505C32.3076 6.02327 32.6956 6.18352 33.2187 5.97068L33.2174 5.96943Z" fill="#FFD656"/>
<path d="M29.2829 2.52145C28.9049 3.03725 28.7297 3.07481 28.1365 2.78311C26.4521 1.95556 24.6875 1.48733 22.8016 1.35587C20.3712 1.18561 18.0923 1.65634 15.9261 2.69922C14.4518 3.40908 13.1428 4.38436 12.0353 5.59375C10.2982 7.49296 9.1469 9.72145 8.63506 12.2379C8.35473 13.6138 8.35724 15.0235 8.50616 16.4357C8.78023 19.0523 9.83896 21.3258 11.3945 23.3978C11.6348 23.7183 11.9051 24.0238 12.198 24.298C13.8724 25.8667 15 27.7596 15.637 29.9606C15.9286 30.9709 15.9498 30.9646 17.0048 30.9646C20.5314 30.9646 24.0593 30.9571 27.5859 30.9759C27.9513 30.9784 28.099 30.8707 28.1803 30.539C28.5382 29.0729 29.0951 27.6908 29.9449 26.4338C30.3591 25.8191 30.7934 25.2132 31.3277 24.7061C33.1924 22.9371 34.4314 20.8025 35.1046 18.3362C35.3512 17.4347 35.4488 16.507 35.5051 15.5668C35.5902 14.1609 35.44 12.7912 35.1134 11.4329C34.8994 10.5402 34.554 9.69265 34.1498 8.86761C33.9533 8.46573 33.8156 8.05009 34.2949 7.72458C34.9745 7.59062 35.2398 8.0263 35.4713 8.54962C36.0345 9.82411 36.4475 11.1462 36.6865 12.5133C36.7641 12.9603 36.7891 13.4297 36.8154 13.8917C36.8617 14.6917 36.8504 15.4917 36.7841 16.2804C36.674 17.6075 36.3561 18.897 35.883 20.1515C35.0633 22.3274 33.7468 24.149 32.1212 25.7891C30.7896 27.1311 29.9899 28.7925 29.4931 30.6091C29.3229 31.2313 29.1953 31.8448 29.2015 32.502C29.2265 34.9371 29.199 37.3734 29.219 39.8085C29.2253 40.5909 28.9525 40.9828 28.1428 40.8901C27.6772 40.8363 27.512 40.9853 27.4007 41.4698C27.2655 42.057 27.1541 42.6767 26.7975 43.205C26.4546 43.7158 25.9803 43.9862 25.3883 43.9912C23.0944 44.0075 20.8005 44.0013 18.5066 43.9975C17.6781 43.9963 17.0486 43.3916 16.7733 42.3499C16.7307 42.1884 16.7107 42.0219 16.6644 41.8617C16.4809 41.2449 16.0658 40.9214 15.4192 40.8914C15.0513 40.8739 14.801 40.6072 14.7985 40.1878C14.791 39.1111 14.796 38.0332 14.7947 36.9565C14.7947 35.5205 14.8085 34.0833 14.791 32.6473C14.771 30.9484 14.1427 29.4222 13.3893 27.9412C12.855 26.8883 12.0428 26.0507 11.2368 25.2006C9.31585 23.175 8.04938 20.7775 7.40613 18.0645C7.05447 16.5822 7.00316 15.0548 7.13331 13.5512C7.3811 10.6829 8.41105 8.08138 10.1606 5.79156C11.5722 3.94367 13.3268 2.47888 15.4317 1.48483C16.8934 0.794998 18.4252 0.318003 20.0571 0.138974C21.1546 0.0175338 22.2372 -0.0575836 23.3322 0.0651081C25.2882 0.2842 27.1666 0.758692 28.8937 1.74148C29.2128 1.92301 29.3742 2.15212 29.2841 2.52395L29.2829 2.52145Z" fill="#2B2D54"/>
<path d="M41.3719 15.519C40.7637 15.519 40.1555 15.524 39.5461 15.5178C39.0955 15.5128 38.8815 15.3112 38.8565 14.9056C38.829 14.4649 39.0805 14.2282 39.4672 14.2207C40.7612 14.1944 42.0577 14.1957 43.3518 14.2182C43.7284 14.2245 43.9737 14.4824 43.9988 14.8718C44.0213 15.2073 43.6884 15.5077 43.2904 15.5165C42.6509 15.5303 42.0114 15.5203 41.3719 15.5203V15.519Z" fill="#2B2D54"/>
<path d="M5.45635 9.54138C5.12847 9.43872 4.77931 9.34607 4.44142 9.22213C3.55664 8.89537 2.67811 8.55108 1.79584 8.21931C1.35532 8.05405 1.17136 7.77862 1.28524 7.42557C1.44042 6.94482 1.67319 6.81962 2.18754 6.99865C3.36141 7.40804 4.53152 7.8287 5.69913 8.25687C6.012 8.3708 6.22725 8.60867 6.16718 8.95671C6.1046 9.31227 5.82928 9.48003 5.45635 9.54263V9.54138Z" fill="#2B2D54"/>
<path d="M1.90973 22.8267C1.57434 22.7966 1.34282 22.6477 1.27399 22.2896C1.21142 21.9666 1.31404 21.7225 1.62064 21.6085C2.8696 21.1403 4.1173 20.6658 5.37877 20.2314C5.72292 20.1125 5.99699 20.3378 6.1334 20.6683C6.27982 21.0226 6.09586 21.2805 5.79676 21.4157C5.32121 21.6323 4.82438 21.8038 4.33255 21.9854C3.61547 22.2495 2.89338 22.4999 2.17879 22.7679C2.08869 22.8017 2.00735 22.8279 1.91098 22.8267H1.90973Z" fill="#2B2D54"/>
<path d="M2.54421 15.5192C1.92099 15.5192 1.29776 15.5254 0.675786 15.5167C0.201484 15.5092 -0.0100127 15.2888 0.00125044 14.8419C0.0112621 14.4187 0.21525 14.2146 0.673283 14.2109C1.87218 14.2034 3.07233 14.2021 4.27122 14.2096C4.86942 14.2134 5.0659 14.3999 5.05589 14.9082C5.04713 15.3402 4.82312 15.5154 4.27498 15.5179C3.69931 15.5204 3.12239 15.5179 2.54672 15.5179L2.54421 15.5192Z" fill="#2B2D54"/>
<path d="M37.8216 8.78732C37.7615 8.50313 37.9667 8.33536 38.2245 8.24272C39.4147 7.8133 40.6086 7.3964 41.8025 6.97824C42.1979 6.83928 42.4707 6.98701 42.6397 7.35634C42.8061 7.71815 42.6084 7.99984 42.3293 8.11001C41.0866 8.60579 39.8302 9.07151 38.5649 9.50845C38.1407 9.65493 37.8116 9.31565 37.8203 8.78732H37.8216Z" fill="#2B2D54"/>
<path d="M41.865 22.8255C41.5221 22.6953 41.0891 22.525 40.6524 22.3648C39.879 22.0793 39.098 21.8114 38.3296 21.5122C37.8566 21.3281 37.6989 20.9838 37.8679 20.5795C38.0456 20.1551 38.3722 20.1613 38.7401 20.2953C39.8965 20.7159 41.0566 21.1266 42.2117 21.5522C42.522 21.6662 42.7485 21.9103 42.6847 22.2446C42.6184 22.5951 42.3669 22.8267 41.865 22.8255Z" fill="#2B2D54"/>
<path d="M33.2174 5.96939C32.6856 6.35499 32.4853 6.30741 32.0498 5.78034C31.7833 5.45734 31.4754 5.16563 31.1676 4.87893C30.8234 4.55843 30.7971 4.22666 31.0662 3.85608C31.3991 3.62572 31.6907 3.65702 32.011 3.92369C32.4128 4.25796 32.7419 4.65358 33.1048 5.02166C33.4027 5.32338 33.4077 5.62635 33.2187 5.96939H33.2174Z" fill="#2B2D54"/>
<path d="M24.5774 24.8927C23.6012 24.9102 22.8291 24.5471 22.2259 23.9061C21.9756 23.6395 21.908 23.7183 21.7203 23.8999C21.0696 24.5271 20.3062 24.8576 19.3813 24.8989C18.0873 24.9578 16.6844 23.8373 16.3979 22.7193C16.3153 22.3963 16.1501 22.2548 15.8547 22.1772C14.383 21.7903 13.2254 20.2417 13.4081 18.8244C13.497 18.1334 13.1228 17.7453 12.7774 17.2958C11.5122 15.6482 11.77 13.3008 13.2167 11.8999C13.3606 11.7609 13.4169 11.6357 13.3981 11.4216C13.3055 10.395 13.4932 9.44854 14.1978 8.63351C14.6546 8.10519 15.194 7.72334 15.8622 7.57311C16.1463 7.50926 16.2752 7.39408 16.3553 7.14244C16.7971 5.7465 17.777 4.97029 19.2086 4.86638C20.1272 4.79877 20.9932 5.08672 21.6665 5.7753C21.8767 5.98938 21.9518 6.11333 22.2735 5.78782C23.1232 4.92772 24.1919 4.66481 25.3896 4.98907C26.5597 5.30582 27.2956 6.05198 27.6272 7.19752C27.6885 7.40785 27.7736 7.50675 27.9738 7.56184C29.4418 7.96622 30.3316 8.88265 30.5393 10.4301C30.5769 10.7068 30.6207 10.9509 30.5418 11.2338C30.468 11.4992 30.5193 11.7722 30.7759 11.985C31.6506 12.7161 31.9848 13.739 31.9923 14.8044C32.001 15.846 31.7357 16.8751 30.8985 17.6251C30.5631 17.9268 30.5431 18.2335 30.5819 18.683C30.6595 19.5844 30.3654 20.4294 29.7459 21.1305C29.2553 21.6864 28.6133 21.9969 27.9376 22.2498C27.8087 22.2986 27.671 22.2848 27.6309 22.4689C27.3369 23.8072 26.3832 24.4758 25.1643 24.8539C24.9628 24.9165 24.7326 24.8839 24.5786 24.8927H24.5774Z" fill="#2B2D54"/>
<path d="M21.9981 35.1388C23.8227 35.1388 25.6474 35.1488 27.472 35.13C27.8199 35.1262 27.9551 35.2076 27.905 35.5669C27.8537 35.9325 28.0639 36.4233 27.8186 36.6374C27.6122 36.8176 27.1378 36.6962 26.7812 36.6975C25.3458 36.7 23.9116 36.7025 22.4762 36.6975C22.1658 36.6975 21.9218 36.8026 21.8429 37.1081C21.7703 37.3935 21.7541 37.6815 22.0394 37.9106C22.1996 38.0395 22.3635 38.0045 22.5225 38.0057C24.1756 38.0133 25.8288 38.0233 27.482 38.0007C27.8487 37.9957 27.9125 38.1084 27.9075 38.4439C27.8912 39.5845 27.905 39.5845 26.7837 39.5845C23.3685 39.5845 19.9532 39.5795 16.5368 39.592C16.1989 39.5932 16.0512 39.5294 16.0987 39.1638C16.145 38.797 15.9486 38.3137 16.1738 38.0834C16.4003 37.8518 16.8822 38.0233 17.2513 38.0133C17.7507 38.0007 18.25 38.012 18.7481 38.0095C19.2499 38.007 19.569 37.7478 19.5678 37.3472C19.5665 36.9466 19.2537 36.7012 18.7293 36.6987C17.9647 36.6949 17.2013 36.6874 16.4366 36.7037C16.1763 36.71 16.1 36.6386 16.0962 36.3707C16.0787 35.1388 16.07 35.1388 17.3177 35.1388C18.877 35.1388 20.4363 35.1388 21.9969 35.1388H21.9981Z" fill="#4B73F3"/>
<path d="M22.0019 32.2769C23.8415 32.2769 25.6824 32.2844 27.522 32.2694C27.8261 32.2669 27.94 32.3433 27.9037 32.6525C27.8574 33.0356 28.0702 33.5502 27.8161 33.7717C27.6009 33.9595 27.1016 33.8256 26.7274 33.8256C23.3272 33.8268 19.9282 33.8206 16.528 33.8356C16.1776 33.8368 16.0599 33.7542 16.0975 33.4012C16.135 33.0481 15.9849 32.5749 16.1626 32.362C16.3741 32.1091 16.8621 32.2832 17.2288 32.2807C18.8194 32.2694 20.41 32.2757 22.0006 32.2757L22.0019 32.2769Z" fill="#4B73F3"/>
<path d="M26.1893 40.8975C26.0691 41.3557 25.9652 41.7939 25.8363 42.2233C25.7437 42.5325 25.5247 42.6865 25.1881 42.6853C23.0043 42.6803 20.8205 42.6803 18.6355 42.6853C18.3601 42.6853 18.2125 42.5876 18.1561 42.3047C18.0911 41.9804 18.0197 41.6487 17.8846 41.3507C17.6731 40.8862 17.9046 40.89 18.26 40.8937C19.7105 40.9075 21.1621 40.9 22.6126 40.9C23.7977 40.9 24.9828 40.9 26.1893 40.9V40.8975Z" fill="#4B73F3"/>
<path d="M21.3474 14.9019C21.3474 17.1178 21.3424 19.3338 21.3499 21.551C21.3536 22.7567 20.3662 23.6193 19.3025 23.5842C18.5541 23.5604 17.588 22.7855 17.5116 21.8227C17.4616 21.198 17.3577 21.0853 16.7345 21.0477C15.881 20.9952 14.9749 20.2565 14.7159 19.4039C14.4831 18.634 14.8648 17.6249 15.6182 17.0177C15.9536 16.7473 16.0312 16.3642 15.8159 16.0524C15.6144 15.762 15.2615 15.7445 14.8761 15.9473C14.5882 16.0988 14.3943 16.3379 14.1878 16.5632C14.0201 16.7448 13.9212 16.7147 13.8048 16.5432C12.6848 14.8831 13.4507 12.8124 15.1501 12.2127C15.433 12.1125 15.7471 12.0937 16.0487 12.0562C16.4542 12.0061 16.7608 11.7282 16.757 11.3914C16.7533 11.0409 16.4104 10.7279 15.9924 10.7516C15.6595 10.7717 15.3291 10.8531 15 10.9182C14.7885 10.9595 14.6996 10.9207 14.6921 10.6703C14.6633 9.83897 15.637 8.80486 16.503 8.77481C17.2526 8.74977 17.4253 8.58827 17.5079 7.83584C17.6068 6.93944 18.5604 6.09062 19.4189 6.15697C20.6265 6.24962 21.3336 7.0396 21.3411 8.1601C21.3561 10.4074 21.3461 12.6546 21.3461 14.9019H21.3474Z" fill="#81F4E1"/>
<path d="M29.8873 16.7535C29.6645 16.5169 29.4618 16.279 29.2353 16.0649C28.8849 15.7331 28.4093 15.7018 28.1553 15.9735C27.875 16.2752 27.9363 16.7585 28.3755 17.0502C29.0376 17.4896 29.2578 18.1494 29.2929 18.858C29.3367 19.7669 28.572 20.6971 27.691 20.945C27.6472 20.9575 27.5984 20.955 27.5508 20.9588C26.7987 21.0089 26.4258 21.2818 26.3532 22.1607C26.2806 23.0383 25.3408 23.6793 24.282 23.5679C23.4398 23.4802 22.6701 22.7065 22.6676 21.8377C22.6576 17.1866 22.6451 12.5344 22.6777 7.88336C22.6852 6.86177 23.4586 6.15441 24.5236 6.17069C25.4584 6.18571 26.3332 6.67397 26.402 7.90214C26.4283 8.3854 26.7637 8.76975 27.2317 8.76975C28.328 8.771 29.1277 9.59353 29.3004 10.7353C29.3367 10.9782 29.1677 10.9419 29.0363 10.9206C28.7522 10.873 28.4694 10.8079 28.1866 10.7503C27.5984 10.6302 27.2154 10.9118 27.2492 11.4439C27.273 11.8258 27.4707 12.0211 27.8624 12.0499C28.8936 12.1262 29.7396 12.5081 30.3028 13.4433C30.8947 14.4261 30.7846 15.9597 29.8886 16.7522L29.8873 16.7535Z" fill="#81F4E1"/>
</g>
<defs>
<clipPath id="clip0_401_1139">
<rect width="44" height="44" fill="white"/>
</clipPath>
</defs>
</svg>
