<svg width="425" height="532" viewBox="0 0 425 532" fill="none" xmlns="http://www.w3.org/2000/svg">
<g clip-path="url(#clip0_808_1058)">
<path d="M392.5 217C392.5 255.468 381.093 293.072 359.721 325.058C338.35 357.043 307.973 381.973 272.433 396.694C236.893 411.415 197.786 415.268 160.057 407.763C122.328 400.259 87.6712 381.735 60.4697 354.534C33.2681 327.333 14.7434 292.677 7.23795 254.948C-0.267446 217.219 3.58364 178.112 18.3041 142.572C33.0246 107.031 57.9534 76.6541 89.9381 55.2816C121.923 33.9091 159.527 22.501 197.995 22.5C223.538 22.4991 248.83 27.5294 272.429 37.3035C296.027 47.0777 317.469 61.4043 335.531 79.4654C353.593 97.5265 367.92 118.968 377.695 142.566C387.469 166.165 392.5 191.457 392.5 217Z" fill="#E74614" stroke="#2B2D54"/>
<path d="M389.428 213.791C389.428 317.736 303.719 402.003 197.995 402.003C92.2717 402.003 6.56696 317.736 6.56696 213.791C6.56696 109.846 92.2717 25.5767 197.995 25.5767C303.719 25.5767 389.428 109.846 389.428 213.791Z" fill="#F08300"/>
<path d="M374.78 215.926C374.782 250.891 364.415 285.072 344.99 314.145C325.566 343.218 297.956 365.878 265.653 379.26C233.35 392.642 197.804 396.144 163.511 389.323C129.217 382.503 97.7164 365.666 72.9918 340.943C48.2672 316.219 31.4292 284.719 24.6073 250.426C17.7854 216.133 21.2859 180.587 34.6661 148.283C48.0463 115.979 70.7053 88.3689 99.7777 68.9432C128.85 49.5174 163.03 39.1489 197.995 39.1489C244.88 39.1488 289.845 57.7733 322.998 90.9253C356.152 124.077 374.778 169.041 374.78 215.926Z" fill="#FFFBD6"/>
<path d="M171.6 110.068C169.781 99.5408 169.695 88.6951 167.446 78.2105C162.945 57.2289 143.638 63.7848 128.561 69.7246C110.593 76.8109 60.8439 106.056 74.941 131.426C82.1665 144.442 98.148 151.996 110.411 159.42C126.054 168.887 142.334 177.386 157.169 188.143C161.454 191.25 165.117 195.176 169.538 198.132C197.364 216.698 179.31 152.238 177.572 142.85C175.541 131.928 173.49 121.027 171.6 110.068Z" fill="#F08300"/>
<path d="M168.013 207.579C168.947 204.762 167.174 201.473 161.141 197.62C147.297 188.76 133.204 180.163 119.209 171.518C106.364 163.582 92.9085 156.484 79.9435 148.727C73.951 145.145 63.2192 136.434 55.8317 140.62C42.073 148.424 40.244 180.385 39.0566 194.151C37.8945 207.647 34.4336 244.706 55.9026 243.615C56.0877 243.615 56.2718 243.643 56.4484 243.699C63.4814 241.349 70.4343 238.681 77.4932 236.286C92.3633 231.228 107.572 227.06 122.781 223.164C130.441 221.203 164.829 217.111 168.013 207.579Z" fill="#F08300"/>
<path d="M178.694 220.274C177.029 219.377 175.12 219.037 173.247 219.304C138.444 228.05 102.519 236.12 68.7767 248.446C63.0719 250.525 57.3778 252.501 51.6021 254.188C50.3996 256.363 48.7222 258.043 47.5094 260.185C44.655 265.213 46.5549 272.198 48.3938 277.254C50.7271 283.628 53.732 289.736 57.3577 295.474C62.1473 303.093 66.8261 311.001 72.1517 318.267C79.1853 327.892 91.0238 343.819 104.565 342.934C120.526 341.888 128.237 317.261 135.356 306.059C145.31 290.401 154.461 274.202 164.839 258.826C168.861 252.854 193.094 225.337 178.694 220.274Z" fill="#F08300"/>
<path d="M223.785 362.928C223.708 362.64 223.696 362.339 223.748 362.045C223.801 361.752 223.917 361.474 224.088 361.23C223.805 360.551 223.502 359.937 223.254 359.179C223.143 358.878 223.114 358.554 223.168 358.238C223.222 357.923 223.358 357.627 223.562 357.38C214.134 316.829 204.761 276.281 196.065 235.574C195.518 235.345 195.083 234.91 194.853 234.364C193.125 230.233 189.719 231.238 186.99 233.469C171.034 258.872 155.765 284.686 139.636 309.985C134.24 318.453 128.849 326.952 123.589 335.512C123.6 335.921 123.479 336.323 123.245 336.659C122.695 337.422 122.144 338.139 121.588 338.821C119.633 346.709 117.399 355.217 126.388 360.616C130.838 363.254 135.562 365.401 140.475 367.021C148.683 370.022 157.054 372.559 165.547 374.62C183.383 378.475 203.705 380.794 221.076 373.71C222.438 372.311 223.407 370.577 223.882 368.684C224.358 366.79 224.324 364.804 223.785 362.928Z" fill="#F08300"/>
<path d="M342.089 175.684C344.889 173.904 347.118 171.357 348.514 168.348C349.909 165.338 350.412 161.991 349.962 158.704C341.966 137.911 329.79 118.978 314.188 103.076C309.327 98.3572 303.494 94.7573 297.097 92.5279C290.699 90.2985 283.892 89.4933 277.151 90.1688C276.909 90.338 276.606 90.5046 276.383 90.6614C256.183 125.97 234.092 160.131 212.022 194.311C205.766 204.009 217.944 203.15 223.729 201.892C258.325 194.363 292.997 187.194 327.618 179.789C332.14 178.829 336.661 177.853 341.18 176.861C341.318 176.365 341.644 175.943 342.089 175.684Z" fill="#F08300"/>
<path d="M266.985 89.8126C269.572 80.1822 267.5 71.1148 254.297 64.3648C236.637 57.6098 217.888 54.1454 198.98 54.1431C195.863 54.1431 192.791 54.2817 189.728 54.4789C176.541 55.3176 173.267 71.2188 174.206 81.2533C175.965 99.8574 180.366 118.547 183.191 137.04C186.474 154.851 189.905 172.632 193.483 190.382C196.984 207.71 213.941 179.817 216.74 175.156C228.615 155.438 241.044 136.081 253.105 116.486C258.903 108.255 263.571 99.2842 266.985 89.8126Z" fill="#F08300"/>
<path d="M348.718 278.623C352.45 269.533 355.343 260.121 357.363 250.504C361.279 227.509 360.198 200.998 353.528 187.37C350.055 184.242 345.678 182.299 341.028 181.822C340.704 181.778 340.393 181.668 340.114 181.499C336.329 182.308 332.544 183.115 328.76 183.922C294.129 191.306 259.457 198.466 224.866 206.023C224.088 206.187 223.299 206.359 222.516 206.535C222.25 206.742 221.935 206.876 221.602 206.925C220.864 207.038 220.045 207.159 219.196 207.253C215.801 207.657 208.369 210.416 207.545 214.377C206.352 220.066 215.417 223.664 219.272 225.839C249.533 242.991 279.152 260.514 308.236 279.593C314.4 283.64 320.635 287.556 326.901 291.437C336 294.531 343.332 288.89 348.718 278.623Z" fill="#F08300"/>
<path d="M239.362 369.325C251.386 369.356 263.151 365.83 273.175 359.189C274.453 358.37 275.676 357.557 276.747 356.801C277.027 356.594 277.359 356.468 277.707 356.44C282.623 353.35 287.297 350.086 291.602 347.075C304.868 336.891 316.979 325.285 327.719 312.466C327.592 309.73 326.923 307.047 325.752 304.57C324.581 302.094 322.932 299.875 320.898 298.04C320.681 297.833 320.512 297.582 320.403 297.303C312.864 292.614 305.365 287.847 297.989 282.892C270.365 264.329 241.342 248.473 212.537 231.862C211.132 231.052 209.748 230.192 208.353 229.356C203.917 228.068 202.169 234.71 202.917 238.681C202.974 238.983 202.971 239.293 202.906 239.593C211.678 280.601 221.147 321.465 230.631 362.311C231.5 364.012 232.71 365.515 234.186 366.727C235.663 367.939 237.373 368.833 239.21 369.355C239.266 369.355 239.301 369.325 239.362 369.325Z" fill="#F08300"/>
</g>
<g clip-path="url(#clip1_808_1058)">
<path d="M339.394 170.958C339.488 171.284 339.563 171.546 339.618 171.74L244.133 196.777L244.125 196.778C244.114 196.781 244.095 196.784 244.07 196.789C244.02 196.797 243.942 196.81 243.838 196.822C243.631 196.847 243.322 196.872 242.927 196.869C242.137 196.863 241.001 196.747 239.645 196.299C236.94 195.407 233.315 193.183 229.787 187.8C226.262 182.421 225.666 178.204 225.924 175.361C226.054 173.935 226.398 172.844 226.707 172.115C226.861 171.75 227.007 171.476 227.112 171.295C227.164 171.205 227.206 171.138 227.235 171.095C227.249 171.073 227.259 171.058 227.266 171.048L227.271 171.041L288.106 93.1292C288.257 93.2528 288.459 93.4187 288.708 93.6253C289.31 94.126 290.185 94.8654 291.276 95.8184C293.4 97.6732 296.34 100.337 299.674 103.625L273.386 133.695L273.978 134.279L303.583 107.59C309.748 113.955 315.331 120.859 320.266 128.222C320.7 128.885 321.125 129.554 321.545 130.227L265.954 167.864L266.383 168.578L325.602 137.218C328.224 142.098 330.599 147.106 332.72 152.226L309.562 162.149L309.83 162.935L334.471 156.586C336.203 161.051 337.507 164.901 338.383 167.654C338.832 169.066 339.169 170.189 339.394 170.958Z" fill="#D9EDFF" stroke="#2B2D54" stroke-width="0.833333"/>
<g style="mix-blend-mode:multiply" opacity="0.7">
<path d="M336.111 159.752L242.083 189.286L241.942 190.748L336.85 161.802C336.616 161.141 336.37 160.459 336.111 159.752Z" fill="#B6D2ED"/>
</g>
<g style="mix-blend-mode:multiply" opacity="0.7">
<path d="M340.132 172.033C340.132 172.033 339.491 169.659 338.221 165.805L242.694 191.896L239.716 196.757C241.162 197.262 242.711 197.407 244.23 197.182L340.124 172.038L340.132 172.033Z" fill="#B6D2ED"/>
</g>
<g style="mix-blend-mode:multiply" opacity="0.7">
<path d="M329.611 144.217L239.514 187.043L240.36 188.334L330.898 146.99C330.484 146.075 330.055 145.151 329.611 144.217Z" fill="#B6D2ED"/>
</g>
<g style="mix-blend-mode:multiply" opacity="0.7">
<path d="M236.695 181.063L237.697 182.593L317.675 123.745C317.231 123.129 316.789 122.513 316.336 121.908L236.695 181.063Z" fill="#B6D2ED"/>
</g>
<g style="mix-blend-mode:multiply" opacity="0.7">
<path d="M233.554 177.948L234.799 179.848L313.338 118.057C311.998 116.391 310.645 114.779 309.291 113.229L233.554 177.948Z" fill="#B6D2ED"/>
</g>
<g style="mix-blend-mode:multiply" opacity="0.7">
<path d="M288.039 92.5385L226.937 170.792C226.937 170.792 224.132 174.628 226.246 181.461L228.707 181.14L294.033 97.7162C290.407 94.4283 288.039 92.5385 288.039 92.5385Z" fill="#B6D2ED"/>
</g>
<path d="M244.23 197.182C244.23 197.182 236.586 198.936 229.438 188.029C222.296 177.13 226.937 170.793 226.937 170.793C226.937 170.793 242.176 178.546 244.23 197.182Z" fill="#7DA9D1"/>
<g style="mix-blend-mode:multiply">
<path d="M229.439 188.028C233.603 194.382 237.932 196.437 240.824 197.047C239.978 192.383 238.204 187.942 235.606 183.986C233.008 180.031 229.639 176.642 225.699 174.021C225.119 176.927 225.298 181.709 229.439 188.028Z" fill="#7DA9D1"/>
</g>
<path d="M290.034 86.709L290.035 86.7085C290.198 86.4981 290.402 86.3219 290.633 86.1898C290.865 86.0578 291.119 85.9726 291.383 85.9391C291.646 85.9055 291.914 85.9242 292.169 85.994C292.424 86.0638 292.663 86.1833 292.871 86.3456C293.08 86.5079 293.254 86.7099 293.384 86.9401C293.514 87.1702 293.597 87.4241 293.629 87.6873C293.66 87.9505 293.64 88.2179 293.568 88.474C293.496 88.7302 293.375 88.9701 293.21 89.1799L293.21 89.1804L228.573 171.963L228.561 171.978L228.551 171.994C228.364 172.285 227.517 173.746 227.468 176.28C227.42 178.818 228.174 182.395 231.136 186.914C237.288 196.303 243.572 195.265 243.792 195.213L243.792 195.214L243.803 195.211L345.259 168.605L345.26 168.605C345.517 168.537 345.784 168.52 346.047 168.556C346.309 168.592 346.562 168.679 346.79 168.812C347.018 168.946 347.218 169.123 347.377 169.334C347.536 169.545 347.652 169.785 347.718 170.042C347.783 170.298 347.798 170.566 347.761 170.829L348.173 170.888L347.761 170.829C347.723 171.092 347.634 171.345 347.498 171.575C347.363 171.804 347.184 172.005 346.971 172.165C346.758 172.326 346.516 172.443 346.259 172.51L346.258 172.51L244.733 199.133C244.517 199.182 242.246 199.655 239.063 198.66C235.86 197.657 231.693 195.153 227.754 189.143C223.816 183.133 223.178 178.304 223.526 174.965C223.872 171.656 225.19 169.77 225.304 169.612L290.034 86.709Z" fill="#4B73F3" stroke="#2B2D54" stroke-width="0.833333"/>
</g>
<g clip-path="url(#clip2_808_1058)">
<path d="M153.272 67.7611C153.609 67.6637 153.88 67.5873 154.079 67.5319L179.373 165.107L179.375 165.115C179.377 165.127 179.381 165.146 179.385 165.172C179.394 165.223 179.407 165.303 179.419 165.409C179.444 165.621 179.468 165.937 179.464 166.34C179.456 167.148 179.334 168.308 178.873 169.692C177.953 172.455 175.671 176.151 170.163 179.738C164.659 183.323 160.35 183.92 157.445 183.648C155.989 183.512 154.876 183.157 154.131 182.839C153.759 182.68 153.478 182.531 153.294 182.423C153.202 182.369 153.133 182.326 153.089 182.297C153.076 182.288 153.065 182.28 153.056 182.274C153.05 182.271 153.046 182.267 153.042 182.265L153.035 182.26L73.6484 119.916C73.7756 119.761 73.9476 119.553 74.1624 119.297C74.6754 118.683 75.4329 117.792 76.4091 116.68C78.3102 114.516 81.0403 111.519 84.4104 108.121L115.045 135.054L115.63 134.463L88.4581 104.153C94.9763 97.8737 102.045 92.1904 109.579 87.1708C110.259 86.7278 110.947 86.2946 111.638 85.8663L149.913 142.741L150.628 142.314L118.773 81.7517C123.768 79.0857 128.894 76.6716 134.133 74.5185L144.202 98.2008L144.989 97.9349L138.575 72.7495C143.142 70.9925 147.08 69.671 149.895 68.7836C151.337 68.3288 152.485 67.988 153.272 67.7611Z" fill="#D9EDFF" stroke="#2B2D54" stroke-width="0.833333"/>
<g style="mix-blend-mode:multiply" opacity="0.7">
<path d="M141.823 71.0902L171.711 167.181L173.203 167.329L143.918 70.3411C143.242 70.5786 142.546 70.827 141.823 71.0902Z" fill="#B6D2ED"/>
</g>
<g style="mix-blend-mode:multiply" opacity="0.7">
<path d="M154.374 67.0198C154.374 67.0198 151.947 67.6668 148.009 68.9531L174.377 166.565L179.332 169.619C179.852 168.144 180.005 166.563 179.779 165.011L154.379 67.0282L154.374 67.0198Z" fill="#B6D2ED"/>
</g>
<g style="mix-blend-mode:multiply" opacity="0.7">
<path d="M125.942 77.6825L169.413 169.798L170.733 168.937L128.778 76.376C127.842 76.7967 126.897 77.2323 125.942 77.6825Z" fill="#B6D2ED"/>
</g>
<g style="mix-blend-mode:multiply" opacity="0.7">
<path d="M163.3 172.659L164.865 171.64L105.006 89.8107C104.376 90.2623 103.745 90.7125 103.126 91.173L163.3 172.659Z" fill="#B6D2ED"/>
</g>
<g style="mix-blend-mode:multiply" opacity="0.7">
<path d="M160.109 175.857L162.053 174.591L99.185 94.2232C97.4798 95.5873 95.8302 96.9639 94.2434 98.3417L160.109 175.857Z" fill="#B6D2ED"/>
</g>
<g style="mix-blend-mode:multiply" opacity="0.7">
<path d="M73.0575 119.982L152.784 182.593C152.784 182.593 156.693 185.469 163.676 183.33L163.355 180.815L78.3613 113.877C74.9938 117.57 73.0575 119.982 73.0575 119.982Z" fill="#B6D2ED"/>
</g>
<path d="M179.779 165.011C179.779 165.011 181.547 172.821 170.39 180.087C159.242 187.349 152.785 182.593 152.785 182.593C152.785 182.593 160.744 167.054 179.779 165.011Z" fill="#7DA9D1"/>
<g style="mix-blend-mode:multiply">
<path d="M170.391 180.087C176.891 175.854 179.001 171.439 179.632 168.489C174.868 169.338 170.328 171.137 166.282 173.779C162.236 176.42 158.766 179.851 156.078 183.866C159.044 184.466 163.927 184.298 170.391 180.087Z" fill="#7DA9D1"/>
</g>
<path d="M67.1054 117.935L67.1049 117.935C66.8896 117.766 66.7095 117.557 66.5748 117.32C66.4401 117.082 66.3535 116.821 66.3198 116.55C66.2861 116.28 66.3061 116.006 66.3784 115.744C66.4507 115.483 66.5739 115.238 66.7409 115.025C66.9079 114.812 67.1156 114.634 67.352 114.501C67.5884 114.369 67.849 114.284 68.1189 114.252C68.3889 114.221 68.663 114.242 68.9254 114.317C69.1879 114.391 69.4335 114.516 69.6482 114.685L69.6487 114.686L153.99 180.919L154.005 180.931L154.021 180.941C154.317 181.132 155.804 182.001 158.39 182.057C160.978 182.114 164.631 181.355 169.253 178.345C178.853 172.092 177.81 165.676 177.759 165.455L177.759 165.455L177.756 165.444L150.879 61.7766L150.879 61.776C150.81 61.5121 150.794 61.2377 150.831 60.9685C150.869 60.6993 150.959 60.4406 151.096 60.207C151.234 59.9735 151.416 59.7696 151.633 59.6071C151.849 59.4445 152.096 59.3264 152.36 59.2596C152.623 59.1928 152.897 59.1785 153.167 59.2178L153.227 58.8055L153.167 59.2178C153.436 59.2571 153.696 59.3491 153.931 59.4887C154.166 59.6284 154.371 59.8128 154.535 60.0314C154.699 60.2501 154.818 60.4986 154.886 60.7627L154.886 60.7634L181.781 164.501C181.83 164.721 182.308 167.044 181.281 170.293C180.248 173.564 177.678 177.813 171.529 181.818C165.379 185.824 160.445 186.462 157.034 186.096C153.654 185.734 151.73 184.381 151.57 184.264L67.1054 117.935Z" fill="#4B73F3" stroke="#2B2D54" stroke-width="0.833333"/>
</g>
<g clip-path="url(#clip3_808_1058)">
<path d="M268.372 79.8771C268.684 80.0443 268.933 80.1798 269.115 80.2798L218.483 167.843L218.479 167.85C218.472 167.86 218.461 167.876 218.446 167.898C218.416 167.941 218.369 168.007 218.303 168.092C218.172 168.26 217.966 168.504 217.678 168.79C217.103 169.362 216.197 170.107 214.888 170.775C212.277 172.107 208.026 173.151 201.531 171.855C195.04 170.56 191.519 167.964 189.62 165.732C188.668 164.614 188.118 163.578 187.806 162.829C187.65 162.454 187.554 162.15 187.497 161.944C187.469 161.841 187.45 161.762 187.439 161.71C187.433 161.685 187.43 161.666 187.428 161.654L187.426 161.645L174.285 61.3548C174.486 61.3331 174.757 61.3048 175.095 61.2715C175.897 61.1924 177.071 61.0855 178.557 60.9749C181.452 60.7593 185.532 60.5295 190.355 60.4619L193.398 101.221L194.229 101.209L196.06 60.4614C205.182 60.5391 214.278 61.4296 223.241 63.1223C224.044 63.2826 224.845 63.4546 225.645 63.6329L213.064 131.176L213.873 131.373L233.675 65.6913C239.152 67.2872 244.545 69.1557 249.835 71.2899L240.374 95.2984L241.122 95.6613L254.274 73.1372C258.802 75.0841 262.569 76.9006 265.221 78.2403C266.58 78.9268 267.646 79.4879 268.372 79.8771Z" fill="#D9EDFF" stroke="#2B2D54" stroke-width="0.833333"/>
<g style="mix-blend-mode:multiply" opacity="0.7">
<path d="M257.784 74.23L211.504 163.954L212.473 165.106L259.819 75.1632C259.166 74.8592 258.489 74.5486 257.784 74.23Z" fill="#B6D2ED"/>
</g>
<g style="mix-blend-mode:multiply" opacity="0.7">
<path d="M269.686 80.1194C269.686 80.1194 267.484 78.8808 263.743 77.0391L213.857 165.382L215.268 171.043C216.682 170.352 217.908 169.328 218.84 168.059L269.684 80.1292L269.686 80.1194Z" fill="#B6D2ED"/>
</g>
<g style="mix-blend-mode:multiply" opacity="0.7">
<path d="M241.707 67.8093L208.005 164.214L209.562 164.525L244.669 68.8628C243.699 68.5075 242.712 68.1563 241.707 67.8093Z" fill="#B6D2ED"/>
</g>
<g style="mix-blend-mode:multiply" opacity="0.7">
<path d="M201.587 161.975L203.432 162.343L218.087 61.8049C217.315 61.686 216.544 61.5659 215.774 61.4613L201.587 161.975Z" fill="#B6D2ED"/>
</g>
<g style="mix-blend-mode:multiply" opacity="0.7">
<path d="M197.036 162.026L199.328 162.483L210.787 60.8795C208.598 60.6596 206.44 60.4878 204.326 60.3609L197.036 162.026Z" fill="#B6D2ED"/>
</g>
<g style="mix-blend-mode:multiply" opacity="0.7">
<path d="M173.816 60.9876L187.014 161.708C187.014 161.708 187.798 166.507 194.331 169.873L195.874 167.85L181.939 60.3384C176.911 60.6194 173.816 60.9876 173.816 60.9876Z" fill="#B6D2ED"/>
</g>
<path d="M218.839 168.059C218.839 168.059 214.603 174.888 201.449 172.264C188.305 169.641 187.014 161.708 187.014 161.708C187.014 161.708 203.702 156.172 218.839 168.059Z" fill="#7DA9D1"/>
<g style="mix-blend-mode:multiply">
<path d="M201.449 172.264C209.112 173.793 213.745 172.113 216.28 170.445C212.253 167.712 207.717 165.815 202.943 164.867C198.168 163.92 193.252 163.941 188.486 164.929C190.196 167.439 193.828 170.743 201.449 172.264Z" fill="#7DA9D1"/>
</g>
<path d="M170.975 55.3489L170.975 55.3483C170.939 55.077 170.956 54.8012 171.027 54.5368C171.098 54.2724 171.22 54.0246 171.386 53.8074C171.553 53.5903 171.761 53.4081 171.998 53.2713C172.235 53.1345 172.497 53.0457 172.768 53.0102C173.039 52.9746 173.315 52.9929 173.579 53.064C173.844 53.1351 174.091 53.2576 174.308 53.4244L174.528 53.139L174.308 53.4244C174.525 53.5913 174.707 53.7994 174.843 54.0366C174.98 54.2739 175.068 54.5357 175.103 54.8071L175.103 54.8077L189.065 161.356L189.068 161.376L189.072 161.394C189.15 161.738 189.608 163.403 191.428 165.257C193.25 167.112 196.413 169.131 201.861 170.218C213.177 172.476 216.95 167.155 217.07 166.961L217.07 166.961L217.076 166.951L270.867 73.918L270.867 73.9174C271.004 73.6802 271.186 73.4724 271.403 73.3056C271.62 73.1389 271.867 73.0166 272.132 72.9457C272.396 72.8749 272.672 72.8568 272.943 72.8926C273.215 72.9284 273.476 73.0174 273.713 73.1544C273.95 73.2914 274.158 73.4737 274.324 73.6911C274.49 73.9084 274.612 74.1564 274.683 74.4208C274.753 74.6853 274.771 74.9611 274.735 75.2323C274.698 75.5036 274.609 75.7651 274.472 76.0018L274.471 76.0024L220.643 169.098C220.523 169.291 219.228 171.288 216.197 172.894C213.145 174.51 208.297 175.749 201.046 174.302C193.795 172.855 189.793 169.85 187.597 167.196C185.421 164.566 184.991 162.249 184.958 162.053L170.975 55.3489Z" fill="#4B73F3" stroke="#2B2D54" stroke-width="0.833333"/>
</g>
<g clip-path="url(#clip4_808_1058)">
<path d="M55.2739 137.721C55.4366 137.407 55.5686 137.156 55.666 136.973L143.937 186.361L143.944 186.365C143.954 186.372 143.97 186.382 143.992 186.397C144.036 186.426 144.102 186.473 144.188 186.537C144.358 186.667 144.605 186.868 144.895 187.152C145.475 187.72 146.233 188.615 146.919 189.915C148.288 192.507 149.392 196.742 148.188 203.255C146.985 209.763 144.439 213.321 142.234 215.251C141.129 216.219 140.102 216.784 139.357 217.106C138.984 217.267 138.682 217.368 138.477 217.428C138.374 217.457 138.295 217.477 138.244 217.489C138.218 217.495 138.199 217.499 138.188 217.501L138.179 217.503L38.0843 232.061C38.0598 231.86 38.0276 231.589 37.9895 231.253C37.8991 230.452 37.7756 229.28 37.644 227.795C37.3875 224.903 37.1 220.827 36.9642 216.005L77.6764 212.386L77.6523 211.555L36.8829 210.3C36.8317 201.179 37.5934 192.071 39.1591 183.085C39.308 182.28 39.4687 181.477 39.6357 180.674L107.35 192.298L107.536 191.487L41.5803 172.615C43.0985 167.117 44.8906 161.697 46.9497 156.378L71.0897 165.498L71.4419 164.746L48.734 151.913C50.6167 147.358 52.3797 143.566 53.6818 140.895C54.3489 139.527 54.8949 138.453 55.2739 137.721Z" fill="#D9EDFF" stroke="#2B2D54" stroke-width="0.833333"/>
<g style="mix-blend-mode:multiply" opacity="0.7">
<path d="M49.777 148.389L140.146 193.395L141.285 192.409L50.6813 146.34C50.3866 146.998 50.0855 147.679 49.777 148.389Z" fill="#B6D2ED"/>
</g>
<g style="mix-blend-mode:multiply" opacity="0.7">
<path d="M55.4975 136.404C55.4975 136.404 54.2902 138.624 52.5016 142.39L141.542 191.021L147.182 189.531C146.471 188.126 145.43 186.915 144.148 186.001L55.5073 136.406L55.4975 136.404Z" fill="#B6D2ED"/>
</g>
<g style="mix-blend-mode:multiply" opacity="0.7">
<path d="M43.5844 164.554L140.456 196.889L140.745 195.328L44.5959 161.577C44.2543 162.553 43.9172 163.545 43.5844 164.554Z" fill="#B6D2ED"/>
</g>
<g style="mix-blend-mode:multiply" opacity="0.7">
<path d="M138.308 203.338L138.65 201.488L37.9142 188.257C37.8062 189.03 37.6971 189.803 37.6034 190.575L138.308 203.338Z" fill="#B6D2ED"/>
</g>
<g style="mix-blend-mode:multiply" opacity="0.7">
<path d="M138.423 207.888L138.848 205.59L37.0927 195.569C36.9039 197.761 36.7626 199.922 36.6656 202.037L138.423 207.888Z" fill="#B6D2ED"/>
</g>
<g style="mix-blend-mode:multiply" opacity="0.7">
<path d="M37.7241 232.534L138.248 217.913C138.248 217.913 143.035 217.062 146.309 210.482L144.263 208.967L36.9601 224.421C37.3122 229.445 37.7241 232.534 37.7241 232.534Z" fill="#B6D2ED"/>
</g>
<path d="M144.148 186.001C144.148 186.001 151.036 190.141 148.598 203.331C146.161 216.51 138.248 217.913 138.248 217.913C138.248 217.913 132.476 201.305 144.148 186.001Z" fill="#7DA9D1"/>
<g style="mix-blend-mode:multiply">
<path d="M148.598 203.33C150.018 195.647 148.273 191.038 146.569 188.527C143.893 192.592 142.061 197.154 141.181 201.942C140.301 206.729 140.392 211.645 141.447 216.396C143.932 214.651 147.185 210.972 148.598 203.33Z" fill="#7DA9D1"/>
</g>
<path d="M32.1254 235.456L32.1247 235.456C31.854 235.496 31.578 235.482 31.3126 235.415C31.0473 235.348 30.7977 235.229 30.5782 235.066C30.3587 234.902 30.1736 234.697 30.0335 234.462C29.8933 234.227 29.8009 233.967 29.7615 233.696C29.7221 233.425 29.7365 233.149 29.8038 232.884C29.8712 232.619 29.9901 232.369 30.1539 232.15L29.8654 231.934L30.1539 232.15C30.3178 231.931 30.5232 231.746 30.7585 231.606C30.9938 231.466 31.2543 231.374 31.5252 231.335L31.5258 231.335L137.866 215.867L137.885 215.865L137.904 215.86C138.247 215.777 139.905 215.296 141.733 213.45C143.562 211.602 145.536 208.41 146.546 202.948C148.644 191.601 143.27 187.903 143.075 187.787L143.075 187.786L143.065 187.781L49.2795 135.311L49.279 135.311C49.0399 135.178 48.8295 134.999 48.6597 134.784C48.4899 134.569 48.3641 134.323 48.2895 134.06C48.2149 133.797 48.1929 133.521 48.2249 133.249C48.2569 132.978 48.3421 132.715 48.4757 132.476C48.6094 132.237 48.7888 132.027 49.0037 131.857C49.2187 131.688 49.4649 131.563 49.7284 131.488C49.9918 131.414 50.2673 131.393 50.5391 131.425C50.8108 131.458 51.0735 131.543 51.3122 131.677L51.3128 131.678L145.161 184.183C145.355 184.3 147.371 185.567 149.019 188.576C150.678 191.604 151.985 196.434 150.641 203.705C149.296 210.976 146.349 215.019 143.726 217.253C141.127 219.466 138.816 219.929 138.621 219.965L32.1254 235.456Z" fill="#4B73F3" stroke="#2B2D54" stroke-width="0.833333"/>
</g>
<g clip-path="url(#clip5_808_1058)">
<path d="M48.7489 259.733C48.6323 259.399 48.5404 259.131 48.4737 258.934L144.989 228.675L144.998 228.672C145.009 228.669 145.028 228.665 145.054 228.659C145.105 228.648 145.185 228.631 145.29 228.613C145.501 228.578 145.817 228.538 146.223 228.522C147.034 228.489 148.205 228.554 149.621 228.947C152.445 229.732 156.283 231.837 160.191 237.185C164.095 242.528 164.934 246.822 164.824 249.75C164.768 251.218 164.473 252.353 164.196 253.116C164.058 253.497 163.923 253.786 163.825 253.976C163.776 254.071 163.737 254.142 163.71 254.187C163.697 254.21 163.687 254.227 163.68 254.237L163.676 254.244L105.529 337.008C105.366 336.888 105.147 336.725 104.876 336.522C104.232 336.038 103.295 335.322 102.125 334.399C99.8468 332.599 96.686 330.009 93.0876 326.797L118.412 294.715L117.791 294.162L88.8846 322.939C82.2184 316.714 76.12 309.906 70.6621 302.597C70.1791 301.936 69.7057 301.268 69.237 300.595L124.184 259.349L123.721 258.658L64.7135 293.648C61.7586 288.769 59.0494 283.745 56.5959 278.595L79.8021 267.308L79.4969 266.535L54.5754 274.232C52.557 269.736 51.0109 265.85 49.9631 263.07C49.4263 261.645 49.0204 260.511 48.7489 259.733Z" fill="#D9EDFF" stroke="#2B2D54" stroke-width="0.833333"/>
<g style="mix-blend-mode:multiply" opacity="0.7">
<path d="M52.7292 271.053L147.5 236.26L147.566 234.755L51.8608 268.989C52.1368 269.655 52.4249 270.342 52.7292 271.053Z" fill="#B6D2ED"/>
</g>
<g style="mix-blend-mode:multiply" opacity="0.7">
<path d="M47.9455 258.666C47.9455 258.666 48.7299 261.068 50.2401 264.954L146.734 233.616L149.523 228.492C148.014 228.045 146.418 227.97 144.874 228.274L47.9535 258.66L47.9455 258.666Z" fill="#B6D2ED"/>
</g>
<g style="mix-blend-mode:multiply" opacity="0.7">
<path d="M60.2298 286.656L150.255 238.435L149.318 237.153L58.7607 283.877C59.2351 284.795 59.7248 285.721 60.2298 286.656Z" fill="#B6D2ED"/>
</g>
<g style="mix-blend-mode:multiply" opacity="0.7">
<path d="M153.467 244.425L152.357 242.906L73.5675 307.054C74.0557 307.663 74.5427 308.273 75.0393 308.871L153.467 244.425Z" fill="#B6D2ED"/>
</g>
<g style="mix-blend-mode:multiply" opacity="0.7">
<path d="M156.854 247.464L155.475 245.578L78.3195 312.672C79.7834 314.314 81.2569 315.9 82.728 317.423L156.854 247.464Z" fill="#B6D2ED"/>
</g>
<g style="mix-blend-mode:multiply" opacity="0.7">
<path d="M105.627 337.595L164.022 254.477C164.022 254.477 166.69 250.412 164.155 243.513L161.649 243.961L99.204 332.58C103.098 335.774 105.627 337.595 105.627 337.595Z" fill="#B6D2ED"/>
</g>
<path d="M144.874 228.274C144.874 228.274 152.613 226.109 160.527 236.938C168.435 247.76 164.022 254.476 164.022 254.476C164.022 254.476 147.984 247.268 144.874 228.274Z" fill="#7DA9D1"/>
<g style="mix-blend-mode:multiply">
<path d="M160.527 236.939C155.916 230.63 151.368 228.734 148.372 228.249C149.49 232.986 151.548 237.451 154.425 241.378C157.301 245.304 160.937 248.614 165.116 251.109C165.553 248.104 165.112 243.214 160.527 236.939Z" fill="#7DA9D1"/>
</g>
<path d="M103.906 343.671L103.905 343.672C103.748 343.896 103.549 344.087 103.318 344.234C103.087 344.381 102.829 344.481 102.56 344.528C102.29 344.575 102.014 344.569 101.747 344.51C101.48 344.45 101.227 344.338 101.003 344.181C100.779 344.024 100.588 343.824 100.442 343.593C100.295 343.362 100.196 343.104 100.149 342.834L99.7938 342.896L100.149 342.834C100.102 342.565 100.109 342.288 100.168 342.021C100.228 341.754 100.34 341.502 100.498 341.278L100.498 341.278L162.272 253.349L162.283 253.333L162.293 253.316C162.468 253.01 163.257 251.474 163.17 248.877C163.082 246.278 162.118 242.652 158.84 238.167C152.031 228.851 145.654 230.218 145.434 230.28L145.434 230.28L145.423 230.284L42.8809 262.436L42.8803 262.436C42.6192 262.518 42.3446 262.548 42.0719 262.524C41.7993 262.5 41.5341 262.423 41.2914 262.296C41.0487 262.17 40.8334 261.997 40.6577 261.787C40.4821 261.577 40.3495 261.334 40.2676 261.073C40.1858 260.812 40.1562 260.537 40.1806 260.265C40.205 259.992 40.2829 259.727 40.4099 259.484C40.5369 259.242 40.7104 259.027 40.9206 258.852C41.1307 258.676 41.3734 258.544 41.6347 258.463L41.6354 258.463L144.247 226.289C144.466 226.229 146.771 225.633 150.09 226.501C153.431 227.374 157.839 229.74 162.202 235.71C166.565 241.68 167.48 246.599 167.303 250.04C167.128 253.449 165.877 255.447 165.769 255.614L103.906 343.671Z" fill="#4B73F3" stroke="#2B2D54" stroke-width="0.833333"/>
</g>
<g clip-path="url(#clip6_808_1058)">
<path d="M125.641 355.81C125.315 355.672 125.055 355.56 124.864 355.477L167.334 263.677L167.339 263.669C167.344 263.659 167.353 263.642 167.366 263.619C167.392 263.573 167.433 263.503 167.491 263.413C167.607 263.233 167.79 262.972 168.05 262.661C168.572 262.039 169.406 261.215 170.649 260.431C173.129 258.868 177.267 257.442 183.853 258.142C190.434 258.843 194.177 261.108 196.27 263.158C197.32 264.186 197.962 265.167 198.341 265.885C198.53 266.244 198.653 266.537 198.729 266.738C198.766 266.838 198.792 266.915 198.808 266.965C198.815 266.991 198.821 267.009 198.824 267.02L198.826 267.029L221.021 365.712C220.823 365.751 220.555 365.804 220.222 365.868C219.431 366.02 218.271 366.233 216.801 366.478C213.937 366.956 209.895 367.555 205.098 368.06L198.367 327.746L197.54 327.833L199.417 368.579C190.326 369.33 181.187 369.269 172.106 368.397C171.292 368.311 170.479 368.212 169.667 368.107L176.061 299.7L175.238 299.578L161.482 366.786C155.883 365.695 150.343 364.324 144.881 362.679L152.122 337.91L151.345 337.617L140.292 361.242C135.606 359.714 131.69 358.247 128.927 357.154C127.512 356.594 126.399 356.132 125.641 355.81Z" fill="#D9EDFF" stroke="#2B2D54" stroke-width="0.833333"/>
<g style="mix-blend-mode:multiply" opacity="0.7">
<path d="M136.698 360.472L174.638 266.917L173.568 265.857L134.586 359.728C135.265 359.971 135.966 360.219 136.698 360.472Z" fill="#B6D2ED"/>
</g>
<g style="mix-blend-mode:multiply" opacity="0.7">
<path d="M124.31 355.688C124.31 355.688 126.615 356.722 130.508 358.216L172.165 265.708L170.246 260.198C168.9 261.015 167.773 262.146 166.96 263.494L124.311 355.678L124.31 355.688Z" fill="#B6D2ED"/>
</g>
<g style="mix-blend-mode:multiply" opacity="0.7">
<path d="M153.291 365.407L178.099 266.34L176.521 266.172L150.246 364.627C151.244 364.893 152.259 365.153 153.291 365.407Z" fill="#B6D2ED"/>
</g>
<g style="mix-blend-mode:multiply" opacity="0.7">
<path d="M184.694 267.987L182.823 267.788L177.359 369.242C178.138 369.29 178.917 369.34 179.694 369.374L184.694 267.987Z" fill="#B6D2ED"/>
</g>
<g style="mix-blend-mode:multiply" opacity="0.7">
<path d="M189.221 267.523L186.898 267.276L184.713 369.5C186.913 369.52 189.078 369.495 191.194 369.429L189.221 267.523Z" fill="#B6D2ED"/>
</g>
<g style="mix-blend-mode:multiply" opacity="0.7">
<path d="M221.521 366.035L199.231 266.929C199.231 266.929 198.015 262.221 191.203 259.462L189.85 261.618L213.49 367.419C218.472 366.683 221.521 366.035 221.521 366.035Z" fill="#B6D2ED"/>
</g>
<path d="M166.96 263.494C166.96 263.494 170.559 256.309 183.897 257.728C197.225 259.147 199.231 266.929 199.231 266.929C199.231 266.929 183.114 273.958 166.96 263.494Z" fill="#7DA9D1"/>
<g style="mix-blend-mode:multiply">
<path d="M183.897 257.728C176.127 256.901 171.666 258.994 169.292 260.886C173.551 263.242 178.241 264.719 183.081 265.229C187.922 265.739 192.816 265.272 197.473 263.855C195.542 261.511 191.625 258.55 183.897 257.728Z" fill="#7DA9D1"/>
</g>
<path d="M224.863 371.393L224.863 371.393C224.923 371.66 224.931 371.936 224.884 372.206C224.838 372.476 224.739 372.734 224.593 372.965C224.447 373.197 224.256 373.397 224.033 373.555C223.809 373.712 223.556 373.824 223.289 373.885C223.022 373.945 222.746 373.951 222.477 373.905C222.207 373.858 221.949 373.758 221.718 373.612L221.525 373.916L221.718 373.612C221.487 373.465 221.287 373.275 221.129 373.051C220.972 372.827 220.86 372.574 220.801 372.307L220.8 372.306L197.22 267.466L197.216 267.447L197.21 267.429C197.101 267.094 196.494 265.477 194.513 263.796C192.53 262.114 189.196 260.391 183.672 259.803C172.198 258.582 168.924 264.223 168.822 264.427L168.822 264.427L168.817 264.438L123.697 361.972L123.697 361.972C123.583 362.221 123.42 362.445 123.219 362.63C123.018 362.816 122.782 362.96 122.526 363.055C122.269 363.15 121.996 363.193 121.722 363.182C121.449 363.171 121.18 363.106 120.932 362.991C120.684 362.876 120.46 362.713 120.275 362.512C120.089 362.31 119.945 362.075 119.851 361.818C119.757 361.561 119.715 361.288 119.726 361.014C119.737 360.741 119.803 360.472 119.918 360.224L119.918 360.223L165.07 262.624C165.171 262.421 166.28 260.314 169.153 258.44C172.045 256.554 176.761 254.88 184.113 255.662C191.466 256.445 195.724 259.074 198.152 261.518C200.558 263.939 201.197 266.207 201.247 266.4L224.863 371.393Z" fill="#4B73F3" stroke="#2B2D54" stroke-width="0.833333"/>
</g>
<g clip-path="url(#clip7_808_1058)">
<path d="M238.658 363.469C238.321 363.577 238.05 363.662 237.852 363.724L209.98 266.492L209.978 266.483C209.975 266.472 209.971 266.453 209.966 266.427C209.956 266.376 209.941 266.296 209.926 266.19C209.896 265.978 209.864 265.661 209.858 265.255C209.845 264.444 209.938 263.274 210.366 261.869C211.22 259.065 213.42 255.28 218.862 251.505C224.3 247.733 228.613 247 231.538 247.183C233.004 247.275 234.131 247.597 234.887 247.893C235.265 248.041 235.55 248.183 235.738 248.285C235.832 248.337 235.902 248.378 235.946 248.406C235.969 248.42 235.985 248.43 235.995 248.437L236.002 248.442L317.308 308.61C317.184 308.769 317.016 308.984 316.806 309.25C316.306 309.882 315.568 310.802 314.616 311.948C312.761 314.182 310.094 317.278 306.794 320.796L275.346 294.689L274.777 295.296L302.834 324.903C296.446 331.413 289.49 337.342 282.049 342.618C281.376 343.085 280.696 343.542 280.012 343.994L240.133 288.047L239.43 288.493L272.956 348.345C268.005 351.178 262.916 353.763 257.707 356.089L246.996 332.612L246.215 332.898L253.296 358.001C248.751 359.908 244.829 361.358 242.023 362.337C240.586 362.839 239.442 363.216 238.658 363.469Z" fill="#D9EDFF" stroke="#2B2D54" stroke-width="0.833333"/>
<g style="mix-blend-mode:multiply" opacity="0.7">
<path d="M250.073 359.769L217.625 264.169L216.122 264.067L247.988 360.586C248.661 360.327 249.354 360.056 250.073 359.769Z" fill="#B6D2ED"/>
</g>
<g style="mix-blend-mode:multiply" opacity="0.7">
<path d="M237.572 364.247C237.572 364.247 239.992 363.522 243.914 362.108L214.963 264.871L209.909 261.956C209.425 263.454 209.311 265.047 209.577 266.599L237.566 364.238L237.572 364.247Z" fill="#B6D2ED"/>
</g>
<g style="mix-blend-mode:multiply" opacity="0.7">
<path d="M265.855 352.656L219.866 261.47L218.562 262.375L263.041 354.056C263.97 353.605 264.908 353.138 265.855 352.656Z" fill="#B6D2ED"/>
</g>
<g style="mix-blend-mode:multiply" opacity="0.7">
<path d="M225.934 258.406L224.388 259.478L286.575 339.824C287.197 339.351 287.819 338.879 288.429 338.397L225.934 258.406Z" fill="#B6D2ED"/>
</g>
<g style="mix-blend-mode:multiply" opacity="0.7">
<path d="M229.057 255.095L227.137 256.426L292.309 335.212C293.987 333.789 295.609 332.355 297.168 330.922L229.057 255.095Z" fill="#B6D2ED"/>
</g>
<g style="mix-blend-mode:multiply" opacity="0.7">
<path d="M317.897 308.528L236.243 248.102C236.243 248.102 232.245 245.334 225.286 247.699L225.671 250.215L312.725 314.825C316.014 311.011 317.897 308.528 317.897 308.528Z" fill="#B6D2ED"/>
</g>
<path d="M209.577 266.599C209.577 266.599 207.604 258.808 218.625 251.163C229.638 243.524 236.243 248.102 236.243 248.102C236.243 248.102 228.642 263.957 209.577 266.599Z" fill="#7DA9D1"/>
<g style="mix-blend-mode:multiply">
<path d="M218.625 251.163C212.204 255.617 210.197 260.117 209.637 263.1C214.401 262.099 218.915 260.152 222.911 257.373C226.908 254.594 230.306 251.041 232.903 246.925C229.91 246.414 225.01 246.734 218.625 251.163Z" fill="#7DA9D1"/>
</g>
<path d="M323.929 310.397L323.93 310.397C324.15 310.56 324.336 310.764 324.477 310.998C324.619 311.233 324.712 311.493 324.753 311.763C324.793 312.034 324.78 312.31 324.714 312.576C324.648 312.841 324.53 313.091 324.368 313.311C324.205 313.531 324 313.717 323.766 313.858C323.531 313.999 323.271 314.092 323 314.132L323.053 314.488L323 314.132C322.729 314.172 322.453 314.159 322.188 314.092C321.923 314.026 321.673 313.907 321.453 313.744L321.453 313.744L235.072 249.822L235.057 249.811L235.04 249.801C234.738 249.618 233.222 248.791 230.624 248.815C228.024 248.838 224.375 249.713 219.811 252.88C210.329 259.456 211.539 265.866 211.596 266.087L211.596 266.087L211.599 266.098L241.215 369.401L241.215 369.402C241.291 369.665 241.314 369.94 241.283 370.212C241.253 370.484 241.169 370.748 241.036 370.987C240.904 371.226 240.725 371.437 240.511 371.608C240.297 371.778 240.051 371.905 239.788 371.98C239.525 372.056 239.25 372.078 238.978 372.047C238.706 372.016 238.443 371.932 238.204 371.799C237.964 371.666 237.754 371.487 237.584 371.273C237.413 371.058 237.287 370.813 237.212 370.549L237.212 370.549L207.577 267.175C207.522 266.955 206.983 264.636 207.933 261.34C208.888 258.021 211.362 253.672 217.437 249.458C223.513 245.244 228.454 244.45 231.889 244.711C235.292 244.971 237.259 246.27 237.423 246.383L323.929 310.397Z" fill="#4B73F3" stroke="#2B2D54" stroke-width="0.833333"/>
</g>
<g clip-path="url(#clip8_808_1058)">
<path d="M334.441 284.544C334.282 284.861 334.153 285.113 334.059 285.298L245.129 237.107L245.121 237.102C245.111 237.096 245.095 237.086 245.073 237.071C245.029 237.043 244.962 236.997 244.875 236.934C244.703 236.807 244.454 236.608 244.16 236.328C243.572 235.769 242.803 234.883 242.099 233.594C240.695 231.02 239.534 226.8 240.65 220.271C241.765 213.748 244.262 210.156 246.441 208.196C247.533 207.214 248.553 206.635 249.293 206.302C249.663 206.136 249.964 206.032 250.169 205.969C250.271 205.938 250.35 205.917 250.401 205.905C250.427 205.899 250.445 205.894 250.457 205.892L250.466 205.89L350.354 189.981C350.382 190.181 350.417 190.452 350.46 190.788C350.561 191.588 350.701 192.758 350.852 194.241C351.148 197.129 351.49 201.201 351.691 206.02L311.032 210.189L311.067 211.02L351.85 211.724C352.024 220.843 351.385 229.961 349.941 238.968C349.803 239.774 349.653 240.58 349.497 241.384L281.632 230.676L281.457 231.489L347.662 249.469C346.218 254.987 344.499 260.43 342.512 265.777L318.251 256.984L317.909 257.741L340.788 270.266C338.967 274.845 337.255 278.661 335.99 281.349C335.341 282.726 334.81 283.808 334.441 284.544Z" fill="#D9EDFF" stroke="#2B2D54" stroke-width="0.833333"/>
<g style="mix-blend-mode:multiply" opacity="0.7">
<path d="M339.793 273.804L248.824 230.023L247.699 231.024L338.916 275.865C339.202 275.203 339.494 274.518 339.793 273.804Z" fill="#B6D2ED"/>
</g>
<g style="mix-blend-mode:multiply" opacity="0.7">
<path d="M334.235 285.864C334.235 285.864 335.412 283.629 337.149 279.838L247.461 232.414L241.841 233.981C242.571 235.376 243.628 236.572 244.922 237.469L334.225 285.862L334.235 285.864Z" fill="#B6D2ED"/>
</g>
<g style="mix-blend-mode:multiply" opacity="0.7">
<path d="M345.766 257.556L248.466 226.532L248.199 228.097L344.795 260.546C345.124 259.566 345.447 258.569 345.766 257.556Z" fill="#B6D2ED"/>
</g>
<g style="mix-blend-mode:multiply" opacity="0.7">
<path d="M250.528 220.055L250.211 221.909L351.116 233.779C351.213 233.004 351.312 232.23 351.395 231.457L250.528 220.055Z" fill="#B6D2ED"/>
</g>
<g style="mix-blend-mode:multiply" opacity="0.7">
<path d="M250.351 215.507L249.957 217.81L351.839 226.456C351.998 224.262 352.11 222.1 352.178 219.983L250.351 215.507Z" fill="#B6D2ED"/>
</g>
<g style="mix-blend-mode:multiply" opacity="0.7">
<path d="M350.708 189.503L250.391 205.48C250.391 205.48 245.616 206.396 242.431 213.02L244.497 214.506L351.582 197.605C351.162 192.586 350.708 189.503 350.708 189.503Z" fill="#B6D2ED"/>
</g>
<path d="M244.922 237.469C244.922 237.469 237.979 233.422 240.239 220.201C242.498 206.99 250.391 205.48 250.391 205.48C250.391 205.48 256.387 222.008 244.922 237.469Z" fill="#7DA9D1"/>
<g style="mix-blend-mode:multiply">
<path d="M240.239 220.202C238.923 227.904 240.729 232.488 242.467 234.977C245.088 230.875 246.859 226.289 247.674 221.49C248.489 216.691 248.332 211.777 247.212 207.04C244.751 208.819 241.549 212.541 240.239 220.202Z" fill="#7DA9D1"/>
</g>
<path d="M356.267 186.506L356.268 186.506C356.538 186.463 356.814 186.473 357.08 186.536C357.346 186.6 357.598 186.715 357.819 186.875C358.041 187.036 358.229 187.238 358.372 187.472C358.515 187.705 358.611 187.964 358.654 188.234C358.697 188.504 358.687 188.78 358.623 189.047C358.559 189.313 358.444 189.564 358.283 189.785L358.574 189.997L358.283 189.785C358.122 190.007 357.919 190.194 357.686 190.337C357.452 190.48 357.193 190.576 356.923 190.618L356.922 190.618L250.8 207.521L250.781 207.524L250.762 207.529C250.421 207.616 248.769 208.12 246.966 209.991C245.162 211.863 243.232 215.081 242.296 220.557C240.351 231.931 245.774 235.556 245.972 235.67L245.972 235.67L245.982 235.675L340.467 286.873L340.467 286.874C340.708 287.004 340.921 287.18 341.094 287.392C341.266 287.605 341.396 287.849 341.474 288.111C341.552 288.374 341.578 288.649 341.549 288.921C341.521 289.193 341.439 289.457 341.309 289.698C341.178 289.938 341.002 290.151 340.789 290.323C340.577 290.496 340.332 290.624 340.07 290.702C339.807 290.78 339.532 290.805 339.26 290.776C338.988 290.747 338.724 290.665 338.483 290.535L338.483 290.534L243.934 239.301C243.738 239.186 241.706 237.947 240.017 234.961C238.317 231.955 236.945 227.143 238.191 219.855C239.437 212.566 242.33 208.484 244.923 206.215C247.491 203.967 249.795 203.473 249.991 203.434L356.267 186.506Z" fill="#4B73F3" stroke="#2B2D54" stroke-width="0.833333"/>
</g>
<path d="M215.096 396.343C194.866 404.432 195.589 402.688 172.125 399.318C178.019 401.798 184.597 402.789 184.597 402.789C184.597 402.789 184.597 411.219 172.125 435.246C153.286 471.537 174.858 484.117 190.577 484.117C206.296 484.117 225.237 476.252 213.131 441.426C199.462 402.105 200.146 402.789 200.146 402.789C200.146 402.789 210.482 401.798 215.096 396.343Z" fill="#F08300"/>
<path d="M149.671 417.042C147.701 413.622 146.609 416.091 145.913 417.676C144.939 419.896 144.661 420.53 144.661 420.53L138.761 433.982C132.28 449.736 139.986 454.464 147.029 454.464C154.072 454.464 162.558 451.168 157.134 436.571C151.01 420.091 151.316 420.378 151.316 420.378C151.316 420.378 151.316 419.896 149.671 417.042Z" fill="#F08300"/>
<path d="M246.756 452.044C243.54 447.77 242.305 451.191 241.519 453.388C240.419 456.464 240.105 457.342 240.105 457.342L233.445 475.976C226.25 497.744 237.745 502.987 247.709 502.045C257.672 501.104 269.265 495.597 259.762 476.956C249.032 455.911 249.501 456.251 249.501 456.251C249.501 456.251 249.441 455.611 246.756 452.044Z" fill="#F08300"/>
<path d="M171.022 494.14C169.051 490.72 167.96 493.189 167.264 494.775C166.29 496.994 166.011 497.629 166.011 497.629L160.112 511.08C153.63 526.834 161.337 531.562 168.38 531.562C175.422 531.562 183.909 528.266 178.484 513.669C172.36 497.19 172.666 497.476 172.666 497.476C172.666 497.476 172.666 496.994 171.022 494.14Z" fill="#F08300"/>
<path d="M18.6679 70.0824C17.99 70.8843 17.2582 71.5158 16.4727 71.9768C15.675 72.4275 14.8216 72.6853 13.9126 72.7502C13.0016 72.7927 12.0383 72.6137 11.0225 72.2134C10.0169 71.8009 8.96739 71.1324 7.8738 70.2079C7.09614 69.5505 6.44181 68.8828 5.9108 68.2047C5.37979 67.5267 4.96603 66.8331 4.66952 66.1241C4.36086 65.4048 4.18067 64.6691 4.12893 63.917C4.07531 63.1425 4.15109 62.3628 4.35628 61.5778C4.55958 60.7705 4.89135 59.9467 5.35158 59.1066L8.36643 53.6548L11.1323 55.3367L8.47036 60.1492C8.31352 60.4333 8.1441 60.7693 7.96209 61.1571C7.7782 61.5225 7.6317 61.93 7.52259 62.3794C7.42376 62.8167 7.40716 63.2923 7.4728 63.8062C7.53657 64.2976 7.73255 64.8174 8.06075 65.3657C8.3768 65.9037 8.86898 66.4552 9.53728 67.0202C9.74384 67.1948 9.90694 67.3223 10.0266 67.4026C10.1565 67.4707 10.2873 67.5501 10.4191 67.6406C10.5612 67.719 10.7598 67.8661 11.0149 68.0818L9.35145 68.2382C9.00634 67.4881 8.80791 66.737 8.75617 65.9849C8.71471 65.2206 8.82181 64.4778 9.07748 63.7564C9.33126 63.0125 9.74577 62.3004 10.321 61.6199C11.1017 60.6964 11.9731 60.0476 12.9352 59.6734C13.8955 59.2769 14.8742 59.1666 15.8712 59.3427C16.8682 59.5189 17.792 59.9664 18.6425 60.6855C19.566 61.4661 20.185 62.3852 20.4994 63.4427C20.8017 64.4899 20.798 65.591 20.4883 66.746C20.1889 67.8888 19.5821 69.0009 18.6679 70.0824ZM16.5858 68.0722C16.9864 67.5983 17.2375 67.0918 17.3391 66.5527C17.4285 66.0032 17.3792 65.4824 17.1912 64.9901C17.0013 64.4754 16.6816 64.028 16.232 63.6479C15.7945 63.2781 15.3184 63.0527 14.8036 62.9717C14.299 62.8785 13.7954 62.932 13.2928 63.1321C12.7903 63.3323 12.3335 63.6754 11.9227 64.1615C11.5221 64.6353 11.2598 65.1428 11.1357 65.6838C10.9996 66.2146 11.0082 66.7219 11.1617 67.2058C11.3151 67.6897 11.6106 68.1166 12.048 68.4864C12.4976 68.8664 12.998 69.1124 13.5493 69.2242C14.0988 69.3137 14.6369 69.2686 15.1638 69.0889C15.7009 68.8972 16.1749 68.5583 16.5858 68.0722Z" fill="#F08300"/>
<path d="M30.0239 57.5908C28.9851 58.6221 27.8687 59.3268 26.6748 59.705C25.4921 60.072 24.3387 60.1184 23.2147 59.8443C22.0794 59.5589 21.0633 58.9646 20.1666 58.0612C19.2586 57.1466 18.666 56.1319 18.3887 55.0171C18.1116 53.8797 18.1438 52.7492 18.4855 51.6253C18.8158 50.4902 19.444 49.463 20.3699 48.5438C21.2619 47.6583 22.2542 47.0543 23.3467 46.732C24.4393 46.3872 25.5476 46.3631 26.6716 46.6597C27.7843 46.945 28.8284 47.5789 29.8036 48.5612C29.9045 48.6629 30.0166 48.787 30.1398 48.9337C30.2518 49.0691 30.3582 49.1989 30.459 49.323L23.0574 56.671L21.5273 55.1297L27.54 49.1605L26.9778 50.6267C26.507 50.1525 26.0018 49.8356 25.4624 49.6762C24.9229 49.5167 24.3885 49.5091 23.8592 49.6535C23.3187 49.7865 22.8226 50.0772 22.371 50.5256C21.9193 50.974 21.6193 51.4736 21.4711 52.0243C21.3229 52.5526 21.3322 53.0926 21.4989 53.6445C21.6545 54.1851 21.9733 54.6982 22.4553 55.1837L22.8588 55.5902C23.3521 56.0871 23.8965 56.4209 24.4922 56.5919C25.0879 56.7403 25.6843 56.7199 26.2813 56.5309C26.8783 56.3193 27.4479 55.9444 27.9899 55.4064C28.4754 54.9243 28.826 54.4306 29.0416 53.9251C29.2685 53.4084 29.3886 52.8519 29.402 52.2556L32.3211 52.3844C32.3742 53.2734 32.2134 54.1616 31.8389 55.0491C31.4532 55.9252 30.8482 56.7725 30.0239 57.5908Z" fill="#F08300"/>
<path d="M39.1925 49.1364C38.4415 49.776 37.6234 50.3369 36.7383 50.819C35.8652 51.2908 34.9797 51.6374 34.0815 51.8589L33.158 49.2284C33.861 49.0477 34.5599 48.7764 35.2549 48.4145C35.9516 48.0302 36.6028 47.5801 37.2085 47.0643C37.6445 46.6929 37.9839 46.3307 38.2267 45.9777C38.4712 45.6023 38.6061 45.2576 38.6312 44.9435C38.6564 44.6295 38.5658 44.3514 38.3595 44.1091C38.0913 43.7942 37.7569 43.6714 37.3563 43.7409C36.9454 43.7983 36.4855 44.0436 35.9767 44.4769L33.978 46.179L32.477 44.4165L34.2396 42.9155C34.5666 42.637 34.8143 42.3634 34.9825 42.0947C35.1508 41.826 35.2327 41.5786 35.2282 41.3525C35.2256 41.104 35.1417 40.8828 34.9767 40.689C34.8013 40.4831 34.579 40.3693 34.3099 40.3478C34.0407 40.3262 33.7359 40.3977 33.3954 40.5623C33.0446 40.7148 32.6572 40.9715 32.2332 41.3326C31.7487 41.7452 31.2975 42.2339 30.8798 42.7986C30.4518 43.3512 30.0581 43.9687 29.6986 44.6509L27.337 43.2766C27.752 42.4633 28.2075 41.7098 28.7033 41.0158C29.1991 40.3219 29.7507 39.7059 30.3582 39.1676C31.246 38.3697 32.1462 37.7703 33.0587 37.3694C33.9712 36.9685 34.8088 36.7986 35.5714 36.8597C36.3461 36.9105 36.9862 37.2326 37.4917 37.8262C37.894 38.2986 38.1097 38.8464 38.1388 39.4695C38.18 40.0823 38.0451 40.7092 37.7341 41.3502C37.4128 41.9791 36.9433 42.5566 36.3255 43.0827L35.9185 42.4575C36.9966 41.5394 38.0302 41.0353 39.0194 40.9453C39.9982 40.8431 40.8023 41.1615 41.4316 41.9004C41.968 42.5303 42.2193 43.2672 42.1856 44.111C42.1536 44.9324 41.8765 45.7849 41.3542 46.6685C40.8337 47.5298 40.1131 48.3524 39.1925 49.1364Z" fill="#F08300"/>
<path d="M51.3476 39.0229L44.1791 28.3701L49.6242 24.7059C50.9575 23.8088 52.1647 23.3512 53.2457 23.3333C54.318 23.3022 55.1472 23.7223 55.7335 24.5935C56.3197 25.4647 56.4252 26.391 56.05 27.3723C55.679 28.3315 54.9127 29.2019 53.7511 29.9836L53.5882 29.0576C54.8818 28.1871 56.0054 27.7762 56.9588 27.8251C57.9254 27.865 58.7151 28.3404 59.328 29.2513C59.9587 30.1885 60.0998 31.1675 59.7511 32.1884C59.4025 33.2093 58.4956 34.2128 57.0303 35.1988L51.3476 39.0229ZM52.7667 35.0186L55.3605 33.2731C55.9282 32.8912 56.2884 32.5145 56.4412 32.1432C56.5984 31.7497 56.5438 31.355 56.2773 30.959C56.0019 30.5498 55.67 30.3416 55.2817 30.3345C54.8844 30.3141 54.402 30.4949 53.8344 30.8769L51.1811 32.6623L52.7667 35.0186ZM49.9552 30.8407L52.2917 29.2684C52.8329 28.9042 53.1689 28.5343 53.2997 28.1586C53.4436 27.7741 53.3913 27.397 53.1426 27.0274C52.8849 26.6446 52.5554 26.454 52.1538 26.4558C51.7654 26.4486 51.3006 26.6271 50.7594 26.9913L48.4229 28.5636L49.9552 30.8407Z" fill="#F08300"/>
<path d="M69.8942 27.518C68.6985 28.1834 67.4957 28.525 66.2856 28.5428C65.0895 28.5529 63.9805 28.2778 62.9586 27.7175C61.9429 27.1356 61.1255 26.2885 60.5066 25.1762C59.8799 24.0501 59.5909 22.909 59.6396 21.753C59.6944 20.5754 60.0452 19.4879 60.6921 18.4907C61.3451 17.4718 62.2694 16.6297 63.4651 15.9644C64.6469 15.3068 65.8428 14.969 67.0528 14.9512C68.2551 14.9195 69.3603 15.1876 70.3683 15.7556C71.3763 16.3237 72.1975 17.1777 72.8319 18.3178C73.4508 19.43 73.7398 20.5711 73.6989 21.741C73.6502 22.897 73.2994 23.9844 72.6464 25.0033C71.9934 26.0222 71.076 26.8604 69.8942 27.518ZM68.4088 24.8486C68.951 24.5469 69.368 24.1509 69.6597 23.6609C69.9515 23.1708 70.0948 22.6267 70.0898 22.0286C70.077 21.4166 69.8927 20.7909 69.5368 20.1513C69.1732 19.4979 68.7386 19.0114 68.233 18.6918C67.7274 18.3723 67.1895 18.2073 66.6193 18.1969C66.049 18.1864 65.4928 18.3321 64.9505 18.6338C64.4083 18.9355 63.9913 19.3314 63.6996 19.8215C63.4078 20.3116 63.2575 20.8596 63.2487 21.4654C63.2537 22.0635 63.4381 22.6892 63.8017 23.3427C64.1576 23.9822 64.5922 24.4687 65.1055 24.8022C65.6249 25.114 66.1698 25.2751 66.7401 25.2855C67.3103 25.296 67.8666 25.1503 68.4088 24.8486Z" fill="#F08300"/>
<path d="M84.8171 17.9944L81.4896 10.5935L77.6585 12.3159L78.2685 13.8472C78.52 14.4843 78.7513 15.0956 78.9622 15.6811C79.1731 16.2666 79.3177 16.821 79.3958 17.344C79.482 17.8461 79.4808 18.309 79.3921 18.7326C79.2969 19.1417 79.0795 19.4924 78.7399 19.7847L75.1724 20.813C75.5933 20.6237 75.8788 20.3471 76.0291 19.9829C76.1729 19.6043 76.2162 19.1574 76.1591 18.6423C76.0954 18.1127 75.9694 17.5413 75.7809 16.9282C75.586 16.3006 75.3562 15.6538 75.0916 14.9877L73.4237 10.8705L83.6326 6.28052L88.2128 16.4677L84.8171 17.9944ZM77.1686 26.3004L74.7806 20.9891L89.3213 14.4516L91.7092 19.7629L88.5529 21.1819L87.4177 18.6569L79.1896 22.3563L80.3248 24.8813L77.1686 26.3004Z" fill="#F08300"/>
<path d="M92.3787 16.5009L88.1857 4.36475L91.6822 3.15672L94.1762 10.3753L97.5924 1.11477L100.818 0.000275764L105.011 12.1364L101.515 13.3445L99.0207 6.12593L95.6271 15.3786L92.3787 16.5009Z" fill="#F08300"/>
<path d="M316.909 31.1736L323.235 20L334.346 26.2907L328.02 37.4643L324.78 35.63L330.013 26.3879L330.328 27.5264L324.222 24.0694L325.36 23.754L320.128 32.9961L316.909 31.1736Z" fill="#F08300"/>
<path d="M335.618 42.6725C334.488 41.9003 333.645 40.9769 333.088 39.9025C332.545 38.837 332.295 37.722 332.34 36.5574C332.406 35.3887 332.799 34.2789 333.517 33.2281C334.244 32.1642 335.136 31.3956 336.192 30.9225C337.27 30.4452 338.399 30.2729 339.581 30.4059C340.784 30.5346 341.95 30.9851 343.08 31.7573C344.196 32.5205 345.033 33.4394 345.59 34.5139C346.156 35.5752 346.41 36.6837 346.352 37.8393C346.294 38.9948 345.898 40.1112 345.161 41.1882C344.443 42.239 343.551 43.0076 342.486 43.4939C341.431 43.967 340.301 44.1392 339.098 44.0105C337.894 43.8817 336.735 43.4357 335.618 42.6725ZM337.342 40.1506C337.854 40.5008 338.395 40.6968 338.964 40.7388C339.533 40.7807 340.083 40.6657 340.616 40.3939C341.158 40.1089 341.635 39.6644 342.048 39.0602C342.47 38.4428 342.711 37.8366 342.771 37.2415C342.831 36.6464 342.738 36.0915 342.493 35.5767C342.247 35.0619 341.868 34.6294 341.356 34.2792C340.844 33.929 340.303 33.733 339.734 33.6911C339.165 33.6491 338.608 33.7596 338.062 34.0224C337.529 34.2943 337.052 34.7389 336.63 35.3562C336.217 35.9604 335.976 36.5666 335.907 37.1748C335.86 37.7789 335.96 38.3383 336.205 38.8531C336.451 39.3679 336.83 39.8004 337.342 40.1506Z" fill="#F08300"/>
<path d="M352.776 55.8412C351.729 54.936 350.978 53.9191 350.524 52.7903C350.08 51.6494 349.951 50.4969 350.137 49.3328C350.335 48.179 350.85 47.1206 351.682 46.1576C352.525 45.1825 353.497 44.5195 354.6 44.1684C355.725 43.8158 356.879 43.7825 358.061 44.0687C359.254 44.3427 360.375 44.9324 361.422 45.8375C362.445 46.7218 363.149 47.7084 363.533 48.7972C363.927 49.874 363.961 50.9657 363.636 52.0723L360.437 51.3577C360.579 50.6818 360.551 50.069 360.353 49.5194C360.168 48.9802 359.852 48.5182 359.406 48.1332C358.925 47.7171 358.398 47.4509 357.825 47.3346C357.253 47.2184 356.681 47.2601 356.109 47.4596C355.549 47.6696 355.024 48.0575 354.535 48.6233C354.046 49.1891 353.738 49.7643 353.612 50.3488C353.497 50.9437 353.539 51.516 353.737 52.0656C353.935 52.6152 354.274 53.0981 354.756 53.5142C355.201 53.8992 355.699 54.1506 356.249 54.2685C356.822 54.3847 357.437 54.3173 358.096 54.0663L359.251 57.1464C358.213 57.6167 357.128 57.7409 355.995 57.5188C354.873 57.2847 353.8 56.7255 352.776 55.8412Z" fill="#F08300"/>
<path d="M356.872 65.7604C356.403 65.2845 356.014 64.7416 355.703 64.1318C355.392 63.522 355.222 62.9413 355.192 62.3898L358.034 61.4991C358.054 61.8818 358.141 62.2537 358.296 62.6148C358.462 62.9873 358.674 63.3039 358.931 63.5645C359.299 63.9385 359.68 64.1438 360.074 64.1804C360.467 64.2395 360.957 64.1587 361.544 63.9379L363.135 63.3082L363.625 63.2274L374.745 58.7346L377.258 61.2844L363.481 66.7198C362.454 67.1511 361.541 67.3807 360.742 67.4087C359.954 67.4479 359.246 67.319 358.618 67.022C358.002 66.7362 357.42 66.3157 356.872 65.7604ZM361.49 64.292L366.972 50.8475L369.669 53.5842L365.136 64.2847L361.49 64.292Z" fill="#F08300"/>
<path d="M371.7 74.4567L379.829 67.5848L379.712 68.7774L376.369 64.8223L378.702 62.8501L386.698 72.3096L384.365 74.2818L381.022 70.3267L382.217 70.4099L374.088 77.2818L371.7 74.4567Z" fill="#F08300"/>
<path d="M378.028 82.1646L388.272 74.4232L390.517 77.3936L380.273 85.135L378.028 82.1646ZM390.822 74.8292C390.41 74.2834 390.233 73.7192 390.291 73.1366C390.349 72.5541 390.613 72.0853 391.083 71.7304C391.553 71.3754 392.076 71.2494 392.652 71.3523C393.228 71.4553 393.723 71.7796 394.135 72.3255C394.548 72.8713 394.731 73.4307 394.686 74.0037C394.653 74.567 394.401 75.0262 393.932 75.3811C393.437 75.7552 392.895 75.8956 392.306 75.8023C391.739 75.7121 391.244 75.3877 390.822 74.8292Z" fill="#F08300"/>
<path d="M323.458 420.136C322.875 420.463 322.249 420.696 321.579 420.835C320.909 420.974 320.304 420.985 319.764 420.868L319.653 417.892C320.028 417.974 320.41 417.988 320.799 417.934C321.202 417.872 321.563 417.751 321.882 417.572C322.34 417.315 322.638 417.002 322.777 416.632C322.938 416.268 322.989 415.774 322.931 415.15L322.743 413.449L322.794 412.955L321.39 401.044L324.512 399.291L326.125 414.014C326.27 415.118 326.251 416.059 326.068 416.837C325.898 417.608 325.587 418.257 325.135 418.784C324.697 419.304 324.138 419.754 323.458 420.136ZM323.258 415.294L311.733 406.464L315.084 404.583L324.212 411.776L323.258 415.294Z" fill="#4B73F3"/>
<path d="M342.047 403.071L335.076 400.446L336.58 397.263L345.682 400.606L342.047 403.071ZM334.522 408.175L327.314 397.549L330.396 395.459L337.603 406.085L334.522 408.175ZM333.962 402.672L332.287 400.203L336 397.685L337.675 400.154L333.962 402.672ZM337.934 398.622L334.836 400.262L334.939 392.378L338.217 390.154L337.934 398.622Z" fill="#4B73F3"/>
<path d="M353.658 394.527C352.817 395.207 351.93 395.617 350.999 395.756C350.068 395.895 349.118 395.732 348.149 395.268C347.182 394.781 346.229 393.956 345.288 392.793C344.338 391.617 343.725 390.517 343.449 389.492C343.172 388.468 343.2 387.515 343.531 386.633C343.862 385.752 344.466 384.956 345.345 384.246C346.285 383.485 347.301 383.022 348.394 382.854C349.489 382.665 350.563 382.778 351.616 383.195C352.682 383.602 353.635 384.325 354.475 385.365C355.325 386.416 355.838 387.506 356.013 388.633C356.2 389.75 356.086 390.824 355.672 391.855C355.27 392.876 354.598 393.767 353.658 394.527ZM350.547 402.751L339.563 389.166L342.328 386.93L343.979 388.972L346.324 391.986L348.896 394.787L353.443 400.41L350.547 402.751ZM351.236 392.557C351.719 392.167 352.055 391.71 352.247 391.187C352.45 390.654 352.498 390.094 352.391 389.506C352.286 388.895 352.003 388.305 351.543 387.736C351.073 387.154 350.555 386.754 349.99 386.536C349.437 386.308 348.879 386.238 348.315 386.325C347.764 386.402 347.247 386.636 346.764 387.026C346.282 387.416 345.939 387.878 345.735 388.411C345.532 388.944 345.484 389.504 345.591 390.093C345.699 390.681 345.987 391.266 346.458 391.847C346.918 392.417 347.429 392.821 347.992 393.062C348.545 393.29 349.103 393.361 349.667 393.273C350.231 393.186 350.754 392.947 351.236 392.557Z" fill="#4B73F3"/>
<path d="M367.43 381.996L365.691 380.192L365.138 379.963L362.023 376.733C361.471 376.16 360.863 375.885 360.199 375.906C359.546 375.917 358.859 376.27 358.137 376.966C357.645 377.441 357.235 377.99 356.909 378.615C356.583 379.216 356.381 379.809 356.303 380.393L353.535 379.448C353.696 378.607 354.038 377.747 354.561 376.867C355.083 375.988 355.711 375.195 356.444 374.488C357.852 373.129 359.266 372.407 360.686 372.32C362.105 372.233 363.494 372.894 364.853 374.303L369.939 379.577L367.43 381.996ZM364.745 384.85C364.024 385.546 363.289 386.022 362.542 386.279C361.784 386.524 361.063 386.567 360.379 386.408C359.696 386.25 359.1 385.907 358.592 385.38C358.062 384.83 357.73 384.222 357.595 383.556C357.473 382.878 357.593 382.144 357.956 381.351C358.308 380.547 358.954 379.693 359.893 378.787L362.35 376.418L363.857 377.981L361.693 380.069C361.063 380.676 360.727 381.199 360.685 381.637C360.655 382.064 360.789 382.432 361.087 382.742C361.419 383.085 361.815 383.233 362.278 383.185C362.74 383.115 363.206 382.853 363.676 382.4C364.123 381.97 364.424 381.48 364.58 380.931C364.725 380.371 364.679 379.808 364.442 379.241L366.047 380.08C366.427 380.864 366.508 381.658 366.291 382.465C366.074 383.271 365.559 384.066 364.745 384.85Z" fill="#4B73F3"/>
<path d="M373.518 375.789L364.052 367.114L366.567 364.369L376.034 373.044L373.518 375.789ZM365.312 363.09C365.011 363.418 364.647 363.592 364.22 363.61C363.793 363.629 363.403 363.477 363.051 363.155C362.699 362.832 362.514 362.457 362.496 362.03C362.477 361.603 362.618 361.225 362.919 360.897C363.22 360.568 363.579 360.401 363.995 360.394C364.422 360.375 364.812 360.527 365.164 360.85C365.516 361.172 365.701 361.547 365.719 361.974C365.749 362.389 365.613 362.761 365.312 363.09ZM362.668 365.975C362.377 366.292 362.019 366.46 361.592 366.479C361.164 366.497 360.775 366.345 360.423 366.023C360.071 365.7 359.886 365.325 359.867 364.898C359.849 364.471 359.984 364.099 360.275 363.783C360.576 363.454 360.94 363.281 361.367 363.262C361.794 363.243 362.183 363.395 362.535 363.718C362.887 364.04 363.073 364.415 363.091 364.842C363.11 365.269 362.969 365.647 362.668 365.975Z" fill="#4B73F3"/>
<path d="M379.392 369.404L369.378 361.367L371.693 358.482L375.602 361.619L379.098 357.263L375.189 354.126L377.519 351.223L387.533 359.259L385.203 362.163L381.461 359.16L377.966 363.516L381.707 366.518L379.392 369.404Z" fill="#4B73F3"/>
<path d="M393.632 350.882C392.855 352.028 391.932 352.892 390.864 353.475C389.783 354.049 388.653 354.311 387.475 354.262C386.306 354.2 385.195 353.811 384.142 353.097C383.075 352.373 382.303 351.484 381.826 350.43C381.345 349.354 381.177 348.212 381.324 347.004C381.457 345.787 381.912 344.606 382.689 343.46C383.448 342.341 384.346 341.527 385.383 341.019C386.407 340.502 387.487 340.341 388.624 340.535L388.287 343.796C387.599 343.733 386.993 343.832 386.471 344.093C385.957 344.34 385.535 344.708 385.204 345.195C384.847 345.721 384.644 346.276 384.595 346.858C384.546 347.44 384.654 348.004 384.919 348.549C385.193 349.08 385.639 349.556 386.258 349.976C386.877 350.396 387.484 350.634 388.079 350.692C388.684 350.737 389.247 350.629 389.77 350.368C390.293 350.107 390.733 349.714 391.09 349.187C391.421 348.7 391.612 348.176 391.665 347.616C391.714 347.034 391.575 346.431 391.25 345.806L394.174 344.3C394.762 345.275 395.012 346.339 394.923 347.49C394.821 348.632 394.391 349.763 393.632 350.882Z" fill="#4B73F3"/>
<path d="M394.564 332.388C395.409 330.929 396.372 330.002 397.454 329.609C398.53 329.194 399.656 329.32 400.833 329.986C402.065 330.684 402.781 331.665 402.979 332.929C403.164 334.186 402.817 335.589 401.939 337.14L398.744 342.736L387.57 336.41L389.392 333.191L392.965 335.213L394.564 332.388ZM399.469 336.125C399.836 335.51 399.975 334.958 399.886 334.469C399.797 333.98 399.476 333.579 398.922 333.265C398.368 332.951 397.879 332.894 397.456 333.093C397.019 333.284 396.617 333.688 396.25 334.303L395.042 336.389L398.282 338.223L399.469 336.125Z" fill="#4B73F3"/>
<path d="M410.404 320.342L403.077 321.683L402.726 318.18L412.25 316.357L410.404 320.342ZM406.583 328.593L394.932 323.198L396.497 319.819L408.148 325.215L406.583 328.593ZM403.269 324.165L400.561 322.912L402.447 318.84L405.154 320.094L403.269 324.165ZM404.588 318.648L402.777 321.649L398.803 314.838L400.468 311.243L404.588 318.648Z" fill="#4B73F3"/>
<path d="M415.57 308.113C415.098 309.397 414.411 310.442 413.506 311.245C412.606 312.034 411.587 312.55 410.447 312.793C409.298 313.015 408.126 312.908 406.931 312.469C405.721 312.026 404.757 311.35 404.039 310.443C403.311 309.515 402.867 308.463 402.705 307.285C402.535 306.087 402.685 304.845 403.156 303.561C403.621 302.291 404.307 301.254 405.211 300.451C406.101 299.641 407.113 299.123 408.248 298.895C409.382 298.667 410.562 298.777 411.786 299.227C412.982 299.665 413.946 300.34 414.679 301.253C415.397 302.16 415.841 303.213 416.012 304.411C416.183 305.609 416.035 306.843 415.57 308.113ZM412.701 307.061C412.915 306.478 412.972 305.906 412.873 305.345C412.774 304.783 412.527 304.277 412.133 303.828C411.724 303.372 411.175 303.019 410.488 302.767C409.786 302.509 409.139 302.425 408.548 302.513C407.956 302.601 407.441 302.827 407.002 303.192C406.564 303.556 406.238 304.03 406.024 304.612C405.81 305.195 405.753 305.767 405.852 306.329C405.951 306.891 406.195 307.404 406.584 307.868C406.978 308.318 407.527 308.671 408.229 308.929C408.916 309.181 409.563 309.266 410.169 309.183C410.766 309.08 411.284 308.846 411.723 308.482C412.162 308.117 412.488 307.644 412.701 307.061Z" fill="#4B73F3"/>
<path d="M419.157 297.604L406.715 294.434L407.628 290.849L412.207 292.016L413.138 288.362L416.26 289.157L415.329 292.811L420.07 294.019L419.157 297.604ZM422.341 285.879C422.015 287.159 421.447 288.229 420.637 289.09C419.826 289.95 418.87 290.544 417.769 290.871C416.652 291.194 415.477 291.199 414.244 290.884C412.995 290.566 411.965 290 411.155 289.186C410.329 288.368 409.773 287.389 409.489 286.25C409.189 285.106 409.203 283.894 409.529 282.615C409.855 281.335 410.421 280.272 411.227 279.427C412.022 278.562 412.978 277.969 414.095 277.646C415.196 277.319 416.371 277.314 417.62 277.632C418.853 277.947 419.883 278.513 420.709 279.331C421.535 280.149 422.098 281.129 422.398 282.273C422.686 283.397 422.667 284.599 422.341 285.879ZM419.381 285.125C419.53 284.539 419.523 283.987 419.359 283.469C419.2 282.936 418.899 282.473 418.457 282.082C418.003 281.671 417.422 281.375 416.713 281.194C415.988 281.009 415.336 280.991 414.756 281.139C414.181 281.271 413.695 281.534 413.3 281.925C412.908 282.302 412.638 282.783 412.489 283.369C412.344 283.939 412.349 284.499 412.505 285.048C412.664 285.581 412.963 286.051 413.401 286.458C413.843 286.85 414.427 287.138 415.151 287.323C415.861 287.503 416.511 287.53 417.102 287.401C417.681 287.253 418.169 286.983 418.564 286.591C418.963 286.184 419.236 285.695 419.381 285.125Z" fill="#4B73F3"/>
<defs>
<clipPath id="clip0_808_1058">
<rect width="390" height="390" fill="white" transform="translate(3 22)"/>
</clipPath>
<clipPath id="clip1_808_1058">
<rect width="101.408" height="120.476" fill="white" transform="translate(291.607 84.5005) rotate(44.5925)"/>
</clipPath>
<clipPath id="clip2_808_1058">
<rect width="103.543" height="123.013" fill="white" transform="translate(64.8603 116.316) rotate(-45.2478)"/>
</clipPath>
<clipPath id="clip3_808_1058">
<rect width="104.333" height="123.256" fill="white" transform="translate(170.505 52.6162) rotate(-0.81886)"/>
</clipPath>
<clipPath id="clip4_808_1058">
<rect width="104.333" height="123.256" fill="white" transform="translate(29.3994 235.964) rotate(-91.6294)"/>
</clipPath>
<clipPath id="clip5_808_1058">
<rect width="104.333" height="123.256" fill="white" transform="translate(102.403 346.002) rotate(-138.264)"/>
</clipPath>
<clipPath id="clip6_808_1058">
<rect width="104.333" height="123.256" fill="white" transform="translate(225.579 374.072) rotate(173.971)"/>
</clipPath>
<clipPath id="clip7_808_1058">
<rect width="104.333" height="123.256" fill="white" transform="translate(326.223 311.956) rotate(133.148)"/>
</clipPath>
<clipPath id="clip8_808_1058">
<rect width="104.333" height="123.256" fill="white" transform="translate(358.986 185.961) rotate(87.5968)"/>
</clipPath>
</defs>
</svg>
