<svg width="427" height="548" viewBox="0 0 427 548" fill="none" xmlns="http://www.w3.org/2000/svg">
<g clip-path="url(#clip0_802_931)">
<path d="M389.5 233C389.5 271.468 378.093 309.072 356.721 341.058C335.35 373.043 304.973 397.973 269.433 412.694C233.893 427.415 194.786 431.268 157.057 423.763C119.328 416.259 84.6712 397.735 57.4697 370.534C30.2681 343.333 11.7434 308.677 4.23795 270.948C-3.26745 233.219 0.583639 194.112 15.3041 158.572C30.0246 123.031 54.9534 92.6541 86.9381 71.2816C118.923 49.9091 156.527 38.501 194.995 38.5C220.538 38.4991 245.83 43.5294 269.429 53.3035C293.027 63.0777 314.469 77.4043 332.531 95.4654C350.593 113.526 364.92 134.968 374.695 158.566C384.469 182.165 389.5 207.457 389.5 233Z" fill="#E74614" stroke="#2B2D54"/>
<path d="M386.428 229.791C386.428 333.736 300.719 418.003 194.995 418.003C89.2717 418.003 3.56696 333.736 3.56696 229.791C3.56696 125.846 89.2717 41.5767 194.995 41.5767C300.719 41.5767 386.428 125.846 386.428 229.791Z" fill="#F08300"/>
<path d="M371.78 231.926C371.782 266.891 361.415 301.072 341.99 330.145C322.566 359.218 294.956 381.878 262.653 395.26C230.35 408.642 194.804 412.144 160.511 405.323C126.217 398.503 94.7164 381.666 69.9918 356.943C45.2672 332.219 28.4292 300.719 21.6073 266.426C14.7854 232.133 18.2859 196.587 31.6661 164.283C45.0463 131.979 67.7053 104.369 96.7777 84.9432C125.85 65.5174 160.03 55.1489 194.995 55.1489C241.88 55.1488 286.845 73.7733 319.998 106.925C353.152 140.077 371.778 185.041 371.78 231.926Z" fill="#FFFBD6"/>
<path d="M168.6 126.068C166.781 115.541 166.695 104.695 164.446 94.2105C159.945 73.2289 140.638 79.7848 125.561 85.7246C107.593 92.8109 57.8439 122.056 71.941 147.426C79.1665 160.442 95.148 167.996 107.411 175.42C123.054 184.887 139.334 193.386 154.169 204.143C158.454 207.25 162.117 211.176 166.538 214.132C194.364 232.698 176.31 168.238 174.572 158.85C172.541 147.928 170.49 137.027 168.6 126.068Z" fill="#F08300"/>
<path d="M165.013 223.579C165.947 220.762 164.174 217.473 158.141 213.62C144.297 204.76 130.204 196.163 116.209 187.518C103.364 179.582 89.9085 172.484 76.9435 164.727C70.951 161.145 60.2192 152.434 52.8317 156.62C39.073 164.424 37.244 196.385 36.0566 210.151C34.8945 223.647 31.4336 260.706 52.9026 259.615C53.0877 259.615 53.2718 259.643 53.4484 259.699C60.4814 257.349 67.4343 254.681 74.4932 252.286C89.3633 247.228 104.572 243.06 119.781 239.164C127.441 237.203 161.829 233.111 165.013 223.579Z" fill="#F08300"/>
<path d="M175.694 236.274C174.029 235.377 172.12 235.037 170.247 235.304C135.444 244.05 99.5189 252.12 65.7767 264.446C60.0719 266.525 54.3778 268.501 48.6021 270.188C47.3996 272.363 45.7222 274.043 44.5094 276.185C41.655 281.213 43.5549 288.198 45.3938 293.254C47.7271 299.628 50.732 305.736 54.3577 311.474C59.1473 319.093 63.8261 327.001 69.1517 334.267C76.1853 343.892 88.0238 359.819 101.565 358.934C117.526 357.888 125.237 333.261 132.356 322.059C142.31 306.401 151.461 290.202 161.839 274.826C165.861 268.854 190.094 241.337 175.694 236.274Z" fill="#F08300"/>
<path d="M220.785 378.928C220.708 378.64 220.696 378.339 220.748 378.045C220.801 377.752 220.917 377.474 221.088 377.23C220.805 376.551 220.502 375.937 220.254 375.179C220.143 374.878 220.114 374.554 220.168 374.238C220.222 373.923 220.358 373.627 220.562 373.38C211.134 332.829 201.761 292.281 193.065 251.574C192.518 251.345 192.083 250.91 191.853 250.364C190.125 246.233 186.719 247.238 183.99 249.469C168.034 274.872 152.765 300.686 136.636 325.985C131.24 334.453 125.849 342.952 120.589 351.512C120.6 351.921 120.479 352.323 120.245 352.659C119.695 353.422 119.144 354.139 118.588 354.821C116.633 362.709 114.399 371.217 123.388 376.616C127.838 379.254 132.562 381.401 137.475 383.021C145.683 386.022 154.054 388.559 162.547 390.62C180.383 394.475 200.705 396.794 218.076 389.71C219.438 388.311 220.407 386.577 220.882 384.684C221.358 382.79 221.324 380.804 220.785 378.928Z" fill="#F08300"/>
<path d="M339.089 191.684C341.889 189.904 344.118 187.357 345.514 184.348C346.909 181.338 347.412 177.991 346.962 174.704C338.966 153.911 326.79 134.978 311.188 119.076C306.327 114.357 300.494 110.757 294.097 108.528C287.699 106.298 280.892 105.493 274.151 106.169C273.909 106.338 273.606 106.505 273.383 106.661C253.183 141.97 231.092 176.131 209.022 210.311C202.766 220.009 214.944 219.15 220.729 217.892C255.325 210.363 289.997 203.194 324.618 195.789C329.14 194.829 333.661 193.853 338.18 192.861C338.318 192.365 338.644 191.943 339.089 191.684Z" fill="#F08300"/>
<path d="M263.985 105.813C266.572 96.1822 264.5 87.1148 251.297 80.3648C233.637 73.6098 214.888 70.1454 195.98 70.1431C192.863 70.1431 189.791 70.2817 186.728 70.4789C173.541 71.3176 170.267 87.2188 171.206 97.2533C172.965 115.857 177.366 134.547 180.191 153.04C183.474 170.851 186.905 188.632 190.483 206.382C193.984 223.71 210.941 195.817 213.74 191.156C225.615 171.438 238.044 152.081 250.105 132.486C255.903 124.255 260.571 115.284 263.985 105.813Z" fill="#F08300"/>
<path d="M345.718 294.623C349.45 285.533 352.343 276.121 354.363 266.504C358.279 243.509 357.198 216.998 350.528 203.37C347.055 200.242 342.678 198.299 338.028 197.822C337.704 197.778 337.393 197.668 337.114 197.499C333.329 198.308 329.544 199.115 325.76 199.922C291.129 207.306 256.457 214.466 221.866 222.023C221.088 222.187 220.299 222.359 219.516 222.535C219.25 222.742 218.935 222.876 218.602 222.925C217.864 223.038 217.045 223.159 216.196 223.253C212.801 223.657 205.369 226.416 204.545 230.377C203.352 236.066 212.417 239.664 216.272 241.839C246.533 258.991 276.152 276.514 305.236 295.593C311.4 299.64 317.635 303.556 323.901 307.437C333 310.531 340.332 304.89 345.718 294.623Z" fill="#F08300"/>
<path d="M236.362 385.325C248.386 385.356 260.151 381.83 270.175 375.189C271.453 374.37 272.676 373.557 273.747 372.801C274.027 372.594 274.359 372.468 274.707 372.44C279.623 369.35 284.297 366.086 288.602 363.075C301.868 352.891 313.979 341.285 324.719 328.466C324.592 325.73 323.923 323.047 322.752 320.57C321.581 318.094 319.932 315.875 317.898 314.04C317.681 313.833 317.512 313.582 317.403 313.303C309.864 308.614 302.365 303.847 294.989 298.892C267.365 280.329 238.342 264.473 209.537 247.862C208.132 247.052 206.748 246.192 205.353 245.356C200.917 244.068 199.169 250.71 199.917 254.681C199.974 254.983 199.971 255.293 199.906 255.593C208.678 296.601 218.147 337.465 227.631 378.311C228.5 380.012 229.71 381.515 231.186 382.727C232.663 383.939 234.373 384.833 236.21 385.355C236.266 385.355 236.301 385.325 236.362 385.325Z" fill="#F08300"/>
</g>
<g clip-path="url(#clip1_802_931)">
<path d="M336.394 186.958C336.488 187.284 336.563 187.546 336.618 187.74L241.133 212.777L241.125 212.778C241.114 212.781 241.095 212.784 241.07 212.789C241.02 212.797 240.942 212.81 240.838 212.822C240.631 212.847 240.322 212.872 239.927 212.869C239.137 212.863 238.001 212.747 236.645 212.299C233.94 211.407 230.315 209.183 226.787 203.8C223.262 198.421 222.666 194.204 222.924 191.361C223.054 189.935 223.398 188.844 223.707 188.115C223.861 187.75 224.007 187.476 224.112 187.295C224.164 187.205 224.206 187.138 224.235 187.095C224.249 187.073 224.259 187.058 224.266 187.048L224.271 187.041L285.106 109.129C285.257 109.253 285.459 109.419 285.708 109.625C286.31 110.126 287.185 110.865 288.276 111.818C290.4 113.673 293.34 116.337 296.674 119.625L270.386 149.695L270.978 150.279L300.583 123.59C306.748 129.955 312.331 136.859 317.266 144.222C317.7 144.885 318.125 145.554 318.545 146.227L262.954 183.864L263.383 184.578L322.602 153.218C325.224 158.098 327.599 163.106 329.72 168.226L306.562 178.149L306.83 178.935L331.471 172.586C333.203 177.051 334.507 180.901 335.383 183.654C335.832 185.066 336.169 186.189 336.394 186.958Z" fill="#D9EDFF" stroke="#2B2D54" stroke-width="0.833333"/>
<g style="mix-blend-mode:multiply" opacity="0.7">
<path d="M333.111 175.752L239.083 205.286L238.942 206.748L333.85 177.802C333.616 177.141 333.37 176.459 333.111 175.752Z" fill="#B6D2ED"/>
</g>
<g style="mix-blend-mode:multiply" opacity="0.7">
<path d="M337.132 188.033C337.132 188.033 336.491 185.659 335.221 181.805L239.694 207.896L236.716 212.757C238.162 213.262 239.711 213.407 241.23 213.182L337.124 188.038L337.132 188.033Z" fill="#B6D2ED"/>
</g>
<g style="mix-blend-mode:multiply" opacity="0.7">
<path d="M326.611 160.217L236.514 203.043L237.36 204.334L327.898 162.99C327.484 162.075 327.055 161.151 326.611 160.217Z" fill="#B6D2ED"/>
</g>
<g style="mix-blend-mode:multiply" opacity="0.7">
<path d="M233.695 197.063L234.697 198.593L314.675 139.745C314.231 139.129 313.789 138.513 313.336 137.908L233.695 197.063Z" fill="#B6D2ED"/>
</g>
<g style="mix-blend-mode:multiply" opacity="0.7">
<path d="M230.554 193.948L231.799 195.848L310.338 134.057C308.998 132.391 307.645 130.779 306.291 129.229L230.554 193.948Z" fill="#B6D2ED"/>
</g>
<g style="mix-blend-mode:multiply" opacity="0.7">
<path d="M285.039 108.538L223.937 186.792C223.937 186.792 221.132 190.628 223.246 197.461L225.707 197.14L291.033 113.716C287.407 110.428 285.039 108.538 285.039 108.538Z" fill="#B6D2ED"/>
</g>
<path d="M241.23 213.182C241.23 213.182 233.586 214.936 226.438 204.029C219.296 193.13 223.937 186.793 223.937 186.793C223.937 186.793 239.176 194.546 241.23 213.182Z" fill="#7DA9D1"/>
<g style="mix-blend-mode:multiply">
<path d="M226.439 204.028C230.603 210.382 234.932 212.437 237.824 213.047C236.978 208.383 235.204 203.942 232.606 199.986C230.008 196.031 226.639 192.642 222.699 190.021C222.119 192.927 222.298 197.709 226.439 204.028Z" fill="#7DA9D1"/>
</g>
<path d="M287.034 102.709L287.035 102.708C287.198 102.498 287.402 102.322 287.633 102.19C287.865 102.058 288.119 101.973 288.383 101.939C288.646 101.906 288.914 101.924 289.169 101.994C289.424 102.064 289.663 102.183 289.871 102.346C290.08 102.508 290.254 102.71 290.384 102.94C290.514 103.17 290.597 103.424 290.629 103.687C290.66 103.951 290.64 104.218 290.568 104.474C290.496 104.73 290.375 104.97 290.21 105.18L290.21 105.18L225.573 187.963L225.561 187.978L225.551 187.994C225.364 188.285 224.517 189.746 224.468 192.28C224.42 194.818 225.174 198.395 228.136 202.914C234.288 212.303 240.572 211.265 240.792 211.213L240.792 211.214L240.803 211.211L342.259 184.605L342.26 184.605C342.517 184.537 342.784 184.52 343.047 184.556C343.309 184.592 343.562 184.679 343.79 184.812C344.018 184.946 344.218 185.123 344.377 185.334C344.536 185.545 344.652 185.785 344.718 186.042C344.783 186.298 344.798 186.566 344.761 186.829L345.173 186.888L344.761 186.829C344.723 187.092 344.634 187.345 344.498 187.575C344.363 187.804 344.184 188.005 343.971 188.165C343.758 188.326 343.516 188.443 343.259 188.51L343.258 188.51L241.733 215.133C241.517 215.182 239.246 215.655 236.063 214.66C232.86 213.657 228.693 211.153 224.754 205.143C220.816 199.133 220.178 194.304 220.526 190.965C220.872 187.656 222.19 185.77 222.304 185.612L287.034 102.709Z" fill="#4B73F3" stroke="#2B2D54" stroke-width="0.833333"/>
</g>
<g clip-path="url(#clip2_802_931)">
<path d="M150.272 83.7611C150.609 83.6637 150.88 83.5873 151.079 83.5319L176.373 181.107L176.375 181.115C176.377 181.127 176.381 181.146 176.385 181.172C176.394 181.223 176.407 181.303 176.419 181.409C176.444 181.621 176.468 181.937 176.464 182.34C176.456 183.148 176.334 184.308 175.873 185.692C174.953 188.455 172.671 192.151 167.163 195.738C161.659 199.323 157.35 199.92 154.445 199.648C152.989 199.512 151.876 199.157 151.131 198.839C150.759 198.68 150.478 198.531 150.294 198.423C150.202 198.369 150.133 198.326 150.089 198.297C150.076 198.288 150.065 198.28 150.056 198.274C150.05 198.271 150.046 198.267 150.042 198.265L150.035 198.26L70.6484 135.916C70.7756 135.761 70.9476 135.553 71.1624 135.297C71.6754 134.683 72.4329 133.792 73.4091 132.68C75.3102 130.516 78.0403 127.519 81.4104 124.121L112.045 151.054L112.63 150.463L85.4581 120.153C91.9763 113.874 99.0446 108.19 106.579 103.171C107.259 102.728 107.947 102.295 108.638 101.866L146.913 158.741L147.628 158.314L115.773 97.7517C120.768 95.0857 125.894 92.6716 131.133 90.5185L141.202 114.201L141.989 113.935L135.575 88.7495C140.142 86.9925 144.08 85.671 146.895 84.7836C148.337 84.3288 149.485 83.988 150.272 83.7611Z" fill="#D9EDFF" stroke="#2B2D54" stroke-width="0.833333"/>
<g style="mix-blend-mode:multiply" opacity="0.7">
<path d="M138.823 87.0902L168.711 183.181L170.203 183.329L140.918 86.3411C140.242 86.5786 139.546 86.827 138.823 87.0902Z" fill="#B6D2ED"/>
</g>
<g style="mix-blend-mode:multiply" opacity="0.7">
<path d="M151.374 83.0198C151.374 83.0198 148.947 83.6668 145.009 84.9531L171.377 182.565L176.332 185.619C176.852 184.144 177.005 182.563 176.779 181.011L151.379 83.0282L151.374 83.0198Z" fill="#B6D2ED"/>
</g>
<g style="mix-blend-mode:multiply" opacity="0.7">
<path d="M122.942 93.6825L166.413 185.798L167.733 184.937L125.778 92.376C124.842 92.7967 123.897 93.2323 122.942 93.6825Z" fill="#B6D2ED"/>
</g>
<g style="mix-blend-mode:multiply" opacity="0.7">
<path d="M160.3 188.659L161.865 187.64L102.006 105.811C101.376 106.262 100.745 106.713 100.126 107.173L160.3 188.659Z" fill="#B6D2ED"/>
</g>
<g style="mix-blend-mode:multiply" opacity="0.7">
<path d="M157.109 191.857L159.053 190.591L96.185 110.223C94.4798 111.587 92.8302 112.964 91.2434 114.342L157.109 191.857Z" fill="#B6D2ED"/>
</g>
<g style="mix-blend-mode:multiply" opacity="0.7">
<path d="M70.0575 135.982L149.784 198.593C149.784 198.593 153.693 201.469 160.676 199.33L160.355 196.815L75.3613 129.877C71.9938 133.57 70.0575 135.982 70.0575 135.982Z" fill="#B6D2ED"/>
</g>
<path d="M176.779 181.011C176.779 181.011 178.547 188.821 167.39 196.087C156.242 203.349 149.785 198.593 149.785 198.593C149.785 198.593 157.744 183.054 176.779 181.011Z" fill="#7DA9D1"/>
<g style="mix-blend-mode:multiply">
<path d="M167.391 196.087C173.891 191.854 176.001 187.439 176.632 184.489C171.868 185.338 167.328 187.137 163.282 189.779C159.236 192.42 155.766 195.851 153.078 199.866C156.044 200.466 160.927 200.298 167.391 196.087Z" fill="#7DA9D1"/>
</g>
<path d="M64.1054 133.935L64.1049 133.935C63.8896 133.766 63.7095 133.557 63.5748 133.32C63.4401 133.082 63.3535 132.821 63.3198 132.55C63.2861 132.28 63.3061 132.006 63.3784 131.744C63.4507 131.483 63.5739 131.238 63.7409 131.025C63.9079 130.812 64.1156 130.634 64.352 130.501C64.5884 130.369 64.849 130.284 65.1189 130.252C65.3889 130.221 65.663 130.242 65.9254 130.317C66.1879 130.391 66.4335 130.516 66.6482 130.685L66.6487 130.686L150.99 196.919L151.005 196.931L151.021 196.941C151.317 197.132 152.804 198.001 155.39 198.057C157.978 198.114 161.631 197.355 166.253 194.345C175.853 188.092 174.81 181.676 174.759 181.455L174.759 181.455L174.756 181.444L147.879 77.7766L147.879 77.776C147.81 77.5121 147.794 77.2377 147.831 76.9685C147.869 76.6993 147.959 76.4406 148.096 76.207C148.234 75.9735 148.416 75.7696 148.633 75.6071C148.849 75.4445 149.096 75.3264 149.36 75.2596C149.623 75.1928 149.897 75.1785 150.167 75.2178L150.227 74.8055L150.167 75.2178C150.436 75.2571 150.696 75.3491 150.931 75.4887C151.166 75.6284 151.371 75.8128 151.535 76.0314C151.699 76.2501 151.818 76.4986 151.886 76.7627L151.886 76.7634L178.781 180.501C178.83 180.721 179.308 183.044 178.281 186.293C177.248 189.564 174.678 193.813 168.529 197.818C162.379 201.824 157.445 202.462 154.034 202.096C150.654 201.734 148.73 200.381 148.57 200.264L64.1054 133.935Z" fill="#4B73F3" stroke="#2B2D54" stroke-width="0.833333"/>
</g>
<g clip-path="url(#clip3_802_931)">
<path d="M265.372 95.8771C265.684 96.0443 265.933 96.1798 266.115 96.2798L215.483 183.843L215.479 183.85C215.472 183.86 215.461 183.876 215.446 183.898C215.416 183.941 215.369 184.007 215.303 184.092C215.172 184.26 214.966 184.504 214.678 184.79C214.103 185.362 213.197 186.107 211.888 186.775C209.277 188.107 205.026 189.151 198.531 187.855C192.04 186.56 188.519 183.964 186.62 181.732C185.668 180.614 185.118 179.578 184.806 178.829C184.65 178.454 184.554 178.15 184.497 177.944C184.469 177.841 184.45 177.762 184.439 177.71C184.433 177.685 184.43 177.666 184.428 177.654L184.426 177.645L171.285 77.3548C171.486 77.3331 171.757 77.3048 172.095 77.2715C172.897 77.1924 174.071 77.0855 175.557 76.9749C178.452 76.7593 182.532 76.5295 187.355 76.4619L190.398 117.221L191.229 117.209L193.06 76.4614C202.182 76.5391 211.278 77.4296 220.241 79.1223C221.044 79.2826 221.845 79.4546 222.645 79.6329L210.064 147.176L210.873 147.373L230.675 81.6913C236.152 83.2872 241.545 85.1557 246.835 87.2899L237.374 111.298L238.122 111.661L251.274 89.1372C255.802 91.0841 259.569 92.9006 262.221 94.2403C263.58 94.9268 264.646 95.4879 265.372 95.8771Z" fill="#D9EDFF" stroke="#2B2D54" stroke-width="0.833333"/>
<g style="mix-blend-mode:multiply" opacity="0.7">
<path d="M254.784 90.23L208.504 179.954L209.473 181.106L256.819 91.1632C256.166 90.8592 255.489 90.5486 254.784 90.23Z" fill="#B6D2ED"/>
</g>
<g style="mix-blend-mode:multiply" opacity="0.7">
<path d="M266.686 96.1194C266.686 96.1194 264.484 94.8808 260.743 93.0391L210.857 181.382L212.268 187.043C213.682 186.352 214.908 185.328 215.84 184.059L266.684 96.1292L266.686 96.1194Z" fill="#B6D2ED"/>
</g>
<g style="mix-blend-mode:multiply" opacity="0.7">
<path d="M238.707 83.8093L205.005 180.214L206.562 180.525L241.669 84.8628C240.699 84.5075 239.712 84.1563 238.707 83.8093Z" fill="#B6D2ED"/>
</g>
<g style="mix-blend-mode:multiply" opacity="0.7">
<path d="M198.587 177.975L200.432 178.343L215.087 77.8049C214.315 77.686 213.544 77.5659 212.774 77.4613L198.587 177.975Z" fill="#B6D2ED"/>
</g>
<g style="mix-blend-mode:multiply" opacity="0.7">
<path d="M194.036 178.026L196.328 178.483L207.787 76.8795C205.598 76.6596 203.44 76.4878 201.326 76.3609L194.036 178.026Z" fill="#B6D2ED"/>
</g>
<g style="mix-blend-mode:multiply" opacity="0.7">
<path d="M170.816 76.9876L184.014 177.708C184.014 177.708 184.798 182.507 191.331 185.873L192.874 183.85L178.939 76.3384C173.911 76.6194 170.816 76.9876 170.816 76.9876Z" fill="#B6D2ED"/>
</g>
<path d="M215.839 184.059C215.839 184.059 211.603 190.888 198.449 188.264C185.305 185.641 184.014 177.708 184.014 177.708C184.014 177.708 200.702 172.172 215.839 184.059Z" fill="#7DA9D1"/>
<g style="mix-blend-mode:multiply">
<path d="M198.449 188.264C206.112 189.793 210.745 188.113 213.28 186.445C209.253 183.712 204.717 181.815 199.943 180.867C195.168 179.92 190.252 179.941 185.486 180.929C187.196 183.439 190.828 186.743 198.449 188.264Z" fill="#7DA9D1"/>
</g>
<path d="M167.975 71.3489L167.975 71.3483C167.939 71.077 167.956 70.8012 168.027 70.5368C168.098 70.2724 168.22 70.0246 168.386 69.8074C168.553 69.5903 168.761 69.4081 168.998 69.2713C169.235 69.1345 169.497 69.0457 169.768 69.0102C170.039 68.9746 170.315 68.9929 170.579 69.064C170.844 69.1351 171.091 69.2576 171.308 69.4244L171.528 69.139L171.308 69.4244C171.525 69.5913 171.707 69.7994 171.843 70.0366C171.98 70.2739 172.068 70.5357 172.103 70.8071L172.103 70.8077L186.065 177.356L186.068 177.376L186.072 177.394C186.15 177.738 186.608 179.403 188.428 181.257C190.25 183.112 193.413 185.131 198.861 186.218C210.177 188.476 213.95 183.155 214.07 182.961L214.07 182.961L214.076 182.951L267.867 89.918L267.867 89.9174C268.004 89.6802 268.186 89.4724 268.403 89.3056C268.62 89.1389 268.867 89.0166 269.132 88.9457C269.396 88.8749 269.672 88.8568 269.943 88.8926C270.215 88.9284 270.476 89.0174 270.713 89.1544C270.95 89.2914 271.158 89.4737 271.324 89.6911C271.49 89.9084 271.612 90.1564 271.683 90.4208C271.753 90.6853 271.771 90.9611 271.735 91.2323C271.698 91.5036 271.609 91.7651 271.472 92.0018L271.471 92.0024L217.643 185.098C217.523 185.291 216.228 187.288 213.197 188.894C210.145 190.51 205.297 191.749 198.046 190.302C190.795 188.855 186.793 185.85 184.597 183.196C182.421 180.566 181.991 178.249 181.958 178.053L167.975 71.3489Z" fill="#4B73F3" stroke="#2B2D54" stroke-width="0.833333"/>
</g>
<g clip-path="url(#clip4_802_931)">
<path d="M52.2739 153.721C52.4366 153.407 52.5686 153.156 52.666 152.973L140.937 202.361L140.944 202.365C140.954 202.372 140.97 202.382 140.992 202.397C141.036 202.426 141.102 202.473 141.188 202.537C141.358 202.667 141.605 202.868 141.895 203.152C142.475 203.72 143.233 204.615 143.919 205.915C145.288 208.507 146.392 212.742 145.188 219.255C143.985 225.763 141.439 229.321 139.234 231.251C138.129 232.219 137.102 232.784 136.357 233.106C135.984 233.267 135.682 233.368 135.477 233.428C135.374 233.457 135.295 233.477 135.244 233.489C135.218 233.495 135.199 233.499 135.188 233.501L135.179 233.503L35.0843 248.061C35.0598 247.86 35.0276 247.589 34.9895 247.253C34.8991 246.452 34.7756 245.28 34.644 243.795C34.3875 240.903 34.1 236.827 33.9642 232.005L74.6764 228.386L74.6523 227.555L33.8829 226.3C33.8317 217.179 34.5934 208.071 36.1591 199.085C36.308 198.28 36.4687 197.477 36.6357 196.674L104.35 208.298L104.536 207.487L38.5803 188.615C40.0985 183.117 41.8906 177.697 43.9497 172.378L68.0897 181.498L68.4419 180.746L45.734 167.913C47.6167 163.358 49.3797 159.566 50.6818 156.895C51.3489 155.527 51.8949 154.453 52.2739 153.721Z" fill="#D9EDFF" stroke="#2B2D54" stroke-width="0.833333"/>
<g style="mix-blend-mode:multiply" opacity="0.7">
<path d="M46.777 164.389L137.146 209.395L138.285 208.409L47.6813 162.34C47.3866 162.998 47.0855 163.679 46.777 164.389Z" fill="#B6D2ED"/>
</g>
<g style="mix-blend-mode:multiply" opacity="0.7">
<path d="M52.4975 152.404C52.4975 152.404 51.2902 154.624 49.5016 158.39L138.542 207.021L144.182 205.531C143.471 204.126 142.43 202.915 141.148 202.001L52.5073 152.406L52.4975 152.404Z" fill="#B6D2ED"/>
</g>
<g style="mix-blend-mode:multiply" opacity="0.7">
<path d="M40.5844 180.554L137.456 212.889L137.745 211.328L41.5959 177.577C41.2543 178.553 40.9172 179.545 40.5844 180.554Z" fill="#B6D2ED"/>
</g>
<g style="mix-blend-mode:multiply" opacity="0.7">
<path d="M135.308 219.338L135.65 217.488L34.9142 204.257C34.8062 205.03 34.6971 205.803 34.6034 206.575L135.308 219.338Z" fill="#B6D2ED"/>
</g>
<g style="mix-blend-mode:multiply" opacity="0.7">
<path d="M135.423 223.888L135.848 221.59L34.0927 211.569C33.9039 213.761 33.7626 215.922 33.6656 218.037L135.423 223.888Z" fill="#B6D2ED"/>
</g>
<g style="mix-blend-mode:multiply" opacity="0.7">
<path d="M34.7241 248.534L135.248 233.913C135.248 233.913 140.035 233.062 143.309 226.482L141.263 224.967L33.9601 240.421C34.3122 245.445 34.7241 248.534 34.7241 248.534Z" fill="#B6D2ED"/>
</g>
<path d="M141.148 202.001C141.148 202.001 148.036 206.141 145.598 219.331C143.161 232.51 135.248 233.913 135.248 233.913C135.248 233.913 129.476 217.305 141.148 202.001Z" fill="#7DA9D1"/>
<g style="mix-blend-mode:multiply">
<path d="M145.598 219.33C147.018 211.647 145.273 207.038 143.569 204.527C140.893 208.592 139.061 213.154 138.181 217.942C137.301 222.729 137.392 227.645 138.447 232.396C140.932 230.651 144.185 226.972 145.598 219.33Z" fill="#7DA9D1"/>
</g>
<path d="M29.1254 251.456L29.1247 251.456C28.854 251.496 28.578 251.482 28.3126 251.415C28.0473 251.348 27.7977 251.229 27.5782 251.066C27.3587 250.902 27.1736 250.697 27.0335 250.462C26.8933 250.227 26.8009 249.967 26.7615 249.696C26.7221 249.425 26.7365 249.149 26.8038 248.884C26.8712 248.619 26.9901 248.369 27.1539 248.15L26.8654 247.934L27.1539 248.15C27.3178 247.931 27.5232 247.746 27.7585 247.606C27.9938 247.466 28.2543 247.374 28.5252 247.335L28.5258 247.335L134.866 231.867L134.885 231.865L134.904 231.86C135.247 231.777 136.905 231.296 138.733 229.45C140.562 227.602 142.536 224.41 143.546 218.948C145.644 207.601 140.27 203.903 140.075 203.787L140.075 203.786L140.065 203.781L46.2795 151.311L46.279 151.311C46.0399 151.178 45.8295 150.999 45.6597 150.784C45.4899 150.569 45.3641 150.323 45.2895 150.06C45.2149 149.797 45.1929 149.521 45.2249 149.249C45.2569 148.978 45.3421 148.715 45.4757 148.476C45.6094 148.237 45.7888 148.027 46.0037 147.857C46.2187 147.688 46.4649 147.563 46.7284 147.488C46.9918 147.414 47.2673 147.393 47.5391 147.425C47.8108 147.458 48.0735 147.543 48.3122 147.677L48.3128 147.678L142.161 200.183C142.355 200.3 144.371 201.567 146.019 204.576C147.678 207.604 148.985 212.434 147.641 219.705C146.296 226.976 143.349 231.019 140.726 233.253C138.127 235.466 135.816 235.929 135.621 235.965L29.1254 251.456Z" fill="#4B73F3" stroke="#2B2D54" stroke-width="0.833333"/>
</g>
<g clip-path="url(#clip5_802_931)">
<path d="M45.7489 275.733C45.6323 275.399 45.5404 275.131 45.4737 274.934L141.989 244.675L141.998 244.672C142.009 244.669 142.028 244.665 142.054 244.659C142.105 244.648 142.185 244.631 142.29 244.613C142.501 244.578 142.817 244.538 143.223 244.522C144.034 244.489 145.205 244.554 146.621 244.947C149.445 245.732 153.283 247.837 157.191 253.185C161.095 258.528 161.934 262.822 161.824 265.75C161.768 267.218 161.473 268.353 161.196 269.116C161.058 269.497 160.923 269.786 160.825 269.976C160.776 270.071 160.737 270.142 160.71 270.187C160.697 270.21 160.687 270.227 160.68 270.237L160.676 270.244L102.529 353.008C102.366 352.888 102.147 352.725 101.876 352.522C101.232 352.038 100.295 351.322 99.1253 350.399C96.8468 348.599 93.686 346.009 90.0876 342.797L115.412 310.715L114.791 310.162L85.8846 338.939C79.2184 332.714 73.12 325.906 67.6621 318.597C67.1791 317.936 66.7057 317.268 66.237 316.595L121.184 275.349L120.721 274.658L61.7135 309.648C58.7586 304.769 56.0494 299.745 53.5959 294.595L76.8021 283.308L76.4969 282.535L51.5754 290.232C49.557 285.736 48.0109 281.85 46.9631 279.07C46.4263 277.645 46.0204 276.511 45.7489 275.733Z" fill="#D9EDFF" stroke="#2B2D54" stroke-width="0.833333"/>
<g style="mix-blend-mode:multiply" opacity="0.7">
<path d="M49.7292 287.053L144.5 252.26L144.566 250.755L48.8608 284.989C49.1368 285.655 49.4249 286.342 49.7292 287.053Z" fill="#B6D2ED"/>
</g>
<g style="mix-blend-mode:multiply" opacity="0.7">
<path d="M44.9455 274.666C44.9455 274.666 45.7299 277.068 47.2401 280.954L143.734 249.616L146.523 244.492C145.014 244.045 143.418 243.97 141.874 244.274L44.9535 274.66L44.9455 274.666Z" fill="#B6D2ED"/>
</g>
<g style="mix-blend-mode:multiply" opacity="0.7">
<path d="M57.2298 302.656L147.255 254.435L146.318 253.153L55.7607 299.877C56.2351 300.795 56.7248 301.721 57.2298 302.656Z" fill="#B6D2ED"/>
</g>
<g style="mix-blend-mode:multiply" opacity="0.7">
<path d="M150.467 260.425L149.357 258.906L70.5675 323.054C71.0557 323.663 71.5427 324.273 72.0393 324.871L150.467 260.425Z" fill="#B6D2ED"/>
</g>
<g style="mix-blend-mode:multiply" opacity="0.7">
<path d="M153.854 263.464L152.475 261.578L75.3195 328.672C76.7834 330.314 78.2569 331.9 79.728 333.423L153.854 263.464Z" fill="#B6D2ED"/>
</g>
<g style="mix-blend-mode:multiply" opacity="0.7">
<path d="M102.627 353.595L161.022 270.477C161.022 270.477 163.69 266.412 161.155 259.513L158.649 259.961L96.204 348.58C100.098 351.774 102.627 353.595 102.627 353.595Z" fill="#B6D2ED"/>
</g>
<path d="M141.874 244.274C141.874 244.274 149.613 242.109 157.527 252.938C165.435 263.76 161.022 270.476 161.022 270.476C161.022 270.476 144.984 263.268 141.874 244.274Z" fill="#7DA9D1"/>
<g style="mix-blend-mode:multiply">
<path d="M157.527 252.939C152.916 246.63 148.368 244.734 145.372 244.249C146.49 248.986 148.548 253.451 151.425 257.378C154.301 261.304 157.937 264.614 162.116 267.109C162.553 264.104 162.112 259.214 157.527 252.939Z" fill="#7DA9D1"/>
</g>
<path d="M100.906 359.671L100.905 359.672C100.748 359.896 100.549 360.087 100.318 360.234C100.087 360.381 99.8294 360.481 99.5598 360.528C99.2903 360.575 99.014 360.569 98.7469 360.51C98.4798 360.45 98.227 360.338 98.0031 360.181C97.7791 360.024 97.5884 359.824 97.4418 359.593C97.2952 359.362 97.1956 359.104 97.1487 358.834L96.7938 358.896L97.1487 358.834C97.1018 358.565 97.1085 358.288 97.1685 358.021C97.2284 357.754 97.3404 357.502 97.4981 357.278L97.4985 357.278L159.272 269.349L159.283 269.333L159.293 269.316C159.468 269.01 160.257 267.474 160.17 264.877C160.082 262.278 159.118 258.652 155.84 254.167C149.031 244.851 142.654 246.218 142.434 246.28L142.434 246.28L142.423 246.284L39.8809 278.436L39.8803 278.436C39.6192 278.518 39.3446 278.548 39.0719 278.524C38.7993 278.5 38.5341 278.423 38.2914 278.296C38.0487 278.17 37.8334 277.997 37.6577 277.787C37.4821 277.577 37.3495 277.334 37.2676 277.073C37.1858 276.812 37.1562 276.537 37.1806 276.265C37.205 275.992 37.2829 275.727 37.4099 275.484C37.5369 275.242 37.7104 275.027 37.9206 274.852C38.1307 274.676 38.3734 274.544 38.6347 274.463L38.6354 274.463L141.247 242.289C141.466 242.229 143.771 241.633 147.09 242.501C150.431 243.374 154.839 245.74 159.202 251.71C163.565 257.68 164.48 262.599 164.303 266.04C164.128 269.449 162.877 271.447 162.769 271.614L100.906 359.671Z" fill="#4B73F3" stroke="#2B2D54" stroke-width="0.833333"/>
</g>
<g clip-path="url(#clip6_802_931)">
<path d="M122.641 371.81C122.315 371.672 122.055 371.56 121.864 371.477L164.334 279.677L164.339 279.669C164.344 279.659 164.353 279.642 164.366 279.619C164.392 279.573 164.433 279.503 164.491 279.413C164.607 279.233 164.79 278.972 165.05 278.661C165.572 278.039 166.406 277.215 167.649 276.431C170.129 274.868 174.267 273.442 180.853 274.142C187.434 274.843 191.177 277.108 193.27 279.158C194.32 280.186 194.962 281.167 195.341 281.885C195.53 282.244 195.653 282.537 195.729 282.738C195.766 282.838 195.792 282.915 195.808 282.965C195.815 282.991 195.821 283.009 195.824 283.02L195.826 283.029L218.021 381.712C217.823 381.751 217.555 381.804 217.222 381.868C216.431 382.02 215.271 382.233 213.801 382.478C210.937 382.956 206.895 383.555 202.098 384.06L195.367 343.746L194.54 343.833L196.417 384.579C187.326 385.33 178.187 385.269 169.106 384.397C168.292 384.311 167.479 384.212 166.667 384.107L173.061 315.7L172.238 315.578L158.482 382.786C152.883 381.695 147.343 380.324 141.881 378.679L149.122 353.91L148.345 353.617L137.292 377.242C132.606 375.714 128.69 374.247 125.927 373.154C124.512 372.594 123.399 372.132 122.641 371.81Z" fill="#D9EDFF" stroke="#2B2D54" stroke-width="0.833333"/>
<g style="mix-blend-mode:multiply" opacity="0.7">
<path d="M133.698 376.472L171.638 282.917L170.568 281.857L131.586 375.728C132.265 375.971 132.966 376.219 133.698 376.472Z" fill="#B6D2ED"/>
</g>
<g style="mix-blend-mode:multiply" opacity="0.7">
<path d="M121.31 371.688C121.31 371.688 123.615 372.722 127.508 374.216L169.165 281.708L167.246 276.198C165.9 277.015 164.773 278.146 163.96 279.494L121.311 371.678L121.31 371.688Z" fill="#B6D2ED"/>
</g>
<g style="mix-blend-mode:multiply" opacity="0.7">
<path d="M150.291 381.407L175.099 282.34L173.521 282.172L147.246 380.627C148.244 380.893 149.259 381.153 150.291 381.407Z" fill="#B6D2ED"/>
</g>
<g style="mix-blend-mode:multiply" opacity="0.7">
<path d="M181.694 283.987L179.823 283.788L174.359 385.242C175.138 385.29 175.917 385.34 176.694 385.374L181.694 283.987Z" fill="#B6D2ED"/>
</g>
<g style="mix-blend-mode:multiply" opacity="0.7">
<path d="M186.221 283.523L183.898 283.276L181.713 385.5C183.913 385.52 186.078 385.495 188.194 385.429L186.221 283.523Z" fill="#B6D2ED"/>
</g>
<g style="mix-blend-mode:multiply" opacity="0.7">
<path d="M218.521 382.035L196.231 282.929C196.231 282.929 195.015 278.221 188.203 275.462L186.85 277.618L210.49 383.419C215.472 382.683 218.521 382.035 218.521 382.035Z" fill="#B6D2ED"/>
</g>
<path d="M163.96 279.494C163.96 279.494 167.559 272.309 180.897 273.728C194.225 275.147 196.231 282.929 196.231 282.929C196.231 282.929 180.114 289.958 163.96 279.494Z" fill="#7DA9D1"/>
<g style="mix-blend-mode:multiply">
<path d="M180.897 273.728C173.127 272.901 168.666 274.994 166.292 276.886C170.551 279.242 175.241 280.719 180.081 281.229C184.922 281.739 189.816 281.272 194.473 279.855C192.542 277.511 188.625 274.55 180.897 273.728Z" fill="#7DA9D1"/>
</g>
<path d="M221.863 387.393L221.863 387.393C221.923 387.66 221.931 387.936 221.884 388.206C221.838 388.476 221.739 388.734 221.593 388.965C221.447 389.197 221.256 389.397 221.033 389.555C220.809 389.712 220.556 389.824 220.289 389.885C220.022 389.945 219.746 389.951 219.477 389.905C219.207 389.858 218.949 389.758 218.718 389.612L218.525 389.916L218.718 389.612C218.487 389.465 218.287 389.275 218.129 389.051C217.972 388.827 217.86 388.574 217.801 388.307L217.8 388.306L194.22 283.466L194.216 283.447L194.21 283.429C194.101 283.094 193.494 281.477 191.513 279.796C189.53 278.114 186.196 276.391 180.672 275.803C169.198 274.582 165.924 280.223 165.822 280.427L165.822 280.427L165.817 280.438L120.697 377.972L120.697 377.972C120.583 378.221 120.42 378.445 120.219 378.63C120.018 378.816 119.782 378.96 119.526 379.055C119.269 379.15 118.996 379.193 118.722 379.182C118.449 379.171 118.18 379.106 117.932 378.991C117.684 378.876 117.46 378.713 117.275 378.512C117.089 378.31 116.945 378.075 116.851 377.818C116.757 377.561 116.715 377.288 116.726 377.014C116.737 376.741 116.803 376.472 116.918 376.224L116.918 376.223L162.07 278.624C162.171 278.421 163.28 276.314 166.153 274.44C169.045 272.554 173.761 270.88 181.113 271.662C188.466 272.445 192.724 275.074 195.152 277.518C197.558 279.939 198.197 282.207 198.247 282.4L221.863 387.393Z" fill="#4B73F3" stroke="#2B2D54" stroke-width="0.833333"/>
</g>
<g clip-path="url(#clip7_802_931)">
<path d="M235.658 379.469C235.321 379.577 235.05 379.662 234.852 379.724L206.98 282.492L206.978 282.483C206.975 282.472 206.971 282.453 206.966 282.427C206.956 282.376 206.941 282.296 206.926 282.19C206.896 281.978 206.864 281.661 206.858 281.255C206.845 280.444 206.938 279.274 207.366 277.869C208.22 275.065 210.42 271.28 215.862 267.505C221.3 263.733 225.613 263 228.538 263.183C230.004 263.275 231.131 263.597 231.887 263.893C232.265 264.041 232.55 264.183 232.738 264.285C232.832 264.337 232.902 264.378 232.946 264.406C232.969 264.42 232.985 264.43 232.995 264.437L233.002 264.442L314.308 324.61C314.184 324.769 314.016 324.984 313.806 325.25C313.306 325.882 312.568 326.802 311.616 327.948C309.761 330.182 307.094 333.278 303.794 336.796L272.346 310.689L271.777 311.296L299.834 340.903C293.446 347.413 286.49 353.342 279.049 358.618C278.376 359.085 277.696 359.542 277.012 359.994L237.133 304.047L236.43 304.493L269.956 364.345C265.005 367.178 259.916 369.763 254.707 372.089L243.996 348.612L243.215 348.898L250.296 374.001C245.751 375.908 241.829 377.358 239.023 378.337C237.586 378.839 236.442 379.216 235.658 379.469Z" fill="#D9EDFF" stroke="#2B2D54" stroke-width="0.833333"/>
<g style="mix-blend-mode:multiply" opacity="0.7">
<path d="M247.073 375.769L214.625 280.169L213.122 280.067L244.988 376.586C245.661 376.327 246.354 376.056 247.073 375.769Z" fill="#B6D2ED"/>
</g>
<g style="mix-blend-mode:multiply" opacity="0.7">
<path d="M234.572 380.247C234.572 380.247 236.992 379.522 240.914 378.108L211.963 280.871L206.909 277.956C206.425 279.454 206.311 281.047 206.577 282.599L234.566 380.238L234.572 380.247Z" fill="#B6D2ED"/>
</g>
<g style="mix-blend-mode:multiply" opacity="0.7">
<path d="M262.855 368.656L216.866 277.47L215.562 278.375L260.041 370.056C260.97 369.605 261.908 369.138 262.855 368.656Z" fill="#B6D2ED"/>
</g>
<g style="mix-blend-mode:multiply" opacity="0.7">
<path d="M222.934 274.406L221.388 275.478L283.575 355.824C284.197 355.351 284.819 354.879 285.429 354.397L222.934 274.406Z" fill="#B6D2ED"/>
</g>
<g style="mix-blend-mode:multiply" opacity="0.7">
<path d="M226.057 271.095L224.137 272.426L289.309 351.212C290.987 349.789 292.609 348.355 294.168 346.922L226.057 271.095Z" fill="#B6D2ED"/>
</g>
<g style="mix-blend-mode:multiply" opacity="0.7">
<path d="M314.897 324.528L233.243 264.102C233.243 264.102 229.245 261.334 222.286 263.699L222.671 266.215L309.725 330.825C313.014 327.011 314.897 324.528 314.897 324.528Z" fill="#B6D2ED"/>
</g>
<path d="M206.577 282.599C206.577 282.599 204.604 274.808 215.625 267.163C226.638 259.524 233.243 264.102 233.243 264.102C233.243 264.102 225.642 279.957 206.577 282.599Z" fill="#7DA9D1"/>
<g style="mix-blend-mode:multiply">
<path d="M215.625 267.163C209.204 271.617 207.197 276.117 206.637 279.1C211.401 278.099 215.915 276.152 219.911 273.373C223.908 270.594 227.306 267.041 229.903 262.925C226.91 262.414 222.01 262.734 215.625 267.163Z" fill="#7DA9D1"/>
</g>
<path d="M320.929 326.397L320.93 326.397C321.15 326.56 321.336 326.764 321.477 326.998C321.619 327.233 321.712 327.493 321.753 327.763C321.793 328.034 321.78 328.31 321.714 328.576C321.648 328.841 321.53 329.091 321.368 329.311C321.205 329.531 321 329.717 320.766 329.858C320.531 329.999 320.271 330.092 320 330.132L320.053 330.488L320 330.132C319.729 330.172 319.453 330.159 319.188 330.092C318.923 330.026 318.673 329.907 318.453 329.744L318.453 329.744L232.072 265.822L232.057 265.811L232.04 265.801C231.738 265.618 230.222 264.791 227.624 264.815C225.024 264.838 221.375 265.713 216.811 268.88C207.329 275.456 208.539 281.866 208.596 282.087L208.596 282.087L208.599 282.098L238.215 385.401L238.215 385.402C238.291 385.665 238.314 385.94 238.283 386.212C238.253 386.484 238.169 386.748 238.036 386.987C237.904 387.226 237.725 387.437 237.511 387.608C237.297 387.778 237.051 387.905 236.788 387.98C236.525 388.056 236.25 388.078 235.978 388.047C235.706 388.016 235.443 387.932 235.204 387.799C234.964 387.666 234.754 387.487 234.584 387.273C234.413 387.058 234.287 386.813 234.212 386.549L234.212 386.549L204.577 283.175C204.522 282.955 203.983 280.636 204.933 277.34C205.888 274.021 208.362 269.672 214.437 265.458C220.513 261.244 225.454 260.45 228.889 260.711C232.292 260.971 234.259 262.27 234.423 262.383L320.929 326.397Z" fill="#4B73F3" stroke="#2B2D54" stroke-width="0.833333"/>
</g>
<g clip-path="url(#clip8_802_931)">
<path d="M331.441 300.544C331.282 300.861 331.153 301.113 331.059 301.298L242.129 253.107L242.121 253.102C242.111 253.096 242.095 253.086 242.073 253.071C242.029 253.043 241.962 252.997 241.875 252.934C241.703 252.807 241.454 252.608 241.16 252.328C240.572 251.769 239.803 250.883 239.099 249.594C237.695 247.02 236.534 242.8 237.65 236.271C238.765 229.748 241.262 226.156 243.441 224.196C244.533 223.214 245.553 222.635 246.293 222.302C246.663 222.136 246.964 222.032 247.169 221.969C247.271 221.938 247.35 221.917 247.401 221.905C247.427 221.899 247.445 221.894 247.457 221.892L247.466 221.89L347.354 205.981C347.382 206.181 347.417 206.452 347.46 206.788C347.561 207.588 347.701 208.758 347.852 210.241C348.148 213.129 348.49 217.201 348.691 222.02L308.032 226.189L308.067 227.02L348.85 227.724C349.024 236.843 348.385 245.961 346.941 254.968C346.803 255.774 346.653 256.58 346.497 257.384L278.632 246.676L278.457 247.489L344.662 265.469C343.218 270.987 341.499 276.43 339.512 281.777L315.251 272.984L314.909 273.741L337.788 286.266C335.967 290.845 334.255 294.661 332.99 297.349C332.341 298.726 331.81 299.808 331.441 300.544Z" fill="#D9EDFF" stroke="#2B2D54" stroke-width="0.833333"/>
<g style="mix-blend-mode:multiply" opacity="0.7">
<path d="M336.793 289.804L245.824 246.023L244.699 247.024L335.916 291.865C336.202 291.203 336.494 290.518 336.793 289.804Z" fill="#B6D2ED"/>
</g>
<g style="mix-blend-mode:multiply" opacity="0.7">
<path d="M331.235 301.864C331.235 301.864 332.412 299.629 334.149 295.838L244.461 248.414L238.841 249.981C239.571 251.376 240.628 252.572 241.922 253.469L331.225 301.862L331.235 301.864Z" fill="#B6D2ED"/>
</g>
<g style="mix-blend-mode:multiply" opacity="0.7">
<path d="M342.766 273.556L245.466 242.532L245.199 244.097L341.795 276.546C342.124 275.566 342.447 274.569 342.766 273.556Z" fill="#B6D2ED"/>
</g>
<g style="mix-blend-mode:multiply" opacity="0.7">
<path d="M247.528 236.055L247.211 237.909L348.116 249.779C348.213 249.004 348.312 248.23 348.395 247.457L247.528 236.055Z" fill="#B6D2ED"/>
</g>
<g style="mix-blend-mode:multiply" opacity="0.7">
<path d="M247.351 231.507L246.957 233.81L348.839 242.456C348.998 240.262 349.11 238.1 349.178 235.983L247.351 231.507Z" fill="#B6D2ED"/>
</g>
<g style="mix-blend-mode:multiply" opacity="0.7">
<path d="M347.708 205.503L247.391 221.48C247.391 221.48 242.616 222.396 239.431 229.02L241.497 230.506L348.582 213.605C348.162 208.586 347.708 205.503 347.708 205.503Z" fill="#B6D2ED"/>
</g>
<path d="M241.922 253.469C241.922 253.469 234.979 249.422 237.239 236.201C239.498 222.99 247.391 221.48 247.391 221.48C247.391 221.48 253.387 238.008 241.922 253.469Z" fill="#7DA9D1"/>
<g style="mix-blend-mode:multiply">
<path d="M237.239 236.202C235.923 243.904 237.729 248.488 239.467 250.977C242.088 246.875 243.859 242.289 244.674 237.49C245.489 232.691 245.332 227.777 244.212 223.04C241.751 224.819 238.549 228.541 237.239 236.202Z" fill="#7DA9D1"/>
</g>
<path d="M353.267 202.506L353.268 202.506C353.538 202.463 353.814 202.473 354.08 202.536C354.346 202.6 354.598 202.715 354.819 202.875C355.041 203.036 355.229 203.238 355.372 203.472C355.515 203.705 355.611 203.964 355.654 204.234C355.697 204.504 355.687 204.78 355.623 205.047C355.559 205.313 355.444 205.564 355.283 205.785L355.574 205.997L355.283 205.785C355.122 206.007 354.919 206.194 354.686 206.337C354.452 206.48 354.193 206.576 353.923 206.618L353.922 206.618L247.8 223.521L247.781 223.524L247.762 223.529C247.421 223.616 245.769 224.12 243.966 225.991C242.162 227.863 240.232 231.081 239.296 236.557C237.351 247.931 242.774 251.556 242.972 251.67L242.972 251.67L242.982 251.675L337.467 302.873L337.467 302.874C337.708 303.004 337.921 303.18 338.094 303.392C338.266 303.605 338.396 303.849 338.474 304.111C338.552 304.374 338.578 304.649 338.549 304.921C338.521 305.193 338.439 305.457 338.309 305.698C338.178 305.938 338.002 306.151 337.789 306.323C337.577 306.496 337.332 306.624 337.07 306.702C336.807 306.78 336.532 306.805 336.26 306.776C335.988 306.747 335.724 306.665 335.483 306.535L335.483 306.534L240.934 255.301C240.738 255.186 238.706 253.947 237.017 250.961C235.317 247.955 233.945 243.143 235.191 235.855C236.437 228.566 239.33 224.484 241.923 222.215C244.491 219.967 246.795 219.473 246.991 219.434L353.267 202.506Z" fill="#4B73F3" stroke="#2B2D54" stroke-width="0.833333"/>
</g>
<path d="M212.096 412.343C191.866 420.432 192.589 418.688 169.125 415.318C175.019 417.798 181.597 418.789 181.597 418.789C181.597 418.789 181.597 427.219 169.125 451.246C150.286 487.537 171.858 500.117 187.577 500.117C203.296 500.117 222.237 492.252 210.131 457.426C196.462 418.105 197.146 418.789 197.146 418.789C197.146 418.789 207.482 417.798 212.096 412.343Z" fill="#F08300"/>
<path d="M146.671 433.042C144.701 429.622 143.609 432.091 142.913 433.676C141.939 435.896 141.661 436.53 141.661 436.53L135.761 449.982C129.28 465.736 136.986 470.464 144.029 470.464C151.072 470.464 159.558 467.168 154.134 452.571C148.01 436.091 148.316 436.378 148.316 436.378C148.316 436.378 148.316 435.896 146.671 433.042Z" fill="#F08300"/>
<path d="M243.756 468.044C240.54 463.77 239.305 467.191 238.519 469.388C237.419 472.464 237.105 473.342 237.105 473.342L230.445 491.976C223.25 513.744 234.745 518.987 244.709 518.045C254.672 517.104 266.265 511.597 256.762 492.956C246.032 471.911 246.501 472.251 246.501 472.251C246.501 472.251 246.441 471.611 243.756 468.044Z" fill="#F08300"/>
<path d="M168.022 510.14C166.051 506.72 164.96 509.189 164.264 510.775C163.29 512.994 163.011 513.629 163.011 513.629L157.112 527.08C150.63 542.834 158.337 547.562 165.38 547.562C172.422 547.562 180.909 544.266 175.484 529.669C169.36 513.19 169.666 513.476 169.666 513.476C169.666 513.476 169.666 512.994 168.022 510.14Z" fill="#F08300"/>
<path d="M346.275 50.1015C345.396 49.5264 344.68 48.877 344.127 48.1535C343.582 47.4167 343.223 46.6011 343.047 45.7067C342.894 44.8077 342.954 43.8298 343.228 42.7727C343.515 41.7244 344.05 40.6012 344.835 39.4032C345.392 38.5512 345.975 37.8203 346.584 37.2107C347.192 36.601 347.83 36.1058 348.498 35.7251C349.174 35.331 349.882 35.0625 350.622 34.9195C351.385 34.7719 352.168 34.7521 352.972 34.8601C353.798 34.9635 354.656 35.1924 355.546 35.5468L361.324 37.8748L359.992 40.825L354.891 38.7694C354.59 38.6484 354.236 38.5212 353.829 38.3878C353.444 38.2498 353.021 38.154 352.562 38.1005C352.116 38.0557 351.642 38.0972 351.14 38.225C350.66 38.3481 350.168 38.606 349.664 38.9986C349.168 39.3779 348.681 39.9336 348.201 40.6657C348.053 40.892 347.947 41.0695 347.882 41.198C347.83 41.3352 347.767 41.4748 347.693 41.6166C347.633 41.7671 347.511 41.9822 347.328 42.2618L346.97 40.6297C347.672 40.1958 348.394 39.9073 349.134 39.7643C349.887 39.63 350.638 39.6458 351.385 39.8116C352.154 39.9728 352.911 40.2975 353.657 40.7855C354.669 41.4478 355.419 42.2336 355.908 43.143C356.418 44.0478 356.647 45.0058 356.594 46.0168C356.54 47.0278 356.209 47.9993 355.599 48.9311C354.936 49.9428 354.099 50.6692 353.088 51.1101C352.086 51.5378 350.992 51.6683 349.808 51.5017C348.637 51.3438 347.46 50.8771 346.275 50.1015ZM348.016 47.7899C348.535 48.1298 349.069 48.3173 349.616 48.3524C350.172 48.3742 350.683 48.2618 351.149 48.0152C351.637 47.764 352.042 47.3921 352.364 46.8996C352.678 46.4203 352.844 45.9203 352.862 45.3994C352.893 44.8872 352.778 44.3939 352.518 43.9195C352.258 43.445 351.862 43.0335 351.33 42.685C350.81 42.3451 350.275 42.1466 349.723 42.0894C349.179 42.019 348.677 42.0894 348.215 42.3007C347.754 42.5119 347.366 42.8572 347.052 43.3364C346.73 43.829 346.547 44.3557 346.503 44.9165C346.481 45.4727 346.591 46.0014 346.834 46.5024C347.09 47.0122 347.484 47.4414 348.016 47.7899Z" fill="#F08300"/>
<path d="M360.057 59.8505C358.907 58.9451 358.071 57.9229 357.55 56.7839C357.042 55.6548 356.855 54.5157 356.99 53.3666C357.135 52.205 357.601 51.1241 358.389 50.1239C359.186 49.1112 360.121 48.3994 361.193 47.9883C362.288 47.5747 363.415 47.4689 364.572 47.671C365.739 47.8606 366.835 48.3589 367.86 49.1658C368.847 49.9433 369.568 50.8546 370.021 51.8996C370.496 52.942 370.655 54.0391 370.498 55.1909C370.35 56.3302 369.848 57.4436 368.992 58.5313C368.904 58.6439 368.794 58.7702 368.663 58.9104C368.543 59.0381 368.427 59.1595 368.316 59.2747L360.121 52.8238L361.464 51.1172L368.121 56.3577L366.598 55.9783C367.011 55.4532 367.264 54.9132 367.356 54.3584C367.449 53.8035 367.391 53.2722 367.184 52.7644C366.986 52.2441 366.637 51.7872 366.137 51.3935C365.637 50.9999 365.104 50.763 364.539 50.683C363.997 50.6003 363.462 50.6753 362.935 50.9081C362.417 51.1284 361.947 51.5073 361.524 52.0449L361.169 52.495C360.736 53.0451 360.471 53.6262 360.374 54.2382C360.299 54.8476 360.392 55.4371 360.653 56.0065C360.935 56.5734 361.377 57.093 361.977 57.5653C362.515 57.9885 363.047 58.2763 363.575 58.4287C364.116 58.5909 364.683 58.6423 365.276 58.583L365.504 61.496C364.628 61.657 363.727 61.6057 362.801 61.3422C361.884 61.0661 360.969 60.5689 360.057 59.8505Z" fill="#F08300"/>
<path d="M369.566 67.9193C368.839 67.2518 368.183 66.5082 367.597 65.6884C367.022 64.8793 366.57 64.0426 366.241 63.1782L368.739 61.941C369.004 62.6167 369.358 63.2774 369.802 63.923C370.269 64.5677 370.795 65.1592 371.381 65.6975C371.802 66.0851 372.203 66.3778 372.583 66.5757C372.986 66.7727 373.344 66.8645 373.659 66.8512C373.974 66.8379 374.239 66.7141 374.454 66.4798C374.734 66.1752 374.815 65.8283 374.697 65.4392C374.59 65.0383 374.291 64.6118 373.799 64.1596L371.866 62.3832L373.432 60.6787L375.137 62.2451C375.453 62.5358 375.755 62.7483 376.042 62.8825C376.329 63.0168 376.585 63.0679 376.808 63.036C377.055 63.003 377.264 62.8928 377.436 62.7054C377.619 62.5062 377.705 62.2718 377.694 62.002C377.682 61.7322 377.574 61.4384 377.369 61.1205C377.175 60.7908 376.873 60.4376 376.463 60.0608C375.995 59.6302 375.455 59.242 374.843 58.8962C374.243 58.5387 373.582 58.2231 372.861 57.9495L373.937 55.438C374.795 55.7508 375.598 56.111 376.347 56.5186C377.097 56.9261 377.775 57.3985 378.384 57.9359C379.284 58.7199 379.988 59.5403 380.498 60.3972C381.007 61.254 381.277 62.0646 381.31 62.829C381.354 63.6041 381.112 64.2787 380.584 64.8528C380.164 65.3097 379.647 65.5905 379.032 65.6953C378.429 65.8109 377.79 65.7534 377.116 65.5228C376.453 65.2806 375.822 64.8849 375.225 64.3359L375.796 63.8557C376.839 64.8139 377.465 65.7784 377.675 66.7492C377.895 67.7083 377.677 68.5452 377.021 69.2598C376.461 69.869 375.76 70.2083 374.918 70.2776C374.099 70.346 373.219 70.1748 372.279 69.7641C371.36 69.3524 370.456 68.7375 369.566 67.9193Z" fill="#F08300"/>
<path d="M381.085 78.7512L390.785 70.3379L395.086 75.2959C396.138 76.5099 396.74 77.6523 396.889 78.7231C397.051 79.7836 396.735 80.6578 395.942 81.3459C395.148 82.034 394.242 82.2516 393.222 81.9987C392.225 81.7474 391.268 81.0929 390.35 80.0352L391.249 79.7607C392.271 80.9386 392.816 82.0036 392.883 82.9559C392.962 83.9202 392.586 84.762 391.757 85.4813C390.903 86.2215 389.949 86.4808 388.893 86.2592C387.837 86.0376 386.731 85.2597 385.573 83.9256L381.085 78.7512ZM385.233 79.6717L387.281 82.0335C387.73 82.5504 388.147 82.862 388.534 82.9685C388.944 83.0765 389.329 82.9742 389.69 82.6614C390.062 82.3382 390.229 81.9835 390.188 81.5971C390.16 81.2003 389.922 80.7435 389.474 80.2267L387.378 77.8108L385.233 79.6717ZM389.037 76.3721L390.882 78.4995C391.31 78.9923 391.718 79.2807 392.106 79.3647C392.506 79.4608 392.874 79.3628 393.21 79.0709C393.559 78.7686 393.708 78.4182 393.657 78.0199C393.617 77.6335 393.383 77.1939 392.955 76.7011L391.11 74.5737L389.037 76.3721Z" fill="#F08300"/>
<path d="M394.765 95.7579C393.959 94.6522 393.473 93.4999 393.308 92.3011C393.152 91.1151 393.29 89.9808 393.721 88.8983C394.175 87.8192 394.916 86.9047 395.945 86.1549C396.986 85.3956 398.084 84.9697 399.237 84.8771C400.413 84.788 401.535 85.0037 402.603 85.5242C403.694 86.0482 404.643 86.863 405.449 87.9687C406.245 89.0615 406.726 90.2073 406.892 91.4062C407.07 92.5957 406.938 93.7253 406.497 94.795C406.056 95.8647 405.309 96.7838 404.254 97.5524C403.226 98.3023 402.129 98.7282 400.962 98.8302C399.809 98.9227 398.687 98.707 397.596 98.1831C396.505 97.6591 395.561 96.8507 394.765 95.7579ZM397.233 93.9582C397.599 94.4596 398.043 94.8253 398.565 95.0551C399.087 95.2849 399.644 95.3609 400.237 95.283C400.843 95.1957 401.442 94.9365 402.033 94.5054C402.637 94.0648 403.067 93.5742 403.323 93.0334C403.578 92.4927 403.676 91.9387 403.617 91.3714C403.558 90.8041 403.346 90.2698 402.98 89.7683C402.615 89.2669 402.171 88.9013 401.649 88.6715C401.127 88.4416 400.565 88.3592 399.962 88.4243C399.369 88.5022 398.771 88.7614 398.166 89.2019C397.575 89.6331 397.145 90.1237 396.877 90.6738C396.631 91.2274 396.537 91.7879 396.596 92.3552C396.655 92.9224 396.868 93.4568 397.233 93.9582Z" fill="#F08300"/>
<path d="M406.036 109.409L412.976 105.204L410.8 101.611L409.354 102.404C408.752 102.731 408.174 103.035 407.618 103.315C407.063 103.596 406.53 103.807 406.021 103.949C405.533 104.095 405.073 104.15 404.642 104.114C404.224 104.069 403.85 103.896 403.518 103.595L402.063 100.179C402.302 100.574 402.611 100.824 402.991 100.929C403.385 101.025 403.833 101.014 404.338 100.894C404.856 100.766 405.407 100.572 405.993 100.31C406.592 100.04 407.206 99.7331 407.835 99.3893L411.718 97.232L417.518 106.805L407.965 112.593L406.036 109.409ZM396.86 102.829L401.84 99.812L410.101 113.448L405.121 116.465L403.327 113.505L405.695 112.071L401.021 104.355L398.653 105.789L396.86 102.829Z" fill="#F08300"/>
<path d="M408.44 116.733L419.975 111.092L421.6 114.415L414.739 117.77L424.347 120.032L425.846 123.098L414.311 128.739L412.686 125.416L419.547 122.061L409.95 119.82L408.44 116.733Z" fill="#F08300"/>
<path d="M24.8461 80.2158L14.7997 72.2197L22.7512 62.2293L32.7976 70.2254L30.479 73.1385L22.1693 66.5246L23.343 66.3912L18.9734 71.8813L18.84 70.7075L27.1498 77.3214L24.8461 80.2158Z" fill="#F08300"/>
<path d="M39.1301 63.5357C38.1907 64.5306 37.1468 65.219 35.9985 65.6008C34.8611 65.9711 33.7207 66.0432 32.5774 65.8171C31.4335 65.5685 30.3988 65.0073 29.4733 64.1334C28.5363 63.2486 27.9167 62.2478 27.6145 61.1309C27.3117 59.9916 27.3183 58.849 27.6344 57.7031C27.9498 56.5348 28.5772 55.4532 29.5166 54.4583C30.4451 53.4749 31.4835 52.7923 32.6319 52.4105C33.7686 52.0177 34.9032 51.9401 36.0356 52.1778C37.1679 52.4154 38.2084 52.9821 39.157 53.8778C40.0825 54.7517 40.7021 55.7526 41.0158 56.8803C41.318 57.9972 41.3114 59.1398 40.996 60.3082C40.6806 61.4765 40.0586 62.5523 39.1301 63.5357ZM36.909 61.4384C37.335 60.9872 37.6132 60.484 37.7436 59.9287C37.874 59.3735 37.8466 58.8115 37.6614 58.2428C37.4647 57.6632 37.1003 57.1221 36.5681 56.6196C36.0244 56.1062 35.4634 55.7734 34.885 55.6211C34.3066 55.4689 33.744 55.4738 33.1971 55.6358C32.6502 55.7978 32.1638 56.1044 31.7378 56.5556C31.3118 57.0067 31.0336 57.51 30.9032 58.0652C30.7728 58.6205 30.7947 59.1882 30.9689 59.7685C31.154 60.3372 31.5185 60.8783 32.0622 61.3917C32.5944 61.8942 33.1554 62.227 33.7454 62.3901C34.3347 62.5308 34.9028 62.5201 35.4496 62.3581C35.9965 62.1961 36.4829 61.8895 36.909 61.4384Z" fill="#F08300"/>
<path d="M54.8208 48.6486C53.763 49.5414 52.6411 50.124 51.4551 50.3963C50.2589 50.6564 49.1004 50.6036 47.9796 50.2378C46.8711 49.8617 45.9063 49.1874 45.0853 48.2146C44.2541 47.2298 43.7513 46.1654 43.5771 45.0216C43.4048 43.8553 43.5524 42.7105 44.02 41.5871C44.4774 40.4516 45.235 39.4374 46.2928 38.5445C47.3263 37.6722 48.4108 37.1317 49.5463 36.9229C50.6715 36.7019 51.7551 36.8387 52.7972 37.3333L51.5909 40.3815C50.9456 40.1349 50.3361 40.0664 49.7622 40.176C49.2006 40.2752 48.6948 40.5147 48.245 40.8944C47.7586 41.3049 47.4132 41.7838 47.2089 42.3311C47.0045 42.8783 46.9561 43.4501 47.0638 44.0463C47.1836 44.6323 47.4846 45.211 47.967 45.7825C48.4493 46.3539 48.9692 46.7479 49.5267 46.9644C50.0964 47.1707 50.6682 47.2191 51.242 47.1095C51.8158 47 52.3459 46.74 52.8322 46.3295C53.2821 45.9498 53.6083 45.4975 53.8108 44.9727C54.0151 44.4254 54.0448 43.8069 53.9 43.1172L57.1228 42.4583C57.4251 43.5565 57.3779 44.6478 56.9814 45.732C56.5745 46.8041 55.8544 47.7763 54.8208 48.6486Z" fill="#F08300"/>
<path d="M65.2588 46.1545C64.7154 46.5434 64.1182 46.8435 63.4673 47.0549C62.8164 47.2663 62.2163 47.3435 61.6669 47.2866L61.2317 44.3405C61.6128 44.3809 61.9938 44.3529 62.3747 44.2564C62.7686 44.1506 63.1143 43.9913 63.4119 43.7784C63.839 43.4728 64.1013 43.1286 64.1991 42.7456C64.319 42.3664 64.3158 41.8698 64.1895 41.2558L63.8164 39.5859L63.8132 39.0893L61.1155 27.4029L64.0269 25.3197L67.2402 39.7774C67.5056 40.8592 67.5895 41.7969 67.4921 42.5904C67.4077 43.3747 67.1696 44.0537 66.778 44.6274C66.3993 45.1918 65.8929 45.7009 65.2588 46.1545ZM64.5309 41.3637L52.1094 33.8467L55.2343 31.6108L65.094 37.7621L64.5309 41.3637Z" fill="#F08300"/>
<path d="M76.1676 32.8702L70.652 23.7663L71.8116 24.0683L67.3822 26.7519L65.7992 24.1392L76.3932 17.7208L77.9761 20.3335L73.5467 23.0171L73.8159 21.8495L79.3315 30.9534L76.1676 32.8702Z" fill="#F08300"/>
<path d="M84.7704 27.826L78.7268 16.4971L82.0117 14.7447L88.0553 26.0735L84.7704 27.826ZM79.5267 14.0416C78.9231 14.3636 78.3381 14.4503 77.7719 14.3015C77.2056 14.1528 76.7839 13.8187 76.5069 13.2993C76.2298 12.7799 76.1871 12.2436 76.3789 11.6904C76.5707 11.1373 76.9685 10.6997 77.5721 10.3776C78.1757 10.0556 78.7569 9.96196 79.3157 10.0967C79.867 10.2173 80.2812 10.5374 80.5583 11.0568C80.8503 11.6043 80.9042 12.1616 80.7199 12.7288C80.5421 13.2745 80.1444 13.7121 79.5267 14.0416Z" fill="#F08300"/>
<path d="M320.458 436.136C319.875 436.463 319.249 436.696 318.579 436.835C317.909 436.974 317.304 436.985 316.764 436.868L316.653 433.892C317.028 433.974 317.41 433.988 317.799 433.934C318.202 433.872 318.563 433.751 318.882 433.572C319.34 433.315 319.638 433.002 319.777 432.632C319.938 432.268 319.989 431.774 319.931 431.15L319.743 429.449L319.794 428.955L318.39 417.044L321.512 415.291L323.125 430.014C323.27 431.118 323.251 432.059 323.068 432.837C322.898 433.608 322.587 434.257 322.135 434.784C321.697 435.304 321.138 435.754 320.458 436.136ZM320.258 431.294L308.733 422.464L312.084 420.583L321.212 427.776L320.258 431.294Z" fill="#4B73F3"/>
<path d="M339.047 419.071L332.076 416.446L333.58 413.263L342.682 416.606L339.047 419.071ZM331.522 424.175L324.314 413.549L327.396 411.459L334.603 422.085L331.522 424.175ZM330.962 418.672L329.287 416.203L333 413.685L334.675 416.154L330.962 418.672ZM334.934 414.622L331.836 416.262L331.939 408.378L335.217 406.154L334.934 414.622Z" fill="#4B73F3"/>
<path d="M350.658 410.527C349.817 411.207 348.93 411.617 347.999 411.756C347.068 411.895 346.118 411.732 345.149 411.268C344.182 410.781 343.229 409.956 342.288 408.793C341.338 407.617 340.725 406.517 340.449 405.492C340.172 404.468 340.2 403.515 340.531 402.633C340.862 401.752 341.466 400.956 342.345 400.246C343.285 399.485 344.301 399.022 345.394 398.854C346.489 398.665 347.563 398.778 348.616 399.195C349.682 399.602 350.635 400.325 351.475 401.365C352.325 402.416 352.838 403.506 353.013 404.633C353.2 405.75 353.086 406.824 352.672 407.855C352.27 408.876 351.598 409.767 350.658 410.527ZM347.547 418.751L336.563 405.166L339.328 402.93L340.979 404.972L343.324 407.986L345.896 410.787L350.443 416.41L347.547 418.751ZM348.236 408.557C348.719 408.167 349.055 407.71 349.247 407.187C349.45 406.654 349.498 406.094 349.391 405.506C349.286 404.895 349.003 404.305 348.543 403.736C348.073 403.154 347.555 402.754 346.99 402.536C346.437 402.308 345.879 402.238 345.315 402.325C344.764 402.402 344.247 402.636 343.764 403.026C343.282 403.416 342.939 403.878 342.735 404.411C342.532 404.944 342.484 405.504 342.591 406.093C342.699 406.681 342.987 407.266 343.458 407.847C343.918 408.417 344.429 408.821 344.992 409.062C345.545 409.29 346.103 409.361 346.667 409.273C347.231 409.186 347.754 408.947 348.236 408.557Z" fill="#4B73F3"/>
<path d="M364.43 397.996L362.691 396.192L362.138 395.963L359.023 392.733C358.471 392.16 357.863 391.885 357.199 391.906C356.546 391.917 355.859 392.27 355.137 392.966C354.645 393.441 354.235 393.99 353.909 394.615C353.583 395.216 353.381 395.809 353.303 396.393L350.535 395.448C350.696 394.607 351.038 393.747 351.561 392.867C352.083 391.988 352.711 391.195 353.444 390.488C354.852 389.129 356.266 388.407 357.686 388.32C359.105 388.233 360.494 388.894 361.853 390.303L366.939 395.577L364.43 397.996ZM361.745 400.85C361.024 401.546 360.289 402.022 359.542 402.279C358.784 402.524 358.063 402.567 357.379 402.408C356.696 402.25 356.1 401.907 355.592 401.38C355.062 400.83 354.73 400.222 354.595 399.556C354.473 398.878 354.593 398.144 354.956 397.351C355.308 396.547 355.954 395.693 356.893 394.787L359.35 392.418L360.857 393.981L358.693 396.069C358.063 396.676 357.727 397.199 357.685 397.637C357.655 398.064 357.789 398.432 358.087 398.742C358.419 399.085 358.815 399.233 359.278 399.185C359.74 399.115 360.206 398.853 360.676 398.4C361.123 397.97 361.424 397.48 361.58 396.931C361.725 396.371 361.679 395.808 361.442 395.241L363.047 396.08C363.427 396.864 363.508 397.658 363.291 398.465C363.074 399.271 362.559 400.066 361.745 400.85Z" fill="#4B73F3"/>
<path d="M370.518 391.789L361.052 383.114L363.567 380.369L373.034 389.044L370.518 391.789ZM362.312 379.09C362.011 379.418 361.647 379.592 361.22 379.61C360.793 379.629 360.403 379.477 360.051 379.155C359.699 378.832 359.514 378.457 359.496 378.03C359.477 377.603 359.618 377.225 359.919 376.897C360.22 376.568 360.579 376.401 360.995 376.394C361.422 376.375 361.812 376.527 362.164 376.85C362.516 377.172 362.701 377.547 362.719 377.974C362.749 378.389 362.613 378.761 362.312 379.09ZM359.668 381.975C359.377 382.292 359.019 382.46 358.592 382.479C358.164 382.497 357.775 382.345 357.423 382.023C357.071 381.7 356.886 381.325 356.867 380.898C356.849 380.471 356.984 380.099 357.275 379.783C357.576 379.454 357.94 379.281 358.367 379.262C358.794 379.243 359.183 379.395 359.535 379.718C359.887 380.04 360.073 380.415 360.091 380.842C360.11 381.269 359.969 381.647 359.668 381.975Z" fill="#4B73F3"/>
<path d="M376.392 385.404L366.378 377.367L368.693 374.482L372.602 377.619L376.098 373.263L372.189 370.126L374.519 367.223L384.533 375.259L382.203 378.163L378.461 375.16L374.966 379.516L378.707 382.518L376.392 385.404Z" fill="#4B73F3"/>
<path d="M390.632 366.882C389.855 368.028 388.932 368.892 387.864 369.475C386.783 370.049 385.653 370.311 384.475 370.262C383.306 370.2 382.195 369.811 381.142 369.097C380.075 368.373 379.303 367.484 378.826 366.43C378.345 365.354 378.177 364.212 378.324 363.004C378.457 361.787 378.912 360.606 379.689 359.46C380.448 358.341 381.346 357.527 382.383 357.019C383.407 356.502 384.487 356.341 385.624 356.535L385.287 359.796C384.599 359.733 383.993 359.832 383.471 360.093C382.957 360.34 382.535 360.708 382.204 361.195C381.847 361.721 381.644 362.276 381.595 362.858C381.546 363.44 381.654 364.004 381.919 364.549C382.193 365.08 382.639 365.556 383.258 365.976C383.877 366.396 384.484 366.634 385.079 366.692C385.684 366.737 386.247 366.629 386.77 366.368C387.293 366.107 387.733 365.714 388.09 365.187C388.421 364.7 388.612 364.176 388.665 363.616C388.714 363.034 388.575 362.431 388.25 361.806L391.174 360.3C391.762 361.275 392.012 362.339 391.923 363.49C391.821 364.632 391.391 365.763 390.632 366.882Z" fill="#4B73F3"/>
<path d="M391.564 348.388C392.409 346.929 393.372 346.002 394.454 345.609C395.53 345.194 396.656 345.32 397.833 345.986C399.065 346.684 399.781 347.665 399.979 348.929C400.164 350.186 399.817 351.589 398.939 353.14L395.744 358.736L384.57 352.41L386.392 349.191L389.965 351.213L391.564 348.388ZM396.469 352.125C396.836 351.51 396.975 350.958 396.886 350.469C396.797 349.98 396.476 349.579 395.922 349.265C395.368 348.951 394.879 348.894 394.456 349.093C394.019 349.284 393.617 349.688 393.25 350.303L392.042 352.389L395.282 354.223L396.469 352.125Z" fill="#4B73F3"/>
<path d="M407.404 336.342L400.077 337.683L399.726 334.18L409.25 332.357L407.404 336.342ZM403.583 344.593L391.932 339.198L393.497 335.819L405.148 341.215L403.583 344.593ZM400.269 340.165L397.561 338.912L399.447 334.84L402.154 336.094L400.269 340.165ZM401.588 334.648L399.777 337.649L395.803 330.838L397.468 327.243L401.588 334.648Z" fill="#4B73F3"/>
<path d="M412.57 324.113C412.098 325.397 411.411 326.442 410.506 327.245C409.606 328.034 408.587 328.55 407.447 328.793C406.298 329.015 405.126 328.908 403.931 328.469C402.721 328.026 401.757 327.35 401.039 326.443C400.311 325.515 399.867 324.463 399.705 323.285C399.535 322.087 399.685 320.845 400.156 319.561C400.621 318.291 401.307 317.254 402.211 316.451C403.101 315.641 404.113 315.123 405.248 314.895C406.382 314.667 407.562 314.777 408.786 315.227C409.982 315.665 410.946 316.34 411.679 317.253C412.397 318.16 412.841 319.213 413.012 320.411C413.183 321.609 413.035 322.843 412.57 324.113ZM409.701 323.061C409.915 322.478 409.972 321.906 409.873 321.345C409.774 320.783 409.527 320.277 409.133 319.828C408.724 319.372 408.175 319.019 407.488 318.767C406.786 318.509 406.139 318.425 405.548 318.513C404.956 318.601 404.441 318.827 404.002 319.192C403.564 319.556 403.238 320.03 403.024 320.612C402.81 321.195 402.753 321.767 402.852 322.329C402.951 322.891 403.195 323.404 403.584 323.868C403.978 324.318 404.527 324.671 405.229 324.929C405.916 325.181 406.563 325.266 407.169 325.183C407.766 325.08 408.284 324.846 408.723 324.482C409.162 324.117 409.488 323.644 409.701 323.061Z" fill="#4B73F3"/>
<path d="M416.157 313.604L403.715 310.434L404.628 306.849L409.207 308.016L410.138 304.362L413.26 305.157L412.329 308.811L417.07 310.019L416.157 313.604ZM419.341 301.879C419.015 303.159 418.447 304.229 417.637 305.09C416.826 305.95 415.87 306.544 414.769 306.871C413.652 307.194 412.477 307.199 411.244 306.884C409.995 306.566 408.965 306 408.155 305.186C407.329 304.368 406.773 303.389 406.489 302.25C406.189 301.106 406.203 299.894 406.529 298.615C406.855 297.335 407.421 296.272 408.227 295.427C409.022 294.562 409.978 293.969 411.095 293.646C412.196 293.319 413.371 293.314 414.62 293.632C415.853 293.947 416.883 294.513 417.709 295.331C418.535 296.149 419.098 297.129 419.398 298.273C419.686 299.397 419.667 300.599 419.341 301.879ZM416.381 301.125C416.53 300.539 416.523 299.987 416.359 299.469C416.2 298.936 415.899 298.473 415.457 298.082C415.003 297.671 414.422 297.375 413.713 297.194C412.988 297.009 412.336 296.991 411.756 297.139C411.181 297.271 410.695 297.534 410.3 297.925C409.908 298.302 409.638 298.783 409.489 299.369C409.344 299.939 409.349 300.499 409.505 301.048C409.664 301.581 409.963 302.051 410.401 302.458C410.843 302.85 411.427 303.138 412.151 303.323C412.861 303.503 413.511 303.53 414.102 303.401C414.681 303.253 415.169 302.983 415.564 302.591C415.963 302.184 416.236 301.695 416.381 301.125Z" fill="#4B73F3"/>
<defs>
<clipPath id="clip0_802_931">
<rect width="390" height="390" fill="white" transform="translate(0 38)"/>
</clipPath>
<clipPath id="clip1_802_931">
<rect width="101.408" height="120.476" fill="white" transform="translate(288.607 100.5) rotate(44.5925)"/>
</clipPath>
<clipPath id="clip2_802_931">
<rect width="103.543" height="123.013" fill="white" transform="translate(61.8603 132.316) rotate(-45.2478)"/>
</clipPath>
<clipPath id="clip3_802_931">
<rect width="104.333" height="123.256" fill="white" transform="translate(167.505 68.6162) rotate(-0.81886)"/>
</clipPath>
<clipPath id="clip4_802_931">
<rect width="104.333" height="123.256" fill="white" transform="translate(26.3994 251.964) rotate(-91.6294)"/>
</clipPath>
<clipPath id="clip5_802_931">
<rect width="104.333" height="123.256" fill="white" transform="translate(99.4034 362.002) rotate(-138.264)"/>
</clipPath>
<clipPath id="clip6_802_931">
<rect width="104.333" height="123.256" fill="white" transform="translate(222.579 390.072) rotate(173.971)"/>
</clipPath>
<clipPath id="clip7_802_931">
<rect width="104.333" height="123.256" fill="white" transform="translate(323.223 327.956) rotate(133.148)"/>
</clipPath>
<clipPath id="clip8_802_931">
<rect width="104.333" height="123.256" fill="white" transform="translate(355.986 201.961) rotate(87.5968)"/>
</clipPath>
</defs>
</svg>
