<svg width="371" height="3" viewBox="0 0 371 3" fill="none" xmlns="http://www.w3.org/2000/svg">
<path d="M74.0434 1.57831C74.0434 1.58606 74.0472 1.59268 74.0472 1.60042C74.0205 1.61259 73.9919 1.61479 73.9652 1.62695L74.0434 1.57831Z" fill="#F08300"/>
<path d="M370.817 2.04065C370.418 2.40122 370.043 3.1832 369.392 2.96089C366.343 1.92231 363.229 2.90224 360.153 2.69099C352.115 2.13907 343.968 2.20102 335.943 2.31052C329.483 2.399 323.022 2.18442 316.562 2.34812C300.477 2.75514 284.384 2.65229 268.295 2.34923C259.107 2.17669 249.927 1.86477 240.727 2.07603C236.909 2.16451 233.051 2.36473 229.271 2.13135C223.124 1.75087 216.988 1.94442 210.867 2.0307C204.635 2.11918 198.433 1.76634 192.195 1.9057C184.3 2.08267 176.363 1.63804 168.485 1.91566C157.655 2.29725 146.806 2.90447 135.994 2.73524C125.477 2.57044 114.979 2.94426 104.455 2.6943C97.8435 2.53724 91.1484 2.42553 84.48 2.61356C82.2744 2.6755 80.0477 2.36248 77.7353 2.53724C77.1114 2.5848 74.1692 3.42431 74.049 1.60043C75.1442 1.12262 76.4092 1.2476 77.638 1.21773C85.4741 1.03192 93.2968 1.60708 101.142 1.33942C106.534 1.15581 111.989 0.837269 117.315 0.943449C125.448 1.10604 133.576 0.838366 141.716 1.11377C148.714 1.35047 155.785 0.869326 162.814 0.607193C174.001 0.189107 185.191 0.613823 196.36 0.711155C210.73 0.837244 225.1 0.447939 239.466 0.852752C246.224 1.04299 253.012 0.90141 259.765 0.899198C272.836 0.892562 285.87 1.61261 298.943 1.36817C312.635 1.11157 326.334 0.99542 340.032 0.874861C344.573 0.835044 349.148 1.19451 353.657 0.96998C358.349 0.736604 363.084 1.18123 367.736 0.535297C368.68 0.404783 369.63 0.50324 370.352 1.00981C370.785 1.31618 371.273 1.62699 370.817 2.04065Z" fill="#F08300"/>
<path d="M66.5944 2.46449C57.0812 2.0641 47.5699 1.88159 38.0567 2.17137C32.2774 2.34724 26.5115 1.9933 20.7264 2.30409C15.8592 2.56623 10.9213 2.3229 6.05022 2.56623C1.18104 2.80956 1.19822 2.95226 0 0.00022316C1.48823 0.105298 2.93829 0.278938 4.47232 0.308801C6.86684 0.355255 9.1736 0.0156922 11.5147 0.0743129C20.6501 0.301053 29.7875 0.831955 38.9115 0.751213C45.1601 0.695911 51.3458 1.12394 57.5697 1.08301C60.3973 1.06421 63.1982 1.40158 66.0621 1.22019C68.6932 1.05318 71.4274 0.716912 73.9478 1.62166C71.7574 2.74983 68.9737 2.56404 66.5944 2.46449Z" fill="#F08300"/>
<path d="M74.0396 1.58051C74.0453 1.57719 73.9652 1.62695 73.9652 1.62695C73.9595 1.62474 73.9537 1.62363 73.9461 1.62142C73.9766 1.60593 74.0091 1.59599 74.0396 1.58051Z" fill="#F08300"/>
</svg>
