<svg width="344" height="62" viewBox="0 0 344 62" fill="none" xmlns="http://www.w3.org/2000/svg">
<g clip-path="url(#clip0_401_1094)">
<path opacity="0.7" d="M65.8866 58.8288C57.1864 53.3077 8.74879 63.4918 3.86104 61.8131C0.43961 59.9106 -1.12447 22.1212 0.879508 16.339C1.56379 14.2872 2.68798 13.8769 5.57175 14.5857C8.30889 15.4437 34.214 12.5712 37.1466 12.2728C51.5166 10.706 65.349 9.25113 65.349 9.25113C66.2288 10.3703 67.9395 6.34139 68.526 7.75896C69.3569 9.36305 92.2316 7.98278 115.888 6.52791C139.545 5.07303 164.033 3.58086 167.894 3.43164C172.586 3.24512 168.969 5.55799 174.444 4.62538C186.076 2.64825 211.786 4.51347 220.584 2.53633C227.671 0.932241 229.186 0.969545 236.078 2.34981C243.068 3.73007 280.166 2.79746 284.467 0.409979C285.542 -0.298806 286.324 -0.000370312 286.275 0.857632C286.275 0.932241 290.283 1.19337 290.381 1.23068C291.163 1.30529 312.425 2.76016 312.523 3.39433C312.669 4.25234 313.451 4.66269 314.233 4.14042C315.602 3.24512 343.609 1.60372 343.902 4.06581C344.782 11.1164 339.21 40.6242 335.739 47.712C332.074 55.2102 314.966 45.623 300.596 49.6892C274.349 48.8685 268.728 48.6446 234.661 48.197L220.584 50.9202C218.922 48.3835 212.91 54.576 208.951 50.1368C207.338 48.3462 196.096 48.0478 193.652 49.913C192.626 50.6964 177.67 50.1368 162.273 50.2114C146.877 50.286 131.04 51.0694 128.352 53.6061C116.524 49.3907 72.1429 57.9334 65.8377 58.8661L65.8866 58.8288Z" fill="#F08300"/>
</g>
<defs>
<clipPath id="clip0_401_1094">
<rect width="344" height="62" fill="white"/>
</clipPath>
</defs>
</svg>
