<svg width="242" height="218" viewBox="0 0 242 218" fill="none" xmlns="http://www.w3.org/2000/svg">
<path d="M38.715 215.507L171.281 188.462L176.451 177.544L43.8849 204.589L38.715 215.507Z" fill="white"/>
<path d="M38.715 215.507L171.281 188.462L172.574 185.733L39.8126 213.104L38.715 215.507Z" fill="#2B2D54"/>
<rect x="8.25319" y="27.4354" width="134.297" height="180.201" transform="rotate(-11.5308 8.25319 27.4354)" fill="#2B2D54" stroke="#2B2D54"/>
<path d="M7.66333 27.0454L2.49335 37.9633L38.7144 215.508L43.8844 204.59L7.66333 27.0454Z" fill="#2B2D54"/>
<rect x="8.25319" y="27.4354" width="134.297" height="180.201" transform="rotate(-11.5308 8.25319 27.4354)" fill="#F08300" stroke="#2B2D54"/>
<path d="M68.3026 193.372L201.565 216.748L210.374 208.482L77.1114 185.105L68.3026 193.372Z" fill="white"/>
<path d="M68.3026 193.372L201.565 216.748L203.767 214.681L70.204 191.537L68.3026 193.372Z" fill="#2B2D54"/>
<rect x="108.825" y="7.20802" width="134.297" height="180.201" transform="rotate(9.94939 108.825 7.20802)" fill="#2B2D54" stroke="#2B2D54"/>
<path d="M108.419 6.62915L99.6103 14.8956L68.3026 193.372L77.1114 185.105L108.419 6.62915Z" fill="#2B2D54"/>
<rect x="108.825" y="7.20802" width="134.297" height="180.201" transform="rotate(9.94939 108.825 7.20802)" fill="#81F4E1" stroke="#2B2D54"/>
<path d="M51.3311 202.693H186.628L193.876 193.029H58.5791L51.3311 202.693Z" fill="white"/>
<path d="M51.3311 202.693H186.628L188.44 200.277L52.8869 200.558L51.3311 202.693Z" fill="#2B2D54"/>
<rect x="59.079" y="12.3281" width="134.297" height="180.201" fill="#2B2D54" stroke="#2B2D54"/>
<path d="M58.579 11.8281L51.3309 21.4922V202.694L58.579 193.029V11.8281Z" fill="#2B2D54"/>
<rect x="59.079" y="12.3281" width="134.297" height="180.201" fill="#FFD656" stroke="#2B2D54"/>
<rect x="75.8298" y="37.6345" width="99.999" height="35.4835" fill="#2B2D54"/>
<rect width="99.999" height="13.9784" transform="matrix(1 0 0 -1 75.8298 177.418)" fill="#2B2D54"/>
</svg>
