<svg width="24" height="24" viewBox="0 0 24 24" fill="none" xmlns="http://www.w3.org/2000/svg">
<g clip-path="url(#clip0_401_2421)">
<path d="M3.39848 0.0890617C3.18285 0.224999 1.09223 2.35312 1.05473 2.475C0.975042 2.7375 1.05942 2.85469 2.10473 3.90937C3.2766 5.09531 3.40785 5.20312 3.66567 5.20312C3.97973 5.20312 4.22817 4.87031 4.14848 4.55625C4.12973 4.48125 3.86254 4.17187 3.47817 3.7875L2.84535 3.14531L5.41879 3.13125C8.23598 3.11719 8.11879 3.12656 8.27817 2.83125C8.43754 2.53594 8.25473 2.18906 7.8891 2.10469C7.79067 2.08125 6.6141 2.0625 5.27348 2.0625H2.83598L3.45473 1.43906C3.79223 1.10156 4.09223 0.773437 4.12035 0.717187C4.23754 0.482812 4.11567 0.173437 3.86723 0.0656242C3.65629 -0.0234385 3.56723 -0.0187507 3.39848 0.0890617Z" fill="#2B2D54"/>
<path d="M19.0453 0.09375C18.8625 0.201562 18.7969 0.31875 18.7969 0.529687C18.7969 0.735937 18.9422 0.932812 19.5656 1.54687L20.0625 2.03906L17.5219 2.0625C15.1922 2.08594 14.9672 2.09062 14.8547 2.17031C14.625 2.325 14.5547 2.6625 14.7047 2.89219C14.8687 3.14062 14.8875 3.14062 17.6109 3.14062H20.1281L19.4625 3.81094C18.8156 4.46719 18.7969 4.49062 18.7969 4.68281C18.7969 4.85156 18.825 4.9125 18.9562 5.04375C19.0875 5.175 19.1484 5.20312 19.3172 5.20312C19.5141 5.20312 19.5234 5.19375 20.6625 4.06406C21.2906 3.44062 21.8344 2.86406 21.8719 2.78437C21.9937 2.49375 21.9281 2.4 20.7328 1.20937C19.4672 -0.0515628 19.3781 -0.1125 19.0453 0.09375Z" fill="#2B2D54"/>
<path d="M10.9219 3.21553C10.2563 3.39365 9.70318 3.94209 9.46412 4.66396C9.41724 4.81396 9.39849 5.8124 9.37506 9.45459L9.35162 14.0577L8.50787 13.4202C7.27974 12.4968 7.03599 12.3608 6.43131 12.239C5.38599 12.028 4.11099 12.5952 3.71256 13.439C3.60943 13.664 3.58599 13.7765 3.58599 14.0858C3.58599 14.803 3.33756 14.5171 7.79537 18.9655C10.2094 21.3796 11.8641 22.9921 12.0516 23.1233C12.6376 23.5358 13.2938 23.8077 13.9969 23.9296C14.5641 24.028 17.3485 24.028 18.0235 23.9296C18.7547 23.8218 19.2938 23.6483 19.8704 23.339C21.3047 22.5655 22.3454 21.2624 22.7579 19.7202C22.9501 19.003 22.9782 18.3983 22.9594 15.1405C22.9454 12.3374 22.936 12.0983 22.8563 11.8874C22.711 11.5124 22.5563 11.2733 22.2985 11.0249C21.8438 10.5983 21.3704 10.4249 20.7282 10.4624C20.3579 10.4858 20.0766 10.5749 19.7297 10.7671C19.7157 10.7765 19.6547 10.6733 19.5891 10.5374C19.5282 10.4015 19.3594 10.1718 19.2188 10.0312C18.6047 9.40303 17.6766 9.22959 16.861 9.59521C16.7157 9.66084 16.5844 9.70771 16.5751 9.69834C16.5657 9.68896 16.5094 9.58584 16.4532 9.46865C16.2938 9.1499 15.8813 8.75146 15.5485 8.5874C14.9719 8.30615 14.2688 8.28271 13.7813 8.53115C13.6782 8.58271 13.5844 8.6249 13.5704 8.6249C13.5563 8.6249 13.5469 7.77178 13.5469 6.73584C13.5469 4.98271 13.5422 4.82334 13.4579 4.57959C13.0922 3.51553 11.9954 2.92959 10.9219 3.21553ZM11.9344 4.27959C12.136 4.38271 12.3282 4.58896 12.4266 4.80459C12.511 4.98271 12.5157 5.2124 12.5157 9.0374C12.5157 13.3874 12.511 13.2983 12.7547 13.4718C12.9704 13.6218 13.3735 13.5327 13.4907 13.303C13.5282 13.228 13.5469 12.7358 13.5563 11.6952C13.5751 10.0405 13.5797 10.0077 13.8797 9.70771C14.0813 9.50146 14.311 9.40771 14.6016 9.40771C15.0141 9.40771 15.3376 9.5999 15.5297 9.96084C15.6282 10.139 15.6329 10.2233 15.6563 11.7093L15.6797 13.2749L15.8344 13.4108C16.0547 13.6124 16.3126 13.603 16.5282 13.3874L16.6876 13.228V12.3233C16.6876 11.8218 16.711 11.3296 16.7391 11.2265C16.9032 10.6077 17.5922 10.2796 18.1688 10.5421C18.436 10.664 18.6844 10.9733 18.7454 11.2593C18.7735 11.3858 18.7969 11.878 18.7969 12.3562V13.228L18.9563 13.3874C19.0829 13.514 19.1532 13.5468 19.2985 13.5468C19.6782 13.5468 19.8282 13.3124 19.8282 12.7171C19.8282 12.4171 19.8516 12.253 19.9172 12.1171C20.2126 11.4702 21.0001 11.2874 21.5438 11.7327C21.9047 12.0327 21.8907 11.8593 21.8907 15.5296C21.8907 19.0312 21.886 19.0921 21.6469 19.8046C21.2719 20.9108 20.3672 21.928 19.2891 22.453C18.4032 22.889 17.8829 22.9687 15.9751 22.9687C14.5641 22.9687 14.1282 22.9312 13.5938 22.753C12.8157 22.4952 12.9141 22.5843 8.65318 18.3327C6.25787 15.9421 4.69693 14.353 4.65474 14.2593C4.56568 14.053 4.63599 13.8374 4.85631 13.6452C5.36256 13.1999 6.12193 13.1108 6.72193 13.4296C6.83443 13.4905 7.55162 14.0062 8.31099 14.578C9.74537 15.6515 9.88131 15.7265 10.1204 15.5999C10.1813 15.5671 10.2797 15.478 10.3313 15.4077C10.4297 15.2765 10.4297 15.2624 10.4532 10.064L10.4766 4.85146L10.6266 4.63115C10.8422 4.32178 11.1797 4.15771 11.536 4.18584C11.6813 4.1999 11.8594 4.24209 11.9344 4.27959Z" fill="#2B2D54"/>
</g>
<defs>
<clipPath id="clip0_401_2421">
<rect width="24" height="24" fill="white"/>
</clipPath>
</defs>
</svg>
