<svg width="92" height="146" viewBox="0 0 92 146" fill="none" xmlns="http://www.w3.org/2000/svg">
<path opacity="0.3" fill-rule="evenodd" clip-rule="evenodd" d="M67.3078 0.350056C67.4764 0.621294 67.9052 0.843095 68.2608 0.843095C68.6164 0.843095 68.907 1.04352 68.907 1.28848C68.907 1.53344 68.7173 1.73386 68.485 1.73386C68.2527 1.73386 67.9383 1.53344 67.7859 1.28848C67.3576 0.600362 66.2163 0.762481 66.2163 1.51117C66.2163 1.87861 66.0396 2.17924 65.824 2.17924C65.6083 2.17924 64.4176 3.63253 63.1791 5.40827C61.94 7.18401 60.3239 9.38731 59.5871 10.3039C57.6996 12.6529 54.8632 18.25 53.4345 22.4442C52.7668 24.4038 52.1063 26.3078 51.9664 26.6753C51.5533 27.7585 50.5278 32.1014 50.2381 33.9956C49.9865 35.6399 50.0165 35.7023 50.726 34.9977C51.1417 34.5848 51.748 34.2468 52.0726 34.2468C52.4009 34.2468 52.8018 33.5048 52.9749 32.5766C53.1457 31.6582 53.5924 30.2049 53.9673 29.3476C54.3417 28.4902 54.8202 27.3879 55.0305 26.898C55.2404 26.4081 55.6669 25.1053 55.9776 24.003C56.5983 21.801 57.4404 20.676 58.144 21.108C58.8584 21.5463 59.2539 19.9585 58.5463 19.4948C58.1104 19.2093 58.2898 19.1452 59.1364 19.2842C60.1871 19.457 60.4279 19.277 60.9082 17.9578C61.2136 17.1183 61.6248 16.4315 61.8221 16.4315C62.019 16.4315 62.1804 16.2306 62.1804 15.9848C62.1804 15.7389 62.7737 14.5912 63.4988 13.4341C64.9284 11.1533 64.958 10.7711 63.6522 11.465C62.4199 12.1202 61.4575 11.4178 62.4696 10.6023C63.149 10.0545 63.1983 10.0594 62.8531 10.6415C62.5239 11.196 62.5737 11.2156 63.1445 10.7569C63.523 10.4527 63.9517 10.3222 64.097 10.4669C64.2428 10.6112 64.2486 10.2999 64.1105 9.77435C63.9446 9.14547 64.1463 8.603 64.7011 8.18567C65.2773 7.75232 65.3491 7.54788 64.9284 7.53808C64.4603 7.5274 64.4342 7.37864 64.819 6.91811C65.1069 6.57339 65.8074 6.4037 66.4432 6.52439C67.7684 6.77604 67.8271 7.00096 66.7769 7.80042C66.141 8.28455 66.1065 8.4725 66.5953 8.79273C67.0468 9.08802 66.9056 9.26038 66.0347 9.47773C65.3948 9.63717 64.871 10.0046 64.871 10.2937C64.871 10.6932 65.0002 10.6914 65.4091 10.2852C66.0473 9.65143 66.6648 9.58818 66.6648 10.156C66.6648 10.3792 65.8576 11.5759 64.871 12.8154C63.8845 14.0549 63.0773 15.151 63.0773 15.2508C63.0773 15.351 62.3903 16.5664 61.5503 17.9516C60.6086 19.5046 59.9189 20.2511 59.7517 19.8983C59.6019 19.5839 59.5647 19.7799 59.6687 20.3344C59.8472 21.2888 59.0476 22.1168 57.9202 22.1449C57.6736 22.1511 57.2557 22.9225 56.9915 23.8587C56.4933 25.6246 56.1032 26.7123 55.4225 28.2341C55.0157 29.1436 54.0951 31.44 53.8157 32.2426C53.7305 32.4875 53.4081 33.9083 53.1 35.3994C52.7915 36.8906 52.3372 38.0432 52.0906 37.9604C51.5565 37.7809 51.4506 40.1454 51.9762 40.5164C52.1762 40.6576 51.83 41.0041 51.2062 41.2861C50.1878 41.747 49.5439 41.3048 50.4363 40.757C50.6367 40.634 50.7551 39.8871 50.7 39.0975C50.6453 38.3078 50.7905 37.164 51.0233 36.5561C51.3735 35.6413 51.3399 35.538 50.8305 35.958C50.4914 36.2376 50.0636 36.3174 49.8793 36.1357C49.695 35.9544 49.678 36.6073 49.8421 37.5872C50.0753 38.983 50.0273 39.2239 49.6215 38.7006C49.2044 38.163 49.156 38.2726 49.373 39.2605C49.5215 39.9357 49.4874 40.463 49.2973 40.4327C48.4345 40.2933 48.2824 40.5472 48.7309 41.3796C49.0981 42.0615 49.0712 42.3314 48.6192 42.5037C48.2919 42.6284 47.9645 43.2769 47.8918 43.9446C47.6779 45.9056 47.5631 46.4498 47.1883 47.2796C46.9932 47.7116 46.9219 48.6634 47.03 49.3951C47.1443 50.1674 47.0241 50.7286 46.7439 50.7326C46.4784 50.7366 46.5636 50.9339 46.9335 51.1713C47.3035 51.4087 47.3761 51.606 47.0945 51.61C46.2977 51.6207 46.0891 54.6591 46.8649 54.9549C47.6398 55.2501 47.6757 55.2203 48.2076 53.8271C48.5851 52.8388 48.6228 52.8954 48.5883 54.4004C48.5667 55.3192 48.5017 56.0705 48.4434 56.0705C48.3851 56.0705 47.8398 55.8826 47.2318 55.6532C46.3156 55.3072 46.0878 55.3833 45.8994 56.0982C45.7748 56.5725 45.8555 57.0727 46.0788 57.2098C46.3021 57.347 46.4851 57.1319 46.4851 56.7324C46.4851 55.8572 47.8838 56.0051 48.1878 56.9119C48.3313 57.3399 48.2044 57.4165 47.7766 57.1604C47.2515 56.8464 47.251 56.9043 47.773 57.5439C48.3035 58.1932 48.2883 58.2975 47.6609 58.2975C47.2609 58.2975 46.9335 58.4979 46.9335 58.7428C46.9335 58.9878 46.4797 59.1913 45.9246 59.1949C45.1873 59.1998 45.0797 59.3049 45.5241 59.5846C46.4385 60.1605 45.7232 61.8779 43.9586 63.3436C43.1236 64.0371 42.5577 64.792 42.7003 65.0214C42.8429 65.2503 43.1734 65.3069 43.4353 65.1461C43.7035 64.9818 43.8245 65.1118 43.7124 65.445C43.6035 65.7701 43.2465 66.1246 42.9191 66.2328C42.5922 66.3411 42.451 66.2262 42.6061 65.9772C42.7608 65.7282 42.5837 65.2739 42.2119 64.9675C41.4581 64.3462 40.124 61.7599 40.2388 61.1439C40.4823 59.8434 40.1743 59.5031 39.5011 60.328C39.1128 60.8032 38.9088 60.9644 39.0478 60.686C39.1868 60.4077 39.002 59.9342 38.6375 59.6336C38.2729 59.333 38.067 58.9388 38.18 58.7571C38.2931 58.5754 37.8872 57.9621 37.2782 57.3938C35.993 56.1948 35.7504 55.109 37.0235 56.2531C37.6639 56.829 37.9599 56.8843 38.2137 56.4763C38.4177 56.1485 38.3648 56.0478 38.0809 56.222C37.6913 56.4611 36.872 55.3143 37.0688 54.8052C37.2267 54.3972 35.45 53.5243 34.8446 53.7127C34.2827 53.8873 34.2688 53.8459 34.771 53.49C35.1625 53.213 35.2473 52.8304 35.002 52.446C34.7894 52.1124 34.6123 51.639 34.6083 51.394C34.6047 51.1491 34.097 50.8814 33.4804 50.7994C32.8638 50.7175 32.1786 50.4779 31.9575 50.2668C31.5096 49.8392 29.0481 50.1919 28.2687 50.7959C27.992 51.0101 27.3234 52.4349 26.783 53.9621C26.2427 55.4893 25.3839 57.5791 24.8745 58.6066C24.3651 59.634 24.0659 60.78 24.2103 61.1533C24.3547 61.5265 24.266 61.9589 24.013 62.1139C23.7606 62.2689 23.6619 62.6765 23.7942 63.019C23.9269 63.3619 23.8395 63.642 23.6009 63.642C23.3619 63.642 23.1664 64.1311 23.1664 64.7292C23.1664 65.3274 22.9987 65.9193 22.7933 66.0453C22.413 66.2792 21.4785 71.4247 21.4507 73.4405C21.4421 74.0529 21.33 75.4558 21.2013 76.5581C21.0726 77.6605 20.8408 79.817 20.6856 81.35C20.5305 82.8835 20.2538 84.0459 20.0704 83.9337C19.8874 83.821 19.7067 84.4708 19.6695 85.3767C19.5112 89.1807 19.4533 89.5473 19.0986 88.9781C18.8529 88.5826 18.6506 88.7759 18.4399 89.6087C18.273 90.2697 17.9318 90.8104 17.6815 90.8104C17.4233 90.8104 17.4717 91.1035 17.7937 91.4887C18.2726 92.0619 18.2354 92.1194 17.5506 91.8584C16.9932 91.6459 16.8421 91.7123 17.0658 92.0717C17.3986 92.6062 15.7708 93.4355 14.0393 93.6136C13.3784 93.6813 13.1236 93.4154 13.0618 92.5919C13.016 91.9795 12.2438 90.406 11.3456 89.0957C10.4478 87.7849 9.69892 86.4822 9.68188 86.2007C9.66439 85.9187 9.47695 86.0893 9.26484 86.5793C8.95048 87.3052 8.8738 87.3311 8.84779 86.7169C8.83075 86.3027 9.03972 85.8266 9.31282 85.6591C9.62942 85.4649 9.6487 85.2538 9.36574 85.0761C9.12179 84.9229 8.5451 84.0143 8.08455 83.0563C7.09934 81.0084 5.84057 80.0433 5.29258 80.9158C4.92217 81.505 3.43516 81.2079 3.43516 80.5448C3.43516 80.3403 2.74815 80.2116 1.90868 80.2584C1.06876 80.3056 0.466505 80.4802 0.570542 80.6472C0.674131 80.8138 0.540498 81.0846 0.272781 81.2489C0.00551278 81.4133 -0.0801403 81.8778 0.0821939 82.2818C0.470092 83.2433 0.702832 84.5358 1.21764 88.5835C1.70643 92.4276 2.52035 96.6289 2.89569 97.2484C3.03739 97.4822 3.21856 98.2656 3.29794 98.9889C3.37776 99.7122 3.60825 100.523 3.8105 100.791C4.3123 101.455 5.37689 104.583 6.55314 108.848C7.62042 112.72 8.39711 114.957 8.79443 115.306C8.93389 115.429 9.42762 116.631 9.8913 117.979C10.7016 120.333 13.7088 126.347 15.3869 128.969C16.8672 131.282 21.1224 136.42 23.6148 138.904C25.9422 141.223 27.6996 142.158 30.9019 142.781C31.58 142.913 32.1351 143.167 32.1351 143.345C32.1351 143.794 29.9414 143.58 28.3234 142.974L26.9781 142.47L28.0337 143.361C28.6144 143.851 29.2701 144.141 29.4911 144.005C29.7122 143.869 29.8929 143.937 29.8929 144.156C29.8929 144.374 30.1867 144.553 30.5459 144.553C30.9051 144.553 31.1001 144.395 30.9799 144.202C30.8593 144.008 31.414 143.932 32.2122 144.032C33.8459 144.237 34.8948 143.618 34.5271 142.665C34.2634 141.983 35.0612 141.772 35.4625 142.417C35.5953 142.631 36.3271 142.929 37.0881 143.08C37.8496 143.231 38.3549 143.544 38.2114 143.775C38.0679 144.006 38.1863 144.34 38.4751 144.517C38.8029 144.718 38.8801 144.646 38.6801 144.325C38.5043 144.043 38.5742 143.811 38.8352 143.811C39.0962 143.811 39.3101 144.036 39.3101 144.311C39.3101 144.637 39.5742 144.598 40.0689 144.199C40.4864 143.863 40.6904 143.816 40.5222 144.094C40.346 144.386 40.594 144.698 41.1088 144.832C41.5994 144.96 42.0007 144.869 42.0007 144.63C42.0007 144.198 48.0771 144.479 49.7923 144.991C50.3116 145.147 50.5228 145.065 50.3444 144.778C50.1551 144.474 50.7466 144.366 52.0515 144.465C53.5695 144.58 54.231 144.415 54.8117 143.778C55.3682 143.167 56.1462 142.952 57.6736 142.986C58.8274 143.011 60.2629 142.909 60.8638 142.758C61.4647 142.607 61.7042 142.598 61.3956 142.739C60.4916 143.151 60.753 143.749 61.727 143.496C62.2176 143.369 62.5261 143.116 62.4131 142.934C62.3001 142.752 62.736 142.704 63.3818 142.826C64.1907 142.98 64.4571 142.891 64.2387 142.539C63.8813 141.965 64.2419 141.935 65.5172 142.43C66.2401 142.711 66.0881 142.85 64.6203 143.251C63.6481 143.517 62.1791 143.943 61.3553 144.198C60.1423 144.574 59.9019 144.548 60.0911 144.058C60.3427 143.406 59.3064 143.376 58.718 144.018C58.5261 144.227 58.6212 144.255 58.9292 144.079C59.2378 143.903 59.4898 143.957 59.4898 144.201C59.4898 144.443 58.9346 144.737 58.2566 144.853C57.5785 144.969 58.0637 145.033 59.3355 144.994C60.6073 144.956 61.5539 145.074 61.4391 145.258C61.3243 145.442 61.4275 145.592 61.6683 145.592C61.9086 145.592 62.1728 145.423 62.2553 145.216C62.3374 145.009 63.0091 144.692 63.7481 144.512L65.0917 144.184L64.0159 145.111C62.7436 146.207 62.9477 146.284 64.7078 145.372C65.4141 145.007 66.3222 144.706 66.7253 144.704C67.4921 144.702 70.7675 143.413 70.0854 143.383C69.8702 143.374 69.9433 143.067 70.2482 142.702C70.5532 142.338 70.9482 142.129 71.1267 142.238C71.7774 142.638 73.3586 141.127 73.0707 140.381C72.8514 139.815 72.9702 139.718 73.5945 139.955C74.638 140.353 78.7075 137.196 77.8389 136.662C77.1977 136.269 75.0721 137.479 75.4205 138.039C75.5456 138.24 75.4429 138.53 75.1922 138.685C74.9416 138.838 74.7366 138.596 74.7366 138.147C74.7366 137.057 77.156 134.995 78.6394 134.82C79.2914 134.743 79.9233 134.38 80.0443 134.012C80.2394 133.419 80.1708 133.419 79.4268 134.012C78.6542 134.629 78.6573 134.591 79.4663 133.504C79.9479 132.857 80.4654 132.523 80.6165 132.763C80.9695 133.322 81.3331 133.276 82.0977 132.574C82.8959 131.842 82.5816 131.349 81.4538 131.565C80.9659 131.658 80.5663 131.546 80.5663 131.315C80.5663 131.084 80.7372 130.895 80.9461 130.895C81.1551 130.895 81.5453 130.444 81.813 129.893L82.2995 128.891L82.3296 129.893C82.3466 130.444 82.5834 130.895 82.8565 130.895C83.1533 130.895 83.2229 130.582 83.03 130.115C82.239 128.208 82.2668 127.703 83.1973 127.056C83.7233 126.69 84.1538 126.113 84.1538 125.773C84.1538 125.433 84.5067 124.893 84.9386 124.574C85.3704 124.253 85.7857 123.705 85.8624 123.354C86.0637 122.431 87.7301 120.206 88.2202 120.206C88.4503 120.206 88.6382 119.817 88.6382 119.341C88.6382 118.865 88.8431 118.351 89.0938 118.197C89.3445 118.043 89.4252 117.717 89.2732 117.473C89.1211 117.229 89.3386 116.78 89.7566 116.477C90.9387 115.619 92.1826 105.108 91.9777 97.7138C91.9028 95.0192 91.8275 91.6504 91.8095 90.2274C91.7916 88.8044 91.6212 87.7359 91.4301 87.8535C91.2391 87.9706 91.131 86.9302 91.1898 85.5415C91.3104 82.6884 91.0212 81.3184 90.3817 81.7108C90.1171 81.8733 90.0638 81.5166 90.2454 80.7995C90.4853 79.8495 90.3651 79.5752 89.6247 79.3828C89.0113 79.2233 88.7615 78.859 88.8732 78.2849C88.9646 77.8119 88.8485 77.5424 88.6149 77.6859C88.3808 77.8293 88.1897 77.7344 88.1897 77.4752C88.1897 77.216 87.9005 77.0035 87.5471 77.0035C86.8852 77.0035 86.1157 75.352 86.5686 74.9022C86.7081 74.7633 87.1808 74.9289 87.6184 75.2696C88.3418 75.8339 88.3584 75.8193 87.7987 75.1107C87.4601 74.6817 86.8933 74.3312 86.539 74.3312C86.1843 74.3312 86.0193 74.1308 86.1718 73.8858C86.3242 73.6409 86.2422 73.4405 85.9897 73.4405C84.896 73.4405 84.6305 71.7467 85.2318 68.6107C85.8861 65.2004 85.8372 56.2509 85.1507 53.763C84.926 52.9502 84.7682 51.7334 84.7991 51.06C84.8305 50.3861 84.6982 49.8352 84.5049 49.8352C84.3117 49.8352 84.1538 49.2829 84.1538 48.6073C84.1538 47.9321 83.9439 46.6796 83.687 45.8236C83.43 44.968 83.1305 43.6283 83.0206 42.8471C82.7776 41.1186 80.9457 36.9178 79.6421 35.0993C78.9031 34.0686 78.4694 33.8357 77.721 34.0673C77.1896 34.2321 76.6326 34.5546 76.4842 34.7844C76.3353 35.0137 75.6842 35.2596 75.0371 35.33C73.9142 35.4524 72.594 36.6207 71.5451 38.4205C71.1935 39.0235 71.1958 39.1701 71.5527 38.9509C71.824 38.7843 72.046 38.8605 72.046 39.1197C72.046 39.3789 71.6209 39.5914 71.1012 39.5914C70.4563 39.5914 70.2361 39.798 70.4083 40.243C70.5559 40.6251 70.1792 41.27 69.4989 41.8018C68.8599 42.3006 68.4733 42.7091 68.6397 42.7091C68.8061 42.7091 68.5325 43.1455 68.0325 43.6787C67.5321 44.2122 66.9971 44.5236 66.8432 44.3708C66.3634 43.8942 69.02 33.7132 69.9209 32.5766C70.1635 32.2706 70.2438 32.0199 70.0989 32.0199C69.9541 32.0199 70.215 31.1411 70.6787 30.0669C72.0101 26.9817 74.6658 17.3027 74.7913 15.0771C74.8541 13.965 74.7398 12.7883 74.5371 12.4622C74.3339 12.1367 74.1357 9.83715 74.0958 7.35236C74.0034 1.58065 73.7263 1.12146 70.9626 2.16499C70.1375 2.47631 69.9025 2.80723 70.115 3.35728C70.3819 4.04851 70.4402 4.03961 70.7478 3.26019C70.9339 2.78808 71.1003 2.66426 71.1178 2.98494C71.1366 3.33768 71.3707 3.43032 71.7097 3.2201C72.8554 2.50927 73.316 2.75468 73.5936 4.22266C73.8263 5.45548 73.3164 7.52383 72.7797 7.52383C72.7075 7.52383 72.6864 6.61659 72.733 5.50759C72.7792 4.39814 72.6438 3.38445 72.4317 3.2544C72.0604 3.02592 71.8402 4.38478 72.0326 5.71825C72.1106 6.25717 72.0092 6.26652 71.4133 5.77526C70.8061 5.27465 70.6926 5.31117 70.6478 6.022C70.6182 6.4803 70.616 6.99873 70.6424 7.17376C70.6684 7.3488 70.4168 7.38755 70.0832 7.26061C69.3971 6.99917 69.3339 2.40327 70.0016 1.33079C70.2563 0.921483 70.2254 0.807018 69.9115 0.999869C69.6478 1.16154 69.3644 1.11879 69.2814 0.904558C69.1989 0.690774 68.6518 0.367427 68.0661 0.186156C67.3343 -0.0400979 67.0971 0.0111194 67.3078 0.350056ZM70.3698 0.260535C70.8043 0.373217 71.0254 0.681423 70.8612 0.945535C70.6819 1.2337 70.7725 1.29694 71.0872 1.10364C71.7886 0.673404 71.2886 -0.0605874 70.3379 0.00399307C69.6599 0.0503129 69.6635 0.077483 70.3698 0.260535ZM68.0101 3.96077C68.0101 4.20573 67.7962 4.40616 67.5352 4.40616C67.2742 4.40616 67.185 4.20573 67.3374 3.96077C67.4899 3.71581 67.7034 3.51539 67.8123 3.51539C67.9213 3.51539 68.0101 3.71581 68.0101 3.96077ZM67.2468 5.44523C67.3729 5.77214 67.1926 6.03937 66.8464 6.03937C66.4997 6.03937 66.2163 5.77214 66.2163 5.44523C66.2163 5.11877 66.3966 4.85154 66.6168 4.85154C66.837 4.85154 67.1204 5.11877 67.2468 5.44523ZM69.5796 7.96922C69.7321 8.21418 69.6428 8.4146 69.3819 8.4146C69.1209 8.4146 68.907 8.21418 68.907 7.96922C68.907 7.72426 68.9957 7.52383 69.1047 7.52383C69.2137 7.52383 69.4271 7.72426 69.5796 7.96922ZM62.3037 14.1676C61.6871 15.2904 60.9535 16.4092 60.6727 16.6542C60.392 16.8991 60.1624 17.3837 60.1624 17.7307C60.1624 18.0776 59.8597 18.4437 59.4898 18.5439C58.892 18.7061 58.892 18.6735 59.4898 18.2535C59.9893 17.903 60.0104 17.7797 59.5718 17.7743C58.8203 17.7659 59.2804 16.1166 60.3813 14.8726C60.8145 14.3827 61.0616 13.6812 60.9293 13.3138C60.7158 12.7201 60.7817 12.7201 61.5207 13.3138C62.0001 13.6986 62.21 13.7458 62.0158 13.4252C61.592 12.725 61.9459 12.126 62.7826 12.126C63.2696 12.126 63.1544 12.6181 62.3037 14.1676ZM58.4714 20.2636C58.3225 20.4114 57.9355 20.4275 57.6122 20.2987C57.2543 20.1567 57.3606 20.0511 57.883 20.0297C58.3557 20.0106 58.6203 20.1157 58.4714 20.2636ZM64.4226 28.9022C64.4226 29.1472 64.3338 29.3476 64.2248 29.3476C64.1159 29.3476 63.9024 29.1472 63.7499 28.9022C63.5975 28.6572 63.6867 28.4568 63.9477 28.4568C64.2087 28.4568 64.4226 28.6572 64.4226 28.9022ZM63.1589 32.2114C63.2575 33.0514 63.1786 33.6411 62.9836 33.5213C62.7885 33.4015 62.6288 33.3992 62.6288 33.5164C62.6288 33.6335 62.2992 34.9982 61.8965 36.549C61.0759 39.7081 60.8615 41.1622 60.8015 43.9708C60.7494 46.4155 60.5194 46.1844 59.9615 43.1255C59.5481 40.8594 59.5373 40.9182 59.7907 44.0452C60.2831 50.1251 60.2799 51.3905 59.7696 51.7214C59.4086 51.9557 59.4203 52.0505 59.8122 52.0554C60.1127 52.059 60.2423 52.3627 60.1005 52.7302C59.9584 53.0976 60.0656 53.3982 60.3387 53.3982C60.6118 53.3982 60.8351 53.8993 60.8351 54.5117C60.8351 55.1241 61.0584 55.6252 61.3315 55.6252C61.6046 55.6252 61.7131 55.9227 61.5723 56.2865C61.4194 56.6825 61.6943 57.1484 62.2575 57.4477C63.0109 57.8481 63.0746 58.0258 62.5773 58.3384C62.0822 58.6497 62.1136 58.7304 62.7324 58.7362C63.2015 58.7402 63.6306 59.2256 63.8172 59.9632C64.4055 62.2921 65.6814 62.8515 67.5074 61.5808C68.2917 61.0352 68.4061 60.7675 67.9693 60.4994C67.6177 60.2834 67.1885 60.4157 66.8791 60.8357C66.45 61.4187 66.2006 61.4383 65.3006 60.96C64.2661 60.4099 64.3029 60.3738 66.4576 59.8265C67.6814 59.516 68.746 59.4327 68.8226 59.6421C68.8998 59.8514 69.3361 59.7053 69.7922 59.3174C70.2536 58.925 70.5052 58.3099 70.3594 57.9318C70.1698 57.4419 70.2998 57.3296 70.824 57.5292C71.3613 57.734 71.4792 57.6182 71.2743 57.0882C71.0895 56.6099 71.172 56.4772 71.5213 56.6918C71.833 56.8829 72.046 56.7426 72.046 56.3458C72.046 55.9783 72.2792 55.5347 72.564 55.3602C72.9048 55.1504 72.9685 55.2555 72.7501 55.6675C72.568 56.0117 73.024 55.5949 73.764 54.742C74.5034 53.8886 75.0362 53.0744 74.9483 52.9324C74.86 52.7907 75.2806 52.1049 75.8833 51.4083C76.486 50.7117 76.9788 49.8726 76.9788 49.543C76.9788 49.2139 77.0941 48.9444 77.2349 48.9444C77.7299 48.9444 78.7268 50.1777 78.4524 50.4503C78.2995 50.6017 78.408 50.7259 78.6936 50.7259C79.0524 50.7259 79.1421 51.5147 78.9847 53.2869C78.6963 56.536 78.125 60.491 77.7147 62.0832C75.9317 68.9978 75.9223 69.0583 76.568 69.4645C77.0542 69.7701 77.0654 69.8654 76.616 69.8707C76.2932 69.8743 76.1537 70.0778 76.3062 70.3228C76.4586 70.5677 76.3447 70.7682 76.0537 70.7682C75.6586 70.7682 75.6658 70.9383 76.0819 71.4362C76.4676 71.8977 76.4846 72.1043 76.1367 72.1043C75.355 72.1043 75.5434 73.6507 76.468 74.8278C77.0398 75.5551 77.1909 76.1707 76.9479 76.7808C76.7528 77.2708 76.5793 78.1223 76.5618 78.6737C76.5362 79.4972 76.7703 79.6758 77.8757 79.6758C78.8147 79.6758 79.221 79.8927 79.221 80.3942C79.221 80.9412 78.8959 81.0659 77.8636 80.9153C77.0129 80.7911 76.5685 80.8971 76.673 81.1986C76.7645 81.464 77.5752 81.6146 78.4784 81.534C79.5259 81.4404 80.1179 81.578 80.1179 81.9156C80.1179 82.206 79.8152 82.3281 79.4452 82.1869C78.6376 81.8791 78.5636 82.4078 79.3107 83.1498C79.7291 83.5653 79.7233 83.6843 79.2842 83.6843C78.9739 83.6843 78.8452 83.886 78.9986 84.1328C79.1524 84.3795 78.9623 84.7015 78.5766 84.8485C78.1914 84.9955 77.8757 85.2885 77.8757 85.4996C77.8757 85.7103 78.1784 85.7678 78.5483 85.627C78.9183 85.4858 79.221 85.5923 79.221 85.8635C79.221 86.1348 78.969 86.3726 78.6605 86.3918C78.212 86.4198 78.212 86.4719 78.6605 86.6514C78.969 86.7752 79.221 87.3605 79.221 87.9524C79.221 89.1945 80.5408 89.4765 80.6112 88.2494C80.6408 87.7297 80.7753 87.841 81.0147 88.5835L81.374 89.6969L81.4184 88.6405C81.4538 87.809 81.5914 87.6891 82.065 88.0797C82.3959 88.3523 82.7825 88.461 82.9233 88.3207C83.0646 88.1809 83.5744 88.2753 84.0561 88.5314C85.5579 89.3295 85.9839 92.8208 85.0682 96.8231C82.3668 108.631 79.9058 113.596 73.6774 119.806C72.7245 120.755 71.7613 121.419 71.5361 121.281C71.311 121.143 71.1823 121.295 71.25 121.62C71.32 121.954 70.9841 122.21 70.4765 122.21C69.6285 122.21 66.2163 124.044 66.2163 124.5C66.2163 124.745 66.8513 124.402 68.5276 123.25C69.8482 122.343 70.4527 122.195 70.024 122.884C69.5747 123.607 66.228 125.165 65.7526 124.873C65.0329 124.431 64.2289 125.153 64.9352 125.607C65.3876 125.898 65.3136 125.98 64.6468 125.927C62.7575 125.775 61.732 126.019 61.732 126.62C61.732 127.468 59.3754 128.264 56.1489 128.506C54.6816 128.616 53.2502 128.896 52.9686 129.129C52.687 129.361 52.3731 129.468 52.2713 129.367C52.169 129.266 50.2708 129.059 48.0524 128.907C45.834 128.755 43.716 128.546 43.346 128.444C42.6559 128.253 42.3554 128.193 37.7406 127.328C36.2607 127.051 34.2975 126.337 33.3777 125.742C31.5701 124.572 30.5647 124.386 30.0983 125.135C29.9355 125.397 29.4943 125.494 29.1185 125.35C28.5405 125.13 28.5521 125.268 29.192 126.238C29.6086 126.869 29.8862 127.56 29.8091 127.772C29.5046 128.609 24.8929 125.861 23.2677 123.874C22.3489 122.75 20.5143 120.679 19.1914 119.271C17.8686 117.863 16.4219 116.117 15.9766 115.39C15.5317 114.662 14.9757 113.95 14.742 113.806C14.0891 113.406 12.2644 107.402 12.5617 106.633C12.7061 106.259 13.0443 105.953 13.3133 105.953C13.5819 105.953 13.6658 106.173 13.499 106.44C13.3326 106.708 14.0595 107.801 15.1147 108.869C16.7412 110.515 16.9457 110.915 16.4573 111.5C16.0676 111.967 16.0439 112.189 16.3851 112.189C16.6618 112.189 16.8883 111.965 16.8883 111.692C16.8883 111.386 17.3098 111.47 17.986 111.91C18.7766 112.424 19.1722 112.482 19.4004 112.115C19.6089 111.78 19.517 111.729 19.1304 111.966C18.7421 112.204 18.6515 112.152 18.8636 111.812C19.0394 111.53 19.5502 111.298 19.9991 111.298C20.9529 111.298 21.9637 110.254 21.4807 109.767C21.2982 109.583 21.5412 109.501 22.0215 109.585C22.7009 109.705 23.1902 109.147 24.2287 107.067C24.9628 105.597 25.9162 104.084 26.3471 103.705C27.5449 102.651 29.2427 95.1413 29.1118 91.4785C29.0158 88.7999 30.5943 79.0924 31.7692 75.1383C32.4862 72.7243 32.7961 72.2112 33.4038 72.4326C34.8733 72.9684 36.2132 74.0257 36.0347 74.5085C35.9352 74.7784 36.3877 76.302 37.0401 77.8943C38.0832 80.4392 38.359 80.7741 39.3204 80.665C40.3442 80.5488 40.3613 80.5791 39.5828 81.1442C38.794 81.717 38.7904 81.815 39.5079 83.05C40.2083 84.2566 40.1949 83.9439 39.463 82.0141C39.3002 81.5856 39.3218 81.3727 39.5106 81.542C39.6994 81.7108 40.1097 81.6119 40.4227 81.322C40.8765 80.9006 40.7994 80.6601 40.0384 80.1274C39.5146 79.7605 38.9343 79.5088 38.7496 79.568C38.5648 79.6273 38.4132 79.4754 38.4132 79.2304C38.4132 78.4426 38.6276 78.1139 39.0496 78.2533C39.2765 78.3285 39.1832 78.0564 38.8428 77.6493C38.1639 76.8365 37.6487 75.9595 36.1728 73.1064C35.6347 72.0651 35.0105 71.2135 34.7858 71.2135C34.5612 71.2135 34.3773 70.7005 34.3773 70.0738C34.3773 69.375 34.1908 69.0485 33.8957 69.2298C33.6311 69.3924 33.6795 69.1033 34.0038 68.588C34.328 68.0723 34.9047 67.6505 35.2854 67.6505C36.0495 67.6505 37.6626 70.0293 37.2056 70.4831C37.0477 70.6399 37.2043 70.7713 37.5536 70.7749C38.0769 70.7806 38.0702 70.8581 37.5164 71.2135C36.9536 71.5748 36.9841 71.6465 37.7034 71.6523C38.176 71.6558 38.4379 71.7832 38.285 71.9346C38.1325 72.0865 38.2922 72.4931 38.6397 72.8383C38.9877 73.1835 39.1585 73.7594 39.0204 74.1179C38.8774 74.4876 39.0904 74.892 39.5137 75.0532C39.9231 75.2091 40.1563 75.6015 40.0312 75.9248C39.8944 76.2793 40.0388 76.4232 40.3953 76.2878C40.7379 76.1569 41.0922 76.4655 41.2388 77.0231C41.3787 77.5549 41.7057 77.8529 41.9707 77.6903C42.2339 77.5286 42.4492 77.7023 42.4492 78.0769C42.4492 78.4987 42.7048 78.6595 43.1218 78.5009C43.5927 78.3214 43.7945 78.5348 43.7945 79.2126C43.7945 79.952 43.9905 80.1194 44.6232 79.9199C45.3923 79.6776 47.9479 80.6321 47.7116 81.0734C47.6537 81.1817 48.0694 80.7612 48.6358 80.139C49.8511 78.8033 51.187 76.0477 51.639 73.9433C51.8372 73.0209 52.2874 72.3568 52.8058 72.2223C53.27 72.1016 53.5202 71.7943 53.3614 71.5396C52.8883 70.7789 52.8108 68.9866 53.2511 68.9866C53.4762 68.9866 53.6283 68.8361 53.5888 68.6526C53.5498 68.4691 53.6735 67.9649 53.8637 67.5325C54.0538 67.1 54.1072 66.358 53.9825 65.8837C53.8574 65.4093 53.9592 64.9533 54.209 64.8709C54.4583 64.788 54.6579 63.4256 54.6525 61.8431C54.6471 60.2603 54.9296 57.7171 55.2803 56.1908C55.631 54.6649 56.0032 52.8611 56.1077 52.1824C56.5409 49.3631 56.7929 48.1472 57.4512 45.6936C57.8324 44.2732 58.1445 43.0088 58.1445 42.8837C58.1445 42.7589 58.3135 42.7603 58.5198 42.8868C58.7261 43.0137 58.8597 42.5331 58.8171 41.8192C58.7705 41.042 58.9987 40.4229 59.3862 40.275C59.8261 40.1076 59.9436 39.6733 59.753 38.9193C59.584 38.2508 59.6647 37.8099 59.9561 37.8099C60.2221 37.8099 60.3162 37.6117 60.1656 37.3698C59.7987 36.7797 61.5477 32.9106 62.1817 32.9106C62.4566 32.9106 62.5683 32.7285 62.4297 32.5053C62.2024 32.1406 62.5405 30.6837 62.8522 30.6837C62.9221 30.6837 63.0598 31.371 63.1589 32.2114ZM74.1819 37.2825C73.6178 38.767 72.9429 39.1754 72.9429 38.0325C72.9429 37.4558 74.3245 35.6114 74.6169 35.7981C74.6743 35.8346 74.4783 36.5027 74.1819 37.2825ZM50.1273 43.4551C49.7367 44.1227 49.6488 44.1419 49.6376 43.5629C49.6233 42.8128 50.095 42.1372 50.4125 42.453C50.5174 42.5572 50.3892 43.0079 50.1273 43.4551ZM49.6843 46.5634C49.2623 47.284 49.2013 47.2235 49.1892 46.0717C49.1793 45.1137 49.3098 44.891 49.6708 45.2495C50.0255 45.6018 50.0291 45.9737 49.6843 46.5634ZM67.7859 45.3814C67.6334 45.6263 67.2684 45.8236 66.9746 45.8201C66.6536 45.8156 66.7092 45.6406 67.1132 45.3814C67.9747 44.8282 68.1298 44.8282 67.7859 45.3814ZM78.047 46.9634C78.1999 47.3597 78.1246 47.5383 77.8708 47.3825C77.6268 47.2328 77.4273 46.9219 77.4273 46.6912C77.4273 46.0508 77.7488 46.192 78.047 46.9634ZM76.9788 47.6083C76.9788 47.8532 76.89 48.0537 76.7811 48.0537C76.6721 48.0537 76.4586 47.8532 76.3062 47.6083C76.1537 47.3633 76.2429 47.1629 76.5039 47.1629C76.7649 47.1629 76.9788 47.3633 76.9788 47.6083ZM49.3103 48.6509C49.4372 48.9792 49.3609 49.5305 49.1412 49.8757C48.8497 50.3322 48.7389 50.1697 48.734 49.2785C48.7268 47.9485 48.9466 47.7089 49.3103 48.6509ZM48.8896 51.8394C49.0313 52.2068 48.952 52.5075 48.7134 52.5075C48.4744 52.5075 48.2789 52.2068 48.2789 51.8394C48.2789 51.472 48.3582 51.1713 48.4551 51.1713C48.552 51.1713 48.7475 51.472 48.8896 51.8394ZM73.3913 51.7561C73.3913 51.8327 72.7483 52.4843 71.9626 53.2036L70.5339 54.5117L71.6263 53.0887C72.5541 51.8804 73.3913 51.2479 73.3913 51.7561ZM62.9351 56.1543C62.7921 56.5092 62.6858 56.4037 62.6643 55.8848C62.645 55.4154 62.7508 55.1526 62.8997 55.3005C63.0486 55.4483 63.0647 55.8327 62.9351 56.1543ZM59.8127 56.2184C59.3131 57.4802 59.3947 58.1246 59.9804 57.543C60.2499 57.2753 60.3956 56.6838 60.3032 56.2291C60.1418 55.4319 60.1243 55.4314 59.8127 56.2184ZM68.2016 56.7293C67.7262 57.086 67.1356 57.3804 66.889 57.3826C66.6423 57.3849 66.9419 57.0041 67.5549 56.5364C68.1679 56.0688 68.7585 55.7748 68.8675 55.883C68.9765 55.9913 68.6769 56.3721 68.2016 56.7293ZM84.3587 58.7121C84.5009 58.9401 84.4117 59.2524 84.161 59.4065C83.9103 59.5601 83.7054 59.3735 83.7054 58.9918C83.7054 58.2093 83.9744 58.0944 84.3587 58.7121ZM84.0305 61.4151C83.9516 62.4533 83.4614 62.5865 83.1058 61.6668C82.9699 61.3149 83.1 60.9301 83.3942 60.8112C83.6888 60.6918 83.9677 60.5787 84.0139 60.5596C84.0601 60.5404 84.0677 60.9252 84.0305 61.4151ZM80.1179 62.7513C80.1179 62.9962 79.9161 63.1967 79.6694 63.1967C79.4228 63.1967 79.221 62.9962 79.221 62.7513C79.221 62.5063 79.4228 62.3059 79.6694 62.3059C79.9161 62.3059 80.1179 62.5063 80.1179 62.7513ZM83.7314 64.9622C83.4072 65.1612 83.2695 65.5287 83.4251 65.7785C83.5807 66.0288 83.4179 67.3035 83.0637 68.6121C82.5359 70.5602 82.4072 70.749 82.3542 69.6547C82.3184 68.9198 82.1883 68.6192 82.065 68.9866C81.9417 69.3541 81.7511 69.934 81.6412 70.2751C81.5318 70.6163 81.3542 70.8087 81.247 70.7023C80.9695 70.4261 82.0744 65.8966 82.8381 64.1796C83.4457 62.8145 83.5045 62.7865 83.9013 63.6674C84.1995 64.3297 84.1502 64.7052 83.7314 64.9622ZM47.382 64.0874C47.382 64.3324 47.1681 64.5328 46.9071 64.5328C46.6461 64.5328 46.5569 64.3324 46.7093 64.0874C46.8618 63.8425 47.0752 63.642 47.1842 63.642C47.2932 63.642 47.382 63.8425 47.382 64.0874ZM82.3601 66.537C82.3601 66.9045 82.4394 67.2051 82.5363 67.2051C82.6332 67.2051 82.8287 66.9045 82.9708 66.537C83.1125 66.1696 83.0332 65.869 82.7946 65.869C82.5556 65.869 82.3601 66.1696 82.3601 66.537ZM79.221 67.0087C79.221 67.3904 79.0161 67.577 78.7654 67.4233C78.5147 67.2692 78.4255 66.957 78.5676 66.729C78.9519 66.1113 79.221 66.2262 79.221 67.0087ZM50.1547 75.764C49.8331 76.0834 49.6242 76.1096 49.6242 75.8308C49.6242 75.5774 49.7587 75.2367 49.9233 75.0737C50.0874 74.9102 50.3264 74.8799 50.4538 75.0069C50.5811 75.1334 50.4466 75.4741 50.1547 75.764ZM85.4991 74.973C85.4991 75.0813 85.2973 75.2933 85.0507 75.4447C84.804 75.5961 84.6022 75.5075 84.6022 75.2483C84.6022 74.9891 84.804 74.7766 85.0507 74.7766C85.2973 74.7766 85.4991 74.8648 85.4991 74.973ZM49.1367 77.9664C48.7824 78.6238 48.5067 78.7957 48.3856 78.435C48.1887 77.848 49.1479 76.3822 49.5004 76.7318C49.6085 76.8392 49.4448 77.395 49.1367 77.9664ZM83.9103 80.5359C84.0525 80.7639 83.9969 81.0556 83.7874 81.1843C83.578 81.313 83.4063 81.1264 83.4063 80.7697C83.4063 80.0188 83.548 79.9533 83.9103 80.5359ZM84.6022 82.7035C84.6022 82.8937 83.9821 83.0964 83.2246 83.1538C82.4668 83.2108 81.9462 83.0981 82.0677 82.9031C82.3587 82.435 84.6022 82.2586 84.6022 82.7035ZM84.6022 84.3261C84.6022 84.7959 83.7417 84.9937 83.4856 84.5822C83.3309 84.3332 83.5188 84.1297 83.9031 84.1297C84.2874 84.1297 84.6022 84.2178 84.6022 84.3261ZM90.7288 86.0225C90.6046 86.3289 90.5028 86.0782 90.5028 85.4658C90.5028 84.8534 90.6046 84.6031 90.7288 84.9091C90.8535 85.2155 90.8535 85.7165 90.7288 86.0225ZM21.3946 93.4395C20.3489 95.4753 20.2367 95.5582 19.856 94.573C19.7 94.169 19.7771 93.9971 20.0417 94.1597C20.291 94.3124 20.8049 93.7 21.1843 92.7986C21.5632 91.8971 21.9767 91.262 22.1027 91.3872C22.2287 91.5123 21.9103 92.436 21.3946 93.4395ZM17.8672 94.4701C17.5457 94.7894 17.3367 94.8157 17.3367 94.5369C17.3367 93.9423 17.8672 93.4154 18.1663 93.7129C18.2937 93.8394 18.1591 94.1802 17.8672 94.4701ZM17.9632 95.784C17.8363 95.988 17.5425 96.155 17.3102 96.155C17.078 96.155 16.8883 95.988 16.8883 95.784C16.8883 95.5795 17.182 95.4125 17.5412 95.4125C17.9004 95.4125 18.0901 95.5795 17.9632 95.784ZM19.5789 96.155C19.5789 96.3999 19.365 96.6004 19.104 96.6004C18.843 96.6004 18.7538 96.3999 18.9062 96.155C19.0587 95.91 19.2722 95.7096 19.3811 95.7096C19.4901 95.7096 19.5789 95.91 19.5789 96.155ZM12.4039 101.5C12.4039 101.745 12.3151 101.945 12.2061 101.945C12.0972 101.945 11.8837 101.745 11.7312 101.5C11.5788 101.255 11.668 101.054 11.929 101.054C12.19 101.054 12.4039 101.255 12.4039 101.5ZM87.4332 101.85C86.609 102.37 85.8489 104.617 86.4969 104.617C86.8942 104.617 86.8915 104.749 86.4857 105.152C86.1897 105.446 85.9476 106.147 85.9476 106.711C85.9476 107.274 85.752 107.735 85.513 107.735C85.2745 107.735 85.1951 108.036 85.3368 108.403C85.4789 108.77 85.3758 109.071 85.1076 109.071C84.8399 109.071 84.2045 109.881 83.696 110.871C83.1874 111.861 82.3897 113.05 81.9228 113.514C81.1452 114.286 81.1354 114.405 81.8036 114.943C82.3367 115.371 82.4417 115.379 82.1955 114.972C82.0103 114.666 82.0726 114.416 82.3336 114.416C83.0269 114.416 82.9143 115.294 82.1856 115.572C81.8251 115.709 81.6583 116.173 81.7892 116.672C81.9166 117.154 81.7896 117.533 81.5013 117.533C81.2183 117.533 80.8632 117.853 80.7125 118.243C80.4277 118.98 76.477 122.823 75.3393 123.47C74.9532 123.689 74.4227 123.619 74.0321 123.297C73.5061 122.863 73.203 122.909 72.5173 123.526C71.6976 124.262 71.6707 124.256 71.9052 123.364C72.0402 122.852 72.3254 122.433 72.5388 122.433C73.0685 122.433 78.5268 116.799 79.9179 114.817C80.5363 113.936 81.4184 112.193 81.878 110.943C82.3381 109.694 83.1143 108.111 83.6036 107.424C84.0928 106.738 84.8682 105.124 85.3256 103.838C85.9592 102.058 86.374 101.501 87.0619 101.506C87.6413 101.511 87.7745 101.634 87.4332 101.85ZM13.1792 102.659C13.0304 102.807 12.6434 102.823 12.32 102.695C11.9622 102.552 12.0685 102.447 12.5909 102.426C13.0635 102.406 13.3281 102.511 13.1792 102.659ZM12.3173 105.297C12.1792 105.434 11.9286 105.187 11.7599 104.748C11.5169 104.113 11.568 104.062 12.0111 104.498C12.3178 104.801 12.4555 105.16 12.3173 105.297ZM84.2045 112.317C83.8381 112.68 83.7054 112.631 83.7054 112.13C83.7054 111.244 84.3085 110.645 84.5314 111.309C84.626 111.591 84.4785 112.044 84.2045 112.317ZM89.2489 115.529C89.1068 115.897 88.7857 116.197 88.5355 116.197C88.2727 116.197 88.3162 115.914 88.6382 115.529C88.9454 115.162 89.2664 114.861 89.3516 114.861C89.4368 114.861 89.3907 115.162 89.2489 115.529ZM88.1897 118.201C88.1897 118.569 87.9879 118.869 87.7413 118.869C87.4947 118.869 87.3435 119.108 87.405 119.4C87.4664 119.691 87.1498 120.01 86.7005 120.107C85.9301 120.273 85.9247 120.206 86.6 118.908C87.3574 117.453 88.1897 117.083 88.1897 118.201ZM75.877 121.066C75.7349 121.294 75.7905 121.585 75.9999 121.714C76.2093 121.843 76.3811 121.656 76.3811 121.299C76.3811 120.549 76.2393 120.483 75.877 121.066ZM74.0147 123.689C74.3227 124.185 72.559 125.642 72.0384 125.323C71.8101 125.183 71.4953 125.578 71.3379 126.2C71.029 127.423 70.2523 127.755 70.2523 126.664C70.2523 125.699 70.4294 125.312 70.8128 125.439C70.9976 125.5 71.1491 125.35 71.1491 125.105C71.1491 124.86 71.4581 124.659 71.8357 124.659C72.2137 124.659 72.6388 124.359 72.7806 123.991C73.0635 123.26 73.6568 123.114 74.0147 123.689ZM69.6402 127.643C69.5047 127.777 69.0724 127.765 68.6796 127.615C68.089 127.39 68.0661 127.233 68.5478 126.715C69.0491 126.176 69.1845 126.18 69.5088 126.743C69.7164 127.104 69.7751 127.509 69.6402 127.643ZM64.4226 128.668C64.4226 128.913 64.2208 129.113 63.9742 129.113C63.7275 129.113 63.5257 128.913 63.5257 128.668C63.5257 128.423 63.7275 128.223 63.9742 128.223C64.2208 128.223 64.4226 128.423 64.4226 128.668ZM65.1796 130.245C66.067 130.024 66.1773 130.083 65.7423 130.544C65.4446 130.859 64.5894 131.141 63.8414 131.169C63.0934 131.197 62.232 131.558 61.9275 131.972C61.5131 132.535 61.3248 132.578 61.1777 132.143C61.0181 131.672 60.8418 131.677 60.2405 132.17C59.8328 132.504 59.6104 132.955 59.7454 133.172C59.8804 133.389 59.6647 133.567 59.2656 133.567C58.8485 133.567 58.6705 133.357 58.8476 133.073C59.0633 132.726 58.5718 132.658 57.1924 132.845C54.9341 133.151 55.013 133.111 59.3575 131.754C61.1346 131.199 62.4961 130.597 62.3831 130.415C62.2701 130.233 62.3042 129.757 62.4589 129.356C62.7042 128.721 62.8257 128.749 63.4078 129.574C63.9028 130.277 64.3603 130.45 65.1796 130.245ZM65.9921 129.113C66.1446 129.358 65.9544 129.559 65.5701 129.559C65.1858 129.559 64.871 129.358 64.871 129.113C64.871 128.868 65.0607 128.668 65.293 128.668C65.5253 128.668 65.8396 128.868 65.9921 129.113ZM64.4226 131.786C64.4226 132.031 64.3338 132.231 64.2248 132.231C64.1159 132.231 63.9024 132.031 63.7499 131.786C63.5975 131.541 63.6867 131.34 63.9477 131.34C64.2087 131.34 64.4226 131.541 64.4226 131.786ZM68.2545 131.753C68.1132 131.98 67.2921 132.397 66.4302 132.68C65.5679 132.962 64.9719 133.369 65.1056 133.584C65.2392 133.798 64.7195 133.895 63.9513 133.798C62.9333 133.67 62.6158 133.781 62.7804 134.208C62.9046 134.529 62.7701 134.786 62.4813 134.778C60.2512 134.715 59.0225 134.958 59.3014 135.407C59.488 135.706 59.3745 135.83 59.0198 135.713C57.5274 135.219 58.5055 134.565 62.9723 133.069C68.4747 131.227 68.602 131.195 68.2545 131.753ZM47.0232 133.656C46.6048 134.072 46.3654 134.072 45.947 133.656C45.5286 133.241 45.6479 133.122 46.4851 133.122C47.3223 133.122 47.4416 133.241 47.0232 133.656ZM55.0054 133.974C53.2511 134.206 53.1341 134.283 54.1085 134.566C54.7251 134.745 55.835 134.914 56.5749 134.942C57.8965 134.991 57.9005 134.999 56.7992 135.349C55.8332 135.656 55.8023 135.719 56.5749 135.803C57.0682 135.856 57.7243 135.867 58.0324 135.827C58.3409 135.787 58.5929 135.964 58.5929 136.22C58.5929 136.475 59.0974 136.685 59.714 136.685C61.0073 136.685 61.101 136.93 60.1624 137.862C59.7925 138.229 59.4898 138.32 59.4898 138.064C59.4898 137.747 59.1203 137.737 58.3395 138.032C57.7068 138.271 56.1933 138.466 54.9763 138.466C53.5085 138.466 52.761 138.654 52.7565 139.023C52.7516 139.394 52.6045 139.357 52.3148 138.912C51.9524 138.355 51.8704 138.392 51.8211 139.134C51.7713 139.887 51.7305 139.904 51.5574 139.246C51.3551 138.478 50.521 138.133 50.521 138.817C50.521 139.01 49.9156 139.213 49.1757 139.269C48.4358 139.325 47.8304 139.174 47.8304 138.933C47.8304 138.692 47.5277 138.61 47.1578 138.75C46.2537 139.095 46.2954 138.171 47.2066 137.664C47.7004 137.39 47.2398 137.291 45.7492 137.35C43.3147 137.447 41.359 136.911 41.7658 136.257C41.9335 135.987 42.4487 136.016 43.1501 136.333C43.9913 136.714 44.3972 136.71 44.7932 136.316C45.4344 135.68 46.1968 135.622 45.8124 136.239C45.5053 136.733 46.1645 136.855 46.6322 136.39C47.0008 136.024 49.6242 135.922 49.6242 136.274C49.6242 136.415 50.2583 136.438 51.0331 136.325C51.8081 136.212 52.3327 136.297 52.1986 136.514C52.065 136.73 53.3987 136.94 55.1619 136.979L58.3687 137.051L56.2296 136.394C55.0534 136.033 54.2014 135.56 54.3363 135.343C54.57 134.968 52.8166 134.493 50.6331 134.339C50.078 134.3 49.6242 134.148 49.6242 134.001C49.6242 133.854 51.2892 133.728 53.3238 133.72C56.0422 133.71 56.4884 133.777 55.0054 133.974ZM53.6601 135.868C53.6601 136.072 53.4704 136.239 53.2381 136.239C53.0058 136.239 52.7121 136.072 52.5852 135.868C52.4583 135.664 52.648 135.497 53.0072 135.497C53.3664 135.497 53.6601 135.664 53.6601 135.868ZM40.9823 136.508C40.8335 136.656 40.4465 136.672 40.1231 136.544C39.7653 136.402 39.8716 136.296 40.394 136.275C40.8666 136.255 41.1312 136.361 40.9823 136.508ZM63.0773 136.685C63.0773 136.93 62.9885 137.13 62.8795 137.13C62.7705 137.13 62.5571 136.93 62.4046 136.685C62.2521 136.44 62.3414 136.239 62.6024 136.239C62.8634 136.239 63.0773 136.44 63.0773 136.685ZM40.6554 138.021C40.6554 138.266 40.3693 138.466 40.02 138.466C39.6707 138.466 39.2832 138.717 39.1585 139.023C39.0343 139.329 38.9164 139.129 38.8971 138.578C38.8715 137.861 39.1168 137.576 39.7586 137.576C40.2518 137.576 40.6554 137.776 40.6554 138.021ZM44.6914 138.517C44.6914 138.734 44.2375 138.919 43.6824 138.927L42.6734 138.943L43.7375 139.529L44.8017 140.115L43.825 140.369C43.0738 140.564 42.7505 140.367 42.4245 139.516C41.7918 137.862 41.8788 137.712 43.346 137.926C44.086 138.034 44.6914 138.3 44.6914 138.517ZM68.267 138.253C67.7917 138.61 67.293 138.794 67.1589 138.66C66.8773 138.381 68.0164 137.586 68.6827 137.596C68.9294 137.601 68.7424 137.896 68.267 138.253ZM72.2142 139.718C72.0581 140.377 71.7581 141.103 71.5474 141.331C71.3357 141.561 71.3307 141.163 71.5366 140.441C71.7406 139.722 71.8119 138.856 71.6944 138.516C71.5644 138.138 71.6792 138.019 71.9895 138.209C72.2895 138.393 72.3814 139.011 72.2142 139.718ZM74.2882 138.44C74.2882 138.966 73.4137 139.528 73.0922 139.209C72.7711 138.889 73.3371 138.021 73.8662 138.021C74.0985 138.021 74.2882 138.209 74.2882 138.44ZM31.6867 139.357C31.6867 139.602 31.4849 139.802 31.2382 139.802C30.9916 139.802 30.7898 139.602 30.7898 139.357C30.7898 139.112 30.9916 138.912 31.2382 138.912C31.4849 138.912 31.6867 139.112 31.6867 139.357ZM41.994 139.246C41.985 139.672 41.12 141.017 41.1106 140.618C41.107 140.455 40.9814 140.004 40.8317 139.616C40.6532 139.154 40.807 138.912 41.2801 138.912C41.6765 138.912 41.9976 139.062 41.994 139.246ZM33.7047 140.248C33.8571 140.493 33.78 140.693 33.5333 140.693C33.2867 140.693 32.9602 140.493 32.8078 140.248C32.6553 140.003 32.7324 139.802 32.9791 139.802C33.2257 139.802 33.5522 140.003 33.7047 140.248ZM61.2835 140.72C61.2835 140.95 60.9808 141.139 60.6109 141.139C59.9176 141.139 59.7198 140.613 60.2248 140.112C60.5831 139.756 61.2835 140.158 61.2835 140.72ZM62.6288 139.999C62.6288 140.107 62.427 140.319 62.1804 140.471C61.9338 140.622 61.732 140.533 61.732 140.274C61.732 140.015 61.9338 139.802 62.1804 139.802C62.427 139.802 62.6288 139.891 62.6288 139.999ZM50.8457 142.475C50.9009 143.087 50.8331 143.337 50.695 143.029C50.5574 142.721 50.26 142.583 50.0345 142.721C49.8089 142.86 49.6242 142.76 49.6242 142.501C49.6242 142.242 49.3215 142.029 48.9515 142.029C48.5815 142.029 48.2789 141.816 48.2789 141.555C48.2789 141.293 48.834 141.143 49.5121 141.221C50.4569 141.328 50.7686 141.622 50.8457 142.475ZM52.8753 141.879C52.5673 142.003 52.0628 142.003 51.7542 141.879C51.4462 141.755 51.6982 141.654 52.3148 141.654C52.9314 141.654 53.1839 141.755 52.8753 141.879ZM45.4667 142.298C45.3178 142.446 44.9308 142.462 44.6075 142.334C44.2496 142.192 44.3559 142.086 44.8784 142.065C45.351 142.045 45.6156 142.151 45.4667 142.298ZM53.809 142.951C54.7386 142.981 54.7422 142.998 53.8915 143.328C52.8381 143.737 51.4179 143.445 51.4179 142.82C51.4179 142.578 51.7372 142.501 52.1273 142.65C52.5175 142.799 53.274 142.934 53.809 142.951ZM55.8184 144.115C56.1417 144.244 56.5287 144.228 56.6776 144.08C56.8265 143.932 56.5619 143.827 56.0893 143.846C55.5669 143.867 55.4606 143.973 55.8184 144.115ZM48.6152 145.887C48.9237 146.011 49.4282 146.011 49.7363 145.887C50.0448 145.764 49.7923 145.663 49.1757 145.663C48.5591 145.663 48.3071 145.764 48.6152 145.887ZM58.9575 145.897C59.2808 146.025 59.6678 146.009 59.8167 145.861C59.9656 145.714 59.701 145.608 59.2283 145.628C58.7059 145.649 58.5996 145.755 58.9575 145.897Z" fill="#F08300"/>
</svg>
