<svg width="75" height="75" viewBox="0 0 75 75" fill="none" xmlns="http://www.w3.org/2000/svg">
<path d="M23.398 74.9867C22.6718 74.4999 22.4613 73.8233 22.4708 72.9569C22.5194 68.5493 22.511 64.1411 22.5418 59.7332C22.5562 59.5446 22.5214 59.3555 22.4407 59.1844C22.36 59.0134 22.2363 58.8662 22.0816 58.7573C17.8479 55.4071 15.6788 50.9558 15.0614 45.6512C14.561 41.3524 14.8181 37.0418 14.7532 32.7363C14.7312 31.2755 14.729 29.8133 14.7655 28.353C14.8219 26.0897 15.9297 24.4553 17.9702 23.5531C20.0106 22.6509 21.9733 22.9633 23.6811 24.4063C24.1159 24.7737 24.2802 24.6972 24.6493 24.3673C26.846 22.4041 30.007 22.4281 32.2086 24.3909C32.4201 24.5794 32.5416 24.811 32.8978 24.4909C34.912 22.681 37.1521 22.4457 39.5634 23.6384C39.6311 23.6557 39.7005 23.665 39.7704 23.6663C39.8671 21.4817 39.9702 19.3053 40.0583 17.1283C40.2189 13.1633 40.3392 9.19625 40.5366 5.23305C40.6736 2.48184 42.6734 0.400594 45.2758 0.169886C48.1505 -0.0849651 50.5136 1.43332 51.2288 4.0007C51.3928 4.6619 51.4656 5.34243 51.4451 6.02336C51.4442 14.0845 51.4596 22.1456 51.4345 30.2066C51.4323 30.8997 51.6386 31.0485 52.273 31.0083C53.7948 30.9119 55.2926 31.0758 56.6649 31.7953C59.1597 33.1032 60.177 35.3483 60.3514 38.008C60.6559 42.6538 59.1201 46.8491 56.9401 50.8387C54.9819 54.4222 52.507 57.5802 49.0189 59.8264C48.7116 60.0243 48.7208 60.2865 48.7213 60.5819C48.7248 62.6276 48.7283 64.6733 48.721 66.719C48.7169 67.876 48.4758 68.1931 47.368 68.5722C46.6584 68.7261 46.0711 68.4108 45.747 67.7032C45.5947 67.3166 45.5287 66.9014 45.5537 66.4866C45.5523 64.2215 45.5686 61.9562 45.5464 59.6913C45.5363 58.6593 45.9409 57.9657 46.8585 57.4492C49.1311 56.1698 50.8593 54.2879 52.3603 52.1917C54.4785 49.2906 55.9993 45.9977 56.8343 42.5041C57.2004 40.9325 57.4009 39.3393 57.1385 37.7235C56.7384 35.2597 55.4352 34.1398 52.8803 34.1281C48.7158 34.109 44.5513 34.123 40.3867 34.1228C39.2421 34.1227 38.0973 34.1111 36.9529 34.1266C35.5896 34.145 34.6666 34.9353 34.3494 36.3295C34.1019 37.4172 34.7694 38.8572 35.7633 39.3915C36.0757 39.5317 36.4188 39.5896 36.7599 39.5596C40.6302 39.5461 44.497 39.8142 48.3681 39.7027C49.1293 39.6807 49.702 39.9395 50.0345 40.6366C50.4893 41.5902 50.042 42.5624 48.9312 42.9325C47.2162 43.4959 45.5987 44.3212 44.1359 45.379C41.7886 47.0836 40.2522 49.3048 39.7515 52.1993C39.647 52.804 39.7265 53.4168 39.6182 54.0185C39.4061 55.1959 38.7114 55.7647 37.6683 55.6103C36.7617 55.476 36.2165 54.7415 36.2548 53.6944C36.4146 49.3151 38.2408 45.7809 41.6771 43.0334C40.1656 43.0417 38.6755 43.0273 37.1856 43.0409C36.2561 43.0692 35.3326 42.8834 34.4864 42.4978C33.9037 42.2194 33.6066 42.3213 33.2463 42.8591C31.8088 45.0047 29.5533 45.9323 27.1028 45.364C24.8101 44.8323 23.379 43.3327 22.7374 41.1008C22.5711 40.5223 22.4015 40.3431 21.8002 40.5632C20.7572 40.9375 19.6172 40.9417 18.5715 40.575C18.114 40.4248 17.8839 40.4836 17.8987 41.0318C17.9786 43.9876 18.2489 46.9144 19.2242 49.7312C20.206 52.5667 22.0512 54.7688 24.3984 56.5615C25.319 57.2645 25.6855 58.0823 25.6688 59.2435C25.6134 63.091 25.6472 66.9398 25.6483 70.7881C25.6485 71.846 25.6594 71.8586 26.6932 71.8591C31.1987 71.8613 35.7042 71.855 40.2096 71.863C41.4233 71.8652 41.9641 72.2905 42.2548 73.4167C42.23 74.2135 41.8561 74.7506 41.0804 74.9867L23.398 74.9867Z" fill="#060606"/>
<path d="M47.3694 72.0392C48.0149 72.1503 48.4786 72.4993 48.6541 73.1357C48.885 73.9734 48.3943 74.5107 47.8027 74.9867H46.7797C45.973 74.8096 45.6217 74.27 45.5806 73.4817C45.8235 72.2909 46.4332 71.7999 47.3694 72.0392Z" fill="#0C0C0D"/>
<path d="M45.7351 73.527C45.7716 74.2367 46.2074 74.6605 46.7797 74.9867H41.0804C41.6255 74.6415 42.0266 74.1951 42.1077 73.524C42.8202 73.092 43.6045 73.3458 44.3549 73.3066C44.8178 73.2824 45.3203 73.1794 45.7351 73.527Z" fill="white"/>
<path d="M45.7351 73.527C44.526 73.526 43.3168 73.5251 42.1077 73.5241C41.733 72.3053 41.4038 72.0613 40.1276 72.0612C35.4513 72.0608 30.7749 72.0501 26.0987 72.0755C25.5429 72.0785 25.4239 71.9327 25.4291 71.3947C25.4696 67.2541 25.4579 63.113 25.5061 58.9725C25.5165 58.0831 25.2342 57.4519 24.5146 56.9284C20.4651 53.9823 18.4344 49.9221 17.9676 44.9973C17.8138 43.3739 17.6557 41.754 17.7118 40.056C19.3028 40.7796 20.8738 40.8322 22.4444 40.0973C22.7857 39.9376 22.7742 40.1967 22.8098 40.423C23.2807 43.4139 25.6353 45.4253 28.6482 45.3034C30.7472 45.2184 32.3395 44.1882 33.3393 42.3312C33.5829 41.8785 33.7495 41.8354 34.1662 42.1115C34.9802 42.6509 35.9156 42.7998 36.879 42.7991C38.6206 42.7977 40.3623 42.7987 42.2923 42.7987C41.3163 43.5348 40.4203 44.3713 39.619 45.2945C37.6505 47.6093 36.5386 50.5311 36.4701 53.569C36.4281 54.7239 36.9455 55.4453 37.8877 55.4819C38.7829 55.5167 39.3967 54.8704 39.421 53.737C39.4922 50.408 40.889 47.7483 43.4342 45.6628C44.9962 44.3844 46.7906 43.4198 48.7186 42.8222C49.6223 42.5383 50.0044 42.1091 50.0279 41.3793C50.0564 41.0114 49.9376 40.6474 49.6976 40.3671C49.4577 40.0868 49.1162 39.9134 48.7484 39.8848C48.4818 39.86 48.214 39.8503 47.9463 39.8559C44.2688 39.8468 40.5913 39.8387 36.9138 39.8315C36.5255 39.8235 36.1427 39.7377 35.7882 39.5791C35.4336 39.4206 35.1145 39.1925 34.8496 38.9085C34.5847 38.6244 34.3795 38.2901 34.2462 37.9253C34.1128 37.5606 34.0539 37.1728 34.0731 36.7848C34.1157 35.3534 35.2398 33.8709 36.9163 33.8935C42.2006 33.9648 47.4864 33.9229 52.7716 33.9284C55.8033 33.9316 57.376 35.5016 57.4498 38.5613C57.5272 41.7713 56.6044 44.7399 55.2675 47.6019C53.6015 51.1686 51.4244 54.3569 48.2532 56.7732C47.7433 57.1448 47.2096 57.4824 46.6555 57.784C46.3816 57.9193 46.1523 58.1302 45.9945 58.3917C45.8367 58.6532 45.7571 58.9544 45.7651 59.2598C45.764 61.8174 45.7547 64.375 45.7696 66.9326C45.7752 67.8957 46.2591 68.3636 47.368 68.5722C47.3684 69.7278 47.3689 70.8835 47.3693 72.0392C46.3279 72.1549 45.9769 72.4745 45.7351 73.527Z" fill="#F1D8D4"/>
<path d="M48.5188 18.0701C48.5188 22.1582 48.5067 26.2464 48.5331 30.3344C48.5367 30.8873 48.395 31.0227 47.8522 31.0096C46.2473 30.9708 44.6406 30.9833 43.0349 31.0038C42.5925 31.0095 42.4218 30.9508 42.4467 30.421C42.6487 26.1201 42.8064 21.8171 42.9834 17.5149C43.1493 13.4801 43.3403 9.44626 43.4849 5.41073C43.5652 3.17051 45.9963 2.61796 47.4104 3.48971C47.6765 3.63687 47.9044 3.84433 48.0758 4.09544C48.2473 4.34655 48.3576 4.63433 48.3978 4.93573C48.4488 5.29654 48.4762 5.66029 48.4798 6.02467C48.4854 10.0398 48.4866 14.0549 48.4833 18.0701L48.5188 18.0701Z" fill="#F1D8D4"/>
<path d="M31.111 34.0867C31.111 35.9107 31.1261 37.7349 31.1054 39.5586C31.0926 40.6882 30.6116 41.5785 29.5779 42.0973C29.1468 42.3289 28.658 42.4312 28.1702 42.3921C27.6824 42.3529 27.2162 42.174 26.8274 41.8766C26.0044 41.3024 25.6915 40.4818 25.6971 39.4871C25.7175 35.8878 25.7063 32.2883 25.7205 28.689C25.7271 27.033 26.845 25.8772 28.4028 25.8771C29.9408 25.877 31.101 27.0547 31.121 28.6877C31.1431 30.4871 31.1261 32.287 31.1261 34.0867H31.111Z" fill="#F1D8D4"/>
<path d="M17.6962 31.8586C17.6968 30.7402 17.689 29.6217 17.6988 28.5033C17.6866 27.878 17.9157 27.272 18.3386 26.8113C18.7615 26.3505 19.3457 26.0704 19.9697 26.0291C20.5949 25.9706 21.2178 26.1622 21.702 26.5619C22.1862 26.9617 22.4923 27.537 22.5533 28.1619C22.6687 29.5135 22.621 30.8808 22.6097 32.2409C22.6003 33.3821 22.7054 34.5289 22.5366 35.6637C22.4386 36.2432 22.1341 36.7675 21.6794 37.1398C21.2247 37.5121 20.6506 37.7071 20.0632 37.6888C18.8065 37.6251 17.7364 36.5834 17.701 35.3597C17.6785 34.5823 17.6959 33.8037 17.6955 33.0257C17.6954 32.6367 17.6956 32.2476 17.6962 31.8586Z" fill="#F1D8D4"/>
<path d="M34.0702 31.6371C34.0702 30.4903 34.0371 29.4682 34.078 28.4492C34.0916 28.0966 34.1747 27.7502 34.3226 27.4299C34.4706 27.1095 34.6804 26.8216 34.94 26.5827C35.1997 26.3437 35.504 26.1585 35.8355 26.0376C36.167 25.9167 36.5191 25.8626 36.8716 25.8783C37.5703 25.8949 38.2346 26.1853 38.7213 26.6869C39.208 27.1885 39.4782 27.8613 39.4737 28.5602C39.4829 29.2167 39.4499 29.8747 39.4846 30.5295C39.506 30.9337 39.3505 30.9961 38.9868 31.0062C37.8008 31.0391 36.6083 30.8609 35.4276 31.1262C34.9612 31.257 34.5071 31.4279 34.0702 31.6371Z" fill="#F1D8D4"/>
</svg>
