<svg width="32" height="32" viewBox="0 0 32 32" fill="none" xmlns="http://www.w3.org/2000/svg">
<g clip-path="url(#clip0_802_794)">
<path d="M29.6532 2.389e-06C30.4064 0.305601 30.6098 0.612902 30.6098 1.44575C30.6098 6.12699 30.6098 10.8082 30.6096 15.4895C30.6096 15.9154 30.5358 16.0185 30.1625 16.1267C29.895 16.2416 29.7678 16.0657 29.6575 15.8816C29.5275 15.6646 29.5519 15.4185 29.5518 15.1798C29.5511 10.7025 29.5509 6.2253 29.5512 1.74807C29.5512 1.62313 29.5465 1.49802 29.5498 1.37329C29.5559 1.13748 29.4451 1.03619 29.2034 1.0366C28.7781 1.03732 28.3526 1.04633 27.9273 1.02919C27.7576 1.04074 27.5874 1.04358 27.4174 1.03771C19.3173 1.03811 11.2172 1.03836 3.11712 1.03845C2.39731 1.03851 2.44053 1.00678 2.44037 1.70342C2.43937 6.16767 2.43905 10.6319 2.43942 15.0962C2.43939 15.3039 2.45252 15.5135 2.38934 15.7162C2.30001 16.0027 2.13843 16.1186 1.83727 16.1168C1.46787 16.036 1.37483 15.7955 1.37537 15.4481C1.38264 10.7802 1.38427 6.11232 1.38025 1.44444C1.38026 0.611294 1.58028 0.309386 2.33683 0L29.6532 2.389e-06Z" fill="#2B2D54"/>
<path d="M31.964 29.6601C31.904 29.0902 31.5106 28.734 30.9204 28.7426C30.6365 28.7473 30.6037 28.6495 30.6045 28.4076C30.6125 24.9405 30.6077 21.4741 30.6133 18.007C30.6141 17.6743 30.5278 17.4347 30.1631 17.3643C29.8968 17.322 29.7416 17.4105 29.6265 17.6688C29.5385 17.8668 29.5513 18.0766 29.5513 18.2841C29.5505 21.5219 29.5503 24.7594 29.5505 27.9966C29.5505 28.6988 29.5737 28.637 28.8892 28.6393C28.2246 28.6417 28.2238 28.6401 28.2238 27.9943V3.63506C28.2296 3.45808 28.2261 3.28093 28.2134 3.1043C28.1902 2.88433 28.1454 2.67061 27.9679 2.51092C27.7424 2.33713 27.4745 2.33635 27.2074 2.33635C19.7422 2.33556 12.2767 2.33583 4.81097 2.33713C4.00247 2.33713 3.83134 2.507 3.82974 3.28435V3.53407C3.82974 11.6442 3.82947 19.7542 3.82894 27.8643C3.82894 28.7004 3.89612 28.637 3.03404 28.6393C2.44066 28.6409 2.43986 28.6393 2.43986 28.0561C2.43986 24.8183 2.43959 21.5806 2.43906 18.3428C2.43906 18.1134 2.45345 17.8801 2.35109 17.6664C2.25113 17.459 2.11838 17.286 1.83768 17.3635C1.47702 17.4316 1.37545 17.6602 1.37625 17.9984C1.38265 21.4757 1.37785 24.953 1.38585 28.4295C1.38585 28.6667 1.33627 28.7434 1.07797 28.7419C0.472598 28.7372 0.0783421 29.0934 0.0239624 29.682C-0.0080256 30.0335 0.0199624 30.3897 0.00236895 30.7428C-0.0400152 31.5733 0.490188 32.0015 1.28349 32C11.0878 31.9835 20.8927 31.9802 30.6981 31.9898C30.7725 31.9898 30.8468 31.9906 30.9212 31.989C31.4962 31.9788 31.9048 31.6289 31.964 31.0622C32.012 30.596 32.012 30.1263 31.964 29.6601ZM19.7502 17.7447C19.7502 20.6388 19.7505 23.5329 19.751 26.427C19.751 27.0948 19.8765 27.2709 20.5211 27.5089C21.5111 27.8745 22.5006 28.2398 23.4896 28.6049C23.5648 28.6323 23.6383 28.6636 23.7847 28.7231H8.28967C8.28567 28.7098 8.28248 28.6965 8.27848 28.6839C9.0158 28.4115 9.75312 28.1393 10.4904 27.8674C10.8567 27.7336 11.227 27.6083 11.5916 27.469C12.0723 27.2858 12.2386 27.0517 12.2386 26.5484C12.2402 19.9272 12.2418 13.3061 12.2434 6.68495C12.2442 6.22465 12.0171 5.95848 11.6148 5.77374C10.0258 5.04101 8.43842 4.30463 6.85261 3.5646C6.75904 3.52155 6.66868 3.47379 6.51434 3.39708H25.4936C24.1158 4.03821 22.8178 4.64255 21.5199 5.24611C21.1473 5.4199 20.7786 5.60152 20.3987 5.75965C19.9301 5.95457 19.7422 6.27866 19.7438 6.78202C19.7566 10.4363 19.7502 14.0905 19.7502 17.7447Z" fill="#2B2D54"/>
<path d="M27.9222 2.56781C27.7628 2.48379 27.5825 2.44497 27.4018 2.45572C19.7992 2.45692 12.1966 2.45738 4.59396 2.45711C4.03896 2.45715 3.90883 2.58925 3.90882 3.14558C3.90858 11.5353 3.90842 19.925 3.90834 28.3148C3.90832 28.8106 3.92938 28.7313 3.48476 28.7355C3.1658 28.7385 2.84666 28.7307 2.52786 28.7383C2.37876 28.7418 2.30943 28.6935 2.32331 28.5425C2.32995 28.4703 2.32416 28.3969 2.32416 28.324C2.32414 24.9099 2.32404 21.4957 2.32385 18.0815C2.32378 17.5995 2.25054 17.494 1.83792 17.3635C1.83773 16.9479 1.8375 16.5323 1.83725 16.1168C2.25487 15.9719 2.32385 15.8724 2.32389 15.3969C2.32434 10.7555 2.32444 6.11416 2.3242 1.47281C2.32421 0.922072 2.32446 0.921884 2.89699 0.921881C11.125 0.92184 19.3529 0.922004 27.5809 0.922376C27.6975 0.922384 27.8142 0.93025 27.9308 0.934447C27.979 0.974791 28.0178 1.02485 28.0445 1.0812C28.0712 1.13755 28.0852 1.19887 28.0854 1.26099C28.0985 1.61139 28.1026 1.96214 28.0833 2.31211C28.0777 2.41509 28.0907 2.55273 27.9222 2.56781Z" fill="#F08300"/>
<path d="M27.9222 2.56779C28.0551 2.4383 27.9921 2.27413 27.9889 2.1285C27.9802 1.73029 28.0482 1.32757 27.9308 0.934439C28.3447 0.931224 28.7587 0.926051 29.1726 0.92532C29.6474 0.924482 29.6628 0.939842 29.6629 1.39487C29.6634 3.48441 29.6634 5.57394 29.6631 7.66348C29.6631 10.2624 29.6633 12.8613 29.6636 15.4603C29.6638 15.8997 29.771 16.0385 30.1625 16.1266C30.1626 16.5392 30.1628 16.9518 30.163 17.3644C29.7567 17.4676 29.6634 17.5966 29.6634 18.0674C29.6629 21.4907 29.6628 24.914 29.6631 28.3373C29.6631 28.736 29.6629 28.7361 29.2516 28.7362C28.9434 28.7363 28.635 28.7302 28.327 28.7384C28.1657 28.7427 28.087 28.6918 28.1017 28.5257C28.109 28.4431 28.1026 28.3593 28.1026 28.2761C28.1026 19.952 28.1026 11.6279 28.1024 3.30378C28.1024 3.04465 28.1204 2.78068 27.9222 2.56779Z" fill="#F08300"/>
<path d="M27.1629 16.181C27.1629 20.2521 27.1654 24.3231 27.1704 28.394C27.1712 28.689 27.0836 28.7726 26.8001 28.745C26.6421 28.7396 26.4855 28.7137 26.3344 28.6679C24.5418 28.0077 22.75 27.3455 20.9533 26.696C20.7398 26.6188 20.664 26.5244 20.6643 26.2977C20.6709 19.8424 20.6711 13.3871 20.6649 6.93177C20.6647 6.72418 20.7296 6.62032 20.9228 6.53139C22.9069 5.61828 24.8873 4.69756 26.864 3.76922C27.1393 3.63961 27.1674 3.71133 27.1671 3.96804C27.1612 8.03903 27.1598 12.11 27.1629 16.181Z" fill="#F08300"/>
<path d="M4.82678 16.1855C4.82678 12.1251 4.82681 8.06469 4.82685 4.00429C4.82686 3.642 4.82733 3.6419 5.17404 3.80258C7.12676 4.70752 9.08013 5.61109 11.0342 6.51329C11.2458 6.61042 11.3236 6.72555 11.3233 6.9594C11.3163 13.3936 11.3165 19.8277 11.3238 26.2619C11.3241 26.5116 11.2487 26.6197 11.0087 26.7061C9.22145 27.3501 7.44048 28.0108 5.65717 28.6653C5.57916 28.6973 5.49787 28.7209 5.41471 28.7359C4.85775 28.8141 4.82678 28.7866 4.82678 28.2418C4.82678 24.223 4.82678 20.2042 4.82678 16.1855Z" fill="#F08300"/>
<path d="M29.3363 31.0565C29.2196 31.0606 29.103 31.0682 28.9864 31.0682C19.7925 31.0688 10.5985 31.0689 1.40455 31.0687C0.940002 31.0687 0.939983 31.0685 0.939884 30.61C0.939835 30.3811 0.937562 30.1521 0.940968 29.9233C0.942431 29.8248 0.907044 29.7058 1.05401 29.6667C1.1685 29.6427 1.28613 29.6365 1.4026 29.6483C10.5825 29.6474 19.7623 29.6471 28.9422 29.6475C29.4157 29.6475 29.4443 29.6638 29.4332 30.1407C29.426 30.4468 29.5181 30.767 29.3363 31.0565Z" fill="#4B73F3"/>
<path d="M29.3363 31.0566C29.3364 30.6819 29.329 30.307 29.3399 29.9326C29.3452 29.7476 29.289 29.6571 29.0885 29.6793C29.0036 29.6844 28.9184 29.6849 28.8335 29.6807C19.7221 29.6808 10.6108 29.6806 1.49945 29.6802C1.35093 29.6802 1.20241 29.6715 1.05396 29.6667C1.16145 29.5982 1.28177 29.6302 1.39574 29.6302C10.6122 29.6285 19.8287 29.6283 29.0452 29.6297C29.6186 29.6298 30.192 29.6532 30.7655 29.6547C30.9638 29.6552 31.0605 29.7133 31.0525 29.9231C31.041 30.2245 31.0445 30.5267 31.0512 30.8283C31.0551 31.0037 30.9774 31.0694 30.8026 31.0666C30.3139 31.0589 29.8251 31.0593 29.3363 31.0566Z" fill="#4B73F3"/>
<path d="M26.2076 21.9619C26.2076 23.4506 26.2075 24.9394 26.2073 26.4281C26.2069 27.0256 25.8605 27.2619 25.2926 27.0439C24.3073 26.6656 23.328 26.2721 22.34 25.9007C21.9963 25.7715 21.8452 25.5669 21.8465 25.1998C21.8556 22.6283 21.8502 20.0569 21.8522 17.4854C21.8526 16.9846 22.0319 16.8101 22.5352 16.8016C23.4921 16.7854 24.449 16.7679 25.406 16.7555C26.0196 16.7475 26.2075 16.9319 26.2076 17.5268C26.2078 19.0052 26.2078 20.4835 26.2076 21.9619Z" fill="#2B2D54"/>
<path d="M26.2076 10.9648C26.2076 12.4527 26.2075 13.9405 26.2073 15.4284C26.2069 15.9108 26.004 16.1172 25.5176 16.117C24.5398 16.1164 23.5619 16.1134 22.5842 16.1027C22.0426 16.0969 21.8525 15.9081 21.8521 15.3898C21.8503 12.9551 21.8564 10.5204 21.8456 8.08582C21.844 7.73397 21.9873 7.52793 22.2978 7.37908C23.2756 6.91037 24.246 6.42693 25.2215 5.95365C25.8305 5.65822 26.2073 5.89363 26.2075 6.56369C26.2079 8.03074 26.208 9.49778 26.2076 10.9648Z" fill="#2B2D54"/>
<path d="M5.78245 21.9425C5.78245 20.4537 5.78252 18.9648 5.78266 17.4759C5.78286 16.9438 5.98269 16.749 6.53826 16.7556C7.48467 16.7668 8.43098 16.786 9.37735 16.8004C9.9857 16.8097 10.136 16.9592 10.1366 17.5672C10.1374 18.6084 10.1375 19.6495 10.1368 20.6907C10.1368 22.1691 10.1367 23.6476 10.1366 25.126C10.1363 25.6449 10.0774 25.7326 9.60036 25.9183C8.64637 26.2896 7.68632 26.6466 6.73909 27.0337C6.15521 27.2724 5.75681 26.9771 5.771 26.3776C5.80597 24.8999 5.78245 23.421 5.78245 21.9425Z" fill="#2B2D54"/>
<path d="M5.78246 10.9742C5.78245 9.48648 5.78259 7.99872 5.78288 6.51096C5.7834 5.90779 6.16985 5.66952 6.72824 5.93912C7.7427 6.42891 8.75051 6.93188 9.76439 7.42281C9.88214 7.4707 9.98159 7.55351 10.0488 7.6596C10.116 7.76569 10.1475 7.88972 10.1389 8.01426C10.1347 10.5008 10.1382 12.9873 10.1346 15.4739C10.134 15.8732 9.95475 16.0848 9.54096 16.0941C8.4681 16.1185 7.39433 16.1209 6.32121 16.1088C5.96584 16.1047 5.78351 15.8573 5.7831 15.4687C5.78153 13.9706 5.78132 12.4724 5.78246 10.9742Z" fill="#2B2D54"/>
<path d="M22.8259 25.0976C22.7062 25.0245 22.7654 24.9085 22.7653 24.8146C22.7614 22.537 22.7656 20.2593 22.7571 17.9816C22.7563 17.7569 22.8006 17.6749 23.0496 17.6807C23.7185 17.6964 24.3881 17.6849 25.0573 17.6773C25.2048 17.6756 25.2895 17.6878 25.2891 17.8717C25.2836 20.585 25.2853 23.2984 25.2853 26.0675C24.6923 25.8291 24.1316 25.6038 23.571 25.3784C23.5469 25.2137 23.5407 25.047 23.5525 24.881C23.5522 22.7083 23.5521 20.5355 23.5522 18.3627C23.5522 18.29 23.5486 18.2171 23.5505 18.1445C23.556 17.9376 23.4614 17.8432 23.2442 17.8444C23.0355 17.8455 22.9236 17.9207 22.9278 18.1354C22.9299 18.2392 22.9258 18.3433 22.9258 18.4472C22.9256 20.4952 22.9249 22.5432 22.9237 24.5912C22.9235 24.7636 22.9624 24.9483 22.8259 25.0976Z" fill="white"/>
<path d="M22.8259 25.0976C22.8257 22.7662 22.8265 20.4348 22.8283 18.1034C22.8285 17.9889 22.7556 17.8088 22.9076 17.7716C23.1333 17.708 23.3731 17.7113 23.5968 17.7811C23.7024 17.8189 23.6523 17.9693 23.6524 18.0691C23.6544 20.4005 23.6545 22.7319 23.6525 25.0633C23.6524 25.1724 23.6918 25.2969 23.571 25.3784L22.8259 25.0976Z" fill="white"/>
<path d="M23.5676 7.79692C24.0565 7.55168 24.5498 7.31438 25.0324 7.05774C25.2614 6.93594 25.2896 7.01188 25.2887 7.2253C25.2823 8.63055 25.2854 10.0359 25.2854 11.4411C25.2854 12.5966 25.2786 13.7521 25.2911 14.9074C25.2936 15.1404 25.235 15.2149 24.9914 15.2008C24.5463 15.1751 24.0992 15.1824 23.653 15.1759C23.547 15.0666 23.5533 14.9275 23.5529 14.7931C23.5466 12.523 23.5571 10.253 23.5468 7.98297C23.5465 7.92002 23.5643 7.85932 23.5676 7.79692Z" fill="white"/>
<path d="M23.5676 7.79694C23.7005 7.88628 23.6519 8.02255 23.652 8.14024C23.6543 10.4855 23.6547 12.8307 23.653 15.1759C22.7655 15.2259 22.7655 15.2259 22.7655 14.3648C22.7655 12.4202 22.7739 10.4755 22.7563 8.53102C22.7537 8.24142 22.8459 8.09258 23.106 8.00058C23.2643 7.94461 23.414 7.8656 23.5676 7.79694Z" fill="white"/>
<path d="M7.50555 17.6914C8.00442 17.6913 8.50349 17.6992 9.00206 17.6871C9.19597 17.6824 9.22611 17.761 9.22579 17.9264C9.22138 20.2447 9.22126 22.563 9.22544 24.8813C9.22567 25.0238 9.19005 25.1058 9.04334 25.1585C8.5281 25.3435 8.01785 25.5418 7.5057 25.735C7.38776 25.6179 7.40527 25.4666 7.4051 25.3238C7.40221 22.917 7.40216 20.5101 7.40493 18.1033C7.40509 17.9601 7.38988 17.8094 7.50555 17.6914Z" fill="white"/>
<path d="M7.50553 17.6914C7.50558 20.3726 7.50563 23.0538 7.50568 25.735C7.25398 25.8395 7.00227 25.944 6.7484 26.0493C6.66431 25.9414 6.70235 25.8353 6.70225 25.7388C6.69962 23.1671 6.70565 20.5953 6.69259 18.0236C6.6911 17.7312 6.77443 17.6369 7.06 17.6771C7.2081 17.6903 7.35686 17.6951 7.50553 17.6914Z" fill="white"/>
<path d="M7.51499 7.35297C8.03716 7.60342 8.55764 7.85734 9.08279 8.10165C9.2007 8.1565 9.22446 8.23329 9.22435 8.34743C9.22223 10.5611 9.22257 12.7747 9.2254 14.9883C9.22564 15.1308 9.19312 15.1916 9.03363 15.1884C8.52461 15.1783 8.0153 15.1815 7.50611 15.1796C7.39514 15.0602 7.40439 14.9109 7.40426 14.7666C7.40205 12.4311 7.4023 10.0955 7.40499 7.75998C7.40521 7.61746 7.38836 7.46516 7.51499 7.35297Z" fill="white"/>
<path d="M7.51497 7.35299C7.51201 9.96187 7.50905 12.5707 7.50609 15.1796C6.70017 15.237 6.70016 15.237 6.70016 14.4775C6.70016 12.0772 6.70022 9.67681 6.70033 7.27646C6.70037 6.93887 6.70224 6.93718 7.01417 7.0916C7.18296 7.17516 7.34816 7.26564 7.51497 7.35299Z" fill="white"/>
</g>
<defs>
<clipPath id="clip0_802_794">
<rect width="32" height="32" fill="white"/>
</clipPath>
</defs>
</svg>
