<svg width="32" height="32" viewBox="0 0 32 32" fill="none" xmlns="http://www.w3.org/2000/svg">
<path d="M10.5494 27.068C10.3962 26.6474 10.2633 26.3085 9.75526 26.2055C8.93991 26.0403 8.40178 25.3457 8.37083 24.5104C8.36133 24.2541 8.14106 24.249 8.03337 24.1155C7.89558 23.9446 7.77161 23.9371 7.56843 24.0613C6.9861 24.4236 6.32537 24.6409 5.64168 24.6951C5.26604 24.7235 5.13378 24.5664 5.16723 24.1975C5.24693 23.3185 5.5851 22.5411 6.11748 21.8044C5.55065 21.6739 5.11943 21.3809 4.83869 20.8948C4.55904 20.4106 4.532 19.895 4.70239 19.3106C4.14106 19.4518 3.61102 19.3785 3.08305 19.2715C2.74893 19.2031 2.42378 19.0965 2.11401 18.9538C1.80211 18.8111 1.74591 18.5828 1.94988 18.3011C2.35723 17.7339 2.88738 17.266 3.50079 16.9322C3.66905 16.8406 3.68234 16.7525 3.67257 16.5725C3.65476 16.2442 3.49431 16.0605 3.25261 15.8559C2.34062 15.0841 2.43249 13.6403 3.41017 12.949C3.5256 12.8673 3.73584 12.2935 3.69492 12.1639C3.66617 12.0729 3.57382 12.0609 3.50432 12.0209C2.90533 11.6838 2.38362 11.225 1.97282 10.674C1.72954 10.3442 1.78503 10.1431 2.16587 9.97447C2.88511 9.64451 3.67987 9.5141 4.46684 9.59691C4.53635 9.6045 4.60978 9.63312 4.67543 9.58091C4.41892 8.34991 4.95243 7.43077 6.11433 7.14439C5.82958 6.71801 5.56532 6.28987 5.40314 5.80803C5.27597 5.44676 5.19511 5.07083 5.16249 4.68922C5.14093 4.39293 5.28321 4.23134 5.57997 4.24689C6.2852 4.29237 6.96856 4.50988 7.57032 4.88042C7.74861 4.98593 7.84753 5.00119 8.01745 4.85692C8.12012 4.78124 8.20679 4.68597 8.27245 4.57662C8.33811 4.46727 8.38147 4.346 8.40002 4.21981C8.61355 2.95911 9.90504 2.31092 11.0551 2.8696C11.2942 2.98577 11.4151 2.79409 11.5939 2.77552C11.8757 2.74624 11.8616 2.56434 11.8591 2.3563C11.8548 1.70191 11.9903 1.05414 12.2563 0.456266C12.4161 0.0877411 12.6403 0.0292719 12.9625 0.264198C13.6603 0.777003 14.205 1.47054 14.5378 2.27007C14.9454 1.87048 15.3975 1.62189 15.9672 1.62385C16.5331 1.6258 16.986 1.85738 17.3917 2.27069C17.6242 1.78488 17.8783 1.32618 18.2375 0.935764C18.4725 0.672048 18.7357 0.434857 19.0223 0.228431C19.2895 0.0421811 19.5127 0.0994902 19.6515 0.398464C19.9467 1.02935 20.0928 1.7197 20.0785 2.41608C20.0751 2.59944 20.104 2.69063 20.3068 2.77503C20.5937 2.89444 20.8146 2.88254 21.1069 2.77274C22.2459 2.34491 23.5131 3.1859 23.5628 4.39634C23.574 4.66687 23.7824 4.68674 23.8982 4.82442C24.0528 5.00823 24.188 4.99564 24.3914 4.87174C24.9745 4.51043 25.6367 4.29651 26.321 4.24848C26.6721 4.2248 26.803 4.38634 26.7709 4.74117C26.6912 5.62024 26.3559 6.39917 25.8215 7.13685C26.381 7.27165 26.8158 7.55758 27.0968 8.04326C27.377 8.52738 27.41 9.04153 27.2403 9.61766C27.6127 9.57404 27.9885 9.56838 28.3621 9.60075C28.856 9.65183 29.3388 9.78059 29.7926 9.98228C30.1503 10.144 30.2067 10.3551 29.9744 10.6677C29.5691 11.2231 29.046 11.6821 28.4427 12.012C28.2797 12.1002 28.2524 12.1831 28.2656 12.3694C28.2887 12.6946 28.4391 12.8818 28.683 13.087C29.6066 13.8641 29.5143 15.3331 28.5008 16.0035C28.265 16.1595 28.3674 16.3633 28.2888 16.5328C28.1576 16.8159 28.3513 16.8823 28.5363 16.9888C29.1044 17.3175 29.5973 17.7617 29.983 18.2928C30.2006 18.5887 30.1444 18.8155 29.805 18.9592C29.0317 19.2867 28.2344 19.4806 27.3857 19.3391C27.3457 19.3365 27.3054 19.3381 27.2657 19.3438C27.4908 20.6336 26.9783 21.5198 25.8603 21.7887C25.8339 21.8849 25.912 21.9364 25.9555 22.0005C26.4099 22.6469 26.6889 23.4002 26.7652 24.1866C26.8005 24.5787 26.6691 24.7293 26.2716 24.6938C25.5786 24.6304 24.9103 24.4046 24.3208 24.0346C24.1744 23.9443 24.0921 23.9477 23.95 24.0613C23.8369 24.1405 23.7416 24.2426 23.6705 24.361C23.5994 24.4794 23.554 24.6114 23.5372 24.7485C23.4133 25.5711 22.8156 26.1111 21.9766 26.253C21.8749 26.27 21.7837 26.3257 21.7222 26.4085C21.5637 26.6004 21.4512 26.826 21.3931 27.068H21.7411C24.0999 27.068 26.4587 27.068 28.8175 27.0681C29.3295 27.0681 29.4228 27.1639 29.4233 27.6898C29.4237 28.0847 29.4298 28.4797 29.4201 28.8743C29.4164 29.0235 29.4594 29.0731 29.6108 29.0666C29.8805 29.0551 30.1511 29.0608 30.4212 29.0644C30.6722 29.0677 30.8067 29.1999 30.808 29.4505C30.8113 30.1051 30.8113 30.7597 30.8082 31.4144C30.807 31.6834 30.6594 31.8073 30.3954 31.8072C27.7873 31.8055 25.1775 31.8583 22.5716 31.7824C21.074 31.7388 19.9408 30.9244 19.1812 29.6269C19.0912 29.4664 18.9585 29.334 18.7978 29.2443C17.8701 28.7152 17.1687 27.8642 16.8264 26.8527C16.4841 25.8411 16.5246 24.7391 16.9402 23.7554C16.9739 23.6938 16.994 23.6257 16.9992 23.5557C17.0043 23.4857 16.9944 23.4154 16.9701 23.3495C16.6467 22.5024 16.9151 21.6485 17.6636 21.1347C17.72 21.1027 17.7667 21.0561 17.799 20.9998C17.8312 20.9435 17.8477 20.8796 17.8468 20.8147C17.8646 20.5478 17.9397 20.2879 18.0672 20.0528C18.1946 19.8176 18.3713 19.6127 18.5852 19.4521C18.7991 19.2916 19.0452 19.179 19.3066 19.1223C19.5679 19.0655 19.8385 19.0658 20.0997 19.1233C20.1861 19.142 20.2757 19.2042 20.3536 19.1018C20.4273 19.0048 20.4058 18.9192 20.3531 18.8155C20.208 18.5364 20.1361 18.225 20.144 17.9105C20.152 17.596 20.2396 17.2887 20.3986 17.0172C20.5576 16.7458 20.7829 16.5191 21.0533 16.3584C21.3238 16.1977 21.6305 16.1082 21.945 16.0982C21.9907 16.0994 22.0359 16.0876 22.0752 16.0641C22.1144 16.0406 22.1462 16.0064 22.1668 15.9656C22.2495 15.8351 22.126 15.8021 22.0735 15.7422C21.3997 14.973 21.4003 13.9689 22.0751 13.2006C22.1279 13.1405 22.2496 13.1071 22.166 12.9768C22.1447 12.9363 22.1126 12.9026 22.0731 12.8795C22.0336 12.8564 21.9885 12.8449 21.9428 12.8462C21.6284 12.8358 21.3217 12.7459 21.0515 12.5848C20.7813 12.4237 20.5564 12.1967 20.3977 11.925C20.2391 11.6534 20.1519 11.346 20.1443 11.0315C20.1367 10.717 20.209 10.4057 20.3544 10.1267C20.4079 10.0227 20.4252 9.9375 20.3523 9.84035C20.2842 9.74971 20.2032 9.79739 20.1261 9.81307C19.129 10.016 18.2438 9.51129 17.9199 8.55479C17.8932 8.47583 17.9279 8.36334 17.7786 8.35628C17.6542 8.3504 17.599 8.41008 17.5349 8.50074C16.7164 9.65849 15.2128 9.66126 14.4064 8.50754C14.3451 8.41974 14.2952 8.35248 14.1669 8.35546C13.996 8.35944 14.0377 8.49405 14.009 8.5763C13.6815 9.51567 12.7951 10.0193 11.8185 9.81498C11.73 9.79646 11.6398 9.74798 11.5711 9.85963C11.5468 9.89913 11.5345 9.94492 11.536 9.99132C11.5375 10.0377 11.5525 10.0826 11.5793 10.1205C11.7259 10.3988 11.7995 10.7098 11.7932 11.0242C11.7869 11.3387 11.7009 11.6465 11.5433 11.9187C11.3857 12.1908 11.1615 12.4186 10.8919 12.5806C10.6223 12.7426 10.316 12.8335 10.0017 12.8449C9.95062 12.8431 9.90023 12.8568 9.85705 12.884C9.81387 12.9113 9.77988 12.9509 9.75952 12.9978C9.69946 13.1107 9.8098 13.1408 9.85774 13.1957C10.5437 13.9815 10.5396 14.9544 9.8458 15.7592C9.79774 15.815 9.69556 15.848 9.76741 15.9604C9.78698 16.0018 9.81798 16.0368 9.85678 16.0613C9.89558 16.0857 9.94055 16.0985 9.98641 16.0983C11.2897 16.1181 12.2287 17.521 11.5875 18.8107C11.5363 18.9136 11.5091 18.9975 11.5804 19.0973C11.6561 19.2034 11.7461 19.1439 11.8326 19.1252C12.0962 19.0656 12.3697 19.0644 12.6339 19.1216C12.8981 19.1789 13.1466 19.2933 13.3618 19.4567C13.5771 19.6202 13.7541 19.8288 13.8802 20.0679C14.0064 20.3069 14.0787 20.5707 14.0921 20.8407C14.0913 20.8957 14.1049 20.9498 14.1315 20.9979C14.1581 21.046 14.1968 21.0863 14.2438 21.1148C15.0348 21.671 15.2926 22.4825 14.961 23.3756C14.9402 23.4265 14.9302 23.4812 14.9318 23.5361C14.9333 23.5911 14.9463 23.6451 14.97 23.6948C15.853 25.8716 15.0823 28.1361 13.0631 29.291C12.9476 29.3567 12.8528 29.4534 12.7894 29.5702C11.9356 31.033 10.6698 31.8017 8.9656 31.8056C6.5341 31.8112 4.10258 31.8071 1.67106 31.8069C1.21768 31.8068 1.12882 31.7174 1.12849 31.2627C1.12807 30.6808 1.12645 30.0989 1.12916 29.517C1.13069 29.1864 1.24858 29.07 1.57435 29.0634C1.58474 29.0632 1.59517 29.064 1.60552 29.0633C1.90313 29.0428 2.31152 29.1947 2.46835 29.0046C2.61756 28.8238 2.51045 28.4306 2.51392 28.1307C2.51609 27.9437 2.51151 27.7566 2.51493 27.5696C2.52185 27.1922 2.64599 27.0685 3.02143 27.0684C5.46333 27.0677 7.90524 27.0675 10.3471 27.068C10.3989 27.068 10.4507 27.068 10.5494 27.068Z" fill="#2B2D54"/>
<path d="M8.73544 22.7686C9.16246 22.5886 9.54277 22.3474 9.7801 21.9334C9.83915 21.8304 9.9209 21.8342 10.0148 21.8255C11.0059 21.7336 11.6786 21.0868 11.7823 20.1039C11.7993 19.9428 11.8643 19.8978 11.9963 19.8627C12.7026 19.6748 13.4457 20.3291 13.3327 21.0712C13.284 21.3909 13.3884 21.5449 13.6712 21.6668C13.8768 21.7456 14.0523 21.8874 14.1726 22.0718C14.2929 22.2563 14.3519 22.474 14.3413 22.6939C14.3461 22.9088 14.2846 23.12 14.1651 23.2986C14.0456 23.4773 13.8739 23.6148 13.6734 23.6923C13.3932 23.8134 13.2801 23.966 13.3304 24.2868C13.4005 24.7347 13.2094 25.1062 12.8297 25.348C12.4391 25.5966 12.0092 25.6127 11.634 25.337C11.3455 25.1251 11.1217 25.0851 10.8402 25.3304C10.749 25.4083 10.6411 25.4645 10.5249 25.4945C10.4087 25.5244 10.2872 25.5275 10.1697 25.5034C9.78733 25.2598 9.70457 24.8606 9.66566 24.4599C9.66333 24.3638 9.63575 24.2701 9.58569 24.188C9.53563 24.106 9.46486 24.0386 9.38049 23.9927C9.05353 23.7879 8.81774 23.4653 8.72185 23.0916C8.69091 22.9857 8.64651 22.8725 8.73544 22.7686Z" fill="#F08300"/>
<path d="M19.7072 19.8458C19.9625 19.8363 20.1318 19.8599 20.1686 20.2076C20.2625 21.094 20.982 21.7491 21.8749 21.8219C22.0198 21.8337 22.1183 21.8613 22.2035 21.993C22.3546 22.2364 22.5631 22.4391 22.8108 22.583C23.0586 22.727 23.3379 22.8078 23.6242 22.8185C23.8438 22.8321 23.7971 22.9362 23.7554 23.0477C23.7054 23.1958 23.6235 23.331 23.5156 23.444C23.4077 23.557 23.2763 23.645 23.1306 23.7017C22.857 23.8082 22.7606 23.9757 22.8086 24.2806C22.8793 24.7298 22.6909 25.1024 22.3121 25.3462C21.9219 25.5973 21.4873 25.6174 21.1152 25.3378C20.8092 25.108 20.579 25.1056 20.2934 25.3466C20.2043 25.4194 20.1 25.4712 19.9882 25.4983C19.8764 25.5254 19.76 25.527 19.6475 25.503C19.2614 25.2576 19.1834 24.8549 19.1417 24.4512C19.1373 24.3599 19.1103 24.2711 19.0633 24.1927C19.0162 24.1144 18.9505 24.0488 18.872 24.002C17.847 23.3064 17.8982 21.9285 18.9735 21.309C19.1226 21.223 19.1423 21.1475 19.1461 20.9809C19.1564 20.527 19.2551 20.0923 19.7072 19.8458Z" fill="#F08300"/>
<path d="M16.718 2.68306C16.8822 2.77727 16.9531 2.9455 17.0128 3.10517C17.1006 3.34036 17.2452 3.42179 17.4892 3.38867C17.9986 3.3195 18.413 3.49003 18.6731 3.94225C18.9203 4.37185 18.871 4.79544 18.5684 5.18622C18.4052 5.39694 18.4123 5.59706 18.573 5.80638C18.8742 6.19886 18.9167 6.62286 18.667 7.0507C18.411 7.4892 18.0063 7.66536 17.5096 7.59756C17.2486 7.56194 17.1091 7.65102 17.011 7.89235C16.8216 8.3585 16.4612 8.61295 15.9543 8.60639C15.4619 8.60001 15.1095 8.34869 14.9301 7.89177C14.827 7.62939 14.6671 7.55661 14.3996 7.60159C14.1882 7.63711 13.9674 7.63176 13.7797 7.49055C13.5164 7.17804 13.6976 6.86547 13.8261 6.59C13.8847 6.48445 13.9155 6.36567 13.9154 6.24491C13.9153 6.12415 13.8845 6.00541 13.8257 5.89992C13.3518 4.90753 13.9999 3.78742 15.1045 3.6824C15.3749 3.6567 15.5531 3.59121 15.7055 3.34395C15.8175 3.1681 15.9658 3.01818 16.1404 2.90421C16.315 2.79024 16.5119 2.71485 16.718 2.68306Z" fill="#4B73F3"/>
<path d="M24.5073 16.1661C24.6439 16.2769 24.7449 16.4254 24.7977 16.5931C24.8825 16.8053 25.0234 16.898 25.2548 16.8612C25.7706 16.7793 26.1864 16.9631 26.4396 17.4104C26.6835 17.8409 26.6488 18.2825 26.3257 18.6794C26.173 18.867 26.1699 19.0528 26.3231 19.2406C26.656 19.6486 26.6863 20.1016 26.428 20.5366C26.1745 20.9635 25.7617 21.1447 25.259 21.0624C25.0265 21.0243 24.8881 21.1156 24.8004 21.326C24.6035 21.7985 24.258 22.0839 23.7335 22.0744C23.2294 22.0652 22.8848 21.8016 22.6946 21.3311C22.6072 21.1149 22.4546 21.0194 22.2038 21.0651C22.0731 21.0965 21.937 21.098 21.8057 21.0696C21.6743 21.0412 21.5511 20.9835 21.4451 20.9009C21.4124 20.5784 21.4826 20.2538 21.6456 19.9735C21.6928 19.9004 21.7186 19.8154 21.7198 19.7284C21.7211 19.6414 21.6979 19.5557 21.6529 19.4812C21.1016 18.4249 21.7321 17.2581 22.919 17.1489C23.0308 17.1472 23.1402 17.1155 23.2357 17.0572C23.3312 16.9989 23.4093 16.9161 23.4619 16.8174C23.6952 16.4298 24.0636 16.2306 24.5073 16.1661Z" fill="#F08300"/>
<path d="M8.99188 7.23388C9.13978 7.33099 9.18499 7.49252 9.25452 7.64123C9.28685 7.72936 9.35029 7.80263 9.43288 7.84726C9.51547 7.89188 9.61152 7.90478 9.70295 7.88353C10.1976 7.80872 10.6009 7.96592 10.871 8.40019C11.1504 8.84923 11.0928 9.28938 10.7855 9.69551C10.6268 9.90531 10.6357 10.071 10.7903 10.2772C11.0967 10.6856 11.147 11.1242 10.8662 11.5724C10.6011 11.9957 10.205 12.1536 9.72549 12.0841C9.47356 12.0476 9.32899 12.1431 9.23997 12.3589C9.04738 12.8257 8.70326 13.092 8.19702 13.0953C7.68972 13.0987 7.34163 12.8338 7.14946 12.3683C7.05301 12.1346 6.90257 12.0373 6.64148 12.0878C6.53071 12.1141 6.41577 12.1175 6.30364 12.0979C6.19151 12.0783 6.08455 12.036 5.98928 11.9737C5.82908 11.6403 5.91204 11.3211 6.07472 11.0236C6.12814 10.9366 6.15668 10.8365 6.15723 10.7344C6.15778 10.6323 6.13032 10.5319 6.07785 10.4443C5.56566 9.41216 6.2197 8.24861 7.36316 8.16608C7.47476 8.16331 7.5838 8.13202 7.67988 8.07518C7.77597 8.01834 7.8559 7.93785 7.91206 7.84137C8.16711 7.46926 8.50015 7.2015 8.99188 7.23388Z" fill="#4B73F3"/>
<path d="M8.99188 16.213C9.13975 16.3101 9.18499 16.4716 9.25448 16.6203C9.28695 16.7083 9.35038 16.7815 9.43291 16.8262C9.51543 16.8708 9.61139 16.8839 9.70284 16.8629C10.1962 16.7905 10.6013 16.9443 10.8711 17.3793C11.1497 17.8286 11.0899 18.2684 10.7837 18.6746C10.6257 18.8844 10.636 19.0507 10.7901 19.2566C11.0959 19.665 11.1468 20.1036 10.8649 20.5511C10.5991 20.9729 10.2043 21.133 9.72393 21.0618C9.47218 21.0245 9.32784 21.1206 9.23922 21.3369C9.04769 21.8042 8.7029 22.0708 8.19751 22.0738C7.69164 22.0769 7.34104 21.8142 7.14871 21.3476C7.05301 21.1155 6.90507 21.0118 6.64244 21.0656C6.53158 21.0917 6.41658 21.0951 6.30437 21.0755C6.19217 21.056 6.08509 21.0139 5.98962 20.9517C5.82825 20.6184 5.91276 20.2995 6.0751 20.0022C6.12832 19.915 6.15666 19.8149 6.15707 19.7128C6.15748 19.6106 6.12993 19.5104 6.07742 19.4228C5.56597 18.3904 6.22016 17.2274 7.3635 17.1452C7.47508 17.1424 7.58409 17.1111 7.68013 17.0542C7.77618 16.9974 7.85606 16.9168 7.91217 16.8204C8.16725 16.4483 8.50024 16.1807 8.99188 16.213Z" fill="#4B73F3"/>
<path d="M24.5072 7.18449C24.6448 7.29414 24.7462 7.44261 24.7984 7.61064C24.8885 7.83738 25.0367 7.91724 25.2824 7.8807C25.7841 7.80611 26.1894 7.99647 26.4379 8.43093C26.5575 8.62102 26.613 8.84449 26.5961 9.06846C26.5792 9.29243 26.4908 9.50506 26.344 9.67506C26.1761 9.88726 26.172 10.074 26.3413 10.2864C26.4889 10.4556 26.5784 10.6677 26.5965 10.8916C26.6147 11.1154 26.5606 11.3391 26.4422 11.5299C26.196 11.967 25.7907 12.1614 25.2904 12.0862C25.026 12.0464 24.8814 12.1427 24.7851 12.3732C24.5907 12.838 24.2423 13.101 23.7338 13.0958C23.2404 13.0906 22.8961 12.8329 22.7066 12.3808C22.6028 12.1334 22.4477 12.0394 22.1733 12.0893C22.0472 12.1176 21.9163 12.1172 21.7904 12.0881C21.6645 12.0591 21.5467 12.0021 21.4457 11.9214C21.4123 11.5989 21.4824 11.2741 21.646 10.9942C21.6931 10.921 21.7188 10.8361 21.72 10.749C21.7212 10.662 21.6979 10.5763 21.6528 10.5019C21.1018 9.44569 21.7326 8.27853 22.9193 8.16982C23.0311 8.16776 23.1404 8.13589 23.2358 8.07748C23.3312 8.01908 23.4093 7.93626 23.462 7.83759C23.6963 7.45142 24.0637 7.2503 24.5072 7.18449Z" fill="#4B73F3"/>
<path d="M19.648 3.44264C19.7768 3.42376 19.9083 3.43262 20.0334 3.46863C20.1586 3.50464 20.2746 3.56698 20.3737 3.65147C20.6052 3.841 20.7976 3.84101 21.037 3.6555C21.2092 3.50966 21.4245 3.42415 21.6498 3.41199C21.8752 3.39984 22.0984 3.4617 22.2853 3.58816C22.7027 3.84424 22.8838 4.23898 22.7983 4.73024C22.7517 4.99775 22.8779 5.14285 23.1034 5.23261C23.2591 5.29093 23.3994 5.38401 23.5136 5.50476C23.6279 5.62551 23.7131 5.77075 23.7627 5.92941C23.7973 6.03168 23.8243 6.11233 23.648 6.12287C23.3517 6.13241 23.0624 6.21579 22.8064 6.36545C22.5504 6.51511 22.3359 6.7263 22.1822 6.97988C22.1092 7.09454 22.0216 7.11137 21.9008 7.12101C20.9816 7.19428 20.2785 7.82384 20.1701 8.74022C20.129 9.08746 19.9619 9.10995 19.7069 9.09887C19.2328 8.84165 19.1685 8.3875 19.1382 7.91667C19.133 7.83464 19.1878 7.75892 19.162 7.67514C19.6208 7.01723 19.7138 6.32803 19.3356 5.60078C19.3143 5.5727 19.3018 5.53891 19.2996 5.5037C19.2975 5.46849 19.3059 5.43345 19.3237 5.40301C19.6162 4.89487 19.6178 4.3595 19.459 3.81166C19.3613 3.60636 19.4918 3.5179 19.648 3.44264Z" fill="#F08300"/>
<path d="M23.1496 13.7665C24.064 13.9874 24.8067 13.7499 25.3347 12.945C25.3577 12.9115 25.3893 12.8847 25.4261 12.8673C25.4628 12.8499 25.5036 12.8426 25.5441 12.846C26.1615 12.8109 26.6619 12.5491 27.009 12.0353C27.1296 11.8567 27.1966 11.8977 27.3 12.0323C27.4987 12.2908 27.606 12.5789 27.544 12.9023C27.4915 13.1758 27.5875 13.3334 27.839 13.4343C28.2988 13.6189 28.5541 13.9739 28.5565 14.4629C28.5589 14.9509 28.3138 15.3122 27.8519 15.499C27.591 15.6045 27.4891 15.7658 27.5455 16.0549C27.6083 16.3772 27.4935 16.6659 27.2907 16.9214C27.1935 17.0438 27.1251 17.0787 27.0168 16.9177C26.8576 16.6734 26.6417 16.4712 26.3875 16.3284C26.1332 16.1856 25.8482 16.1064 25.5567 16.0977C25.5118 16.0995 25.4671 16.0899 25.4267 16.07C25.3863 16.0501 25.3516 16.0204 25.3256 15.9836C24.6916 15.1485 24.057 14.9327 23.0788 15.2078C22.8325 14.8359 22.8121 14.4369 22.9429 14.0227C22.9541 13.9664 22.9788 13.9138 23.0148 13.8692C23.0508 13.8246 23.097 13.7893 23.1496 13.7665Z" fill="#F08300"/>
<path d="M20.0812 26.2561C20.2603 26.1808 20.4422 26.1112 20.6176 26.0281C20.7349 25.9726 20.8254 26.0349 20.9061 26.0878C21.0297 26.1687 20.9145 26.2538 20.8785 26.3264C20.0499 27.9957 21.1745 29.8105 23.0414 29.8114C25.2855 29.8125 27.5297 29.8151 29.7738 29.8063C30.0004 29.8055 30.0876 29.8505 30.0662 30.0924C30.0389 30.4005 30.1679 30.8184 30.0111 30.9938C29.8311 31.1952 29.4065 31.0552 29.089 31.056C26.9903 31.0611 24.8916 31.0611 22.793 31.0561C22.411 31.0635 22.0325 30.9823 21.6871 30.819C20.6609 30.1149 20.0886 29.1351 19.9127 27.9109C19.836 27.3538 19.8938 26.7864 20.0812 26.2561Z" fill="#4B73F3"/>
<path d="M10.1699 3.44125C10.3038 3.42088 10.4406 3.43059 10.5703 3.46967C10.7 3.50875 10.8194 3.57622 10.9197 3.66718C11.1295 3.84021 11.3192 3.85045 11.5312 3.67308C11.652 3.57382 11.7929 3.50186 11.9442 3.46213C12.0955 3.42241 12.2535 3.41587 12.4076 3.44294C12.5573 3.46314 12.6493 3.50167 12.5538 3.69947C12.4232 3.9545 12.3579 4.23788 12.3637 4.52431C12.3694 4.81073 12.446 5.09127 12.5867 5.34086C12.6138 5.3886 12.6273 5.44281 12.6259 5.49768C12.6245 5.55256 12.6082 5.60601 12.5787 5.6523C12.1624 6.52673 12.3762 7.4324 13.1494 8.00013C13.3239 8.12822 13.3296 8.24109 13.2624 8.41031C13.0645 8.90855 12.4972 9.21125 12.0018 9.08257C11.8738 9.04931 11.7996 9.01158 11.7833 8.84514C11.6869 7.86304 11.0058 7.20563 10.0179 7.11771C9.92442 7.10939 9.84069 7.11738 9.78133 7.01309C9.54459 6.59718 9.16309 6.3563 8.73544 6.17571C8.61707 5.73213 8.85114 5.37208 9.15097 5.15734C9.53586 4.88167 9.67178 4.54893 9.73741 4.11973C9.77914 3.84675 9.89175 3.5816 10.1699 3.44125Z" fill="#F08300"/>
<path d="M5.05717 12.2335C5.43249 12.6016 5.87006 12.8365 6.40613 12.8466C6.45127 12.8479 6.49523 12.8614 6.53332 12.8856C6.5714 12.9099 6.60218 12.9441 6.62239 12.9845C7.24189 13.8372 8.02013 14.0553 9.02206 13.6494C9.06557 13.6243 9.11658 13.6156 9.16596 13.6247C9.21533 13.6338 9.25985 13.6602 9.29153 13.6992C9.70042 14.0941 9.70104 14.8516 9.29252 15.2467C9.26102 15.2858 9.2166 15.3125 9.16723 15.3219C9.11786 15.3312 9.06677 15.3227 9.02311 15.2978C8.01961 14.8928 7.24193 15.1101 6.62285 15.9607C6.6025 16.0011 6.57162 16.0352 6.53346 16.0594C6.49531 16.0837 6.45131 16.0972 6.40612 16.0985C5.86964 16.1081 5.43348 16.3457 5.05727 16.7117C4.92409 16.5589 4.91061 16.3701 4.9209 16.1846C4.93074 16.1138 4.91831 16.0417 4.88534 15.9783C4.85237 15.9149 4.80049 15.8633 4.73689 15.8307C3.63741 15.1361 3.63743 13.8064 4.73692 13.1139C4.80066 13.0816 4.85268 13.0302 4.8857 12.9668C4.91872 12.9034 4.93109 12.8313 4.92106 12.7605C4.91016 12.5751 4.9238 12.3862 5.05717 12.2335Z" fill="#F08300"/>
<path d="M11.1812 28.3194C11.3093 27.9916 11.363 27.6396 11.3387 27.2886C11.3143 26.9375 11.2124 26.5963 11.0403 26.2894C11.007 26.2278 10.9334 26.1618 11.0159 26.1015C11.0957 26.0431 11.1926 25.9636 11.299 26.0221C11.6051 26.1981 11.9558 26.2815 12.3083 26.262C12.4342 26.2542 12.4262 26.3687 12.4462 26.4347C13.0403 28.3915 11.7902 30.6042 9.68178 30.9997C9.40627 31.0455 9.12706 31.0652 8.84785 31.0586C6.73173 31.0555 4.6156 31.0521 2.49948 31.0484C2.28334 30.5751 2.41257 30.3459 2.90878 30.3448C4.82736 30.3406 6.74598 30.3506 8.66451 30.3407C10.1284 30.3332 10.7955 29.4684 11.194 28.3791C11.2001 28.3622 11.1877 28.3393 11.1812 28.3194Z" fill="#4B73F3"/>
<path d="M25.0099 27.8163C26.1209 27.8163 27.2322 27.8282 28.3428 27.8082C28.6327 27.803 28.7011 27.8946 28.6761 28.1581C28.6604 28.386 28.6597 28.6148 28.6738 28.8429C28.6794 28.9931 28.6474 29.0672 28.4713 29.0667C26.5815 29.0611 24.6914 29.083 22.8021 29.0516C22.1779 29.0412 21.7385 28.6495 21.4662 28.0868C21.3722 27.8923 21.3858 27.8074 21.6457 27.8105C22.7669 27.824 23.8884 27.8163 25.0099 27.8163Z" fill="#81F4E1"/>
<path d="M11.1812 28.3194C11.2468 28.7568 11.0005 29.0955 10.7744 29.4093C10.2554 30.1292 9.52047 30.442 8.63324 30.4379C6.74636 30.4291 4.85941 30.4339 2.9725 30.436C2.4436 30.4366 2.50551 30.3746 2.50021 30.8929C2.49968 30.9447 2.4997 30.9966 2.49947 31.0484C1.87665 31.0811 1.87665 31.0811 1.87665 30.464C1.87665 29.8117 1.87665 29.8117 2.5366 29.8117C4.62148 29.8117 6.7064 29.8055 8.79124 29.8141C9.91017 29.8188 10.7124 29.3418 11.1812 28.3194Z" fill="#4B73F3"/>
<path d="M3.93426 29.053C3.26269 29.0886 3.26269 29.0886 3.2627 28.4151C3.2627 27.8163 3.26269 27.8163 3.86048 27.8163C5.97384 27.8163 8.0872 27.8163 10.2006 27.8163C10.5991 27.8164 10.6125 27.837 10.4176 28.1962C10.3639 28.2822 10.3045 28.3645 10.2398 28.4426C10.0711 28.5449 9.8835 28.5391 9.69628 28.5391C8.00556 28.5388 6.31485 28.5388 4.62414 28.5389C4.1377 28.539 4.13772 28.5394 3.98824 28.9778C3.97512 29.006 3.95681 29.0315 3.93426 29.053Z" fill="#81F4E1"/>
<path d="M16.718 2.68306C16.704 2.71638 16.6821 2.74575 16.6541 2.76858C16.6261 2.79142 16.5929 2.80701 16.5575 2.81398C16.3574 2.86803 16.1718 2.96573 16.014 3.10008C15.8562 3.23442 15.7301 3.40206 15.6448 3.59094C15.5799 3.72864 15.4798 3.74699 15.3449 3.75015C14.3989 3.77229 13.8409 4.26586 13.7385 5.20443C13.7154 5.49635 13.8002 5.78661 13.9769 6.02018C14.0915 6.18053 14.08 6.29963 13.9778 6.46492C13.7856 6.77572 13.6672 7.11453 13.7798 7.49058C13.6286 7.43013 13.4934 7.33572 13.3845 7.21465C13.2757 7.09357 13.1962 6.94909 13.1521 6.79236C13.108 6.63563 13.1006 6.47087 13.1304 6.31081C13.1601 6.15075 13.2263 5.99969 13.3238 5.86931C13.5197 5.59816 13.5281 5.38994 13.3267 5.12024C13.0476 4.74659 13.0379 4.32992 13.2777 3.92643C13.5171 3.52338 13.8912 3.32917 14.3495 3.38641C14.6597 3.42516 14.8248 3.34321 14.9523 3.056C15.2804 2.31695 16.0968 2.15355 16.718 2.68306Z" fill="#4B73F3"/>
<path d="M24.5073 16.1661C24.3683 16.3386 24.1349 16.3115 23.9629 16.427C23.7339 16.5691 23.5496 16.773 23.4312 17.0151C23.3604 17.1689 23.258 17.2156 23.092 17.22C21.7816 17.2545 21.127 18.4493 21.7974 19.5734C21.8282 19.6251 21.9082 19.6817 21.8682 19.7328C21.5984 20.0774 21.5605 20.5027 21.4451 20.9009C21.3107 20.8291 21.1935 20.729 21.1016 20.6075C21.0096 20.486 20.9451 20.3461 20.9125 20.1973C20.8799 20.0485 20.8799 19.8943 20.9126 19.7455C20.9453 19.5967 21.0098 19.4568 21.1018 19.3354C21.2955 19.0649 21.3079 18.8642 21.105 18.5929C20.8207 18.2127 20.8131 17.791 21.0682 17.3787C21.1755 17.1876 21.3398 17.0348 21.5382 16.9417C21.7366 16.8486 21.9591 16.8198 22.1747 16.8593C22.4685 16.8999 22.6051 16.7895 22.7189 16.5365C23.0574 15.7838 23.8895 15.6182 24.5073 16.1661Z" fill="#F08300"/>
<path d="M8.99187 7.23389C8.47834 7.3634 8.06024 7.6197 7.82877 8.11854C7.77378 8.23706 7.67678 8.24122 7.56964 8.23733C7.28979 8.21813 7.01018 8.27824 6.76294 8.41076C6.5157 8.54328 6.31084 8.74283 6.17188 8.98651C6.03292 9.23019 5.9655 9.50812 5.97734 9.78839C5.98919 10.0687 6.07984 10.3399 6.23887 10.571C6.3054 10.6654 6.33449 10.7615 6.26134 10.8558C6.00288 11.189 5.96902 11.5742 5.98931 11.9737C5.34538 11.6607 5.13388 10.9022 5.56108 10.3365C5.75897 10.0745 5.75398 9.88341 5.55878 9.62399C5.42561 9.45613 5.34814 9.2509 5.33717 9.03691C5.32619 8.82292 5.38226 8.61084 5.49755 8.43024C5.73547 8.01851 6.1174 7.80966 6.59107 7.8778C6.9113 7.92387 7.0635 7.81118 7.18095 7.53168C7.48904 6.79853 8.49422 6.62343 8.99187 7.23389Z" fill="#4B73F3"/>
<path d="M24.5072 7.18449C24.4907 7.21641 24.4668 7.24384 24.4374 7.26443C24.4079 7.28502 24.374 7.29815 24.3383 7.30269C23.9603 7.39733 23.647 7.60224 23.4805 7.95463C23.366 8.197 23.2093 8.23711 22.9695 8.24326C22.1509 8.26425 21.4759 8.9895 21.5218 9.78575C21.5264 10.0663 21.6175 10.3386 21.7825 10.5654C21.8714 10.6794 21.8784 10.7591 21.7924 10.8882C21.6136 11.1441 21.5178 11.4487 21.5179 11.7608C21.5221 11.7917 21.5176 11.8231 21.5049 11.8515C21.4921 11.8799 21.4716 11.9041 21.4457 11.9214C21.3113 11.8497 21.1941 11.7495 21.1022 11.6279C21.0104 11.5062 20.9461 11.3661 20.9138 11.2171C20.8815 11.0682 20.8821 10.914 20.9153 10.7653C20.9486 10.6165 21.0139 10.4768 21.1065 10.3558C21.3005 10.0846 21.3063 9.88119 21.1062 9.6122C20.8221 9.23056 20.8162 8.80999 21.0711 8.3988C21.1786 8.20785 21.3431 8.05532 21.5417 7.96256C21.7402 7.86981 21.9627 7.84147 22.1782 7.88152C22.4726 7.9231 22.6075 7.81131 22.7212 7.55902C23.0605 6.80642 23.886 6.64003 24.5072 7.18449Z" fill="#4B73F3"/>
<path d="M8.9919 16.213C8.47849 16.3425 8.06038 16.5987 7.82893 17.0975C7.77399 17.2159 7.67719 17.2204 7.56998 17.2165C7.29018 17.1972 7.01061 17.2573 6.76338 17.3897C6.51614 17.5221 6.31125 17.7216 6.17222 17.9651C6.03318 18.2087 5.96564 18.4866 5.97735 18.7668C5.98906 19.047 6.07953 19.3183 6.2384 19.5494C6.30474 19.6437 6.33495 19.7398 6.26189 19.8342C6.00392 20.1674 5.96805 20.5519 5.98969 20.9517C5.34713 20.6401 5.13565 19.8801 5.56241 19.3143C5.76065 19.0515 5.75213 18.8604 5.55781 18.6018C5.28007 18.2322 5.26722 17.8078 5.49805 17.4081C5.72873 17.0086 6.10073 16.7916 6.56114 16.8556C6.90653 16.9036 7.05863 16.7841 7.19575 16.4825C7.52931 15.7489 8.51234 15.6251 8.9919 16.213Z" fill="#4B73F3"/>
<path d="M3.9342 29.053C3.93449 28.4399 3.93449 28.4396 4.53448 28.4399C6.43624 28.4407 8.33801 28.4416 10.2398 28.4426C9.91246 28.8801 9.46718 29.0656 8.93002 29.064C7.26475 29.059 5.59948 29.0553 3.9342 29.053Z" fill="#81F4E1"/>
<path d="M19.7072 19.8458C19.3651 20.2076 19.1657 20.6276 19.2237 21.1343C19.2393 21.2703 19.1633 21.2921 19.0833 21.3323C17.9132 21.9197 17.955 23.4381 19.0393 24.0192C19.1203 24.0627 19.2172 24.0952 19.2103 24.2145C19.1821 24.7032 19.3583 25.1221 19.6474 25.503C19.0154 25.4836 18.5122 24.9239 18.6063 24.3001C18.6535 23.9876 18.5659 23.8167 18.2788 23.6967C18.0724 23.6206 17.8954 23.4812 17.773 23.2985C17.6506 23.1157 17.589 22.899 17.5971 22.6792C17.5967 22.2021 17.84 21.8483 18.2794 21.661C18.5491 21.546 18.6569 21.3956 18.6079 21.0894C18.5017 20.4252 19.0141 19.8624 19.7072 19.8458Z" fill="#F08300"/>
<path d="M13.2608 28.1982C13.3911 27.5185 13.3452 26.8168 13.1274 26.1599C13.0895 26.0394 13.1787 26.0091 13.2389 25.9704C13.7861 25.6195 14.0416 25.1022 14.0916 24.4731C14.1026 24.3339 14.1667 24.2503 14.2807 24.2256C14.4447 24.1901 14.4134 24.3563 14.4385 24.4345C14.8571 25.7408 14.3382 27.4527 13.2608 28.1982Z" fill="#81F4E1"/>
<path d="M5.05715 12.2335C5.05126 12.4784 4.94564 12.716 5.01436 12.9678C5.04457 13.0785 4.93264 13.0977 4.864 13.1325C4.3194 13.4085 4.01223 13.8504 4.00224 14.4592C3.99194 15.0863 4.30975 15.5333 4.86629 15.8091C4.98525 15.868 5.03753 15.9278 5.00115 16.0698C4.94575 16.2862 5.05886 16.4955 5.05724 16.7117C4.96812 16.8204 4.91403 17.0358 4.79324 17.022C4.61936 17.0021 4.54302 16.7973 4.4739 16.636C4.38088 16.4378 4.35423 16.2149 4.39788 16.0003C4.4128 15.953 4.4181 15.9032 4.41347 15.8538C4.40883 15.8044 4.39436 15.7565 4.3709 15.7128C4.34744 15.6691 4.31547 15.6305 4.27687 15.5993C4.23827 15.5682 4.19383 15.5451 4.14616 15.5313C3.66159 15.3433 3.38192 14.9916 3.38153 14.4737C3.38114 13.9555 3.66149 13.6039 4.14563 13.4157C4.19312 13.4016 4.23737 13.3784 4.27583 13.3472C4.3143 13.316 4.34622 13.2775 4.36976 13.2339C4.39329 13.1904 4.40799 13.1426 4.41299 13.0933C4.41799 13.044 4.41321 12.9943 4.39891 12.9468C4.33452 12.6216 4.42535 12.3364 4.60951 12.0688C4.73854 11.8814 4.84394 11.8531 4.95085 12.0834C4.98153 12.1366 5.01712 12.1869 5.05715 12.2335Z" fill="#F08300"/>
<path d="M20.0812 26.2561C20.1857 26.4652 20.0371 26.6495 20.0132 26.8443C19.8176 28.4329 20.3633 29.7006 21.6218 30.6738C21.6685 30.7099 21.7846 30.7171 21.6872 30.819C20.3939 30.3323 19.6723 29.3737 19.3989 28.0456C19.2989 27.5601 19.342 27.0827 19.4482 26.601C19.5027 26.3537 19.5813 26.2033 19.8641 26.2573C19.9363 26.2641 20.0091 26.2637 20.0812 26.2561Z" fill="#4B73F3"/>
<path d="M18.5818 27.5034C18.6026 27.7185 18.6802 27.9282 18.6398 28.1643C18.5158 28.1528 18.4547 28.0508 18.3838 27.9745C17.4585 26.9787 17.1469 25.8184 17.4765 24.4973C17.5007 24.4003 17.4746 24.2052 17.6499 24.221C17.7993 24.2345 17.8385 24.3687 17.8502 24.5224C17.8768 24.7255 17.9161 24.9266 17.968 25.1247C18.034 25.3307 18.0684 25.5456 18.0698 25.7619C18.1152 26.3803 18.3735 26.9341 18.5818 27.5034Z" fill="#81F4E1"/>
<path d="M8.73546 22.7686C8.75635 23.026 8.84094 23.2742 8.98163 23.4908C9.12232 23.7074 9.31468 23.8855 9.54138 24.0093C9.62896 24.0594 9.74033 24.0874 9.73271 24.2217C9.70508 24.7081 9.88348 25.1241 10.1697 25.5034C10.0176 25.5003 9.868 25.4649 9.73072 25.3995C9.59344 25.3341 9.47166 25.2402 9.37347 25.1241C9.27529 25.008 9.20296 24.8723 9.16128 24.7261C9.11961 24.5798 9.10955 24.4264 9.13177 24.2759C9.18187 23.9718 9.07638 23.8144 8.81058 23.7002C8.40505 23.5259 8.21311 23.2603 8.15735 22.8467C8.35001 22.8204 8.54271 22.7944 8.73546 22.7686Z" fill="#F08300"/>
<path d="M10.1699 3.44125C9.88684 3.79884 9.71963 4.19933 9.73604 4.66155C9.74071 4.71743 9.727 4.7733 9.69699 4.82067C9.66698 4.86804 9.62233 4.90431 9.56981 4.92396C9.0674 5.18974 8.80203 5.61743 8.73545 6.17571L8.14288 6.09615C8.16579 5.9067 8.24017 5.72715 8.35796 5.57701C8.47575 5.42687 8.63243 5.31187 8.81098 5.24453C9.07817 5.13276 9.18125 4.97229 9.13137 4.66847C9.10924 4.51801 9.11939 4.36457 9.16115 4.21834C9.2029 4.07211 9.2753 3.93645 9.37354 3.82036C9.47178 3.70428 9.5936 3.61043 9.73091 3.54507C9.86821 3.4797 10.0179 3.44431 10.1699 3.44125Z" fill="#F08300"/>
<path d="M19.1244 1.12764C19.2891 1.58949 19.3609 2.07933 19.3357 2.56902C19.3377 2.5998 19.3319 2.63058 19.3189 2.65853C19.3059 2.68648 19.286 2.71072 19.2612 2.729C19.0169 2.90306 18.4052 2.87558 18.1465 2.68803C18.0555 2.62211 18.1039 2.56901 18.1291 2.50458C18.3383 1.96838 18.6809 1.49444 19.1244 1.12764Z" fill="#81F4E1"/>
<path d="M12.8119 1.12312C13.2416 1.48512 13.5789 1.94422 13.796 2.46244C13.8599 2.61341 13.8476 2.67161 13.6878 2.72922C13.4049 2.83128 13.1535 2.98574 12.8291 2.78606C12.6774 2.69267 12.5975 2.63975 12.5975 2.45602C12.5942 2.00288 12.6667 1.55236 12.8119 1.12312Z" fill="#81F4E1"/>
<path d="M27.9568 10.3143C28.2457 10.358 28.5684 10.3538 28.8792 10.4457C29.0353 10.4919 29.1315 10.5208 28.9616 10.6899C28.6687 10.9825 28.3311 11.2265 27.9614 11.4128C27.9058 11.4408 27.8542 11.4893 27.7651 11.4391C27.4731 11.2746 27.2234 10.8132 27.2564 10.4742C27.266 10.3747 27.3226 10.3617 27.4022 10.3568C27.5781 10.3459 27.7536 10.3302 27.9568 10.3143Z" fill="#81F4E1"/>
<path d="M7.41451 5.87201C7.49707 6.28305 7.12668 6.45745 6.86823 6.70138C6.78046 6.78422 6.74747 6.6893 6.70429 6.6373C6.3761 6.22564 6.13841 5.7494 6.00676 5.23966C5.97368 5.12346 5.96747 5.04608 6.15099 5.09451C6.54806 5.20323 6.92778 5.36748 7.27891 5.58239C7.36885 5.63603 7.45407 5.70031 7.41451 5.87201Z" fill="#81F4E1"/>
<path d="M5.97974 23.8874C6.08853 23.297 6.34304 22.7431 6.72015 22.2759C6.74562 22.2431 6.76608 22.2077 6.81613 22.2132C6.86258 22.2183 7.35677 22.7062 7.36391 22.7554C7.44179 23.2931 7.44096 23.2915 6.95056 23.5433C6.6432 23.6996 6.31687 23.8152 5.97974 23.8874Z" fill="#81F4E1"/>
<path d="M24.528 23.0441C24.4258 22.6388 24.8282 22.4865 25.0796 22.2382C25.1427 22.1758 25.1832 22.235 25.2247 22.2866C25.5569 22.7079 25.798 23.1937 25.9327 23.713C25.9561 23.7979 25.9894 23.9013 25.8087 23.8545C25.3911 23.7443 24.9929 23.5705 24.6282 23.339C24.5416 23.2848 24.4917 23.2148 24.528 23.0441Z" fill="#81F4E1"/>
<path d="M25.9643 5.0593C25.8454 5.65003 25.5878 6.20402 25.2126 6.67553C25.1852 6.71059 25.159 6.73727 25.1128 6.73019C24.8748 6.69375 24.4347 5.94997 24.5187 5.72354C24.5495 5.64057 24.6272 5.60346 24.6976 5.56083C25.0865 5.3193 25.5155 5.14943 25.9643 5.0593Z" fill="#81F4E1"/>
<path d="M4.55922 11.1101C4.02062 11.5113 4.02281 11.5082 3.46492 11.1072C3.28272 10.9722 3.11155 10.823 2.95306 10.6609C2.85486 10.5634 2.83983 10.5149 3.00545 10.4656C3.51199 10.3261 4.04126 10.2891 4.56228 10.3566C4.68074 10.3689 4.69251 10.4347 4.67256 10.527C4.6531 10.6171 4.63093 10.7066 4.60995 10.7963C4.55523 10.8948 4.62465 11.0133 4.55922 11.1101Z" fill="#81F4E1"/>
<path d="M27.3785 17.8345C27.916 17.4337 27.9135 17.4372 28.4739 17.8372C28.6559 17.9725 28.8271 18.1218 28.986 18.2837C29.086 18.3816 29.0964 18.4297 28.9321 18.4786C28.4252 18.6175 27.8959 18.6547 27.3746 18.5881C27.255 18.5761 27.2455 18.5089 27.2649 18.4177C27.284 18.3274 27.3066 18.238 27.3278 18.1482C27.3825 18.0498 27.3131 17.9312 27.3785 17.8345Z" fill="#81F4E1"/>
<path d="M3.97701 18.6289C3.68356 18.5815 3.35344 18.5859 3.03241 18.489C2.83534 18.4295 2.85513 18.3806 2.97519 18.2586C3.24068 17.9841 3.54916 17.7547 3.88848 17.5795C4.11587 17.4638 4.5053 17.6523 4.55756 17.9068C4.56165 17.9267 4.55559 17.9486 4.55901 17.9687C4.67064 18.626 4.67074 18.626 3.97701 18.6289Z" fill="#81F4E1"/>
<path d="M23.1496 13.7665C23.0387 13.9445 22.9712 14.146 22.9526 14.3548C22.9339 14.5637 22.9646 14.774 23.0422 14.9688C23.063 15.0469 23.0753 15.1271 23.0788 15.2078C22.8086 15.4332 22.6416 15.2946 22.4986 15.048C22.3979 14.8909 22.3403 14.71 22.3316 14.5236C22.3229 14.3371 22.3634 14.1517 22.449 13.9858C22.645 13.5864 22.7223 13.5625 23.1496 13.7665Z" fill="#F08300"/>
<path d="M18.5819 27.5034C18.0845 26.786 17.9485 25.9754 17.968 25.1247C18.1601 25.4683 18.3771 25.7909 18.7307 25.991C18.8411 26.0535 18.814 26.126 18.7844 26.2232C18.6576 26.6398 18.6235 27.0725 18.5819 27.5034Z" fill="#81F4E1"/>
<path d="M19.162 7.67514C19.3108 7.77543 19.195 7.91405 19.2064 8.03201C19.2384 8.43655 19.4162 8.81569 19.7069 9.09887C19.5415 9.10711 19.3765 9.07484 19.2264 9.00487C19.0763 8.9349 18.9455 8.82935 18.8454 8.69737C18.5607 8.35684 18.582 8.19469 18.9166 7.91012C19.0027 7.83689 19.0804 7.75374 19.162 7.67514Z" fill="#F08300"/>
<path d="M19.648 3.44264C19.5756 3.56087 19.4288 3.64094 19.459 3.81168C19.2551 3.46987 19.2553 3.46936 19.648 3.44264Z" fill="#F08300"/>
<path d="M27.3785 17.8345C27.3665 17.9399 27.4168 18.0553 27.3278 18.1482C27.3339 18.0419 27.2628 17.9231 27.3785 17.8345Z" fill="#81F4E1"/>
<path d="M4.55921 11.1101C4.5713 11.0047 4.52076 10.8892 4.60993 10.7963C4.60384 10.9026 4.67491 11.0215 4.55921 11.1101Z" fill="#81F4E1"/>
<path d="M17.3405 5.49279C17.3342 5.85742 17.1855 6.20511 16.9261 6.46147C16.6667 6.71783 16.3173 6.8625 15.9527 6.86454C15.5935 6.85401 15.2521 6.70542 14.9997 6.44967C14.7472 6.19392 14.6031 5.85071 14.5972 5.49139C14.6033 5.12679 14.7521 4.7791 15.0116 4.52297C15.2712 4.26684 15.6208 4.12268 15.9855 4.12143C16.3446 4.13097 16.6862 4.27901 16.9388 4.5346C17.1913 4.79019 17.3353 5.13352 17.3405 5.49279Z" fill="#2B2D54"/>
<path d="M22.3885 18.9424C22.3886 18.7635 22.4241 18.5864 22.4931 18.4213C22.5621 18.2562 22.6631 18.1064 22.7904 17.9807C22.9176 17.8549 23.0686 17.7557 23.2345 17.6887C23.4004 17.6217 23.5779 17.5882 23.7568 17.5903C24.1174 17.6 24.4603 17.7486 24.714 18.0051C24.9676 18.2615 25.1123 18.6061 25.118 18.9668C25.11 19.3329 24.9586 19.6812 24.6964 19.9368C24.4341 20.1924 24.0821 20.3349 23.7159 20.3335C22.9613 20.3212 22.3841 19.7163 22.3885 18.9424Z" fill="#2B2D54"/>
<path d="M9.5492 9.97362C9.55279 10.1525 9.52086 10.3304 9.45526 10.4969C9.38966 10.6634 9.29169 10.8153 9.16701 10.9436C9.04234 11.072 8.89344 11.1744 8.72893 11.2449C8.56443 11.3153 8.38758 11.3525 8.20863 11.3541C7.84264 11.3514 7.49227 11.2055 7.23252 10.9476C6.97278 10.6897 6.82429 10.3405 6.81885 9.9745C6.82759 9.61365 6.97561 9.27019 7.2319 9.01603C7.4882 8.76187 7.8329 8.61673 8.1938 8.61102C8.37272 8.60987 8.55008 8.64439 8.71551 8.71255C8.88094 8.78071 9.03114 8.88115 9.15732 9.008C9.28351 9.13486 9.38315 9.28558 9.45043 9.45138C9.51772 9.61717 9.55129 9.79471 9.5492 9.97362Z" fill="#2B2D54"/>
<path d="M9.54916 18.9718C9.55009 19.1507 9.51558 19.328 9.4476 19.4935C9.37963 19.659 9.27955 19.8094 9.15313 19.936C9.02671 20.0626 8.87647 20.1628 8.71107 20.231C8.54568 20.2992 8.36841 20.334 8.18952 20.3333C7.82885 20.3258 7.48499 20.1794 7.22958 19.9246C6.97418 19.6698 6.82693 19.3264 6.81853 18.9657C6.81202 18.2234 7.46134 17.5828 8.21286 17.5902C8.39179 17.5916 8.56865 17.6286 8.73311 17.6991C8.89757 17.7696 9.04635 17.8722 9.17074 18.0008C9.29514 18.1294 9.39267 18.2815 9.45764 18.4482C9.52261 18.615 9.55372 18.793 9.54916 18.9718Z" fill="#2B2D54"/>
<path d="M23.746 8.61119C24.1067 8.61802 24.4508 8.76388 24.7065 9.01835C24.9621 9.27281 25.1096 9.61619 25.1182 9.97682C25.1265 10.7187 24.4778 11.3609 23.7267 11.3544C23.5477 11.353 23.3709 11.3161 23.2064 11.2457C23.0419 11.1754 22.893 11.073 22.7685 10.9445C22.6439 10.816 22.5462 10.6641 22.481 10.4975C22.4157 10.3309 22.3843 10.1529 22.3885 9.97407C22.387 9.79512 22.421 9.61764 22.4886 9.45194C22.5562 9.28624 22.656 9.13563 22.7823 9.00883C22.9086 8.88204 23.0589 8.7816 23.2243 8.71334C23.3897 8.64507 23.5671 8.61035 23.746 8.61119Z" fill="#2B2D54"/>
<path d="M15.953 6.11595C15.7921 6.10777 15.6401 6.03912 15.5275 5.92372C15.415 5.80832 15.3501 5.65469 15.3459 5.49354C15.3497 5.32702 15.4185 5.16858 15.5376 5.0521C15.6567 4.93562 15.8166 4.87034 15.9831 4.87021C16.1441 4.87825 16.296 4.94663 16.4088 5.06171C16.5216 5.17679 16.5869 5.33014 16.5916 5.49119C16.5867 5.65771 16.5174 5.81584 16.3983 5.93234C16.2792 6.04884 16.1196 6.11466 15.953 6.11595Z" fill="#F08300"/>
<path d="M23.1346 18.9483C23.1348 18.8677 23.1509 18.788 23.182 18.7138C23.2131 18.6395 23.2587 18.5721 23.3159 18.5154C23.3732 18.4588 23.4411 18.4141 23.5157 18.3838C23.5904 18.3535 23.6703 18.3383 23.7508 18.339C23.9132 18.3453 24.0671 18.4129 24.1817 18.5281C24.2963 18.6433 24.363 18.7977 24.3684 18.9601C24.3638 19.1278 24.2936 19.2871 24.1729 19.4038C24.0523 19.5205 23.8908 19.5853 23.7229 19.5843C23.6423 19.5818 23.5631 19.5632 23.4897 19.5298C23.4164 19.4963 23.3504 19.4486 23.2957 19.3894C23.2409 19.3302 23.1985 19.2608 23.1708 19.185C23.1432 19.1093 23.1308 19.0288 23.1346 18.9483Z" fill="#F08300"/>
<path d="M8.80311 9.99008C8.8035 10.0706 8.78799 10.1505 8.75748 10.2251C8.72696 10.2996 8.68203 10.3674 8.62526 10.4246C8.5685 10.4818 8.50101 10.5272 8.42667 10.5582C8.35233 10.5893 8.27259 10.6053 8.19203 10.6055C8.02959 10.6003 7.87511 10.534 7.75944 10.4198C7.64376 10.3057 7.57541 10.1521 7.56805 9.98974C7.57172 9.82198 7.64071 9.66228 7.76035 9.54462C7.87998 9.42697 8.04081 9.36065 8.2086 9.35979C8.28919 9.36161 8.36861 9.37942 8.44226 9.41218C8.51591 9.44495 8.58231 9.49201 8.63762 9.55065C8.69293 9.60929 8.73604 9.67833 8.76445 9.75376C8.79285 9.8292 8.80599 9.90952 8.80311 9.99008Z" fill="#F08300"/>
<path d="M8.80323 18.9498C8.80637 19.033 8.79249 19.116 8.76245 19.1936C8.7324 19.2713 8.68682 19.342 8.6285 19.4014C8.57018 19.4608 8.50034 19.5077 8.42326 19.5392C8.34619 19.5707 8.26349 19.5861 8.18025 19.5845C8.018 19.5761 7.86489 19.5068 7.75141 19.3905C7.63794 19.2742 7.57243 19.1195 7.56793 18.9571C7.57465 18.7947 7.64236 18.6409 7.75752 18.5263C7.87269 18.4117 8.02684 18.3447 8.18921 18.3388C8.2698 18.3381 8.34972 18.3533 8.42435 18.3838C8.49898 18.4142 8.56682 18.4591 8.62394 18.516C8.68106 18.5728 8.72633 18.6404 8.75711 18.7149C8.78788 18.7894 8.80356 18.8692 8.80323 18.9498Z" fill="#F08300"/>
<path d="M23.1345 9.9757C23.1339 9.89517 23.1492 9.81531 23.1796 9.74072C23.2099 9.66612 23.2547 9.59826 23.3114 9.54103C23.368 9.4838 23.4354 9.43832 23.5097 9.40722C23.584 9.37612 23.6637 9.36001 23.7442 9.3598C23.9067 9.36426 24.0615 9.43016 24.1773 9.54421C24.2932 9.65827 24.3614 9.812 24.3684 9.9744C24.3654 10.1422 24.2969 10.3022 24.1775 10.4201C24.0581 10.538 23.8973 10.6045 23.7295 10.6054C23.6489 10.6037 23.5695 10.5859 23.4958 10.5532C23.4221 10.5205 23.3557 10.4735 23.3004 10.4149C23.245 10.3563 23.2019 10.2874 23.1734 10.212C23.1449 10.1366 23.1317 10.0562 23.1345 9.9757Z" fill="#F08300"/>
</svg>
