<svg width="32" height="32" viewBox="0 0 32 32" fill="none" xmlns="http://www.w3.org/2000/svg">
<g clip-path="url(#clip0_802_572)">
<path d="M31.2458 18.1474C31.7621 18.3513 31.8764 18.5487 31.7484 19.1049C30.2914 25.4366 26.4525 29.606 20.218 31.3755C11.6158 33.8171 2.6075 28.39 0.561762 19.6743C-1.34299 11.5592 3.18076 3.44083 11.0799 0.80198C12.2473 0.407231 13.4595 0.159853 14.6882 0.065595C14.7446 0.0614208 14.8166 0.0858489 14.8464 0.00598145H16.53C16.671 0.0573506 16.8256 0.0573506 16.9665 0.00598145H17.3406C17.7295 0.142056 18.1422 0.122623 18.5424 0.187101C22.232 0.781591 25.3442 2.44955 27.879 5.19097C29.7324 7.18924 31.0285 9.63923 31.6375 12.2958C31.6826 12.4867 31.718 12.6799 31.7597 12.8716C31.8577 13.3218 31.7749 13.5062 31.3697 13.7358C30.9141 13.9376 30.5406 13.5866 30.4519 13.1368C30.2335 12.0242 29.8871 10.9407 29.4196 9.90773C28.2249 7.31675 26.3044 5.12781 23.8909 3.60604C21.4774 2.08427 18.6745 1.29497 15.8215 1.33376C13.6954 1.37949 11.6045 1.88653 9.69361 2.81982C8.2036 3.54224 6.8485 4.51481 5.68721 5.69525C3.95662 7.45003 2.69606 9.61255 2.0219 11.9831C1.59176 13.4515 1.40395 14.9801 1.46586 16.5089C1.57865 19.4053 2.54749 22.2032 4.24997 24.549C5.95244 26.8949 8.31212 28.6835 11.0308 29.6886C12.6691 30.3023 14.4057 30.6116 16.1552 30.6011C18.0931 30.5934 20.0104 30.2023 21.7965 29.4504C23.9739 28.5286 25.8956 27.0931 27.3973 25.2667C28.8989 23.4404 29.9359 21.2774 30.4195 18.963C30.4709 18.7174 30.5148 18.468 30.718 18.2934C30.8685 18.1641 31.026 18.0369 31.2458 18.1474Z" fill="#2B2D54"/>
<path d="M16.9665 0.00598145C16.9038 0.0538541 16.8271 0.0797882 16.7483 0.0797882C16.6694 0.0797882 16.5927 0.0538541 16.53 0.00598145H16.9665Z" fill="#2B2D54"/>
<path d="M31.3708 16.6022C30.9255 16.5553 30.684 16.3322 30.6847 15.9685C30.6854 15.6013 30.922 15.3831 31.3708 15.3358C31.764 15.4545 31.9305 15.6424 31.9309 15.9682C31.9312 16.2911 31.7638 16.4806 31.3708 16.6022Z" fill="#2B2D54"/>
<path d="M28.6246 15.9953C28.6013 22.9287 22.9286 28.5807 16.0115 28.5622C9.069 28.5436 3.40234 22.848 3.43847 15.9248C3.47467 8.98725 9.15338 3.34405 16.0666 3.37562C23.0055 3.40731 28.6478 9.07741 28.6246 15.9953Z" fill="#2B2D54"/>
<path d="M27.378 15.9862C27.324 22.262 22.3048 27.3206 16.0057 27.3057C13.0002 27.299 10.1203 26.0992 7.99911 23.97C5.87789 21.8407 4.68897 18.9563 4.69368 15.9508C4.69839 12.9453 5.89635 10.0646 8.02423 7.94204C10.1521 5.81947 13.0358 4.62869 16.0413 4.63147C22.3463 4.63724 27.3451 9.71773 27.378 15.9862Z" fill="#4B73F3"/>
<path d="M14.3224 19.3729C13.7614 19.7542 13.2073 20.1305 12.6537 20.5074C12.2601 20.7753 11.8668 21.0438 11.474 21.3128C10.7727 21.7942 10.0292 21.8628 9.27304 21.4827C8.50661 21.0974 8.13932 20.4299 8.13463 19.5891C8.1212 17.1788 8.12114 14.7685 8.13444 12.358C8.13896 11.5185 8.49929 10.8488 9.26464 10.4587C10.033 10.0671 10.7806 10.1491 11.4911 10.6368C12.3702 11.2403 13.2588 11.83 14.1333 12.4401C14.3492 12.5908 14.3665 12.5346 14.3832 12.3114C14.4654 11.2078 15.0177 10.5106 16.013 10.2728C16.2852 10.2026 16.5694 10.1919 16.8462 10.2413C17.123 10.2907 17.3859 10.3991 17.6171 10.5592C19.4322 11.7937 21.2512 13.0228 23.0485 14.2828C23.3213 14.4702 23.5445 14.721 23.6991 15.0137C23.8536 15.3064 23.9349 15.6322 23.9359 15.9631C23.9369 16.2941 23.8576 16.6204 23.7049 16.914C23.5521 17.2076 23.3304 17.4597 23.0588 17.6488C21.2617 18.9091 19.4503 20.1489 17.6247 21.3683C16.2802 22.2652 14.5495 21.4031 14.3919 19.7926C14.3792 19.6631 14.4085 19.5245 14.3224 19.3729Z" fill="#2B2D54"/>
<path d="M9.38468 15.9688C9.38462 14.785 9.38043 13.6012 9.38633 12.4175C9.38942 11.7996 9.76448 11.433 10.3221 11.4746C10.477 11.4918 10.6244 11.5506 10.7485 11.6448C12.5025 12.841 14.2594 14.0331 16.0088 15.2362C16.5921 15.6373 16.5925 16.2998 16.009 16.7012C14.2599 17.9044 12.5022 19.0954 10.7495 20.2937C10.4582 20.4928 10.154 20.5335 9.84117 20.3734C9.51189 20.205 9.38444 19.9105 9.38458 19.5512C9.38503 18.3571 9.38507 17.1629 9.38468 15.9688Z" fill="#F08300"/>
<path d="M15.6319 19.0661C15.4781 18.617 15.7669 18.3357 16.1882 18.0861C16.5863 17.8503 16.9871 17.6049 17.2711 17.2159C17.5991 16.7742 17.7396 16.221 17.6621 15.6764C17.5846 15.1318 17.2954 14.6397 16.8573 14.3071C16.5183 14.0521 16.1599 13.823 15.808 13.5855C15.7492 13.5544 15.7007 13.5067 15.6686 13.4484C15.6365 13.3901 15.6222 13.3236 15.6274 13.2573C15.642 12.9673 15.6359 12.6761 15.6306 12.3855C15.6238 12.0225 15.7545 11.7321 16.0832 11.5639C16.4085 11.3974 16.7172 11.4546 17.0172 11.6607C18.3486 12.5752 19.6824 13.4861 21.0188 14.3933C21.4293 14.6735 21.8433 14.9488 22.2492 15.2355C22.8256 15.6427 22.832 16.3003 22.2512 16.6995C20.5019 17.9015 18.745 19.0926 16.9933 20.2912C16.7018 20.4907 16.3987 20.534 16.0858 20.3749C15.7702 20.2144 15.6278 19.9387 15.6316 19.5859C15.6332 19.4406 15.6319 19.2953 15.6319 19.0661Z" fill="#F08300"/>
</g>
<defs>
<clipPath id="clip0_802_572">
<rect width="32" height="32" fill="white"/>
</clipPath>
</defs>
</svg>
