<svg width="32" height="32" viewBox="0 0 32 32" fill="none" xmlns="http://www.w3.org/2000/svg">
<g clip-path="url(#clip0_802_366)">
<path d="M32 12.2169C31.8566 12.6293 31.8494 13.068 31.7578 13.4916C31.2933 15.6214 30.2202 17.5671 28.6711 19.0881C27.122 20.6092 25.1649 21.6389 23.0418 22.0499C19.9202 22.6467 17.0451 22.0286 14.4239 20.2178C14.2912 20.1261 14.2123 20.0811 14.07 20.2283C13.4813 20.8371 12.8772 21.4309 12.2714 22.0225C12.22 22.0624 12.1839 22.119 12.1692 22.1826C12.1545 22.2463 12.1621 22.3131 12.1908 22.3718C12.3709 22.9227 12.2795 23.4375 11.8669 23.8526C10.2674 25.4618 8.65794 27.061 7.05511 28.6669C6.82313 28.8993 6.58731 28.9019 6.3303 28.7249C6.11182 28.5268 6.07842 28.3376 6.22322 28.098C6.30661 27.9774 6.40399 27.8674 6.51329 27.7703C7.9683 26.3019 9.42352 24.8337 10.879 23.3658C10.9598 23.2842 11.0435 23.2054 11.1166 23.1165C11.2734 22.9259 11.2786 22.7268 11.1107 22.5495C10.5795 21.9884 10.0371 21.4379 9.47873 20.9044C9.2686 20.7037 9.06256 20.7229 8.83743 20.9159C8.7582 20.9839 8.6899 21.0636 8.6164 21.1377C6.14402 23.5413 3.72777 26.0021 1.30052 28.4516C0.945315 28.8101 0.947066 28.9578 1.3 29.3158C1.71828 29.7401 2.13638 30.1645 2.56019 30.5832C2.62003 30.6416 2.67456 30.7055 2.73796 30.76C3.02025 31.0029 3.23204 30.9981 3.50452 30.7392C3.92059 30.3438 4.28831 29.897 4.74932 29.5494C5.02765 29.3396 5.27173 29.3567 5.47104 29.6009C5.65525 29.8824 5.60793 30.1258 5.37035 30.3568C4.97321 30.7429 4.58966 31.1433 4.19346 31.5304C3.54603 32.1631 2.70421 32.1551 2.05896 31.5142C1.53976 30.9985 1.02215 30.4813 0.506121 29.9623C-0.166682 29.2841 -0.170369 28.4481 0.505045 27.7716C3.02395 25.249 5.5446 22.7282 8.06701 20.2091C8.51971 19.7564 9.0472 19.5929 9.65809 19.8179C9.80882 19.8734 9.88341 19.8219 9.97907 19.7257C10.576 19.1253 11.1736 18.5253 11.781 17.9357C11.9118 17.8087 11.8897 17.7268 11.7967 17.5971C10.8525 16.3045 10.2144 14.8109 9.93116 13.2308C9.3268 9.79252 10.1012 6.70083 12.3155 4.01069C13.9944 1.97086 16.1594 0.705294 18.7345 0.207508C24.7806 -0.961233 30.4919 2.92892 31.7562 8.77239C31.8497 9.20495 31.8559 9.65268 32 10.0744V10.5155C31.9747 10.5752 31.9617 10.6396 31.9617 10.7045C31.9617 10.7695 31.9747 10.8338 32 10.8936V11.3977C31.9747 11.4574 31.9617 11.5217 31.9617 11.5867C31.9617 11.6517 31.9747 11.716 32 11.7758L32 12.2169Z" fill="#2B2D54"/>
<path d="M32.0006 10.8936C31.9544 10.8415 31.9288 10.7743 31.9288 10.7046C31.9288 10.6349 31.9544 10.5677 32.0006 10.5156V10.8936Z" fill="#2B2D54"/>
<path d="M32.0006 11.7758C31.9544 11.7237 31.9288 11.6565 31.9288 11.5868C31.9288 11.5171 31.9544 11.4498 32.0006 11.3977V11.7758Z" fill="#F08300"/>
<path d="M8.56025 21.0952C8.62978 21.0181 8.69471 20.9361 8.76967 20.8649C9.03258 20.615 9.28059 20.6038 9.53669 20.8549C10.0814 21.389 10.6201 21.9294 11.1526 22.4761C11.4133 22.7444 11.387 22.9828 11.0809 23.2902C10.0926 24.2828 9.10275 25.2736 8.11124 26.2629C7.55715 26.8174 7.00346 27.3724 6.45015 27.9277C6.14575 28.2341 6.12946 28.3545 6.33026 28.7249C6.04391 29.017 5.75753 29.3091 5.4711 29.601C5.1392 29.3949 4.97697 29.407 4.70185 29.6752C4.36607 30.0026 4.03565 30.3355 3.70351 30.6667C3.19308 31.1756 2.99574 31.1668 2.52545 30.6131C2.54358 30.4874 2.64127 30.4173 2.72072 30.3369C3.63961 29.4078 4.53591 28.4541 5.48588 27.5584C6.83235 26.2888 8.0872 24.927 9.42371 23.6491C9.91523 23.1791 9.95334 22.5274 9.43156 22.0304C9.12432 21.7377 8.78599 21.4678 8.56025 21.0952Z" fill="#4B73F3"/>
<path d="M8.56029 21.0952C8.96377 21.4257 9.3346 21.7947 9.66762 22.1972C10.0451 22.6495 9.98334 23.1775 9.56031 23.6046C8.37645 24.7999 7.21988 26.0246 5.99903 27.1802C4.81605 28.2999 3.7172 29.5039 2.5255 30.6131C2.05671 30.1522 1.58159 29.6977 1.12169 29.228C0.874243 28.9753 0.894986 28.7387 1.1691 28.4627C2.06755 27.5582 2.96822 26.6559 3.87111 25.7559C5.37166 24.2565 6.8729 22.7579 8.37484 21.2599C8.4333 21.2016 8.49833 21.1499 8.56029 21.0952Z" fill="#4B73F3"/>
<path d="M20.6903 21.2896C18.6915 21.2987 16.8624 20.7155 15.2136 19.6011C12.7286 17.9213 11.205 15.5765 10.7824 12.5868C10.0846 7.65024 12.921 3.3353 17.0983 1.68299C18.129 1.2753 19.1907 1.01477 20.3032 0.995097C20.5777 0.943939 20.8609 0.969171 21.1223 1.06809C21.5906 1.23087 22.0425 1.43827 22.4718 1.68746C22.5637 1.73842 22.7837 1.81653 22.5145 1.94917C22.2212 1.99419 21.9342 1.91515 21.6462 1.88904C20.1685 1.75084 18.6797 1.98111 17.3109 2.55957C15.1457 3.46411 13.5117 4.97468 12.4952 7.1008C11.2902 9.6211 11.2055 12.2262 12.3304 14.7825C13.7339 17.9721 16.218 19.8083 19.6426 20.3338C20.5387 20.4591 21.4481 20.4513 22.3419 20.3105C22.4538 20.2946 22.5667 20.2532 22.6763 20.3202C22.7346 20.4783 22.5942 20.5135 22.511 20.5615C21.9393 20.8919 21.3455 21.1699 20.6903 21.2896Z" fill="#F08300"/>
<path d="M20.6903 21.2896C21.3671 20.9986 22.0835 20.7934 22.6908 20.3516C22.7361 20.2135 22.8627 20.2144 22.9707 20.1896C24.6578 19.8105 26.2025 18.9536 27.4235 17.7196C28.9876 16.1566 29.9009 14.2703 30.1153 12.0496C30.3569 9.54662 29.6929 7.30622 28.1433 5.35073C26.7622 3.608 24.957 2.52649 22.7981 2.04315C22.6882 2.01854 22.536 2.05726 22.4979 1.88581C22.5228 1.8659 22.6461 1.86664 22.539 1.81273C21.8257 1.45344 21.1374 1.01929 20.3032 0.995125C20.8629 0.876696 21.4256 0.957278 21.978 1.01893C23.904 1.23386 25.6525 1.92159 27.1759 3.14365C29.2706 4.82402 30.5468 6.98967 30.9474 9.67085C31.7311 14.9167 28.3204 19.9053 23.0695 21.0802C22.2908 21.2664 21.4893 21.3369 20.6903 21.2896Z" fill="#F08300"/>
<path d="M12.51 18.4817C12.8216 18.8006 13.0856 19.0807 13.3617 19.3481C13.4647 19.4478 13.4511 19.5063 13.358 19.5987C12.7736 20.1781 12.1923 20.7608 11.6142 21.3467C11.5153 21.447 11.4503 21.4336 11.3604 21.34C11.1078 21.0772 10.689 20.8504 10.6351 20.554C10.5767 20.2327 11.0601 20.0315 11.296 19.7683C11.6853 19.3341 12.0954 18.9189 12.51 18.4817Z" fill="#F08300"/>
<path d="M22.4979 1.8858C23.2401 2.06886 23.9852 2.24212 24.6816 2.57367C27.6991 4.01038 29.5896 6.34987 30.1235 9.69178C30.9111 14.6209 27.6877 19.2857 22.8659 20.2882C22.8061 20.305 22.7476 20.3262 22.6908 20.3516C21.8869 20.4501 21.0852 20.5363 20.2699 20.4833C18.2596 20.3526 16.4679 19.6571 14.914 18.3758C13.2351 16.9913 12.1159 15.2331 11.6973 13.0743C11.0543 9.75741 11.909 6.86821 14.2834 4.47716C15.8767 2.87269 17.8274 2.01225 20.0731 1.80218C20.8902 1.72575 21.6913 1.81449 22.4979 1.8858Z" fill="#2B2D54"/>
<path d="M25.3179 18.2725C24.3836 18.8992 23.3195 19.3019 22.207 19.4498C19.7451 19.8077 17.498 19.2515 15.5496 17.6696C13.8288 16.2725 12.7955 14.4577 12.5043 12.234C11.9209 7.77814 14.8535 3.97855 18.7169 2.99942C21.0507 2.40793 23.2621 2.71885 25.3237 3.99843C26.3284 4.94166 26.9722 6.12023 27.4362 7.39838C28.3792 9.99619 28.3557 12.597 27.3265 15.1655C26.9286 16.1587 26.414 17.0959 25.705 17.9098C25.5843 18.0395 25.455 18.1606 25.3179 18.2725Z" fill="white"/>
<path d="M25.3179 18.2725C26.0199 17.46 26.606 16.5526 27.0589 15.5765C27.5228 14.5723 27.8227 13.499 27.9469 12.3983C28.1788 10.2987 27.858 8.29754 26.9284 6.40565C26.5373 5.58477 26.0282 4.82665 25.4176 4.15582C25.3808 4.10691 25.3493 4.05415 25.3237 3.99844C27.2664 5.21575 28.5304 6.93814 29.0733 9.18072C29.4811 10.8778 29.3515 12.6611 28.7028 14.28C28.0541 15.899 26.9189 17.2722 25.4567 18.2068C25.4119 18.2317 25.3655 18.2536 25.3179 18.2725Z" fill="white"/>
<path d="M14.9421 9.26219C14.5385 9.14527 14.4524 9.03422 14.45 8.62167C14.4485 8.38024 14.4459 8.13871 14.4507 7.89737C14.4632 7.2593 14.9042 6.80506 15.5336 6.80161C16.7199 6.79511 17.9063 6.79006 19.0925 6.80416C19.8064 6.81265 20.3936 7.11875 20.8651 7.69567C21.4678 6.93783 22.277 6.76549 23.1818 6.79283C24.1591 6.82236 25.138 6.7982 26.1162 6.79994C26.8429 6.80124 27.2736 7.21051 27.2762 7.93641C27.2836 10.0674 27.2837 12.1983 27.2766 14.3293C27.2744 15.054 26.8476 15.4737 26.1226 15.4762C24.6033 15.4815 23.083 15.5084 21.5652 15.4597C21.0926 15.4446 20.6293 15.4477 20.1573 15.4615C18.6497 15.5056 17.14 15.4807 15.631 15.4767C14.8757 15.4747 14.4514 15.043 14.4502 14.2866C14.4484 13.2264 14.4485 12.1661 14.4505 11.1059C14.4514 10.7228 14.5635 10.591 14.9415 10.5051C15.2235 10.4907 15.3937 10.6126 15.4556 10.8782C15.479 11.0127 15.487 11.1494 15.4794 11.2856C15.4807 12.2085 15.4755 13.1313 15.4823 14.0541C15.4847 14.3874 15.5394 14.4467 15.8625 14.4483C17.2139 14.4553 18.5654 14.4553 19.9168 14.4485C20.2365 14.4469 20.2816 14.4015 20.2825 14.0825C20.2873 12.4151 20.2941 10.7477 20.2799 9.08035C20.2741 8.41205 19.7999 7.88391 19.135 7.85631C18.0136 7.80975 16.89 7.84097 15.7674 7.84284C15.5735 7.84316 15.4859 7.93577 15.4817 8.13042C15.4912 8.36098 15.484 8.59193 15.4601 8.82143C15.4066 9.14067 15.2368 9.28121 14.9421 9.26219Z" fill="#2B2D54"/>
<path d="M14.9421 9.26219C15.2836 9.18469 15.3998 8.96622 15.3957 8.62024C15.3853 7.74781 15.3957 7.74768 16.2477 7.74768C17.1429 7.74768 18.0382 7.7462 18.9334 7.7481C19.8468 7.75005 20.3872 8.29165 20.3885 9.21171C20.391 10.8813 20.3849 12.551 20.3942 14.2205C20.3955 14.4525 20.3333 14.5302 20.0989 14.5289C18.6312 14.5203 17.1634 14.5205 15.6956 14.5294C15.4396 14.5312 15.383 14.4354 15.3856 14.196C15.3969 13.1565 15.3857 12.1169 15.3932 11.0773C15.3955 10.751 15.2567 10.5637 14.9415 10.5051C14.9417 10.0908 14.9419 9.67651 14.9421 9.26219Z" fill="#FEF9E4"/>
<path d="M26.3333 11.158C26.3333 12.1762 26.3253 13.1946 26.3388 14.2127C26.3422 14.4681 26.2563 14.531 26.0165 14.5294C24.5596 14.5201 23.1027 14.5202 21.6458 14.5297C21.3961 14.5315 21.3258 14.4506 21.3272 14.2033C21.3366 12.5342 21.3281 10.865 21.3338 9.19594C21.3368 8.30751 21.901 7.75041 22.7852 7.74829C23.8467 7.74576 24.9083 7.75753 25.9696 7.7411C26.2514 7.73673 26.3456 7.80496 26.3403 8.10328C26.322 9.12122 26.3333 10.1397 26.3333 11.158Z" fill="#FEF9E4"/>
<path d="M17.8556 8.75476C18.153 8.75859 18.4416 8.85686 18.6805 9.0356C18.9193 9.21434 19.0963 9.46446 19.1862 9.75043C19.2725 10.0438 19.2607 10.3576 19.1526 10.6435C19.0444 10.9294 18.846 11.1714 18.588 11.3322C18.4445 11.4212 18.332 11.487 18.2969 11.6905C18.2561 11.9264 18.0491 12.0553 17.8021 12.0201C17.6857 12.0114 17.5772 11.9571 17.5 11.8688C17.4228 11.7804 17.383 11.6651 17.3891 11.5475C17.3824 11.3469 17.4347 11.1488 17.5393 10.9781C17.6439 10.8074 17.7963 10.6717 17.9771 10.5881C18.1913 10.4765 18.3305 10.3284 18.2871 10.0717C18.2741 9.98812 18.2366 9.91032 18.1795 9.84834C18.1223 9.78636 18.0481 9.74303 17.9664 9.7239C17.8859 9.69964 17.8 9.7015 17.7206 9.7292C17.6412 9.75689 17.5725 9.80904 17.5241 9.87827C17.4758 9.94663 17.4131 10.0033 17.3404 10.0442C17.2677 10.0851 17.187 10.1092 17.1039 10.1148C16.7452 10.1235 16.5238 9.71475 16.7056 9.3924C16.9094 9.0311 17.4047 8.75646 17.8556 8.75476Z" fill="#2B2D54"/>
<path d="M18.3204 13.0572C18.3172 13.1836 18.265 13.3037 18.1749 13.3916C18.0848 13.4795 17.9641 13.5282 17.8388 13.5272C17.7138 13.5179 17.5971 13.4607 17.5126 13.3674C17.428 13.2741 17.382 13.1517 17.384 13.0253C17.3911 12.9046 17.444 12.7913 17.5316 12.7088C17.6192 12.6263 17.7349 12.5809 17.8548 12.582C17.9167 12.5807 17.9783 12.5921 18.0358 12.6156C18.0933 12.639 18.1454 12.6741 18.189 12.7186C18.2326 12.763 18.2667 12.816 18.2893 12.8742C18.3119 12.9325 18.3225 12.9947 18.3204 13.0572Z" fill="#2B2D54"/>
<path d="M23.8457 12.7609C24.2306 12.7606 24.6156 12.7545 25.0003 12.7624C25.3383 12.7693 25.5149 12.9303 25.5231 13.2161C25.5314 13.5089 25.3399 13.7063 25.0002 13.7104C24.2202 13.7199 23.4401 13.7196 22.6598 13.7095C22.3549 13.7055 22.1424 13.4906 22.1422 13.2316C22.1419 12.9679 22.35 12.7702 22.6599 12.7634C23.055 12.7546 23.4504 12.7613 23.8457 12.7609Z" fill="#2B2D54"/>
<path d="M23.8466 9.51194C23.4721 9.51187 23.0977 9.51536 22.7233 9.5108C22.4095 9.50698 22.204 9.32587 22.1952 9.05727C22.186 8.77441 22.3968 8.56845 22.7239 8.56591C23.4832 8.56003 24.2425 8.55998 25.0018 8.56577C25.3285 8.5682 25.5316 8.76993 25.5231 9.05863C25.5148 9.33993 25.3268 9.50724 25.0011 9.51097C24.6163 9.51536 24.2314 9.51199 23.8466 9.51194Z" fill="#2B2D54"/>
<path d="M23.8727 10.5625C24.2574 10.5625 24.6422 10.5556 25.0267 10.5647C25.3401 10.5722 25.512 10.736 25.5229 11.0104C25.5277 11.0763 25.5186 11.1424 25.4961 11.2044C25.4736 11.2664 25.4383 11.3229 25.3924 11.3701C25.3466 11.4172 25.2913 11.4539 25.2303 11.4778C25.1693 11.5017 25.1039 11.5122 25.0385 11.5086C24.259 11.52 23.4792 11.5203 22.6994 11.5096C22.3908 11.5056 22.19 11.293 22.1951 11.023C22.2001 10.7568 22.4041 10.5703 22.7187 10.5642C23.1033 10.5567 23.488 10.5624 23.8727 10.5625Z" fill="#2B2D54"/>
</g>
<defs>
<clipPath id="clip0_802_366">
<rect width="32" height="32" fill="white"/>
</clipPath>
</defs>
</svg>
