<svg width="32" height="32" viewBox="0 0 32 32" fill="none" xmlns="http://www.w3.org/2000/svg">
<g clip-path="url(#clip0_802_460)">
<path d="M29.4785 14.4659C29.4363 14.9259 29.2983 15.0592 28.8319 15.0822C27.8507 15.1306 26.9198 14.908 26.0201 14.5399C25.8097 14.4539 25.7026 14.4834 25.571 14.6842C24.8117 15.8425 24.0358 16.99 23.2579 18.136C23.2097 18.2001 23.1778 18.275 23.165 18.3542C23.1521 18.4334 23.1586 18.5145 23.184 18.5906C24.0117 21.8545 23.2522 24.6965 20.9054 27.1167C20.5423 27.4916 20.1705 27.8582 19.7978 28.2238C18.6305 29.3691 17.0714 29.6623 15.5676 29.0315C13.3677 28.1118 11.3236 26.8564 9.50839 25.3102C9.31495 25.1456 9.2011 25.1307 9.03852 25.3308C8.89221 25.5109 8.70407 25.6563 8.54897 25.83C6.76242 27.8307 4.69215 29.4831 2.40148 30.8699C1.89974 31.1736 1.42554 31.5227 0.936173 31.8471C0.622736 32.0549 0.359908 32.0492 0.153791 31.8399C-0.0509552 31.6319 -0.053092 31.3725 0.158361 31.0567C1.20613 29.492 2.25569 27.9285 3.30702 26.3662C3.39701 26.2398 3.49878 26.1222 3.61096 26.0151C4.63026 24.9925 5.64839 23.9686 6.67654 22.955C6.83971 22.7941 6.87377 22.7072 6.7054 22.5097C5.15567 20.6974 3.89844 18.6542 2.97913 16.454C2.32909 14.8994 2.62261 13.3642 3.80289 12.1739C4.16262 11.8111 4.5238 11.4498 4.88643 11.0899C5.17954 10.8007 5.37799 10.7844 5.74077 11.0073C6.0193 11.228 6.03268 11.5495 5.74816 11.8622C5.38249 12.2642 4.98567 12.6366 4.60099 13.0205C4.33124 13.2858 4.12244 13.6067 3.9891 13.9608C3.74866 14.5545 3.74604 15.2179 3.98177 15.8135C4.80733 17.8765 5.95258 19.7967 7.37545 21.5035C8.35202 22.7281 9.46613 23.8364 10.6958 24.8066C12.3505 26.1172 14.1377 27.209 16.1047 27.9843C17.1646 28.402 18.1435 28.2162 18.9602 27.4097C19.7803 26.6 20.6499 25.8326 21.2566 24.829C21.8634 23.8289 22.2299 22.7016 22.3271 21.5358C22.3782 20.965 22.3036 20.4146 22.2799 19.782C22.0541 20.0262 21.9331 20.2579 21.7846 20.4679C21.4943 20.8784 21.2541 20.9619 20.7879 20.7602C19.0685 20.0277 17.4724 19.0342 16.0561 17.8146C14.5225 16.4918 13.2225 14.9203 12.2104 13.166C11.8773 12.5882 11.5915 11.9855 11.3095 11.3821C11.0088 10.7388 11.0664 10.5556 11.6419 10.1151C11.8075 10.0116 11.9664 9.89784 12.1176 9.77434C12.0089 9.71995 11.8884 9.69324 11.7669 9.6966C10.2373 9.59172 8.78191 9.84337 7.42906 10.5961C7.0861 10.7869 6.81241 10.7601 6.60856 10.5374C6.58918 10.5175 6.57426 10.4937 6.56477 10.4675C6.55529 10.4414 6.55145 10.4135 6.55354 10.3858C6.43609 9.9418 6.50808 9.76278 6.91181 9.54857C8.95751 8.46316 11.1013 8.19951 13.3405 8.80637C13.4375 8.83822 13.5409 8.84582 13.6415 8.82852C13.7421 8.81121 13.837 8.76953 13.9178 8.70711C15.0434 7.93916 16.175 7.18006 17.3125 6.42979C17.5135 6.29799 17.5373 6.19297 17.4539 5.98131C17.013 4.86336 16.7643 3.71407 16.9971 2.50832C17.2816 1.03509 18.4606 0.0594002 19.9723 0.00448653C21.5413 -0.0525105 22.9636 0.434629 24.2948 1.19757C27.5034 3.03644 29.9521 5.58508 31.4208 9.01265C31.8296 9.96685 32.0521 10.971 31.9892 12.0196C31.9444 12.7669 31.722 13.4515 31.2274 14.0309C30.9026 14.4114 30.6606 14.4385 30.2639 14.1371C30.214 14.1005 30.1723 14.0538 30.1417 14C30.1111 13.9462 30.0922 13.8865 30.0863 13.8249C30.0803 13.7633 30.0875 13.7012 30.1072 13.6425C30.127 13.5838 30.1589 13.53 30.201 13.4846C31.0961 12.4097 30.9149 11.2393 30.5516 10.0463C30.0976 8.55563 29.2635 7.27647 28.3014 6.07538C27.0697 4.54023 25.5594 3.25129 23.8498 2.27623C23.0656 1.81181 22.2116 1.47709 21.3207 1.28499C20.7862 1.16793 20.2512 1.09704 19.7043 1.20952C18.6968 1.41676 18.1177 2.12084 18.0806 3.15547C18.0327 4.49408 18.4962 5.68799 19.1232 6.82578C20.3239 9.0045 21.9967 10.7614 24.0286 12.1821C24.5996 12.5876 25.2091 12.936 25.8482 13.2224C26.7929 13.6613 27.7692 13.9485 28.8269 13.9161C29.2801 13.9023 29.4771 14.0967 29.4785 14.4659Z" fill="#2B2D54"/>
<path d="M21.3296 1.20926C22.06 1.31749 22.7334 1.59752 23.3771 1.93824C26.4592 3.56967 28.7957 5.92975 30.2829 9.09853C30.6945 9.97546 30.9615 10.8987 30.9255 11.8835C30.9057 12.4274 30.7658 12.9396 30.3904 13.3482C30.2856 13.4476 30.2165 13.5787 30.1937 13.7213C30.1708 13.8638 30.1954 14.0099 30.2638 14.1371C30.0204 14.2863 29.7555 14.3972 29.4784 14.466C29.3791 14.1073 29.1286 13.9892 28.7764 14.0028C27.7147 14.0437 26.7308 13.7579 25.7966 13.2732C23.377 11.7088 21.4451 9.49654 20.221 6.88819C19.7164 5.82371 19.4121 4.69998 19.516 3.50294C19.5991 2.5458 20.0053 1.78703 20.8888 1.32765C21.0318 1.25328 21.1829 1.24867 21.3296 1.20926Z" fill="#4B73F3"/>
<path d="M6.5535 10.3858C6.8883 10.6992 7.02425 10.717 7.43735 10.493C8.98116 9.65611 10.6214 9.42097 12.3991 9.69254C12.172 9.88499 11.9249 10.0524 11.6619 10.1919C10.9568 10.3759 10.2382 10.5111 9.56257 10.8002C8.67819 11.1646 7.87255 11.6963 7.18992 12.3663C6.71164 12.8451 6.2332 13.3237 5.75461 13.8022C4.80914 14.7515 4.65163 15.8897 5.09061 17.0905C5.61381 18.5216 6.36417 19.847 7.20206 21.1207C7.2852 21.2471 7.45293 21.3662 7.32908 21.5596C6.33365 20.4295 5.53363 19.1663 4.83043 17.8413C4.426 17.0792 4.00025 16.318 3.79898 15.4713C3.58091 14.554 3.82131 13.7334 4.46703 13.046C4.84707 12.6414 5.25163 12.2599 5.64184 11.8647C5.93526 11.5675 5.95464 11.3755 5.74072 11.0074C6.01165 10.8002 6.28258 10.593 6.5535 10.3858Z" fill="#4B73F3"/>
<path d="M7.32911 21.5596C7.21535 21.1442 6.90899 20.8396 6.69542 20.483C6.03938 19.3874 5.41265 18.2721 4.9899 17.0699C4.57412 15.8875 4.7091 14.7366 5.63699 13.8074C6.45723 12.9861 7.20358 12.0807 8.19369 11.4408C9.25356 10.7558 10.3875 10.2795 11.662 10.1919C11.6033 10.2417 11.5483 10.2967 11.4854 10.3404C11.192 10.5446 11.1467 10.8002 11.2852 11.1232C11.9898 12.7889 12.9392 14.34 14.1021 15.7252C15.8869 17.8468 18.1403 19.5246 20.6845 20.6263C21.3121 20.9006 21.4116 20.8733 21.7991 20.3006C21.953 20.0731 22.1088 19.8469 22.2977 19.5706C22.4623 20.3518 22.4871 21.1561 22.3708 21.9459C22.1193 23.7716 21.2802 25.2938 19.946 26.5543C19.6232 26.8592 19.3231 27.188 19.0008 27.4935C18.164 28.2867 17.1773 28.5123 16.118 28.082C12.6986 26.7028 9.68467 24.4793 7.35775 21.6192C7.34584 21.6006 7.33623 21.5806 7.32911 21.5596Z" fill="#4B73F3"/>
<path d="M24.4734 14.3562C23.5464 15.7479 22.6195 17.1397 21.6924 18.5313C21.4958 18.8264 21.2914 19.1166 21.1021 19.4162C21.0231 19.5413 20.955 19.5742 20.8114 19.5067C17.1238 17.7719 14.3789 15.0832 12.605 11.4096C12.5983 11.3884 12.5945 11.3665 12.5939 11.3443C12.5638 11.1845 12.7029 11.1372 12.7919 11.0708C14.0046 10.1659 15.3704 9.66653 16.8824 9.72903C18.5182 9.79665 19.9678 10.3853 21.1619 11.5423C22.1266 12.477 23.1418 13.3504 24.2921 14.0549C24.4027 14.1227 24.5448 14.1766 24.4734 14.3562Z" fill="#4B73F3"/>
<path d="M21.3296 1.20925C20.792 1.43665 20.3011 1.72592 19.9923 2.24654C19.7544 2.64755 19.6179 3.10053 19.5946 3.56622C19.4926 5.32151 20.1859 6.83271 21.0555 8.28055C21.7478 9.41601 22.5853 10.4563 23.5467 11.3752C24.2063 12.0139 24.9131 12.6019 25.6611 13.1342C25.7104 13.1763 25.7558 13.2228 25.7966 13.2731C24.7421 12.8362 23.8171 12.1899 22.9437 11.4704C21.0702 9.92681 19.5381 8.10896 18.5631 5.86337C18.1947 5.01508 17.9515 4.13522 17.9886 3.19261C18.0367 1.96921 18.756 1.18795 19.9813 1.07988C20.4349 1.03495 20.8928 1.07889 21.3296 1.20925Z" fill="#4B73F3"/>
<path d="M24.4734 14.3562C24.3843 14.0756 24.0915 14.0299 23.8928 13.9017C22.8827 13.2498 21.9917 12.4581 21.1313 11.6301C20.1101 10.6322 18.7807 10.01 17.3603 9.86519C15.5519 9.65942 13.9859 10.2171 12.5939 11.3443C12.3977 11.122 12.4372 10.9831 12.6963 10.8121C14.3905 9.69427 16.0764 8.56395 17.7541 7.42117C17.9768 7.2699 18.0572 7.3077 18.1841 7.52864C19.6602 10.1174 21.7969 12.268 24.376 13.7609C24.765 13.9889 24.7687 13.9825 24.4734 14.3562Z" fill="#4B73F3"/>
<path d="M6.88517 25.936C6.03457 26.8186 5.2295 27.7489 4.16288 28.3958C3.64413 28.7105 3.1493 29.0646 2.60962 29.4235C3.58846 27.574 4.94191 26.0834 6.44953 24.7184C6.56869 24.6924 6.60783 24.7847 6.6291 24.8632C6.72529 25.218 6.87184 25.5614 6.88517 25.936Z" fill="white"/>
<path d="M6.88522 25.936C6.71507 25.6727 6.6948 25.3605 6.60345 25.0715C6.56444 24.9481 6.5644 24.8085 6.44958 24.7184C6.78219 24.3802 7.11884 24.0458 7.44522 23.7017C7.55903 23.5817 7.64282 23.55 7.76173 23.6923C7.96573 23.9365 8.36513 24.1135 8.37672 24.3902C8.38758 24.6495 7.99962 24.8413 7.78549 25.0605C7.49308 25.3598 7.18601 25.6449 6.88522 25.936Z" fill="white"/>
</g>
<defs>
<clipPath id="clip0_802_460">
<rect width="32" height="32" fill="white"/>
</clipPath>
</defs>
</svg>
