<svg width="32" height="32" viewBox="0 0 32 32" fill="none" xmlns="http://www.w3.org/2000/svg">
<g clip-path="url(#clip0_401_1474)">
<path d="M0.00531006 25.7591V5.05625C0.159227 4.42216 0.688084 4.07789 1.33336 4.21454C1.42671 4.24409 1.52717 4.24213 1.6193 4.20898C1.71142 4.17582 1.79009 4.11331 1.8432 4.03105C2.15906 3.61895 2.48211 3.21176 2.8154 2.81357C3.2547 2.28872 3.81321 2.05344 4.50134 2.16443C4.99403 2.24389 5.47804 2.36508 5.96603 2.46716C6.24664 2.52585 6.27584 2.50606 6.27955 2.22118C6.28619 1.7122 6.27511 1.20305 6.28448 0.694101C6.29041 0.371517 6.38268 0.0989049 6.73998 0.00524902H7.17648C9.29257 0.302802 11.2932 1.15165 12.9776 2.46662C14.2113 3.41189 15.1956 4.64413 15.8448 6.05628C15.8737 6.11905 15.885 6.19813 15.9857 6.23178C16.1322 5.98879 16.2367 5.72018 16.3774 5.4709C17.6072 3.29233 19.4413 1.81596 21.7233 0.864388C22.5956 0.500673 23.4849 0.18269 24.4297 0.0513229C24.5399 0.0360013 24.6593 0.0760532 24.7614 0.00524902H25.1979C25.5397 0.0917699 25.6453 0.347801 25.6552 0.661166C25.6698 1.12844 25.6588 1.59608 25.6606 2.06356C25.6624 2.5305 25.6676 2.53427 26.1089 2.42914C26.5537 2.3232 27.003 2.23875 27.4529 2.15783C28.1335 2.03542 28.6775 2.28011 29.1101 2.79254C29.4383 3.1814 29.7539 3.58138 30.0637 3.98511C30.2125 4.17895 30.3648 4.27387 30.62 4.195C31.2064 4.01378 31.9745 4.52578 31.9726 5.3025C31.9557 12.0345 31.9533 18.7665 31.9651 25.4985C31.9654 25.965 31.7761 26.2919 31.353 26.4906C30.046 27.1045 28.7159 27.6661 27.3945 28.2474C24.6849 29.4395 21.9799 30.6419 19.2651 31.8221C19.012 31.9465 18.7254 31.9856 18.4483 31.9335C18.1451 31.8665 17.851 31.966 17.5515 31.9647C16.5023 31.9599 15.4529 31.968 14.4037 31.9601C14.0225 31.9572 13.645 31.9068 13.2593 31.9526C12.9443 31.99 12.6576 31.8209 12.3729 31.6949C9.28598 30.3288 6.19657 28.9684 3.10461 27.6138C2.29657 27.2584 1.48572 26.9091 0.682316 26.5428C0.328992 26.3817 0.0719034 26.158 0.00531006 25.7591Z" fill="#2B2D54"/>
<path d="M18.6441 30.804C18.6441 30.6721 18.6441 30.5611 18.6441 30.4501C18.6441 23.9857 18.6424 17.5213 18.639 11.0569C18.6388 10.8089 18.7001 10.6807 18.9433 10.5745C22.8143 8.88338 26.682 7.18485 30.5465 5.47891C30.869 5.3371 30.8703 5.3385 30.8703 5.67992C30.8704 12.1651 30.871 18.6503 30.8721 25.1355C30.8721 25.318 30.8675 25.4512 30.6516 25.5458C26.7137 27.2696 22.7787 28.9999 18.8464 30.7367C18.7915 30.7609 18.7321 30.7751 18.6441 30.804Z" fill="#F08300"/>
<path d="M12.2124 30.3316C10.9997 29.8043 9.78563 29.2802 8.57463 28.7491C6.16134 27.6906 3.74862 26.6308 1.33647 25.5698C1.16309 25.4938 1.05913 25.4214 1.05942 25.1935C1.06754 18.6779 1.06988 12.1622 1.06643 5.64662C1.06643 5.59485 1.07242 5.54308 1.07562 5.49132C1.16621 5.41036 1.25024 5.46737 1.33417 5.50479C2.73576 6.12972 4.14273 6.74245 5.54746 7.36025C7.20849 8.09078 8.86734 8.82625 10.531 9.55097C11.025 9.76621 11.5212 9.97815 12.0076 10.2119C12.19 10.2995 12.2936 10.4295 12.2984 10.6162C12.3227 11.5607 12.3184 12.5054 12.3013 13.45C12.2991 13.5024 12.2802 13.5527 12.2472 13.5935C12.2253 13.6073 12.1997 13.6142 12.1738 13.6134C12.1479 13.6125 12.1228 13.6039 12.1018 13.5888C9.69769 12.3157 7.1943 11.2503 4.74658 10.0686C4.19499 9.8023 3.63539 9.55342 3.08604 9.28208C2.51129 8.99819 2.21071 9.19253 2.20958 9.8336C2.20679 11.4327 2.21448 13.0319 2.20434 14.631C2.20196 15.0067 2.32692 15.2477 2.68189 15.4128C4.69576 16.3499 6.70218 17.3029 8.71419 18.2441C9.5509 18.6355 10.3878 19.0269 11.2194 19.4289C11.5127 19.5707 11.7886 19.6938 12.0786 19.4279C12.1417 19.3701 12.2309 19.3517 12.2832 19.4617C12.3452 20.1364 12.349 20.8151 12.2947 21.4904C12.2401 21.6446 12.1483 21.592 12.051 21.536C10.7803 20.8042 9.41642 20.2639 8.10215 19.6216C7.26301 19.2114 6.41189 18.8247 5.56531 18.4292C4.72809 18.0382 3.88654 17.6559 3.05873 17.2448C2.95758 17.1909 2.8484 17.1538 2.7354 17.1347C2.52162 17.1047 2.37512 17.2088 2.2737 17.3835C2.17615 17.5515 2.22729 17.7031 2.34504 17.8409C2.4194 17.9282 2.51184 17.9983 2.61596 18.0463C4.80854 19.0686 6.99158 20.1112 9.18546 21.1308C9.90101 21.4634 10.6095 21.8112 11.3279 22.1378C11.5795 22.2522 11.8188 22.3046 12.0596 22.1181C12.1286 22.0648 12.2075 22.0326 12.2724 22.1329C12.3169 22.2387 12.3359 22.3535 12.3279 22.468C12.331 24.9551 12.3308 27.4422 12.3273 29.9294C12.3271 30.0713 12.3439 30.2244 12.2124 30.3316Z" fill="#F08300"/>
<path d="M2.66284 4.85359C3.04776 4.37552 3.41371 3.91332 3.78892 3.45876C3.93925 3.27662 4.15592 3.27433 4.36455 3.31483C8.00253 4.02093 11.4057 5.29455 14.4254 7.49044C14.5428 7.5758 14.6443 7.6844 14.7657 7.7626C15.3761 8.15555 15.5185 8.72959 15.4369 9.40741C15.4172 9.57104 15.344 9.58497 15.216 9.58539C14.8838 9.58647 14.5215 9.51291 14.2262 9.62029C13.7615 9.7893 13.4163 9.59218 13.0371 9.4252C9.6801 7.94724 6.32275 6.47013 2.96503 4.99386C2.87175 4.95282 2.78009 4.90813 2.66284 4.85359Z" fill="#F5DCB5"/>
<path d="M18.0278 9.67036C17.6243 9.53638 17.2066 9.58012 16.7952 9.59053C16.5551 9.59661 16.5377 9.50647 16.4984 9.29338C16.3333 8.39697 16.9189 7.94899 17.5132 7.50251C19.3562 6.11796 21.4111 5.14068 23.5731 4.37367C24.6647 3.99404 25.7789 3.68268 26.9092 3.44139C26.9605 3.43424 27.0123 3.43132 27.0641 3.43267C27.2314 3.35737 27.3413 3.44723 27.4376 3.56617C27.7644 3.96994 28.0934 4.37218 28.4102 4.78378C28.6064 5.03871 28.5835 5.10803 28.2909 5.23698C26.1069 6.19946 23.9224 7.16061 21.7372 8.12042C20.6165 8.61347 19.4961 9.10707 18.3758 9.6012C18.2667 9.64952 18.1601 9.73016 18.0278 9.67036Z" fill="#DFC49C"/>
<path d="M17.5526 20.7362C17.5526 22.2313 17.5478 23.7265 17.5575 25.2216C17.5591 25.4592 17.5036 25.5449 17.2497 25.5403C16.3882 25.5248 15.5261 25.5281 14.6644 25.5388C14.4496 25.5415 14.3804 25.4812 14.3809 25.2602C14.3875 22.2491 14.3876 19.238 14.3811 16.2269C14.3807 16.0238 14.4362 15.9621 14.6415 15.9645C15.5239 15.9749 16.4066 15.977 17.289 15.9635C17.5203 15.9599 17.5577 16.046 17.5567 16.2507C17.5491 17.7458 17.5526 19.241 17.5526 20.7362Z" fill="#F08300"/>
<path d="M12.2111 21.5998C12.2436 20.8607 12.2369 20.1217 12.2147 19.3825C12.1117 19.2598 12.1274 19.1103 12.1272 18.9674C12.1247 17.3226 12.1247 15.6778 12.1271 14.033C12.1273 13.89 12.1117 13.7407 12.2125 13.6169C12.2178 12.6304 12.2231 11.6438 12.2283 10.6573C12.2294 10.4269 12.0915 10.3062 11.8946 10.2193C10.8803 9.77123 9.86911 9.31593 8.85483 8.86771C7.71755 8.36513 6.57795 7.86783 5.4397 7.36745C4.04522 6.75442 2.65071 6.14148 1.25615 5.52864C1.19746 5.50985 1.13695 5.49734 1.07562 5.49131C1.09349 5.24358 1.2349 5.40867 1.30165 5.43748C2.15685 5.80646 3.00848 6.18371 3.86095 6.55902C6.92041 7.90601 9.9803 9.25202 13.0406 10.5971C13.2079 10.6704 13.2993 10.7423 13.2991 10.9515C13.2926 17.5148 13.2907 24.0782 13.2934 30.6415C13.2934 30.6827 13.2888 30.724 13.2835 30.816C12.9135 30.6487 12.563 30.4902 12.2125 30.3317C12.2181 30.2177 12.2288 30.1038 12.2289 29.9899C12.2298 27.4645 12.2296 24.939 12.2282 22.4136C12.2281 22.3022 12.2603 22.1838 12.1857 22.0808C12.0944 21.9152 12.1323 21.7564 12.2111 21.5998Z" fill="#F08300"/>
<path d="M17.2717 6.26766C17.5704 5.66005 17.9496 5.09544 18.3991 4.58907C19.9569 2.79829 21.9792 1.81865 24.2375 1.2499C24.4341 1.20037 24.4842 1.25003 24.478 1.44833C24.4642 1.8842 24.4704 2.32084 24.4756 2.75709C24.4772 2.89655 24.4503 2.97647 24.2922 3.023C21.8446 3.74174 19.5231 4.83546 17.4104 6.26522C17.3917 6.28269 17.3671 6.2926 17.3415 6.29305C17.3159 6.2935 17.291 6.28446 17.2717 6.26766Z" fill="#DFC49C"/>
<path d="M14.6109 6.3069C14.3069 6.1152 14.0038 5.92201 13.6988 5.73203C11.855 4.57988 9.8633 3.68363 7.77821 3.06787C7.51434 2.99005 7.44852 2.87057 7.4588 2.61765C7.47766 2.15377 7.46417 1.68856 7.46417 1.19275C10.5621 1.9397 13.1134 3.37956 14.665 6.23605L14.6109 6.3069Z" fill="#DFC49C"/>
<path d="M15.9533 12.7789C15.5073 12.7789 15.0612 12.7721 14.6154 12.7822C14.4384 12.7862 14.3798 12.7259 14.3823 12.5502C14.3905 11.9903 14.3906 11.4302 14.3825 10.8701C14.3802 10.7042 14.4418 10.6587 14.5999 10.6597C15.5126 10.6653 16.4253 10.6653 17.3381 10.6597C17.4964 10.6587 17.5577 10.7045 17.5553 10.8702C17.5475 11.4302 17.5476 11.9902 17.5555 12.5503C17.5581 12.7262 17.4992 12.786 17.3223 12.7822C16.8662 12.7723 16.4097 12.7789 15.9533 12.7789Z" fill="#F08300"/>
<path d="M15.9434 30.8704C15.507 30.8704 15.0704 30.8627 14.6343 30.874C14.4503 30.8787 14.377 30.8311 14.3813 30.6333C14.3931 30.0828 14.3908 29.5319 14.3821 28.9813C14.3795 28.8103 14.4248 28.7453 14.6074 28.747C15.5113 28.7552 16.4154 28.7569 17.3192 28.746C17.5238 28.7436 17.559 28.8227 17.5559 29.0012C17.5467 29.531 17.5439 30.0612 17.5569 30.5908C17.5621 30.8011 17.5101 30.8841 17.2836 30.8754C16.8375 30.8583 16.3902 30.8704 15.9434 30.8704Z" fill="#F08300"/>
<path d="M18.0278 9.67037C18.7072 9.44698 19.3432 9.12014 19.9976 8.83771C21.5167 8.18201 23.0293 7.51116 24.5438 6.84476C25.7935 6.29492 27.0406 5.7395 28.2924 5.19469C28.4914 5.1081 28.5095 5.0238 28.3768 4.86085C28.025 4.4288 27.6808 3.99041 27.337 3.5519C27.304 3.51207 27.2621 3.48053 27.2147 3.45982C27.1673 3.43912 27.1158 3.42982 27.0641 3.43268C27.2793 3.36014 27.5031 3.31633 27.7297 3.30241C27.818 3.2931 27.9073 3.30722 27.9884 3.34335C28.0695 3.37948 28.1398 3.43634 28.1919 3.50822C28.5431 3.94492 28.8941 4.38175 29.2754 4.85609C28.7797 5.07615 28.3048 5.28856 27.8286 5.49808C24.6933 6.87761 21.5575 8.25604 18.4212 9.63337C18.2997 9.68671 18.1735 9.81949 18.0278 9.67037Z" fill="#DFC49C"/>
<path d="M16.4687 14.898C15.8362 14.9011 15.2036 14.9011 14.5712 14.9099C14.4289 14.9118 14.3769 14.874 14.367 14.7207C14.3107 13.8469 14.3061 13.8459 15.1593 13.8477C15.6154 13.8487 16.0715 13.855 16.5276 13.8588C16.6921 14.196 16.6646 14.6817 16.4687 14.898Z" fill="#4B73F3"/>
<path d="M14.4097 27.635C14.3229 27.3417 14.3882 27.0422 14.3741 26.7459C14.3672 26.6015 14.4839 26.6227 14.5733 26.6232C15.225 26.6267 15.8766 26.6312 16.5282 26.6368C16.7009 26.9162 16.6329 27.2164 16.5987 27.5116C16.5861 27.6197 16.5049 27.6627 16.3962 27.6601C15.7341 27.6448 15.0712 27.6916 14.4097 27.635Z" fill="#4B73F3"/>
<path d="M14.4097 27.635C15.022 27.633 15.6344 27.6232 16.2466 27.6331C16.46 27.6365 16.5481 27.5757 16.5325 27.3528C16.5159 27.1152 16.5284 26.8756 16.5282 26.6369C16.8069 26.6321 17.0857 26.6311 17.3642 26.6209C17.5014 26.6159 17.5611 26.6512 17.5725 26.807C17.6362 27.6825 17.641 27.6821 16.7775 27.6824C16.0849 27.6827 15.3922 27.6857 14.6995 27.681C14.6035 27.6804 14.4929 27.7305 14.4097 27.635Z" fill="#4B73F3"/>
<path d="M16.4687 14.898C16.5965 14.5577 16.4986 14.2047 16.5276 13.8588C16.8074 13.855 17.0876 13.8596 17.3668 13.8441C17.5411 13.8345 17.5665 13.9124 17.5715 14.064C17.5994 14.9099 17.6032 14.9101 16.748 14.9079C16.6549 14.9077 16.5618 14.9014 16.4687 14.898Z" fill="#4B73F3"/>
<path d="M19.696 16.4859C19.6961 15.6547 19.7074 14.8232 19.6908 13.9923C19.6835 13.6288 19.8327 13.4277 20.1574 13.2759C23.0568 11.92 25.953 10.5573 28.846 9.18783C29.4805 8.88899 29.8116 9.10502 29.8117 9.81595C29.8119 11.4576 29.805 13.0993 29.817 14.7409C29.8197 15.1029 29.6775 15.3154 29.3558 15.466C26.4496 16.8269 23.5428 18.1866 20.6473 19.57C20.0286 19.8656 19.656 19.523 19.6854 18.9478C19.7273 18.1292 19.696 17.3067 19.696 16.4859Z" fill="#2B2D54"/>
<path d="M29.2816 17.0282C29.3995 17.0302 29.5133 17.0713 29.6053 17.1451C29.6972 17.2189 29.762 17.3211 29.7895 17.4357C29.8265 17.5461 29.8222 17.6661 29.7774 17.7736C29.7326 17.881 29.6503 17.9685 29.5459 18.0199C29.2575 18.1814 28.9543 18.317 28.6547 18.4579C25.9869 19.7123 23.3187 20.9659 20.6502 22.2187C20.5939 22.2452 20.5389 22.2748 20.481 22.2972C20.1641 22.4198 19.8606 22.3169 19.7389 22.0473C19.6139 21.7703 19.7244 21.4769 20.038 21.3267C21.018 20.8575 22.0026 20.3979 22.9856 19.9348C24.9328 19.0174 26.8801 18.1003 28.8276 17.1837C28.967 17.1181 29.1013 17.034 29.2816 17.0282Z" fill="#2B2D54"/>
<path d="M21.3002 24.5123C21.1817 24.5089 21.0677 24.4663 20.976 24.3911C20.8844 24.316 20.8202 24.2125 20.7937 24.097C20.7226 23.8318 20.8384 23.6229 21.0726 23.4997C21.384 23.3361 21.7061 23.1926 22.0246 23.0427C23.9637 22.1297 25.903 21.2171 27.8426 20.3049C28.2122 20.1311 28.4751 20.1707 28.6462 20.4208C28.8592 20.7321 28.7496 21.0626 28.3544 21.2512C27.4576 21.6792 26.5569 22.0992 25.6579 22.5226C24.3468 23.1401 23.0355 23.7572 21.724 24.374C21.5941 24.435 21.4666 24.5108 21.3002 24.5123Z" fill="#2B2D54"/>
<path d="M12.2125 13.6169C12.2214 13.9782 12.2403 14.3396 12.2376 14.7008C12.2261 16.2614 12.271 17.8222 12.2148 19.3825C11.9075 19.7445 11.7621 19.7764 11.3286 19.5722C8.40213 18.1941 5.4752 16.8169 2.54778 15.4408C2.24188 15.2975 2.12228 15.0869 2.12361 14.7584C2.13038 13.0856 2.12566 11.4128 2.12731 9.74007C2.1279 9.14206 2.48286 8.91365 3.02325 9.16765C5.94106 10.5391 8.85857 11.9111 11.7758 13.2837C11.9465 13.3573 12.0964 13.4718 12.2125 13.6169Z" fill="#2B2D54"/>
<path d="M12.2111 21.5998C12.2511 21.759 12.2422 21.9267 12.1857 22.0808C11.9121 22.3743 11.7167 22.4191 11.3642 22.2531C8.42083 20.8674 5.47765 19.4813 2.53467 18.0947C2.29996 17.9843 2.12795 17.8248 2.13343 17.5575C2.13822 17.3233 2.27359 17.1574 2.49872 17.065C2.66074 16.9985 2.80542 17.0419 2.94736 17.1087C5.91824 18.5071 8.88898 19.9058 11.8596 21.3047C11.9971 21.3759 12.1172 21.4766 12.2111 21.5998Z" fill="#2B2D54"/>
<path d="M3.76713 20.2059C3.87799 20.1934 3.97771 20.2531 4.08024 20.3013C6.28519 21.3375 8.48999 22.374 10.6946 23.4108C10.7507 23.4372 10.8054 23.4667 10.8595 23.4969C11.1578 23.663 11.2543 23.9437 11.111 24.2262C10.9733 24.4977 10.7054 24.5926 10.3975 24.4502C9.45101 24.0128 8.50895 23.5657 7.5654 23.1218C6.24764 22.502 4.93007 21.8817 3.61269 21.2611C3.23933 21.0849 3.11191 20.8253 3.24433 20.5262C3.28221 20.4214 3.3546 20.3326 3.4496 20.2744C3.5446 20.2162 3.65657 20.1921 3.76713 20.2059Z" fill="#2B2D54"/>
<path d="M28.7489 10.4792V11.2118C28.7489 12.2406 28.7443 13.2694 28.753 14.298C28.7546 14.4887 28.7016 14.5892 28.5202 14.674C26.0199 15.8435 23.5228 17.0198 21.029 18.2029C20.7899 18.3163 20.7624 18.2466 20.7638 18.0211C20.7716 16.8158 20.7714 15.6104 20.7633 14.405C20.7546 14.3352 20.7705 14.2646 20.8082 14.2053C20.8459 14.146 20.903 14.1015 20.9698 14.0797C23.4976 12.8957 26.0233 11.7073 28.547 10.5145C28.607 10.4768 28.6795 10.4641 28.7489 10.4792Z" fill="#4B73F3"/>
<path d="M11.1561 18.3031C10.5316 18.0132 9.93413 17.7393 9.3396 17.4592C7.37821 16.5352 5.41925 15.606 3.45502 14.6881C3.2614 14.5976 3.18035 14.5018 3.18263 14.2766C3.19543 13.0105 3.1888 11.7442 3.1888 10.4827C3.30521 10.4406 3.3823 10.5079 3.46294 10.5457C5.94942 11.7137 8.43595 12.8816 10.9225 14.0494C11.1053 14.1349 11.179 14.2293 11.1767 14.4421C11.1638 15.6257 11.1708 16.8096 11.17 17.9933C11.1699 18.0832 11.1621 18.173 11.1561 18.3031Z" fill="#4B73F3"/>
</g>
<defs>
<clipPath id="clip0_401_1474">
<rect width="32" height="32" fill="white"/>
</clipPath>
</defs>
</svg>
