<svg width="32" height="32" viewBox="0 0 32 32" fill="none" xmlns="http://www.w3.org/2000/svg">
<g clip-path="url(#clip0_802_284)">
<path d="M25.4408 28.6341C25.5841 29.0316 25.5299 29.1974 25.1686 29.4048C24.4498 29.8227 23.6349 30.0474 22.8035 30.0568C22.6606 30.0588 22.5582 30.0792 22.4649 30.2108C20.7965 32.5624 17.6464 32.5182 16.0554 30.1255C16.034 30.0933 16.0098 30.0631 15.9858 30.0304C15.8759 30.0737 15.8552 30.1736 15.8058 30.2463C15.4608 30.7636 14.994 31.1883 14.4464 31.4829C13.8988 31.7776 13.2872 31.9331 12.6654 31.936C12.0436 31.9388 11.4306 31.7888 10.8803 31.4991C10.3301 31.2095 9.85943 30.789 9.50977 30.2748C9.47138 30.2047 9.41394 30.1468 9.34406 30.1079C9.27419 30.0689 9.19474 30.0505 9.11487 30.0548C6.70855 30.0344 4.69049 28.1786 4.42115 25.7638C4.38532 25.4425 4.49801 25.074 4.36561 24.8199C4.2397 24.5782 3.86527 24.4807 3.63658 24.2673C2.51886 23.2239 2.1125 21.9561 2.45652 20.4644C2.49722 20.2879 2.46172 20.2139 2.33424 20.1079C1.47483 19.3896 0.918276 18.3733 0.775924 17.2624C0.633573 16.1514 0.915915 15.0276 1.56647 14.1159C1.62176 14.0512 1.65795 13.9724 1.67101 13.8884C1.68407 13.8043 1.67347 13.7182 1.64041 13.6398C1.42426 13.0128 1.41451 12.3331 1.61259 11.7001C1.81066 11.0671 2.20616 10.5142 2.74118 10.1222C2.80148 10.0883 2.84903 10.0355 2.8766 9.97205C2.90417 9.90857 2.91024 9.83782 2.89389 9.77057C2.78981 8.93014 2.97078 8.07909 3.40782 7.35372C3.84485 6.62835 4.51267 6.07062 5.30431 5.76985C5.4976 5.69591 5.53987 5.61998 5.53254 5.41937C5.50555 4.65867 5.71446 3.90824 6.13065 3.27092C6.31444 2.98133 6.48098 2.94238 6.85175 3.07748C7.12451 3.26628 7.18171 3.45815 7.01923 3.76426C6.85018 4.06282 6.71958 4.38156 6.63054 4.7129C6.60247 4.83426 6.58313 4.95747 6.57267 5.08159C6.54993 5.32176 6.64388 5.41474 6.89078 5.41572C7.42843 5.41785 7.93585 5.57036 8.42623 5.78233C8.54105 5.83149 8.64948 5.8944 8.74915 5.96969C8.99388 6.15574 9.07446 6.48081 8.93575 6.71493C8.8617 6.83614 8.74305 6.92345 8.6053 6.9581C8.46756 6.99275 8.32171 6.97196 8.19913 6.90021C7.49684 6.53456 6.77846 6.42229 6.00002 6.63251C4.53523 7.02809 3.66755 8.38318 3.95348 9.87324C4.0611 10.434 4.03306 10.5121 3.54665 10.8179C2.85584 11.2523 2.50263 11.8672 2.52055 12.6875C2.52686 12.9762 2.55387 12.9953 2.79419 12.8467C3.47 12.4293 4.24518 12.2004 5.03931 12.1837C5.1327 12.1784 5.22634 12.1883 5.31658 12.213C5.42393 12.2395 5.5191 12.3017 5.58656 12.3894C5.65402 12.477 5.68977 12.5849 5.68799 12.6955C5.7018 12.8052 5.67854 12.9164 5.62192 13.0114C5.56529 13.1064 5.47854 13.1798 5.37546 13.2198C5.23916 13.2715 5.09535 13.3006 4.9497 13.3059C3.56604 13.4132 2.57041 14.1126 2.0436 15.3767C1.48521 16.7166 1.74322 17.9615 2.7066 19.0545C2.82581 19.1897 2.92401 19.2103 3.0679 19.0736C3.28762 18.8649 3.39425 18.6443 3.33816 18.3276C3.27296 17.9596 3.46003 17.693 3.76147 17.6442C4.12451 17.5854 4.37643 17.7557 4.41871 18.1717C4.46794 18.656 4.69464 19.003 5.06506 19.2938C5.34873 19.5164 5.38689 19.8114 5.19918 20.0579C5.01376 20.3013 4.70666 20.346 4.42001 20.1701C4.3402 20.1212 4.26711 20.0625 4.19229 20.0064C3.90557 19.7914 3.8687 19.7924 3.70969 20.102C3.24892 20.9989 3.23438 21.9051 3.74174 22.7813C4.24835 23.6562 5.0124 24.1383 6.04697 24.1135C6.55999 24.1011 7.05817 23.9388 7.48002 23.6466C7.57459 23.5824 7.66284 23.5091 7.76149 23.4509C8.07569 23.2657 8.34715 23.3045 8.5344 23.5607C8.69927 23.7863 8.64606 24.1295 8.39946 24.3445C8.0848 24.6182 7.72172 24.8305 7.32896 24.9706C6.84061 25.1522 6.3215 25.2368 5.80076 25.2195C5.44671 25.2057 5.44695 25.2158 5.45089 25.579C5.45767 26.2042 5.6819 26.7678 6.01666 27.2725C6.61496 28.1745 7.43712 28.7768 8.52692 28.966C8.86371 29.0245 8.90101 29.0044 8.83501 28.6638C8.73919 28.1693 8.831 27.6926 8.91625 27.2127C8.94195 27.0585 8.99201 26.9093 9.06454 26.7708C9.20781 26.5041 9.49257 26.381 9.74463 26.4698C9.87939 26.5158 9.99067 26.6129 10.0545 26.7402C10.1183 26.8674 10.1296 27.0147 10.0858 27.1502C9.97562 27.5536 9.89247 27.955 9.92878 28.3778C10.0244 29.4916 10.6188 30.2686 11.6116 30.6992C12.6396 31.1451 13.6164 30.9278 14.464 30.2157C14.76 29.9751 14.9972 29.67 15.1573 29.3236C15.3174 28.9773 15.3962 28.5989 15.3877 28.2175C15.387 27.7499 15.3812 27.2821 15.3904 26.8147C15.3947 26.5963 15.3355 26.4782 15.0965 26.4288C14.2371 26.2513 13.6855 25.7577 13.5707 24.8519C13.5488 24.6786 13.4497 24.6152 13.2818 24.5867C12.4851 24.4515 12.1408 24.0374 12.149 23.2149C12.1517 22.9365 12.1398 22.713 11.8072 22.6133C11.6049 22.5526 11.527 22.3441 11.5342 22.13C11.5349 22.0244 11.57 21.9219 11.6341 21.838C11.6983 21.7541 11.788 21.6934 11.8897 21.665C12.0824 21.6025 12.1614 21.5054 12.1463 21.3073C12.106 20.7772 12.1912 20.2929 12.6395 19.9326C12.759 19.8366 12.7208 19.6822 12.6984 19.5496C12.5434 18.6346 12.1695 17.8254 11.5187 17.1554C10.9332 16.5526 10.3135 15.9858 9.84862 15.2703C8.1317 12.6276 8.39457 9.01553 10.4702 6.65639C11.7201 5.23583 13.2676 4.40137 15.1414 4.16581C15.2632 4.15049 15.3834 4.13047 15.3794 3.9793C15.365 3.43295 15.4814 2.87483 15.2545 2.34607C14.9321 1.59476 14.3501 1.15472 13.553 1.04774C12.8136 0.948505 12.1811 1.20956 11.6994 1.78888C11.4655 2.07016 11.4793 2.10638 11.7532 2.33983C12.0062 2.57127 12.2306 2.83212 12.4218 3.11682C12.4956 3.21843 12.54 3.33835 12.5503 3.46349C12.5648 3.57283 12.5437 3.68393 12.4901 3.78036C12.4365 3.87678 12.3534 3.9534 12.2529 3.99889C12.0515 4.10645 11.8703 4.053 11.7049 3.91735C11.5107 3.75803 11.3701 3.54863 11.2032 3.36409C10.5128 2.6008 9.63934 2.48851 8.68957 2.63092C8.55653 2.65086 8.42723 2.70762 8.29113 2.69533C8.0484 2.67341 7.83773 2.60277 7.81645 2.3063C7.80259 1.93006 7.89533 1.79293 8.23544 1.6893C8.91155 1.48032 9.63364 1.47106 10.3149 1.66263C10.4385 1.69649 10.5171 1.70769 10.5939 1.57572C10.8163 1.17661 11.1253 0.832369 11.4982 0.568244C11.871 0.304118 12.2983 0.126812 12.7486 0.0493329C12.7642 0.0463096 12.7754 0.0209691 12.7887 0.00604248H13.7864C14.6328 0.0908508 15.3017 0.496062 15.8278 1.14955C15.9368 1.28492 16.0118 1.28542 16.1105 1.14658C16.4522 0.665873 16.9499 0.394537 17.4625 0.140367C17.6631 0.0408894 17.8872 0.0825833 18.0889 0.00604248H19.0866C19.3105 0.0721783 19.5404 0.122799 19.7571 0.20734C20.4134 0.454362 20.9643 0.920493 21.3165 1.52689C21.3965 1.66302 21.4581 1.70585 21.6293 1.66278C23.8219 1.11108 25.9359 2.45549 26.3604 4.67055C26.4246 4.93379 26.4419 5.20628 26.4114 5.47551C26.3827 5.64968 26.45 5.69848 26.601 5.75724C28.2963 6.41699 29.2395 7.99538 29.0346 9.82883C29.0225 9.87736 29.0266 9.92854 29.0464 9.97448C29.0662 10.0204 29.1006 10.0586 29.1442 10.0831C29.7079 10.48 30.1238 11.0528 30.3266 11.7117C30.5295 12.3706 30.5079 13.0781 30.2651 13.7234C30.243 13.7751 30.2361 13.832 30.2453 13.8875C30.2544 13.943 30.2792 13.9947 30.3167 14.0366C31.739 15.9306 31.4037 18.6654 29.5564 20.1447C29.4482 20.2314 29.4418 20.3007 29.473 20.4319C29.8872 22.1725 29.2236 23.7627 27.6965 24.6994C27.5796 24.7711 27.5229 24.8291 27.5329 24.9859C27.5843 25.8379 27.407 26.6881 27.0195 27.4485C26.8678 27.7555 26.6579 27.8898 26.3204 27.7923C25.9984 27.639 25.9188 27.4571 26.0549 27.1161C26.2051 26.7396 26.3708 26.3695 26.4329 25.9646C26.4392 25.9235 26.4492 25.8831 26.4559 25.8421C26.5572 25.2215 26.5569 25.2159 25.9543 25.2224C25.4336 25.2188 24.9188 25.1121 24.4394 24.9087C24.1078 24.7642 23.8 24.5703 23.5264 24.3336C23.2449 24.0821 23.2359 23.6856 23.4962 23.4648C23.5717 23.3932 23.6682 23.3476 23.7715 23.3347C23.8748 23.3219 23.9795 23.3424 24.0703 23.3933C24.2397 23.4756 24.3692 23.613 24.5302 23.7053C25.4512 24.1932 26.3737 24.3143 27.307 23.7327C28.5191 22.9774 28.9367 21.2844 28.2094 20.0572C28.0561 19.7986 28.027 19.7926 27.7894 19.9703C27.6781 20.0639 27.5583 20.147 27.4316 20.2184C27.3147 20.2779 27.1806 20.2939 27.053 20.2637C26.9254 20.2334 26.8128 20.1587 26.7352 20.053C26.5694 19.8316 26.574 19.5326 26.8111 19.3555C27.2491 19.0282 27.469 18.6086 27.5441 18.0737C27.5917 17.7354 27.8253 17.6028 28.1537 17.6421C28.4389 17.6763 28.6142 17.8803 28.5904 18.2199C28.5676 18.5436 28.5767 18.8271 28.8527 19.0633C29.0106 19.1984 29.1021 19.1999 29.2365 19.0525C29.64 18.6263 29.927 18.1033 30.0698 17.534C30.2126 16.9647 30.2065 16.3683 30.052 15.802C29.8976 15.2358 29.5999 14.7188 29.1878 14.3009C28.7756 13.8831 28.2628 13.5783 27.6988 13.416C27.4469 13.3534 27.1895 13.3155 26.9302 13.3029C26.7114 13.2899 26.4927 13.2499 26.3424 13.0637C26.1196 12.7877 26.2352 12.4025 26.5899 12.2239C27.4678 12.1351 28.2748 12.3531 29.0298 12.7931C29.0925 12.8297 29.1542 12.8679 29.2183 12.9021C29.3497 12.9723 29.407 12.9294 29.4165 12.7848C29.4478 12.4474 29.3945 12.1076 29.2614 11.796C29.1284 11.4843 28.9199 11.2108 28.6546 10.9999C28.5397 10.9112 28.4192 10.8298 28.2939 10.7563C27.9406 10.529 27.879 10.3975 27.9663 9.97721C28.0529 9.62393 28.0668 9.25673 28.0072 8.8979C27.7635 7.66291 27.0452 6.88604 25.8057 6.61004C25.1419 6.42215 24.5131 6.537 23.9044 6.82784C23.8764 6.84124 23.8487 6.85548 23.8205 6.86868C23.4508 7.04206 23.1277 6.9715 22.9856 6.68647C22.8426 6.39961 22.9628 6.08272 23.3142 5.88448C23.8411 5.58948 24.4316 5.42649 25.0353 5.40943C25.3568 5.39559 25.381 5.36887 25.3648 5.04486C25.312 3.98583 24.4465 2.96902 23.3226 2.64582C23.2829 2.6344 23.2419 2.62763 23.2017 2.61761C22.1242 2.45047 21.2053 2.71452 20.5145 3.602C20.4366 3.71237 20.3471 3.81403 20.2474 3.90518C20.0293 4.08696 19.8331 4.10456 19.6225 3.96135C19.3916 3.80435 19.3033 3.5642 19.4208 3.3096C19.5997 2.93298 19.8612 2.60147 20.1857 2.33965C20.4649 2.10735 20.4673 2.08365 20.2445 1.78867C19.7539 1.13914 18.8158 0.86424 17.9996 1.1308C17.1496 1.4084 16.5587 2.16649 16.5484 2.9965C16.5448 3.28716 16.5551 3.57814 16.5454 3.86849C16.5383 4.07781 16.6211 4.14516 16.8311 4.17549C19.0568 4.49689 20.8246 5.55857 22.0675 7.45389C22.1571 7.58168 22.2259 7.72281 22.2715 7.87209C22.3417 8.12858 22.2354 8.3155 22.035 8.46493C21.6765 8.60896 21.5555 8.56748 21.2219 8.18767C20.1088 6.45136 18.5429 5.45899 16.4758 5.25745C13.2011 4.93817 10.4205 7.38149 9.92648 10.2512C9.56759 12.3361 10.1417 14.1543 11.5991 15.6905C11.8066 15.9092 12.032 16.1096 12.2448 16.3227C13.0819 17.1602 13.6277 18.2445 13.8017 19.4156C13.8253 19.56 13.8359 19.7044 14.0251 19.7454C14.407 19.8281 14.5258 19.7192 14.4419 19.3355C14.2778 18.5845 14.1056 17.8353 13.9439 17.0838C13.9083 16.9639 13.8986 16.8377 13.9156 16.7138C13.9418 16.5963 14.0049 16.4903 14.0957 16.4112C14.1865 16.3321 14.3002 16.2842 14.4202 16.2743C14.6664 16.255 14.8876 16.406 14.9776 16.6835C15.0857 17.0524 15.1736 17.427 15.2409 17.8056C15.353 18.3447 15.485 18.8795 15.5914 19.4197C15.6362 19.6471 15.7427 19.7588 15.9912 19.7566C16.241 19.7544 16.3042 19.609 16.3478 19.4101C16.8721 17.0153 17.4007 14.6215 17.9335 12.2286C17.9509 12.1507 18.0065 12.0534 17.9428 11.9914C17.8602 11.911 17.7608 11.9907 17.6874 12.0315C17.2789 12.2585 16.953 12.1307 16.6574 11.8187C16.5003 11.6529 16.3306 11.4988 16.174 11.3326C16.0258 11.1753 15.899 11.1867 15.7554 11.3398C15.5849 11.5215 15.4037 11.6933 15.2272 11.8694C14.9579 12.1382 14.6616 12.243 14.2989 12.0519C14.2121 12.0062 14.095 11.9151 14.0122 11.9869C13.9178 12.0689 13.9971 12.203 14.0214 12.3092C14.1716 12.9675 14.3127 13.6279 14.4625 14.2863C14.5767 14.7878 14.4366 15.1133 14.0791 15.2024C13.7561 15.2829 13.4934 15.0264 13.383 14.5349C13.1509 13.5011 12.921 12.4668 12.6933 11.4319C12.6287 11.1403 12.5286 10.8242 12.8094 10.588C13.0834 10.3575 13.378 10.4799 13.6619 10.5922C13.8551 10.6686 14.0546 10.7332 14.2389 10.8274C14.4948 10.9581 14.6841 10.9015 14.8688 10.6911C15.0602 10.4729 15.2739 10.2736 15.4838 10.0722C15.8186 9.751 16.1234 9.75337 16.4614 10.0795C16.6782 10.2887 16.8969 10.497 17.099 10.72C17.2723 10.9113 17.4499 10.9433 17.6809 10.8336C17.9057 10.7269 18.1414 10.6426 18.3746 10.5542C19.035 10.3042 19.4001 10.599 19.2696 11.2983C19.1591 11.8902 19.0164 12.4763 18.8819 13.0636C18.6082 14.2583 18.3658 15.46 18.0856 16.6532C17.8941 17.5564 17.686 18.4559 17.4938 19.3589C17.4644 19.4972 17.3367 19.6978 17.6227 19.7475C17.937 19.8021 18.0839 19.7208 18.126 19.4525C18.3239 18.1908 18.8653 17.1101 19.7984 16.2277C20.334 15.7213 20.852 15.1978 21.2282 14.5531C21.9997 13.2308 22.2776 11.8177 22.0287 10.3029C21.9542 9.84955 22.0616 9.66686 22.4501 9.53468C22.856 9.54621 23.0177 9.67731 23.1027 10.0951C23.3229 11.2118 23.2571 12.3659 22.9114 13.4503C22.5739 14.6141 21.9377 15.6694 21.066 16.5112C20.4801 17.0718 19.8921 17.6323 19.5797 18.41C19.4205 18.8062 19.2679 19.2021 19.2249 19.6319C19.2106 19.7746 19.2253 19.8953 19.3476 19.9937C19.7023 20.2789 19.8195 20.6648 19.7928 21.1035C19.7763 21.375 19.7881 21.6015 20.1207 21.7067C20.3126 21.7674 20.406 21.9755 20.3971 22.1913C20.4 22.2917 20.3701 22.3903 20.3121 22.4722C20.254 22.5542 20.1709 22.6151 20.0752 22.6456C19.8189 22.7257 19.7908 22.8985 19.7907 23.1257C19.7904 24.0677 19.5295 24.3938 18.6216 24.5937C18.5545 24.6008 18.492 24.6316 18.4455 24.6806C18.399 24.7296 18.3715 24.7936 18.3679 24.861C18.2501 25.7506 17.7088 26.2417 16.864 26.4247C16.6225 26.477 16.539 26.5872 16.5474 26.8272C16.5619 27.2422 16.5642 27.6586 16.5486 28.0736C16.5162 28.7561 16.7473 29.4249 17.1941 29.9419C17.9271 30.732 18.8229 31.0821 19.8839 30.84C20.9273 30.6018 21.5984 29.9197 21.9289 28.9087C22.042 28.5302 22.0626 28.1301 21.9892 27.7419C21.9526 27.538 21.9046 27.3364 21.8455 27.1378C21.808 27.0069 21.8205 26.8667 21.8805 26.7445C21.9405 26.6222 22.0437 26.5266 22.1702 26.4761C22.4258 26.3724 22.69 26.4797 22.8511 26.7524C22.9235 26.89 22.9771 27.0367 23.0102 27.1887C23.119 27.6749 23.1836 28.1609 23.1018 28.6629C23.0437 29.0198 23.0698 29.0293 23.4343 28.9594C23.8818 28.8711 24.3123 28.7121 24.7098 28.4884C25.0609 28.2945 25.2628 28.3456 25.4408 28.6341Z" fill="#2B2D54"/>
<path d="M7.81649 2.30625C7.97815 2.60641 8.20663 2.67464 8.53997 2.58435C9.75606 2.25495 10.8111 2.64365 11.5725 3.67373C11.8144 4.00101 12.0575 4.07692 12.3018 3.90146C12.5523 3.72204 12.5589 3.44526 12.3228 3.11244C12.1017 2.78472 11.8282 2.49557 11.5133 2.25655C11.3842 2.16295 11.3773 2.09314 11.4595 1.95716C11.9238 1.18882 12.9038 0.792116 13.8385 1.0074C14.7045 1.20684 15.4188 2.0258 15.4743 2.90304C15.4973 3.26545 15.482 3.63013 15.4971 3.99324C15.5043 4.16583 15.4426 4.22876 15.2703 4.24272C12.3481 4.47958 9.59002 6.69609 8.95035 9.91874C8.43643 12.5078 9.1614 14.7697 11.0798 16.5965C11.9079 17.385 12.5388 18.256 12.7612 19.3917C12.8164 19.6739 12.8815 19.9288 12.5574 20.1384C12.3212 20.2913 12.2284 20.5821 12.2277 20.8783C12.2273 21.0861 12.2195 21.2943 12.2303 21.5016C12.2378 21.6472 12.1932 21.6973 12.0415 21.7037C11.7756 21.715 11.6227 21.8784 11.608 22.1398C11.5929 22.4086 11.7533 22.5961 12.003 22.6134C12.2396 22.6298 12.2351 22.7444 12.2287 22.9079C12.223 23.0532 12.2271 23.1988 12.2276 23.3443C12.2302 24.0412 12.6637 24.4918 13.3699 24.4991C13.5744 24.5012 13.6204 24.5653 13.6412 24.7567C13.7435 25.6967 14.3348 26.2725 15.273 26.3743C15.3639 26.3842 15.4997 26.3302 15.4935 26.506C15.4656 27.2929 15.5995 28.0929 15.3976 28.8648C15.2311 29.537 14.8217 30.1238 14.2482 30.512C13.6748 30.9003 12.9779 31.0624 12.2919 30.9673C10.7105 30.7208 9.69257 29.4095 9.8393 27.8973C9.86718 27.6507 9.91907 27.4075 9.99423 27.171C10.0873 26.8596 9.97238 26.6018 9.70353 26.5209C9.44893 26.4442 9.21674 26.5828 9.10806 26.881C8.86792 27.5154 8.81432 28.2052 8.9536 28.8691C9.00794 29.1235 8.93848 29.1152 8.73375 29.0857C7.00895 28.8375 5.71796 27.6222 5.39114 25.9093C5.34685 25.6772 5.27692 25.3917 5.36973 25.2065C5.48397 24.9786 5.78872 25.1513 6.006 25.1432C6.85176 25.1114 7.61016 24.8612 8.27506 24.3342C8.57506 24.0965 8.65022 23.8242 8.47645 23.5944C8.28212 23.3375 8.02922 23.3391 7.69201 23.5986C7.38425 23.8463 7.02631 24.0241 6.64299 24.1196C6.25968 24.2152 5.86016 24.2263 5.47215 24.152C4.37676 23.9601 3.41881 22.9127 3.30789 21.7971C3.2367 21.0811 3.35517 20.4161 3.78304 19.8212C3.87701 19.6906 3.94389 19.6313 4.07804 19.7919C4.20595 19.9431 4.36393 20.0661 4.54193 20.1529C4.78065 20.2708 5.04019 20.2066 5.16621 19.9907C5.30165 19.7585 5.26398 19.5297 5.05015 19.3844C4.59462 19.0748 4.36913 18.6594 4.32617 18.114C4.32574 18.0509 4.31149 17.9887 4.28444 17.9318C4.25739 17.8748 4.21819 17.8245 4.16959 17.7843C4.12099 17.7441 4.06418 17.7151 4.00316 17.6992C3.94213 17.6834 3.87837 17.6811 3.81636 17.6925C3.5563 17.7213 3.39457 17.9254 3.39912 18.2202C3.3967 18.2514 3.40021 18.2828 3.40947 18.3127C3.61303 18.7791 3.22239 19.003 3.00086 19.2869C2.88088 19.4406 2.80388 19.2592 2.73756 19.1961C2.19116 18.6649 1.83411 17.9691 1.72119 17.2154C1.60826 16.4618 1.7457 15.6919 2.11241 15.0239C2.73478 13.9132 3.68738 13.295 4.97119 13.2144C5.04382 13.2114 5.11624 13.2045 5.18813 13.1938C5.50842 13.1386 5.65728 12.9558 5.62485 12.6623C5.59604 12.4015 5.40327 12.2528 5.09115 12.2596C4.23646 12.2662 3.4034 12.529 2.69963 13.014C2.49685 13.1545 2.44904 13.1236 2.43252 12.8879C2.364 11.9103 2.74269 11.1727 3.59971 10.6964C3.89046 10.5348 3.9772 10.3316 3.8989 10.0056C3.4971 8.33251 4.56698 6.76831 6.26614 6.48306C6.91359 6.37215 7.57952 6.4837 8.15547 6.79956C8.47196 6.9649 8.74918 6.91049 8.88449 6.66438C9.0277 6.40392 8.91639 6.13987 8.58173 5.96045C8.0155 5.6569 7.41178 5.47786 6.76791 5.50083C6.49999 5.51039 6.46639 5.41198 6.4794 5.18449C6.49733 4.70668 6.64049 4.24197 6.89453 3.83689C7.07331 3.55925 7.06607 3.31935 6.85174 3.0774C7.17336 2.82038 7.49495 2.56333 7.81649 2.30625Z" fill="#4B73F3"/>
<path d="M24.4482 24.8307C25.0834 25.0786 25.7391 25.1999 26.4195 25.1122C26.6187 25.0865 26.5911 25.2 26.59 25.3101C26.5842 25.9008 26.4445 26.4825 26.1813 27.0114C25.9921 27.3961 26.0131 27.5124 26.3206 27.7925C26.0009 28.0454 25.7794 28.4009 25.4408 28.6341C25.2001 28.4127 24.958 28.4161 24.6819 28.5886C24.2112 28.8734 23.6817 29.0468 23.1338 29.0956C23.0401 29.1057 22.9191 29.1393 22.9597 28.9821C23.1142 28.3838 23.0446 27.7895 22.9502 27.1941C22.9781 27.0928 23.0405 27.0045 23.1267 26.9445C23.6921 26.4321 24.1074 25.7754 24.3279 25.0449C24.3452 24.9629 24.3872 24.8882 24.4482 24.8307Z" fill="#4B73F3"/>
<path d="M24.4482 24.8307C24.2411 25.8037 23.7136 26.5737 22.9502 27.1941C22.9044 27.0703 22.8632 26.9445 22.8117 26.823C22.703 26.5661 22.4471 26.4431 22.2099 26.5282C22.0931 26.5714 21.9978 26.6586 21.9443 26.7711C21.8908 26.8835 21.8833 27.0125 21.9235 27.1304C21.9804 27.3366 22.0765 27.5337 22.07 27.7548C22.0129 27.8981 21.8806 27.9377 21.753 27.9795C21.3387 28.115 20.9195 28.2218 20.4775 28.2113C20.3013 28.2022 20.1258 28.2389 19.9681 28.3179C19.8103 28.3969 19.6758 28.5155 19.5776 28.662C19.0715 29.3511 18.4122 29.8284 17.5679 30.027C17.425 30.0606 17.284 30.0946 17.1503 29.9998C16.7316 29.5626 16.4875 28.9872 16.4639 28.3823C16.4385 27.7811 16.4519 27.1783 16.4413 26.5764C16.4388 26.4384 16.4691 26.3868 16.6246 26.3696C17.6438 26.2568 18.1673 25.7371 18.3017 24.7046C18.3226 24.5437 18.371 24.5065 18.5262 24.5011C19.3175 24.4736 19.7098 24.0565 19.7102 23.2623C19.7102 23.1896 19.7119 23.1169 19.7099 23.0443C19.7035 22.8226 19.6617 22.6099 20.0108 22.585C20.24 22.5687 20.3511 22.3523 20.3287 22.1211C20.3052 21.879 20.1635 21.7113 19.9086 21.7051C19.7387 21.7009 19.699 21.6351 19.7078 21.483C19.718 21.3071 19.7072 21.1301 19.7108 20.9537C19.7225 20.7717 19.686 20.5898 19.605 20.4264C19.524 20.263 19.4013 20.1239 19.2493 20.023C19.1969 19.9935 19.1558 19.9474 19.1325 19.8919C19.1092 19.8364 19.1051 19.7748 19.1207 19.7167C19.2557 18.5835 19.8071 17.541 20.6679 16.7918C21.6513 15.9079 22.375 14.8564 22.783 13.593C23.1596 12.4677 23.2416 11.2646 23.0212 10.0986C22.9464 9.70789 22.8472 9.617 22.4487 9.59348C22.414 9.58236 22.3829 9.5623 22.3585 9.53533C22.334 9.50836 22.3171 9.47542 22.3094 9.43984C22.2332 9.09447 21.9929 8.79793 22.0084 8.42573C22.2883 8.12334 22.3064 7.98315 22.0844 7.63421C20.8216 5.64963 19.0217 4.51949 16.6846 4.2438C16.5743 4.23103 16.4387 4.24998 16.4446 4.07616C16.4618 3.57006 16.3805 3.05663 16.5244 2.55972C16.7906 1.64075 17.4184 1.09702 18.3506 0.966346C19.2093 0.845981 19.9074 1.18459 20.4297 1.88322C20.5576 2.05433 20.5705 2.16881 20.3722 2.30195C20.0589 2.51235 19.8248 2.80787 19.6071 3.1129C19.3691 3.44636 19.3818 3.72221 19.6349 3.90178C19.8875 4.08099 20.1316 4.00244 20.3812 3.64826C20.799 3.05546 21.3466 2.65467 22.068 2.53054C22.444 2.46585 22.8274 2.43434 23.2024 2.56013C23.514 3.03342 23.5414 3.56808 23.5226 4.1076C23.5091 4.49648 23.505 4.51433 23.8709 4.64996C24.2429 4.77767 24.5899 4.96863 24.8969 5.21443C24.9815 5.28515 25.0922 5.34213 25.0707 5.48285C24.4505 5.51494 23.8459 5.68796 23.3026 5.98877C23.0138 6.15441 22.9157 6.41241 23.0464 6.65923C23.1731 6.89831 23.4483 6.96366 23.7418 6.81364C24.4049 6.47477 25.0892 6.30597 25.8277 6.53203C25.9426 6.63627 26.0208 6.7748 26.0506 6.92703C26.1438 7.3314 26.2294 7.73428 26.1646 8.15408C26.137 8.31339 26.1532 8.47719 26.2115 8.62799C26.2698 8.77879 26.3679 8.91093 26.4954 9.01029C27.0003 9.44675 27.3774 9.96203 27.5249 10.6316C27.6136 11.0585 27.6034 11.5001 27.4949 11.9224C27.4359 12.1734 27.3087 12.2974 27.0363 12.2619C26.9028 12.2421 26.7668 12.2456 26.6345 12.2723C26.3755 12.372 26.2675 12.5619 26.3174 12.8319C26.3679 13.1049 26.578 13.1843 26.8177 13.2034C27.1348 13.2286 27.4559 13.2229 27.7547 13.357C28.1289 13.6987 28.1921 14.1755 28.2595 14.629C28.47 16.0438 28.0381 17.255 26.9998 18.235C26.6731 18.5433 26.5714 18.8569 26.6427 19.3132C26.8747 20.7966 26.4039 22.0106 25.1249 22.859C24.8582 23.0359 24.6694 23.2449 24.6483 23.58C24.6433 23.6603 24.65 23.7805 24.5049 23.7678C24.3773 23.7397 24.2968 23.6395 24.1992 23.5663C23.9023 23.3439 23.6563 23.3484 23.4669 23.5832C23.2923 23.7995 23.3566 24.0903 23.6168 24.3055C23.8775 24.5053 24.1558 24.6811 24.4482 24.8307Z" fill="#4B73F3"/>
<path d="M18.0252 16.6546C18.224 15.7249 18.42 14.7946 18.6225 13.8657C18.8119 12.9967 19.011 12.1299 19.1998 11.2608C19.2487 11.036 19.2867 10.8015 19.0717 10.6286C18.8618 10.4599 18.643 10.529 18.4262 10.6182C18.1299 10.74 17.8296 10.853 17.539 10.9871C17.4871 11.0195 17.425 11.0314 17.3648 11.0204C17.3046 11.0093 17.2507 10.9762 17.2137 10.9274C16.9375 10.6456 16.6524 10.3724 16.3677 10.0991C16.0839 9.8266 15.8496 9.82918 15.5618 10.1065C15.2851 10.3731 15.0064 10.6381 14.7386 10.9135C14.6294 11.0259 14.5375 11.0531 14.3878 10.9847C14.0687 10.8387 13.7417 10.7086 13.4131 10.5848C12.9508 10.4107 12.6262 10.663 12.7266 11.1455C12.9772 12.3501 13.2481 13.5506 13.5224 14.75C13.59 15.0459 13.8224 15.1868 14.0692 15.128C14.3433 15.0627 14.4854 14.8431 14.421 14.536C14.247 13.7061 14.0621 12.8785 13.8797 12.0503C13.8455 11.9674 13.843 11.8747 13.8727 11.79C14.0619 11.8662 14.2528 11.9368 14.4383 12.0194C14.6894 12.1313 14.8985 12.0772 15.0873 11.8871C15.3214 11.6512 15.5682 11.4273 15.7944 11.1842C15.9194 11.0501 15.9998 11.0238 16.1359 11.1756C16.3434 11.4073 16.5846 11.6085 16.7966 11.8364C17.0249 12.0819 17.269 12.1457 17.5743 11.9859C17.7505 11.9054 17.9306 11.8339 18.114 11.7716C17.9885 12.3513 17.8734 12.8927 17.7539 13.4331C17.3051 15.4625 16.8442 17.4893 16.4158 19.523C16.3448 19.8598 16.1561 19.8056 15.9344 19.8283C15.6796 19.8544 15.5776 19.769 15.5257 19.5144C15.3418 18.6128 15.1356 17.7156 14.9305 16.8184C14.8436 16.4381 14.6272 16.2775 14.3303 16.3486C14.0565 16.4141 13.9426 16.6614 14.0215 17.0197C14.206 17.8579 14.3843 18.6976 14.5794 19.5333C14.636 19.7753 14.5726 19.8346 14.3304 19.8282C13.8055 19.8144 13.8084 19.8264 13.71 19.3171C13.4876 18.0719 12.852 16.9381 11.9057 16.0987C10.4555 14.8028 9.71909 13.1796 9.73714 11.2334C9.76423 8.31262 12.0128 5.68945 14.9026 5.24305C17.4917 4.84309 19.5546 5.76077 21.1085 7.85336C21.1706 7.94745 21.2271 8.04514 21.2776 8.14593C21.4994 8.51297 21.5462 8.93231 21.5825 9.34003C21.7534 11.2614 21.2959 13.0001 20.0299 14.4943C19.7985 14.7735 19.5426 15.0313 19.2652 15.2648C18.8972 15.586 18.5805 15.9615 18.326 16.3783C18.2525 16.4914 18.2087 16.6543 18.0252 16.6546Z" fill="#F08300"/>
<path d="M24.5048 23.7678C24.5126 23.761 24.5273 23.7541 24.5273 23.7473C24.5247 23.1265 25.0027 22.8879 25.4087 22.5486C26.46 21.67 26.8268 20.5197 26.5434 19.1775C26.472 18.8396 26.5251 18.5671 26.7872 18.3372C27.4351 17.7691 27.8965 17.0816 28.1113 16.2402C28.3684 15.2331 28.2265 14.2744 27.7546 13.357C29.0793 13.7487 29.8793 14.653 30.1711 15.9717C30.4427 17.1995 30.0871 18.283 29.2136 19.1937C29.0736 19.3396 28.9612 19.4014 28.842 19.1788C28.8086 19.1137 28.7608 19.0572 28.7021 19.0134C28.4846 18.8624 28.4538 18.6616 28.5068 18.4203C28.5297 18.3087 28.5335 18.1941 28.518 18.0812C28.5113 17.9757 28.4645 17.8767 28.3872 17.8046C28.3099 17.7325 28.2079 17.6928 28.1022 17.6935C27.8566 17.6777 27.6788 17.7885 27.6209 18.0394C27.5907 18.1701 27.5909 18.3077 27.5636 18.4393C27.4868 18.7974 27.2747 19.1121 26.9716 19.3177C26.6858 19.526 26.6199 19.7693 26.7765 20.0033C26.9397 20.2472 27.2223 20.2797 27.5129 20.0831C27.5979 20.0237 27.6793 19.9593 27.7566 19.8902C28.0474 19.6375 28.0587 19.6299 28.2467 19.9583C28.7886 20.905 28.8168 21.8755 28.2714 22.8202C27.7535 23.7171 26.9773 24.2393 25.9038 24.1938C25.407 24.1728 24.9232 24.0666 24.5048 23.7678Z" fill="#4B73F3"/>
<path d="M18.0252 16.6546C18.3881 16.1786 18.6729 15.6367 19.1495 15.2556C19.8411 14.7025 20.3619 14.0134 20.7779 13.2422C21.2017 12.4682 21.4529 11.6117 21.514 10.7314C21.5773 9.86244 21.4974 8.98902 21.2776 8.146C21.4619 8.3941 21.6728 8.57293 22.0084 8.42569C22.1551 8.81497 22.3019 9.20423 22.4486 9.59347C22.1347 9.69268 22.0376 9.91792 22.0888 10.2234C22.486 12.5906 21.736 14.5477 19.9814 16.1512C18.9891 17.058 18.3752 18.173 18.213 19.5133C18.1756 19.8221 18.0232 19.8353 17.7814 19.8278C17.3096 19.8132 17.3028 19.8221 17.4037 19.3717C17.6067 18.4651 17.8176 17.5602 18.0252 16.6546Z" fill="#F08300"/>
<path d="M26.6345 12.2724C26.745 12.1845 26.8781 12.2129 26.9937 12.23C27.2629 12.2698 27.364 12.1332 27.4177 11.901C27.6383 10.9457 27.4449 10.102 26.7546 9.38863C26.6448 9.26441 26.5265 9.14793 26.4006 9.04002C26.1049 8.80921 26.0265 8.49922 26.0748 8.15471C26.1544 7.58621 26.0206 7.056 25.8276 6.53204C27.3823 6.762 28.4268 8.3944 28.0384 10.0079C27.9598 10.3343 28.049 10.5357 28.3388 10.6969C29.1944 11.173 29.5733 11.9101 29.5049 12.8863C29.4893 13.1082 29.4543 13.1655 29.2404 13.021C28.4775 12.4922 27.5617 12.2291 26.6345 12.2724Z" fill="#4B73F3"/>
<path d="M17.1503 29.9998C18.1158 29.9344 18.8688 29.4561 19.4312 28.712C19.7479 28.293 20.1002 28.115 20.6087 28.1214C21.1179 28.116 21.6186 27.9904 22.07 27.7548C22.1636 28.3598 22.057 28.9788 21.7664 29.5177C21.4758 30.0565 21.0171 30.4857 20.4601 30.7399C19.9031 30.994 19.2784 31.0593 18.6809 30.9257C18.0834 30.7921 17.546 30.467 17.1503 29.9998Z" fill="#4B73F3"/>
<path d="M25.0707 5.48284C24.7016 5.08902 24.2382 4.84869 23.7327 4.69096C23.4651 4.60744 23.3847 4.47312 23.4308 4.19043C23.5064 3.72702 23.4154 3.26971 23.2684 2.82661C23.2274 2.74359 23.2049 2.65267 23.2024 2.56012C24.1641 2.67718 25.1484 3.61359 25.3827 4.64154C25.4211 4.80196 25.4436 4.96579 25.4498 5.13064C25.4607 5.56641 25.5026 5.49931 25.0707 5.48284Z" fill="#4B73F3"/>
<path d="M13.2341 23.5107C13.0748 23.255 13.1913 22.9755 13.17 22.7081C13.1614 22.6006 13.2747 22.6351 13.338 22.6352C14.2979 22.6371 15.2579 22.6406 16.2179 22.6459C16.3772 22.8833 16.3202 23.1418 16.2859 23.396C16.2844 23.4169 16.2788 23.4374 16.2694 23.4561C16.2599 23.4748 16.2468 23.4915 16.2309 23.5051C16.2149 23.5187 16.1964 23.529 16.1764 23.5353C16.1564 23.5416 16.1353 23.5439 16.1144 23.542C15.1544 23.526 14.1935 23.5848 13.2341 23.5107Z" fill="#81F4E1"/>
<path d="M13.178 21.6423C13.1092 20.763 13.1092 20.7614 13.959 20.7635C14.712 20.7653 15.4649 20.7712 16.2179 20.7753C16.377 21.0122 16.3198 21.2703 16.2862 21.524C16.2849 21.545 16.2795 21.5654 16.2702 21.5842C16.2609 21.603 16.248 21.6197 16.2321 21.6334C16.2163 21.6471 16.1979 21.6575 16.1779 21.664C16.158 21.6705 16.137 21.673 16.1161 21.6712C15.1368 21.656 14.1568 21.7126 13.178 21.6423Z" fill="#81F4E1"/>
<path d="M13.1781 21.6424C14.0985 21.6417 15.019 21.6355 15.9393 21.6447C16.1537 21.6469 16.2401 21.5847 16.2222 21.3645C16.2062 21.1693 16.2183 20.9718 16.218 20.7753C16.9945 20.7714 17.771 20.769 18.5475 20.7624C18.6995 20.7611 18.7657 20.8142 18.7784 20.9768C18.8348 21.6949 18.8396 21.6943 18.1174 21.6945C16.5636 21.6951 15.0099 21.6947 13.4562 21.6933C13.365 21.6931 13.2521 21.7564 13.1781 21.6424Z" fill="#81F4E1"/>
<path d="M13.2341 23.5107C14.1353 23.5109 15.0365 23.5054 15.9375 23.5153C16.1505 23.5176 16.2406 23.4585 16.2221 23.2361C16.2059 23.0406 16.2182 22.8427 16.2179 22.6459C17.0067 22.642 17.7955 22.6414 18.5842 22.6312C18.7304 22.6293 18.7812 22.6667 18.7779 22.82C18.7592 23.6914 18.8919 23.56 18.0724 23.5635C16.5669 23.5699 15.0613 23.5703 13.5557 23.5647C13.4487 23.5645 13.3261 23.6161 13.2341 23.5107Z" fill="#81F4E1"/>
<path d="M15.1984 25.3924C14.9657 25.3884 14.8225 25.2399 14.6977 25.0717C14.5883 24.9243 14.529 24.7339 14.5901 24.5753C14.652 24.4148 14.8463 24.5127 14.9779 24.5097C15.3909 24.5002 15.8045 24.5128 16.2178 24.5168C16.3884 24.7822 16.2903 25.0317 16.1669 25.2758C16.1429 25.3223 16.1053 25.3604 16.0591 25.3851C16.0129 25.4097 15.9603 25.4198 15.9083 25.4139C15.6717 25.4045 15.4338 25.4393 15.1984 25.3924Z" fill="#81F4E1"/>
<path d="M15.1984 25.3924C15.3224 25.3889 15.4465 25.3825 15.5706 25.3822C16.1063 25.3809 16.212 25.2761 16.2185 24.7343C16.2193 24.6618 16.2181 24.5893 16.2178 24.5168C16.5381 24.5129 16.8585 24.5147 17.1785 24.5025C17.3294 24.4967 17.3733 24.5445 17.3611 24.6973C17.3336 25.0405 17.119 25.3419 16.7664 25.3931C16.2467 25.4729 15.7179 25.4726 15.1984 25.3924Z" fill="#81F4E1"/>
</g>
<defs>
<clipPath id="clip0_802_284">
<rect width="32" height="32" fill="white"/>
</clipPath>
</defs>
</svg>
