<svg width="88" height="68" viewBox="0 0 88 68" fill="none" xmlns="http://www.w3.org/2000/svg">
<path opacity="0.3" fill-rule="evenodd" clip-rule="evenodd" d="M0.069751 8.04737C0.108084 8.16465 0.201122 8.17862 0.27642 8.07817C0.351718 7.97773 0.400297 7.85569 0.384291 7.80673C0.368286 7.75776 0.275315 7.74399 0.177622 7.77592C0.0799301 7.80786 0.0314176 7.9301 0.069751 8.04737ZM22.4787 9.15586C22.3778 9.29702 22.1308 9.41722 21.93 9.42288C21.7291 9.42833 21.4478 9.55239 21.3047 9.69864C21.1615 9.84468 20.7264 10.0737 20.3375 10.2073C19.6713 10.436 19.6397 10.4889 19.7889 11.123C19.941 11.7694 19.7116 12.2017 19.5228 11.6242C19.3967 11.2383 18.7673 11.2087 18.6932 11.5851C18.6505 11.8023 18.5933 11.7746 18.4959 11.4899C18.3907 11.182 18.3438 11.1654 18.2942 11.4183C18.2523 11.6324 17.9221 11.8396 17.3503 12.0107C16.612 12.2313 16.4101 12.3985 16.0928 13.0525C15.8772 13.497 15.586 13.8192 15.4145 13.8028C15.2492 13.7872 15.1468 13.8747 15.1869 13.9974C15.227 14.1201 15.1428 14.2587 14.9996 14.3055C14.6566 14.4176 14.559 15.2727 14.8366 15.7333C14.9714 15.9567 14.9666 16.1784 14.8246 16.3046C14.5957 16.5079 14.1464 16.2453 14.0402 15.8458C14.0102 15.7329 14.0631 15.7408 14.1575 15.8632C14.4009 16.1782 14.6518 16.0486 14.4833 15.6949C14.4061 15.5326 14.2886 15.4204 14.2226 15.4456C14.1564 15.4706 13.9916 15.5271 13.8566 15.5712C13.6384 15.6426 13.6113 15.8292 13.7038 16.6248C13.7175 16.743 13.6522 17.0447 13.5587 17.2952C13.4005 17.7184 13.4081 17.7331 13.6661 17.5041C13.9118 17.2857 13.9635 17.3506 14.1174 18.0718C14.2172 18.5383 14.4436 19.0268 14.6478 19.2156C14.9398 19.4857 14.9737 19.6069 14.8362 19.8876C14.6979 20.1699 14.6506 20.1755 14.567 19.9198C14.4533 19.572 14.2894 19.5825 14.0168 19.9549C13.8883 20.1307 13.9057 20.2292 14.0741 20.2805C14.5206 20.4165 14.4641 20.7521 14.0126 20.6465C13.7753 20.591 13.5989 20.4484 13.6208 20.3297C13.6428 20.211 13.4498 20.2888 13.1916 20.5028C12.9337 20.7169 12.7952 20.9604 12.884 21.0442C12.9728 21.1278 13.1028 21.1199 13.1728 21.0263C13.243 20.9329 13.3246 20.9306 13.3542 21.0212C13.4509 21.317 12.9151 21.8655 12.618 21.7751C12.2427 21.6609 11.3808 22.0907 11.1547 22.5047C11.025 22.7423 11.0456 22.85 11.2321 22.9068C11.372 22.9493 11.5803 22.7662 11.6951 22.4996C11.8695 22.0944 11.9897 22.0289 12.4259 22.0997C12.713 22.1464 12.9789 22.2789 13.0166 22.3942C13.0581 22.5211 12.9698 22.5357 12.7928 22.4314C12.3443 22.1672 12.0122 22.3554 12.2818 22.7211C12.4805 22.9909 12.4607 23.0115 12.1421 22.8658C11.8253 22.7211 11.7951 22.7473 11.9367 23.0444C12.0278 23.2361 12.1986 23.3741 12.3159 23.3512C12.4333 23.3282 12.6227 23.2913 12.7368 23.2693C12.887 23.2403 12.9126 23.327 12.8295 23.5816C12.6978 23.9846 13.0729 24.2059 13.3228 23.8724C13.4322 23.7265 13.4569 23.8021 13.4135 24.1497C13.3306 24.8093 13.3632 24.8486 13.7866 24.5996C14.1543 24.3832 14.1547 24.3845 13.8123 24.7226C13.6097 24.9226 13.3202 25.0324 13.1125 24.9876C12.7148 24.9024 12.3417 25.1412 12.4335 25.4221C12.4667 25.5237 12.6138 25.5677 12.7604 25.5198C12.9069 25.4719 13.0438 25.5527 13.0647 25.6991C13.0882 25.8636 13.2477 25.8913 13.4817 25.7718C13.6903 25.6653 13.8923 25.6746 13.9307 25.7923C13.9693 25.9102 13.8457 26.0572 13.656 26.1192C13.2466 26.253 13.1226 26.6586 13.4836 26.6836C13.6226 26.693 13.7073 26.7766 13.672 26.8693C13.5657 27.1476 12.9663 26.9985 12.9694 26.6946C12.9732 26.3368 11.6609 25.4331 11.3062 25.5491C11.1203 25.6099 11.185 25.69 11.52 25.8144C12.0046 25.9943 12.9422 27.1652 12.8232 27.4418C12.7877 27.5239 12.6089 27.5206 12.4254 27.4345C12.2194 27.3377 12.0758 27.3657 12.0495 27.5076C12.0261 27.6341 12.3348 27.8801 12.7352 28.0543L13.4634 28.3707L12.8485 28.8092C12.5101 29.0505 12.0281 29.2558 11.7771 29.2654C11.4524 29.2778 11.3617 29.3577 11.4625 29.542C11.6642 29.9112 12.0136 30.0095 12.3114 29.7808C12.6424 29.5267 13.0499 30.0611 12.8926 30.5429C12.7971 30.8353 12.8217 30.883 13.0166 30.7821C13.4799 30.5425 13.7402 30.5533 13.6926 30.8102C13.6665 30.9521 13.4796 31.0728 13.2774 31.0784C13.0754 31.084 12.8943 31.1731 12.8751 31.2766C12.856 31.3801 13.0023 31.4603 13.2003 31.4549C13.3983 31.4495 13.703 31.6864 13.8773 31.9814C14.0516 32.2766 14.3132 32.5649 14.4585 32.6222C14.6242 32.6876 14.5867 32.7215 14.3583 32.713C14.1578 32.7055 13.9204 32.7236 13.8307 32.7529C13.741 32.7823 13.6083 32.6249 13.5359 32.4032C13.4634 32.1816 13.2976 32.0351 13.1674 32.0776C12.7862 32.2022 12.7589 32.479 13.1032 32.7282C13.383 32.9309 13.3131 32.9781 12.5449 33.1041C12.0618 33.1835 11.6502 33.3377 11.6301 33.4468C11.5674 33.7851 11.8915 33.8425 12.0655 33.5237C12.192 33.2919 12.2555 33.2977 12.3374 33.5484C12.3961 33.7281 12.5465 33.8494 12.6713 33.8182C12.7963 33.7867 13.0483 33.7456 13.2313 33.7268C13.4143 33.708 13.5335 33.599 13.4961 33.4843C13.4551 33.359 13.5659 33.3408 13.7738 33.4386C13.9641 33.5281 14.0964 33.7228 14.0677 33.8716C14.0391 34.0203 14.0906 34.2932 14.1822 34.478C14.2813 34.6783 14.2364 34.8506 14.071 34.9047C13.9183 34.9546 13.8396 35.1369 13.8961 35.3096C13.9591 35.5024 14.0666 35.5406 14.1743 35.4089C14.2709 35.2907 14.2421 35.4358 14.1102 35.7311C13.9783 36.0267 13.6496 36.3744 13.3797 36.5038C13.1098 36.6333 12.8644 36.834 12.8344 36.9497C12.7607 37.2343 13.1628 37.8779 13.3717 37.8096C13.4637 37.7795 13.4546 37.6755 13.3517 37.5782C13.1602 37.3979 13.4903 36.6755 13.8191 36.5554C13.9193 36.5186 14.064 36.6448 14.1406 36.8354C14.2174 37.0262 14.3253 37.2668 14.3806 37.3703C14.7737 38.1058 14.7619 38.6748 14.3449 39.0884C13.8022 39.6266 13.8333 39.8034 14.4593 39.7391C14.8066 39.7034 14.9069 39.6025 14.8313 39.3645C14.7425 39.0851 14.765 39.0733 14.9907 39.2819C15.1349 39.4154 15.212 39.5909 15.1618 39.672C15.0108 39.9149 15.3679 40.9629 15.5287 40.7486C15.6127 40.6364 15.6509 40.6714 15.6211 40.833C15.5931 40.9847 15.7477 41.2136 15.9649 41.3416C16.1819 41.4694 16.358 41.7263 16.3561 41.9122C16.354 42.1116 16.5477 42.3229 16.8279 42.4269C17.1816 42.5582 17.259 42.6625 17.1303 42.8341C17.0317 42.9656 16.8095 42.978 16.6139 42.8628C16.4252 42.7516 16.1566 42.698 16.0172 42.7436C15.5884 42.8838 15.8693 43.2445 16.4737 43.33C16.8598 43.3846 17.0641 43.5375 17.1016 43.7996C17.1322 44.0135 17.3497 44.3151 17.5851 44.4697C17.8543 44.6468 18.009 44.9 18.0025 45.1531C17.993 45.5157 17.9625 45.5156 17.6898 45.152C17.2678 44.5894 16.7903 44.787 17.0485 45.4174C17.1593 45.6879 17.3037 45.8916 17.3696 45.87C17.4354 45.8485 17.6154 46.0446 17.7699 46.3059C18.1192 46.8972 18.3083 46.6672 18.3616 45.5864C18.3842 45.1274 18.4742 44.8483 18.5617 44.9663C18.6494 45.0841 18.6937 45.3977 18.6604 45.6633C18.6271 45.9289 18.6681 46.2108 18.7519 46.2896C18.8354 46.3684 18.7604 46.5321 18.5849 46.6533C18.4094 46.7744 18.3165 47.0285 18.3785 47.2181C18.465 47.4827 18.5933 47.5029 18.931 47.3051C19.376 47.0448 20.7115 47.1801 20.8239 47.4969C20.8574 47.591 20.7493 47.6553 20.5835 47.6395C20.1787 47.601 20.0764 48.3936 20.4575 48.6181C20.6695 48.743 20.6876 48.8 20.5313 48.8511C20.3158 48.9215 19.7535 48.4175 19.6317 48.0447C19.5931 47.9266 19.6973 47.7855 19.8634 47.7312C20.0982 47.6545 20.1004 47.5942 19.8732 47.4604C19.646 47.3266 19.5512 47.3576 19.4469 47.5997C19.3731 47.771 19.1689 47.9582 18.9931 48.0157C18.8172 48.0732 18.7196 48.2617 18.776 48.4344C18.8325 48.607 18.9347 48.6738 19.0033 48.5824C19.2395 48.2675 19.7735 48.4787 19.9269 48.9478C20.1031 49.4868 20.5409 49.7017 20.6177 49.287C20.6556 49.0823 20.7548 49.0693 20.9899 49.2384C21.1755 49.3718 21.285 49.5987 21.25 49.7772C21.1668 50.2012 21.2432 50.4425 21.5823 50.8262C21.8292 51.1054 21.811 51.156 21.4605 51.1657C20.9523 51.1797 21.0029 51.3808 21.6214 51.8061C22.1659 52.1803 22.4492 52.1678 22.161 51.7824C21.8157 51.3208 22.1711 51.2057 22.5494 51.6568C22.7491 51.8951 23.0065 52.0335 23.121 51.9647C23.2357 51.8957 23.3466 51.9594 23.3675 52.1058C23.3883 52.2524 23.5253 52.333 23.6719 52.2851C23.9601 52.1909 24.0387 52.3229 24.3296 53.3886C24.5074 54.04 24.5329 54.058 24.706 53.6559C24.9379 53.1173 24.9407 53.1168 25.0947 53.588C25.1644 53.8013 25.1372 53.9503 25.034 53.9189C24.9307 53.8875 25.0107 54.0153 25.2113 54.2029C25.4566 54.4323 25.5929 54.4548 25.6266 54.2721C25.6917 53.9205 26.2871 54.1797 26.6449 54.7158C26.9808 55.2189 28.0279 55.8258 28.1892 55.6107C28.2593 55.5173 28.3609 55.6146 28.4152 55.8268C28.4864 56.1066 28.4045 56.2182 28.117 56.2318C27.7206 56.251 27.7206 56.251 28.2065 56.5345C28.4738 56.6906 28.8496 56.7576 29.0417 56.6837C29.2714 56.595 29.4217 56.6716 29.481 56.9074C29.5308 57.1046 29.6159 57.2063 29.6704 57.1336C29.8202 56.9339 30.725 57.3226 30.8255 57.6301C30.8739 57.7782 31.0563 57.9128 31.2307 57.9294C31.4051 57.946 31.5281 58.0671 31.5036 58.1986C31.4653 58.4066 31.8642 58.4115 32.2431 58.2078C32.3122 58.1707 32.4278 58.3218 32.5003 58.5435C32.6456 58.988 32.4 59.1838 32.1447 58.827C32.0559 58.7028 31.9424 58.6873 31.8924 58.7926C31.7706 59.0503 32.3869 59.4734 32.9608 59.5257C33.2162 59.5493 33.4703 59.7067 33.5255 59.8755C33.5808 60.0446 33.7034 60.1575 33.7981 60.1266C33.8926 60.0957 33.8795 59.9494 33.7691 59.8015C33.6584 59.6537 33.6564 59.5038 33.7646 59.4684C33.8728 59.433 33.9926 59.5002 34.031 59.6175C34.0693 59.7348 34.1627 59.7482 34.2386 59.6471C34.3144 59.5458 34.4704 59.5887 34.5853 59.7423C34.7002 59.8959 34.8491 59.948 34.9166 59.8579C34.984 59.7681 35.0839 59.8314 35.1385 59.9986C35.1932 60.1659 35.1301 60.4336 34.9983 60.5938C34.7961 60.839 34.812 60.923 35.0992 61.1293C35.4955 61.4144 35.9639 61.3208 35.8522 60.9791C35.7202 60.5751 36.0747 60.903 36.277 61.3721C36.3829 61.6174 36.5019 61.8827 36.5415 61.9619C36.5813 62.041 36.9286 62.0026 37.3137 61.8768C38.0721 61.6289 38.3278 61.729 38.2337 62.2375C38.1532 62.6731 38.9063 63.3365 39.2676 63.1481C39.421 63.0681 39.755 63.1155 40.0097 63.2537C40.2645 63.3919 40.5245 63.4362 40.5875 63.3521C40.6505 63.2682 40.7006 63.3477 40.6988 63.5291C40.6938 64.0143 41.3102 64.5918 41.5784 64.3536C41.7218 64.226 41.8442 64.2737 41.9127 64.4834C41.9993 64.7482 42.076 64.7501 42.2962 64.4935C42.6484 64.0833 42.8058 64.0334 42.7473 64.3509C42.6648 64.7965 43.2178 65.5181 43.5358 65.3801C44.2321 65.0778 44.6743 65.0534 44.625 65.3204C44.5886 65.517 44.7236 65.5054 45.1012 65.2796C45.4625 65.0636 45.6132 65.046 45.5803 65.2236C45.5487 65.3947 45.6412 65.3982 45.8523 65.2337C46.0282 65.0969 46.2598 65.0675 46.3669 65.1684C46.474 65.2694 46.6708 65.255 46.8043 65.1364C47.0147 64.9495 47.0233 64.9841 46.8694 65.3964C46.6205 66.0628 46.7022 66.1679 47.3131 65.9682C47.6062 65.8724 47.8163 65.7033 47.7801 65.5925C47.6785 65.2818 48.1769 65.1987 48.6105 65.4542C48.8246 65.5803 49.1054 65.5891 49.2351 65.474C49.5122 65.2277 50.2601 65.3606 50.3627 65.6743C50.4018 65.7942 50.2729 65.8966 50.0763 65.902C49.7839 65.9101 49.7644 65.999 49.9695 66.3901C50.1633 66.7601 50.152 66.8499 49.9191 66.7864C49.7536 66.7413 49.7053 66.7615 49.8121 66.8312C49.9186 66.901 50.192 66.9309 50.4193 66.8979C50.6468 66.8648 50.9265 66.8929 51.0412 66.9605C51.1559 67.028 51.3893 66.9867 51.5601 66.8687C51.7929 66.7081 51.8019 66.6045 51.596 66.4566C51.4156 66.3269 51.368 66.1963 51.4577 66.0767C51.5329 65.9765 51.7407 66.0491 51.9193 66.2383C52.0979 66.4275 52.2983 66.5535 52.3648 66.5187C52.7682 66.3058 52.9825 66.3622 52.8865 66.6561C52.7697 67.0139 53.3245 67.5717 53.6812 67.4551C53.8043 67.4148 53.8727 67.5103 53.8431 67.6809C53.8026 67.915 53.8311 67.907 53.9798 67.6425C54.1296 67.3765 54.2667 67.3456 54.6558 67.49C54.9363 67.5941 55.1142 67.5799 55.0738 67.4566C55.0077 67.2541 55.7739 67.3471 56.0975 67.581C56.1683 67.6321 56.5701 67.6435 56.9905 67.6063C57.4108 67.569 57.8206 67.5374 57.9013 67.5358C57.982 67.5344 58.1363 67.5168 58.2442 67.4969C58.3521 67.477 58.4176 67.5936 58.3895 67.756C58.3566 67.9466 58.415 67.9148 58.5543 67.666C58.6732 67.4541 58.678 67.2518 58.5652 67.2164C58.4491 67.1801 58.4303 67.0047 58.522 66.8119C58.6562 66.5294 58.7063 66.5402 58.8158 66.8751C59.0233 67.5098 59.7128 67.5708 60.2184 66.9992C60.7596 66.3874 60.8004 66.135 60.3887 65.9415C60.1481 65.8283 59.9799 65.8764 59.7733 66.1174C59.3222 66.6429 59.2459 66.5699 59.559 65.9125C59.839 65.3247 59.8347 65.3002 59.4289 65.1744C58.9124 65.0145 58.5639 65.1086 58.8108 65.3412C58.9916 65.5118 58.1539 65.638 57.6821 65.5114C57.5636 65.4795 57.2467 65.5556 56.9779 65.6803C56.6282 65.8425 56.4887 65.8223 56.4877 65.6092C56.4869 65.4456 56.5835 65.3049 56.7024 65.2966C56.9782 65.2776 56.903 65.0821 56.4352 64.6007C56.1052 64.2609 56.0352 64.2617 55.8182 64.6059C55.6054 64.9435 55.5112 64.9603 55.0936 64.7337C54.7275 64.5351 54.5997 64.544 54.555 64.7717C54.5227 64.9357 54.4647 64.9772 54.4259 64.8638C54.3872 64.7502 54.4142 64.4154 54.4857 64.1194C54.6518 63.4319 54.4312 63.498 54.0841 64.2398C53.9369 64.5546 53.7833 64.7114 53.743 64.5881C53.7028 64.465 53.5301 64.4108 53.3596 64.4677C52.7786 64.6618 52.3923 64.6193 51.9399 64.3117C51.517 64.0242 50.6854 63.7507 50.4591 63.8247C50.4039 63.8427 50.4201 64.0631 50.4956 64.3146L50.6324 64.7717L50.3098 64.3519C50.1135 64.0967 49.9032 64.0071 49.7723 64.1232C49.6541 64.2283 49.4707 64.1984 49.3648 64.0568C49.259 63.9152 49.2498 63.7739 49.3443 63.743C49.4389 63.7121 49.4867 63.5961 49.4505 63.4853C49.4143 63.3745 49.1643 63.3542 48.8952 63.4404C48.626 63.5264 48.2571 63.5482 48.0754 63.4887C47.7932 63.3963 47.7901 63.3652 48.0549 63.2757C48.5063 63.1233 48.3163 62.7853 47.82 62.8576C47.5876 62.8914 47.3812 62.7983 47.3612 62.651C47.3363 62.4684 47.2147 62.5383 46.9806 62.8693C46.7912 63.1368 46.6232 63.27 46.607 63.1651C46.5391 62.7239 46.2299 62.0867 46.1138 62.149C45.7039 62.3695 45.3463 62.3211 45.1438 62.0178C44.9173 61.6785 44.2396 61.5383 43.8186 61.7432C43.7021 61.8001 43.5577 61.6969 43.4979 61.514C43.4283 61.301 43.3069 61.2544 43.1607 61.3844C43.0189 61.5102 42.8939 61.4705 42.8315 61.2797C42.7761 61.1103 42.6837 61.0301 42.6257 61.1012C42.443 61.326 41.2474 60.9192 40.9144 60.5191C40.6257 60.1724 40.2438 60.1531 39.4623 60.4453C39.1858 60.5489 39.1136 60.3403 39.2868 59.9383C39.3605 59.7669 39.345 59.6514 39.2521 59.6817C39.1593 59.7118 38.777 59.5859 38.4025 59.4019C38.0281 59.2176 37.5345 59.1282 37.3054 59.2031C37.0764 59.278 36.8603 59.2514 36.8252 59.144C36.7902 59.0368 36.8984 58.9619 37.0657 58.9777C37.26 58.9963 37.3311 58.8872 37.2622 58.6766C37.2028 58.4949 37.023 58.3339 36.8627 58.3188C36.7025 58.3036 36.5727 58.1484 36.5744 57.9739C36.5775 57.6729 36.3377 57.6382 35.8687 57.8718C35.7399 57.936 35.5791 57.7376 35.4569 57.3638C35.3467 57.0265 35.1998 56.7799 35.1303 56.8158C34.7963 56.989 34.0947 56.8155 33.9748 56.53C33.9008 56.3539 33.7885 56.079 33.7254 55.919C33.5562 55.4897 32.6174 55.344 32.4145 55.7157C32.3257 55.8785 32.1827 55.9701 32.0965 55.9195C32.0105 55.8687 32.024 55.7998 32.1267 55.7663C32.4007 55.6767 32.2724 54.785 31.9524 54.5548C31.8011 54.446 31.6224 54.4299 31.5557 54.5188C31.4889 54.6078 31.3752 54.5002 31.3031 54.2793C31.2297 54.0551 30.9968 53.8729 30.7748 53.8663C30.5565 53.8599 30.3493 53.7672 30.3143 53.6604C30.2794 53.5536 29.8221 53.2372 29.2981 52.9573C28.7741 52.6774 28.2955 52.2959 28.2346 52.1095C28.1713 51.9159 27.9156 51.7784 27.6383 51.789C27.1941 51.8062 26.9717 51.5533 26.8301 50.8694C26.8011 50.7294 26.5769 50.5527 26.332 50.4768C26.0868 50.4009 25.8239 50.1478 25.7476 49.9142C25.6688 49.6732 25.4053 49.4518 25.1377 49.4017C24.8234 49.3429 24.7516 49.2736 24.922 49.193C25.0625 49.1265 24.9639 49.074 24.7032 49.0762C24.3706 49.0793 24.1517 48.9137 23.9706 48.5226C23.8286 48.2158 23.531 47.7635 23.3093 47.5179C23.0876 47.2721 22.9048 46.9463 22.9032 46.7933C22.9015 46.6407 22.8134 46.5439 22.7075 46.5785C22.6019 46.6131 22.4618 46.4782 22.3966 46.2787C22.3314 46.0792 22.1466 45.8385 21.9859 45.7439C21.7587 45.61 21.75 45.5502 21.9471 45.4749C22.0864 45.4215 22.0016 45.3553 21.7588 45.3276C21.378 45.2844 21.2933 45.16 21.1461 44.4268C21.0291 43.8446 20.9086 43.5981 20.7638 43.6454C20.6475 43.6834 20.572 43.6077 20.5962 43.4772C20.6203 43.3466 20.4776 43.2929 20.2788 43.3579C19.9642 43.4607 19.918 43.4016 19.9217 42.9025C19.9276 42.0959 19.807 41.8153 19.3341 41.5365C18.9732 41.324 18.9453 41.2546 19.1103 40.9805C19.3037 40.6593 19.073 40.0143 18.6762 39.7668C18.5535 39.6903 18.371 39.3762 18.2705 39.0687C18.1027 38.5555 18.0562 38.5372 17.7062 38.8461C17.461 39.0625 17.3018 39.1126 17.2605 38.9862C17.2252 38.8782 17.321 38.749 17.4732 38.6992C17.6254 38.6495 17.6711 38.5342 17.5745 38.4431C17.4778 38.352 17.5235 38.2367 17.6757 38.187C17.9843 38.0861 17.9174 37.719 17.5238 37.3552C17.3813 37.2236 17.2864 37.0037 17.3129 36.8666C17.3392 36.7293 17.3187 36.4043 17.2673 36.1442C17.2158 35.8838 17.1736 35.4477 17.1734 35.1748C17.1729 34.4135 16.2852 33.5076 15.8033 33.7764C15.5594 33.9126 15.3963 33.8847 15.3347 33.6963C15.2828 33.5373 15.1604 33.4334 15.0627 33.4654C14.6177 33.6108 14.8453 33.1992 15.3041 33.0287C15.5884 32.9231 15.8228 32.8966 15.825 32.97C15.8273 33.0433 15.9113 33.1084 16.012 33.1145C16.1125 33.1207 16.2071 32.8094 16.2223 32.4228C16.2457 31.8244 16.2055 31.7157 15.9515 31.6917C15.7874 31.6762 15.6218 31.5673 15.5834 31.4498C15.5451 31.3325 15.5858 31.2789 15.6739 31.3308C15.762 31.3827 15.9195 31.2726 16.0239 31.0862C16.1856 30.7978 16.2136 30.8136 16.213 31.1936C16.2123 31.534 16.2434 31.5682 16.3435 31.3381C16.4439 31.1074 16.3355 30.8659 15.8853 30.317C15.561 29.9214 15.2263 29.6204 15.1417 29.648C15.057 29.6757 15.079 29.7845 15.1905 29.8897C15.3089 30.0013 15.2979 30.0518 15.164 30.011C15.038 29.9725 14.9333 30.09 14.9316 30.2718C14.9297 30.4536 14.8112 30.5933 14.6683 30.5821C14.3089 30.5537 14.0922 30.9096 14.1586 31.4191C14.1895 31.6543 14.0405 31.3265 13.8278 30.6909C13.6149 30.0552 13.4958 29.517 13.5628 29.4951C13.6299 29.4731 13.7451 29.6612 13.8188 29.9132C13.9669 30.4188 14.3454 30.331 14.9649 29.6472C15.2529 29.3294 15.3615 29.3188 15.68 29.5776C15.9787 29.8203 16.0842 29.8168 16.194 29.5617C16.304 29.3063 16.2668 29.2203 16.0129 29.1429C15.7422 29.0606 15.7347 29.0088 15.9643 28.8049C16.1165 28.6695 16.1527 28.4531 16.0466 28.3114C15.9428 28.1725 15.965 27.9636 16.096 27.8472C16.2405 27.719 16.2502 27.4961 16.1208 27.2813C16.0017 27.0836 15.9954 26.7297 16.1065 26.4804C16.4752 25.654 16.3516 25.2929 15.6863 25.2526C15.2474 25.2258 15.0753 25.1144 15.078 24.8584C15.08 24.6621 15.0636 24.4462 15.0415 24.3787C15.0194 24.3112 15.155 24.3809 15.343 24.5336C15.5724 24.72 15.7791 24.7273 15.9718 24.5562C16.2423 24.3156 16.2338 24.299 15.8224 24.2656C15.5824 24.2459 15.3347 24.0728 15.2719 23.8808C15.1832 23.6094 15.2229 23.5701 15.45 23.7039C15.6107 23.7986 15.9042 23.8231 16.1021 23.7584C16.5564 23.6099 17.2893 21.634 17.1024 21.0611C17.0254 20.8253 17.0566 20.4638 17.1717 20.2578C17.3552 19.93 17.381 19.932 17.3799 20.274C17.3793 20.4891 17.4476 20.6422 17.5316 20.6148C17.7638 20.5389 17.7211 19.9333 17.4587 19.5792C17.2549 19.3044 17.2847 19.2995 17.6981 19.5409C18.1239 19.7893 18.1652 19.7814 18.1172 19.4597C18.088 19.2631 18.1249 19.0827 18.1992 19.0584C18.2734 19.0341 18.2897 18.8783 18.2353 18.712C18.181 18.5458 18.0753 18.4298 18.0005 18.4542C17.9255 18.4787 17.7544 18.334 17.6199 18.1326C17.4855 17.9312 17.2386 17.8032 17.0714 17.8482C16.8833 17.8988 16.8394 17.8636 16.9561 17.7559C17.06 17.6599 17.0898 17.4131 17.0226 17.2073C16.9553 17.0014 16.9618 16.7508 17.0371 16.6504C17.1124 16.5499 17.2203 16.6092 17.2767 16.7819C17.3332 16.9546 17.467 17.0674 17.5741 17.0324C17.681 16.9975 18.0389 17.0716 18.3692 17.1974C18.8674 17.3869 19.0078 17.3654 19.1935 17.0705C19.3168 16.8751 19.3689 16.5666 19.3095 16.3849C19.1828 15.9972 18.8746 16.0357 18.8789 16.4387C18.8807 16.5915 18.7865 16.6642 18.6698 16.6002C18.55 16.5345 18.5697 16.3066 18.7151 16.076C18.9409 15.7174 19.0087 15.6974 19.2726 15.9121C19.4379 16.0463 19.68 16.121 19.8109 16.0782C19.996 16.0177 19.9839 15.9621 19.7567 15.8283C19.3275 15.5754 19.3117 15.3493 19.7144 15.2177C19.9604 15.1372 20.0257 14.9671 19.9269 14.6649C19.7317 14.0676 19.9756 14.2471 20.2415 14.8964C20.4731 15.4619 21.1231 15.6323 21.3184 15.1789C21.3811 15.0333 21.5733 14.9274 21.7454 14.9436C21.9508 14.9633 21.9877 14.9068 21.8528 14.7796C21.7397 14.673 21.4762 14.6418 21.267 14.7102C20.9659 14.8086 20.9153 14.768 21.0243 14.5149C21.1333 14.2619 21.3461 14.2086 22.0462 14.2587L22.9305 14.3218L23.117 13.6257C23.2961 12.9563 23.2903 12.9337 22.9636 13.0404C22.7688 13.1041 22.524 12.9861 22.3903 12.7642C22.2148 12.4734 22.233 12.384 22.4629 12.4059C22.6313 12.4218 22.8557 12.4066 22.9616 12.372C23.0676 12.3373 23.1207 12.3871 23.0796 12.4827C22.9743 12.7272 23.7787 13.2201 24.1076 13.1125C24.3206 13.0429 24.2835 12.9828 23.9385 12.8386C23.5913 12.6936 23.6864 12.6719 24.3827 12.7378C25.2188 12.8167 25.2752 12.7973 25.3809 12.3941C25.4427 12.1592 25.545 12.0305 25.6084 12.1084C25.7918 12.3334 27.158 12.5035 27.3711 12.3279C27.6022 12.1375 27.4115 11.4476 27.1017 11.3533C26.7718 11.2528 26.7242 10.9191 27.0258 10.8205C27.1724 10.7726 27.3466 10.8914 27.4132 11.0842C27.5226 11.4015 27.5467 11.3896 27.6671 10.9586C27.8018 10.4754 27.816 10.4862 28.1642 11.3405C28.2305 11.5028 28.4056 11.5694 28.5534 11.4881C28.7013 11.4069 28.9175 11.4681 29.0341 11.624C29.1506 11.7797 29.3072 11.8255 29.3822 11.7259C29.4569 11.6261 29.8349 11.5404 30.2218 11.5357C31.0172 11.526 31.7309 10.9787 31.4458 10.5973C31.3518 10.4716 31.3406 10.281 31.4212 10.1737C31.5068 10.0597 31.6236 10.1506 31.703 10.3936C31.7776 10.6217 31.9234 10.7808 32.0267 10.747C32.1301 10.7132 32.1358 10.611 32.0392 10.5199C31.9391 10.4255 32.0644 10.2886 32.3307 10.2016C32.7556 10.0627 32.7821 10.086 32.6223 10.4567C32.3764 11.0282 32.5009 11.2618 32.9678 11.1052C33.2826 10.9996 33.2986 10.95 33.0438 10.8693C32.8664 10.8131 32.7598 10.6778 32.8068 10.5683C32.854 10.459 33.0805 10.4276 33.3099 10.4986C33.8157 10.6554 33.8592 10.4839 33.5281 9.64071C33.389 9.28607 33.3493 8.86034 33.4399 8.69423C33.561 8.47242 33.6243 8.45241 33.6786 8.61865C33.7193 8.74297 33.6532 8.87877 33.5315 8.92033C33.3577 8.97982 33.37 9.01505 33.5894 9.08474C33.7428 9.13362 33.9086 9.40393 33.958 9.68573C34.0072 9.96739 34.1665 10.2869 34.3119 10.3955C34.5125 10.5454 34.4892 10.5847 34.2155 10.5588C33.9756 10.536 33.9065 10.5998 34.0092 10.7494C34.0941 10.873 34.2192 10.9484 34.2873 10.9169C34.3555 10.8855 34.571 10.8075 34.7664 10.7436C35.0147 10.6624 35.0789 10.4905 34.9792 10.1723C34.8535 9.77085 34.8747 9.74695 35.1597 9.96962C35.41 10.1654 35.536 10.1495 35.7201 9.89906C36.0497 9.45054 36.6583 9.66801 36.9593 10.3419C37.1585 10.7871 37.2242 10.8167 37.3803 10.5309C37.5294 10.2575 37.6147 10.2377 37.8219 10.4282C37.9631 10.5582 38.0789 10.8041 38.0793 10.9746C38.0799 11.2179 38.1172 11.2167 38.2528 10.9681C38.3884 10.7196 38.4741 10.7157 38.6494 10.9504C38.7724 11.1147 38.9024 11.181 38.9382 11.0977C38.9741 11.0144 39.4317 11.1766 39.9552 11.4583C40.4786 11.7399 40.999 11.9403 41.1118 11.9034C41.3999 11.8092 42.2652 12.4807 42.2139 12.7586C42.1493 13.1083 42.8515 13.6765 43.2055 13.5608C43.3824 13.503 43.5704 13.6106 43.6389 13.8095C43.7053 14.0025 43.9346 14.298 44.1484 14.4661C44.5701 14.798 44.7267 15.0864 44.5026 15.1178C44.1348 15.1691 44.095 15.3063 44.3872 15.5164C44.5632 15.6428 44.8513 15.6992 45.0275 15.6416C45.2096 15.5821 45.5584 15.7718 45.8353 16.081C46.4252 16.7399 46.4112 16.7014 46.1271 16.8829C45.9351 17.0054 45.993 17.1408 46.4658 17.6763L47.0359 18.3221L46.6058 18.4192C46.2798 18.4929 46.2008 18.4396 46.2796 18.1982C46.3558 17.9652 46.2937 17.8715 46.0476 17.848C45.8629 17.8305 45.6804 17.8891 45.642 17.9779C45.6036 18.067 45.6754 18.1062 45.8014 18.065C45.9868 18.0044 46.0059 18.0651 45.9018 18.3837C45.7954 18.71 45.8271 18.7944 46.0881 18.8772C46.3431 18.9583 46.3337 19.1089 46.0392 19.6682C45.839 20.0483 45.4529 20.5823 45.1811 20.8551C44.84 21.1974 44.7505 21.4361 44.8923 21.6255C45.0053 21.7764 45.1248 21.9833 45.1581 22.0851C45.1913 22.1868 45.2749 22.2398 45.344 22.2027C45.413 22.1654 45.5365 22.1378 45.6187 22.1408C45.7008 22.1436 45.8648 22.127 45.9834 22.1037C46.3751 22.0263 46.5343 22.5362 46.1922 22.7725C46.0074 22.9001 45.9208 23.0653 45.9999 23.1398C46.0786 23.2142 46.0806 23.3585 46.0041 23.4607C45.9275 23.5627 45.8188 23.5048 45.7623 23.3321C45.7059 23.1594 45.5672 23.0734 45.4541 23.1409C45.3221 23.2197 45.2029 23.0649 45.1213 22.7088C44.9886 22.1289 44.645 21.8856 44.4071 22.203C44.3306 22.3051 44.3618 22.4765 44.4767 22.5837C44.8356 22.9191 45.0416 23.4892 44.9288 23.8345C44.8447 24.0922 44.9325 24.1616 45.3231 24.1465C45.7915 24.1286 46.1381 24.4228 45.7846 24.5383C45.6976 24.5668 45.6507 24.837 45.6804 25.1391C45.7101 25.441 45.6566 25.6643 45.5615 25.6354C45.4663 25.6065 45.3129 25.803 45.2205 26.0723C45.128 26.3416 45.1076 26.5438 45.1751 26.5218C45.2424 26.4998 45.2373 26.6219 45.1636 26.7932C44.987 27.2033 45.0951 27.5125 45.3152 27.2269C45.4486 27.054 45.46 27.092 45.3648 27.3945C45.2627 27.7203 45.3027 27.7919 45.6028 27.8219C45.8915 27.8504 45.8386 27.9856 45.3376 28.4985C44.9934 28.8512 44.7545 29.2709 44.807 29.4313C44.9162 29.7656 45.9837 30.1817 46.0912 29.932C46.2137 29.6479 47.0239 30.199 47.1783 30.6713C47.2591 30.9185 47.5294 31.3413 47.7792 31.6112C48.0288 31.8809 48.2872 32.2654 48.3535 32.4657C48.4195 32.666 48.5353 32.7477 48.6106 32.6473C48.6859 32.5468 48.7806 32.566 48.8211 32.69C48.8617 32.8139 48.9564 32.8331 49.0317 32.7326C49.107 32.6322 49.2 32.6462 49.2384 32.7634C49.2767 32.8807 49.2282 33.003 49.1305 33.0349C49.0328 33.0668 49.0259 33.2948 49.1151 33.5417C49.2043 33.7887 49.2806 33.8641 49.2845 33.7094C49.2886 33.5546 49.405 33.3912 49.5434 33.346C49.682 33.3007 49.7348 33.0577 49.6609 32.8058C49.587 32.5538 49.6045 32.4484 49.6994 32.5715C49.7944 32.6945 49.9284 32.7201 49.9973 32.6282C50.0661 32.5364 50.1522 32.5519 50.1885 32.6628C50.2247 32.7736 50.1862 32.9552 50.1027 33.0663C49.9972 33.2072 50.0413 33.297 50.2489 33.3629C50.6132 33.4785 51.0047 33.3771 50.6592 33.2567C50.4866 33.1965 50.4238 32.9605 50.4417 32.439C50.4675 31.6808 50.7463 31.3621 50.9197 31.8925C50.974 32.0587 50.9556 32.2153 50.8787 32.2404C50.8018 32.2656 50.7861 32.4714 50.8438 32.6979C50.9068 32.9454 51.0583 33.0738 51.2231 33.0199C51.3981 32.9628 51.4222 32.8295 51.2895 32.6521C51.1752 32.499 51.1702 32.4009 51.2787 32.4339C51.3872 32.4669 51.4792 32.3669 51.4832 32.2114C51.4874 32.041 51.5416 32.067 51.6196 32.277C51.7769 32.7002 52.1448 32.6331 52.0054 32.2067C51.9511 32.0404 51.9913 31.8767 52.0947 31.8429C52.1981 31.8091 52.2038 31.7069 52.1072 31.6158C52.0105 31.5248 52.0562 31.4095 52.2084 31.3597C52.3607 31.3099 52.4284 31.1624 52.3586 31.0318C52.289 30.9014 52.3759 30.7757 52.5521 30.7527C52.8115 30.7188 52.8184 30.5637 52.5881 29.9349C52.4051 29.4351 52.3718 29.0008 52.4948 28.7153C52.6245 28.414 52.5959 28.12 52.4053 27.7976C52.1533 27.3712 52.1705 27.3246 52.5739 27.3366C52.88 27.3456 52.961 27.2914 52.8283 27.1664C52.7214 27.0655 52.7187 26.9554 52.822 26.9216C52.9254 26.8878 52.9568 26.6969 52.8916 26.4974C52.8264 26.2979 52.8278 26.0075 52.8947 25.852C52.9616 25.6968 52.885 25.1487 52.7244 24.6344C52.5624 24.1155 52.5059 23.5648 52.5975 23.3971C52.6881 23.231 52.6919 22.8793 52.6059 22.616C52.5197 22.3524 52.5292 22.1107 52.6268 22.0787C52.7245 22.0468 52.8359 22.1168 52.8742 22.2341C52.9126 22.3513 53.0113 22.3576 53.0938 22.2477C53.1762 22.1378 53.1427 21.8557 53.0195 21.6205C52.8963 21.3856 52.8829 21.1667 52.9895 21.1341C53.6874 20.9211 53.9733 20.7139 53.839 20.5183C53.755 20.3959 53.8822 20.0635 54.1218 19.7793C54.4145 19.4321 54.5002 19.1333 54.3836 18.8674C54.2539 18.5715 54.3328 18.3949 54.697 18.1666C54.9647 17.9986 55.1151 17.7966 55.0312 17.7174C54.9474 17.6384 55.1411 17.4215 55.4617 17.2355C56.0561 16.8909 56.1449 16.6045 55.6799 16.533C55.5377 16.511 55.5872 16.4596 55.79 16.4187C56.2277 16.3305 56.8282 15.4977 56.5671 15.3411C56.4671 15.2812 56.5553 15.2111 56.7632 15.1855C57.0287 15.1527 57.0996 15.0365 57.0012 14.7944C56.8202 14.3488 57.0697 14.2673 57.3754 14.672C57.5693 14.9289 57.6172 14.853 57.6422 14.2503C57.6675 13.645 57.7704 13.4835 58.2262 13.3346C58.6907 13.1827 58.7419 13.0973 58.5454 12.8029C58.3506 12.5113 58.3922 12.4361 58.7913 12.3585C59.1347 12.2918 59.2192 12.1955 59.088 12.02C58.9233 11.7997 59.0714 11.6204 59.4628 11.5658C59.5405 11.555 59.575 11.4578 59.5397 11.3498C59.4434 11.0554 60.1982 10.2879 60.7632 10.1057C61.3613 9.91265 61.3603 9.91433 61.2792 9.10223C61.225 8.55971 61.1859 8.5058 61.0387 8.7687C60.9045 9.00792 60.7896 9.03523 60.5539 8.88321C60.1654 8.63239 60.2715 8.51185 61.1979 8.15263C61.7646 7.93301 61.9634 7.93831 62.0409 8.17548C62.0967 8.34635 62.0625 8.51211 61.9648 8.54405C61.8671 8.57598 61.7575 8.51143 61.7213 8.40061C61.685 8.28978 61.5854 8.22198 61.5 8.24991C61.4146 8.27784 61.4192 8.52901 61.5105 8.80829C61.6356 9.19094 61.7141 9.24666 61.8298 9.03445C61.9143 8.87991 62.1468 8.76891 62.3466 8.78789C62.5659 8.80855 62.641 8.75725 62.536 8.65818C62.4403 8.56793 62.4264 8.13332 62.5048 7.6922C62.634 6.96704 62.6796 6.916 62.9819 7.16156C63.3947 7.497 63.7551 7.40526 63.6222 6.99864C63.5679 6.8324 63.6081 6.66869 63.7115 6.6349C63.8149 6.60111 63.8799 6.68023 63.8557 6.8108C63.8316 6.94136 63.904 7.01804 64.0166 6.98123C64.1292 6.94442 64.204 6.72281 64.1832 6.48876C64.1497 6.11499 64.1885 6.0887 64.5016 6.27317C64.9252 6.52275 65.6621 6.34458 65.3648 6.06437C65.2205 5.92843 65.4104 5.84004 66.0519 5.74478C66.782 5.63637 66.9584 5.53723 67.0513 5.18325C67.158 4.77658 67.1829 4.7711 67.517 5.08343C67.774 5.32349 68.0017 5.34473 68.3536 5.16123C68.6196 5.02231 68.7971 4.78633 68.7482 4.63661C68.6992 4.4867 68.7873 4.21501 68.9439 4.03246C69.1733 3.76523 69.2491 3.7632 69.3336 4.02193C69.3914 4.19864 69.4951 4.26802 69.5639 4.17615C69.6328 4.08428 69.7668 4.10984 69.8618 4.23288C69.9809 4.38711 70.0083 4.36143 69.9497 4.14975C69.8991 3.96667 70.037 3.78665 70.2914 3.70351C70.6427 3.58867 70.7089 3.63595 70.6669 3.97107C70.6388 4.19482 70.4819 4.43233 70.318 4.49837C70.1543 4.5646 70.3614 4.61044 70.7784 4.60036C71.4191 4.58474 71.545 4.52127 71.5926 4.18991C71.6269 3.95056 71.7875 3.80194 72.0049 3.80849C72.2008 3.81425 72.5392 3.6617 72.7573 3.46932C73.0432 3.21685 73.21 3.17636 73.3568 3.32332C73.4687 3.43548 73.4693 3.47924 73.3581 3.42058C73.1379 3.30454 73.0242 4.48495 73.235 4.69975C73.306 4.7722 73.6076 4.69035 73.9051 4.51794C74.3918 4.23552 74.5303 4.26764 75.2903 4.83997C75.7547 5.18954 76.1908 5.40072 76.2595 5.30911C76.4916 4.99952 76.8511 5.25492 76.7252 5.6402C76.6609 5.83742 76.6807 6.04145 76.7696 6.09361C76.9948 6.22629 77.6637 6.04912 77.6059 5.8722C77.5392 5.66808 78.1609 5.54871 78.3749 5.72454C78.6302 5.93416 78.5863 6.49938 78.3168 6.47372C78.191 6.46176 78.0304 6.59967 77.9598 6.77999C77.858 7.04033 77.9813 7.13515 78.5578 7.23867C78.9572 7.31042 79.2689 7.45095 79.2504 7.55067C79.232 7.65034 79.422 7.83223 79.6729 7.95497C79.9238 8.0777 80.1737 8.31493 80.2284 8.48217C80.2831 8.64962 80.4057 8.76101 80.5009 8.72989C80.7611 8.64483 81.6493 9.68418 81.6453 10.0689C81.6434 10.2535 81.8855 10.6075 82.1831 10.8552C82.4806 11.1032 82.7507 11.387 82.7832 11.4863C82.8156 11.5854 83.1098 11.5381 83.4369 11.381C83.764 11.2239 84.0595 11.1808 84.0937 11.2854C84.2061 11.6292 84.0208 11.8046 83.6394 11.7154C83.0721 11.5828 83.0099 12.0958 83.4561 13.2281C83.8124 14.1322 84.6263 15.4475 84.4605 14.8513C84.2935 14.2506 84.7652 14.5425 84.969 15.166C85.1454 15.7056 85.1233 15.8629 84.8652 15.9011C84.6848 15.9277 84.6424 15.9567 84.7712 15.9653C84.9001 15.974 85.099 16.1063 85.2136 16.2596C85.3565 16.4508 85.331 16.5296 85.1321 16.5106C84.7393 16.4733 84.7592 17.0779 85.1649 17.5077C85.3527 17.7064 85.4019 17.8286 85.2792 17.7913C85.1609 17.7553 85.0824 17.9295 85.1046 18.1785C85.1312 18.476 85.048 18.6058 84.8619 18.5571C84.6387 18.4987 84.6422 18.5239 84.8792 18.6757C85.1235 18.8324 85.2149 18.8035 85.3692 18.5208C85.4864 18.3061 85.5856 18.2552 85.6289 18.3878C85.6674 18.5055 85.6373 18.6841 85.562 18.7846C85.4867 18.885 85.4547 19.0578 85.491 19.1687C85.5272 19.2795 85.6127 19.2957 85.681 19.2047C85.7491 19.1135 85.8233 19.2416 85.8454 19.4892C85.8676 19.7369 85.7235 20.0829 85.5252 20.2579C85.31 20.4478 85.2184 20.7407 85.298 20.9841C85.3769 21.2255 85.3141 21.4304 85.1441 21.486C84.9367 21.5538 84.9236 21.7068 85.0975 22.0385C85.2844 22.3951 85.2668 22.4928 85.0183 22.4777C84.7683 22.4624 84.7622 22.4992 84.9903 22.6459C85.1506 22.7491 85.2806 22.9736 85.2788 23.1448C85.277 23.316 85.4027 23.5474 85.5584 23.6592C85.7833 23.8209 85.732 23.8901 85.3081 23.9977C84.8463 24.115 84.8139 24.1742 85.0665 24.4415C85.3071 24.6965 85.2633 24.8788 84.8133 25.4913C84.5139 25.899 84.1475 26.2723 83.9991 26.3209C83.6804 26.425 83.6845 26.4473 84.1285 27.0447C84.3509 27.3438 84.41 27.5247 84.2974 27.5615C84.2022 27.5926 84.1775 27.7136 84.2428 27.8303C84.3079 27.9471 84.275 28.1166 84.1694 28.2073C84.056 28.3048 83.9231 28.2058 83.8442 27.9644C83.6929 27.5013 83.3441 27.3305 83.1306 27.6151C83.0341 27.7439 83.0958 27.8845 83.3189 28.0449C83.6065 28.2517 83.5915 28.2816 83.2054 28.2702C82.8407 28.2594 82.7853 28.3335 82.8986 28.68C82.9803 28.9301 82.9009 29.2208 82.7041 29.3911C82.4535 29.6077 82.4428 29.7004 82.6602 29.7667C82.841 29.8218 82.9885 29.704 83.0548 29.4515C83.113 29.2297 83.2516 29.0185 83.363 28.9821C83.4743 28.9457 83.534 28.8198 83.4957 28.7025C83.4574 28.5853 83.5079 28.5141 83.6078 28.5446C83.9017 28.6341 84.0571 29.8704 83.7859 29.959C83.6504 30.0033 83.5108 29.9517 83.4757 29.8443C83.4407 29.7371 83.3091 29.7406 83.1834 29.8522C83.0577 29.964 82.9962 30.1817 83.0467 30.336C83.0971 30.4904 83.0185 30.6559 82.872 30.7038C82.724 30.7522 82.6641 30.97 82.7373 31.1939C82.8097 31.4156 82.7916 31.6222 82.6969 31.6532C82.6024 31.684 82.5265 31.5583 82.5283 31.3737C82.5333 30.8941 81.8789 31.1511 81.6806 31.7066C81.5939 31.9495 81.5371 32.3947 81.5541 32.6958L81.5854 33.2431L81.8631 32.7063C82.0159 32.411 82.1161 32.3201 82.0858 32.5041C82.0455 32.7495 82.0944 32.7824 82.2693 32.6268C82.4249 32.4888 82.5834 32.5402 82.7248 32.775C82.8492 32.981 82.8512 33.1073 82.7293 33.0702C82.6125 33.0345 82.4522 33.2123 82.373 33.4652C82.2704 33.7925 82.179 33.8616 82.0554 33.7048C81.9219 33.5357 81.8449 33.5703 81.7231 33.8532C81.6358 34.0559 81.5952 34.316 81.6329 34.4313C81.6706 34.5466 81.5644 34.6279 81.3971 34.6121C81.2297 34.5961 80.9763 34.701 80.8342 34.8449C80.6922 34.989 80.4177 35.1646 80.2246 35.2353C80.0015 35.3172 79.9245 35.4895 80.0134 35.7085C80.0902 35.8979 80.0615 36.0831 79.9493 36.1198C79.8372 36.1564 79.7032 36.4087 79.6516 36.6805C79.5794 37.0621 79.6272 37.2244 79.8612 37.3926C80.2244 37.6537 80.0799 37.7279 79.4812 37.588C78.992 37.4735 78.7841 37.8876 79.1112 38.3249C79.2273 38.4803 79.1548 38.6097 78.9061 38.691C78.6945 38.7602 78.6003 38.8911 78.6968 38.9823C78.7971 39.0768 78.6981 39.1807 78.4653 39.2252C78.2418 39.2677 78.0603 39.4276 78.0622 39.5802C78.0641 39.733 78.1923 39.8165 78.347 39.7659C78.5017 39.7153 78.6719 39.8078 78.7253 39.9712C78.8031 40.2092 78.7159 40.2587 78.2877 40.2195C77.6359 40.16 77.4665 40.4277 78.0181 40.6458C78.3737 40.7865 78.392 40.8291 78.1785 41.0187C78.0461 41.1364 77.9551 41.1383 77.9764 41.0229C78.0568 40.5892 77.4173 40.7782 77.144 41.2689C76.9034 41.7009 76.9091 41.7853 77.1803 41.8126C77.4443 41.8394 77.6378 42.2124 77.7145 42.8435C77.72 42.8874 77.5626 42.8474 77.365 42.7546C77.0763 42.619 77.0391 42.5348 77.1765 42.3282C77.2852 42.1642 77.2032 42.1756 76.9502 42.3595C76.7318 42.5184 76.3975 42.7137 76.2073 42.7933C76.0171 42.8731 75.9173 43.0413 75.9855 43.1675C76.0539 43.2935 76.0249 43.4243 75.9215 43.4581C75.8181 43.4919 75.8305 43.6134 75.9491 43.7279C76.1186 43.8915 76.0914 43.9028 75.8229 43.7809C75.5549 43.6591 75.4066 43.7185 75.1374 44.0547C74.9484 44.2907 74.5843 44.7041 74.3282 44.9732C74.0721 45.2422 73.8436 45.5663 73.82 45.6931C73.7966 45.8198 73.6433 45.911 73.4796 45.8954C73.3159 45.88 73.2145 45.9675 73.2546 46.0902C73.2947 46.2129 73.202 46.3543 73.0485 46.4045C72.8949 46.4547 72.6871 46.6865 72.5867 46.9199C72.4836 47.1592 72.3481 47.2624 72.2756 47.1567C72.132 46.9476 71.4917 47.3128 71.5718 47.558C71.6253 47.7217 70.5326 48.8387 70.0982 49.0645C69.7102 49.2663 68.2017 50.7555 68.1908 50.9475C68.1853 51.0414 68.0743 51.1528 67.9441 51.1954C67.8139 51.238 67.7107 51.3879 67.715 51.5285C67.7191 51.6693 67.4603 51.8607 67.1395 51.9542C66.6923 52.0845 66.5481 52.2494 66.5208 52.6611C66.4978 53.0092 66.3756 53.1877 66.173 53.1685C65.9441 53.1467 65.9261 53.2019 66.1063 53.3752C66.3137 53.575 66.2929 53.5847 65.9711 53.4381C65.7482 53.3365 65.5174 53.3643 65.4146 53.5051C65.2112 53.7833 65.1375 53.8314 64.5758 54.0527C64.0514 54.2594 64.0527 55.1437 64.577 54.9724C64.7631 54.9115 64.9607 54.9997 65.0159 55.1686C65.1047 55.4404 65.0595 55.4565 64.6196 55.3095C64.2388 55.1821 63.8966 55.2581 63.1531 55.6347C62.6196 55.905 62.1698 56.0848 62.1533 56.0345C62.1368 55.9841 62.043 56.0899 61.9448 56.2699C61.8465 56.4499 61.581 56.5915 61.3547 56.5848C61.0696 56.5763 60.9849 56.6497 61.0793 56.8236C61.1716 56.9937 61.016 57.1395 60.5953 57.2773C59.9802 57.4785 59.8605 57.9812 60.3823 58.1714C60.514 58.2196 60.4941 58.3535 60.3341 58.4956C59.9569 58.8308 59.4191 58.507 59.6862 58.1055C59.8327 57.8854 59.7577 57.8869 59.3917 58.1114C59.1215 58.2773 58.769 58.4577 58.6081 58.5121C58.4474 58.5666 58.3323 58.7949 58.3524 59.0196C58.3823 59.3527 58.269 59.4441 57.7386 59.5156C57.2073 59.5871 57.0349 59.7271 56.7969 60.2797C56.6368 60.6516 56.4148 60.9858 56.3036 61.0222C55.9913 61.1242 55.4822 62.1031 55.6795 62.222C55.776 62.2801 55.6875 62.357 55.483 62.393C55.0774 62.4645 54.5628 62.8914 54.6347 63.097C54.6597 63.1678 54.795 63.3321 54.9358 63.4622C55.151 63.6611 55.2235 63.6405 55.3907 63.3341C55.5308 63.0775 55.6663 63.0145 55.8474 63.1212C56.0286 63.2279 56.0074 63.349 55.776 63.5293C55.2355 63.9502 55.5207 64.2116 56.1328 63.8565C56.642 63.5611 56.7232 63.5803 57.0736 64.0775C57.2847 64.3768 57.4341 64.6756 57.4056 64.7413C57.3773 64.8073 57.4767 64.8729 57.6267 64.887C57.8215 64.9056 57.836 64.7198 57.6779 64.2362C57.3112 63.1142 57.6768 62.8451 58.1088 63.9189C58.2769 64.3368 58.4448 64.4668 58.7536 64.4187C58.9856 64.3824 59.1362 64.2466 59.0926 64.1132C59.0333 63.9317 59.0924 63.9099 59.3353 64.024C59.756 64.2218 59.7945 63.625 59.3772 63.3769C59.1579 63.2466 59.1722 63.2145 59.4382 63.2388C59.629 63.2565 59.8909 63.4292 60.0202 63.6226C60.1494 63.8162 60.3124 63.8983 60.3823 63.8052C60.5672 63.5585 60.4466 63.3158 60.0122 63.0597C59.8016 62.9358 59.6808 62.8176 59.7437 62.7971C59.8066 62.7765 59.6848 62.6577 59.4729 62.5329C58.9339 62.2154 59.0681 61.8497 59.7416 61.8012C60.3751 61.7557 61.3716 60.8605 61.2393 60.4557C61.1316 60.1265 61.6578 59.4428 61.9502 59.5319C62.079 59.571 62.2086 59.4713 62.2384 59.3099C62.2774 59.0989 62.3477 59.0688 62.489 59.2021C62.6118 59.3179 62.4909 59.5037 62.1666 59.6978C61.7292 59.9595 61.6846 60.0788 61.8839 60.4587C62.0646 60.8033 62.0517 60.8769 61.8287 60.7722C61.6108 60.6697 61.5404 60.8044 61.5494 61.3076C61.556 61.6774 61.4718 62.0091 61.3626 62.0449C61.2384 62.0854 61.2655 62.2651 61.4347 62.5231C61.818 63.1073 61.8329 63.1066 62.1883 62.4949C62.4655 62.0178 62.4621 61.9225 62.1622 61.7817C61.7608 61.5929 61.6174 61.2925 61.8867 61.2045C62.1025 61.1339 62.9999 62.2033 62.9504 62.4715C62.9319 62.5708 62.9976 62.6256 63.0962 62.5933C63.1948 62.5611 63.3051 62.3495 63.3413 62.1229C63.3776 61.8965 63.4456 61.8207 63.4928 61.9549C63.5401 62.0898 63.6817 62.1069 63.8097 61.9932C63.9368 61.8803 63.989 61.6906 63.9256 61.5719C63.8622 61.4533 63.8424 61.1261 63.8816 60.8448C63.9286 60.5058 63.8777 60.3103 63.7302 60.2655C63.6078 60.2281 63.5291 60.0821 63.5552 59.9407C63.5813 59.7994 63.4155 59.6096 63.1865 59.519C62.7844 59.3601 62.7817 59.3498 63.1072 59.218C63.2924 59.1427 63.5075 59.0724 63.5852 59.0617C63.6628 59.0509 63.6817 58.906 63.6274 58.7397C63.573 58.5735 63.6133 58.4098 63.7167 58.376C63.8201 58.3422 63.885 58.4213 63.8609 58.5519C63.8367 58.6824 63.9416 58.7485 64.0939 58.6987C64.2461 58.649 64.4004 58.6989 64.4367 58.8097C64.4729 58.9206 64.6357 58.9677 64.7986 58.9144C64.9613 58.8613 65.0222 58.7751 64.9338 58.723C64.7493 58.6143 65.2405 57.8003 65.6053 57.6099C65.7394 57.5397 65.9812 57.5162 66.1425 57.5574C66.3849 57.6191 66.4024 57.6932 66.2436 57.9845C66.1142 58.2214 66.0272 58.2626 65.9774 58.1103C65.9368 57.9859 65.8261 57.9095 65.7314 57.9404C65.6369 57.9713 65.6569 58.1269 65.776 58.2861C65.9412 58.5071 65.9035 58.5745 65.617 58.5707C65.3632 58.5671 65.1922 58.7539 65.0892 59.1473L64.9368 59.7293L65.4474 59.3409C65.7281 59.1272 66.0315 58.9071 66.1214 58.8516C66.2114 58.7961 66.3562 58.6544 66.4433 58.5372C66.6597 58.2452 67.2556 58.3245 67.1977 58.6376C67.1683 58.7962 67.2454 58.8065 67.4044 58.6651C67.5554 58.531 67.6905 58.5392 67.7382 58.6853C67.8458 59.0146 68.707 58.6827 69.0914 58.1638C69.2601 57.936 69.3505 57.6032 69.2919 57.4241C69.2209 57.2068 69.3464 57.0403 69.6691 56.9239C71.123 56.3991 72.0044 55.8902 72.2326 55.4438C72.3708 55.1736 72.4603 55.0957 72.4318 55.2707C72.3899 55.528 72.4375 55.5216 72.6819 55.237C73.0467 54.8117 72.9132 54.2576 72.4778 54.3897C72.2137 54.4698 72.2094 54.4025 72.4503 53.9589C72.6073 53.6696 72.6546 53.3564 72.5552 53.2628C72.456 53.1693 72.4465 53.0691 72.5342 53.0404C72.7536 52.9687 73.3357 53.6958 73.4189 54.1452C73.4563 54.3475 73.5682 54.4867 73.6677 54.4542C73.7674 54.4216 73.7516 54.265 73.6328 54.1063C73.4601 53.8755 73.5095 53.8138 73.879 53.7996C74.2104 53.7868 74.4295 53.5958 74.6543 53.124C74.8266 52.7621 74.8968 52.3993 74.8103 52.3176C74.7237 52.2362 74.9034 52.1088 75.2095 52.0346C75.5155 51.9604 75.7824 51.8114 75.8025 51.7034C75.8224 51.5954 75.9252 51.5332 76.0306 51.5652C76.1361 51.5974 76.1364 51.46 76.031 51.2598C75.8853 50.9824 75.9272 50.8934 76.2076 50.8856C76.4098 50.8801 76.7017 50.9665 76.8563 51.0774C77.0828 51.2405 77.251 51.1137 77.7249 50.4231C78.2474 49.6619 78.6891 48.6707 78.2378 49.2728C78.1028 49.4525 78.0794 49.3957 78.1278 49.0087C78.2009 48.4268 78.2277 48.4096 78.6634 48.6664C78.9463 48.8331 79.0435 48.7792 79.2998 48.3145C79.498 47.9551 79.5156 47.7607 79.3513 47.7504C79.2134 47.7417 79.0714 47.646 79.0361 47.538C79.0007 47.4298 79.0701 47.3713 79.1901 47.4078C79.3102 47.4444 79.4794 47.3797 79.566 47.264C79.6753 47.1183 79.596 47.0033 79.3077 46.8892C78.817 46.6952 78.9194 46.6343 79.6267 46.6991C79.9668 46.7302 80.1548 46.6636 80.1848 46.5015C80.2096 46.3669 80.3624 46.2695 80.5243 46.2848C80.6862 46.3004 80.7496 46.2475 80.6649 46.1679C80.5805 46.0882 80.6551 45.9238 80.8309 45.8023C81.0449 45.6545 81.0796 45.4866 80.9357 45.2941C80.7698 45.0722 80.8065 45.0143 81.0974 45.0394C81.4314 45.0683 81.4333 45.0422 81.1138 44.8081C80.916 44.6629 80.7862 44.4692 80.8256 44.3773C80.8652 44.2857 80.9293 44.308 80.9682 44.4269C81.007 44.5457 81.1831 44.5433 81.3596 44.4216C81.536 44.2997 81.6542 44.1199 81.6222 44.0219C81.5903 43.9242 81.6774 43.807 81.8157 43.7617C81.9541 43.7165 82.0716 43.6027 82.0772 43.509C82.0825 43.4152 82.3302 43.0676 82.6274 42.7366C82.9247 42.4052 83.128 42.0127 83.0794 41.864C83.0307 41.715 83.0663 41.5687 83.1585 41.5386C83.2505 41.5085 83.2358 41.3126 83.1257 41.1033C83.0082 40.8798 83.0211 40.6914 83.157 40.647C83.2842 40.6054 83.5712 40.1784 83.7949 39.6982C84.0183 39.2179 84.4589 38.3361 84.7736 37.7388C85.1541 37.0165 85.2986 36.477 85.2051 36.1291C85.1275 35.8413 85.1377 35.6282 85.2274 35.6555C85.4241 35.7152 85.9043 34.4429 85.8905 33.8989C85.8852 33.6861 85.9937 33.4749 86.1317 33.4298C86.4253 33.3338 86.377 32.3843 86.0633 32.0888C85.9138 31.9478 85.9514 31.8954 86.1855 31.9177C86.3712 31.9353 86.4964 31.868 86.4638 31.7681C86.4311 31.6681 86.5406 31.4804 86.707 31.3509C86.8739 31.2209 86.975 30.8395 86.9325 30.5002C86.8899 30.1619 86.9383 29.8113 87.0397 29.7211C87.1412 29.631 87.1582 29.2909 87.0774 28.9654C86.9966 28.6399 87.0038 28.3144 87.0933 28.2418C87.4311 27.9684 87.6654 27.0249 87.5621 26.3517C87.5033 25.9674 87.5316 25.5127 87.6254 25.3412C87.7189 25.1696 87.7254 24.9632 87.6398 24.8826C87.5542 24.8017 87.6173 24.6921 87.78 24.6389C87.9642 24.5787 88.0033 24.4451 87.8835 24.285C87.7777 24.1434 87.7671 23.9667 87.86 23.8919C87.9529 23.8172 87.9566 23.4331 87.8682 23.0384C87.7799 22.6437 87.7764 22.2648 87.8603 22.1966C88.0522 22.0404 87.8829 21.4829 87.6653 21.554C87.5767 21.583 87.4869 21.4127 87.4656 21.1757C87.4443 20.9386 87.5054 20.7686 87.6012 20.7977C87.6971 20.827 87.711 20.4714 87.6323 20.0076C87.5256 19.3787 87.3921 19.1073 87.1067 18.9391C86.7588 18.7344 86.7444 18.6626 86.9476 18.1517C87.123 17.7109 87.0937 17.4121 86.8126 16.768C86.6119 16.3083 86.5228 15.8909 86.6103 15.8206C86.7801 15.684 86.308 14.8556 86.1166 14.9543C86.0528 14.9872 85.8354 15.0498 85.6334 15.0935C85.2778 15.1705 85.2761 15.1637 85.5845 14.8789C86.0246 14.4725 85.8462 13.293 85.2895 12.927C84.9971 12.7349 84.9408 12.6313 85.1 12.5793C85.2817 12.5199 85.263 12.4591 85.007 12.2751C84.765 12.1011 84.7146 11.961 84.7999 11.6998C84.8873 11.4319 84.8377 11.3473 84.5785 11.3226C84.333 11.2993 84.2211 11.1283 84.1571 10.6788C84.0593 9.99284 83.4669 9.55664 82.9882 9.81838C82.7469 9.95056 82.7128 9.8919 82.745 9.40275C82.7764 8.93084 82.7213 8.8177 82.424 8.74181C82.1615 8.67485 82.0409 8.48051 81.975 8.01786C81.9038 7.51679 81.8229 7.40564 81.5859 7.48309C81.4214 7.53686 81.3065 7.47405 81.3307 7.34349C81.3549 7.21292 81.2499 7.14686 81.0977 7.19662C80.8586 7.27477 80.5606 6.83024 80.454 6.23612C80.4384 6.14912 80.2258 6.14346 79.9815 6.22329C79.4702 6.39045 79.2941 6.1206 79.6863 5.77115C79.9401 5.545 79.9349 5.52908 79.5772 5.43726C79.3707 5.38431 79.1586 5.20942 79.1061 5.04862C79.0536 4.88803 78.8488 4.80934 78.6509 4.87402C78.3205 4.98201 77.5605 4.30084 77.5043 3.84617C77.4928 3.75315 77.1922 3.60048 76.8365 3.50691C76.4809 3.41327 76.1523 3.2236 76.1062 3.0852C76.0077 2.78799 75.6065 2.87899 75.454 3.23329C75.3079 3.57253 74.7345 3.37659 74.8022 3.01074C74.8417 2.79757 74.9083 2.77111 75.0561 2.91038C75.2533 3.09637 75.8068 2.76982 75.7215 2.51801C75.6975 2.44691 75.4442 2.34928 75.1588 2.30072C74.8733 2.25197 74.7114 2.27991 74.799 2.36258C74.8865 2.44504 74.8734 2.54032 74.77 2.57411C74.6666 2.6079 74.5208 2.44881 74.4463 2.22071C74.3717 1.99261 74.2555 1.87939 74.1881 1.96921C74.1206 2.05929 73.9717 2.00717 73.8568 1.85359C73.7419 1.70001 73.5915 1.64994 73.5223 1.74213C73.3817 1.9295 72.099 1.64602 72.0199 1.41004C71.9922 1.3272 71.8588 1.29543 71.7238 1.33956C71.5886 1.38374 71.3718 1.24384 71.242 1.02844C71.0811 0.761664 70.949 0.714083 70.8262 0.879319C70.565 1.23124 70.2515 1.36382 70.0745 1.19708C69.9898 1.11706 69.7011 1.18263 69.4333 1.3429C69.1093 1.53667 68.9198 1.5529 68.867 1.39149C68.8137 1.22828 68.6321 1.24613 68.3137 1.44591C68.0419 1.61639 67.7605 1.66845 67.6539 1.56791C67.5455 1.46551 67.6248 1.34123 67.8441 1.26953C68.0511 1.20189 68.1413 1.07202 68.0447 0.980939C67.8259 0.774778 66.9803 1.03248 67.0613 1.28052C67.094 1.38047 66.7348 1.4573 66.2631 1.45113C65.7855 1.44488 65.325 1.54701 65.2241 1.68168C65.1166 1.82499 64.8333 1.85315 64.5279 1.75088C64.0574 1.59312 64.0228 1.60821 64.1265 1.92537C64.209 2.17785 64.1422 2.25969 63.8807 2.22586C63.508 2.17749 63.3385 2.23156 61.1656 3.09193C60.4476 3.37636 59.6488 3.68854 59.3905 3.78612C59.0997 3.89592 58.9277 4.11694 58.9386 4.3672C58.9481 4.58936 58.709 4.95923 58.4073 5.18921C58.1055 5.419 57.8744 5.52152 57.8939 5.41681C57.9131 5.31196 57.7879 5.21302 57.6152 5.19654C57.4428 5.1802 57.3757 5.23669 57.4664 5.32214C57.6708 5.51494 57.1264 6.18133 56.8366 6.09294C56.7156 6.05619 56.7194 6.16984 56.8452 6.35865C57.0419 6.65366 57.0219 6.65685 56.6567 6.38949C56.2546 6.09517 56.2448 6.09949 56.0233 6.66746C55.8996 6.9849 55.6659 7.23188 55.5039 7.21662C55.3419 7.20109 55.1059 7.4076 54.9794 7.67509C54.8383 7.97301 54.5724 8.17969 54.293 8.20856C54.0015 8.23852 53.6826 8.50332 53.4091 8.94288C52.9454 9.68818 52.4754 10.1855 51.9983 10.4358C51.9208 10.4765 51.8391 10.7865 51.8168 11.1247C51.785 11.6039 51.7216 11.6882 51.5287 11.5066C51.3226 11.3119 51.2409 11.3558 51.0375 11.7702C50.9033 12.0436 50.7276 12.2283 50.647 12.1811C50.5666 12.1335 50.3627 12.3848 50.1939 12.7393C50.0252 13.094 49.8165 13.4071 49.7304 13.4353C49.644 13.4635 49.7015 13.5785 49.8579 13.6909C50.0839 13.8534 50.0348 13.9306 49.6176 14.067C49.2842 14.1759 48.9827 14.4944 48.7904 14.9408C48.4505 15.7304 47.9915 15.8914 47.6954 15.3247C47.5864 15.1163 47.4311 14.9173 47.3501 14.8824C47.2691 14.8475 46.9336 14.5297 46.6044 14.1758C46.1031 13.6367 46.0027 13.5973 45.9841 13.9325C45.9714 14.1615 45.8985 13.9955 45.8138 13.5446C45.723 13.0622 45.5935 12.7803 45.4798 12.8174C45.3776 12.8508 45.2484 12.738 45.1925 12.567C45.1366 12.3959 44.8111 12.0768 44.4692 11.858C44.1273 11.639 43.7985 11.3098 43.7386 11.1266C43.6788 10.9434 43.4928 10.7805 43.3254 10.7645C43.1581 10.7488 42.9789 10.6066 42.9272 10.4486C42.8178 10.1137 42.2453 9.99241 41.8023 10.2106C41.5426 10.3385 41.5026 10.2883 41.5518 9.89526C41.6259 9.30633 41.5853 9.18379 41.3421 9.26328C41.1002 9.34236 39.9345 8.84355 39.9117 8.65116C39.9026 8.5734 39.8284 8.55751 39.7471 8.61573C39.666 8.67416 39.5123 8.60528 39.4055 8.46265C39.299 8.32017 39.1147 8.28986 38.9959 8.3954C38.8772 8.50087 38.746 8.48331 38.7045 8.35637C38.663 8.22942 38.5165 8.3634 38.379 8.65414C38.1368 9.16619 37.8235 9.26993 37.6963 8.88064C37.6622 8.77626 37.7942 8.63877 37.9895 8.5749C38.4585 8.42162 38.3665 8.2106 37.5983 7.67819L36.963 7.23772L37.1066 7.74838C37.1854 8.02927 37.3117 8.38902 37.3874 8.54782C37.4936 8.77135 37.4121 8.77748 37.0264 8.57548C36.6869 8.39743 36.5556 8.39839 36.6145 8.57853C36.6619 8.72361 36.4397 8.66133 36.1206 8.44C35.8015 8.21848 35.443 8.06913 35.324 8.10803C35.205 8.14693 35.078 8.08807 35.0418 7.97725C34.9465 7.68568 34.2964 7.94635 34.2877 8.27949C34.2838 8.4342 34.2093 8.36444 34.1225 8.12453C33.9961 7.77597 34.0754 7.63654 34.5185 7.42882L35.0725 7.16899L34.3814 7.15982C34.0013 7.15472 33.568 7.25285 33.4186 7.37751C33.0018 7.72564 31.5946 7.97975 31.82 7.66609C31.9746 7.45096 31.9507 7.39032 31.6739 7.29724C31.1105 7.10804 30.8483 7.29636 31.1163 7.69783C31.3063 7.98234 31.2874 8.05585 31.0308 8.03157C30.8496 8.0143 30.7029 7.86218 30.7046 7.69347C30.7082 7.3466 30.4074 7.36953 30.3424 7.72108C30.3189 7.84764 30.0738 7.81647 29.7931 7.65108C29.4183 7.43033 29.2723 7.42856 29.2323 7.64482C29.1907 7.87053 29.1396 7.88097 29.0089 7.6904C28.8743 7.49464 28.8008 7.53362 28.652 7.8791C28.5378 8.14437 28.5505 8.34073 28.6845 8.38145C29.0159 8.48232 29.0644 8.81595 28.7621 8.91477C28.6115 8.964 28.4367 8.82152 28.3601 8.58697C28.2855 8.35887 28.1628 8.25423 28.0875 8.35467C28.0122 8.45511 27.9111 8.4188 27.863 8.27396C27.7513 7.93824 26.6336 7.72527 26.6432 8.04151C26.6468 8.16567 26.5719 8.29253 26.4767 8.32365C26.3813 8.35482 26.318 8.30033 26.3361 8.20231C26.3542 8.10428 25.7757 8.21266 25.0502 8.44289C24.2903 8.68393 23.759 8.94612 23.7966 9.06117C23.8326 9.17119 24.1043 9.41424 24.4006 9.60131C24.8801 9.90379 24.9047 9.95262 24.6253 10.0439C24.4525 10.1004 24.2101 9.97895 24.0866 9.77397C23.963 9.56904 23.7878 9.4256 23.6974 9.45516C23.6068 9.48477 23.5042 9.34253 23.4695 9.13934C23.3986 8.72403 22.7797 8.7343 22.4787 9.15586ZM27.9229 7.85092C27.9591 7.96175 28.0639 8.02786 28.1559 7.99779C28.2479 7.96771 28.3427 7.83634 28.3669 7.70577C28.3911 7.5752 28.2861 7.50915 28.1339 7.55891C27.9817 7.60866 27.8866 7.7401 27.9229 7.85092ZM27.8672 8.88346C27.945 9.12143 27.6089 9.23082 27.4506 9.01895C27.3215 8.84639 27.355 8.76964 27.5512 8.78826C27.7129 8.80364 27.855 8.84639 27.8672 8.88346ZM23.5373 10.6737C23.5759 10.7918 23.4567 10.8091 23.2558 10.7146C23.0641 10.6245 22.8971 10.5194 22.8846 10.4811C22.8721 10.4429 22.9987 10.4244 23.1661 10.4402C23.3335 10.4562 23.5006 10.5612 23.5373 10.6737ZM17.5499 13.1944C17.6092 13.8571 17.284 13.7069 17.1817 13.0244C17.1362 12.721 17.1907 12.527 17.3027 12.593C17.415 12.6591 17.526 12.9297 17.5499 13.1944ZM21.9216 11.1438C21.9566 11.251 22.0995 11.2376 22.2389 11.1137C22.4093 10.9621 22.4755 10.9793 22.441 11.1661C22.3666 11.568 21.7178 11.7232 21.6013 11.367C21.547 11.2007 21.5825 11.0386 21.6801 11.0066C21.7778 10.9747 21.8865 11.0364 21.9216 11.1438ZM30.693 8.50664C30.7292 8.61746 30.6741 8.73583 30.5708 8.76962C30.4674 8.80341 30.4024 8.72429 30.4266 8.59373C30.4507 8.46316 30.5056 8.34485 30.5488 8.33074C30.592 8.31663 30.6568 8.39581 30.693 8.50664ZM25.6216 10.7348C26.0313 10.9332 26.1498 11.0455 25.9066 11.0052C25.678 10.9673 25.3961 11.0162 25.2803 11.1138C25.1646 11.2114 24.9598 11.1894 24.8252 11.0652C24.6324 10.8873 24.6043 10.9144 24.6929 11.1927C24.7549 11.3871 24.7322 11.5702 24.6425 11.5995C24.2554 11.7261 23.8296 11.5673 23.7319 11.26C23.6495 11.0008 23.6787 10.9763 23.8647 11.1479C24.2088 11.4654 24.3685 11.4079 24.4352 10.9425C24.5152 10.3844 24.796 10.3352 25.6216 10.7348ZM26.9233 10.1292C27.2486 10.3766 27.2446 10.3856 26.8811 10.2273C26.4991 10.0606 26.351 9.92592 26.4972 9.87813C26.534 9.86612 26.7258 9.97915 26.9233 10.1292ZM35.9559 7.44002C35.8847 7.82483 36.3039 7.79777 36.4307 7.40928C36.5294 7.10691 36.5003 7.05444 36.2744 7.12829C36.1218 7.17816 35.9783 7.3185 35.9559 7.44002ZM29.1434 9.7806C29.1594 9.82956 29.1108 9.9516 29.0355 10.052C28.9602 10.1525 28.8672 10.1385 28.8289 10.0212C28.7905 9.90397 28.8391 9.78173 28.9367 9.7498C29.0344 9.71786 29.1274 9.73163 29.1434 9.7806ZM16.7447 14.5529C16.8413 14.8483 16.8451 15.0458 16.753 14.9916C16.5081 14.8475 16.2481 14.1204 16.4211 14.0639C16.5024 14.0373 16.6481 14.2573 16.7447 14.5529ZM17.9441 14.0121C17.9804 14.1229 17.9748 14.2251 17.9317 14.2392C17.8885 14.2533 17.7743 14.1903 17.6777 14.0992C17.5811 14.0081 17.5868 13.9059 17.6902 13.8721C17.7935 13.8383 17.9079 13.9013 17.9441 14.0121ZM30.1581 10.4789C30.2455 10.7463 30.4135 10.8327 30.6897 10.7521C31.0922 10.6348 31.0922 10.6354 30.7313 10.9664C30.3587 11.3079 30.128 11.289 30.003 10.9067C29.9638 10.7866 29.8195 10.6832 29.6822 10.677C29.5451 10.6708 29.4617 10.7542 29.497 10.8624C29.5324 10.9707 29.4585 11.1505 29.3328 11.2623C28.9366 11.6144 28.9234 10.9902 29.3162 10.4757C29.7435 9.91609 29.9744 9.9169 30.1581 10.4789ZM18.8239 13.8592C18.7868 13.9454 18.6359 14.0028 18.4888 13.9864C18.326 13.9684 18.3525 13.9069 18.5563 13.8296C18.7406 13.7598 18.861 13.7731 18.8239 13.8592ZM15.5891 15.2279C15.6254 15.3388 15.4731 15.4817 15.2507 15.546C14.865 15.6571 14.8602 15.6491 15.1451 15.3731C15.3093 15.2139 15.4617 15.0709 15.4835 15.055C15.5053 15.0394 15.5529 15.1171 15.5891 15.2279ZM20.6221 13.5455C20.7026 13.6216 20.6557 13.7206 20.5177 13.7657C20.3797 13.8108 20.2834 13.7586 20.3034 13.6497C20.3235 13.541 20.3706 13.442 20.4079 13.4298C20.4452 13.4176 20.5417 13.4697 20.6221 13.5455ZM26.7684 11.5365C26.7986 11.629 26.7034 11.7437 26.5569 11.7916C26.4103 11.8395 26.2657 11.8032 26.2355 11.7107C26.2053 11.6184 26.3005 11.5036 26.4471 11.4557C26.5936 11.4078 26.7382 11.4442 26.7684 11.5365ZM19.5259 14.0395C19.5419 14.0884 19.4933 14.2105 19.418 14.3109C19.3427 14.4114 19.2497 14.3974 19.2113 14.2801C19.173 14.1628 19.2215 14.0406 19.3192 14.0087C19.4169 13.9767 19.5099 13.9905 19.5259 14.0395ZM21.7113 13.6733C21.8502 14.0188 21.8126 14.0545 21.4089 13.9601C20.9585 13.8549 20.9549 13.846 21.2483 13.5817C21.4136 13.4329 21.5497 13.3039 21.5507 13.2949C21.5519 13.286 21.6241 13.4562 21.7113 13.6733ZM34.8792 9.28426C34.9667 9.55205 34.9231 9.58169 34.6377 9.44752C34.446 9.35739 34.278 9.24949 34.2644 9.20778C34.2507 9.16586 34.3594 9.09242 34.5059 9.04452C34.6525 8.99662 34.8205 9.10452 34.8792 9.28426ZM17.0812 15.9764C17.0793 16.1664 17.0254 16.2911 16.9616 16.2535C16.8979 16.2159 16.8666 16.0711 16.8925 15.932C16.9625 15.5531 17.0853 15.5822 17.0812 15.9764ZM18.2585 15.5751C18.3172 15.7549 18.2361 15.8597 18.052 15.8422C17.8852 15.8263 17.7664 15.7179 17.7881 15.6009C17.85 15.2657 18.1519 15.2491 18.2585 15.5751ZM18.7604 15.3065C18.7967 15.4173 18.7911 15.5195 18.748 15.5336C18.7048 15.5477 18.5906 15.4846 18.494 15.3936C18.3974 15.3025 18.4031 15.2002 18.5065 15.1664C18.6098 15.1327 18.7242 15.1956 18.7604 15.3065ZM12.5866 17.7706C12.6832 17.8617 12.8421 17.9101 12.9398 17.8782C13.0375 17.8462 13.0384 17.7456 12.9418 17.6545C12.8452 17.5634 12.6862 17.515 12.5885 17.5469C12.4909 17.5789 12.4899 17.6795 12.5866 17.7706ZM12.3694 18.2557C12.3435 18.3954 12.5249 18.6291 12.7725 18.775C13.0202 18.9209 13.2263 19.1582 13.2307 19.3026C13.2349 19.4468 13.3252 19.5364 13.431 19.5018C13.5367 19.4673 13.592 19.3428 13.5537 19.2256C13.5153 19.1083 13.5719 19.0389 13.6793 19.0716C13.787 19.1045 13.8765 18.9724 13.8783 18.7784C13.8835 18.2798 13.8593 18.2467 13.5605 18.3444C13.414 18.3923 13.2627 18.3353 13.2243 18.2181C13.186 18.1008 13.0861 18.096 13.0023 18.2077C12.9187 18.3193 12.7526 18.3187 12.6332 18.2061C12.4848 18.0661 12.4014 18.0818 12.3694 18.2557ZM20.3855 16.0204C20.4708 16.2524 20.5285 16.2864 20.5327 16.1073C20.5365 15.945 20.4732 15.7732 20.3924 15.7256C20.3115 15.678 20.3085 15.8105 20.3855 16.0204ZM11.9597 18.8788C11.9336 19.0202 11.9779 19.1746 12.0583 19.2219C12.1386 19.2692 12.1637 19.1792 12.1138 19.0218C12.0392 18.7859 12.0711 18.7788 12.2942 18.9813C12.4569 19.1291 12.5349 19.1312 12.4895 18.9864C12.3823 18.6458 12.0166 18.5716 11.9597 18.8788ZM15.4966 18.9567C15.4948 19.131 15.5905 19.242 15.7092 19.2032C15.8502 19.1571 15.9433 19.3181 15.9777 19.667C16.019 20.0862 16.0802 20.1572 16.2609 19.9966C16.3874 19.8841 16.5191 19.8772 16.5531 19.9814C16.6835 20.3804 16.4475 20.5086 16.0074 20.278C15.6378 20.0843 15.5771 20.0935 15.6935 20.3244C15.8785 20.6915 15.8444 21.3893 15.6381 21.4567C15.5509 21.4852 15.4333 21.3671 15.3768 21.1944C15.3204 21.0218 15.2132 20.9616 15.1387 21.0608C15.0583 21.1683 15.0016 21.0793 14.9992 20.8408C14.992 20.1801 15.1471 19.8524 15.4535 19.8814C15.6128 19.8967 15.7102 19.8086 15.6701 19.6859C15.63 19.5632 15.5374 19.4824 15.4639 19.5062C15.3906 19.5302 15.2476 19.3334 15.1461 19.069C15.0214 18.7442 15.0489 18.5967 15.2306 18.6138C15.3787 18.6279 15.4984 18.7821 15.4966 18.9567ZM18.2677 17.8517C18.4941 17.9851 18.7169 18.0073 18.7625 17.9009C18.8083 17.7945 18.7007 17.6618 18.5232 17.6056C17.9893 17.4367 17.8277 17.5925 18.2677 17.8517ZM19.1956 17.8406C19.2318 17.9514 19.3462 18.0144 19.4495 17.9806C19.5529 17.9468 19.5586 17.8446 19.462 17.7535C19.3654 17.6624 19.2512 17.5994 19.208 17.6135C19.1649 17.6276 19.1593 17.7298 19.1956 17.8406ZM17.4048 18.7605C17.4011 19.1154 17.1223 19.3169 17.0292 19.032C16.9595 18.8188 17.0806 18.5319 17.2657 18.4714C17.344 18.4458 17.4066 18.5759 17.4048 18.7605ZM11.5817 21.0116C11.62 21.1289 11.713 21.1429 11.7883 21.0424C11.8636 20.942 11.9122 20.8199 11.8962 20.771C11.8802 20.722 11.7872 20.7082 11.6895 20.7402C11.5918 20.7721 11.5433 20.8943 11.5817 21.0116ZM59.5129 5.554C59.6095 5.64509 59.6038 5.74732 59.5004 5.78111C59.3971 5.8149 59.2827 5.75192 59.2465 5.64109C59.2102 5.53027 59.2158 5.4281 59.2589 5.41399C59.3021 5.39988 59.4163 5.46292 59.5129 5.554ZM57.9576 6.62577C57.9231 6.70571 57.7873 6.62634 57.6556 6.44949C57.4654 6.19382 57.4781 6.16403 57.7182 6.30414C57.8844 6.40124 57.9921 6.54603 57.9576 6.62577ZM64.9526 4.66801C65.0969 4.62087 65.1946 4.69083 65.1702 4.8235C65.1455 4.95623 65.0298 5.03577 64.9127 4.99999C64.7957 4.96442 64.618 5.0854 64.5179 5.26867C64.2359 5.78525 64.0017 5.48444 64.2236 4.89047C64.333 4.59779 64.4814 4.44914 64.5559 4.55748C64.6299 4.66533 64.8086 4.7151 64.9526 4.66801ZM68.5295 3.4888C68.4811 3.74437 68.3942 3.92554 68.3366 3.89174C68.2323 3.83015 68.4185 3.08906 68.549 3.04639C68.5867 3.03408 68.578 3.23317 68.5295 3.4888ZM70.3039 2.78009C70.3175 2.8218 70.2457 3.00809 70.1443 3.19401C69.9932 3.4709 69.9405 3.47273 69.853 3.20493C69.7942 3.0252 69.8661 2.83891 70.0126 2.79101C70.1591 2.74311 70.2902 2.73818 70.3039 2.78009ZM73.8432 2.43813C73.9203 2.67409 73.8685 2.85652 73.7208 2.86844C73.5799 2.87994 73.4493 2.8051 73.4306 2.70236C73.4119 2.59941 73.2648 2.47354 73.1035 2.42231C72.8988 2.35719 72.9459 2.28405 73.2601 2.17889C73.5945 2.06711 73.7436 2.13347 73.8432 2.43813ZM16.3042 21.3744C16.823 21.4236 16.9504 22.1476 16.4577 22.2456C16.1568 22.3055 16.0821 22.4257 16.1869 22.6822C16.3974 23.1973 15.9312 23.0966 15.6231 22.5603C15.4015 22.1744 15.3608 22.1647 15.3571 22.4965C15.3548 22.712 15.2196 22.9317 15.0568 22.9849C14.8159 23.0637 14.8106 22.9662 15.0276 22.4634C15.1744 22.1233 15.4395 21.7471 15.6167 21.6277C15.7939 21.508 15.9489 21.3953 15.9611 21.377C15.9734 21.3588 16.1277 21.3576 16.3042 21.3744ZM54.5461 9.30501C54.686 9.73299 54.6588 9.7876 54.3797 9.63817C54.1465 9.51346 54.0761 9.36607 54.1455 9.14844C54.2881 8.70152 54.3577 8.72872 54.5461 9.30501ZM57.6748 8.05056C57.7292 8.2168 57.644 8.3952 57.4855 8.44699C57.2495 8.52415 57.2194 8.47355 57.3196 8.16668C57.3869 7.96068 57.4721 7.78228 57.5089 7.77026C57.5458 7.75818 57.6205 7.88433 57.6748 8.05056ZM14.5667 22.1781C14.4624 22.2744 14.4615 22.4328 14.5647 22.5302C14.6757 22.6349 14.6494 22.6758 14.5005 22.6304C14.1195 22.5145 14.0831 22.1858 14.4404 22.0889C14.6312 22.0372 14.6813 22.0726 14.5667 22.1781ZM68.5427 4.60964C68.579 4.72047 68.4439 4.86496 68.2429 4.93069C68.0418 4.99641 67.8969 4.94342 67.9211 4.81285C67.9452 4.68229 68.0801 4.53785 68.2209 4.49181C68.3618 4.44576 68.5065 4.49882 68.5427 4.60964ZM13.7562 22.8525C13.8105 23.0187 13.7751 23.1809 13.6774 23.2128C13.5797 23.2447 13.4553 23.1348 13.401 22.9686C13.3466 22.8024 13.3821 22.6402 13.4798 22.6083C13.5775 22.5764 13.7019 22.6863 13.7562 22.8525ZM55.1752 9.42522C55.2114 9.53604 55.1563 9.65441 55.0529 9.6882C54.9495 9.72199 54.8846 9.64287 54.9087 9.51231C54.9329 9.38174 54.9878 9.26343 55.031 9.24932C55.0741 9.23521 55.1389 9.31439 55.1752 9.42522ZM67.5251 5.61139C67.6156 5.88845 67.693 5.98872 67.6969 5.834C67.701 5.67943 67.6269 5.45274 67.5322 5.33025C67.4378 5.2079 67.4345 5.33432 67.5251 5.61139ZM10.7257 24.4076C10.8108 24.6679 10.9756 24.765 11.2051 24.69C11.4344 24.615 11.4891 24.4881 11.364 24.3207C11.0471 23.8968 10.5795 23.9604 10.7257 24.4076ZM72.3612 4.24489C72.2513 4.39503 72.2428 4.56575 72.3426 4.62456C72.4423 4.68343 72.6089 4.53396 72.7128 4.29256C72.9147 3.82354 72.6923 3.79321 72.3612 4.24489ZM56.2609 9.73941C56.2971 9.85024 56.2468 9.96704 56.1491 9.99897C56.0514 10.0309 55.9419 9.96636 55.9056 9.85553C55.8694 9.74471 55.9197 9.62791 56.0174 9.59597C56.1151 9.56404 56.2246 9.62859 56.2609 9.73941ZM59.9021 8.54918C59.9988 8.64026 59.9485 8.75706 59.7904 8.80874C59.6323 8.86041 59.5227 8.79587 59.5469 8.6653C59.5711 8.53473 59.6213 8.41793 59.6586 8.40574C59.6959 8.39355 59.8055 8.45809 59.9021 8.54918ZM11.7654 24.5811C11.9022 24.9994 12.1575 25.0685 12.3387 24.7363C12.577 24.2996 12.4427 24.0625 12.0329 24.1964C11.8375 24.2603 11.7172 24.4334 11.7654 24.5811ZM54.2841 10.6086C54.3807 10.6997 54.375 10.8019 54.2716 10.8357C54.1682 10.8695 54.0539 10.8065 54.0176 10.6957C53.9814 10.5849 53.9869 10.4827 54.0301 10.4686C54.0733 10.4545 54.1875 10.5175 54.2841 10.6086ZM76.5707 3.76976C76.984 3.99393 77.0283 4.06622 76.7987 4.14129C76.6418 4.19256 76.4359 4.13453 76.341 4.01209C76.2114 3.8446 76.1465 3.87963 76.079 4.15351C76.0048 4.45475 75.9635 4.4395 75.8384 4.06485C75.6518 3.50539 75.8996 3.40567 76.5707 3.76976ZM58.6887 9.94944C58.7431 10.1157 58.7101 10.277 58.6154 10.3079C58.5209 10.3388 58.445 10.2131 58.4468 10.0285C58.4488 9.84387 58.4818 9.68255 58.5201 9.67001C58.5585 9.65747 58.6344 9.7832 58.6887 9.94944ZM43.8053 14.9391C43.8436 15.0564 43.9366 15.0704 44.0119 14.9699C44.0872 14.8695 44.1358 14.7475 44.1198 14.6985C44.1038 14.6495 44.0108 14.6358 43.9131 14.6677C43.8154 14.6996 43.7669 14.8219 43.8053 14.9391ZM51.6826 12.5741C51.7189 12.6849 51.7133 12.7871 51.6702 12.8012C51.627 12.8153 51.5128 12.7523 51.4162 12.6612C51.3196 12.5701 51.3253 12.4679 51.4287 12.4341C51.532 12.4003 51.6464 12.4633 51.6826 12.5741ZM59.7415 10.1629C59.7777 10.2737 59.7226 10.3921 59.6193 10.4259C59.5159 10.4597 59.4509 10.3805 59.4751 10.25C59.4992 10.1194 59.5542 10.0011 59.5973 9.98699C59.6405 9.97288 59.7053 10.0521 59.7415 10.1629ZM52.2131 13.2324C52.0997 13.4963 51.8498 13.2365 51.9091 12.9162C51.9538 12.6741 51.9957 12.6604 52.1227 12.8455C52.2097 12.9721 52.2503 13.1462 52.2131 13.2324ZM11.8732 26.7151C11.9477 26.9432 12.0676 27.0514 12.1397 26.9554C12.2117 26.8594 12.1821 26.6623 12.0739 26.5177C11.7969 26.1472 11.7141 26.2285 11.8732 26.7151ZM58.0594 11.7833C57.9011 11.8776 57.8006 12.0441 57.8363 12.1533C57.872 12.2625 57.7882 12.3175 57.6499 12.2753C57.475 12.2221 57.4694 12.0863 57.6313 11.8293C57.7594 11.6262 57.973 11.4941 58.1058 11.5359C58.2577 11.5835 58.2404 11.6755 58.0594 11.7833ZM15.2297 25.7515C15.1893 25.8455 15.2839 26.0139 15.4398 26.126C15.8547 26.4244 15.7977 27.0626 15.3604 27.0133C14.7161 26.9409 14.4378 27.0385 14.4359 27.3376C14.4348 27.5014 14.3176 27.5972 14.1727 27.5532C13.8028 27.4406 13.9484 26.9006 14.4004 26.7089C14.6378 26.6083 14.7111 26.4601 14.5983 26.3092C14.4998 26.1775 14.5095 26.0971 14.6197 26.1307C14.7302 26.1643 14.8406 26.0832 14.8652 25.9505C14.8897 25.8178 14.9983 25.6804 15.1066 25.645C15.2148 25.6096 15.2702 25.6575 15.2297 25.7515ZM50.5464 14.4942C50.3736 14.7838 50.1425 14.9931 50.0326 14.9597C49.9226 14.9263 50.0258 14.7079 50.2616 14.4742C50.8576 13.8844 50.9081 13.888 50.5464 14.4942ZM10.8447 27.6322C10.7404 27.7286 10.7238 27.8723 10.808 27.9516C10.9921 28.1251 11.4325 27.7729 11.3493 27.5184C11.2859 27.3243 11.144 27.3564 10.8447 27.6322ZM49.8546 15.4019C49.8908 15.5128 49.8853 15.6149 49.8421 15.629C49.7989 15.6431 49.6848 15.5801 49.5881 15.489C49.4915 15.3979 49.4972 15.2957 49.6006 15.2619C49.704 15.2281 49.8183 15.2911 49.8546 15.4019ZM54.1606 14.0957C54.2286 14.005 54.2826 14.087 54.2807 14.2781C54.2754 14.7982 53.9788 14.7936 53.8257 14.2712C53.7519 14.0194 53.7692 13.9138 53.8641 14.0369C53.9592 14.1599 54.0925 14.1864 54.1606 14.0957ZM45.5228 17.487C45.4986 17.6175 45.5636 17.6967 45.667 17.6629C45.7704 17.6291 45.8255 17.5107 45.7892 17.3999C45.753 17.2891 45.6882 17.2099 45.645 17.224C45.6019 17.2381 45.547 17.3564 45.5228 17.487ZM57.0698 13.8127C57.1993 13.986 57.1666 14.0632 56.9712 14.0445C56.8101 14.0294 56.6959 13.9213 56.7176 13.8042C56.772 13.5099 56.8445 13.5116 57.0698 13.8127ZM54.4798 15.1167C54.736 15.3011 54.7541 15.3616 54.5699 15.4218C54.4436 15.4631 54.2495 15.6813 54.1388 15.9069C53.9574 16.2764 53.9173 16.2895 53.7308 16.0402C53.617 15.8881 53.6061 15.7369 53.7064 15.7041C53.807 15.6712 53.8168 15.5761 53.7284 15.4928C53.64 15.4095 53.6532 15.2627 53.7576 15.1664C54.0671 14.881 54.1444 14.8755 54.4798 15.1167ZM15.5675 28.3937C15.6037 28.5046 15.5486 28.6229 15.4453 28.6567C15.3419 28.6905 15.2769 28.6114 15.3011 28.4808C15.3252 28.3503 15.3801 28.2319 15.4233 28.2178C15.4665 28.2037 15.5313 28.2829 15.5675 28.3937ZM53.5413 16.9064C53.4445 17.1312 53.3853 17.0961 53.3007 16.7647C53.2268 16.4748 53.2706 16.3731 53.4291 16.4665C53.5877 16.5598 53.6259 16.7099 53.5413 16.9064ZM47.4477 18.865C47.484 18.9758 47.4784 19.078 47.4353 19.0921C47.3921 19.1062 47.2779 19.0432 47.1813 18.9521C47.0847 18.861 47.0904 18.7588 47.1938 18.725C47.2972 18.6912 47.4115 18.7542 47.4477 18.865ZM53.0236 17.0181C53.1096 17.099 53.0315 17.3755 52.8499 17.6325C52.4661 18.175 52.3542 18.2374 52.2635 17.9599C52.2273 17.8491 52.3176 17.7193 52.4641 17.6714C52.6106 17.6235 52.6861 17.4483 52.6317 17.282C52.5237 16.9516 52.7742 16.7827 53.0236 17.0181ZM11.6896 31.5497C11.6208 31.7602 11.5967 31.9302 11.6362 31.9276C12.2564 31.8859 12.5352 31.7207 12.4044 31.4726C12.1889 31.0642 11.8357 31.1023 11.6896 31.5497ZM47.9317 20.045C47.9076 20.1755 47.8127 20.3069 47.7207 20.337C47.6287 20.3671 47.5239 20.301 47.4877 20.1901C47.4515 20.0793 47.5465 19.9479 47.6987 19.8981C47.851 19.8484 47.9559 19.9144 47.9317 20.045ZM51.9223 19.322C51.9366 19.3655 51.8283 19.4404 51.6818 19.4883C51.5353 19.5362 51.3866 19.4875 51.3515 19.3801C51.3165 19.2729 51.4247 19.1981 51.5921 19.2138C51.7595 19.2298 51.9081 19.2785 51.9223 19.322ZM83.4789 10.433C83.6026 10.6381 83.6146 10.779 83.5058 10.7456C83.3969 10.7125 83.2651 10.5549 83.2129 10.3951C83.0766 9.97797 83.2166 9.99799 83.4789 10.433ZM52.3266 21.1601C52.3426 21.2091 52.294 21.3311 52.2187 21.4316C52.1434 21.532 52.0504 21.518 52.012 21.4008C51.9737 21.2835 52.0222 21.1612 52.1199 21.1293C52.2176 21.0974 52.3106 21.1111 52.3266 21.1601ZM13.4411 34.2185C13.417 34.349 13.4866 34.4266 13.5958 34.3909C13.705 34.3552 13.7716 34.4494 13.7438 34.6001C13.7129 34.7661 13.7529 34.7941 13.8451 34.6712C13.9288 34.5597 13.9086 34.35 13.8004 34.2054C13.5685 33.8954 13.5005 33.8977 13.4411 34.2185ZM14.6169 33.7592C14.5125 33.8555 14.5116 34.014 14.6148 34.1114C14.7268 34.2168 14.6994 34.257 14.547 34.2105C14.2464 34.1192 14.2767 33.7145 14.5899 33.6375C14.7449 33.5994 14.7527 33.6341 14.6169 33.7592ZM43.9667 24.4548C43.6942 25.1632 43.8779 25.5436 44.5107 25.5821C45.0445 25.6146 45.094 25.5692 45.047 25.0919C45.0124 24.7403 44.8509 24.4786 44.5605 24.303C44.1604 24.0609 44.1135 24.0729 43.9667 24.4548ZM12.0101 35.5545C12.0425 35.6534 12.2134 35.7481 12.3899 35.7649C12.8862 35.8121 12.9302 35.7522 12.583 35.5026C12.2284 35.2478 11.919 35.2758 12.0101 35.5545ZM12.2148 36.1805C12.251 36.2913 12.3654 36.3543 12.4687 36.3205C12.5721 36.2867 12.5778 36.1845 12.4812 36.0934C12.3846 36.0023 12.2704 35.9393 12.2272 35.9534C12.1841 35.9675 12.1785 36.0697 12.2148 36.1805ZM42.6425 27.2551C42.6376 27.7393 42.7328 27.7954 42.9863 27.4574C43.1327 27.2619 43.1141 27.1477 42.9164 27.0313C42.7189 26.9149 42.6455 26.9748 42.6425 27.2551ZM43.4733 26.855C43.4492 26.9856 43.5587 27.0501 43.7168 26.9985C43.8749 26.9468 43.9252 26.83 43.8286 26.7389C43.732 26.6478 43.6224 26.5833 43.5851 26.5955C43.5478 26.6077 43.4975 26.7245 43.4733 26.855ZM85.5799 13.426C85.6342 13.5923 85.5987 13.7544 85.501 13.7863C85.4033 13.8183 85.2789 13.7084 85.2246 13.5422C85.1703 13.3759 85.2057 13.2138 85.3034 13.1818C85.4011 13.1499 85.5255 13.2598 85.5799 13.426ZM44.3102 27.1237C44.1448 27.5877 44.4208 27.7182 44.6147 27.2679C44.6996 27.0706 44.7521 26.8577 44.7314 26.7942C44.6651 26.5915 44.4362 26.7707 44.3102 27.1237ZM13.8655 37.6219C13.9017 37.7327 14.0296 37.8533 14.1497 37.8898C14.2698 37.9264 14.3384 37.8656 14.3022 37.7548C14.2659 37.644 14.1381 37.5234 14.018 37.4868C13.8979 37.4503 13.8293 37.5111 13.8655 37.6219ZM13.6156 38.7743C13.7627 38.7907 13.9137 38.7333 13.9508 38.6472C13.9879 38.561 13.8675 38.5477 13.6831 38.6175C13.4794 38.6949 13.4529 38.7564 13.6156 38.7743ZM14.0448 40.2695C14.1431 40.3621 14.2807 40.3615 14.3508 40.2679C14.5407 40.0146 14.4553 39.9087 14.1433 40.0107C13.991 40.0605 13.9467 40.1769 14.0448 40.2695ZM85.9991 17.415C86.0957 17.5061 86.0454 17.6229 85.8873 17.6746C85.7292 17.7263 85.6196 17.6617 85.6438 17.5312C85.668 17.4006 85.7183 17.2838 85.7556 17.2716C85.7929 17.2594 85.9024 17.324 85.9991 17.415ZM14.9795 42.0031C15.3973 42.7857 15.4373 42.8009 15.8302 42.3308C16.1118 41.9937 16.1111 41.9399 15.8253 41.9633C15.6412 41.9787 15.4511 41.8713 15.4034 41.7252C15.3556 41.5789 15.1677 41.4451 14.9859 41.4279C14.7085 41.4014 14.7075 41.4939 14.9795 42.0031ZM84.131 18.9178C84.2277 19.0089 84.3418 19.0719 84.385 19.0578C84.4282 19.0437 84.4337 18.9415 84.3975 18.8307C84.3613 18.7198 84.2469 18.6569 84.1435 18.6907C84.0401 18.7245 84.0344 18.8267 84.131 18.9178ZM14.6643 42.4238C14.7495 42.6557 14.8072 42.6897 14.8114 42.5106C14.8152 42.3484 14.7519 42.1765 14.6711 42.1289C14.5903 42.0813 14.5872 42.2139 14.6643 42.4238ZM16.0009 44.7562C16.0372 44.867 16.1467 44.9316 16.2444 44.8996C16.3421 44.8677 16.3924 44.7509 16.3562 44.6401C16.32 44.5293 16.2104 44.4647 16.1127 44.4966C16.015 44.5286 15.9647 44.6454 16.0009 44.7562ZM83.9623 22.8463C83.8779 23.1049 83.9302 23.225 84.1781 23.3416C84.4458 23.4673 84.4702 23.404 84.3122 22.9928C84.0861 22.4039 84.1043 22.4116 83.9623 22.8463ZM85.9931 23.3957C85.9588 23.4756 85.7953 23.4606 85.6296 23.3622C85.3905 23.22 85.4034 23.1904 85.6922 23.2169C85.8921 23.2354 86.0275 23.3158 85.9931 23.3957ZM17.1865 46.5787C17.2171 46.6724 17.3816 46.8147 17.5519 46.8948C17.7857 47.0046 17.8384 46.9691 17.7667 46.7499C17.7146 46.5903 17.5501 46.448 17.4012 46.4338C17.2525 46.4197 17.1558 46.485 17.1865 46.5787ZM83.48 25.2755C83.4745 25.8139 83.5597 25.9517 83.6459 25.5442C83.7088 25.2475 83.7646 25.2235 83.9654 25.4059C84.0991 25.5276 84.3265 25.5537 84.4705 25.4638C84.8014 25.2575 84.4673 24.9385 83.9061 24.925C83.6136 24.918 83.4827 25.0257 83.48 25.2755ZM84.666 24.7647C84.6419 24.8952 84.7069 24.9744 84.8102 24.9406C84.9136 24.9068 84.9687 24.7884 84.9325 24.6776C84.8963 24.5668 84.8314 24.4876 84.7883 24.5017C84.7451 24.5158 84.6902 24.6341 84.666 24.7647ZM19.2423 49.2593C19.2764 49.3636 19.4014 49.4784 19.5202 49.5146C19.6438 49.5522 19.6472 49.4617 19.528 49.3021C19.2958 48.9918 19.1476 48.9695 19.2423 49.2593ZM20.753 49.6707C20.5798 49.912 20.5957 49.9389 20.8623 49.8547C21.0337 49.8005 21.1445 49.6654 21.1082 49.5546C21.0279 49.3088 21.0078 49.3153 20.753 49.6707ZM23.4561 52.7274C23.415 52.8225 23.4394 53.0777 23.5103 53.2945C23.6173 53.6219 23.6703 53.6313 23.8236 53.3506C23.925 53.1647 23.9672 52.8878 23.9173 52.7352C23.8213 52.4414 23.5807 52.4375 23.4561 52.7274ZM81.3559 35.3883C81.3842 35.475 81.2094 35.6318 80.9675 35.7367C80.7125 35.8475 80.5459 35.8286 80.5712 35.6919C80.6227 35.4139 81.281 35.1592 81.3559 35.3883ZM79.6939 39.3256C79.7301 39.4365 79.6193 39.5715 79.4479 39.6257C79.1814 39.71 79.1655 39.683 79.3387 39.4418C79.5935 39.0864 79.6135 39.0798 79.6939 39.3256ZM76.6463 43.2343C76.6805 43.3387 76.6284 43.4501 76.5307 43.482C76.433 43.5139 76.3068 43.3986 76.2504 43.2259C76.1939 43.0533 76.2459 42.9417 76.366 42.9783C76.4861 43.0148 76.6122 43.13 76.6463 43.2343ZM82.2605 41.163C82.2967 41.2738 82.2464 41.3906 82.1487 41.4226C82.0511 41.4545 81.9415 41.39 81.9053 41.2791C81.869 41.1683 81.9193 41.0515 82.017 41.0196C82.1147 40.9877 82.2243 41.0522 82.2605 41.163ZM81.6215 41.8737C81.662 42.1366 81.7028 42.3991 81.7122 42.4574C81.7216 42.5157 81.617 42.4597 81.4799 42.3331C81.3258 42.1907 81.2756 41.9759 81.3483 41.7712C81.5102 41.3157 81.5369 41.3257 81.6215 41.8737ZM77.1888 44.3495C76.9599 44.5376 76.7587 44.3737 76.8189 44.048C76.8572 43.8414 76.9322 43.8274 77.1095 43.9938C77.2499 44.1257 77.2827 44.2724 77.1888 44.3495ZM79.8701 43.5799C79.9692 43.7676 79.9234 43.9342 79.7579 43.9883C79.6042 44.0386 79.5247 44.2211 79.5811 44.3938C79.6376 44.5665 79.5926 44.6802 79.4812 44.6462C79.2361 44.5717 79.2451 45.3991 79.4918 45.632C79.5932 45.7274 79.5342 45.7846 79.3522 45.7673C79.1497 45.7481 79.0743 45.8506 79.1411 46.0549C79.2082 46.2602 79.1327 46.3617 78.9269 46.3421C78.706 46.3211 78.6445 46.2293 78.7255 46.0411C78.8065 45.8529 78.7559 45.7082 78.5598 45.5673C78.1342 45.2613 77.9093 45.4256 78.1862 45.84C78.3746 46.1224 78.337 46.2888 78.0215 46.567C77.6943 46.8559 77.6622 47.0223 77.8603 47.4005C77.9966 47.6604 78.0392 47.8956 77.955 47.9231C77.8067 47.9716 77.5854 47.5543 77.4759 47.0203C77.4118 46.7067 77.091 46.7743 77.028 47.1145C77.0034 47.2472 76.8679 47.3225 76.727 47.2816C76.5809 47.2395 76.6235 47.3199 76.8257 47.4688C77.1383 47.6987 77.1357 47.7448 76.8039 47.8533C76.5872 47.9241 76.385 47.8479 76.3282 47.6742C76.2739 47.508 76.1445 47.3997 76.041 47.4336C75.9189 47.4735 75.7916 47.1701 75.6803 46.5733C75.5754 46.0112 75.3727 45.5078 75.1608 45.2834C74.8424 44.9463 74.8484 44.926 75.231 45.0447C75.6827 45.1846 76.2009 46.4626 75.9581 46.838C75.7149 47.2143 76.3552 47.4062 76.6438 47.0434C76.7941 46.8544 76.8035 46.749 76.6665 46.7898C76.1147 46.9543 76.5782 46.3659 77.147 46.1799C77.5795 46.0386 77.8323 45.8003 77.9615 45.4119C78.1169 44.9456 78.194 44.8889 78.4103 45.0823C78.6268 45.2758 78.7486 45.1874 79.1225 44.566C79.4295 44.0555 79.5043 43.724 79.3569 43.5268C79.2088 43.3288 79.2294 43.2413 79.4217 43.2498C79.5764 43.257 79.7781 43.4054 79.8701 43.5799ZM81.0977 43.0189C81.1116 43.0612 80.9631 43.1483 80.7677 43.2122C80.5723 43.2761 80.3856 43.2461 80.3528 43.1457C80.3199 43.0452 80.4685 42.9583 80.6827 42.9522C80.8971 42.9464 81.0838 42.9764 81.0977 43.0189ZM76.4947 44.5748C76.5254 44.6687 76.7626 44.7852 77.0217 44.8337C77.471 44.9176 77.4761 44.9278 77.1331 45.0542C76.7736 45.1868 76.2358 44.9857 76.1364 44.6814C76.1074 44.5928 76.1636 44.4941 76.2613 44.4622C76.359 44.4303 76.464 44.4809 76.4947 44.5748ZM80.6153 44.7481C80.5821 44.8247 80.4398 44.8525 80.299 44.8095C80.109 44.7516 80.0907 44.6673 80.2282 44.4829C80.4106 44.2387 80.7379 44.4629 80.6153 44.7481ZM73.2757 48.5605C73.3119 48.6713 73.2568 48.7897 73.1535 48.8235C73.0501 48.8573 72.9851 48.7782 73.0093 48.6476C73.0334 48.517 73.0883 48.3987 73.1315 48.3846C73.1747 48.3705 73.2395 48.4497 73.2757 48.5605ZM71.4746 49.3698C71.574 49.4636 71.5138 49.5207 71.3333 49.5037C70.9819 49.4702 70.8783 49.3441 71.1338 49.2607C71.2258 49.2306 71.379 49.2797 71.4746 49.3698ZM76.176 48.8949C76.224 49.2164 76.1912 49.3746 76.1028 49.246C75.9435 49.0144 75.8847 48.3768 76.0186 48.333C76.057 48.3205 76.1279 48.5734 76.176 48.8949ZM74.2696 49.7968C74.3059 49.9076 74.5353 49.933 74.7795 49.8532C75.0238 49.7733 75.2506 49.7906 75.2837 49.8918C75.3505 50.0963 74.6174 50.2869 74.2244 50.1673C73.9148 50.0732 73.7835 49.7327 74.0261 49.6534C74.1238 49.6215 74.2334 49.686 74.2696 49.7968ZM72.3214 50.8797C72.3427 51.1181 72.2867 51.3371 72.197 51.3664C72.1069 51.3959 72.0601 51.2116 72.0923 50.9546C72.1244 50.6988 72.1803 50.4798 72.2167 50.4679C72.2529 50.456 72.2999 50.6414 72.3214 50.8797ZM77.2809 48.9472C77.2437 49.0334 77.0928 49.0908 76.9457 49.0744C76.783 49.0565 76.8095 48.9949 77.0132 48.9176C77.1976 48.8478 77.318 48.8611 77.2809 48.9472ZM37.6859 62.3312C37.7712 62.5631 37.8289 62.5971 37.8331 62.418C37.8368 62.2557 37.7736 62.0839 37.6928 62.0363C37.6119 61.9887 37.6089 62.1213 37.6859 62.3312ZM69.1615 52.5563C69.2471 52.6371 69.1737 52.8023 68.9983 52.9232C68.6434 53.1683 68.2822 52.9721 68.581 52.6965C68.8745 52.4259 68.9928 52.3973 69.1615 52.5563ZM72.0975 51.9786C72.0952 52.2031 72.011 52.2734 71.8552 52.1816C71.5764 52.0174 71.6218 51.4893 71.9072 51.5762C72.0137 51.6086 72.0994 51.7897 72.0975 51.9786ZM73.7685 51.5218C73.9069 51.4766 74.0489 51.5274 74.084 51.6348C74.1191 51.742 74.0117 51.817 73.8451 51.8012C73.6724 51.7848 73.541 51.9265 73.5387 52.1313C73.5368 52.3287 73.4238 52.5266 73.2877 52.5711C72.9581 52.6789 72.8634 52.3447 73.1512 52.089C73.2769 51.9774 73.3333 51.7223 73.2764 51.5223C73.2156 51.3087 73.244 51.2506 73.345 51.3815C73.4396 51.504 73.6301 51.5671 73.7685 51.5218ZM63.6321 54.8387C63.7304 54.9313 63.868 54.9307 63.9381 54.8371C64.128 54.5839 64.0426 54.4779 63.7305 54.58C63.5783 54.6297 63.534 54.7461 63.6321 54.8387ZM68.7639 54.0097C68.5809 54.1085 68.4589 54.274 68.4926 54.3772C68.5262 54.4801 68.481 54.5884 68.3919 54.6175C68.3029 54.6466 68.205 54.5028 68.1743 54.2983C68.1436 54.0938 68.1051 53.8648 68.0888 53.7896C68.0727 53.7144 68.2926 53.6927 68.5779 53.7413C69.0488 53.8215 69.0659 53.8461 68.7639 54.0097ZM71.5358 52.861C71.5978 53.0506 71.5161 53.1484 71.3124 53.1291C71.1359 53.1123 70.9181 53.1226 70.8284 53.152C70.7387 53.1813 70.6394 53.1259 70.6077 53.029C70.576 52.932 70.7499 52.7873 70.9941 52.7075C71.268 52.618 71.4756 52.6768 71.5358 52.861ZM41.2168 62.9559C41.2733 63.1286 41.2197 63.2395 41.0977 63.2025C40.9756 63.1652 40.8941 63.0355 40.9167 62.9139C40.9775 62.5847 41.1011 62.6019 41.2168 62.9559ZM72.5792 52.4443C72.5934 52.4878 72.5023 52.6149 72.3766 52.7266C72.2509 52.8382 72.1193 52.8417 72.0843 52.7345C72.0492 52.6271 72.1403 52.5001 72.2869 52.4522C72.4334 52.4043 72.565 52.4008 72.5792 52.4443ZM44.8971 62.1858C44.9515 62.352 44.8808 62.5257 44.74 62.5717C44.3966 62.6839 44.1145 62.397 44.3525 62.1774C44.6823 61.8733 44.7956 61.8751 44.8971 62.1858ZM71.4325 53.6359C71.2399 53.8125 71.1568 54.0273 71.2474 54.1127C71.3382 54.1984 71.3498 54.3518 71.2733 54.454C71.1967 54.556 71.0756 54.4604 71.004 54.2414C70.872 53.8374 71.037 53.5677 71.5169 53.4046C71.6629 53.3551 71.6249 53.459 71.4325 53.6359ZM67.1758 55.4611C67.1516 55.5916 67.012 55.7376 66.8654 55.7855C66.7189 55.8334 66.6187 55.7658 66.6429 55.6352C66.6671 55.5047 66.8067 55.3587 66.9532 55.3108C67.0998 55.2629 67.1999 55.3305 67.1758 55.4611ZM44.942 62.9245C44.9737 63.0217 44.9212 63.2451 44.8251 63.4211C44.6842 63.6792 44.6395 63.6671 44.5927 63.3572C44.5609 63.1461 44.5333 62.9486 44.5317 62.9186C44.5238 62.7668 44.8921 62.772 44.942 62.9245ZM65.3624 56.5795C65.3588 56.9263 64.9122 57.2572 64.8216 56.98C64.7731 56.8319 65.1981 56.1129 65.2992 56.1724C65.3359 56.194 65.3643 56.3772 65.3624 56.5795ZM66.11 56.1099C66.1225 56.1484 66.0413 56.4412 65.9294 56.7606C65.7287 57.3338 65.5814 57.2452 65.5886 56.5557C65.5917 56.2619 66.0356 55.8824 66.11 56.1099ZM70.4699 55.0132C70.5378 55.2208 69.9736 56.3308 69.7658 56.3987C69.6807 56.4265 69.4521 56.334 69.2576 56.1932C68.9408 55.9636 68.9549 55.9351 69.3954 55.9171C69.7602 55.9023 69.9094 55.777 69.9751 55.4301C70.064 54.9612 70.3689 54.7043 70.4699 55.0132ZM43.3714 64.1342C43.4076 64.245 43.3525 64.3634 43.2492 64.3972C43.1458 64.431 43.0808 64.3519 43.105 64.2213C43.1291 64.0907 43.184 63.9724 43.2272 63.9583C43.2704 63.9442 43.3352 64.0234 43.3714 64.1342ZM67.9045 56.04C67.8001 56.1364 67.7779 56.2748 67.8552 56.3476C67.9325 56.4205 67.8178 56.5845 67.6003 56.7118C67.1442 56.9786 67.0313 56.4919 67.4772 56.1817C67.8488 55.9231 68.1337 55.8288 67.9045 56.04ZM62.8869 57.9781C62.9883 58.0737 62.8511 58.2115 62.5626 58.3038C62.1744 58.428 62.1079 58.4007 62.2652 58.1813C62.5246 57.8195 62.6689 57.7724 62.8869 57.9781ZM42.3486 64.9146C42.3244 65.0452 42.3894 65.1243 42.4928 65.0905C42.5962 65.0567 42.6512 64.9383 42.615 64.8275C42.5788 64.7167 42.514 64.6375 42.4708 64.6516C42.4277 64.6657 42.3727 64.784 42.3486 64.9146ZM65.0213 57.5911C65.0356 57.6346 64.9444 57.7617 64.8187 57.8735C64.693 57.985 64.5614 57.9886 64.5264 57.8814C64.4913 57.774 64.5825 57.6469 64.729 57.599C64.8755 57.5511 65.0071 57.5476 65.0213 57.5911ZM61.3083 59.1632C61.2841 59.2938 61.1687 59.4303 61.0518 59.4667C60.924 59.5063 60.9201 59.4199 61.0419 59.2503C61.3013 58.8885 61.3627 58.8684 61.3083 59.1632ZM59.2964 60.2515C59.3864 60.3363 59.3972 60.4891 59.3207 60.5913C59.2441 60.6932 59.1354 60.6354 59.0789 60.4627C58.9632 60.1086 59.0528 60.0218 59.2964 60.2515ZM47.4737 64.3545C47.4495 64.485 47.3499 64.618 47.2522 64.6499C47.1545 64.6818 47.0943 64.6012 47.1185 64.4706C47.1426 64.34 47.2423 64.2071 47.34 64.1752C47.4377 64.1432 47.4979 64.2239 47.4737 64.3545ZM58.0596 61.1172C58.58 61.345 58.6267 61.4837 58.2032 61.5427C58.0784 61.5603 58.2006 62.2271 58.459 62.9382C58.5827 63.278 58.3372 63.3282 57.8766 63.057C57.5422 62.8598 57.4736 62.8789 57.3318 63.2085C57.2424 63.4157 57.2235 63.6307 57.2895 63.686C57.3558 63.7413 57.3102 63.7415 57.1883 63.6861C56.8752 63.5438 56.8239 62.5881 57.1311 62.6173C57.3994 62.6429 57.6751 62.1825 57.575 61.8763C57.5421 61.7757 57.4153 61.7824 57.2933 61.8907C57.1096 62.0541 57.0777 61.992 57.1084 61.529C57.1532 60.8513 57.3034 60.7861 58.0596 61.1172ZM48.2586 64.2447C48.2182 64.3386 48.314 64.508 48.4714 64.6212C48.8537 64.8961 48.6038 64.9622 48.1633 64.7025C47.708 64.4344 47.6734 64.2892 48.0362 64.1706C48.1989 64.1174 48.2991 64.1507 48.2586 64.2447ZM60.9899 60.6209C60.9232 60.9821 60.6256 60.9757 60.6294 60.6131C60.6313 60.4292 60.7224 60.306 60.8318 60.3393C60.9412 60.3727 61.0125 60.4993 60.9899 60.6209ZM64.009 59.4025C63.736 59.7469 63.9889 60.4058 64.3488 60.2881C64.5072 60.2364 64.5236 60.0274 64.3937 59.7159C64.2813 59.446 64.2712 59.3244 64.3715 59.4457C64.4717 59.5671 64.6111 59.59 64.6811 59.4964C64.8151 59.3179 64.5682 58.9848 64.3608 59.0642C64.2944 59.0897 64.136 59.2419 64.009 59.4025ZM69.5108 57.6779C69.5049 58.2691 69.8757 58.3403 70.1763 57.8054C70.3375 57.5185 70.4382 57.2867 70.4004 57.2899C69.697 57.3508 69.5134 57.4309 69.5108 57.6779ZM63.1209 60.0726C62.9748 60.1957 62.9962 60.2938 63.2021 60.4417C63.558 60.6976 63.3685 60.9592 62.8161 60.9745C62.3943 60.9861 62.3931 60.9796 62.7192 60.3569C62.9004 60.0107 63.1096 59.7674 63.1844 59.8161C63.2591 59.8649 63.2306 59.9803 63.1209 60.0726ZM56.5624 62.3872C56.6727 62.7248 56.2454 62.9474 55.9756 62.693C55.8762 62.5993 55.9364 62.5422 56.1169 62.5592C56.2902 62.5757 56.399 62.4888 56.3589 62.3661C56.3188 62.2434 56.326 62.13 56.3748 62.114C56.4237 62.0981 56.5081 62.221 56.5624 62.3872ZM46.1156 65.9135C46.1518 66.0244 46.2662 66.0874 46.3696 66.0536C46.473 66.0198 46.4787 65.9175 46.3821 65.8265C46.2854 65.7354 46.1713 65.6723 46.1281 65.6864C46.0849 65.7006 46.0794 65.8027 46.1156 65.9135ZM66.559 59.288C66.6133 59.4542 66.8146 59.6639 67.0062 59.754C67.2896 59.8871 67.3362 59.8614 67.2559 59.6156C67.2015 59.4493 67.0003 59.2397 66.8086 59.1495C66.5253 59.0164 66.4786 59.0422 66.559 59.288ZM48.1703 65.7638C48.1684 65.954 48.3051 66.1114 48.4874 66.1288C48.9542 66.1729 48.9898 65.9101 48.552 65.6522C48.2191 65.4561 48.1734 65.4695 48.1703 65.7638ZM51.5743 64.5695C51.6096 64.6775 51.4447 64.985 51.2078 65.2527C50.7042 65.8219 50.5801 65.6871 50.9498 64.9728C51.2352 64.4216 51.4753 64.2664 51.5743 64.5695ZM64.9636 60.4217C64.9998 60.5326 65.1142 60.5955 65.2175 60.5617C65.3209 60.5279 65.3266 60.4257 65.23 60.3346C65.1334 60.2436 65.0192 60.1805 64.976 60.1946C64.9329 60.2087 64.9273 60.3109 64.9636 60.4217ZM60.2562 62.3367C60.1394 62.7061 60.1571 62.7271 60.4037 62.5115C60.5577 62.3769 60.7618 62.2412 60.8574 62.21C60.9528 62.1788 60.9519 62.0787 60.8553 61.9876C60.6001 61.747 60.4071 61.8596 60.2562 62.3367ZM65.7399 60.391C65.7762 60.5018 65.8857 60.5664 65.9834 60.5344C66.0811 60.5025 66.1314 60.3857 66.0952 60.2749C66.0589 60.164 65.9494 60.0995 65.8517 60.1314C65.754 60.1634 65.7037 60.2802 65.7399 60.391ZM67.029 60.4192C67.1273 60.5118 67.2649 60.5112 67.335 60.4176C67.5249 60.1644 67.4396 60.0584 67.1275 60.1605C66.9753 60.2102 66.9309 60.3266 67.029 60.4192ZM53.6816 65.0016C53.7178 65.1125 53.6627 65.2308 53.5593 65.2646C53.456 65.2984 53.391 65.2193 53.4151 65.0887C53.4393 64.9582 53.4942 64.8398 53.5374 64.8257C53.5805 64.8116 53.6453 64.8908 53.6816 65.0016ZM64.4308 61.4726C64.4082 61.5942 64.5048 61.7285 64.6455 61.7713C64.8168 61.8235 64.8244 61.7768 64.6685 61.63C64.5004 61.4715 64.5278 61.4193 64.767 61.4419C64.9492 61.4593 65.117 61.3712 65.1401 61.2463C65.1632 61.1215 65.0223 61.0716 64.8269 61.1355C64.6315 61.1994 64.4532 61.3511 64.4308 61.4726ZM58.7867 63.7789C58.823 63.8898 58.8174 63.9919 58.7743 64.0061C58.7311 64.0202 58.6169 63.9571 58.5203 63.866C58.4237 63.775 58.4294 63.6727 58.5328 63.6389C58.6361 63.6051 58.7505 63.6681 58.7867 63.7789ZM54.2412 66.0021C54.19 66.1654 54.1741 66.491 54.2061 66.7259C54.2496 67.0474 54.1927 67.008 53.9759 66.5666C53.7434 66.0937 53.7503 65.9534 54.0111 65.8427C54.2413 65.7451 54.3076 65.791 54.2412 66.0021ZM55.6585 66.238C55.728 66.4506 55.4164 66.6515 55.2541 66.4984C55.156 66.4058 55.2003 66.2894 55.3526 66.2397C55.5048 66.1899 55.6425 66.189 55.6585 66.238Z" fill="#4B73F3"/>
</svg>
