<svg width="34" height="34" viewBox="0 0 34 34" fill="none" xmlns="http://www.w3.org/2000/svg">
<g clip-path="url(#clip0_401_1509)">
<path d="M29.6238 16.1512C24.6014 16.8262 19.5789 17.5011 14.5564 18.176C14.1327 18.2329 14.0133 18.1657 13.8606 17.7904C13.5624 17.8305 13.2642 17.8706 12.9659 17.9107C12.9188 18.2964 12.8169 18.408 12.4532 18.4583C11.2957 18.6186 10.138 18.7778 8.98022 18.936L6.10492 19.3224C6.37252 19.6602 6.67148 19.9702 6.99748 20.2481C8.47026 21.4632 9.94519 22.6756 11.4223 23.8852C11.7527 24.1566 11.7868 24.2712 11.6555 24.6713C11.9042 24.8807 12.1529 25.0902 12.4016 25.2997C12.7343 25.0626 12.8615 25.0654 13.1902 25.3342C14.5988 26.486 16.0065 27.6389 17.4134 28.7927C18.6884 29.8388 20.3623 29.7231 21.3652 28.4792C21.8451 27.8839 22.2588 27.2318 22.7025 26.6054C22.7239 26.5863 22.7438 26.5656 22.7622 26.5433C24.9007 23.5331 27.0385 20.5222 29.1754 17.5107C29.4911 17.0762 29.756 16.6045 29.9646 16.1054L29.6238 16.1512Z" fill="#FFD656"/>
<path d="M30.7925 11.836C30.9155 12.8642 30.8423 13.9064 30.5768 14.9075C30.4517 15.3737 30.4337 15.3917 29.9302 15.4594C25.3902 16.0703 20.8499 16.6807 16.3093 17.2907C15.7058 17.3718 15.1042 17.4667 14.499 17.5285C14.1432 17.5654 13.8604 17.6683 13.7425 18.0374C13.4548 18.1772 13.1302 18.2225 12.8153 18.1667C12.5933 17.8425 12.2888 17.8193 11.9268 17.8742C10.8697 18.0327 9.80826 18.1652 8.74875 18.306C8.60768 18.3375 8.46227 18.3446 8.31881 18.3271C8.28531 18.3167 8.25442 18.2992 8.2282 18.2759C7.29231 18.4048 6.35511 18.53 5.42046 18.6681C5.25472 18.6928 5.19997 18.6055 5.13333 18.4941C3.94667 16.5068 3.59695 14.3819 4.21264 12.1499C4.95418 9.46262 6.6384 7.58803 9.27414 6.60311C9.35986 6.57391 9.44744 6.55039 9.53626 6.53271C9.54626 6.51964 9.55613 6.50581 9.56677 6.49188C9.75991 6.32759 10.0071 6.29202 10.2395 6.25063C12.323 5.87919 14.2743 6.22497 16.0737 7.35629C16.4883 7.61709 16.6111 7.59902 16.9404 7.24216C18.0159 6.05187 19.4282 5.21609 20.99 4.8457C23.0823 4.34177 25.0315 4.70112 26.8756 5.75689C27.118 5.89692 27.35 6.05432 27.5697 6.22787C27.8356 6.43675 28.0936 6.56854 28.429 6.42031C28.7778 6.77905 29.1426 7.12391 29.4284 7.53878C29.2841 7.92628 29.4589 8.23103 29.6561 8.55153C30.2734 9.54889 30.6615 10.6706 30.7925 11.836Z" fill="#3C86F1"/>
<path d="M8.08491 18.2406C7.64458 17.3496 7.34217 16.4028 7.1866 15.4281C7.09855 14.8109 7.07425 14.186 7.11405 13.5621C7.18994 11.9354 7.70394 10.4199 8.50528 8.97244C8.86208 8.3279 9.29626 7.72893 9.72678 7.12701C9.70174 7.13318 9.67651 7.13879 9.65124 7.14436C8.61548 8.40191 7.8534 9.83377 7.40908 11.3572C6.70787 13.7662 6.91855 16.0905 8.04111 18.3299C8.07136 18.4127 8.11918 18.4887 8.18177 18.5534C8.19418 18.5517 8.20661 18.55 8.21905 18.5483C8.17456 18.4456 8.13436 18.3411 8.08491 18.2406Z" fill="#3C86F1"/>
<path d="M30.1073 7.97084C29.8922 7.70882 29.6591 7.46107 29.4095 7.22921C29.1654 6.88293 28.7496 6.46867 28.2452 6.00885C26.6009 4.73308 24.5175 4.09534 22.3983 4.2191C20.2791 4.34285 18.275 5.21931 16.7739 6.67876C16.6051 6.84331 16.4941 6.86008 16.2818 6.74809C13.8878 5.48491 11.3813 5.26847 8.83191 6.27944C2.63071 8.73853 1.33849 16.8226 6.48059 20.8825C7.90368 22.0061 9.36181 23.0887 10.8043 24.1895C10.8552 24.2291 10.9084 24.2659 10.9637 24.2996C12.6007 25.5484 15.5036 27.7684 16.7254 28.6933C18.4863 30.0264 20.7869 29.7172 22.1378 27.9689C22.5611 27.421 22.9792 26.8694 23.3996 26.3194C25.5809 23.4654 27.784 20.6263 29.9375 17.753C32.0972 14.8713 32.1419 10.8861 30.1073 7.97084ZM29.6293 16.4235C29.522 16.6088 29.4191 16.7963 29.2937 16.9718C28.3489 18.2947 27.3308 19.5668 26.3454 20.8613C25.6318 21.7987 24.9053 22.7286 24.1963 23.6689C23.6505 24.3927 23.0437 25.075 22.556 25.8396C22.1915 26.337 21.7629 26.79 21.424 27.3031C21.2133 27.623 20.9346 27.8967 20.6066 28.1059C20.2787 28.3151 19.9089 28.4551 19.522 28.5164C19.135 28.5778 18.7398 28.5591 18.3626 28.4617C17.9854 28.3643 17.6349 28.1904 17.3345 27.9516C16.3891 27.2065 15.4312 26.4761 14.4609 25.7604C14.2048 25.5724 13.9491 25.3851 13.7114 25.1738C13.4985 24.9843 11.1158 23.1697 10.8246 22.9846C9.72079 22.1489 8.63296 21.2937 7.51803 20.4716C7.1418 20.1933 6.78871 19.8872 6.46188 19.5562C6.40688 19.5006 6.30012 19.4539 6.34188 19.3604C6.37407 19.2883 6.47695 19.3056 6.55026 19.296C7.39208 19.1857 8.23176 19.0591 9.07485 18.9637C10.2062 18.8287 11.3345 18.666 12.4641 18.5129C12.5479 18.5015 13.58 18.3581 14.2615 18.2419C14.4135 18.2462 14.5657 18.2333 14.7149 18.2034C19.558 17.553 24.4011 16.9022 29.2441 16.2512C29.3293 16.2397 29.4141 16.2248 29.4996 16.2182C29.5626 16.2134 29.6415 16.1782 29.6821 16.2474C29.7201 16.312 29.6607 16.3694 29.6293 16.4235ZM30.376 14.8429C30.3142 15.0717 30.2128 15.1607 29.9629 15.1939C24.7803 15.8817 19.5986 16.576 14.4177 17.2767C14.3577 17.2847 14.3049 17.2936 14.2572 17.3037C13.4103 17.3758 12.5117 17.5338 12.3282 17.5578C11.0393 17.7264 9.7505 17.896 8.46185 18.0667C8.334 17.9994 8.20051 18.0375 8.06979 18.0547C7.35106 18.1494 6.63044 18.2334 5.91528 18.3501C5.61946 18.3983 5.4604 18.3104 5.32122 18.0681C4.1569 16.0407 3.94113 13.9092 4.74954 11.7189C5.58764 9.44816 7.20494 7.86419 9.56815 7.01637C9.67054 6.99255 9.76539 6.9445 9.84407 6.8766C9.87552 6.8559 9.90931 6.83875 9.94477 6.82548C12.1577 6.26464 14.2341 6.55303 16.1666 7.70647C16.6484 7.99398 16.7477 7.97928 17.1335 7.5798C18.741 5.91516 20.7167 5.0669 23.0709 5.09305C24.7893 5.11214 26.3057 5.67641 27.65 6.68191C27.8088 6.80069 28.1878 7.18499 28.5698 7.52073C28.9163 7.96017 29.2825 8.37285 29.3924 8.54139C30.6668 10.4953 30.9837 12.5959 30.376 14.8429Z" fill="#2B2D54"/>
</g>
<defs>
<clipPath id="clip0_401_1509">
<rect width="29.6502" height="29.6502" fill="white" transform="translate(0.662537 4.60587) rotate(-7.6543)"/>
</clipPath>
</defs>
</svg>
