<svg width="92" height="33" viewBox="0 0 92 33" fill="none" xmlns="http://www.w3.org/2000/svg">
<path d="M59.8735 0.992432C53.4427 0.992432 47.6958 4.55877 47.6958 11.1479C47.6958 18.7043 57.8881 19.2262 57.8881 23.0224C57.8881 24.6207 56.1761 26.0516 53.252 26.0516C49.1022 26.0516 46.0006 24.0523 46.0006 24.0523L44.6735 30.7014C44.6735 30.7014 48.2464 32.3902 52.9901 32.3902C60.0211 32.3902 65.5536 28.6487 65.5536 21.947C65.5536 13.9622 55.3188 13.4558 55.3188 9.93238C55.3188 8.68027 56.7242 7.30833 59.6399 7.30833C62.9297 7.30833 65.6138 8.76235 65.6138 8.76235L66.9126 2.34043C66.9126 2.34043 63.9921 0.992432 59.8735 0.992432ZM1.03743 1.47711L0.881714 2.44645C0.881714 2.44645 3.58718 2.97622 6.0239 4.033C9.16137 5.24481 9.38487 5.95026 9.91327 8.14136L15.6712 31.8904H23.3898L35.2809 1.47711H27.58L19.9393 22.1552L16.8214 4.62748C16.5355 2.62144 15.0871 1.47711 13.3143 1.47711H1.03743ZM38.3776 1.47711L32.3365 31.8904H39.6799L45.6998 1.47711H38.3776ZM79.3345 1.47711C77.5638 1.47711 76.6255 2.49144 75.9371 4.26398L65.1785 31.8904H72.8794L74.3693 27.286H83.7512L84.6572 31.8904H91.4521L85.5243 1.47711H79.3345ZM80.3361 9.69383L82.6188 21.1064H76.5033L80.3361 9.69383Z" fill="white"/>
</svg>
