<svg width="148" height="45" viewBox="0 0 148 45" fill="none" xmlns="http://www.w3.org/2000/svg">
<g clip-path="url(#clip0_181_1994)">
<path d="M60.6686 12.2491V8.66888H46.6544V33.1336H50.6798V22.9897H59.7741V19.2603H50.6798V12.2491H60.6686Z" fill="white"/>
<path d="M99.1322 22.393V32.9844H102.859V21.3488C102.859 18.6636 101.518 13.7408 95.7031 13.7408C91.2305 13.7408 89.4415 16.5752 89.4415 16.5752L89.1433 14.1884H85.8634V33.1336H89.7397V23.5864C89.7397 19.4095 91.976 17.4702 94.8086 17.4702C98.2376 17.1719 99.1322 20.0062 99.1322 22.393Z" fill="white"/>
<path d="M140.281 31.3435L148.033 14.0392H144.157L138.492 27.3157L132.528 14.0392H128.354L136.554 31.6418C136.404 32.0893 135.361 34.6253 134.466 35.3712C133.721 36.1171 132.826 36.2662 131.634 36.2662L132.23 39.5481C133.125 39.5481 133.87 39.3989 134.765 39.1005C135.51 38.8022 136.255 38.3547 136.852 37.758C138.641 35.9679 140.132 32.0893 140.132 32.0893L140.281 31.3435Z" fill="white"/>
<path d="M73.1914 13.7408H72.1478C69.6133 13.7408 67.228 14.7851 65.588 16.5752C63.7989 18.3653 62.9044 20.7521 62.9044 23.288V24.0339C62.9044 26.5699 63.948 28.9567 65.588 30.7468C67.377 32.5369 69.7624 33.4319 72.1478 33.4319H73.1914C75.7259 33.4319 78.1113 32.3877 79.9004 30.7468C81.6894 28.9567 82.5839 26.5699 82.5839 24.0339V23.288C82.5839 20.7521 81.5403 18.3653 79.9004 16.5752C78.1113 14.7851 75.7259 13.7408 73.1914 13.7408ZM78.8567 23.8847C78.8567 25.5257 78.2604 27.0174 77.0677 28.0616C75.875 29.255 74.3841 29.8517 72.8933 29.8517H72.7442C71.1042 29.8517 69.6133 29.255 68.5697 28.0616C67.377 26.8682 66.7807 25.3765 66.7807 23.8847V23.4372C66.7807 21.7963 67.377 20.3045 68.5697 19.2603C69.7624 18.0669 71.2533 17.4702 72.7442 17.4702H72.8933C74.5332 17.4702 76.0241 18.0669 77.0677 19.2603C78.2604 20.4537 78.8567 21.9455 78.8567 23.4372V23.8847Z" fill="white"/>
<path d="M121.943 7.32635V15.8293C120.303 14.4867 118.216 13.7409 116.129 13.7409H115.532C112.998 13.7409 110.612 14.7851 108.823 16.5752C107.034 18.3653 106.14 20.7521 106.14 23.2881V24.0339C106.14 26.5699 107.183 28.9567 108.823 30.7468C110.612 32.5369 112.998 33.4319 115.532 33.4319H116.129C118.514 33.4319 120.75 32.5369 122.539 30.896L122.838 32.9844H125.819V7.32635H121.943ZM122.092 23.8848C122.092 25.5257 121.496 27.0174 120.303 28.0617C119.11 29.2551 117.619 29.8517 116.129 29.8517H115.98C114.34 29.8517 112.849 29.2551 111.805 28.0617C110.612 26.8683 110.016 25.3765 110.016 23.8848V23.4372C110.016 21.7963 110.612 20.3046 111.805 19.2603C112.998 18.0669 114.489 17.4702 115.98 17.4702H116.129C117.769 17.4702 119.259 18.0669 120.303 19.2603C121.496 20.4537 122.092 21.9455 122.092 23.4372V23.8848Z" fill="white"/>
<path d="M21.1601 32.8352V28.8075C21.1601 28.6583 21.1601 28.36 21.011 28.2108C20.8619 28.0616 20.7128 27.9124 20.5637 27.7633L16.9856 25.6748C16.8365 25.5256 16.5384 25.5256 16.3893 25.5256C16.2402 25.5256 15.942 25.5256 15.7929 25.6748L12.3639 27.6141C12.2148 27.7633 12.0658 27.9124 11.9167 28.0616C11.7676 28.2108 11.7676 28.5091 11.7676 28.6583V32.686C11.7676 32.8352 11.7676 33.1336 11.9167 33.2827C12.0658 33.4319 12.2148 33.5811 12.3639 33.7302L15.7929 35.6695C15.942 35.8187 16.2402 35.8187 16.3893 35.8187C16.5384 35.8187 16.8365 35.8187 16.9856 35.6695L20.4146 33.7302C20.5637 33.5811 20.7128 33.4319 20.8619 33.2827C21.1601 33.2827 21.1601 32.9844 21.1601 32.8352Z" fill="#08A835"/>
<path d="M21.1601 32.8352V28.8075C21.1601 28.6583 21.1601 28.36 21.011 28.2108C20.8619 28.0616 20.7128 27.9124 20.5637 27.7633L16.9856 25.6748C16.8365 25.5256 16.5384 25.5256 16.3893 25.5256C16.2402 25.5256 15.942 25.5256 15.7929 25.6748L12.3639 27.6141C12.2148 27.7633 12.0658 27.9124 11.9167 28.0616C11.7676 28.2108 11.7676 28.5091 11.7676 28.6583V32.686C11.7676 32.8352 11.7676 33.1336 11.9167 33.2827C12.0658 33.4319 12.2148 33.5811 12.3639 33.7302L15.7929 35.6695C15.942 35.8187 16.2402 35.8187 16.3893 35.8187C16.5384 35.8187 16.8365 35.8187 16.9856 35.6695L20.4146 33.7302C20.5637 33.5811 20.7128 33.4319 20.8619 33.2827C21.1601 33.2827 21.1601 32.9844 21.1601 32.8352Z" fill="white"/>
<path d="M32.4903 32.8352V28.8075C32.4903 28.6583 32.4903 28.36 32.3412 28.2108C32.1921 28.0616 32.043 27.9124 31.8939 27.7633L28.3158 25.6748C28.1667 25.5256 27.8686 25.5256 27.7195 25.5256C27.5704 25.5256 27.2722 25.5256 27.1231 25.6748L23.6941 27.6141C23.545 27.7633 23.396 27.9124 23.2469 28.0616C23.0978 28.2108 23.0978 28.5091 23.0978 28.6583V32.686C23.0978 32.8352 23.0978 33.1336 23.2469 33.2827C23.396 33.4319 23.545 33.5811 23.6941 33.7302L27.1231 35.6695C27.2722 35.8187 27.5704 35.8187 27.7195 35.8187C27.8686 35.8187 28.1667 35.8187 28.3158 35.6695L31.7448 33.7302C31.8939 33.5811 32.043 33.4319 32.1921 33.2827C32.3412 33.2827 32.4903 32.9844 32.4903 32.8352Z" fill="#08A835"/>
<path d="M32.4903 32.8352V28.8075C32.4903 28.6583 32.4903 28.36 32.3412 28.2108C32.1921 28.0616 32.043 27.9124 31.8939 27.7633L28.3158 25.6748C28.1667 25.5256 27.8686 25.5256 27.7195 25.5256C27.5704 25.5256 27.2722 25.5256 27.1231 25.6748L23.6941 27.6141C23.545 27.7633 23.396 27.9124 23.2469 28.0616C23.0978 28.2108 23.0978 28.5091 23.0978 28.6583V32.686C23.0978 32.8352 23.0978 33.1336 23.2469 33.2827C23.396 33.4319 23.545 33.5811 23.6941 33.7302L27.1231 35.6695C27.2722 35.8187 27.5704 35.8187 27.7195 35.8187C27.8686 35.8187 28.1667 35.8187 28.3158 35.6695L31.7448 33.7302C31.8939 33.5811 32.043 33.4319 32.1921 33.2827C32.3412 33.2827 32.4903 32.9844 32.4903 32.8352Z" fill="white"/>
<path d="M15.4951 22.9897V18.962C15.4951 18.8128 15.4951 18.5144 15.3461 18.3653C15.197 18.2161 15.0479 18.0669 14.8988 17.9177L11.4698 15.9785C11.3207 15.8293 11.0225 15.8293 10.8734 15.8293C10.7244 15.8293 10.4262 15.8293 10.2771 15.9785L6.8481 17.9177C6.69901 18.0669 6.54992 18.2161 6.40084 18.3653C6.10266 18.5144 6.10266 18.6636 6.10266 18.962V22.9897C6.10266 23.1389 6.10266 23.4372 6.25175 23.5864C6.40084 23.7355 6.54992 23.8847 6.69901 24.0339L10.128 25.9732C10.2771 26.1223 10.5753 26.1223 10.7244 26.1223C10.8734 26.1223 11.1716 26.1223 11.3207 25.9732L14.7497 24.0339C14.8988 23.8847 15.0479 23.7355 15.197 23.5864C15.4951 23.4372 15.4951 23.1389 15.4951 22.9897Z" fill="#08A835"/>
<path d="M15.4951 22.9897V18.962C15.4951 18.8128 15.4951 18.5144 15.3461 18.3653C15.197 18.2161 15.0479 18.0669 14.8988 17.9177L11.4698 15.9785C11.3207 15.8293 11.0225 15.8293 10.8734 15.8293C10.7244 15.8293 10.4262 15.8293 10.2771 15.9785L6.8481 17.9177C6.69901 18.0669 6.54992 18.2161 6.40084 18.3653C6.10266 18.5144 6.10266 18.6636 6.10266 18.962V22.9897C6.10266 23.1389 6.10266 23.4372 6.25175 23.5864C6.40084 23.7355 6.54992 23.8847 6.69901 24.0339L10.128 25.9732C10.2771 26.1223 10.5753 26.1223 10.7244 26.1223C10.8734 26.1223 11.1716 26.1223 11.3207 25.9732L14.7497 24.0339C14.8988 23.8847 15.0479 23.7355 15.197 23.5864C15.4951 23.4372 15.4951 23.1389 15.4951 22.9897Z" fill="white"/>
<path d="M26.8253 22.9897V18.962C26.8253 18.8128 26.8253 18.5144 26.6763 18.3653C26.5272 18.2161 26.3781 18.0669 26.229 17.9177L22.8 15.9785C22.6509 15.8293 22.3527 15.8293 22.2036 15.8293C22.0546 15.8293 21.7564 15.8293 21.6073 15.9785L18.0292 17.7686C17.8801 17.9177 17.731 18.0669 17.5819 18.2161C17.4329 18.3653 17.4329 18.6636 17.4329 18.8128V22.8405C17.4329 22.9897 17.4329 23.288 17.5819 23.4372C17.731 23.5864 17.8801 23.7355 18.0292 23.8847L21.4582 25.824C21.6073 25.9732 21.9055 25.9732 22.0546 25.9732C22.2036 25.9732 22.5018 25.9732 22.6509 25.824L26.0799 23.8847C26.229 23.7355 26.3781 23.5864 26.5272 23.4372C26.6763 23.4372 26.8253 23.1389 26.8253 22.9897Z" fill="#08A835"/>
<path d="M26.8253 22.9897V18.962C26.8253 18.8128 26.8253 18.5144 26.6763 18.3653C26.5272 18.2161 26.3781 18.0669 26.229 17.9177L22.8 15.9785C22.6509 15.8293 22.3527 15.8293 22.2036 15.8293C22.0546 15.8293 21.7564 15.8293 21.6073 15.9785L18.0292 17.7686C17.8801 17.9177 17.731 18.0669 17.5819 18.2161C17.4329 18.3653 17.4329 18.6636 17.4329 18.8128V22.8405C17.4329 22.9897 17.4329 23.288 17.5819 23.4372C17.731 23.5864 17.8801 23.7355 18.0292 23.8847L21.4582 25.824C21.6073 25.9732 21.9055 25.9732 22.0546 25.9732C22.2036 25.9732 22.5018 25.9732 22.6509 25.824L26.0799 23.8847C26.229 23.7355 26.3781 23.5864 26.5272 23.4372C26.6763 23.4372 26.8253 23.1389 26.8253 22.9897Z" fill="white"/>
<path d="M9.82946 32.8352V28.8075C9.82946 28.6583 9.82946 28.36 9.68037 28.2108C9.53128 28.0616 9.3822 27.9124 9.23311 27.7633L5.80411 25.6748C5.65502 25.5256 5.35685 25.5256 5.20776 25.5256C5.05867 25.5256 4.7605 25.5256 4.61141 25.6748L1.18241 27.6141C1.03332 27.7633 0.884234 27.9124 0.735147 28.0616C0.586059 28.2108 0.58606 28.5091 0.58606 28.6583V32.686C0.58606 32.8352 0.586059 33.1336 0.735147 33.2827C0.884234 33.4319 1.03332 33.5811 1.18241 33.7302L4.61141 35.6695C4.7605 35.8187 5.05867 35.8187 5.20776 35.8187C5.35685 35.8187 5.65502 35.8187 5.80411 35.6695L9.23311 33.7302C9.3822 33.5811 9.53128 33.4319 9.68037 33.2827C9.82946 33.2827 9.82946 32.9844 9.82946 32.8352Z" fill="#08A835"/>
<path d="M9.82946 32.8352V28.8075C9.82946 28.6583 9.82946 28.36 9.68037 28.2108C9.53128 28.0616 9.3822 27.9124 9.23311 27.7633L5.80411 25.6748C5.65502 25.5256 5.35685 25.5256 5.20776 25.5256C5.05867 25.5256 4.7605 25.5256 4.61141 25.6748L1.18241 27.6141C1.03332 27.7633 0.884234 27.9124 0.735147 28.0616C0.586059 28.2108 0.58606 28.5091 0.58606 28.6583V32.686C0.58606 32.8352 0.586059 33.1336 0.735147 33.2827C0.884234 33.4319 1.03332 33.5811 1.18241 33.7302L4.61141 35.6695C4.7605 35.8187 5.05867 35.8187 5.20776 35.8187C5.35685 35.8187 5.65502 35.8187 5.80411 35.6695L9.23311 33.7302C9.3822 33.5811 9.53128 33.4319 9.68037 33.2827C9.82946 33.2827 9.82946 32.9844 9.82946 32.8352Z" fill="white"/>
<path d="M21.1605 13.1442V9.11644C21.1605 8.96726 21.1605 8.66891 21.0114 8.51974C20.8623 8.37056 20.7133 8.22139 20.5642 8.07221L17.1352 6.13294C16.9861 5.98376 16.6879 5.98376 16.5388 5.98376C16.3897 5.98376 16.0916 5.98376 15.9425 6.13294L12.5135 8.07221C12.3644 8.22139 12.2153 8.37056 12.0662 8.51974C11.9171 8.66891 11.9171 8.96726 11.9171 9.11644V13.1442C11.9171 13.2933 11.9171 13.5917 12.0662 13.7409C12.2153 13.89 12.3644 14.0392 12.5135 14.1884L15.9425 16.1277C16.0916 16.2768 16.3897 16.2768 16.5388 16.2768C16.6879 16.2768 16.9861 16.2768 17.1352 16.1277L20.5642 14.1884C20.7133 14.0392 20.8623 13.89 21.0114 13.7409C21.1605 13.5917 21.1605 13.2933 21.1605 13.1442Z" fill="white"/>
</g>
<defs>
<clipPath id="clip0_181_1994">
<rect width="147.328" height="43.4738" fill="white" transform="translate(0.571289 0.954407)"/>
</clipPath>
</defs>
</svg>
