<svg width="65" height="49" viewBox="0 0 65 49" fill="none" xmlns="http://www.w3.org/2000/svg">
<g clip-path="url(#clip0_181_1986)">
<path d="M12.597 48.7376V45.5318C12.597 44.3056 11.8283 43.5026 10.5088 43.5026C9.84905 43.5026 9.13164 43.7142 8.63842 44.4114C8.2541 43.8262 7.70323 43.5026 6.87693 43.5026C6.32606 43.5026 5.77519 43.6644 5.33962 44.2495V43.6084H4.18665V48.7376H5.33962V45.9053C5.33962 44.9965 5.83284 44.567 6.60149 44.567C7.37015 44.567 7.75447 45.0463 7.75447 45.9053V48.7376H8.90745V45.9053C8.90745 44.9965 9.45832 44.567 10.1693 44.567C10.938 44.567 11.3223 45.0463 11.3223 45.9053V48.7376H12.597ZM29.6995 43.6084H27.8291V42.0584H26.6761V43.6084H25.632V44.623H26.6761V46.976C26.6761 48.1525 27.1693 48.8434 28.4889 48.8434C28.9821 48.8434 29.5329 48.6816 29.9173 48.4699L29.5842 47.5051C29.2511 47.7167 28.8668 47.7727 28.5913 47.7727C28.0405 47.7727 27.8227 47.4491 27.8227 46.92V44.623H29.6931V43.6084H29.6995ZM39.487 43.4963C38.8272 43.4963 38.3853 43.82 38.1098 44.2433V43.6022H36.9568V48.7314H38.1098V45.8431C38.1098 44.9903 38.4941 44.5047 39.2116 44.5047C39.4293 44.5047 39.7048 44.5608 39.929 44.6106L40.262 43.5399C40.0315 43.4963 39.7048 43.4963 39.487 43.4963ZM24.6968 44.0317C24.146 43.6582 23.3773 43.4963 22.551 43.4963C21.2315 43.4963 20.354 44.1375 20.354 45.1521C20.354 46.0049 21.0137 46.4904 22.1667 46.6461L22.7176 46.7021C23.3197 46.8079 23.6528 46.9698 23.6528 47.2374C23.6528 47.6109 23.2108 47.8786 22.4421 47.8786C21.6735 47.8786 21.065 47.6109 20.6806 47.3432L20.1298 48.196C20.7319 48.6255 21.5582 48.8372 22.3845 48.8372C23.9218 48.8372 24.8057 48.14 24.8057 47.1814C24.8057 46.2726 24.0883 45.7933 22.993 45.6314L22.4421 45.5754C21.9489 45.5194 21.5646 45.4136 21.5646 45.0961C21.5646 44.7226 21.9489 44.511 22.5574 44.511C23.2172 44.511 23.8769 44.7786 24.21 44.9405L24.6968 44.0317ZM55.3725 43.4963C54.7127 43.4963 54.2707 43.82 53.9953 44.2433V43.6022H52.8423V48.7314H53.9953V45.8431C53.9953 44.9903 54.3796 44.5047 55.097 44.5047C55.3148 44.5047 55.5902 44.5608 55.8144 44.6106L56.1475 43.5524C55.9233 43.4963 55.5967 43.4963 55.3725 43.4963ZM40.64 46.173C40.64 47.723 41.7417 48.8434 43.4455 48.8434C44.2142 48.8434 44.7651 48.6816 45.3159 48.2583L44.7651 47.3495C44.3231 47.6732 43.8875 47.8288 43.3879 47.8288C42.4527 47.8288 41.7929 47.1876 41.7929 46.173C41.7929 45.2081 42.4527 44.567 43.3879 44.5172C43.8811 44.5172 44.3231 44.679 44.7651 44.9965L45.3159 44.0877C44.7651 43.6582 44.2142 43.5026 43.4455 43.5026C41.7417 43.4963 40.64 44.623 40.64 46.173ZM51.305 46.173V43.6084H50.152V44.2495C49.7677 43.7702 49.2168 43.5026 48.4994 43.5026C47.0134 43.5026 45.8604 44.623 45.8604 46.173C45.8604 47.723 47.0134 48.8434 48.4994 48.8434C49.2681 48.8434 49.819 48.5757 50.152 48.0964V48.7376H51.305V46.173ZM47.071 46.173C47.071 45.2642 47.6731 44.5172 48.666 44.5172C49.6012 44.5172 50.2609 45.2144 50.2609 46.173C50.2609 47.0818 49.6012 47.8288 48.666 47.8288C47.6795 47.7728 47.071 47.0756 47.071 46.173ZM33.2737 43.4963C31.7364 43.4963 30.6347 44.567 30.6347 46.1668C30.6347 47.7728 31.7364 48.8372 33.3314 48.8372C34.1 48.8372 34.8687 48.6255 35.4772 48.14L34.9263 47.337C34.4843 47.6607 33.9335 47.8723 33.389 47.8723C32.6716 47.8723 31.9606 47.5487 31.7941 46.6461H35.695C35.695 46.4842 35.695 46.3784 35.695 46.2166C35.7462 44.567 34.7534 43.4963 33.2737 43.4963ZM33.2737 44.4612C33.9911 44.4612 34.4843 44.8907 34.5932 45.6875H31.8453C31.9542 44.9965 32.4474 44.4612 33.2737 44.4612ZM61.9188 46.173V41.5791H60.7658V44.2495C60.3815 43.7702 59.8306 43.5026 59.1132 43.5026C57.6272 43.5026 56.4742 44.623 56.4742 46.173C56.4742 47.723 57.6272 48.8434 59.1132 48.8434C59.8819 48.8434 60.4328 48.5757 60.7658 48.0964V48.7376H61.9188V46.173ZM57.6848 46.173C57.6848 45.2642 58.2869 44.5172 59.2798 44.5172C60.215 44.5172 60.8747 45.2144 60.8747 46.173C60.8747 47.0818 60.215 47.8288 59.2798 47.8288C58.2869 47.7728 57.6848 47.0756 57.6848 46.173ZM19.0857 46.173V43.6084H17.9327V44.2495C17.5484 43.7702 16.9975 43.5026 16.2801 43.5026C14.794 43.5026 13.6411 44.623 13.6411 46.173C13.6411 47.723 14.794 48.8434 16.2801 48.8434C17.0488 48.8434 17.5996 48.5757 17.9327 48.0964V48.7376H19.0857V46.173ZM14.8004 46.173C14.8004 45.2642 15.4026 44.5172 16.3954 44.5172C17.3306 44.5172 17.9904 45.2144 17.9904 46.173C17.9904 47.0818 17.3306 47.8288 16.3954 47.8288C15.4026 47.7728 14.8004 47.0756 14.8004 46.173Z" fill="white"/>
<path d="M41.6329 4.65375H24.3126V34.8937H41.6329V4.65375Z" fill="#FF5A00"/>
<path d="M25.4659 19.7737C25.4659 13.6299 28.4381 8.17698 32.9987 4.65376C29.6423 2.08915 25.4083 0.539185 20.79 0.539185C9.8495 0.539185 0.997192 9.14182 0.997192 19.7737C0.997192 30.4056 9.8495 39.0083 20.79 39.0083C25.4083 39.0083 29.6423 37.4583 32.9987 34.8937C28.4317 31.4203 25.4659 25.9176 25.4659 19.7737Z" fill="#EB001B"/>
<path d="M65.0007 19.7737C65.0007 30.4056 56.1484 39.0083 45.2079 39.0083C40.5896 39.0083 36.3556 37.4583 32.9991 34.8937C37.6175 31.3642 40.5319 25.9176 40.5319 19.7737C40.5319 13.6299 37.5598 8.17698 32.9991 4.65376C36.3492 2.08915 40.5832 0.539185 45.2015 0.539185C56.1484 0.539185 65.0007 9.19784 65.0007 19.7737Z" fill="#F79E1B"/>
</g>
<defs>
<clipPath id="clip0_181_1986">
<rect width="64.0031" height="48.3042" fill="white" transform="translate(0.997192 0.539185)"/>
</clipPath>
</defs>
</svg>
