<svg width="69" height="76" viewBox="0 0 69 76" fill="none" xmlns="http://www.w3.org/2000/svg">
<g clip-path="url(#clip0_181_1954)">
<path d="M67.0557 63.6267C63.6504 63.6119 60.2452 63.623 56.84 63.6193C56.1 63.6193 55.6439 63.9515 55.534 64.7163C55.2995 65.2899 55.6402 65.6017 56.0615 65.8467C56.5213 66.114 57.036 66.1381 57.5525 66.1381C59.9155 66.14 62.2785 66.1344 64.6396 66.1437C64.918 66.1437 65.2129 66.0695 65.4913 66.2347C65.3649 66.4537 65.1488 66.4129 64.9766 66.4463C61.3406 67.1609 57.7064 67.8755 54.0649 68.553C52.3449 68.8741 50.6505 69.3865 48.8774 69.3865C39.0372 69.3846 29.1971 69.384 19.3569 69.3846C18.9424 69.3952 18.5279 69.3666 18.1187 69.2992C13.2371 68.36 8.35361 67.4282 3.47567 66.4704C3.25586 66.4258 2.99941 66.45 2.78327 66.1994C3.12563 66.1355 3.47458 66.1155 3.82187 66.14C19.6299 66.1381 35.4384 66.1375 51.2477 66.1382C51.7569 66.1382 52.2734 66.1753 52.768 66.0064C53.4458 65.7743 53.7205 65.3845 53.6821 64.7182C53.5355 63.881 53.0061 63.6045 52.2167 63.6137C50.438 63.6342 48.6612 63.6193 46.8826 63.6193H45.5766C45.8 63.4151 45.8587 63.3465 45.9301 63.2982C48.8049 61.3635 51.1593 58.734 52.7809 55.647C52.9714 55.2869 53.1802 55.3055 53.4861 55.428C54.4169 55.7939 55.397 56.0155 56.3931 56.0851C63.8996 56.6791 69.904 50.2028 68.8874 42.6259C68.032 36.2499 62.1008 31.6782 55.8545 32.5988C55.457 32.6582 55.3142 32.6248 55.294 32.1571C55.2171 30.39 54.2462 29.4526 52.5116 29.4322C50.9784 29.4136 49.4434 29.4192 47.9084 29.4322C46.9962 29.4377 46.7159 29.6791 46.4796 30.5737C46.4393 31.3997 46.8387 31.8137 47.782 31.8415C49.1687 31.8842 50.5571 31.8397 51.9437 31.8619C52.7442 31.8749 52.8321 31.977 52.8431 32.7585C52.8559 33.6383 52.7662 33.733 51.8998 33.7534C51.7532 33.7552 51.6067 33.7534 51.4602 33.7534H16.7705C16.5029 33.7611 16.2351 33.7549 15.9682 33.7348C15.8588 33.7381 15.7516 33.7032 15.6646 33.6359C15.5776 33.5687 15.516 33.4732 15.4901 33.3654C15.208 32.4095 15.5634 31.8768 16.5196 31.8582C16.7156 31.8526 16.9097 31.8564 17.1039 31.8564C25.5757 31.8564 34.0476 31.8557 42.5194 31.8545C42.9089 31.8762 43.2996 31.8607 43.6862 31.8081C44.3567 31.68 44.6589 31.2754 44.6259 30.5737C44.3713 29.6178 44.1039 29.4285 42.9755 29.4285C33.9871 29.4266 24.9993 29.4272 16.0122 29.4303C15.7202 29.4274 15.4285 29.4498 15.1402 29.4972C14.5558 29.5818 14.0206 29.8759 13.6318 30.3261C13.243 30.7763 13.0263 31.3528 13.0209 31.951C12.9934 32.9162 12.9843 33.8815 13.0136 34.8448C13.1693 39.8788 12.5978 44.935 13.4843 49.9448C13.5613 50.3773 13.3891 50.3829 13.0649 50.3198C11.213 49.9652 9.55525 50.5017 8.00376 51.4892C7.20878 51.9959 7.10437 52.3783 7.46889 53.2934C7.92316 53.9412 8.28768 54.0563 9.01305 53.672C9.79154 53.26 10.5499 52.8126 11.4401 52.6994C11.6691 52.6716 11.9548 52.4952 12.1105 52.7607C12.2369 52.976 11.997 53.1653 11.8816 53.3416C10.9126 54.8247 9.94175 56.3054 8.96909 57.7835C8.78104 58.0423 8.61381 58.3161 8.46902 58.602C8.34126 58.8722 8.30977 59.1789 8.3799 59.4699C8.45002 59.7609 8.61744 60.0183 8.85369 60.1984C9.26583 60.5325 9.8465 60.5158 10.3429 60.1575C10.627 59.9236 10.8661 59.6385 11.0481 59.3167C12.0336 57.815 13.0197 56.3146 14.0064 54.8155C14.1236 54.6391 14.2042 54.3421 14.446 54.3774C14.7299 54.4201 14.7098 54.7523 14.7959 54.9732C14.8257 55.0673 14.8454 55.1644 14.8545 55.2628C15.2502 58.1473 13.488 61.5961 10.9767 63.0346C9.89046 63.6564 8.75477 63.417 7.63008 63.4894C7.00362 63.5284 6.55851 63.2351 6.21231 62.7413C5.52174 61.7576 5.36787 60.6513 5.52907 59.4912C5.6811 58.4053 6.09507 57.4048 6.564 56.4192C6.95416 55.6006 6.80946 55.1087 6.15369 54.7523C5.52357 54.472 4.93375 54.5073 4.5619 55.1496C3.7182 56.5687 3.2191 58.1706 3.10566 59.8234C3.02833 61.1344 3.28905 62.4432 3.86217 63.6212C2.94447 63.6212 2.12201 63.6063 1.29956 63.6249C0.400171 63.6453 0.0228311 64.0369 0.00634536 64.9409C-0.00464513 65.6574 0.000850118 66.3739 0.00634536 67.0904C0.0136724 68.0222 0.295758 68.3767 1.2043 68.5512C6.16468 69.5071 11.1251 70.4705 16.0909 71.3949C16.7632 71.5211 17.1204 71.703 17.0178 72.4826C16.9409 73.0895 17.0324 73.7188 16.9958 74.3332C16.958 74.6495 17.0035 74.9704 17.1277 75.2632C17.2519 75.5559 17.4503 75.8102 17.7029 76H50.5956C51.1616 75.601 51.3612 75.0534 51.3246 74.3592C51.2843 73.5963 51.3301 72.8278 51.3081 72.0631C51.2971 71.703 51.3979 71.5693 51.7715 71.5025C53.4934 71.1962 55.2061 70.8417 56.9243 70.5094C60.3331 69.8524 63.7457 69.2046 67.1564 68.5419C68.0338 68.3711 68.2976 68.0333 68.3086 67.1256C68.3177 66.385 68.3232 65.6444 68.3067 64.9038C68.2884 64.0332 67.9202 63.6304 67.0557 63.6267ZM55.1621 47.8622C55.3746 46.5629 55.283 45.2468 55.3087 44.2129C55.3087 42.8746 55.3325 41.8092 55.2977 40.7474C55.283 40.3187 55.4424 40.1516 55.8161 40.0087C56.7477 39.6572 57.7678 39.6274 58.7178 39.9237C59.6679 40.2201 60.4949 40.8261 61.0702 41.6476C61.6455 42.4691 61.9371 43.4601 61.8995 44.4667C61.8619 45.4734 61.4974 46.4392 60.8625 47.2144C59.5748 48.7921 57.3401 49.3378 55.5724 48.5193C55.283 48.3838 55.098 48.2483 55.1621 47.8622Z" fill="#040403"/>
<path d="M38.0233 1.52588e-05C39.4755 1.06662 40.7096 2.31183 41.2756 4.10246C42.1646 6.91452 41.6946 9.46124 39.7919 11.7038C39.503 12.0442 39.4456 12.2084 39.7775 12.5861C40.4947 13.389 41.034 14.3381 41.3594 15.3697C41.6847 16.4012 41.7886 17.4914 41.6639 18.5669C41.5393 19.6425 41.189 20.6786 40.6367 21.6057C40.0843 22.5328 39.3426 23.3295 38.4614 23.9422C37.7894 24.4176 37.0994 24.3728 36.7303 23.8299C36.3609 23.2867 36.4819 22.6183 37.1451 22.1733C40.3012 20.0553 40.2917 15.2592 37.1171 13.1493C36.3028 12.6081 36.3489 11.7426 37.1321 11.1325C40.3225 8.64695 40.343 4.67047 37.1784 2.16772C36.3216 1.4901 36.3134 0.942476 37.1461 1.52588e-05H38.0233Z" fill="#040403"/>
<path d="M55.5331 64.7162C55.7592 65.6198 56.0444 65.8464 57.041 65.8487C59.8417 65.8553 62.6425 65.8453 65.4432 65.862C65.6748 65.8633 66.0709 65.6363 66.113 66.1545C66.1536 66.6525 65.7298 66.538 65.5015 66.5827C60.5609 67.5516 55.6177 68.5074 50.6721 69.45C50.2888 69.5184 49.9001 69.5507 49.5109 69.5465C39.2821 69.5516 29.0533 69.5497 18.8244 69.541C17.064 69.5377 15.3714 68.9878 13.6514 68.6747C10.0865 68.0258 6.53272 67.3136 2.97455 66.6264C2.78348 66.5895 2.59546 66.5348 2.40357 66.5041C2.14626 66.463 2.21297 66.2637 2.20318 66.1041C2.19123 65.9096 2.30782 65.8505 2.47797 65.8523C2.67278 65.8543 2.86763 65.8513 3.06246 65.8513C19.3555 65.8512 35.6486 65.8511 51.9417 65.8509C53.1588 65.8509 53.3925 65.6966 53.6828 64.7175C54.2996 64.7171 54.9163 64.7167 55.5331 64.7162Z" fill="#FFD656"/>
<path d="M46.4791 30.5741C46.6187 31.369 47.1044 31.6745 47.8766 31.6634C49.3375 31.6423 50.7996 31.6862 52.2596 31.6449C52.9399 31.6256 53.1447 31.8705 53.1265 32.5466C53.0898 33.9166 53.1221 33.9175 51.8035 33.9175C39.8952 33.9175 27.9869 33.9226 16.0786 33.9328C15.4125 33.9339 15.1424 33.8338 15.1862 33.0731C15.2696 31.623 14.9644 31.6555 16.6355 31.6561C25.4267 31.6593 34.2179 31.6596 43.0091 31.6569C44.1332 31.6568 44.3416 31.5135 44.6257 30.5741C45.2435 30.5741 45.8613 30.5741 46.4791 30.5741Z" fill="#FFD656"/>
<path d="M7.46901 53.2926C8.02245 53.8058 8.59383 53.77 9.19279 53.37C9.92506 52.8778 10.7606 52.5657 11.6329 52.4585C11.959 52.3868 12.2998 52.4418 12.5877 52.6126C11.5287 54.2229 10.4745 55.8261 9.42485 57.4223C9.23576 57.7099 9.04415 57.9959 8.85929 58.2862C8.35397 59.0799 8.40194 59.6924 8.9975 60.1007C9.55747 60.4846 10.1828 60.2693 10.6991 59.4905C11.7721 57.8719 12.8347 56.2461 13.9045 54.6253C14.0653 54.3818 14.242 54.1491 14.4522 53.854C15.2204 54.8983 15.1928 56.0563 15.0143 57.1475C14.5815 59.7937 13.1929 61.8381 10.9236 63.2472C10.509 63.5095 10.0239 63.6341 9.53602 63.6036C9.02606 63.5783 8.51394 63.598 8.00276 63.598C6.51778 63.598 5.71382 62.9188 5.40341 61.4021C5.04737 59.6625 5.50716 58.0743 6.30565 56.5611C6.65152 55.9056 6.73811 55.3095 6.15459 54.7519C6.54053 54.2197 6.98114 53.7305 7.46901 53.2926Z" fill="#F08300"/>
<path d="M49.4411 17.6603C49.3527 20.2041 48.3808 22.2619 46.3831 23.788C45.5669 24.4115 44.891 24.4294 44.4699 23.8607C44.039 23.2789 44.2442 22.6385 45.0615 22.0149C45.6571 21.5735 46.1555 21.0111 46.5247 20.3637C46.894 19.7162 47.126 18.9979 47.206 18.2545C47.2861 17.5112 47.2123 16.7591 46.9895 16.0462C46.7667 15.3333 46.3997 14.6753 45.912 14.1141C45.58 13.7539 45.2128 13.4289 44.8159 13.144C44.229 12.69 44.0904 12.0451 44.4386 11.5327C44.8087 10.9878 45.4676 10.9064 46.1103 11.3583C48.2846 12.8874 49.3515 15.0206 49.4411 17.6603Z" fill="#040403"/>
<path d="M33.3705 17.6194C33.2978 20.3084 32.228 22.4384 30.063 23.9779C29.4263 24.4307 28.7575 24.3667 28.3918 23.8406C28.0152 23.2989 28.1323 22.6198 28.7869 22.1804C31.9453 20.0602 31.9565 15.2951 28.7906 13.167C28.1339 12.7256 28.0146 12.0446 28.3918 11.5102C28.7694 10.9752 29.4133 10.9118 30.0672 11.3736C32.2149 12.8905 33.2728 15.0022 33.3705 17.6194Z" fill="#040403"/>
<path d="M34.2186 36.1476C40.2827 36.1476 46.3469 36.1563 52.411 36.1334C52.9914 36.1313 53.1323 36.2935 53.1255 36.8677C53.088 40.0324 53.2293 43.2055 53.0529 46.3609C52.6692 53.2261 49.4996 58.4644 43.7154 62.0571C43.3219 62.3015 42.9217 62.5387 42.5082 62.7452C41.3667 63.315 40.2081 63.6673 38.8813 63.6347C35.4251 63.5495 31.9655 63.6071 28.5072 63.6039C28.2403 63.6157 27.9729 63.598 27.7097 63.551C26.7774 63.3381 26.7494 63.2654 27.155 62.4075C28.5327 59.493 27.0495 56.1359 23.8827 54.9042C22.0131 54.168 19.9729 53.9977 18.0097 54.414C17.5696 54.5036 17.3806 54.4111 17.1823 53.9964C15.8578 51.2321 15.1808 48.1953 15.204 45.1225C15.2099 42.3529 15.2239 39.5831 15.1898 36.814C15.1827 36.238 15.351 36.1335 15.8801 36.1352C21.9929 36.1546 28.1057 36.1476 34.2186 36.1476Z" fill="#FFD656"/>
<path d="M55.3205 36.3252C55.3205 34.8193 55.3205 34.8193 56.791 34.7441C62.5826 34.4477 67.1449 39.1213 66.8084 45.0055C66.4588 51.118 60.0956 55.4352 54.4357 53.4124C54.0268 53.2663 53.9137 53.1262 54.0904 52.6874C54.3373 52.074 54.3243 51.2546 54.7327 50.8333C55.1517 50.4011 55.8441 51.0091 56.4405 51.0575C60.0683 51.3521 62.8894 49.4564 63.8763 46.0147C64.9862 42.1441 62.0482 37.8443 58.0986 37.5443C57.3673 37.4888 56.6386 37.4419 55.9279 37.6532C55.4384 37.7986 55.2551 37.6576 55.3151 37.1405C55.3325 36.8691 55.3343 36.5969 55.3205 36.3252Z" fill="#FFD656"/>
<path d="M34.1439 73.7643C29.419 73.7643 24.6941 73.7535 19.9693 73.7781C19.3881 73.7811 19.1646 73.6811 19.1939 73.0294C19.2492 71.7999 19.2073 71.7979 20.4467 71.7979C29.7017 71.7979 38.9567 71.7921 48.2116 71.7805C48.9325 71.7785 49.2577 71.9312 49.1126 72.6977C49.0869 72.8445 49.0868 72.9947 49.1123 73.1414C49.2037 73.6865 48.9522 73.7777 48.4648 73.7753C44.5193 73.7556 40.5737 73.7643 36.6282 73.7643C35.8001 73.7643 34.972 73.7643 34.1439 73.7643Z" fill="#FFD656"/>
<path d="M14.1689 63.598C15.0626 62.655 15.7973 61.5697 16.3438 60.3854C16.8013 59.429 17.1066 58.4053 17.2484 57.3523C17.2786 57.1363 17.2592 56.9204 17.5519 56.8375C19.986 56.1479 22.3098 56.1997 24.408 57.846C24.4817 57.9104 24.5519 57.9787 24.6184 58.0506C24.9783 58.402 24.8646 58.5436 24.4119 58.6313C22.4313 59.0151 20.4549 59.4208 18.4773 59.8205C18.2857 59.8541 18.0965 59.9 17.9107 59.9578C17.2864 60.1701 16.9788 60.662 17.1194 61.2631C17.2669 61.8938 17.7144 62.1805 18.3155 62.0896C19.2998 61.9406 20.2742 61.7232 21.2519 61.5306C22.4206 61.3004 23.5881 61.0641 24.757 60.8352C24.9176 60.8037 25.116 60.6783 25.2384 60.8289C25.378 61.0006 25.2378 61.1964 25.165 61.377C24.8112 62.2539 24.1685 62.8851 23.4612 63.4639C23.2986 63.5749 23.1018 63.6226 22.9072 63.5981C20.0604 63.5979 17.2135 63.598 14.1689 63.598Z" fill="#F08300"/>
</g>
<defs>
<clipPath id="clip0_181_1954">
<rect width="69" height="76" fill="white"/>
</clipPath>
</defs>
</svg>
