<svg width="69" height="76" viewBox="0 0 69 76" fill="none" xmlns="http://www.w3.org/2000/svg">
<g clip-path="url(#clip0_181_1966)">
<path d="M1.94434 63.6267C5.34956 63.6119 8.75478 63.623 12.16 63.6193C12.9 63.6193 13.3561 63.9515 13.466 64.7163C13.7005 65.2899 13.3598 65.6017 12.9385 65.8467C12.4787 66.114 11.964 66.1381 11.4475 66.1381C9.0845 66.14 6.72155 66.1344 4.36043 66.1437C4.08201 66.1437 3.78709 66.0695 3.50867 66.2347C3.63506 66.4537 3.8512 66.4129 4.02338 66.4463C7.6594 67.1609 11.2936 67.8755 14.9351 68.553C16.6551 68.8741 18.3495 69.3865 20.1226 69.3865C29.9628 69.3846 39.8029 69.384 49.6431 69.3846C50.0576 69.3952 50.4721 69.3666 50.8813 69.2992C55.7629 68.36 60.6464 67.4282 65.5243 66.4704C65.7441 66.4258 66.0006 66.45 66.2167 66.1994C65.8744 66.1355 65.5254 66.1155 65.1781 66.14C49.3701 66.1381 33.5616 66.1375 17.7523 66.1382C17.2431 66.1382 16.7266 66.1753 16.232 66.0064C15.5542 65.7743 15.2795 65.3845 15.3179 64.7182C15.4645 63.881 15.9939 63.6045 16.7833 63.6137C18.562 63.6342 20.3388 63.6193 22.1174 63.6193H23.4234C23.2 63.4151 23.1413 63.3465 23.0699 63.2982C20.1951 61.3635 17.8407 58.734 16.2191 55.647C16.0286 55.2869 15.8198 55.3055 15.5139 55.428C14.5831 55.7939 13.603 56.0155 12.6069 56.0851C5.10044 56.6791 -0.904037 50.2028 0.112587 42.6259C0.96801 36.2499 6.89922 31.6782 13.1455 32.5988C13.543 32.6582 13.6858 32.6248 13.706 32.1571C13.7829 30.39 14.7538 29.4526 16.4884 29.4322C18.0216 29.4136 19.5566 29.4192 21.0916 29.4322C22.0038 29.4377 22.2841 29.6791 22.5204 30.5737C22.5607 31.3997 22.1613 31.8137 21.218 31.8415C19.8313 31.8842 18.4429 31.8397 17.0563 31.8619C16.2558 31.8749 16.1679 31.977 16.1569 32.7585C16.1441 33.6383 16.2338 33.733 17.1002 33.7534C17.2468 33.7552 17.3933 33.7534 17.5398 33.7534H52.2295C52.4971 33.7611 52.7649 33.7549 53.0318 33.7348C53.1412 33.7381 53.2484 33.7032 53.3354 33.6359C53.4224 33.5687 53.484 33.4732 53.5099 33.3654C53.792 32.4095 53.4366 31.8768 52.4804 31.8582C52.2844 31.8526 52.0903 31.8564 51.8961 31.8564C43.4243 31.8564 34.9524 31.8557 26.4806 31.8545C26.0911 31.8762 25.7004 31.8607 25.3138 31.8081C24.6433 31.68 24.3411 31.2754 24.3741 30.5737C24.6287 29.6178 24.8961 29.4285 26.0245 29.4285C35.0129 29.4266 44.0007 29.4272 52.9878 29.4303C53.2798 29.4274 53.5715 29.4498 53.8598 29.4972C54.4442 29.5818 54.9794 29.8759 55.3682 30.3261C55.757 30.7763 55.9737 31.3528 55.9791 31.951C56.0066 32.9162 56.0157 33.8815 55.9864 34.8448C55.8307 39.8788 56.4022 44.935 55.5157 49.9448C55.4387 50.3773 55.6109 50.3829 55.9351 50.3198C57.787 49.9652 59.4447 50.5017 60.9962 51.4892C61.7912 51.9959 61.8956 52.3783 61.5311 53.2934C61.0768 53.9412 60.7123 54.0563 59.987 53.672C59.2085 53.26 58.4501 52.8126 57.5599 52.6994C57.3309 52.6716 57.0452 52.4952 56.8895 52.7607C56.7631 52.976 57.003 53.1653 57.1184 53.3416C58.0874 54.8247 59.0583 56.3054 60.0309 57.7835C60.219 58.0423 60.3862 58.3161 60.531 58.602C60.6587 58.8722 60.6902 59.1789 60.6201 59.4699C60.55 59.7609 60.3826 60.0183 60.1463 60.1984C59.7342 60.5325 59.1535 60.5158 58.6571 60.1575C58.373 59.9236 58.1339 59.6385 57.9519 59.3167C56.9664 57.815 55.9803 56.3146 54.9936 54.8155C54.8764 54.6391 54.7958 54.3421 54.554 54.3774C54.2701 54.4201 54.2902 54.7523 54.2041 54.9732C54.1743 55.0673 54.1546 55.1644 54.1455 55.2628C53.7498 58.1473 55.512 61.5961 58.0233 63.0346C59.1095 63.6564 60.2452 63.417 61.3699 63.4894C61.9964 63.5284 62.4415 63.2351 62.7877 62.7413C63.4783 61.7576 63.6321 60.6513 63.4709 59.4912C63.3189 58.4053 62.9049 57.4048 62.436 56.4192C62.0458 55.6006 62.1905 55.1087 62.8463 54.7523C63.4764 54.472 64.0663 54.5073 64.4381 55.1496C65.2818 56.5687 65.7809 58.1706 65.8943 59.8234C65.9717 61.1344 65.7109 62.4432 65.1378 63.6212C66.0555 63.6212 66.878 63.6063 67.7004 63.6249C68.5998 63.6453 68.9772 64.0369 68.9937 64.9409C69.0046 65.6574 68.9991 66.3739 68.9937 67.0904C68.9863 68.0222 68.7042 68.3767 67.7957 68.5512C62.8353 69.5071 57.8749 70.4705 52.9091 71.3949C52.2368 71.5211 51.8796 71.703 51.9822 72.4826C52.0591 73.0895 51.9676 73.7188 52.0042 74.3332C52.042 74.6495 51.9965 74.9704 51.8723 75.2632C51.7481 75.5559 51.5497 75.8102 51.2971 76H18.4044C17.8384 75.601 17.6388 75.0534 17.6754 74.3592C17.7157 73.5963 17.6699 72.8278 17.6919 72.0631C17.7029 71.703 17.6021 71.5693 17.2285 71.5025C15.5066 71.1962 13.7939 70.8417 12.0757 70.5094C8.66686 69.8524 5.25431 69.2046 1.8436 68.5419C0.966194 68.3711 0.702415 68.0333 0.691422 67.1256C0.682266 66.385 0.676773 65.6444 0.693253 64.9038C0.711571 64.0332 1.07976 63.6304 1.94434 63.6267ZM13.8379 47.8622C13.6254 46.5629 13.717 45.2468 13.6913 44.2129C13.6913 42.8746 13.6675 41.8092 13.7023 40.7474C13.717 40.3187 13.5576 40.1516 13.1839 40.0087C12.2523 39.6572 11.2322 39.6274 10.2822 39.9237C9.33206 40.2201 8.50513 40.8261 7.9298 41.6476C7.35447 42.4691 7.06294 43.4601 7.10049 44.4667C7.13805 45.4734 7.50259 46.4392 8.13749 47.2144C9.4252 48.7921 11.6599 49.3378 13.4276 48.5193C13.717 48.3838 13.902 48.2483 13.8379 47.8622Z" fill="#040403"/>
<path d="M30.9767 1.52588e-05C29.5245 1.06662 28.2904 2.31183 27.7244 4.10246C26.8354 6.91452 27.3054 9.46124 29.2081 11.7038C29.497 12.0442 29.5544 12.2084 29.2225 12.5861C28.5053 13.389 27.966 14.3381 27.6406 15.3697C27.3153 16.4012 27.2114 17.4914 27.3361 18.5669C27.4607 19.6425 27.811 20.6786 28.3633 21.6057C28.9157 22.5328 29.6574 23.3295 30.5386 23.9422C31.2106 24.4176 31.9006 24.3728 32.2697 23.8299C32.6391 23.2867 32.5181 22.6183 31.8549 22.1733C28.6988 20.0553 28.7083 15.2592 31.8829 13.1493C32.6972 12.6081 32.6511 11.7426 31.8679 11.1325C28.6775 8.64695 28.657 4.67047 31.8216 2.16772C32.6784 1.4901 32.6866 0.942476 31.8539 1.52588e-05H30.9767Z" fill="#040403"/>
<path d="M13.4669 64.7162C13.2408 65.6198 12.9556 65.8464 11.959 65.8487C9.1583 65.8553 6.3575 65.8453 3.55685 65.862C3.32523 65.8633 2.92912 65.6363 2.88696 66.1545C2.84643 66.6525 3.27023 66.538 3.49849 66.5827C8.43913 67.5516 13.3823 68.5074 18.3279 69.45C18.7112 69.5184 19.0999 69.5507 19.4891 69.5465C29.7179 69.5516 39.9467 69.5497 50.1756 69.541C51.936 69.5377 53.6286 68.9878 55.3486 68.6747C58.9135 68.0258 62.4673 67.3136 66.0254 66.6264C66.2165 66.5895 66.4045 66.5348 66.5964 66.5041C66.8537 66.463 66.787 66.2637 66.7968 66.1041C66.8088 65.9096 66.6922 65.8505 66.522 65.8523C66.3272 65.8543 66.1324 65.8513 65.9375 65.8513C49.6445 65.8512 33.3514 65.8511 17.0583 65.8509C15.8412 65.8509 15.6075 65.6966 15.3172 64.7175C14.7004 64.7171 14.0837 64.7167 13.4669 64.7162Z" fill="#FFD656"/>
<path d="M22.5209 30.5741C22.3813 31.369 21.8956 31.6745 21.1234 31.6634C19.6625 31.6423 18.2004 31.6862 16.7404 31.6449C16.0601 31.6256 15.8553 31.8705 15.8735 32.5466C15.9102 33.9166 15.8779 33.9175 17.1965 33.9175C29.1048 33.9175 41.0131 33.9226 52.9214 33.9328C53.5875 33.9339 53.8576 33.8338 53.8138 33.0731C53.7304 31.623 54.0356 31.6555 52.3645 31.6561C43.5733 31.6593 34.7821 31.6596 25.9909 31.6569C24.8668 31.6568 24.6584 31.5135 24.3743 30.5741C23.7565 30.5741 23.1387 30.5741 22.5209 30.5741Z" fill="#FFD656"/>
<path d="M61.531 53.2926C60.9775 53.8058 60.4062 53.77 59.8072 53.37C59.0749 52.8778 58.2394 52.5657 57.3671 52.4585C57.041 52.3868 56.7002 52.4418 56.4123 52.6126C57.4713 54.2229 58.5255 55.8261 59.5752 57.4223C59.7642 57.7099 59.9558 57.9959 60.1407 58.2862C60.646 59.0799 60.5981 59.6924 60.0025 60.1007C59.4425 60.4846 58.8172 60.2693 58.3009 59.4905C57.2279 57.8719 56.1653 56.2461 55.0955 54.6253C54.9347 54.3818 54.758 54.1491 54.5478 53.854C53.7796 54.8983 53.8072 56.0563 53.9857 57.1475C54.4185 59.7937 55.8071 61.8381 58.0764 63.2472C58.491 63.5095 58.9761 63.6341 59.464 63.6036C59.9739 63.5783 60.4861 63.598 60.9972 63.598C62.4822 63.598 63.2862 62.9188 63.5966 61.4021C63.9526 59.6625 63.4928 58.0743 62.6944 56.5611C62.3485 55.9056 62.2619 55.3095 62.8454 54.7519C62.4595 54.2197 62.0189 53.7305 61.531 53.2926Z" fill="#F08300"/>
<path d="M19.5589 17.6603C19.6473 20.2041 20.6192 22.2619 22.6169 23.788C23.4331 24.4115 24.109 24.4294 24.5301 23.8607C24.961 23.2789 24.7558 22.6385 23.9385 22.0149C23.3429 21.5735 22.8445 21.0111 22.4753 20.3637C22.106 19.7162 21.874 18.9979 21.794 18.2545C21.7139 17.5112 21.7877 16.7591 22.0105 16.0462C22.2333 15.3333 22.6003 14.6753 23.088 14.1141C23.42 13.7539 23.7872 13.4289 24.1841 13.144C24.771 12.69 24.9096 12.0451 24.5614 11.5327C24.1913 10.9878 23.5324 10.9064 22.8897 11.3583C20.7154 12.8874 19.6485 15.0206 19.5589 17.6603Z" fill="#040403"/>
<path d="M35.6295 17.6194C35.7022 20.3084 36.772 22.4384 38.937 23.9779C39.5737 24.4307 40.2425 24.3667 40.6082 23.8406C40.9848 23.2989 40.8677 22.6198 40.2131 22.1804C37.0547 20.0602 37.0435 15.2951 40.2094 13.167C40.8661 12.7256 40.9854 12.0446 40.6082 11.5102C40.2306 10.9752 39.5867 10.9118 38.9328 11.3736C36.7851 12.8905 35.7272 15.0022 35.6295 17.6194Z" fill="#040403"/>
<path d="M34.7814 36.1476C28.7173 36.1476 22.6531 36.1563 16.589 36.1334C16.0086 36.1313 15.8677 36.2935 15.8745 36.8677C15.912 40.0324 15.7707 43.2055 15.9471 46.3609C16.3308 53.2261 19.5004 58.4644 25.2846 62.0571C25.6781 62.3015 26.0783 62.5387 26.4918 62.7452C27.6333 63.315 28.7919 63.6673 30.1187 63.6347C33.5749 63.5495 37.0345 63.6071 40.4928 63.6039C40.7597 63.6157 41.0271 63.598 41.2903 63.551C42.2226 63.3381 42.2506 63.2654 41.845 62.4075C40.4673 59.493 41.9505 56.1359 45.1173 54.9042C46.9869 54.168 49.0271 53.9977 50.9903 54.414C51.4304 54.5036 51.6194 54.4111 51.8177 53.9964C53.1422 51.2321 53.8192 48.1953 53.796 45.1225C53.7901 42.3529 53.7761 39.5831 53.8102 36.814C53.8173 36.238 53.649 36.1335 53.1199 36.1352C47.0071 36.1546 40.8943 36.1476 34.7814 36.1476Z" fill="#FFD656"/>
<path d="M13.6795 36.3252C13.6795 34.8193 13.6795 34.8193 12.209 34.7441C6.41745 34.4477 1.85506 39.1213 2.19158 45.0055C2.54115 51.118 8.90442 55.4352 14.5643 53.4124C14.9732 53.2663 15.0863 53.1262 14.9096 52.6874C14.6627 52.074 14.6757 51.2546 14.2673 50.8333C13.8483 50.4011 13.1559 51.0091 12.5595 51.0575C8.93171 51.3521 6.11057 49.4564 5.1237 46.0147C4.01384 42.1441 6.95179 37.8443 10.9014 37.5443C11.6327 37.4888 12.3614 37.4419 13.0721 37.6532C13.5616 37.7986 13.7449 37.6576 13.6849 37.1405C13.6675 36.8691 13.6657 36.5969 13.6795 36.3252Z" fill="#FFD656"/>
<path d="M34.8561 73.7643C39.581 73.7643 44.3059 73.7535 49.0307 73.7781C49.6119 73.7811 49.8354 73.6811 49.8061 73.0294C49.7508 71.7999 49.7927 71.7979 48.5533 71.7979C39.2983 71.7979 30.0433 71.7921 20.7884 71.7805C20.0675 71.7785 19.7423 71.9312 19.8874 72.6977C19.9131 72.8445 19.9132 72.9947 19.8877 73.1414C19.7963 73.6865 20.0478 73.7777 20.5352 73.7753C24.4807 73.7556 28.4263 73.7643 32.3718 73.7643C33.1999 73.7643 34.028 73.7643 34.8561 73.7643Z" fill="#FFD656"/>
<path d="M54.8311 63.598C53.9374 62.655 53.2027 61.5697 52.6562 60.3854C52.1987 59.429 51.8934 58.4053 51.7516 57.3523C51.7214 57.1363 51.7408 56.9204 51.4481 56.8375C49.014 56.1479 46.6902 56.1997 44.592 57.846C44.5183 57.9104 44.4481 57.9787 44.3816 58.0506C44.0217 58.402 44.1354 58.5436 44.5881 58.6313C46.5687 59.0151 48.5451 59.4208 50.5227 59.8205C50.7143 59.8541 50.9035 59.9 51.0893 59.9578C51.7136 60.1701 52.0212 60.662 51.8806 61.2631C51.7331 61.8938 51.2856 62.1805 50.6845 62.0896C49.7002 61.9406 48.7258 61.7232 47.7481 61.5306C46.5794 61.3004 45.4119 61.0641 44.243 60.8352C44.0824 60.8037 43.884 60.6783 43.7616 60.8289C43.622 61.0006 43.7622 61.1964 43.835 61.377C44.1888 62.2539 44.8315 62.8851 45.5388 63.4639C45.7014 63.5749 45.8982 63.6226 46.0928 63.5981C48.9396 63.5979 51.7865 63.598 54.8311 63.598Z" fill="#F08300"/>
</g>
<defs>
<clipPath id="clip0_181_1966">
<rect width="69" height="76" fill="white" transform="matrix(-1 0 0 1 69 0)"/>
</clipPath>
</defs>
</svg>
