<svg width="42" height="42" viewBox="0 0 42 42" fill="none" xmlns="http://www.w3.org/2000/svg">
<g clip-path="url(#clip0_401_1317)">
<path fill-rule="evenodd" clip-rule="evenodd" d="M41.16 21.4771C41.16 19.988 41.0264 18.5562 40.7782 17.1816H21V25.3048H32.3018C31.815 27.9298 30.3355 30.1539 28.1114 31.643V36.9121H34.8982C38.8691 33.2562 41.16 27.8725 41.16 21.4771Z" fill="#FFD656"/>
<path fill-rule="evenodd" clip-rule="evenodd" d="M21 41.9997C26.67 41.9997 31.4236 40.1193 34.8982 36.912L28.1114 31.6429C26.2309 32.9029 23.8255 33.6475 21 33.6475C15.5305 33.6475 10.9009 29.9534 9.24955 24.9897H2.23364V30.4307C5.6891 37.2938 12.7909 41.9997 21 41.9997Z" fill="#FFD656"/>
<path fill-rule="evenodd" clip-rule="evenodd" d="M9.24955 24.9902C8.82955 23.7302 8.59091 22.3843 8.59091 21.0002C8.59091 19.6162 8.82955 18.2702 9.24955 17.0102V11.5693H2.23364C0.811364 14.4043 0 17.6116 0 21.0002C0 24.3889 0.811364 27.5962 2.23364 30.4312L9.24955 24.9902Z" fill="#FFD656"/>
<path fill-rule="evenodd" clip-rule="evenodd" d="M21 8.35227C24.0832 8.35227 26.8514 9.41182 29.0277 11.4927L35.0509 5.46955C31.4141 2.08091 26.6605 0 21 0C12.7909 0 5.6891 4.70591 2.23364 11.5691L9.24955 17.01C10.9009 12.0464 15.5305 8.35227 21 8.35227Z" fill="#FFD656"/>
</g>
<defs>
<clipPath id="clip0_401_1317">
<rect width="42" height="42" fill="white"/>
</clipPath>
</defs>
</svg>
