<svg width="28" height="28" viewBox="0 0 28 28" fill="none" xmlns="http://www.w3.org/2000/svg">
<g clip-path="url(#clip0_802_29)">
<path d="M2.63917 0.25C2.87584 0.362216 2.95623 0.550007 2.94881 0.797256C2.93835 1.14539 2.9523 1.49419 2.94335 1.8424C2.93957 1.98922 2.99122 2.01819 3.13701 2.00891C4.52183 1.92072 5.88923 2.09261 7.25599 2.2746C7.46067 2.30186 7.60004 2.39159 7.66732 2.58108C7.73236 3.02497 7.54832 3.21967 7.08108 3.1627C6.38377 3.07769 5.68703 2.99294 4.98614 2.93716C4.40353 2.89079 3.82147 2.91938 3.23918 2.91473C3.20676 2.91275 3.17427 2.91699 3.14356 2.9272C3.11285 2.93742 3.08453 2.95341 3.06024 2.97426C2.97889 3.05515 2.9958 3.15736 2.99576 3.25438C2.99494 5.21449 2.99495 7.17459 2.99577 9.13469C2.99595 9.45278 3.0026 9.46793 3.34387 9.45947C5.78375 9.39898 8.16205 9.82955 10.5376 10.2875C11.7108 10.5137 12.8698 10.806 14.0523 10.9886C14.8282 11.1247 15.611 11.2114 16.3954 11.2828C17.5307 11.3893 18.672 11.4254 19.8121 11.3911C21.4453 11.3373 23.0676 11.1812 24.665 10.8267C24.9125 10.7718 24.9944 10.6555 24.9937 10.4192C24.988 8.47688 24.9918 6.53451 24.9892 4.59216C24.9887 4.27684 24.9558 4.25488 24.628 4.32526C24.4289 4.36801 24.2264 4.39318 24.0284 4.44098C22.9835 4.6408 21.9253 4.76963 20.8617 4.82651C20.1972 4.86549 19.5296 4.86295 18.8637 4.84855C18.3086 4.83655 17.754 4.83957 17.198 4.79999C15.9768 4.71305 14.765 4.5659 13.559 4.36791C12.5354 4.19986 11.5227 3.97932 10.5079 3.76942C10.2948 3.71708 10.0771 3.67847 9.87027 3.60588C9.59087 3.50782 9.49987 3.31767 9.58859 3.04659C9.77329 2.73901 9.88003 2.70267 10.3072 2.79218C11.5818 3.05924 12.8525 3.34417 14.14 3.55087C16.7103 3.97475 19.3278 4.06208 21.9221 3.81052C23.0369 3.70626 24.1416 3.51731 25.2257 3.24541C25.7161 3.11924 25.9113 3.27034 25.9114 3.74993C25.9119 6.9076 25.9133 10.0653 25.9156 13.2229C25.9162 13.5246 25.8195 13.7248 25.5031 13.7964C25.1983 13.8345 25.0134 13.6813 24.998 13.3531C24.9791 12.9509 24.9946 12.548 24.9912 12.1453C24.9883 11.794 24.9773 11.7858 24.6329 11.855C22.9429 12.1893 21.2231 12.3627 19.4981 12.3726C17.4115 12.3998 15.3271 12.2279 13.2753 11.8594C11.158 11.4422 9.05548 10.95 6.91019 10.6737C5.76068 10.5256 4.60897 10.3981 3.44522 10.4304C3.07415 10.4407 3.05867 10.4482 3.05849 10.8152C3.05764 12.6148 3.05764 14.4144 3.05851 16.214C3.0587 16.5967 3.06887 16.6049 3.46273 16.6065C3.83387 16.608 4.20501 16.6047 4.57612 16.607C6.70087 16.7333 8.79071 17.0887 10.8678 17.5185C12.5903 17.8749 14.3085 18.2473 16.066 18.4184C17.3413 18.5426 18.619 18.5524 19.8981 18.5422C21.4655 18.5233 23.0267 18.3476 24.5567 18.0181C24.9867 17.9275 24.9909 17.9136 24.9931 17.4794C24.9951 17.0678 24.9789 16.6558 25.0006 16.2448C25.017 15.9352 25.1914 15.7991 25.5026 15.8242C25.8106 15.9028 25.9242 16.0954 25.9162 16.4005C25.9007 16.9907 25.9125 17.5816 25.9114 18.1721C25.9107 18.5215 25.8244 18.6326 25.4785 18.7266C24.1626 19.0842 22.8141 19.2569 21.4569 19.3714C19.6355 19.5198 17.8038 19.5041 15.9855 19.3244C14.4158 19.1743 12.8748 18.8668 11.3369 18.5433C9.32749 18.1206 7.3108 17.7381 5.259 17.5672C4.37337 17.4934 3.48445 17.4274 2.59828 17.5942C2.33321 17.6441 2.12576 17.4773 2.09142 17.2179C2.08541 17.1465 2.08407 17.0749 2.0874 17.0033C2.08727 11.6165 2.08589 6.22974 2.08325 0.842944C2.08301 0.592517 2.13807 0.391154 2.36079 0.25H2.63917Z" fill="#2B2D54"/>
<path d="M13.2762 11.7935C13.9996 11.895 14.7212 12.0108 15.4468 12.0953C17.261 12.3043 19.091 12.356 20.9148 12.2499C22.2472 12.1828 23.5709 12.0024 24.8706 11.7107C25.0222 11.6757 25.0668 11.7112 25.0645 11.8601C25.0575 12.3252 25.0602 12.7905 25.0625 13.2557C25.0643 13.6142 25.1385 13.7022 25.5033 13.796C25.5031 14.472 25.5029 15.148 25.5028 15.8239C25.1215 15.9361 25.0636 16.0095 25.0623 16.395C25.0609 16.8423 25.052 17.29 25.0667 17.7369C25.0728 17.9234 25.0158 17.9953 24.8227 18.0403C22.901 18.4881 20.9489 18.6423 18.9777 18.6402C16.4158 18.6374 13.9058 18.267 11.4144 17.7159C9.16561 17.2185 6.89432 16.8373 4.58832 16.6803C4.6261 16.521 4.78234 16.5305 4.8945 16.4958C6.07502 16.1265 7.22157 15.6625 8.32221 15.1088C9.71829 14.4119 11.0005 13.552 12.212 12.5908C12.4906 12.3698 12.7771 12.1572 13.0344 11.9119C13.0962 11.8437 13.1828 11.8013 13.2762 11.7935Z" fill="#FFD656"/>
<path d="M2.9702 2.88616C3.04587 2.78821 3.1573 2.83211 3.25129 2.82808C4.52232 2.77356 5.78084 2.9011 7.03534 3.08022C7.48832 3.14489 7.66749 3.00532 7.66733 2.58057C7.72143 2.71205 7.80662 2.76435 7.96677 2.7848C8.50987 2.85416 9.04844 2.95652 9.58872 3.04633C9.59649 3.40575 9.67917 3.50408 10.0309 3.58187C10.1836 3.61563 10.3347 3.65592 10.4865 3.69324C10.4957 3.81275 10.3928 3.86276 10.3213 3.92519C9.58606 4.5673 8.85029 5.20887 8.11401 5.84988C7.17299 6.68724 6.18669 7.47574 5.15927 8.21207C4.59584 8.60638 4.0109 8.97112 3.40698 9.30472C3.32632 9.34904 3.24271 9.38814 3.1567 9.42178C3.00111 9.48339 2.94337 9.44132 2.94373 9.27282C2.94817 7.16913 2.94541 5.06543 2.94685 2.96173C2.94746 2.93497 2.95553 2.90886 2.9702 2.88616Z" fill="#3C86F1"/>
<path d="M2.97326 23.4296C2.97326 24.6737 2.97319 25.9178 2.97304 27.1618C2.97909 27.2422 2.97666 27.3229 2.96581 27.4028C2.91823 27.6217 2.77477 27.7552 2.53962 27.7494C2.43592 27.7541 2.33455 27.7188 2.25774 27.6513C2.18092 27.5837 2.13495 27.4895 2.12991 27.3893C2.12261 27.318 2.12002 27.2464 2.12215 27.1749C2.11044 24.6957 2.09906 22.2166 2.088 19.7374C2.08138 19.6481 2.08442 19.5584 2.09708 19.4698C2.14481 19.2512 2.29245 19.116 2.52433 19.1214C2.62829 19.1175 2.72967 19.1532 2.8066 19.221C2.88353 19.2887 2.92983 19.3829 2.93552 19.4834C2.94552 19.5723 2.94944 19.6617 2.94723 19.7512C2.94792 20.9773 2.94807 22.2035 2.94769 23.4296H2.97326Z" fill="#2B2D54"/>
<path d="M2.97015 2.88623C2.97245 4.9531 2.97474 7.01998 2.97703 9.08685C2.97714 9.18481 2.97704 9.28276 2.97704 9.40824C3.3868 9.27996 3.71582 9.04953 4.05388 8.84385C5.12699 8.17905 6.14511 7.43473 7.09907 6.6176C8.01139 5.84931 8.90844 5.06531 9.80022 4.27527C10.0245 4.07659 10.2575 3.88705 10.4864 3.69331C11.3377 3.86087 12.1874 4.03677 13.0407 4.19443C15.5886 4.66518 18.1579 4.88277 20.752 4.7514C21.7697 4.70288 22.7827 4.58627 23.7837 4.40239C23.856 4.38889 23.9307 4.38722 24.0043 4.38004C24.0806 4.36111 24.1688 4.33597 24.1055 4.46415C24.0818 4.51214 24.0185 4.5276 23.968 4.55043C22.1574 5.35939 20.4189 6.31153 18.7704 7.39716C17.8791 7.99488 17.0271 8.64555 16.2193 9.34542C15.6101 9.86854 14.9861 10.376 14.4062 10.9304C14.3041 11.0281 14.1858 11.0947 14.0322 11.056C13.1389 10.9505 12.2702 10.7261 11.3924 10.5464C8.98929 10.0544 6.58117 9.59581 4.11467 9.52851C3.79063 9.51967 3.4656 9.53107 3.1415 9.54402C3.00628 9.54942 2.93649 9.52814 2.93683 9.37563C2.94157 7.22771 2.94403 5.0798 2.94419 2.93187C2.94421 2.91665 2.96112 2.90144 2.97015 2.88623Z" fill="#3C86F1"/>
<path d="M14.0322 11.0561C14.1995 11.035 14.3099 10.9289 14.4263 10.8235C16.0082 9.39056 17.628 8.00256 19.4636 6.87003C20.9077 5.97073 22.4167 5.17265 23.9789 4.48193C24.0123 4.46732 24.0625 4.45459 24.0717 4.42962C24.0898 4.38032 24.031 4.39327 24.0043 4.38016C24.3 4.31241 24.5957 4.24466 24.8914 4.17692C25.1025 4.12854 25.0616 4.27653 25.0616 4.38507C25.0628 5.70857 25.0631 7.03207 25.0624 8.35557C25.0624 9.10675 25.0563 9.85801 25.067 10.609C25.0695 10.7791 25.0046 10.8404 24.8455 10.8755C22.4814 11.397 20.0868 11.5521 17.6689 11.4473C16.5033 11.3942 15.3417 11.2777 14.1896 11.0984C14.1363 11.0873 14.0837 11.0732 14.0322 11.0561Z" fill="#3C86F1"/>
<path d="M13.2762 11.7938C12.2302 12.7234 11.1028 13.5634 9.90647 14.3043C8.32837 15.2738 6.62572 16.0392 4.84198 16.5811C4.75524 16.6076 4.67276 16.6471 4.5883 16.6805C4.09735 16.6847 3.606 16.679 3.11562 16.6974C2.88022 16.7063 2.94865 16.5569 2.94847 16.4495C2.94562 14.6698 2.94494 12.8901 2.94643 11.1104C2.95518 10.9496 2.95388 10.7885 2.94255 10.6279C2.91439 10.4052 3.02168 10.3581 3.22526 10.351C4.46214 10.3079 5.68654 10.4304 6.90883 10.5904C8.93748 10.8559 10.931 11.2967 12.9286 11.7163C13.0443 11.7406 13.1717 11.7223 13.2762 11.7938Z" fill="#FFD656"/>
</g>
<defs>
<clipPath id="clip0_802_29">
<rect width="27.5" height="27.5" fill="white" transform="translate(0.25 0.25)"/>
</clipPath>
</defs>
</svg>
