<svg width="28" height="28" viewBox="0 0 28 28" fill="none" xmlns="http://www.w3.org/2000/svg">
<g clip-path="url(#clip0_802_404)">
<path d="M22.3187 3.69188C22.4185 3.89259 22.4266 4.08191 22.2632 4.25685C20.5523 6.08846 19.4436 8.27025 18.7353 10.6916C18.3755 11.9216 17.9522 13.1276 17.3109 14.24C17.2413 14.373 17.1451 14.4891 17.0286 14.5806C16.9121 14.6721 16.7781 14.7368 16.6355 14.7706C15.1183 15.1529 13.6036 15.5461 12.0881 15.9354C12.0444 15.9683 12.0419 16.0004 12.0897 16.0316C12.9257 16.1847 13.773 16.2616 14.6219 16.2616C14.8781 16.2598 15.0873 16.3438 15.1792 16.6084C15.2669 16.8606 15.1611 17.052 14.9789 17.2238C13.2977 18.8271 11.2228 19.9225 8.98049 20.3905C8.26438 20.5431 7.54647 20.6868 6.79765 20.8411C7.24559 21.2385 7.57494 21.7181 8.04375 22.0491C8.3566 22.257 8.69671 22.4174 9.05367 22.5254C9.35055 22.6253 9.47269 22.8086 9.43465 23.0993C9.39979 23.3658 9.22559 23.5088 8.91699 23.5091C7.13226 23.5107 5.34752 23.5137 3.56285 23.5045C3.36672 23.5035 3.27987 23.5589 3.21406 23.7519C2.913 24.635 2.59457 25.5118 2.28047 26.3962C2.36647 26.4631 2.42958 26.3678 2.49644 26.3284C3.13482 25.9528 3.77057 25.5724 4.40724 25.1936C6.07015 24.2045 7.71147 24.2414 9.33118 25.3046C9.72532 25.5633 10.1195 25.8221 10.5114 26.0845C11.362 26.6541 12.2693 26.7747 13.2423 26.4884C14.1141 26.2318 14.9703 25.9115 15.8633 25.7407C16.4727 25.6295 17.1 25.6966 17.6744 25.9342C17.8929 26.0206 17.996 26.2216 17.9383 26.4202C17.8769 26.6314 17.6766 26.7706 17.4734 26.6877C16.5997 26.3311 15.7618 26.529 14.9136 26.8026C14.2385 27.0203 13.5669 27.262 12.8658 27.3808C11.9693 27.5402 11.0474 27.3541 10.2749 26.8577C9.80868 26.5668 9.3531 26.2576 8.89317 25.9559C7.55632 25.0791 6.20149 25.0431 4.82666 25.8595C3.76367 26.4908 2.70003 27.1209 1.63576 27.7499H1.37586C1.1592 27.5637 1.11728 27.3506 1.22021 27.0706C1.92179 25.1622 2.5404 23.2211 3.33409 21.349C3.35692 21.3028 3.36575 21.2505 3.35946 21.199C3.35317 21.1475 3.33204 21.0991 3.29881 21.0602C2.21308 19.4623 1.88286 17.6947 2.20397 15.7849C2.2868 15.2923 2.69392 15.1391 3.06516 15.4545C3.18404 15.5554 3.29997 15.6601 3.4608 15.8013C3.38935 15.2959 3.30053 14.8465 3.27977 14.3896C3.26111 13.9787 3.24507 13.5677 3.23163 13.1566C3.23138 12.9767 3.28079 12.8004 3.37412 12.6486C3.8108 11.8769 4.30704 11.1428 4.85794 10.4536C5.0239 10.2437 5.21408 10.2282 5.43314 10.3426C5.67416 10.5247 5.70702 10.6846 5.52779 10.9546C5.28781 11.316 5.00442 11.644 4.7602 12.0034C4.54077 12.3264 4.33618 12.6574 4.14802 13.0001C4.0802 13.1053 4.04476 13.2292 4.04642 13.3556C4.12939 14.487 4.15374 15.6292 4.6435 16.6838C4.6936 16.7842 4.70959 16.8991 4.68892 17.01C4.66826 17.1209 4.61213 17.2214 4.52954 17.2954C4.35992 17.4522 4.15035 17.4723 3.92886 17.3355C3.66701 17.1737 3.46934 16.9292 3.2316 16.7355C3.14547 16.6535 3.05192 16.5803 2.95223 16.5168C2.82368 17.8386 3.12102 19.0271 3.72643 20.1847C3.82138 20.0751 3.89577 19.9483 3.94579 19.8106C5.10331 17.374 6.51771 15.0769 8.16327 12.9612C8.21489 12.8893 8.27054 12.8206 8.32998 12.7554C8.52782 12.5549 8.60036 12.318 8.59178 12.0286C8.5756 11.4831 8.58057 10.9367 8.59046 10.3908C8.58687 10.2868 8.61773 10.1846 8.67798 10.1013C8.73823 10.0179 8.82423 9.95826 8.92174 9.93229C9.11643 9.88037 9.25688 9.9764 9.37284 10.1241C9.44924 10.2214 9.44462 10.3408 9.44758 10.4573C9.45497 10.749 9.43307 11.0417 9.46508 11.3838C9.64746 11.1722 9.81944 11.013 9.97555 10.8376C12.0915 8.46072 14.4793 6.4175 17.0893 4.64707C17.4137 4.42698 17.5517 4.43337 17.8018 4.67083C17.9656 5.01402 17.9233 5.18725 17.5943 5.41125C16.4944 6.15816 15.4321 6.96263 14.4115 7.82155C14.3232 7.89142 14.2416 7.96991 14.1678 8.05592C14.4968 8.08759 14.7928 8.05679 15.0858 8.07641C15.1867 8.07782 15.2831 8.11983 15.3546 8.19351C15.426 8.26719 15.4669 8.36675 15.4685 8.47105C15.4836 8.57879 15.4577 8.68839 15.3963 8.77686C15.3349 8.86532 15.2427 8.92579 15.1391 8.94557C15.0451 8.96198 14.9497 8.96771 14.8545 8.96265C14.387 8.96316 13.9192 8.97245 13.452 8.95903C13.3359 8.95493 13.2201 8.97572 13.1121 9.02007C13.004 9.06442 12.906 9.13139 12.8243 9.21676C12.1662 9.83908 11.5289 10.483 10.9122 11.1484C9.22329 12.9599 7.72299 14.9496 6.43597 17.0848C6.28642 17.3345 6.30283 17.3621 6.58572 17.365C6.88871 17.368 7.19185 17.3594 7.49471 17.3681C7.82012 17.3774 7.99262 17.5434 7.98472 17.8263C7.97715 18.0976 7.81017 18.2495 7.49308 18.2545C7.00832 18.2622 6.52338 18.2608 6.03864 18.2546C5.95688 18.2473 5.87491 18.2658 5.80354 18.3076C5.73216 18.3495 5.67475 18.4127 5.63893 18.489C5.32636 19.067 5.0201 19.6481 4.7485 20.2476C4.69529 20.4354 4.825 20.3594 4.8918 20.3462C5.28219 20.2687 5.67205 20.1884 6.06137 20.1051C6.98453 19.9071 7.91362 19.7402 8.83685 19.5425C10.5467 19.1782 12.1563 18.4244 13.5485 17.3359C13.6039 17.293 13.6562 17.246 13.7092 17.2C13.7383 17.1745 13.7587 17.1399 13.7673 17.1014C13.1231 17.0471 12.4855 16.9927 11.8577 16.8646C11.5875 16.8164 11.3209 16.7514 11.0553 16.682C10.8978 16.6337 10.7374 16.5947 10.5838 16.5337C10.4727 16.4943 10.3763 16.4198 10.3083 16.3208C10.2403 16.2218 10.2041 16.1032 10.2049 15.9817C10.2109 15.865 10.2495 15.7525 10.3161 15.6579C10.3826 15.5633 10.4742 15.4907 10.5798 15.4487C10.6944 15.4079 10.8115 15.3747 10.9302 15.3495C12.6854 14.8962 14.4397 14.4392 16.1968 13.9939C16.3094 13.9697 16.4152 13.9192 16.5061 13.8463C16.5969 13.7734 16.6704 13.6799 16.7209 13.5731C17.0987 12.8483 17.4111 12.089 17.6539 11.3049C18.0056 10.2194 18.3289 9.12268 18.7841 8.0763C19.4012 6.64359 20.2278 5.31745 21.235 4.14436C21.3843 3.97112 21.5095 3.77427 21.6924 3.63322C21.9297 3.45014 22.1518 3.4715 22.3187 3.69188Z" fill="#2B2D54"/>
<path d="M19.615 27.7024C19.3649 27.6802 19.1196 27.6179 18.8879 27.5179C18.8379 27.5015 18.7918 27.4747 18.7523 27.4391C18.7128 27.4034 18.6809 27.3598 18.6585 27.3108C18.6361 27.2618 18.6237 27.2086 18.6221 27.1545C18.6205 27.1003 18.6298 27.0464 18.6493 26.9962C18.6668 26.9477 18.6937 26.9034 18.7283 26.8661C18.763 26.8287 18.8046 26.799 18.8507 26.7788C18.8968 26.7586 18.9464 26.7483 18.9965 26.7485C19.0465 26.7488 19.096 26.7595 19.1419 26.7802C19.5751 26.94 20.0206 26.957 20.4728 26.9556C21.9194 26.9508 23.3661 26.9505 24.8127 26.9546C25.1504 26.955 25.3382 27.1516 25.2874 27.4346C25.2589 27.5933 25.1375 27.6651 25.028 27.7499H19.8817C19.8009 27.6855 19.6979 27.7545 19.615 27.7024Z" fill="#2B2D54"/>
<path d="M19.615 27.7026C19.7094 27.6856 19.8023 27.6771 19.8817 27.7501H19.6218C19.6246 27.7422 19.6255 27.7338 19.6243 27.7255C19.6231 27.7172 19.6199 27.7093 19.615 27.7026Z" fill="#81F4E1"/>
<path d="M17.7681 4.7024C17.5527 4.47961 17.3477 4.54231 17.1189 4.69831C14.3679 6.56888 11.8539 8.78749 9.63545 11.3025C9.57344 11.3729 9.50882 11.4408 9.40275 11.5563C9.40275 11.153 9.40613 10.8083 9.4017 10.4638C9.39788 10.1663 9.25223 9.98587 9.0253 9.98314C8.79551 9.98038 8.64919 10.1607 8.64307 10.4552C8.64177 10.5178 8.64283 10.5805 8.64283 10.6431C8.64283 11.189 8.64053 11.7349 8.64459 12.2808C8.65225 12.3959 8.61692 12.5097 8.54587 12.5987C6.66948 14.9297 5.0828 17.4942 3.82281 20.2324C3.80153 20.2711 3.77836 20.3087 3.75343 20.345C3.02877 19.1103 2.74786 17.8045 2.89506 16.3521C3.2496 16.6657 3.5703 16.9609 3.90338 17.2404C4.17954 17.4721 4.53195 17.3573 4.62524 17.0233C4.65295 16.9281 4.64414 16.8254 4.60064 16.7366C4.13858 15.7557 4.0632 14.6972 3.99671 13.6328C3.96983 13.3138 4.04789 12.9948 4.21824 12.7273C4.5841 12.131 4.98231 11.5565 5.41098 11.0066C5.6269 10.7305 5.62614 10.6264 5.43313 10.3425C5.68807 10.1216 5.87709 9.83754 6.10618 9.59187C6.35284 9.63529 6.55346 9.59977 6.75747 9.39992C7.6343 8.5348 8.56227 7.72678 9.53601 6.98052C10.1149 6.54011 10.7005 6.10948 11.2928 5.68865C11.3687 5.6345 11.4503 5.54764 11.5492 5.60913C11.6488 5.67108 11.6117 5.78398 11.5975 5.87943C11.5306 6.32834 11.6364 6.77078 11.6472 7.21691C11.6462 7.3083 11.6748 7.39743 11.7285 7.47003C11.7822 7.54263 11.858 7.59452 11.9436 7.61739C12.1425 7.67506 12.2982 7.59102 12.4261 7.43631C12.4792 7.36562 12.5258 7.28995 12.5653 7.21027C13.1381 6.17764 13.7092 5.14405 14.2787 4.1095C14.4084 3.87315 14.5547 3.6757 14.8143 3.55463C16.6228 2.71131 18.5068 2.1154 20.4428 1.68527C20.7292 1.62163 21.0116 1.52651 21.3104 1.53749C21.4658 1.60269 21.383 1.69219 21.3232 1.76328C21.2044 1.90453 21.0672 2.02758 20.9357 2.1564C20.3537 2.72631 19.7387 3.26082 19.2002 3.87745C19.1143 3.97086 19.0152 4.05017 18.9062 4.11264C18.6002 4.27028 18.32 4.47344 18.0227 4.6462C17.9454 4.69114 17.8713 4.77375 17.7681 4.7024Z" fill="#81F4E1"/>
<path d="M18.8943 4.05881C18.9809 3.98721 19.0675 3.9156 19.1541 3.84399C19.5545 3.51235 20.0144 3.2808 20.4665 3.04294C21.6514 2.41958 22.8404 1.80461 24.0336 1.19801C24.0716 1.17868 24.1156 1.16755 24.1323 1.1192C24.1925 1.04464 24.2752 1.02734 24.3333 1.09549C24.4025 1.1765 24.3248 1.24872 24.2681 1.29451C23.9742 1.5316 23.7481 1.8451 23.4566 2.07983C23.1761 2.30578 22.9642 2.53378 23.0944 2.93277C22.8006 3.14457 22.5392 3.40058 22.3187 3.69231C22.0294 3.49306 21.8912 3.50908 21.6456 3.77803C20.0211 5.55676 18.8843 7.6268 18.1659 9.95335C17.7751 11.2189 17.3957 12.4907 16.7557 13.6576C16.7039 13.7619 16.6296 13.8526 16.5386 13.9228C16.4476 13.9929 16.3423 14.0406 16.2308 14.0622C14.4093 14.5184 12.5916 14.9909 10.7728 15.4586C10.7393 15.4672 10.7073 15.4822 10.6737 15.4904C10.4257 15.5508 10.2793 15.7059 10.265 15.9734C10.2512 16.2284 10.3862 16.4009 10.6621 16.4954C10.7922 16.54 10.9229 16.5824 11.0533 16.6257C10.9638 16.7248 10.8445 16.7064 10.7362 16.6976C9.81222 16.6348 8.89627 16.4794 8.0013 16.2337C7.86043 16.1931 7.64628 16.1851 7.65095 15.98C7.65544 15.783 7.86031 15.7678 8.0071 15.7297C9.82002 15.2592 11.6319 14.7842 13.4486 14.3295C13.5917 14.3002 13.7266 14.2378 13.8431 14.147C13.9596 14.0562 14.0546 13.9392 14.1211 13.805C14.5571 12.9706 14.9216 12.0983 15.2106 11.1982C15.566 10.1242 15.8684 9.03088 16.327 7.99447C16.9046 6.70192 17.6486 5.49604 18.539 4.40963C18.6493 4.28416 18.768 4.16693 18.8943 4.05881Z" fill="#81F4E1"/>
<path d="M23.0944 2.9325C22.9082 2.63288 22.9213 2.50497 23.1712 2.26115C23.5527 1.88899 23.9363 1.51907 24.3245 1.14285C24.2958 1.12347 24.262 1.11383 24.2278 1.11527C24.1936 1.11672 24.1607 1.12917 24.1337 1.1509C23.9833 1.25728 23.8047 1.25391 23.6362 1.27585C22.9929 1.35958 22.3517 1.45632 21.7141 1.57663C21.5868 1.59033 21.4586 1.59271 21.3309 1.58374C20.3396 1.74245 19.371 2.00291 18.4072 2.2837C17.1603 2.64366 15.9422 3.10295 14.764 3.65744C14.6217 3.72016 14.5038 3.83048 14.4295 3.9707C13.8163 5.08866 13.2003 6.2049 12.5812 7.3194C12.3925 7.66055 12.209 7.77166 11.9486 7.70711C11.7007 7.64566 11.5852 7.44686 11.5631 7.0548C11.5367 6.58402 11.5067 6.11346 11.5582 5.58331C11.0924 5.91908 10.666 6.21902 10.2471 6.52972C9.01572 7.44304 7.83263 8.41733 6.74441 9.51079C6.5005 9.75587 6.38904 9.76537 6.10624 9.5921C5.9539 9.28497 5.97044 9.18777 6.21843 8.93704C7.76573 7.3726 9.50849 6.06506 11.2934 4.81297C11.3864 4.74777 11.4777 4.67987 11.5727 4.61798C11.6506 4.56 11.7433 4.52707 11.8392 4.52332C11.9351 4.51956 12.03 4.54515 12.1119 4.59687C12.1919 4.64288 12.2572 4.71212 12.2995 4.79604C12.3418 4.87995 12.3594 4.97486 12.3501 5.069C12.3352 5.42633 12.2802 5.78174 12.3022 6.14564C12.3968 6.12954 12.4061 6.03647 12.4406 5.97449C12.8801 5.18508 13.3217 4.39679 13.7497 3.60072C13.9053 3.30025 14.1544 3.06282 14.4568 2.92687C16.6258 1.91403 18.8953 1.24392 21.2271 0.782058C22.4512 0.541969 23.6863 0.366063 24.9277 0.25502C25.3732 0.214295 25.6339 0.42363 25.6096 0.799587C25.6027 0.870769 25.5823 0.939854 25.5496 1.00287C25.5168 1.06588 25.4723 1.12159 25.4187 1.16678C24.8312 1.73619 24.2423 2.30399 23.6575 2.87639C23.4793 3.05092 23.2962 3.06477 23.0944 2.9325Z" fill="#2B2D54"/>
<path d="M12.0897 16.0318C12.0413 16.046 11.9675 16.0534 11.9629 16.0058C11.9556 15.9289 12.0256 15.9224 12.088 15.9356L12.0897 16.0318Z" fill="#2B2D54"/>
<path d="M18.8942 4.05859C18.7023 4.39986 18.4133 4.66052 18.1845 4.97244C17.4753 5.92737 16.8705 6.96036 16.381 8.05262C15.8371 9.28228 15.5136 10.5909 15.0586 11.8521C14.7835 12.6129 14.4482 13.3489 14.056 14.0527C14.016 14.126 13.9611 14.1895 13.8952 14.239C13.8293 14.2884 13.7538 14.3226 13.6739 14.3392C11.7687 14.8258 9.86616 15.3235 7.96294 15.8184C7.90448 15.8323 7.84676 15.8493 7.79002 15.8694C7.74129 15.8879 7.68984 15.9155 7.68601 15.9762C7.68095 16.0562 7.74418 16.0729 7.80295 16.0949C8.18696 16.2268 8.58079 16.3259 8.98049 16.3912C9.66532 16.5223 10.3541 16.6255 11.0533 16.6255C11.3275 16.6844 11.6017 16.7434 11.8759 16.8023C11.9411 16.9221 11.8517 16.9885 11.7844 17.0496C10.8631 17.8927 9.83367 18.6006 8.72524 19.1531C7.53289 19.7434 6.26922 20.0645 4.98044 20.3091C4.78675 20.3459 4.7862 20.3427 4.69849 20.2206C4.96968 19.5629 5.3238 18.9495 5.64642 18.3192C5.70784 18.1992 5.79999 18.1993 5.90687 18.1998C6.42648 18.2022 6.9461 18.2023 7.46573 18.2001C7.76852 18.1983 7.92459 18.0659 7.92952 17.8182C7.93467 17.5599 7.77398 17.4211 7.45694 17.4183C7.11921 17.4153 6.78139 17.4195 6.44367 17.4161C6.36924 17.4154 6.26615 17.4577 6.22583 17.3891C6.17387 17.3007 6.27487 17.2303 6.31696 17.1594C7.21361 15.6501 8.22059 14.2138 9.3291 12.8631C10.4122 11.5469 11.5757 10.3037 12.8125 9.14116C12.9875 8.97614 13.1587 8.88556 13.4075 8.89642C13.9262 8.91905 14.4465 8.90541 14.9661 8.90239C15.2657 8.90064 15.4195 8.76355 15.4189 8.51073C15.4183 8.25983 15.265 8.12382 14.9633 8.11912C14.6448 8.12494 14.3263 8.1057 14.0106 8.06158C14.4599 7.69426 14.9053 7.32173 15.3593 6.96082C16.0795 6.3884 16.8234 5.85008 17.5826 5.33429C17.8566 5.14818 17.8885 5.02546 17.7681 4.70266C18.1195 4.5494 18.42 4.30395 18.7547 4.12057C18.7993 4.09615 18.8476 4.07907 18.8942 4.05859Z" fill="#81F4E1"/>
<path d="M4.69847 20.2206C4.94043 20.3553 5.16482 20.1981 5.38763 20.1561C6.59449 19.9287 7.7674 19.5768 8.87049 19.0114C9.68911 18.5909 10.4615 18.0804 11.1742 17.4888C11.362 17.3333 11.5478 17.1753 11.7317 17.0148C11.7965 16.9582 11.8709 16.9041 11.8759 16.8022C12.5817 16.9226 13.2933 17.0039 14.0075 17.046C13.3477 17.6126 12.6309 18.1042 11.8694 18.5125C10.6489 19.1747 9.33757 19.5369 7.99105 19.7939C6.93882 19.9948 5.8906 20.218 4.84042 20.4303C4.76527 20.4455 4.68872 20.4533 4.60769 20.4653C4.60359 20.42 4.60965 20.3744 4.6254 20.332C4.64114 20.2895 4.66615 20.2514 4.69847 20.2206Z" fill="#81F4E1"/>
<path d="M6.41875 22.7031H3.60852C3.78716 22.2703 3.96022 21.8515 4.13273 21.4325C4.16735 21.3484 4.24311 21.3611 4.30891 21.3489C4.50366 21.313 4.69838 21.2769 4.89306 21.2405C4.94428 21.2336 4.9964 21.2399 5.04464 21.259C5.09288 21.2781 5.13572 21.3094 5.16932 21.3499C5.58401 21.7636 5.98237 22.1944 6.39734 22.6078C6.41077 22.6189 6.42019 22.6343 6.42407 22.6516C6.42796 22.6689 6.42608 22.687 6.41875 22.7031Z" fill="#81F4E1"/>
<path d="M6.41887 22.7028C6.014 22.2924 5.60783 21.8834 5.20527 21.4707C5.11751 21.3727 5.01131 21.2943 4.89319 21.2402C5.56195 20.9511 6.09435 21.2127 6.56061 21.6967C6.88199 22.0303 7.1811 22.387 7.611 22.7028H6.41887Z" fill="#81F4E1"/>
<path d="M21.331 1.58372C22.0416 1.40083 22.7693 1.32275 23.4916 1.21291C23.704 1.18061 23.9196 1.17093 24.1337 1.15088C24.1355 1.27965 24.0183 1.2729 23.9507 1.30812C22.7925 1.91153 21.6298 2.50555 20.4724 3.11067C20.0273 3.34339 19.5933 3.59868 19.1542 3.84369C19.6824 3.21597 20.3094 2.69397 20.8832 2.11509C21.0457 1.95117 21.2705 1.84039 21.331 1.58372Z" fill="#81F4E1"/>
</g>
<defs>
<clipPath id="clip0_802_404">
<rect width="27.5" height="27.5" fill="white" transform="translate(0.25 0.25)"/>
</clipPath>
</defs>
</svg>
