<svg width="28" height="28" viewBox="0 0 28 28" fill="none" xmlns="http://www.w3.org/2000/svg">
<g clip-path="url(#clip0_401_1311)">
<path d="M0.249939 13.2711C0.377393 12.9803 0.599359 12.8821 0.912336 12.8838C2.66005 12.8931 4.40788 12.8831 6.15556 12.8949C6.37059 12.8963 6.45461 12.8239 6.51794 12.6341C6.72777 12.0388 6.99476 11.4655 7.31515 10.9223C7.25976 10.8374 7.18384 10.8757 7.1231 10.8755C6.22327 10.8725 5.32343 10.8742 4.42359 10.8731C4.02926 10.8726 3.78402 10.6678 3.78893 10.3476C3.79379 10.0305 4.04213 9.82994 4.43679 9.82958C5.56159 9.82857 6.68641 9.82585 7.81117 9.83285C7.88619 9.8384 7.96139 9.82464 8.02965 9.79286C8.09791 9.76108 8.15698 9.71233 8.2013 9.65122C9.68384 7.834 11.5526 6.62203 13.8285 6.06152C14.0044 6.01822 14.0655 5.9486 14.0543 5.76518C14.0366 5.47859 14.0367 5.19118 14.0544 4.9046C14.0658 4.72311 13.9982 4.65772 13.8351 4.59574C13.1011 4.31673 12.6702 3.61622 12.7134 2.80959C12.7519 2.09288 13.2784 1.44763 13.9947 1.24112C14.1696 1.19143 14.3506 1.16669 14.5323 1.16764C15.735 1.16782 16.9376 1.1643 18.1403 1.16882C19.0636 1.17229 19.7808 1.75493 19.941 2.61927C20.1032 3.49426 19.6549 4.27672 18.7849 4.61785C18.6688 4.66338 18.6294 4.716 18.6329 4.83854C18.6416 5.14275 18.6494 5.44821 18.6308 5.75151C18.619 5.94464 18.6867 6.01323 18.8684 6.05836C21.1891 6.6347 23.1057 7.86236 24.5746 9.7539C26.3773 12.0752 27.1031 14.7141 26.7441 17.6445C26.5561 19.1657 26.0349 20.626 25.2181 21.9205C25.0053 22.2624 24.8097 22.3259 24.4322 22.1815C24.3226 22.1425 24.2323 22.0626 24.1799 21.9583C24.1276 21.854 24.1173 21.7334 24.1512 21.6217C24.1945 21.48 24.2599 21.3461 24.345 21.2251C25.0697 20.0527 25.5205 18.7304 25.6635 17.3576C25.8936 15.1371 25.4324 13.0715 24.2294 11.1838C23.082 9.38323 21.4948 8.13006 19.5033 7.40555C18.2128 6.93701 16.8339 6.7667 15.469 6.90725C13.4001 7.10825 11.5899 7.90424 10.0526 9.29775C8.55593 10.6544 7.5997 12.3403 7.17961 14.3261C6.72773 16.4622 7.00287 18.5137 7.9393 20.4721C8.33381 21.277 8.845 22.0186 9.45616 22.6726C10.4219 23.737 11.6229 24.5585 12.9624 25.0706C13.9093 25.4338 14.9079 25.6423 15.9203 25.6882C17.8848 25.7853 19.6854 25.2961 21.3521 24.2656C21.7373 24.0274 22.0269 24.0716 22.2193 24.3907C22.3693 24.7872 22.3085 24.9747 21.9568 25.2001C16.4851 28.7084 9.08498 26.3334 6.64829 20.2817C6.57148 20.0909 6.48944 20.0208 6.27897 20.0232C5.20639 20.0359 4.13357 20.0297 3.06084 20.0282C2.94852 20.0318 2.83612 20.0247 2.7251 20.0072C2.61444 19.9832 2.51509 19.9222 2.44316 19.8344C2.37122 19.7465 2.33091 19.6367 2.32875 19.5229C2.32414 19.4091 2.35791 19.297 2.42457 19.2049C2.49123 19.1127 2.58689 19.0459 2.69604 19.0152C2.80597 18.9923 2.91821 18.9825 3.03042 18.9861C4.00799 18.984 4.98562 18.9789 5.96307 18.9897C6.16856 18.992 6.21522 18.9445 6.16105 18.7448C6.02064 18.2336 5.93713 17.7083 5.91203 17.1786C5.90387 16.9948 5.82658 16.9736 5.67347 16.9752C5.01606 16.982 4.35853 16.9787 3.70106 16.9779C3.29695 16.9774 3.06052 16.7879 3.05579 16.4636C3.05094 16.1315 3.29389 15.9346 3.7126 15.9341C4.37007 15.9333 5.02761 15.9293 5.68499 15.9374C5.82912 15.9392 5.87436 15.9 5.88084 15.7539C5.89822 15.215 5.96678 14.679 6.0856 14.1533C6.1361 13.9417 6.06884 13.9288 5.89507 13.9295C4.56283 13.9349 3.23055 13.9325 1.89829 13.9325C1.5955 13.9325 1.29202 13.9195 0.990129 13.9361C0.673139 13.9534 0.421827 13.8611 0.249939 13.5844V13.2711Z" fill="#2B2D54"/>
<path d="M0.25 19.3281C0.31667 19.3222 0.31109 19.2547 0.34001 19.2175C0.497573 19.0149 0.736899 18.9316 0.957385 19.025C1.06056 19.0611 1.14874 19.1309 1.20789 19.2233C1.26705 19.3156 1.2938 19.4252 1.28386 19.5346C1.28286 19.6443 1.24511 19.7505 1.17672 19.836C1.10832 19.9215 1.01327 19.9813 0.90689 20.0059C0.66849 20.0736 0.448598 19.9752 0.312678 19.7526C0.290511 19.7163 0.27083 19.6785 0.25 19.6414V19.3281Z" fill="#2B2D54"/>
<path d="M22.2194 24.3908C21.9098 24.1149 21.7503 24.1002 21.3873 24.3277C19.5796 25.4608 17.6102 25.9137 15.4936 25.7414C11.4188 25.4099 7.93758 22.3056 7.10875 18.2679C6.10931 13.3991 8.86075 8.69775 13.5834 7.20482C18.8494 5.54012 24.5142 8.90797 25.5901 14.3483C26.0836 16.8443 25.6689 19.1796 24.3457 21.3541C24.1253 21.7144 24.1459 21.8955 24.4324 22.1818C24.2108 22.4504 23.9893 22.7191 23.7679 22.9879C23.6874 23.0161 23.6165 22.9705 23.5414 22.9579C23.1159 22.8864 22.8725 23.1668 23.0043 23.5775C23.0223 23.6334 23.0649 23.6853 23.0308 23.7492C22.7603 23.9631 22.4899 24.1769 22.2194 24.3908Z" fill="#81F4E1"/>
<path d="M23.0308 23.7492C22.8423 23.462 22.8395 23.2197 23.0222 23.0221C23.2083 22.8211 23.4546 22.8098 23.7679 22.9878C23.9683 23.3087 23.964 23.5556 23.7544 23.7533C23.561 23.9357 23.3161 23.9343 23.0308 23.7492Z" fill="#2B2D54"/>
<path d="M16.348 3.67368C15.7515 3.67366 15.155 3.67616 14.5585 3.67288C14.0674 3.67019 13.7524 3.38632 13.7497 2.95268C13.747 2.52277 14.0687 2.21537 14.5461 2.21346C15.7476 2.20867 16.9492 2.2088 18.1509 2.21385C18.5836 2.21585 18.8801 2.47229 18.9334 2.86236C18.9505 3.02783 18.9115 3.19426 18.8227 3.33463C18.7339 3.47499 18.6004 3.58104 18.4441 3.63556C18.3276 3.66867 18.2063 3.68135 18.0856 3.67305C17.5064 3.67451 16.9272 3.67371 16.348 3.67368Z" fill="#4B73F3"/>
<path d="M16.3227 4.71842C16.6939 4.71842 17.0652 4.72279 17.4363 4.71595C17.5585 4.71369 17.6154 4.74927 17.5974 4.876C17.5967 4.88465 17.5967 4.89334 17.5973 4.90201C17.5964 5.18839 17.7027 5.55538 17.5657 5.73948C17.4155 5.94135 17.0439 5.74105 16.7671 5.7484C16.2842 5.76121 15.7996 5.73055 15.3195 5.80173C15.1471 5.82727 15.0688 5.79574 15.0842 5.59679C15.098 5.36282 15.0987 5.12825 15.0861 4.89421C15.0812 4.76034 15.1226 4.71208 15.261 4.7155C15.6147 4.72426 15.9688 4.71842 16.3227 4.71842Z" fill="#81F4E1"/>
<path d="M16.3459 8.19092C18.4815 8.19041 20.5299 9.04259 22.0407 10.5601C23.5514 12.0775 24.4009 14.1361 24.4023 16.2831C24.4034 20.748 20.7911 24.3853 16.3528 24.3883C11.9169 24.3913 8.29849 20.7538 8.29633 16.2895C8.29612 14.1426 9.14396 12.0834 10.6534 10.5648C12.1629 9.04613 14.2105 8.19227 16.3459 8.19092Z" fill="#2B2D54"/>
<path d="M23.3636 16.2974C23.3571 20.1844 20.2063 23.3475 16.3443 23.344C12.4716 23.3404 9.32156 20.1574 9.335 16.2613C9.34843 12.3711 12.5091 9.21328 16.3675 9.23497C18.2267 9.23935 20.008 9.98575 21.3199 11.3101C22.6318 12.6345 23.3669 14.4283 23.3636 16.2974Z" fill="#FEFEFE"/>
<path d="M14.7358 16.2803C14.7184 16.1314 14.742 15.9805 14.8041 15.8442C14.9354 15.6054 14.8266 15.474 14.6623 15.3205C14.3649 15.0427 14.0823 14.7484 13.7984 14.4561C13.547 14.1972 13.5333 13.8935 13.7545 13.6729C13.969 13.4588 14.2847 13.4758 14.5364 13.7242C14.8633 14.0469 15.1881 14.3719 15.5063 14.7033C15.5956 14.7963 15.6674 14.8206 15.7934 14.7704C16.1418 14.6281 16.5312 14.625 16.8819 14.7618C17.0285 14.8174 17.1085 14.7894 17.2116 14.6847C17.99 13.894 18.7756 13.1103 19.5559 12.3215C19.6963 12.1795 19.8472 12.0758 20.0557 12.0989C20.1463 12.1077 20.233 12.1407 20.3067 12.1946C20.3804 12.2484 20.4384 12.3212 20.4746 12.4052C20.5109 12.4892 20.5241 12.5814 20.5129 12.6723C20.5017 12.7632 20.4665 12.8494 20.4109 12.922C20.3006 13.0556 20.1814 13.1817 20.0542 13.2993C19.358 14.0006 18.6635 14.7037 17.9612 15.3988C17.8428 15.5159 17.8143 15.6047 17.87 15.7742C18.0855 16.4306 17.9356 17.0183 17.4284 17.4807C16.9219 17.9424 16.3245 18.0443 15.6959 17.7609C15.0689 17.4783 14.7655 16.9628 14.7358 16.2803Z" fill="#2B2D54"/>
<path d="M16.8707 10.9443C16.8707 11.031 16.8754 11.118 16.8698 11.2043C16.8674 11.3357 16.8147 11.4611 16.7227 11.5545C16.6307 11.6478 16.5065 11.702 16.3759 11.7057C16.2451 11.7124 16.1168 11.6683 16.0175 11.5825C15.9183 11.4967 15.8556 11.3758 15.8425 11.2448C15.8244 11.0549 15.8232 10.8637 15.839 10.6735C15.8421 10.6062 15.8585 10.5402 15.8871 10.4792C15.9157 10.4182 15.956 10.3636 16.0057 10.3183C16.0554 10.2731 16.1135 10.2382 16.1767 10.2156C16.2399 10.193 16.3069 10.1832 16.3738 10.1867C16.6587 10.1953 16.8571 10.4032 16.8711 10.7103C16.8746 10.7882 16.8716 10.8663 16.8716 10.9443H16.8707Z" fill="#2B2D54"/>
<path d="M21.6522 15.7745C21.7384 15.7745 21.8248 15.7705 21.9108 15.7752C22.0414 15.7766 22.1668 15.8277 22.2614 15.9183C22.3561 16.0088 22.413 16.1321 22.4208 16.2633C22.4277 16.3991 22.3817 16.5324 22.2924 16.6347C22.2031 16.7369 22.0776 16.8001 21.9427 16.8108C21.7536 16.8281 21.5634 16.8278 21.3744 16.8099C21.3075 16.8051 21.2422 16.7869 21.1824 16.7563C21.1226 16.7257 21.0695 16.6834 21.0262 16.6319C20.9829 16.5803 20.9503 16.5206 20.9304 16.4562C20.9104 16.3918 20.9035 16.324 20.91 16.2569C20.925 15.9825 21.1278 15.7896 21.4194 15.775C21.4968 15.7711 21.5746 15.7744 21.6522 15.7745Z" fill="#2B2D54"/>
<path d="M16.8612 21.6282C16.866 21.7234 16.8654 21.8187 16.8592 21.9138C16.8464 22.0446 16.7856 22.166 16.6887 22.2543C16.5918 22.3425 16.4658 22.3914 16.335 22.3915C16.2001 22.3875 16.072 22.3311 15.9776 22.2342C15.8832 22.1372 15.8298 22.0073 15.8288 21.8716C15.8218 21.7073 15.8216 21.5421 15.8288 21.3778C15.8303 21.2422 15.8844 21.1124 15.9796 21.0163C16.0748 20.9202 16.2037 20.8653 16.3386 20.8633C16.4694 20.863 16.5955 20.9121 16.692 21.0009C16.7885 21.0896 16.8484 21.2116 16.8597 21.3426C16.8656 21.4377 16.8661 21.5331 16.8612 21.6282Z" fill="#2B2D54"/>
<path d="M11.0433 15.7563C11.1465 15.7609 11.2506 15.7582 11.3527 15.7715C11.469 15.7848 11.5769 15.8394 11.6567 15.9255C11.7366 16.0117 11.7833 16.1236 11.7883 16.2412C11.802 16.3631 11.77 16.4857 11.6985 16.5851C11.6269 16.6844 11.5211 16.7533 11.4017 16.7783C11.173 16.8244 10.9378 16.827 10.7081 16.7861C10.5832 16.7672 10.4699 16.702 10.3902 16.6035C10.3106 16.5049 10.2704 16.38 10.2776 16.2532C10.2838 16.1267 10.3364 16.0069 10.4254 15.9172C10.5144 15.8274 10.6333 15.774 10.7592 15.7674C10.8531 15.7588 10.9484 15.766 11.0431 15.766L11.0433 15.7563Z" fill="#2B2D54"/>
<path d="M16.921 16.2904C16.9188 16.4439 16.8565 16.5904 16.7476 16.698C16.6387 16.8056 16.492 16.8658 16.3393 16.8654C16.1866 16.8606 16.042 16.7954 15.9368 16.684C15.8316 16.5726 15.7744 16.4239 15.7775 16.2704C15.7812 16.1214 15.8428 15.9799 15.9491 15.8761C16.0554 15.7723 16.198 15.7146 16.3462 15.7154C16.4218 15.7142 16.4968 15.7282 16.5669 15.7566C16.637 15.7851 16.7008 15.8273 16.7543 15.8809C16.8079 15.9345 16.8503 15.9984 16.8789 16.0687C16.9075 16.139 16.9218 16.2144 16.921 16.2904Z" fill="#4B73F3"/>
</g>
<defs>
<clipPath id="clip0_401_1311">
<rect width="27.5" height="27.5" fill="white" transform="translate(0.25 0.25)"/>
</clipPath>
</defs>
</svg>
