<svg width="28" height="28" viewBox="0 0 28 28" fill="none" xmlns="http://www.w3.org/2000/svg">
<g clip-path="url(#clip0_802_76)">
<path d="M22.5501 27.75C21.6065 27.4116 20.6656 27.0655 19.7184 26.7374C19.1012 26.5236 18.7227 26.129 18.6717 25.4618C18.6676 25.4186 18.6527 25.3771 18.6285 25.3411C18.6043 25.3051 18.5716 25.2757 18.5331 25.2555C17.5824 24.5584 17.2795 23.5779 17.6783 22.468C18.2748 20.8081 18.8749 19.1496 19.4786 17.4925C19.8795 16.3938 20.7653 15.8302 21.9298 15.9284C21.9728 15.9332 22.0163 15.9264 22.0558 15.9088C22.0954 15.8912 22.1295 15.8635 22.1548 15.8284C22.373 15.5869 22.6764 15.4399 23.001 15.4183C23.049 15.4217 23.0965 15.4069 23.134 15.3767C23.1715 15.3465 23.1962 15.3033 23.2032 15.2556C23.2447 15.1193 23.2941 14.9854 23.3512 14.8548C23.581 14.2981 24.076 13.9865 24.6785 14.0004C24.7664 14.0025 24.9295 14.1044 24.9412 13.9479C24.9539 13.7793 25.0347 13.5438 24.8219 13.4411C24.2708 13.1751 24.043 12.7293 23.987 12.1402C23.8634 10.8307 23.4771 9.55966 22.8513 8.40309C22.7868 8.28318 22.7426 8.21904 22.5759 8.27053C21.5886 8.57552 20.7528 8.31751 20.057 7.56079C18.7884 6.18102 17.2371 5.29534 15.3849 4.99828C12.4883 4.53374 10.0044 5.37564 7.96912 7.48571C7.39572 8.08019 6.76299 8.45244 5.92086 8.38588C5.76039 8.38181 5.60181 8.35017 5.45206 8.29233C5.22894 8.18959 5.15364 8.28586 5.05736 8.46987C4.44526 9.63353 4.06906 10.9068 3.9504 12.2165C3.89973 12.7657 3.6552 13.18 3.15123 13.4277C3.03538 13.4847 2.9304 13.907 3.00676 13.9938C3.04968 14.0426 3.10656 14.0142 3.15739 14.0129C3.96789 13.9915 4.3945 14.2793 4.66766 15.0511C4.74434 15.2677 4.80955 15.4389 5.09987 15.4498C5.37097 15.4599 5.60246 15.6235 5.78786 15.8275C5.81631 15.8657 5.85475 15.8952 5.89893 15.9128C5.94312 15.9304 5.9913 15.9354 6.03815 15.9272C7.07316 15.8116 8.03618 16.3639 8.40338 17.3425C9.06362 19.1021 9.70287 20.8694 10.3211 22.6446C10.6629 23.6269 10.293 24.6412 9.4347 25.2361C9.38353 25.2685 9.34117 25.313 9.31138 25.3658C9.28159 25.4185 9.26531 25.4779 9.26397 25.5384C9.21106 26.0634 8.93594 26.4564 8.45097 26.6436C7.51287 27.0059 6.55959 27.3288 5.61437 27.6728C5.52458 27.7055 5.41506 27.6628 5.34257 27.75H4.64569C3.66022 27.6191 3.07629 27.0151 2.75338 26.1201C1.98713 23.9963 1.22765 21.8701 0.45077 19.7502C0.36121 19.4906 0.29404 19.2237 0.25 18.9526V18.2016C0.306826 17.5887 0.605985 17.1083 1.07248 16.7268C1.13608 16.685 1.18149 16.6206 1.1996 16.5466C1.2177 16.4725 1.20717 16.3944 1.1701 16.3279C1.05473 16.0642 1.01129 15.7747 1.0442 15.4888C1.10072 15.0194 1.3571 14.6704 1.74914 14.4362C1.93796 14.3233 2.02373 14.2011 2.00342 13.989C1.99642 13.8908 1.99696 13.7923 2.00503 13.6942C2.01189 13.6409 2.00215 13.5867 1.97713 13.5391C1.95212 13.4915 1.91305 13.4528 1.86524 13.4282C1.21731 13.0511 1.08423 12.4557 1.15841 11.7669C1.31507 10.2788 1.7268 8.82887 2.37554 7.48076C2.90914 6.37682 3.59941 5.35588 4.42494 4.44962C5.29495 3.48785 6.30396 2.66188 7.41841 1.99919C8.85502 1.13511 10.4519 0.571692 12.1123 0.343018C13.0583 0.213024 14.0159 0.247384 14.9712 0.279745C16.6749 0.337457 18.2578 0.837292 19.7671 1.58496C20.9024 2.15505 21.944 2.89549 22.8558 3.78063C24.8152 5.65611 26.0477 7.9249 26.6002 10.5711C26.725 11.1113 26.792 11.6632 26.8 12.2176C26.8056 12.4517 26.7484 12.6831 26.6343 12.8876C26.5203 13.0921 26.3536 13.2624 26.1516 13.3807C25.982 13.4861 25.9114 13.5998 25.9407 13.7923C25.9511 13.8902 25.9522 13.9888 25.9439 14.0869C25.9392 14.149 25.9535 14.2111 25.9848 14.2649C26.0161 14.3187 26.0629 14.3618 26.1191 14.3885C26.84 14.824 27.0742 15.4484 26.8031 16.2407C26.7243 16.4711 26.7344 16.625 26.9395 16.7969C27.7596 17.4847 27.9014 18.3998 27.6136 19.3548C27.2479 20.5684 26.7668 21.7462 26.3388 22.9406C25.9711 23.9668 25.5979 24.991 25.2289 26.0167C25.0385 26.5463 24.7779 27.0223 24.3096 27.369C23.9885 27.6067 23.6317 27.7084 23.247 27.75H22.5501Z" fill="#2B2D54"/>
<path d="M5.0264 26.8338C4.42989 26.8347 3.93847 26.482 3.71642 25.8712C3.04039 24.0114 2.36769 22.1505 1.6983 20.2883C1.54997 19.8775 1.39798 19.4679 1.25713 19.0545C0.995315 18.2861 1.33192 17.5632 2.0935 17.2785C2.91951 16.9696 3.75028 16.6734 4.58062 16.3763C4.93214 16.2505 5.14204 16.3496 5.27076 16.7058C6.28873 19.5224 7.30478 22.3397 8.31891 25.1577C8.4411 25.4973 8.34446 25.7145 8.01042 25.8378C7.16636 26.1493 6.31907 26.4521 5.47211 26.7556C5.32994 26.8101 5.17861 26.8367 5.0264 26.8338Z" fill="#81F4E1"/>
<path d="M22.6525 26.7877C22.077 26.6577 21.5431 26.4054 20.9867 26.2195C20.6573 26.1095 20.3326 25.9853 20.006 25.8671C19.5943 25.7181 19.4988 25.5198 19.6483 25.1049C20.5159 22.6983 21.3843 20.2919 22.2536 17.8859C22.3959 17.4918 22.5344 17.0964 22.6805 16.7038C22.8129 16.3482 23.0175 16.2498 23.3717 16.3778C23.9405 16.5833 24.5063 16.7973 25.0733 17.0077C25.8481 17.454 26.0878 18.5173 25.8133 19.2577C25.2015 20.9082 24.6073 22.5656 24.0153 24.2236C23.8109 24.7959 23.6008 25.3662 23.3987 25.9393C23.3158 26.195 23.1874 26.4336 23.0196 26.6436C22.9258 26.7557 22.8193 26.8534 22.6525 26.7877Z" fill="#81F4E1"/>
<path d="M24.2226 9.13472C23.7391 7.95291 23.1088 6.85959 22.2609 5.89963C20.5193 3.92783 18.3622 2.6823 15.7601 2.2692C10.4094 1.41974 5.40665 4.40746 3.59635 9.51098C3.29912 10.3631 3.11105 11.2495 3.03666 12.149C3.00473 12.5084 2.75201 12.7062 2.44199 12.6205C2.21192 12.557 2.09928 12.3647 2.12927 12.0435C2.22385 10.912 2.49047 9.80162 2.91993 8.75065C4.48045 5.02109 7.21265 2.6111 11.1164 1.56767C13.3113 0.980993 15.4994 1.10063 17.6581 1.79761C17.6822 1.80853 17.705 1.82217 17.726 1.83828C17.8135 1.8842 17.9069 1.91812 18.0035 1.93913L17.9984 1.93564C18.9102 2.35997 19.7616 2.90362 20.5303 3.55234C21.6818 4.51366 22.6524 5.67303 23.3966 6.97586C23.7235 7.55924 24.0051 8.16692 24.2389 8.79352C24.279 8.89866 24.399 9.0305 24.2226 9.13472Z" fill="#4B73F3"/>
<path d="M22.2294 7.41846C21.6377 7.5733 21.1611 7.40828 20.7676 6.97501C20.2746 6.43227 19.7202 5.94864 19.1158 5.53382C15.4444 3.00901 10.3775 3.55547 7.33507 6.81496C6.96555 7.21085 6.57703 7.52028 5.99994 7.47384C5.91009 7.46661 5.79229 7.47679 5.75014 7.40717C5.69916 7.32295 5.80883 7.25358 5.85789 7.18744C7.57167 4.87669 9.84366 3.45918 12.7023 3.12995C16.5911 2.68209 19.7244 4.0954 22.1013 7.20052C22.1339 7.243 22.1625 7.28855 22.1916 7.33352C22.2057 7.36114 22.2183 7.38949 22.2294 7.41846Z" fill="#81F4E1"/>
<path d="M22.6525 26.7878C22.843 26.7936 22.9297 26.6504 23.0282 26.5248C23.2768 26.2081 23.3666 25.8183 23.5005 25.4528C24.0856 23.8559 24.6546 22.2532 25.2275 20.652C25.4343 20.0738 25.6862 19.5093 25.8225 18.9092C25.9816 18.2085 25.7189 17.6396 25.2049 17.1699C25.152 17.1216 25.0907 17.0835 25.0733 17.0078C25.3924 17.0886 25.7031 17.1997 26.0011 17.3395C26.6722 17.6522 26.9393 18.376 26.6685 19.1279C25.9145 21.221 25.1588 23.3135 24.4012 25.4053C24.3256 25.6145 24.2562 25.8269 24.1646 26.029C23.8945 26.6248 23.2406 26.9484 22.6525 26.7878Z" fill="#81F4E1"/>
<path d="M24.2226 9.13461C24.3158 9.0139 24.2158 8.91177 24.1796 8.8131C23.7298 7.58181 23.0822 6.43229 22.2622 5.40992C21.3379 4.25526 20.2187 3.27152 18.9553 2.50327C18.6384 2.31017 18.2658 2.21091 17.9984 1.93555C19.0156 2.27357 19.9727 2.77104 20.834 3.40937C23.4717 5.31925 25.0897 7.87793 25.6881 11.0854C25.7494 11.4282 25.7931 11.7739 25.8191 12.1212C25.8434 12.415 25.6827 12.6056 25.427 12.632C25.3646 12.6419 25.3009 12.6384 25.24 12.6216C25.1791 12.6048 25.1226 12.5751 25.0741 12.5346C25.0256 12.4941 24.9864 12.4437 24.959 12.3868C24.9317 12.3298 24.9168 12.2677 24.9154 12.2045C24.8186 11.1554 24.5857 10.1235 24.2226 9.13461Z" fill="#4B73F3"/>
<path d="M9.52735 23.2926C9.5167 23.6827 9.41809 23.974 9.21307 24.2247C9.04987 24.4242 9.0231 24.4183 8.93585 24.1767C8.51455 23.0102 8.09368 21.8435 7.67323 20.6767C7.23972 19.4766 6.80628 18.2765 6.37293 17.0764C6.34675 17.0035 6.27359 16.9162 6.32444 16.8505C6.38833 16.768 6.49055 16.8325 6.57392 16.8516C7.06396 16.9637 7.40966 17.2576 7.58048 17.7253C8.20803 19.4435 8.82457 21.1657 9.44295 22.8873C9.49676 23.0157 9.52541 23.1534 9.52735 23.2926Z" fill="#4B73F3"/>
<path d="M18.4222 23.3339C18.4244 23.1549 18.4607 22.978 18.5294 22.8126C19.1224 21.1677 19.7194 19.5242 20.3062 17.877C20.4932 17.3519 20.812 16.9811 21.3703 16.8515C21.4541 16.832 21.5567 16.7684 21.6211 16.8484C21.673 16.9129 21.5996 17.0012 21.5733 17.074C20.9386 18.8367 20.302 20.5987 19.6638 22.3601C19.4425 22.9726 19.2186 23.5843 19.0064 24.2C18.9385 24.397 18.8744 24.3944 18.749 24.2474C18.539 23.9892 18.4237 23.6668 18.4222 23.3339Z" fill="#4B73F3"/>
<path d="M2.01371 15.6676C2.00905 15.5861 2.02953 15.5052 2.07236 15.4358C2.11519 15.3665 2.17831 15.3119 2.25316 15.2796C2.57158 15.1418 2.89883 15.0254 3.23274 14.9311C3.54633 14.8496 3.96353 15.2989 3.8893 15.6044C3.87343 15.6697 3.81569 15.6728 3.76672 15.6906C3.28977 15.864 2.81238 16.0362 2.33665 16.2128C2.23695 16.2499 2.16958 16.2459 2.14014 16.129C2.10124 15.9744 2.00835 15.8346 2.01371 15.6676Z" fill="#4B73F3"/>
<path d="M25.936 15.6871C25.922 15.8642 25.8382 16.0237 25.7782 16.1906C25.7426 16.2898 25.6767 16.2347 25.6268 16.2168C25.1406 16.0426 24.6556 15.8649 24.1699 15.689C24.1198 15.6709 24.0657 15.6636 24.0562 15.5952C24.0024 15.2124 24.4374 14.8307 24.8063 14.9485C25.0861 15.0378 25.3604 15.1449 25.6346 15.2508C25.7252 15.2813 25.8034 15.3402 25.8577 15.4189C25.912 15.4975 25.9395 15.5916 25.936 15.6871Z" fill="#4B73F3"/>
<path d="M18.0034 1.93923C17.9524 1.95075 17.8991 1.94737 17.8499 1.92949C17.8007 1.91161 17.7577 1.87999 17.726 1.83838C17.8267 1.84218 17.9237 1.87745 18.0034 1.93923Z" fill="#4B73F3"/>
</g>
<defs>
<clipPath id="clip0_802_76">
<rect width="27.5" height="27.5" fill="white" transform="translate(0.25 0.25)"/>
</clipPath>
</defs>
</svg>
